<?xml version="1.0" encoding="utf-8"?>
<!-- Generator: Adobe Illustrator 24.2.1, SVG Export Plug-In . SVG Version: 6.00 Build 0)  -->
<svg version="1.1" id="Layer_1" xmlns="http://www.w3.org/2000/svg" xmlns:xlink="http://www.w3.org/1999/xlink" x="0px" y="0px"
	 viewBox="0 0 636.3 295.5" style="enable-background:new 0 0 636.3 295.5;" xml:space="preserve">
<style type="text/css">
	.st0{fill:#777777;}
	.st1{fill:#F7BFB2;}
	.st2{fill:#FDC8BC;}
</style>
<g>
	<g transform="rotate(0 0 272)">
		<g transform="matrix(1 0 0 1 0 0)">
			<path class="st0" d="M6.3,281.4c1,0.3,1.8,0.8,2.4,1.5s0.9,1.6,0.9,2.6l0,0c0,1-0.2,1.8-0.7,2.5c-0.5,0.7-1.1,1.2-1.9,1.5
				c-0.8,0.3-1.7,0.5-2.6,0.5l0,0H0v-16.8h3.7c3.4,0,5.1,1.4,5.1,4.3l0,0c0,0.9-0.2,1.7-0.7,2.4C7.7,280.6,7.1,281.1,6.3,281.4
				L6.3,281.4z M1.2,274.3v6.7h3.1c1.1,0,2-0.3,2.5-0.9s0.8-1.4,0.8-2.5l0,0c0-1.2-0.3-2-1-2.5s-1.6-0.8-2.9-0.8l0,0H1.2z
				 M4.3,288.9c1.2,0,2.2-0.3,3-0.9s1.2-1.4,1.2-2.5l0,0c0-1.1-0.4-2-1.3-2.6c-0.8-0.6-1.8-0.9-3-0.9l0,0H1.2v6.8H4.3z M23.8,280.7
				h1v9.3h-1.1v-2c-0.4,0.6-0.9,1.1-1.7,1.5c-0.7,0.4-1.5,0.6-2.4,0.6l0,0c-0.9,0-1.7-0.2-2.4-0.6c-0.7-0.4-1.3-1-1.7-1.7
				c-0.4-0.7-0.6-1.6-0.6-2.5l0,0c0-1,0.2-1.9,0.7-2.6c0.4-0.7,1-1.3,1.8-1.7c0.8-0.4,1.6-0.6,2.6-0.6l0,0c0.8,0,1.5,0.2,2.2,0.6
				c0.7,0.4,1.2,1,1.6,1.7l0,0L23.8,280.7z M19.8,289.2c1,0,1.9-0.3,2.7-1c0.7-0.6,1.1-1.5,1.2-2.5l0,0v-1.3
				c-0.2-0.9-0.6-1.6-1.4-2.2c-0.7-0.6-1.6-0.9-2.5-0.9l0,0c-0.7,0-1.4,0.2-1.9,0.5c-0.6,0.3-1,0.8-1.4,1.4s-0.5,1.3-0.5,2l0,0
				c0,0.7,0.2,1.4,0.5,2s0.8,1.1,1.4,1.4C18.5,289,19.1,289.2,19.8,289.2L19.8,289.2z M36.3,280.5c0.9,0,1.5,0.3,2.1,0.8
				c0.5,0.5,0.8,1.2,0.9,2l0,0v6.7h-1.1v-6.4c0-0.6-0.2-1.1-0.6-1.5c-0.4-0.4-0.9-0.6-1.6-0.6l0,0c-0.6,0-1.2,0.1-1.7,0.4
				s-1,0.7-1.3,1.3s-0.5,1.2-0.5,1.9l0,0v5h-1.1v-9.3h1l0.1,2.1c0.3-0.7,0.8-1.3,1.5-1.7C34.7,280.7,35.5,280.5,36.3,280.5
				L36.3,280.5z M53.8,272h1.1v18h-1.1v-1.9c-0.4,0.6-1,1.1-1.8,1.5s-1.5,0.6-2.4,0.6l0,0c-0.9,0-1.7-0.2-2.4-0.6
				c-0.7-0.4-1.3-1-1.7-1.8c-0.4-0.7-0.6-1.6-0.6-2.5l0,0c0-1,0.2-1.8,0.6-2.6s1-1.3,1.7-1.7c0.7-0.4,1.5-0.6,2.4-0.6l0,0
				c0.8,0,1.6,0.2,2.3,0.6c0.7,0.4,1.3,0.9,1.7,1.6l0,0V272z M49.9,289.2c1.1,0,1.9-0.3,2.7-1c0.7-0.7,1.1-1.5,1.2-2.5l0,0v-1.2
				c-0.2-0.9-0.6-1.6-1.4-2.2c-0.7-0.6-1.6-0.9-2.5-0.9l0,0c-0.7,0-1.4,0.2-1.9,0.5c-0.6,0.3-1,0.8-1.4,1.4s-0.5,1.3-0.5,2l0,0
				c0,0.7,0.2,1.4,0.5,2s0.8,1.1,1.4,1.4C48.6,289,49.2,289.2,49.9,289.2L49.9,289.2z M71.7,273.2h10.4v1.1h-9.2v6.7h8.3v1.1h-8.3
				v6.8h9.5v1.1H71.7V273.2z M88.6,272h1.1v18h-1.1V272z M100.3,289.2c1,0,1.9-0.3,2.7-1l0,0l0.6,0.8c-0.5,0.4-1,0.7-1.5,0.9
				s-1.2,0.3-1.7,0.3l0,0c-0.9,0-1.8-0.2-2.5-0.6c-0.7-0.4-1.3-1-1.8-1.7c-0.4-0.7-0.6-1.6-0.6-2.5l0,0c0-0.9,0.2-1.7,0.7-2.4
				c0.4-0.7,1-1.3,1.8-1.8c0.8-0.4,1.6-0.7,2.5-0.7l0,0c1.1,0,2,0.3,2.7,0.9s1.3,1.5,1.7,2.6l0,0l-7.9,3.1c0.3,0.7,0.8,1.2,1.4,1.6
				C98.9,289,99.6,289.2,100.3,289.2L100.3,289.2z M100.3,281.4c-0.7,0-1.3,0.2-1.9,0.5c-0.6,0.3-1,0.8-1.4,1.4
				c-0.3,0.6-0.5,1.3-0.5,2l0,0c0,0.3,0,0.6,0.1,0.9l0,0l6.8-2.7c-0.3-0.6-0.7-1.1-1.3-1.5C101.6,281.6,101,281.4,100.3,281.4
				L100.3,281.4z M117.3,289.1c-0.4,0.3-0.9,0.6-1.5,0.8c-0.5,0.2-1.1,0.3-1.7,0.3l0,0c-0.9,0-1.8-0.2-2.5-0.6
				c-0.7-0.4-1.3-1-1.8-1.7s-0.6-1.6-0.6-2.5l0,0c0-0.9,0.2-1.7,0.7-2.5c0.4-0.7,1-1.3,1.8-1.7c0.7-0.4,1.5-0.6,2.4-0.6l0,0
				c1.3,0,2.4,0.4,3.2,1.1l0,0l-0.6,0.8c-0.8-0.6-1.6-0.9-2.6-0.9l0,0c-0.7,0-1.3,0.2-1.9,0.5s-1,0.8-1.4,1.4
				c-0.3,0.6-0.5,1.3-0.5,2l0,0c0,0.7,0.2,1.4,0.5,2c0.3,0.6,0.8,1.1,1.4,1.4c0.6,0.3,1.3,0.5,2,0.5l0,0c0.9,0,1.7-0.3,2.4-0.8l0,0
				L117.3,289.1z M123.7,276.7h1.1v4.2h2.9v0.9h-2.9v8.2h-1.1v-8.2h-2v-0.9h2V276.7z M136.9,289.2c1,0,1.9-0.3,2.7-1l0,0l0.6,0.8
				c-0.5,0.4-1,0.7-1.5,0.9s-1.2,0.3-1.7,0.3l0,0c-0.9,0-1.8-0.2-2.5-0.6c-0.7-0.4-1.3-1-1.8-1.7c-0.4-0.7-0.6-1.6-0.6-2.5l0,0
				c0-0.9,0.2-1.7,0.7-2.4c0.4-0.7,1-1.3,1.8-1.8s1.6-0.7,2.5-0.7l0,0c1.1,0,2,0.3,2.7,0.9c0.8,0.6,1.3,1.5,1.7,2.6l0,0l-7.9,3.1
				c0.3,0.7,0.8,1.2,1.4,1.6C135.4,289,136.1,289.2,136.9,289.2L136.9,289.2z M136.8,281.4c-0.7,0-1.3,0.2-1.9,0.5
				c-0.6,0.3-1,0.8-1.4,1.4c-0.3,0.6-0.5,1.3-0.5,2l0,0c0,0.3,0,0.6,0.1,0.9l0,0l6.8-2.7c-0.3-0.6-0.7-1.1-1.3-1.5
				C138.2,281.6,137.5,281.4,136.8,281.4L136.8,281.4z M154.7,272h1.1v18h-1.1v-1.9c-0.4,0.6-1,1.1-1.8,1.5
				c-0.7,0.4-1.5,0.6-2.4,0.6l0,0c-0.9,0-1.7-0.2-2.4-0.6c-0.7-0.4-1.3-1-1.7-1.8c-0.4-0.7-0.6-1.6-0.6-2.5l0,0c0-1,0.2-1.8,0.6-2.6
				c0.4-0.7,1-1.3,1.7-1.7c0.7-0.4,1.5-0.6,2.4-0.6l0,0c0.8,0,1.6,0.2,2.3,0.6c0.7,0.4,1.3,0.9,1.7,1.6l0,0V272z M150.8,289.2
				c1.1,0,1.9-0.3,2.7-1c0.7-0.7,1.1-1.5,1.2-2.5l0,0v-1.2c-0.2-0.9-0.6-1.6-1.4-2.2c-0.7-0.6-1.6-0.9-2.5-0.9l0,0
				c-0.7,0-1.4,0.2-1.9,0.5s-1,0.8-1.4,1.4c-0.3,0.6-0.5,1.3-0.5,2l0,0c0,0.7,0.2,1.4,0.5,2c0.3,0.6,0.8,1.1,1.4,1.4
				S150.1,289.2,150.8,289.2L150.8,289.2z M184.1,290l-2.2-5.6h-7.4l-2.2,5.6h-1.2l7.1-17.5h0.1l7.1,17.5H184.1z M175,283.3h6.6
				l-3.2-8.3L175,283.3z M190.3,284.7h4.4v1h-4.4V284.7z M213.6,273.2V290h-1.2v-7.9h-10.1v7.9h-1.2v-16.8h1.2v7.8h10.1v-7.8H213.6z
				 M219.9,285.3c0-0.9,0.2-1.7,0.7-2.4c0.4-0.7,1-1.3,1.8-1.8c0.8-0.4,1.6-0.7,2.5-0.7l0,0c0.9,0,1.8,0.2,2.5,0.7
				c0.8,0.4,1.3,1,1.8,1.8c0.4,0.7,0.6,1.6,0.6,2.4l0,0c0,0.9-0.2,1.7-0.7,2.5c-0.4,0.7-1,1.3-1.8,1.8c-0.7,0.4-1.6,0.7-2.5,0.7l0,0
				c-0.9,0-1.8-0.2-2.5-0.6c-0.7-0.4-1.3-1-1.8-1.7C220.1,287.1,219.9,286.2,219.9,285.3L219.9,285.3z M221,285.3
				c0,0.7,0.2,1.4,0.5,2c0.3,0.6,0.8,1.1,1.4,1.4c0.6,0.3,1.2,0.5,1.9,0.5l0,0c0.7,0,1.3-0.2,1.9-0.5c0.6-0.3,1-0.8,1.4-1.4
				c0.3-0.6,0.5-1.3,0.5-2l0,0c0-0.7-0.2-1.4-0.5-2c-0.3-0.6-0.8-1.1-1.4-1.4c-0.6-0.3-1.2-0.5-1.9-0.5l0,0c-0.7,0-1.4,0.2-1.9,0.6
				s-1,0.9-1.4,1.5C221.2,284,221,284.6,221,285.3L221,285.3z M235.4,272h1.1v18h-1.1V272z M247.2,289.2c1,0,1.9-0.3,2.7-1l0,0
				l0.6,0.8c-0.5,0.4-1,0.7-1.5,0.9c-0.6,0.2-1.2,0.3-1.7,0.3l0,0c-0.9,0-1.8-0.2-2.5-0.6s-1.3-1-1.8-1.7c-0.4-0.7-0.6-1.6-0.6-2.5
				l0,0c0-0.9,0.2-1.7,0.7-2.4c0.4-0.7,1-1.3,1.8-1.8c0.8-0.4,1.6-0.7,2.5-0.7l0,0c1.1,0,2,0.3,2.7,0.9c0.8,0.6,1.3,1.5,1.7,2.6l0,0
				l-7.9,3.1c0.3,0.7,0.8,1.2,1.4,1.6C245.7,289,246.4,289.2,247.2,289.2L247.2,289.2z M247.1,281.4c-0.7,0-1.3,0.2-1.9,0.5
				c-0.6,0.3-1,0.8-1.4,1.4c-0.3,0.6-0.5,1.3-0.5,2l0,0c0,0.3,0,0.6,0.1,0.9l0,0l6.8-2.7c-0.3-0.6-0.7-1.1-1.3-1.5
				C248.4,281.6,247.8,281.4,247.1,281.4L247.1,281.4z M266.8,273.3h1v22.2h-1V273.3z M293.3,275.1c-0.6-0.3-1.2-0.5-1.9-0.7
				s-1.4-0.3-2-0.3l0,0c-1.1,0-2,0.3-2.7,0.8c-0.7,0.5-1,1.2-1,2.1l0,0c0,0.6,0.2,1.1,0.5,1.5c0.4,0.4,0.8,0.8,1.4,1
				c0.6,0.3,1.3,0.6,2.1,0.9l0,0c0.9,0.3,1.7,0.7,2.4,1.1c0.6,0.4,1.1,0.9,1.6,1.5c0.4,0.6,0.6,1.4,0.6,2.4l0,0
				c0,0.9-0.2,1.8-0.7,2.5c-0.4,0.7-1.1,1.3-1.9,1.7c-0.8,0.4-1.7,0.6-2.7,0.6l0,0c-1.8,0-3.5-0.6-5.3-1.7l0,0l0.5-0.9
				c0.6,0.4,1.3,0.8,2.2,1.2c0.9,0.3,1.7,0.5,2.5,0.5l0,0c0.7,0,1.4-0.1,2-0.4c0.6-0.3,1.2-0.7,1.6-1.3c0.4-0.6,0.6-1.2,0.6-2l0,0
				c0-0.7-0.2-1.4-0.6-1.9c-0.4-0.5-0.8-0.9-1.4-1.2c-0.6-0.3-1.3-0.6-2.1-0.9l0,0c-0.9-0.3-1.7-0.7-2.3-1c-0.6-0.3-1.1-0.8-1.5-1.3
				s-0.6-1.2-0.6-2l0,0c0-0.8,0.2-1.5,0.6-2.1s1-1.1,1.7-1.4c0.7-0.3,1.5-0.5,2.4-0.5l0,0c0.8,0,1.5,0.1,2.4,0.3s1.5,0.5,2.2,0.8
				l0,0L293.3,275.1z M304.5,289.2c1,0,1.9-0.3,2.7-1l0,0l0.6,0.8c-0.5,0.4-1,0.7-1.5,0.9c-0.6,0.2-1.2,0.3-1.7,0.3l0,0
				c-0.9,0-1.8-0.2-2.5-0.6c-0.7-0.4-1.3-1-1.8-1.7c-0.4-0.7-0.6-1.6-0.6-2.5l0,0c0-0.9,0.2-1.7,0.7-2.4c0.4-0.7,1-1.3,1.8-1.8
				c0.8-0.4,1.6-0.7,2.5-0.7l0,0c1.1,0,2,0.3,2.7,0.9s1.3,1.5,1.7,2.6l0,0L301,287c0.3,0.7,0.8,1.2,1.4,1.6
				C303,289,303.7,289.2,304.5,289.2L304.5,289.2z M304.5,281.4c-0.7,0-1.3,0.2-1.9,0.5c-0.6,0.3-1,0.8-1.4,1.4
				c-0.3,0.6-0.5,1.3-0.5,2l0,0c0,0.3,0,0.6,0.1,0.9l0,0l6.8-2.7c-0.3-0.6-0.7-1.1-1.3-1.5C305.8,281.6,305.2,281.4,304.5,281.4
				L304.5,281.4z M315.4,282.9c0.3-0.7,0.9-1.3,1.6-1.8c0.8-0.4,1.5-0.7,2.3-0.7l0,0l0,1.1c-0.7,0-1.3,0.2-1.9,0.5
				c-0.6,0.3-1,0.7-1.4,1.3c-0.3,0.5-0.5,1.1-0.5,1.8l0,0v4.9h-1.1v-9.3h1L315.4,282.9z M331.6,280.7h1.2l-4.6,9.6h-0.1l-4.7-9.6
				h1.3l3.5,7.6L331.6,280.7z M337.9,280.7h1.1v9.3h-1.1V280.7z M337.7,277.3c0-0.2,0.1-0.4,0.2-0.6c0.2-0.1,0.4-0.2,0.6-0.2l0,0
				c0.2,0,0.4,0.1,0.6,0.2s0.2,0.3,0.2,0.6l0,0c0,0.2-0.1,0.4-0.2,0.6c-0.2,0.1-0.3,0.2-0.6,0.2l0,0c-0.2,0-0.4-0.1-0.6-0.2
				C337.8,277.7,337.7,277.5,337.7,277.3L337.7,277.3z M350.6,280.5c0.9,0,1.5,0.3,2.1,0.8c0.5,0.5,0.8,1.2,0.9,2l0,0v6.7h-1.1v-6.4
				c0-0.6-0.2-1.1-0.6-1.5c-0.4-0.4-0.9-0.6-1.6-0.6l0,0c-0.6,0-1.2,0.1-1.7,0.4s-1,0.7-1.3,1.3c-0.3,0.5-0.5,1.2-0.5,1.9l0,0v5
				h-1.1v-9.3h1l0.1,2.1c0.3-0.7,0.8-1.3,1.5-1.7C348.9,280.7,349.7,280.5,350.6,280.5L350.6,280.5z M368.2,280.7h1v9.4
				c0,1.3-0.4,2.3-1.2,3.1c-0.8,0.8-2.1,1.2-3.8,1.2l0,0c-0.8,0-1.5-0.1-2.2-0.4c-0.7-0.3-1.4-0.8-2.1-1.5l0,0l0.7-0.8
				c0.6,0.6,1.2,1,1.8,1.3c0.6,0.2,1.2,0.4,1.8,0.4l0,0c1.4,0,2.3-0.3,3-0.9c0.6-0.6,0.9-1.4,1-2.5l0,0l0-2.2
				c-0.4,0.7-1,1.2-1.7,1.6c-0.7,0.4-1.6,0.6-2.4,0.6l0,0c-0.9,0-1.7-0.2-2.4-0.6c-0.7-0.4-1.3-1-1.7-1.8c-0.4-0.7-0.6-1.6-0.6-2.5
				l0,0c0-0.9,0.2-1.8,0.7-2.5c0.4-0.7,1-1.3,1.8-1.7c0.8-0.4,1.6-0.6,2.5-0.6l0,0c0.8,0,1.6,0.2,2.3,0.6c0.7,0.4,1.3,0.9,1.7,1.6
				l0,0L368.2,280.7z M364.2,289.2c0.7,0,1.3-0.2,1.9-0.5c0.6-0.3,1-0.7,1.4-1.2c0.4-0.5,0.6-1.1,0.6-1.7l0,0v-1.4
				c-0.2-0.9-0.7-1.6-1.4-2.2c-0.7-0.6-1.6-0.9-2.5-0.9l0,0c-0.7,0-1.4,0.2-2,0.5c-0.6,0.3-1.1,0.8-1.4,1.4c-0.3,0.6-0.5,1.3-0.5,2
				l0,0c0,0.7,0.2,1.4,0.5,2s0.8,1.1,1.4,1.4C362.9,289,363.5,289.2,364.2,289.2L364.2,289.2z M387.2,280.8l0,0.8l0.1-0.2l8.3-8.2
				h1.5l-7,6.9l7.7,9.9h-1.5l-7.1-9.2l-2,1.9l0,7.2H386v-16.8h1.2V280.8z M408.3,280.5c0.9,0,1.5,0.3,2.1,0.8c0.5,0.5,0.8,1.2,0.9,2
				l0,0v6.7h-1.1v-6.4c0-0.6-0.2-1.1-0.6-1.5c-0.4-0.4-0.9-0.6-1.6-0.6l0,0c-0.6,0-1.2,0.1-1.7,0.4s-1,0.7-1.3,1.3
				c-0.3,0.5-0.5,1.2-0.5,1.9l0,0v5h-1.1v-9.3h1l0.1,2.1c0.3-0.7,0.8-1.3,1.5-1.7C406.6,280.7,407.4,280.5,408.3,280.5L408.3,280.5z
				 M424.5,280.7h1.1v9.3h-1l-0.1-2c-0.3,0.6-0.8,1.2-1.5,1.6c-0.7,0.4-1.5,0.6-2.3,0.6l0,0c-0.9,0-1.5-0.3-2.1-0.8
				c-0.5-0.5-0.8-1.2-0.8-2l0,0v-6.7h1.1v6.4c0,0.6,0.2,1.1,0.6,1.5c0.4,0.4,0.9,0.6,1.6,0.6l0,0c0.6,0,1.2-0.2,1.7-0.5
				c0.5-0.3,1-0.7,1.3-1.3c0.3-0.6,0.5-1.2,0.5-1.8l0,0V280.7z M439.4,289.1c-0.4,0.3-0.9,0.6-1.5,0.8s-1.1,0.3-1.7,0.3l0,0
				c-0.9,0-1.8-0.2-2.5-0.6c-0.7-0.4-1.3-1-1.8-1.7c-0.4-0.7-0.6-1.6-0.6-2.5l0,0c0-0.9,0.2-1.7,0.7-2.5s1-1.3,1.8-1.7
				c0.7-0.4,1.5-0.6,2.4-0.6l0,0c1.3,0,2.4,0.4,3.2,1.1l0,0l-0.6,0.8c-0.8-0.6-1.6-0.9-2.6-0.9l0,0c-0.7,0-1.3,0.2-1.9,0.5
				c-0.6,0.3-1,0.8-1.4,1.4c-0.3,0.6-0.5,1.3-0.5,2l0,0c0,0.7,0.2,1.4,0.5,2c0.3,0.6,0.8,1.1,1.4,1.4c0.6,0.3,1.3,0.5,2,0.5l0,0
				c0.9,0,1.7-0.3,2.4-0.8l0,0L439.4,289.1z M451.1,290l-3.6-5.1l-1.6,1.4v3.7h-1.1v-18h1.1v13.1l5.2-4.5l0.7,0.6l-3.5,3.1l4.1,5.7
				H451.1z M457.9,272h1.1v18h-1.1V272z M469.6,289.2c1,0,1.9-0.3,2.7-1l0,0l0.6,0.8c-0.5,0.4-1,0.7-1.5,0.9
				c-0.6,0.2-1.2,0.3-1.7,0.3l0,0c-0.9,0-1.8-0.2-2.5-0.6s-1.3-1-1.8-1.7c-0.4-0.7-0.6-1.6-0.6-2.5l0,0c0-0.9,0.2-1.7,0.7-2.4
				c0.4-0.7,1-1.3,1.8-1.8c0.8-0.4,1.6-0.7,2.5-0.7l0,0c1.1,0,2,0.3,2.7,0.9c0.8,0.6,1.3,1.5,1.7,2.6l0,0l-7.9,3.1
				c0.3,0.7,0.8,1.2,1.4,1.6C468.1,289,468.8,289.2,469.6,289.2L469.6,289.2z M469.5,281.4c-0.7,0-1.3,0.2-1.9,0.5
				c-0.6,0.3-1,0.8-1.4,1.4c-0.3,0.6-0.5,1.3-0.5,2l0,0c0,0.3,0,0.6,0.1,0.9l0,0l6.8-2.7c-0.3-0.6-0.7-1.1-1.3-1.5
				C470.9,281.6,470.2,281.4,469.5,281.4L469.5,281.4z M498,275.1c-0.6-0.3-1.2-0.5-1.9-0.7c-0.7-0.2-1.4-0.3-2-0.3l0,0
				c-1.1,0-2,0.3-2.7,0.8c-0.7,0.5-1,1.2-1,2.1l0,0c0,0.6,0.2,1.1,0.5,1.5c0.4,0.4,0.8,0.8,1.4,1c0.6,0.3,1.3,0.6,2.1,0.9l0,0
				c0.9,0.3,1.7,0.7,2.4,1.1c0.6,0.4,1.1,0.9,1.6,1.5c0.4,0.6,0.6,1.4,0.6,2.4l0,0c0,0.9-0.2,1.8-0.7,2.5c-0.4,0.7-1.1,1.3-1.9,1.7
				c-0.8,0.4-1.7,0.6-2.7,0.6l0,0c-1.8,0-3.5-0.6-5.3-1.7l0,0l0.5-0.9c0.6,0.4,1.3,0.8,2.2,1.2c0.9,0.3,1.7,0.5,2.5,0.5l0,0
				c0.7,0,1.4-0.1,2-0.4c0.6-0.3,1.2-0.7,1.6-1.3c0.4-0.6,0.6-1.2,0.6-2l0,0c0-0.7-0.2-1.4-0.6-1.9c-0.4-0.5-0.8-0.9-1.4-1.2
				c-0.6-0.3-1.3-0.6-2.1-0.9l0,0c-0.9-0.3-1.7-0.7-2.3-1c-0.6-0.3-1.1-0.8-1.5-1.3c-0.4-0.5-0.6-1.2-0.6-2l0,0
				c0-0.8,0.2-1.5,0.6-2.1c0.4-0.6,1-1.1,1.7-1.4s1.5-0.5,2.4-0.5l0,0c0.8,0,1.5,0.1,2.4,0.3s1.5,0.5,2.2,0.8l0,0L498,275.1z
				 M513.2,280.7h1v9.3h-1.1v-2c-0.4,0.6-0.9,1.1-1.7,1.5c-0.7,0.4-1.5,0.6-2.4,0.6l0,0c-0.9,0-1.7-0.2-2.4-0.6
				c-0.7-0.4-1.3-1-1.7-1.7c-0.4-0.7-0.6-1.6-0.6-2.5l0,0c0-1,0.2-1.9,0.7-2.6c0.4-0.7,1-1.3,1.8-1.7c0.8-0.4,1.6-0.6,2.6-0.6l0,0
				c0.8,0,1.5,0.2,2.2,0.6s1.2,1,1.6,1.7l0,0L513.2,280.7z M509.2,289.2c1,0,1.9-0.3,2.7-1c0.7-0.6,1.1-1.5,1.2-2.5l0,0v-1.3
				c-0.2-0.9-0.6-1.6-1.4-2.2c-0.7-0.6-1.6-0.9-2.5-0.9l0,0c-0.7,0-1.4,0.2-1.9,0.5c-0.6,0.3-1,0.8-1.4,1.4s-0.5,1.3-0.5,2l0,0
				c0,0.7,0.2,1.4,0.5,2s0.8,1.1,1.4,1.4C507.9,289,508.6,289.2,509.2,289.2L509.2,289.2z M525.7,280.5c0.9,0,1.5,0.3,2.1,0.8
				c0.5,0.5,0.8,1.2,0.9,2l0,0v6.7h-1.1v-6.4c0-0.6-0.2-1.1-0.6-1.5c-0.4-0.4-0.9-0.6-1.6-0.6l0,0c-0.6,0-1.2,0.1-1.7,0.4
				c-0.5,0.3-1,0.7-1.3,1.3c-0.3,0.5-0.5,1.2-0.5,1.9l0,0v5h-1.1v-9.3h1l0.1,2.1c0.3-0.7,0.8-1.3,1.5-1.7
				C524.1,280.7,524.9,280.5,525.7,280.5L525.7,280.5z M543.2,272h1.1v18h-1.1v-1.9c-0.4,0.6-1,1.1-1.8,1.5
				c-0.7,0.4-1.5,0.6-2.4,0.6l0,0c-0.9,0-1.7-0.2-2.4-0.6c-0.7-0.4-1.3-1-1.7-1.8c-0.4-0.7-0.6-1.6-0.6-2.5l0,0c0-1,0.2-1.8,0.6-2.6
				s1-1.3,1.7-1.7c0.7-0.4,1.5-0.6,2.4-0.6l0,0c0.8,0,1.6,0.2,2.3,0.6c0.7,0.4,1.3,0.9,1.7,1.6l0,0V272z M539.3,289.2
				c1.1,0,1.9-0.3,2.7-1c0.7-0.7,1.1-1.5,1.2-2.5l0,0v-1.2c-0.2-0.9-0.6-1.6-1.4-2.2c-0.7-0.6-1.6-0.9-2.5-0.9l0,0
				c-0.7,0-1.4,0.2-1.9,0.5s-1,0.8-1.4,1.4c-0.3,0.6-0.5,1.3-0.5,2l0,0c0,0.7,0.2,1.4,0.5,2c0.3,0.6,0.8,1.1,1.4,1.4
				S538.6,289.2,539.3,289.2L539.3,289.2z M562.7,280.7h1.1l-4.4,9.8l-3-6.6l-2.7,6.6l-4.4-9.8h1.1l3.3,7.5l2.2-5.3l-1-2.2h1
				l3.4,7.6L562.7,280.7z M569,280.7h1.1v9.3H569V280.7z M568.8,277.3c0-0.2,0.1-0.4,0.2-0.6s0.4-0.2,0.6-0.2l0,0
				c0.2,0,0.4,0.1,0.6,0.2c0.2,0.1,0.2,0.3,0.2,0.6l0,0c0,0.2-0.1,0.4-0.2,0.6c-0.2,0.1-0.3,0.2-0.6,0.2l0,0c-0.2,0-0.4-0.1-0.6-0.2
				C568.9,277.7,568.8,277.5,568.8,277.3L568.8,277.3z M583.9,289.1c-0.4,0.3-0.9,0.6-1.5,0.8c-0.5,0.2-1.1,0.3-1.7,0.3l0,0
				c-0.9,0-1.8-0.2-2.5-0.6c-0.7-0.4-1.3-1-1.8-1.7s-0.6-1.6-0.6-2.5l0,0c0-0.9,0.2-1.7,0.7-2.5c0.4-0.7,1-1.3,1.8-1.7
				c0.7-0.4,1.5-0.6,2.4-0.6l0,0c1.3,0,2.4,0.4,3.2,1.1l0,0l-0.6,0.8c-0.8-0.6-1.6-0.9-2.6-0.9l0,0c-0.7,0-1.3,0.2-1.9,0.5
				c-0.6,0.3-1,0.8-1.4,1.4c-0.3,0.6-0.5,1.3-0.5,2l0,0c0,0.7,0.2,1.4,0.5,2c0.3,0.6,0.8,1.1,1.4,1.4c0.6,0.3,1.3,0.5,2,0.5l0,0
				c0.9,0,1.7-0.3,2.4-0.8l0,0L583.9,289.1z M594.3,280.5c0.9,0,1.5,0.3,2.1,0.8c0.5,0.5,0.8,1.2,0.9,2l0,0v6.7h-1.1v-6.4
				c0-0.6-0.2-1.1-0.6-1.5c-0.4-0.4-0.9-0.6-1.6-0.6l0,0c-0.6,0-1.2,0.2-1.7,0.5c-0.5,0.3-1,0.7-1.3,1.3c-0.3,0.5-0.5,1.1-0.5,1.8
				l0,0v5h-1.1v-18h1.1v10.6c0.3-0.6,0.9-1.2,1.6-1.6C592.7,280.7,593.4,280.5,594.3,280.5L594.3,280.5z M607.8,289.2
				c1,0,1.9-0.3,2.7-1l0,0l0.6,0.8c-0.5,0.4-1,0.7-1.5,0.9s-1.2,0.3-1.7,0.3l0,0c-0.9,0-1.8-0.2-2.5-0.6s-1.3-1-1.8-1.7
				c-0.4-0.7-0.6-1.6-0.6-2.5l0,0c0-0.9,0.2-1.7,0.7-2.4c0.4-0.7,1-1.3,1.8-1.8s1.6-0.7,2.5-0.7l0,0c1.1,0,2,0.3,2.7,0.9
				c0.8,0.6,1.3,1.5,1.7,2.6l0,0l-7.9,3.1c0.3,0.7,0.8,1.2,1.4,1.6S607.1,289.2,607.8,289.2L607.8,289.2z M607.8,281.4
				c-0.7,0-1.3,0.2-1.9,0.5c-0.6,0.3-1,0.8-1.4,1.4c-0.3,0.6-0.5,1.3-0.5,2l0,0c0,0.3,0,0.6,0.1,0.9l0,0l6.8-2.7
				c-0.3-0.6-0.7-1.1-1.3-1.5C609.1,281.6,608.5,281.4,607.8,281.4L607.8,281.4z M619.9,290.2c-0.6,0-1.2-0.1-1.7-0.3
				s-1-0.5-1.4-0.9l0,0l0.5-0.7c0.3,0.3,0.7,0.6,1.1,0.8c0.4,0.2,0.9,0.3,1.4,0.3l0,0c0.6,0,1.1-0.1,1.5-0.4
				c0.4-0.3,0.6-0.7,0.6-1.3l0,0c0-0.4-0.1-0.7-0.3-1c-0.2-0.2-0.5-0.4-0.8-0.5c-0.3-0.1-0.7-0.3-1.4-0.5l0,0
				c-0.7-0.3-1.3-0.6-1.7-1c-0.4-0.4-0.6-0.9-0.6-1.5l0,0c0-0.8,0.3-1.4,0.8-1.8s1.2-0.7,2-0.7l0,0c1.1,0,2.1,0.3,2.8,1l0,0
				l-0.5,0.8c-0.2-0.3-0.5-0.5-0.9-0.7c-0.4-0.1-0.8-0.2-1.2-0.2l0,0c-0.5,0-0.9,0.1-1.3,0.4s-0.6,0.6-0.6,1.1l0,0
				c0,0.5,0.2,0.9,0.5,1.1c0.3,0.2,0.9,0.5,1.6,0.7l0,0c0.9,0.3,1.5,0.6,2,1c0.5,0.4,0.7,0.9,0.7,1.6l0,0c0,0.9-0.3,1.5-0.8,2.1
				C621.7,289.9,620.9,290.2,619.9,290.2L619.9,290.2z"/>
		</g>
	</g>
	<g transform="rotate(0 91.1934 230)">
		<g transform="matrix(1 0 0 1 0 0)">
			<path class="st1" d="M101.6,234.7c-1.5-0.8-2.8-1.2-3.9-1.2l0,0c-0.9,0-1.5,0.2-2,0.6c-0.5,0.4-0.7,0.9-0.7,1.6l0,0
				c0,0.6,0.3,1.2,0.9,1.6c0.6,0.4,1.5,0.9,2.6,1.3l0,0c0.9,0.3,1.6,0.6,2.2,1c0.6,0.4,1.1,0.9,1.5,1.6c0.4,0.7,0.6,1.5,0.6,2.5l0,0
				c0,0.9-0.2,1.7-0.7,2.5s-1.1,1.3-2,1.8s-1.9,0.7-3.1,0.7l0,0c-1,0-2.1-0.2-3.1-0.5s-1.9-0.8-2.7-1.3l0,0l1.2-2.1
				c0.6,0.4,1.3,0.8,2.1,1.1c0.8,0.3,1.5,0.4,2.2,0.4l0,0c0.8,0,1.6-0.2,2.2-0.6c0.6-0.4,0.9-1,0.9-1.9l0,0c0-0.7-0.3-1.2-0.8-1.7
				c-0.5-0.4-1.3-0.8-2.2-1.2l0,0c-1-0.4-1.8-0.7-2.4-1.1c-0.6-0.4-1.2-0.9-1.7-1.5c-0.5-0.6-0.7-1.4-0.7-2.4l0,0
				c0-1.4,0.5-2.5,1.4-3.4c1-0.9,2.2-1.3,3.8-1.4l0,0c1.1,0,2.1,0.1,3,0.4s1.7,0.6,2.4,1.1l0,0L101.6,234.7z M106.7,234h2.6v4.4h2.6
				v2.1h-2.6v7.9h-2.6v-7.9H105v-2.1h1.7V234z M119.4,246.4c0.7,0,1.5-0.3,2.2-0.8l0,0l1.2,2c-0.5,0.3-1.1,0.6-1.7,0.8
				c-0.6,0.2-1.2,0.3-1.8,0.3l0,0c-1.1,0-2.1-0.2-3-0.7s-1.5-1.1-1.9-1.9s-0.7-1.7-0.7-2.8l0,0c0-1,0.3-1.9,0.8-2.7
				c0.5-0.8,1.2-1.5,2.1-1.9c0.9-0.5,1.8-0.7,2.8-0.7l0,0c1.4,0,2.5,0.4,3.4,1.2s1.5,1.9,1.8,3.4l0,0l-7.7,2.6
				c0.3,0.4,0.6,0.7,1.1,0.9S118.9,246.4,119.4,246.4L119.4,246.4z M119.2,240.1c-0.8,0-1.5,0.3-2,0.9s-0.8,1.3-0.8,2.3l0,0
				c0,0.2,0,0.3,0,0.4l0,0l5.2-1.9c-0.2-0.5-0.5-0.9-0.9-1.2C120.3,240.2,119.8,240.1,119.2,240.1L119.2,240.1z M133.7,238.4h3
				l-5.5,10.3H131l-5.7-10.3h3.1l2.7,5.7L133.7,238.4z M143.4,246.4c0.7,0,1.5-0.3,2.2-0.8l0,0l1.2,2c-0.5,0.3-1.1,0.6-1.7,0.8
				c-0.6,0.2-1.2,0.3-1.8,0.3l0,0c-1.1,0-2.1-0.2-3-0.7c-0.8-0.5-1.5-1.1-1.9-1.9s-0.7-1.7-0.7-2.8l0,0c0-1,0.3-1.9,0.8-2.7
				c0.5-0.8,1.2-1.5,2.1-1.9s1.8-0.7,2.8-0.7l0,0c1.4,0,2.5,0.4,3.4,1.2s1.5,1.9,1.8,3.4l0,0l-7.7,2.6c0.3,0.4,0.6,0.7,1.1,0.9
				S142.8,246.4,143.4,246.4L143.4,246.4z M143.1,240.1c-0.8,0-1.5,0.3-2,0.9c-0.5,0.6-0.8,1.3-0.8,2.3l0,0c0,0.2,0,0.3,0,0.4l0,0
				l5.2-1.9c-0.2-0.5-0.5-0.9-0.9-1.2C144.3,240.2,143.8,240.1,143.1,240.1L143.1,240.1z M171.8,248.4h-3.2l-3.9-6h-0.3H162v6h-2.8
				v-17.2h4.8c1.9,0,3.5,0.5,4.6,1.5c1.2,1,1.7,2.3,1.7,4.1l0,0c0,1.1-0.2,2-0.7,2.9c-0.4,0.9-1.2,1.6-2.1,2.1l0,0L171.8,248.4z
				 M162,233.9v5.9h2.5c1.1,0,1.9-0.3,2.4-0.9c0.5-0.6,0.7-1.3,0.7-2l0,0c0-0.4-0.1-0.9-0.3-1.3c-0.2-0.4-0.5-0.8-1-1.2
				c-0.5-0.3-1.1-0.5-1.8-0.5l0,0H162z M173.3,243.3c0-1,0.2-1.9,0.7-2.7c0.5-0.8,1.1-1.5,2-1.9s1.8-0.7,2.9-0.7l0,0
				c1.1,0,2.1,0.2,2.9,0.7s1.5,1.1,1.9,1.9c0.5,0.8,0.7,1.7,0.7,2.7l0,0c0,1-0.2,1.9-0.7,2.7c-0.5,0.8-1.1,1.5-1.9,1.9
				s-1.8,0.7-2.9,0.7l0,0c-1.1,0-2-0.2-2.9-0.6c-0.9-0.4-1.5-1.1-2-1.9S173.3,244.4,173.3,243.3L173.3,243.3z M176,243.3
				c0,0.9,0.3,1.6,0.8,2.3c0.6,0.6,1.2,0.9,2.1,0.9l0,0c0.9,0,1.5-0.3,2.1-0.9c0.5-0.6,0.8-1.4,0.8-2.3l0,0c0-0.9-0.3-1.7-0.8-2.3
				c-0.5-0.6-1.2-0.9-2.1-0.9l0,0c-0.8,0-1.5,0.3-2.1,0.9C176.2,241.7,176,242.5,176,243.3L176,243.3z M190.2,248.6
				c-0.8,0-1.5-0.1-2.2-0.4c-0.7-0.3-1.2-0.7-1.7-1.2l0,0l1.1-1.5c0.8,0.8,1.7,1.2,2.6,1.2l0,0c0.5,0,0.9-0.1,1.2-0.3
				c0.3-0.2,0.5-0.5,0.5-0.8l0,0c0-0.4-0.2-0.7-0.5-0.9c-0.3-0.2-0.7-0.3-1.1-0.5c-0.4-0.1-0.6-0.2-0.7-0.2l0,0
				c-0.9-0.3-1.5-0.7-1.9-1.2c-0.4-0.5-0.6-1.1-0.6-1.8l0,0c0-0.6,0.1-1.1,0.4-1.5c0.3-0.5,0.7-0.9,1.3-1.2c0.6-0.3,1.2-0.4,2-0.4
				l0,0c0.8,0,1.4,0.1,2,0.3c0.6,0.2,1.1,0.4,1.6,0.8l0,0l-1,1.6c-0.3-0.3-0.6-0.5-1-0.6c-0.4-0.2-0.8-0.2-1.1-0.2l0,0
				c-0.4,0-0.7,0.1-1,0.3s-0.4,0.4-0.4,0.7l0,0c0,0.4,0.1,0.6,0.4,0.8s0.7,0.4,1.4,0.6l0,0c0.3,0.1,0.4,0.1,0.5,0.2l0,0
				c0.8,0.3,1.4,0.6,1.8,1.1s0.7,1,0.7,1.8l0,0c0,1-0.4,1.8-1.1,2.4S191.5,248.6,190.2,248.6L190.2,248.6z M200.2,248.6
				c-0.8,0-1.5-0.1-2.2-0.4c-0.7-0.3-1.2-0.7-1.7-1.2l0,0l1.1-1.5c0.8,0.8,1.7,1.2,2.6,1.2l0,0c0.5,0,0.9-0.1,1.2-0.3
				c0.3-0.2,0.5-0.5,0.5-0.8l0,0c0-0.4-0.2-0.7-0.5-0.9c-0.3-0.2-0.7-0.3-1.1-0.5c-0.4-0.1-0.6-0.2-0.7-0.2l0,0
				c-0.9-0.3-1.5-0.7-1.9-1.2c-0.4-0.5-0.6-1.1-0.6-1.8l0,0c0-0.6,0.1-1.1,0.4-1.5s0.7-0.9,1.3-1.2c0.6-0.3,1.2-0.4,2-0.4l0,0
				c0.8,0,1.4,0.1,2,0.3c0.6,0.2,1.1,0.4,1.6,0.8l0,0l-1,1.6c-0.3-0.3-0.6-0.5-1-0.6c-0.4-0.2-0.8-0.2-1.1-0.2l0,0
				c-0.4,0-0.7,0.1-1,0.3c-0.3,0.2-0.4,0.4-0.4,0.7l0,0c0,0.4,0.1,0.6,0.4,0.8c0.3,0.2,0.7,0.4,1.4,0.6l0,0c0.3,0.1,0.4,0.1,0.5,0.2
				l0,0c0.8,0.3,1.4,0.6,1.8,1.1s0.7,1,0.7,1.8l0,0c0,1-0.4,1.8-1.1,2.4C202.5,248.3,201.5,248.6,200.2,248.6L200.2,248.6z
				 M214.1,231.2h11.5v2.6h-4.4v14.6h-2.7v-14.6h-4.3V231.2z M235.1,238c0.9,0,1.7,0.3,2.3,0.8c0.6,0.6,0.9,1.3,1,2.2l0,0v7.4h-2.6
				V242c0-0.5-0.2-0.9-0.5-1.2c-0.3-0.3-0.7-0.5-1.2-0.5l0,0c-0.8,0-1.5,0.4-2,1.1c-0.5,0.7-0.8,1.6-0.8,2.7l0,0v4.4h-2.6V230h2.6
				v10.1c0.4-0.6,0.9-1.2,1.6-1.5C233.4,238.2,234.2,238,235.1,238L235.1,238z M246.8,246.4c0.7,0,1.5-0.3,2.2-0.8l0,0l1.2,2
				c-0.5,0.3-1.1,0.6-1.7,0.8s-1.2,0.3-1.8,0.3l0,0c-1.1,0-2.1-0.2-3-0.7s-1.5-1.1-1.9-1.9c-0.4-0.8-0.7-1.7-0.7-2.8l0,0
				c0-1,0.3-1.9,0.8-2.7s1.2-1.5,2.1-1.9c0.9-0.5,1.8-0.7,2.8-0.7l0,0c1.4,0,2.5,0.4,3.4,1.2c0.9,0.8,1.5,1.9,1.8,3.4l0,0l-7.7,2.6
				c0.3,0.4,0.6,0.7,1.1,0.9C245.8,246.3,246.3,246.4,246.8,246.4L246.8,246.4z M246.6,240.1c-0.8,0-1.5,0.3-2,0.9s-0.8,1.3-0.8,2.3
				l0,0c0,0.2,0,0.3,0,0.4l0,0l5.2-1.9c-0.2-0.5-0.5-0.9-0.9-1.2C247.7,240.2,247.2,240.1,246.6,240.1L246.6,240.1z M270.8,239.4
				c1,0.4,1.7,0.9,2.3,1.6c0.5,0.7,0.8,1.5,0.8,2.4l0,0c0,1.7-0.6,2.9-1.7,3.7s-2.5,1.2-4.2,1.2l0,0h-5.4v-17.2h4.7
				c1.8,0,3.2,0.4,4.2,1.1c1,0.7,1.5,1.8,1.5,3.2l0,0c0,0.9-0.2,1.7-0.6,2.3C272.1,238.5,271.5,239.1,270.8,239.4L270.8,239.4z
				 M265.5,233.9v4.7h2.4c0.8,0,1.4-0.2,1.8-0.7s0.6-1,0.6-1.7l0,0c0-0.8-0.2-1.3-0.7-1.7c-0.5-0.4-1.1-0.6-2-0.6l0,0H265.5z
				 M267.9,245.9c0.9,0,1.7-0.2,2.3-0.6c0.6-0.4,0.9-1,0.9-1.8l0,0c0-0.8-0.3-1.4-1-1.8c-0.6-0.4-1.4-0.5-2.4-0.5l0,0h-2.3v4.7
				H267.9z M276.2,243.3c0-1,0.2-1.9,0.7-2.7c0.5-0.8,1.1-1.5,2-1.9s1.8-0.7,2.9-0.7l0,0c1.1,0,2.1,0.2,2.9,0.7s1.5,1.1,1.9,1.9
				c0.5,0.8,0.7,1.7,0.7,2.7l0,0c0,1-0.2,1.9-0.7,2.7c-0.5,0.8-1.1,1.5-1.9,1.9s-1.8,0.7-2.9,0.7l0,0c-1.1,0-2-0.2-2.9-0.6
				c-0.9-0.4-1.5-1.1-2-1.9S276.2,244.4,276.2,243.3L276.2,243.3z M278.9,243.3c0,0.9,0.3,1.6,0.8,2.3c0.6,0.6,1.2,0.9,2.1,0.9l0,0
				c0.9,0,1.5-0.3,2.1-0.9c0.5-0.6,0.8-1.4,0.8-2.3l0,0c0-0.9-0.3-1.7-0.8-2.3c-0.5-0.6-1.2-0.9-2.1-0.9l0,0c-0.8,0-1.5,0.3-2.1,0.9
				C279.1,241.7,278.9,242.5,278.9,243.3L278.9,243.3z M293.1,248.6c-0.8,0-1.5-0.1-2.2-0.4c-0.7-0.3-1.2-0.7-1.7-1.2l0,0l1.1-1.5
				c0.8,0.8,1.7,1.2,2.6,1.2l0,0c0.5,0,0.9-0.1,1.2-0.3c0.3-0.2,0.5-0.5,0.5-0.8l0,0c0-0.4-0.2-0.7-0.5-0.9
				c-0.3-0.2-0.7-0.3-1.1-0.5c-0.4-0.1-0.6-0.2-0.7-0.2l0,0c-0.9-0.3-1.5-0.7-1.9-1.2c-0.4-0.5-0.6-1.1-0.6-1.8l0,0
				c0-0.6,0.1-1.1,0.4-1.5c0.3-0.5,0.7-0.9,1.3-1.2s1.2-0.4,2-0.4l0,0c0.8,0,1.4,0.1,2,0.3c0.6,0.2,1.1,0.4,1.6,0.8l0,0l-1,1.6
				c-0.3-0.3-0.6-0.5-1-0.6c-0.4-0.2-0.8-0.2-1.1-0.2l0,0c-0.4,0-0.7,0.1-1,0.3c-0.3,0.2-0.4,0.4-0.4,0.7l0,0c0,0.4,0.1,0.6,0.4,0.8
				c0.3,0.2,0.7,0.4,1.4,0.6l0,0c0.3,0.1,0.4,0.1,0.5,0.2l0,0c0.8,0.3,1.4,0.6,1.8,1.1c0.4,0.4,0.7,1,0.7,1.8l0,0
				c0,1-0.4,1.8-1.1,2.4S294.4,248.6,293.1,248.6L293.1,248.6z M303.1,248.6c-0.8,0-1.5-0.1-2.2-0.4s-1.2-0.7-1.7-1.2l0,0l1.1-1.5
				c0.8,0.8,1.7,1.2,2.6,1.2l0,0c0.5,0,0.9-0.1,1.2-0.3c0.3-0.2,0.5-0.5,0.5-0.8l0,0c0-0.4-0.2-0.7-0.5-0.9
				c-0.3-0.2-0.7-0.3-1.1-0.5c-0.4-0.1-0.6-0.2-0.7-0.2l0,0c-0.9-0.3-1.5-0.7-1.9-1.2s-0.6-1.1-0.6-1.8l0,0c0-0.6,0.1-1.1,0.4-1.5
				s0.7-0.9,1.3-1.2s1.2-0.4,2-0.4l0,0c0.8,0,1.4,0.1,2,0.3c0.6,0.2,1.1,0.4,1.6,0.8l0,0l-1,1.6c-0.3-0.3-0.6-0.5-1-0.6
				c-0.4-0.2-0.8-0.2-1.1-0.2l0,0c-0.4,0-0.7,0.1-1,0.3c-0.3,0.2-0.4,0.4-0.4,0.7l0,0c0,0.4,0.1,0.6,0.4,0.8
				c0.3,0.2,0.7,0.4,1.4,0.6l0,0c0.3,0.1,0.4,0.1,0.5,0.2l0,0c0.8,0.3,1.4,0.6,1.8,1.1s0.7,1,0.7,1.8l0,0c0,1-0.4,1.8-1.1,2.4
				C305.4,248.3,304.4,248.6,303.1,248.6L303.1,248.6z M318,231.6h2.4V254H318V231.6z M341.6,234.7c-1.5-0.8-2.8-1.2-3.9-1.2l0,0
				c-0.9,0-1.5,0.2-2,0.6c-0.5,0.4-0.7,0.9-0.7,1.6l0,0c0,0.6,0.3,1.2,0.9,1.6c0.6,0.4,1.5,0.9,2.6,1.3l0,0c0.9,0.3,1.6,0.6,2.2,1
				c0.6,0.4,1.1,0.9,1.5,1.6s0.6,1.5,0.6,2.5l0,0c0,0.9-0.2,1.7-0.7,2.5s-1.1,1.3-2,1.8s-1.9,0.7-3.1,0.7l0,0c-1,0-2.1-0.2-3.1-0.5
				c-1-0.3-1.9-0.8-2.7-1.3l0,0l1.2-2.1c0.6,0.4,1.3,0.8,2.1,1.1c0.8,0.3,1.5,0.4,2.2,0.4l0,0c0.8,0,1.6-0.2,2.2-0.6
				c0.6-0.4,0.9-1,0.9-1.9l0,0c0-0.7-0.3-1.2-0.8-1.7c-0.5-0.4-1.3-0.8-2.2-1.2l0,0c-1-0.4-1.8-0.7-2.4-1.1
				c-0.6-0.4-1.2-0.9-1.7-1.5c-0.5-0.6-0.7-1.4-0.7-2.4l0,0c0-1.4,0.5-2.5,1.4-3.4c1-0.9,2.2-1.3,3.8-1.4l0,0c1.1,0,2.1,0.1,3,0.4
				s1.7,0.6,2.4,1.1l0,0L341.6,234.7z M356.6,238.4h2.6l-4.6,10.6l-3.2-6.8l-2.9,6.8l-4.6-10.6h2.6l2.3,5.3l1.7-3.8l-0.7-1.5h2.3
				l2.4,5.5L356.6,238.4z M365.9,246.4c0.7,0,1.5-0.3,2.2-0.8l0,0l1.2,2c-0.5,0.3-1.1,0.6-1.7,0.8s-1.2,0.3-1.8,0.3l0,0
				c-1.1,0-2.1-0.2-3-0.7s-1.5-1.1-1.9-1.9s-0.7-1.7-0.7-2.8l0,0c0-1,0.3-1.9,0.8-2.7c0.5-0.8,1.2-1.5,2.1-1.9s1.8-0.7,2.8-0.7l0,0
				c1.4,0,2.5,0.4,3.4,1.2c0.9,0.8,1.5,1.9,1.8,3.4l0,0l-7.7,2.6c0.3,0.4,0.6,0.7,1.1,0.9C364.9,246.3,365.4,246.4,365.9,246.4
				L365.9,246.4z M365.7,240.1c-0.8,0-1.5,0.3-2,0.9c-0.5,0.6-0.8,1.3-0.8,2.3l0,0c0,0.2,0,0.3,0,0.4l0,0l5.2-1.9
				c-0.2-0.5-0.5-0.9-0.9-1.2C366.9,240.2,366.4,240.1,365.7,240.1L365.7,240.1z M378.5,246.4c0.7,0,1.5-0.3,2.2-0.8l0,0l1.2,2
				c-0.5,0.3-1.1,0.6-1.7,0.8c-0.6,0.2-1.2,0.3-1.8,0.3l0,0c-1.1,0-2.1-0.2-3-0.7c-0.8-0.5-1.5-1.1-1.9-1.9s-0.7-1.7-0.7-2.8l0,0
				c0-1,0.3-1.9,0.8-2.7s1.2-1.5,2.1-1.9c0.9-0.5,1.8-0.7,2.8-0.7l0,0c1.4,0,2.5,0.4,3.4,1.2s1.5,1.9,1.8,3.4l0,0l-7.7,2.6
				c0.3,0.4,0.6,0.7,1.1,0.9C377.5,246.3,378,246.4,378.5,246.4L378.5,246.4z M378.3,240.1c-0.8,0-1.5,0.3-2,0.9
				c-0.5,0.6-0.8,1.3-0.8,2.3l0,0c0,0.2,0,0.3,0,0.4l0,0l5.2-1.9c-0.2-0.5-0.5-0.9-0.9-1.2C379.5,240.2,379,240.1,378.3,240.1
				L378.3,240.1z M387.3,234h2.6v4.4h2.6v2.1h-2.6v7.9h-2.6v-7.9h-1.7v-2.1h1.7V234z M411.4,239.4c1,0.4,1.7,0.9,2.3,1.6
				c0.5,0.7,0.8,1.5,0.8,2.4l0,0c0,1.7-0.6,2.9-1.7,3.7c-1.1,0.8-2.5,1.2-4.2,1.2l0,0h-5.4v-17.2h4.7c1.8,0,3.2,0.4,4.2,1.1
				c1,0.7,1.5,1.8,1.5,3.2l0,0c0,0.9-0.2,1.7-0.6,2.3C412.6,238.5,412.1,239.1,411.4,239.4L411.4,239.4z M406,233.9v4.7h2.4
				c0.8,0,1.4-0.2,1.8-0.7s0.6-1,0.6-1.7l0,0c0-0.8-0.2-1.3-0.7-1.7c-0.5-0.4-1.1-0.6-2-0.6l0,0H406z M408.5,245.9
				c0.9,0,1.7-0.2,2.3-0.6c0.6-0.4,0.9-1,0.9-1.8l0,0c0-0.8-0.3-1.4-1-1.8c-0.6-0.4-1.4-0.5-2.4-0.5l0,0H406v4.7H408.5z
				 M425.6,238.4h2.4v10h-2.6V247c-0.4,0.4-0.9,0.8-1.5,1.2c-0.6,0.4-1.3,0.5-2.1,0.5l0,0c-1,0-1.8-0.2-2.6-0.6
				c-0.8-0.4-1.4-1-1.8-1.8c-0.4-0.8-0.7-1.7-0.7-2.9l0,0c0-1.1,0.2-2,0.7-2.9c0.5-0.8,1.1-1.5,1.8-1.9s1.6-0.7,2.5-0.7l0,0
				c1.6,0,2.8,0.6,3.6,1.8l0,0L425.6,238.4z M422.5,246.5c0.7,0,1.3-0.2,1.8-0.6c0.5-0.4,0.8-0.9,1.1-1.6l0,0v-2.2
				c-0.2-0.6-0.6-1.1-1.1-1.5c-0.5-0.4-1.2-0.6-1.9-0.6l0,0c-0.8,0-1.5,0.3-2.1,0.9c-0.6,0.6-0.9,1.3-0.9,2.3l0,0
				c0,0.6,0.1,1.1,0.4,1.6c0.3,0.5,0.7,0.9,1.1,1.2C421.4,246.4,421.9,246.5,422.5,246.5L422.5,246.5z M434.7,248.6
				c-0.8,0-1.5-0.1-2.2-0.4s-1.2-0.7-1.7-1.2l0,0l1.1-1.5c0.8,0.8,1.7,1.2,2.6,1.2l0,0c0.5,0,0.9-0.1,1.2-0.3
				c0.3-0.2,0.5-0.5,0.5-0.8l0,0c0-0.4-0.2-0.7-0.5-0.9c-0.3-0.2-0.7-0.3-1.1-0.5c-0.4-0.1-0.6-0.2-0.7-0.2l0,0
				c-0.9-0.3-1.5-0.7-1.9-1.2c-0.4-0.5-0.6-1.1-0.6-1.8l0,0c0-0.6,0.1-1.1,0.4-1.5c0.3-0.5,0.7-0.9,1.3-1.2c0.6-0.3,1.2-0.4,2-0.4
				l0,0c0.8,0,1.4,0.1,2,0.3c0.6,0.2,1.1,0.4,1.6,0.8l0,0l-1,1.6c-0.3-0.3-0.6-0.5-1-0.6c-0.4-0.2-0.8-0.2-1.1-0.2l0,0
				c-0.4,0-0.7,0.1-1,0.3c-0.3,0.2-0.4,0.4-0.4,0.7l0,0c0,0.4,0.1,0.6,0.4,0.8s0.7,0.4,1.4,0.6l0,0c0.3,0.1,0.4,0.1,0.5,0.2l0,0
				c0.8,0.3,1.4,0.6,1.8,1.1c0.4,0.4,0.7,1,0.7,1.8l0,0c0,1-0.4,1.8-1.1,2.4S436,248.6,434.7,248.6L434.7,248.6z M444.7,248.6
				c-0.8,0-1.5-0.1-2.2-0.4c-0.7-0.3-1.2-0.7-1.7-1.2l0,0l1.1-1.5c0.8,0.8,1.7,1.2,2.6,1.2l0,0c0.5,0,0.9-0.1,1.2-0.3
				c0.3-0.2,0.5-0.5,0.5-0.8l0,0c0-0.4-0.2-0.7-0.5-0.9c-0.3-0.2-0.7-0.3-1.1-0.5c-0.4-0.1-0.6-0.2-0.7-0.2l0,0
				c-0.9-0.3-1.5-0.7-1.9-1.2c-0.4-0.5-0.6-1.1-0.6-1.8l0,0c0-0.6,0.1-1.1,0.4-1.5c0.3-0.5,0.7-0.9,1.3-1.2s1.2-0.4,2-0.4l0,0
				c0.8,0,1.4,0.1,2,0.3c0.6,0.2,1.1,0.4,1.6,0.8l0,0l-1,1.6c-0.3-0.3-0.6-0.5-1-0.6c-0.4-0.2-0.8-0.2-1.1-0.2l0,0
				c-0.4,0-0.7,0.1-1,0.3c-0.3,0.2-0.4,0.4-0.4,0.7l0,0c0,0.4,0.1,0.6,0.4,0.8s0.7,0.4,1.4,0.6l0,0c0.3,0.1,0.4,0.1,0.5,0.2l0,0
				c0.8,0.3,1.4,0.6,1.8,1.1c0.4,0.4,0.7,1,0.7,1.8l0,0c0,1-0.4,1.8-1.1,2.4S446,248.6,444.7,248.6L444.7,248.6z M472.2,231.2h2.7
				V249h-0.1l-12.4-12l0.1,11.4h-2.8v-17.8h0.1l12.4,12.2L472.2,231.2z M484,246.4c0.7,0,1.5-0.3,2.2-0.8l0,0l1.2,2
				c-0.5,0.3-1.1,0.6-1.7,0.8c-0.6,0.2-1.2,0.3-1.8,0.3l0,0c-1.1,0-2.1-0.2-3-0.7c-0.8-0.5-1.5-1.1-1.9-1.9s-0.7-1.7-0.7-2.8l0,0
				c0-1,0.3-1.9,0.8-2.7c0.5-0.8,1.2-1.5,2.1-1.9s1.8-0.7,2.8-0.7l0,0c1.4,0,2.5,0.4,3.4,1.2c0.9,0.8,1.5,1.9,1.8,3.4l0,0l-7.7,2.6
				c0.3,0.4,0.6,0.7,1.1,0.9C483,246.3,483.4,246.4,484,246.4L484,246.4z M483.8,240.1c-0.8,0-1.5,0.3-2,0.9
				c-0.5,0.6-0.8,1.3-0.8,2.3l0,0c0,0.2,0,0.3,0,0.4l0,0l5.2-1.9c-0.2-0.5-0.5-0.9-0.9-1.2C484.9,240.2,484.4,240.1,483.8,240.1
				L483.8,240.1z M500,247.5c-0.4,0.4-1,0.6-1.6,0.9s-1.3,0.3-1.9,0.3l0,0c-1.1,0-2.1-0.2-2.9-0.6c-0.8-0.4-1.5-1-1.9-1.8
				c-0.5-0.8-0.7-1.7-0.7-2.8l0,0c0-1.1,0.2-2,0.7-2.8s1.1-1.4,1.9-1.8c0.8-0.4,1.7-0.6,2.6-0.6l0,0c1.6,0,2.9,0.4,3.9,1.3l0,0
				l-1.3,1.7c-0.3-0.2-0.6-0.4-1.1-0.6c-0.4-0.2-0.8-0.2-1.3-0.2l0,0c-0.8,0-1.5,0.3-2,0.9s-0.8,1.3-0.8,2.2l0,0
				c0,0.9,0.3,1.6,0.9,2.2c0.6,0.6,1.3,0.9,2.3,0.9l0,0c0.8,0,1.4-0.2,2-0.7l0,0L500,247.5z M503.7,234h2.6v4.4h2.6v2.1h-2.6v7.9
				h-2.6v-7.9H502v-2.1h1.7V234z M519.6,238.4h2.4v10h-2.6V247c-0.4,0.4-0.9,0.8-1.5,1.2c-0.6,0.4-1.3,0.5-2.1,0.5l0,0
				c-1,0-1.8-0.2-2.6-0.6c-0.8-0.4-1.4-1-1.8-1.8c-0.4-0.8-0.7-1.7-0.7-2.9l0,0c0-1.1,0.2-2,0.7-2.9c0.5-0.8,1.1-1.5,1.8-1.9
				s1.6-0.7,2.5-0.7l0,0c1.6,0,2.8,0.6,3.6,1.8l0,0L519.6,238.4z M516.5,246.5c0.7,0,1.3-0.2,1.8-0.6c0.5-0.4,0.8-0.9,1.1-1.6l0,0
				v-2.2c-0.2-0.6-0.6-1.1-1.1-1.5c-0.5-0.4-1.2-0.6-1.9-0.6l0,0c-0.8,0-1.5,0.3-2.1,0.9c-0.6,0.6-0.9,1.3-0.9,2.3l0,0
				c0,0.6,0.1,1.1,0.4,1.6s0.7,0.9,1.1,1.2S515.9,246.5,516.5,246.5L516.5,246.5z M528.3,240.7c0.3-0.5,0.6-1,1.1-1.4
				c0.5-0.4,1-0.8,1.5-1c0.5-0.2,0.9-0.3,1.3-0.3l0,0l-0.1,2.6c-0.7-0.1-1.4,0.1-1.9,0.4c-0.6,0.3-1,0.8-1.3,1.3
				c-0.3,0.6-0.5,1.2-0.5,1.8l0,0v4.3h-2.6v-10h2.4L528.3,240.7z M542.4,230h2.6v18.4h-2.6V230z"/>
		</g>
	</g>
	<g transform="rotate(0 250.0508 0)">
		<g transform="matrix(1 0 0 1 0 0)">
			<path class="st2" d="M289.2,143.4l13.6,7.8c0.2,0.2,0.6,0.2,0.8-0.1c0,0,0.1-0.1,0.1-0.1l2.8-4.9c0.1-0.3,0.1-0.6-0.2-0.7
				c0,0,0,0,0,0l-13.6-7.9c-0.3-0.2-0.6-0.1-0.8,0.2l-2.7,4.9C289,142.9,289,143.2,289.2,143.4z M303.3,146.4c0.5,0.3,0.7,1,0.4,1.5
				c-0.3,0.5-1,0.7-1.5,0.4c-0.5-0.3-0.7-1-0.4-1.5C302,146.2,302.7,146,303.3,146.4C303.2,146.3,303.3,146.3,303.3,146.4
				L303.3,146.4z M299.9,144.5c0.5,0.3,0.7,1,0.4,1.5s-1,0.7-1.5,0.4c-0.5-0.3-0.7-1-0.4-1.5C298.8,144.3,299.4,144.2,299.9,144.5z
				 M296.5,142.5c0.5,0.3,0.7,1,0.4,1.5c-0.3,0.5-1,0.7-1.5,0.4c0,0,0,0,0,0c-0.5-0.3-0.7-0.9-0.4-1.4c0,0,0,0,0-0.1
				C295.3,142.4,296,142.2,296.5,142.5L296.5,142.5z M293.1,140.5c0.5,0.3,0.7,1,0.4,1.5c-0.3,0.5-1,0.7-1.5,0.4
				c-0.5-0.3-0.7-1-0.4-1.5C292,140.4,292.6,140.3,293.1,140.5L293.1,140.5z M293.9,148l-2.8,4.9c-0.2,0.2-0.1,0.6,0.2,0.7
				c0,0,0,0,0,0l13.5,7.8c0.3,0.2,0.6,0.1,0.8-0.2l2.8-4.9c0.1-0.3,0-0.6-0.2-0.7l-13.6-7.9C294.3,147.6,294,147.7,293.9,148
				L293.9,148z M305.3,156.6c0.5,0.3,0.7,1,0.4,1.5c-0.3,0.5-1,0.7-1.5,0.4l0,0c-0.5-0.3-0.7-0.9-0.4-1.4c0,0,0,0,0,0
				C304.1,156.5,304.8,156.3,305.3,156.6L305.3,156.6z M301.9,154.7c0.5,0.3,0.7,1,0.4,1.5c-0.3,0.5-1,0.7-1.5,0.4
				c-0.5-0.3-0.7-1-0.4-1.5C300.7,154.5,301.4,154.4,301.9,154.7z M298.5,152.7c0.5,0.3,0.7,1,0.4,1.5s-1,0.7-1.5,0.4
				s-0.7-1-0.4-1.5c0,0,0,0,0,0C297.3,152.5,297.9,152.3,298.5,152.7C298.5,152.6,298.5,152.6,298.5,152.7L298.5,152.7z
				 M295.1,150.7c0.5,0.3,0.7,0.9,0.4,1.4c0,0,0,0,0,0c-0.3,0.5-1,0.7-1.5,0.4c-0.5-0.3-0.7-1-0.4-1.5
				C293.9,150.6,294.6,150.4,295.1,150.7z M316.1,174c1.2,0.7,2.7,0.3,3.3-0.9c0.7-1.2,0.3-2.7-0.9-3.3c-1.2-0.7-2.7-0.3-3.3,0.9
				c0,0,0,0,0,0C314.5,171.8,314.9,173.3,316.1,174C316,174,316.1,174,316.1,174z M316.3,180.2c-1.2-0.7-2.7-0.3-3.3,0.9
				c-0.7,1.2-0.3,2.6,0.9,3.3c0,0,0,0,0,0c1.1,0.7,2.6,0.4,3.4-0.7c0.7-1.1,0.4-2.6-0.7-3.4C316.5,180.3,316.4,180.3,316.3,180.2z
				 M308.3,187.4c-1.2-0.7-2.7-0.3-3.3,0.9c-0.7,1.2-0.3,2.6,0.9,3.3c0,0,0,0,0,0c1.1,0.7,2.6,0.4,3.4-0.7c0.7-1.1,0.4-2.6-0.7-3.4
				C308.5,187.5,308.4,187.5,308.3,187.4z M355.6,22.6l1.9,1.6c0.2,0.2,0.5,0,0.8-0.2l2.6-3.2c0.2-0.3,0.3-0.7,0.1-0.8l-1.8-1.5
				c-0.2-0.2-0.5,0-0.8,0.2l-2.6,3.2C355.5,22.1,355.4,22.5,355.6,22.6z M363.4,13.9l1.8,1.6c0.2,0.2,0.5,0,0.8-0.2l2.8-3
				c0.3-0.3,0.3-0.6,0.2-0.8l-1.8-1.6c-0.2-0.2-0.5,0-0.8,0.2l-2.8,3C363.3,13.4,363.3,13.8,363.4,13.9z M381.8,23.3
				c-0.1,0.4,0,0.7,0.2,0.8l2.2,0.8c0.2,0,0.5-0.2,0.6-0.5l1.3-3.9c0-0.4,0-0.7-0.2-0.8l-2.2-0.8c-0.2,0-0.5,0.2-0.6,0.5L381.8,23.3
				z M380,29l-1.4,3.9c0,0.4,0,0.7,0.2,0.8l2.2,0.8c0.2,0,0.5-0.1,0.6-0.5L383,30c0-0.4,0-0.7-0.2-0.8l-2.2-0.8
				C380.4,28.3,380.1,28.6,380,29z M369.8,12.9c-4,4-12.1,14.1-12.1,14.1c3.6,5,0.2,8,0.2,8l10.3,6c3-5.2,7.1-3.8,7.1-3.8l6.2-17.5
				c0.5-1.6,1.8-2.8,4.3-6.4S378.5,0.7,376.2,0S373.8,9,369.8,12.9z M327.2,168.6c-0.2-8.6,0.8-14.7,6.5-20.3c2-2,4.3-3.7,6.9-5
				c1.5-0.6,2.8-1.6,3.6-2.9c2-3.2,3.7-6.7,3.1-9.1c-0.3-1.2-1.1-2.2-2.2-2.7c-1.6-0.9-4.6,0.8-9,3.5c-1.3,0.8-2.4,1.5-3.3,1.9
				c-2.3,1.3-5.1,1.3-7.3,0l0,0c-2.7-1.9-4.8-4.6-6.1-7.7l48.1-83.3l-10.3-6l-44.4,76.8c-1.6-3-2.8-6.2-3.6-9.6
				c-2.4-8.5-1.4-17.5,2.8-25.2c1.4-1.7,2.1-3.8,2.1-6c-0.2-0.9-0.8-1.8-1.7-2.2c-1.6-0.9-3.6-1-5.3-0.3c-4.6,1.6-8.9,7-11.7,14.7
				c-2.3,6.8-3.8,13.9-4.4,21.1c-0.1,3.5-0.8,7-2.1,10.2c-3.1,5.3-8.1,7.6-13.3,10c-1.9,0.8-3.8,1.7-5.7,2.8
				c-6.2,3.2-11.4,8.1-15.1,14.1c-3.5,5.6-5.1,12.3-4.4,18.9c1.4,10.6,9.5,20.3,24.1,28.7c14.6,8.4,26.8,11.1,36.1,7.8
				c5.8-2.2,10.5-6.5,13.3-12C326.4,181.9,327.4,177,327.2,168.6z M309.8,197.4c-8.9,3.1-20.7,0.5-35-7.7
				c-14.3-8.2-22.1-17.6-23.4-27.8c-0.5-6.3,1-12.7,4.4-18c3.6-5.7,8.6-10.4,14.5-13.5c1.9-1,3.8-1.9,5.6-2.7
				c5.5-2.5,10.7-4.8,14-10.5c1.3-3.4,2.1-7.1,2.2-10.8c0.6-7.1,2-14.1,4.3-20.8c3.9-10.4,8.9-13.2,10.9-13.9c1.3-0.6,2.8-0.6,4.1,0
				c0.5,0.3,0.9,0.8,1,1.4c0,1.8-0.7,3.5-1.8,4.9l0,0c-4.4,8-5.5,17.4-3,26.3c1,3.7,2.3,7.3,4.2,10.6l-9.8,17l10.3,6l6-10.5
				c1.3,3,3.5,5.6,6.2,7.5l0,0c2.7,1.5,5.9,1.5,8.6,0c0.9-0.4,2.1-1.2,3.4-1.9c2.3-1.4,6.7-4,7.7-3.5c0.8,0.4,1.3,1.1,1.6,1.9
				c0.5,2.1-1.2,5.2-2.9,8.1c-0.8,1.1-1.9,1.9-3.1,2.4c-2.7,1.3-5.1,3.1-7.2,5.2c-6,6-7,12.4-6.8,21.3c0.2,8.1-0.7,12.8-3.3,17.4
				C320,191,315.4,195.2,309.8,197.4L309.8,197.4z M303.2,167.8l-22.4-13.1c-0.3-0.1-0.6,0-0.7,0.2l-2.8,4.9
				c-0.2,0.2-0.1,0.6,0.2,0.7c0,0,0,0,0,0l22.5,13c0.3,0.1,0.6,0,0.8-0.2l2.8-4.9C303.6,168.2,303.5,167.9,303.2,167.8L303.2,167.8z
				 M292.1,180.5l-16.9-9.8c-0.3-0.1-0.6,0-0.7,0.2l-4.8,8.2c-0.2,0.2-0.1,0.6,0.2,0.7c0,0,0,0,0,0l17.1,9.7
				c0.3,0.2,0.6,0.1,0.8-0.2l4.7-8.2c0.1-0.3,0-0.6-0.3-0.7c0,0,0,0,0,0L292.1,180.5z"/>
		</g>
	</g>
</g>
</svg>
