<?xml version="1.0" encoding="utf-8"?>
<!-- Generator: Adobe Illustrator 24.2.1, SVG Export Plug-In . SVG Version: 6.00 Build 0)  -->
<svg version="1.1" id="Layer_1" xmlns="http://www.w3.org/2000/svg" xmlns:xlink="http://www.w3.org/1999/xlink" x="0px" y="0px"
	 viewBox="0 0 669.6 287.9" style="enable-background:new 0 0 669.6 287.9;" xml:space="preserve">
<style type="text/css">
	.st0{fill:#E5E5E5;}
	.st1{fill:#E9E41D;}
</style>
<g>
	<g transform="rotate(0 194.8159 0)">
		<g transform="matrix(1 0 0 1 0 0)">
			<g>
				<path class="st0" d="M436.2,90.8c1.6,0.8,3,2,4,3.5c0.5-4.8-2.5-10.6-5.8-14.2c-7.6-8.3-20.3-9.8-29-16.9
					c3.6,11.4,12.8,21,24.1,25C431.8,89.1,434.1,89.7,436.2,90.8L436.2,90.8z"/>
				<path class="st0" d="M426.1,38.7c1.8,0.3,2.4,0.1,4.1-0.1c3-0.3,1.2-5.3,0.7-8.3c-0.9-5.4-5-11-8.6-15
					C416.6,9,409.2,4.3,401.7,0c-0.6,7.7,2.1,15.2,5.5,22.1C410.1,28,416.9,37.4,426.1,38.7L426.1,38.7z"/>
				<path class="st0" d="M407.6,50c2.7,2.2,5.2,4.7,8.3,6.4c2.7,1.4,11.5,4.9,14.4,2.8c3.7-2.6-4.2-8.6-6-10.6
					c-1.8-1.9-3.6-3.8-5.7-5.4c-7.7-5.9-17.7-7.5-27.3-9C394.9,41,401.7,45.1,407.6,50L407.6,50z"/>
				<path class="st0" d="M990.7-87"/>
				<path class="st0" d="M414.4,89c0,1.1-0.1,2.3-0.2,3.5c-1,8.5,1.1,17.4,4.5,25.2c1.2,2.7,4.6,11.5,7.6,9.7
					c3.3-2,3.1-9.8,2.4-12.9c-1-4.9-3.7-9.2-6.5-13.3C419.4,97.2,416.5,93.4,414.4,89L414.4,89z"/>
				<path class="st0" d="M448.4,90.1c-0.1-0.3,5.5-3.9,6-4.4c4.3-4,9.3-9.1,10.4-15c0.5-2.7,0.2-5.4,0-8.1c-0.1-1.5-0.1-3.1,0.1-4.6
					c0.6-4.1,2.3-7.9,1.3-12.2c-4.6,0.7-10.9,15-13.3,19c-2.5,4.2-4.9,8.6-5.3,13.4C447.3,82.2,447.5,86.2,448.4,90.1L448.4,90.1z"
					/>
				<path class="st0" d="M451.7,41.3c0.7-3.2,0.3-6.4-0.1-9.7c-0.7-5.5-0.4-13.1-2.6-18.2c-1.9,1.5-0.8,4.8-0.8,7.1
					c0,4.9-4.5,8.5-7.3,12.5c-4.7,6.6-5.2,16-1.1,23C444.9,52.1,450.3,47.6,451.7,41.3L451.7,41.3z"/>
				<path class="st0" d="M462.9,100.8c-9,4.3-16.6,11.5-21,20.4c6.5-3.3,15.5-1,20.8-6.1c1.9-1.8,2.9-4.2,4.3-6.4
					c1.4-2.3,7.8-10.3,7.8-10.3S465,99.8,462.9,100.8L462.9,100.8z"/>
				<path class="st0" d="M438.4,139.5c-6.3,2.7-11.6,7.4-15.9,12.8c6.2,1.1,12.6,1.1,18.8,0.2c3.7-0.6,7.5-1.5,10.5-3.9
					c2.2-1.8,3.9-4.3,6.2-5.9c2-1.5,4.4-2.1,6.8-2.3c-2.1-0.7-4.2-1.4-6.2-2.2C452,136.1,444.7,136.8,438.4,139.5L438.4,139.5z"/>
				<path class="st0" d="M990.7-87"/>
				<path class="st0" d="M990.7-87"/>
				<path class="st0" d="M229.9,56.4c4.1-7,3.6-16.4-1.1-23c-2.9-4-7.3-7.5-7.3-12.5c0-2.3,1.2-5.5-0.8-7.1
					c-2.2,5.1-1.9,12.7-2.6,18.2c-0.4,3.2-0.8,6.5-0.1,9.7C219.3,48,224.8,52.5,229.9,56.4z"/>
				<path class="st0" d="M227.7,121.7c-4.4-8.9-12-16.1-21-20.4c-2.1-1-11.9-2.4-11.9-2.4s6.4,8.1,7.8,10.3c1.4,2.2,2.4,4.6,4.3,6.4
					C212.2,120.7,221.2,118.4,227.7,121.7L227.7,121.7z"/>
				<path class="st0" d="M231.2,140c-6.3-2.8-13.6-3.5-20.1-1.2c-2.1,0.7-4.1,1.5-6.2,2.1c2.4,0.2,4.8,0.8,6.8,2.3
					c2.3,1.7,3.9,4.2,6.2,5.9c2.9,2.3,6.7,3.3,10.5,3.9c6.2,0.9,12.6,0.9,18.8-0.2C242.9,147.4,237.5,142.7,231.2,140L231.2,140z"/>
				<path class="st0" d="M990.7-87"/>
				<path class="st0" d="M204.8,63c-0.2,2.7-0.5,5.4,0,8.1c1.1,5.9,6.2,11.1,10.4,15c0.5,0.5,6.1,4.1,6,4.4c0.9-3.9,1.1-8,0.7-12
					c-0.5-4.8-2.9-9.2-5.3-13.4c-2.4-4-8.7-18.3-13.3-19c-1,4.2,0.8,8.1,1.3,12.2C204.9,59.9,204.9,61.4,204.8,63L204.8,63z"/>
				<path class="st0" d="M990.7-87"/>
				<path class="st0" d="M235.2,80.5c-3.3,3.5-6.3,9.3-5.8,14.2c1-1.5,2.4-2.6,4-3.5c2.1-1.1,4.4-1.7,6.7-2.5
					c11.3-4,20.5-13.6,24.1-25C255.4,70.8,242.8,72.3,235.2,80.5L235.2,80.5z"/>
				<path class="st0" d="M278.4,34.7c-9.6,1.4-19.6,3-27.3,9c-2.1,1.6-3.9,3.5-5.7,5.4c-1.8,1.9-9.7,7.9-6,10.6
					c2.8,2,11.7-1.4,14.4-2.8c3.1-1.7,5.6-4.1,8.3-6.3C267.9,45.6,274.8,41.4,278.4,34.7z"/>
				<path class="st0" d="M239.4,39.1c1.7,0.2,2.3,0.3,4.1,0.1c9.3-1.3,16-10.7,18.9-16.6c3.4-6.9,6.2-14.5,5.5-22.1
					c-7.5,4.3-14.9,9-20.6,15.3c-3.6,4-7.7,9.6-8.6,15C238.2,33.8,236.4,38.8,239.4,39.1z"/>
			</g>
		</g>
	</g>
	<g transform="rotate(0 101.1503 265.9373)">
		<g transform="matrix(1 0 0 1 0 0)">
			<path class="st0" d="M107,283.7h-5.9v-16.6h5.3c1,0,1.9,0.1,2.6,0.3c0.7,0.2,1.3,0.5,1.8,0.9c0.5,0.4,0.8,0.8,1.1,1.4
				c0.2,0.5,0.3,1.1,0.3,1.8l0,0c0,0.4-0.1,0.8-0.2,1.2c-0.1,0.4-0.3,0.7-0.6,1.1c-0.3,0.3-0.6,0.6-1,0.9c-0.4,0.3-0.8,0.5-1.4,0.6
				l0,0c1.2,0.2,2.1,0.7,2.7,1.3c0.6,0.6,0.9,1.5,0.9,2.5l0,0c0,0.7-0.1,1.3-0.4,1.9c-0.3,0.6-0.6,1.1-1.1,1.5
				c-0.5,0.4-1.1,0.7-1.8,1C108.8,283.6,108,283.7,107,283.7L107,283.7z M107,276.1h-3.6v5.8h3.6c0.6,0,1.2-0.1,1.7-0.2
				c0.5-0.1,0.8-0.4,1.1-0.6c0.3-0.3,0.5-0.6,0.7-1s0.2-0.8,0.2-1.2l0,0c0-0.9-0.3-1.5-0.9-2C109.1,276.4,108.2,276.1,107,276.1
				L107,276.1z M103.4,268.9v5.7h3c0.6,0,1.2-0.1,1.6-0.2c0.5-0.1,0.8-0.3,1.2-0.6c0.3-0.2,0.5-0.5,0.7-0.9s0.2-0.7,0.2-1.2l0,0
				c0-1-0.3-1.7-0.9-2.1c-0.6-0.5-1.5-0.7-2.7-0.7l0,0H103.4z M125.4,276.2v7.5h-0.9c-0.2,0-0.4,0-0.5-0.1c-0.1-0.1-0.2-0.2-0.2-0.4
				l0,0l-0.2-1.1c-0.3,0.3-0.6,0.5-0.9,0.7s-0.6,0.4-0.9,0.6c-0.3,0.2-0.7,0.3-1,0.3c-0.4,0.1-0.8,0.1-1.2,0.1l0,0
				c-0.5,0-0.9-0.1-1.3-0.2c-0.4-0.1-0.7-0.3-1-0.6s-0.5-0.6-0.7-1c-0.2-0.4-0.3-0.9-0.3-1.4l0,0c0-0.5,0.1-0.9,0.4-1.3
				s0.7-0.8,1.2-1.1c0.6-0.3,1.3-0.6,2.2-0.8c0.9-0.2,2-0.3,3.4-0.4l0,0v-0.9c0-0.9-0.2-1.6-0.6-2.1c-0.4-0.5-1-0.7-1.7-0.7l0,0
				c-0.5,0-0.9,0.1-1.3,0.2c-0.3,0.1-0.6,0.3-0.9,0.4c-0.3,0.2-0.5,0.3-0.6,0.4c-0.2,0.1-0.4,0.2-0.5,0.2l0,0c-0.1,0-0.3,0-0.4-0.1
				c-0.1-0.1-0.2-0.2-0.2-0.3l0,0l-0.4-0.7c0.6-0.6,1.3-1.1,2.1-1.4c0.7-0.3,1.6-0.5,2.5-0.5l0,0c0.7,0,1.2,0.1,1.8,0.3
				s0.9,0.5,1.3,0.9c0.3,0.4,0.6,0.9,0.8,1.4C125.3,274.9,125.4,275.5,125.4,276.2L125.4,276.2z M120,282.4L120,282.4
				c0.4,0,0.7,0,1-0.1c0.3-0.1,0.6-0.2,0.9-0.3c0.3-0.1,0.5-0.3,0.8-0.5c0.2-0.2,0.5-0.4,0.7-0.7l0,0v-2.4c-1,0-1.8,0.1-2.4,0.2
				s-1.2,0.3-1.6,0.5c-0.4,0.2-0.7,0.4-0.9,0.7c-0.2,0.3-0.3,0.6-0.3,0.9l0,0c0,0.3,0.1,0.6,0.2,0.8c0.1,0.2,0.2,0.4,0.4,0.6
				c0.2,0.1,0.4,0.2,0.6,0.3C119.5,282.4,119.8,282.4,120,282.4z M131.5,283.7h-2.1V272h1.2c0.3,0,0.5,0.1,0.6,0.4l0,0l0.2,1.3
				c0.5-0.6,1.1-1,1.7-1.4c0.6-0.3,1.4-0.5,2.2-0.5l0,0c0.6,0,1.2,0.1,1.7,0.3c0.5,0.2,0.9,0.5,1.2,0.9c0.3,0.4,0.6,0.9,0.7,1.4
				s0.3,1.2,0.3,1.8l0,0v7.5h-2.1v-7.5c0-0.9-0.2-1.6-0.6-2.1c-0.4-0.5-1-0.7-1.9-0.7l0,0c-0.6,0-1.2,0.1-1.7,0.4
				c-0.5,0.3-1,0.7-1.5,1.2l0,0V283.7z M152.8,283.7h-1.2c-0.3,0-0.5-0.1-0.6-0.4l0,0l-0.2-1.4c-0.5,0.6-1.1,1.1-1.7,1.5
				s-1.4,0.6-2.2,0.6l0,0c-0.7,0-1.3-0.1-1.8-0.4c-0.5-0.3-1-0.6-1.4-1.1c-0.4-0.5-0.7-1.1-0.9-1.9c-0.2-0.7-0.3-1.6-0.3-2.6l0,0
				c0-0.9,0.1-1.7,0.3-2.4s0.6-1.4,1-1.9c0.4-0.5,1-1,1.6-1.3c0.6-0.3,1.3-0.5,2.1-0.5l0,0c0.7,0,1.3,0.1,1.8,0.4s1,0.6,1.4,1l0,0
				v-6.5h2.1V283.7z M147.5,282.2L147.5,282.2c0.7,0,1.3-0.2,1.8-0.5c0.5-0.3,1-0.7,1.4-1.3l0,0v-5.7c-0.4-0.5-0.8-0.9-1.2-1.1
				c-0.5-0.2-1-0.3-1.5-0.3l0,0c-1.1,0-1.9,0.4-2.5,1.2c-0.6,0.8-0.9,1.9-0.9,3.3l0,0c0,0.8,0.1,1.4,0.2,2c0.1,0.5,0.3,1,0.6,1.3
				c0.3,0.4,0.6,0.6,0.9,0.8C146.6,282.1,147,282.2,147.5,282.2z M171,277.7L171,277.7c0.1,0.2,0.2,0.4,0.3,0.6
				c0.1,0.2,0.2,0.4,0.2,0.6l0,0c0.1-0.2,0.2-0.4,0.2-0.6c0.1-0.2,0.2-0.4,0.3-0.6l0,0l5.6-10.2c0.1-0.2,0.2-0.3,0.3-0.3
				c0.1,0,0.3-0.1,0.5-0.1l0,0h1.7v16.6h-2v-12.2c0-0.2,0-0.3,0-0.5c0-0.2,0-0.4,0-0.6l0,0l-5.7,10.4c-0.2,0.3-0.5,0.5-0.8,0.5l0,0
				h-0.3c-0.3,0-0.6-0.2-0.8-0.5l0,0l-5.8-10.4c0,0.2,0,0.4,0.1,0.6s0,0.4,0,0.5l0,0v12.2h-2v-16.6h1.7c0.2,0,0.4,0,0.5,0.1
				c0.1,0,0.2,0.1,0.3,0.3l0,0L171,277.7z M193.4,276.2v7.5h-0.9c-0.2,0-0.4,0-0.5-0.1c-0.1-0.1-0.2-0.2-0.2-0.4l0,0l-0.2-1.1
				c-0.3,0.3-0.6,0.5-0.9,0.7c-0.3,0.2-0.6,0.4-0.9,0.6c-0.3,0.2-0.7,0.3-1,0.3s-0.8,0.1-1.2,0.1l0,0c-0.5,0-0.9-0.1-1.3-0.2
				s-0.7-0.3-1-0.6c-0.3-0.3-0.5-0.6-0.7-1s-0.3-0.9-0.3-1.4l0,0c0-0.5,0.1-0.9,0.4-1.3c0.3-0.4,0.7-0.8,1.2-1.1
				c0.6-0.3,1.3-0.6,2.2-0.8c0.9-0.2,2-0.3,3.4-0.4l0,0v-0.9c0-0.9-0.2-1.6-0.6-2.1c-0.4-0.5-1-0.7-1.7-0.7l0,0
				c-0.5,0-0.9,0.1-1.3,0.2c-0.3,0.1-0.6,0.3-0.9,0.4s-0.5,0.3-0.6,0.4c-0.2,0.1-0.4,0.2-0.5,0.2l0,0c-0.1,0-0.3,0-0.4-0.1
				c-0.1-0.1-0.2-0.2-0.2-0.3l0,0l-0.4-0.7c0.6-0.6,1.3-1.1,2.1-1.4c0.7-0.3,1.6-0.5,2.5-0.5l0,0c0.7,0,1.2,0.1,1.8,0.3
				s0.9,0.5,1.3,0.9c0.3,0.4,0.6,0.9,0.8,1.4C193.3,274.9,193.4,275.5,193.4,276.2L193.4,276.2z M188.1,282.4L188.1,282.4
				c0.4,0,0.7,0,1-0.1c0.3-0.1,0.6-0.2,0.9-0.3c0.3-0.1,0.5-0.3,0.8-0.5c0.2-0.2,0.5-0.4,0.7-0.7l0,0v-2.4c-1,0-1.8,0.1-2.4,0.2
				s-1.2,0.3-1.6,0.5c-0.4,0.2-0.7,0.4-0.9,0.7s-0.3,0.6-0.3,0.9l0,0c0,0.3,0.1,0.6,0.2,0.8s0.2,0.4,0.4,0.6
				c0.2,0.1,0.4,0.2,0.6,0.3C187.6,282.4,187.8,282.4,188.1,282.4z M199.6,283.7h-2.1V272h1.2c0.3,0,0.5,0.1,0.6,0.4l0,0l0.2,1.3
				c0.5-0.6,1.1-1,1.7-1.4c0.6-0.3,1.4-0.5,2.2-0.5l0,0c0.6,0,1.2,0.1,1.7,0.3c0.5,0.2,0.9,0.5,1.2,0.9c0.3,0.4,0.6,0.9,0.7,1.4
				c0.2,0.5,0.3,1.2,0.3,1.8l0,0v7.5h-2.1v-7.5c0-0.9-0.2-1.6-0.6-2.1c-0.4-0.5-1-0.7-1.9-0.7l0,0c-0.6,0-1.2,0.1-1.7,0.4
				c-0.5,0.3-1,0.7-1.5,1.2l0,0V283.7z M219.9,276.2v7.5H219c-0.2,0-0.4,0-0.5-0.1c-0.1-0.1-0.2-0.2-0.2-0.4l0,0l-0.2-1.1
				c-0.3,0.3-0.6,0.5-0.9,0.7s-0.6,0.4-0.9,0.6c-0.3,0.2-0.7,0.3-1,0.3s-0.8,0.1-1.2,0.1l0,0c-0.5,0-0.9-0.1-1.3-0.2s-0.7-0.3-1-0.6
				s-0.5-0.6-0.7-1s-0.3-0.9-0.3-1.4l0,0c0-0.5,0.1-0.9,0.4-1.3c0.3-0.4,0.7-0.8,1.2-1.1c0.6-0.3,1.3-0.6,2.2-0.8
				c0.9-0.2,2-0.3,3.4-0.4l0,0v-0.9c0-0.9-0.2-1.6-0.6-2.1c-0.4-0.5-1-0.7-1.7-0.7l0,0c-0.5,0-0.9,0.1-1.3,0.2
				c-0.3,0.1-0.6,0.3-0.9,0.4s-0.5,0.3-0.6,0.4c-0.2,0.1-0.4,0.2-0.5,0.2l0,0c-0.1,0-0.3,0-0.4-0.1c-0.1-0.1-0.2-0.2-0.2-0.3l0,0
				l-0.4-0.7c0.6-0.6,1.3-1.1,2.1-1.4c0.7-0.3,1.6-0.5,2.5-0.5l0,0c0.7,0,1.2,0.1,1.8,0.3s0.9,0.5,1.3,0.9c0.3,0.4,0.6,0.9,0.8,1.4
				C219.8,274.9,219.9,275.5,219.9,276.2L219.9,276.2z M214.6,282.4L214.6,282.4c0.4,0,0.7,0,1-0.1c0.3-0.1,0.6-0.2,0.9-0.3
				c0.3-0.1,0.5-0.3,0.8-0.5s0.5-0.4,0.7-0.7l0,0v-2.4c-1,0-1.8,0.1-2.4,0.2c-0.7,0.1-1.2,0.3-1.6,0.5c-0.4,0.2-0.7,0.4-0.9,0.7
				c-0.2,0.3-0.3,0.6-0.3,0.9l0,0c0,0.3,0.1,0.6,0.2,0.8s0.2,0.4,0.4,0.6c0.2,0.1,0.4,0.2,0.6,0.3
				C214.1,282.4,214.3,282.4,214.6,282.4z M227.9,271.8L227.9,271.8c0.5,0,1,0.1,1.4,0.2c0.4,0.1,0.8,0.3,1.2,0.5l0,0h3.2v0.8
				c0,0.3-0.2,0.4-0.5,0.5l0,0l-1.3,0.2c0.3,0.5,0.4,1.1,0.4,1.7l0,0c0,0.6-0.1,1.1-0.3,1.6c-0.2,0.5-0.5,0.9-0.9,1.2
				c-0.4,0.3-0.9,0.6-1.4,0.8c-0.5,0.2-1.1,0.3-1.8,0.3l0,0c-0.5,0-1.1-0.1-1.6-0.2l0,0c-0.2,0.2-0.4,0.3-0.6,0.5
				c-0.1,0.2-0.2,0.4-0.2,0.5l0,0c0,0.3,0.1,0.5,0.3,0.6c0.2,0.1,0.5,0.2,0.9,0.3c0.4,0.1,0.8,0.1,1.3,0.1c0.5,0,1,0,1.4,0.1
				c0.5,0,1,0.1,1.4,0.2s0.9,0.2,1.3,0.4c0.4,0.2,0.7,0.5,0.9,0.8c0.2,0.3,0.3,0.8,0.3,1.3l0,0c0,0.5-0.1,1-0.4,1.5
				c-0.3,0.5-0.6,0.9-1.1,1.3c-0.5,0.4-1,0.7-1.7,0.9s-1.4,0.3-2.3,0.3l0,0c-0.9,0-1.6-0.1-2.3-0.3s-1.2-0.4-1.6-0.7
				c-0.4-0.3-0.7-0.6-1-1s-0.3-0.8-0.3-1.2l0,0c0-0.6,0.2-1.1,0.6-1.5c0.4-0.4,0.9-0.7,1.5-1l0,0c-0.3-0.2-0.6-0.4-0.8-0.6
				c-0.2-0.3-0.3-0.6-0.3-1l0,0c0-0.2,0-0.3,0.1-0.5c0.1-0.2,0.2-0.4,0.3-0.5c0.1-0.2,0.3-0.3,0.5-0.5c0.2-0.2,0.4-0.3,0.6-0.4l0,0
				c-0.6-0.3-1-0.8-1.4-1.3c-0.3-0.5-0.5-1.2-0.5-1.9l0,0c0-0.6,0.1-1.1,0.3-1.6c0.2-0.5,0.5-0.9,0.9-1.2c0.4-0.3,0.9-0.6,1.4-0.8
				C226.7,271.9,227.3,271.8,227.9,271.8z M231.6,284.3L231.6,284.3c0-0.3-0.1-0.5-0.2-0.7c-0.2-0.2-0.4-0.3-0.7-0.4
				c-0.3-0.1-0.6-0.2-1-0.2s-0.7-0.1-1.1-0.1c-0.4,0-0.8,0-1.2-0.1c-0.4,0-0.8-0.1-1.2-0.1l0,0c-0.4,0.2-0.8,0.5-1.1,0.8
				c-0.3,0.3-0.4,0.7-0.4,1.1l0,0c0,0.3,0.1,0.5,0.2,0.7c0.1,0.2,0.3,0.4,0.6,0.6s0.6,0.3,1,0.4c0.4,0.1,0.9,0.1,1.5,0.1l0,0
				c0.6,0,1.1-0.1,1.5-0.2c0.4-0.1,0.8-0.2,1.1-0.4c0.3-0.2,0.5-0.4,0.7-0.7C231.5,284.9,231.6,284.7,231.6,284.3z M227.9,278
				L227.9,278c0.4,0,0.8-0.1,1.1-0.2c0.3-0.1,0.6-0.3,0.8-0.5s0.4-0.5,0.5-0.7c0.1-0.3,0.2-0.6,0.2-1l0,0c0-0.7-0.2-1.3-0.7-1.7
				c-0.4-0.4-1.1-0.6-1.9-0.6l0,0c-0.8,0-1.5,0.2-1.9,0.6c-0.4,0.4-0.7,1-0.7,1.7l0,0c0,0.3,0.1,0.7,0.2,1c0.1,0.3,0.3,0.5,0.5,0.7
				c0.2,0.2,0.5,0.4,0.8,0.5C227.2,277.9,227.5,278,227.9,278z M241.4,271.8L241.4,271.8c0.7,0,1.4,0.1,1.9,0.4
				c0.6,0.2,1.1,0.6,1.5,1s0.8,1,1,1.6c0.2,0.7,0.4,1.4,0.4,2.2l0,0c0,0.3,0,0.5-0.1,0.6c-0.1,0.1-0.2,0.2-0.4,0.2l0,0H238
				c0,0.7,0.1,1.4,0.3,1.9c0.2,0.5,0.4,1,0.8,1.4s0.7,0.6,1.2,0.8c0.4,0.2,1,0.3,1.5,0.3l0,0c0.5,0,1-0.1,1.3-0.2
				c0.4-0.1,0.7-0.2,1-0.4c0.3-0.1,0.5-0.3,0.7-0.4s0.3-0.2,0.5-0.2l0,0c0.2,0,0.3,0.1,0.4,0.2l0,0l0.6,0.8
				c-0.3,0.3-0.6,0.6-0.9,0.8s-0.7,0.4-1.1,0.6c-0.4,0.1-0.8,0.3-1.3,0.3c-0.4,0.1-0.9,0.1-1.3,0.1l0,0c-0.8,0-1.6-0.1-2.2-0.4
				s-1.3-0.7-1.8-1.2c-0.5-0.5-0.9-1.2-1.2-2c-0.3-0.8-0.4-1.7-0.4-2.7l0,0c0-0.8,0.1-1.6,0.4-2.3c0.3-0.7,0.6-1.3,1.1-1.8
				c0.5-0.5,1-0.9,1.7-1.2C239.8,271.9,240.6,271.8,241.4,271.8z M241.5,273.3L241.5,273.3c-1,0-1.8,0.3-2.4,0.9
				c-0.6,0.6-0.9,1.4-1.1,2.4l0,0h6.4c0-0.5-0.1-0.9-0.2-1.3c-0.1-0.4-0.3-0.7-0.6-1c-0.3-0.3-0.6-0.5-0.9-0.7
				C242.3,273.4,241.9,273.3,241.5,273.3z M251.9,283.7h-2.1V272h1.2c0.2,0,0.4,0,0.5,0.1c0.1,0.1,0.1,0.2,0.2,0.4l0,0l0.1,1.8
				c0.4-0.8,0.9-1.5,1.5-1.9c0.6-0.5,1.3-0.7,2.1-0.7l0,0c0.3,0,0.6,0,0.9,0.1c0.3,0.1,0.5,0.2,0.7,0.3l0,0l-0.3,1.5
				c-0.1,0.2-0.2,0.3-0.4,0.3l0,0c-0.1,0-0.3,0-0.5-0.1c-0.2-0.1-0.5-0.1-0.9-0.1l0,0c-0.7,0-1.3,0.2-1.8,0.6
				c-0.5,0.4-0.9,1-1.2,1.8l0,0V283.7z M265.8,267.1h10.2v1.8h-8v5.8h6.8v1.8h-6.8v7.1h-2.3V267.1z M280.9,283.7h-2.1V272h1.2
				c0.2,0,0.4,0,0.5,0.1c0.1,0.1,0.1,0.2,0.2,0.4l0,0l0.1,1.8c0.4-0.8,0.9-1.5,1.5-1.9s1.3-0.7,2.1-0.7l0,0c0.3,0,0.6,0,0.9,0.1
				c0.3,0.1,0.5,0.2,0.7,0.3l0,0l-0.3,1.5c-0.1,0.2-0.2,0.3-0.4,0.3l0,0c-0.1,0-0.3,0-0.5-0.1c-0.2-0.1-0.5-0.1-0.9-0.1l0,0
				c-0.7,0-1.3,0.2-1.8,0.6c-0.5,0.4-0.9,1-1.2,1.8l0,0V283.7z M293.9,271.8L293.9,271.8c0.9,0,1.6,0.1,2.3,0.4s1.3,0.7,1.8,1.2
				c0.5,0.5,0.9,1.2,1.1,1.9c0.3,0.7,0.4,1.6,0.4,2.5l0,0c0,0.9-0.1,1.8-0.4,2.5c-0.3,0.7-0.6,1.4-1.1,1.9s-1.1,0.9-1.8,1.2
				s-1.5,0.4-2.3,0.4l0,0c-0.9,0-1.6-0.1-2.3-0.4s-1.3-0.7-1.8-1.2s-0.9-1.2-1.1-1.9c-0.3-0.7-0.4-1.6-0.4-2.5l0,0
				c0-0.9,0.1-1.8,0.4-2.5c0.3-0.7,0.6-1.4,1.1-1.9c0.5-0.5,1.1-0.9,1.8-1.2S293,271.8,293.9,271.8z M293.9,282.3L293.9,282.3
				c1.2,0,2-0.4,2.6-1.2c0.6-0.8,0.9-1.9,0.9-3.3l0,0c0-1.4-0.3-2.5-0.9-3.3c-0.6-0.8-1.4-1.2-2.6-1.2l0,0c-0.6,0-1.1,0.1-1.5,0.3
				c-0.4,0.2-0.8,0.5-1.1,0.9c-0.3,0.4-0.5,0.8-0.6,1.4s-0.2,1.2-0.2,1.9l0,0c0,0.7,0.1,1.3,0.2,1.9c0.1,0.5,0.4,1,0.6,1.4
				s0.7,0.7,1.1,0.9C292.8,282.2,293.3,282.3,293.9,282.3z M305,283.7H303V272h1.2c0.3,0,0.5,0.1,0.6,0.4l0,0l0.2,1.3
				c0.5-0.6,1.1-1,1.7-1.4c0.6-0.3,1.4-0.5,2.2-0.5l0,0c0.6,0,1.2,0.1,1.7,0.3c0.5,0.2,0.9,0.5,1.2,0.9c0.3,0.4,0.6,0.9,0.7,1.4
				c0.2,0.5,0.3,1.2,0.3,1.8l0,0v7.5h-2.1v-7.5c0-0.9-0.2-1.6-0.6-2.1c-0.4-0.5-1-0.7-1.9-0.7l0,0c-0.6,0-1.2,0.1-1.7,0.4
				s-1,0.7-1.5,1.2l0,0V283.7z M320.3,283.9L320.3,283.9c-0.9,0-1.6-0.3-2.1-0.8s-0.7-1.3-0.7-2.2l0,0v-7.2H316
				c-0.1,0-0.2,0-0.3-0.1c-0.1-0.1-0.1-0.2-0.1-0.3l0,0v-0.8l1.9-0.2l0.5-3.6c0-0.1,0.1-0.2,0.2-0.3c0.1-0.1,0.2-0.1,0.3-0.1l0,0h1
				v4h3.4v1.5h-3.4v7c0,0.5,0.1,0.9,0.4,1.1c0.2,0.2,0.5,0.4,0.9,0.4l0,0c0.2,0,0.4,0,0.6-0.1c0.2-0.1,0.3-0.1,0.4-0.2
				s0.2-0.1,0.3-0.2c0.1-0.1,0.2-0.1,0.2-0.1l0,0c0.1,0,0.2,0.1,0.3,0.2l0,0l0.6,1c-0.4,0.3-0.8,0.6-1.3,0.8
				C321.4,283.8,320.9,283.9,320.3,283.9z M340.3,277.7L340.3,277.7c0.1,0.2,0.2,0.4,0.3,0.6s0.2,0.4,0.2,0.6l0,0
				c0.1-0.2,0.2-0.4,0.2-0.6c0.1-0.2,0.2-0.4,0.3-0.6l0,0l5.6-10.2c0.1-0.2,0.2-0.3,0.3-0.3s0.3-0.1,0.5-0.1l0,0h1.7v16.6h-2v-12.2
				c0-0.2,0-0.3,0-0.5c0-0.2,0-0.4,0-0.6l0,0l-5.7,10.4c-0.2,0.3-0.5,0.5-0.8,0.5l0,0h-0.3c-0.3,0-0.6-0.2-0.8-0.5l0,0l-5.8-10.4
				c0,0.2,0,0.4,0.1,0.6s0,0.4,0,0.5l0,0v12.2h-2v-16.6h1.7c0.2,0,0.4,0,0.5,0.1c0.1,0,0.2,0.1,0.3,0.3l0,0L340.3,277.7z
				 M362.6,276.2v7.5h-0.9c-0.2,0-0.4,0-0.5-0.1c-0.1-0.1-0.2-0.2-0.2-0.4l0,0l-0.2-1.1c-0.3,0.3-0.6,0.5-0.9,0.7s-0.6,0.4-0.9,0.6
				c-0.3,0.2-0.7,0.3-1,0.3c-0.4,0.1-0.8,0.1-1.2,0.1l0,0c-0.5,0-0.9-0.1-1.3-0.2s-0.7-0.3-1-0.6c-0.3-0.3-0.5-0.6-0.7-1
				c-0.2-0.4-0.3-0.9-0.3-1.4l0,0c0-0.5,0.1-0.9,0.4-1.3s0.7-0.8,1.2-1.1c0.6-0.3,1.3-0.6,2.2-0.8c0.9-0.2,2-0.3,3.4-0.4l0,0v-0.9
				c0-0.9-0.2-1.6-0.6-2.1c-0.4-0.5-1-0.7-1.7-0.7l0,0c-0.5,0-0.9,0.1-1.3,0.2c-0.3,0.1-0.6,0.3-0.9,0.4c-0.3,0.2-0.5,0.3-0.6,0.4
				c-0.2,0.1-0.4,0.2-0.5,0.2l0,0c-0.1,0-0.3,0-0.4-0.1c-0.1-0.1-0.2-0.2-0.2-0.3l0,0l-0.4-0.7c0.6-0.6,1.3-1.1,2.1-1.4
				c0.7-0.3,1.6-0.5,2.5-0.5l0,0c0.7,0,1.2,0.1,1.8,0.3c0.5,0.2,0.9,0.5,1.3,0.9c0.3,0.4,0.6,0.9,0.8,1.4S362.6,275.5,362.6,276.2
				L362.6,276.2z M357.3,282.4L357.3,282.4c0.4,0,0.7,0,1-0.1c0.3-0.1,0.6-0.2,0.9-0.3c0.3-0.1,0.5-0.3,0.8-0.5
				c0.2-0.2,0.5-0.4,0.7-0.7l0,0v-2.4c-1,0-1.8,0.1-2.4,0.2c-0.7,0.1-1.2,0.3-1.6,0.5c-0.4,0.2-0.7,0.4-0.9,0.7s-0.3,0.6-0.3,0.9
				l0,0c0,0.3,0.1,0.6,0.2,0.8c0.1,0.2,0.2,0.4,0.4,0.6c0.2,0.1,0.4,0.2,0.6,0.3C356.8,282.4,357,282.4,357.3,282.4z M368.8,283.7
				h-2.1V272h1.2c0.3,0,0.5,0.1,0.6,0.4l0,0l0.2,1.3c0.5-0.6,1.1-1,1.7-1.4c0.6-0.3,1.4-0.5,2.2-0.5l0,0c0.6,0,1.2,0.1,1.7,0.3
				c0.5,0.2,0.9,0.5,1.2,0.9c0.3,0.4,0.6,0.9,0.7,1.4c0.2,0.5,0.3,1.2,0.3,1.8l0,0v7.5h-2.1v-7.5c0-0.9-0.2-1.6-0.6-2.1
				s-1-0.7-1.9-0.7l0,0c-0.6,0-1.2,0.1-1.7,0.4c-0.5,0.3-1,0.7-1.5,1.2l0,0V283.7z M386.9,287.7v-21.7h1.6v21.7H386.9z M401.8,267.1
				v14.7h7.2v1.9h-9.4v-16.6H401.8z M416.3,271.8L416.3,271.8c0.7,0,1.4,0.1,1.9,0.4c0.6,0.2,1.1,0.6,1.5,1s0.8,1,1,1.6
				c0.2,0.7,0.4,1.4,0.4,2.2l0,0c0,0.3,0,0.5-0.1,0.6s-0.2,0.2-0.4,0.2l0,0h-7.8c0,0.7,0.1,1.4,0.3,1.9c0.2,0.5,0.4,1,0.8,1.4
				c0.3,0.4,0.7,0.6,1.2,0.8c0.4,0.2,1,0.3,1.5,0.3l0,0c0.5,0,1-0.1,1.3-0.2c0.4-0.1,0.7-0.2,1-0.4c0.3-0.1,0.5-0.3,0.7-0.4
				s0.3-0.2,0.5-0.2l0,0c0.2,0,0.3,0.1,0.4,0.2l0,0l0.6,0.8c-0.3,0.3-0.6,0.6-0.9,0.8c-0.4,0.2-0.7,0.4-1.1,0.6
				c-0.4,0.1-0.8,0.3-1.3,0.3c-0.4,0.1-0.9,0.1-1.3,0.1l0,0c-0.8,0-1.6-0.1-2.2-0.4c-0.7-0.3-1.3-0.7-1.8-1.2
				c-0.5-0.5-0.9-1.2-1.2-2c-0.3-0.8-0.4-1.7-0.4-2.7l0,0c0-0.8,0.1-1.6,0.4-2.3c0.3-0.7,0.6-1.3,1.1-1.8c0.5-0.5,1-0.9,1.7-1.2
				C414.7,271.9,415.4,271.8,416.3,271.8z M416.3,273.3L416.3,273.3c-1,0-1.8,0.3-2.4,0.9c-0.6,0.6-0.9,1.4-1.1,2.4l0,0h6.4
				c0-0.5-0.1-0.9-0.2-1.3c-0.1-0.4-0.3-0.7-0.6-1c-0.3-0.3-0.6-0.5-0.9-0.7S416.8,273.3,416.3,273.3z M427,283.7l-3.8-11.7h1.6
				c0.2,0,0.3,0,0.4,0.1c0.1,0.1,0.2,0.2,0.2,0.3l0,0l2.2,7.6c0.1,0.3,0.1,0.5,0.2,0.8c0.1,0.3,0.1,0.5,0.1,0.8l0,0
				c0.1-0.3,0.1-0.5,0.2-0.8c0.1-0.3,0.2-0.5,0.2-0.8l0,0l2.5-7.6c0-0.1,0.1-0.2,0.2-0.3s0.2-0.1,0.4-0.1l0,0h0.9
				c0.2,0,0.3,0,0.4,0.1c0.1,0.1,0.2,0.2,0.2,0.3l0,0l2.4,7.6c0.1,0.3,0.2,0.5,0.2,0.8s0.1,0.5,0.2,0.8l0,0c0-0.3,0.1-0.5,0.2-0.8
				c0.1-0.3,0.1-0.5,0.2-0.8l0,0l2.3-7.6c0-0.1,0.1-0.2,0.2-0.3c0.1-0.1,0.2-0.1,0.4-0.1l0,0h1.6l-3.8,11.7h-1.6
				c-0.2,0-0.3-0.1-0.4-0.4l0,0l-2.6-8c-0.1-0.2-0.1-0.4-0.2-0.5c0-0.2-0.1-0.4-0.1-0.5l0,0c0,0.2-0.1,0.4-0.1,0.5
				c0,0.2-0.1,0.4-0.2,0.5l0,0l-2.6,8c-0.1,0.3-0.2,0.4-0.5,0.4l0,0H427z M443.6,272h2.1v11.7h-2.1V272z M446.2,268.3L446.2,268.3
				c0,0.2,0,0.4-0.1,0.6c-0.1,0.2-0.2,0.3-0.3,0.5c-0.1,0.1-0.3,0.2-0.5,0.3c-0.2,0.1-0.4,0.1-0.6,0.1l0,0c-0.2,0-0.4,0-0.6-0.1
				c-0.2-0.1-0.3-0.2-0.5-0.3s-0.2-0.3-0.3-0.5c-0.1-0.2-0.1-0.4-0.1-0.6l0,0c0-0.2,0-0.4,0.1-0.6c0.1-0.2,0.2-0.3,0.3-0.5
				c0.1-0.1,0.3-0.2,0.5-0.3c0.2-0.1,0.4-0.1,0.6-0.1l0,0c0.2,0,0.4,0,0.6,0.1c0.2,0.1,0.3,0.2,0.5,0.3c0.1,0.1,0.2,0.3,0.3,0.5
				C446.1,267.9,446.2,268.1,446.2,268.3z M457.4,273.1l-0.5,0.8c-0.1,0.2-0.2,0.3-0.4,0.3l0,0c-0.1,0-0.2,0-0.4-0.1
				c-0.1-0.1-0.3-0.2-0.5-0.3c-0.2-0.1-0.5-0.2-0.8-0.3c-0.3-0.1-0.6-0.1-1-0.1l0,0c-0.3,0-0.7,0-0.9,0.1c-0.3,0.1-0.5,0.2-0.7,0.4
				c-0.2,0.2-0.3,0.3-0.5,0.5c-0.1,0.2-0.2,0.4-0.2,0.7l0,0c0,0.3,0.1,0.6,0.3,0.8c0.2,0.2,0.4,0.4,0.7,0.5c0.3,0.1,0.6,0.3,1,0.4
				c0.4,0.1,0.7,0.2,1.1,0.4c0.4,0.1,0.8,0.3,1.1,0.4c0.4,0.2,0.7,0.3,1,0.6c0.3,0.2,0.5,0.5,0.7,0.9c0.2,0.3,0.3,0.7,0.3,1.2l0,0
				c0,0.5-0.1,1-0.3,1.5s-0.5,0.9-0.9,1.2c-0.4,0.3-0.8,0.6-1.4,0.8c-0.5,0.2-1.2,0.3-1.9,0.3l0,0c-0.8,0-1.6-0.1-2.2-0.4
				c-0.7-0.3-1.2-0.6-1.7-1l0,0l0.5-0.8c0.1-0.1,0.1-0.2,0.2-0.2c0.1-0.1,0.2-0.1,0.3-0.1l0,0c0.1,0,0.3,0.1,0.4,0.2
				s0.3,0.2,0.6,0.4c0.2,0.1,0.5,0.3,0.8,0.4s0.7,0.2,1.2,0.2l0,0c0.4,0,0.8-0.1,1.1-0.2c0.3-0.1,0.6-0.2,0.8-0.4s0.3-0.4,0.4-0.6
				c0.1-0.2,0.1-0.5,0.1-0.7l0,0c0-0.3-0.1-0.6-0.3-0.8c-0.2-0.2-0.4-0.4-0.7-0.5c-0.3-0.2-0.6-0.3-1-0.4c-0.4-0.1-0.7-0.2-1.1-0.4
				c-0.4-0.1-0.8-0.3-1.1-0.4c-0.4-0.2-0.7-0.4-1-0.6c-0.3-0.2-0.5-0.5-0.7-0.9c-0.2-0.4-0.3-0.8-0.3-1.3l0,0c0-0.4,0.1-0.9,0.3-1.3
				c0.2-0.4,0.5-0.8,0.8-1.1c0.4-0.3,0.8-0.6,1.3-0.7c0.5-0.2,1.1-0.3,1.8-0.3l0,0c0.8,0,1.5,0.1,2.1,0.4
				C456.5,272.4,457,272.7,457.4,273.1L457.4,273.1z M464.8,283.9L464.8,283.9c-0.9,0-1.6-0.3-2.1-0.8c-0.5-0.5-0.7-1.3-0.7-2.2l0,0
				v-7.2h-1.4c-0.1,0-0.2,0-0.3-0.1c-0.1-0.1-0.1-0.2-0.1-0.3l0,0v-0.8l1.9-0.2l0.5-3.6c0-0.1,0.1-0.2,0.2-0.3
				c0.1-0.1,0.2-0.1,0.3-0.1l0,0h1v4h3.4v1.5H464v7c0,0.5,0.1,0.9,0.4,1.1c0.2,0.2,0.5,0.4,0.9,0.4l0,0c0.2,0,0.4,0,0.6-0.1
				s0.3-0.1,0.4-0.2c0.1-0.1,0.2-0.1,0.3-0.2c0.1-0.1,0.2-0.1,0.2-0.1l0,0c0.1,0,0.2,0.1,0.3,0.2l0,0l0.6,1
				c-0.4,0.3-0.8,0.6-1.3,0.8C465.9,283.8,465.3,283.9,464.8,283.9z M475.6,271.8L475.6,271.8c0.9,0,1.6,0.1,2.3,0.4
				c0.7,0.3,1.3,0.7,1.8,1.2c0.5,0.5,0.9,1.2,1.1,1.9c0.3,0.7,0.4,1.6,0.4,2.5l0,0c0,0.9-0.1,1.8-0.4,2.5c-0.3,0.7-0.6,1.4-1.1,1.9
				s-1.1,0.9-1.8,1.2c-0.7,0.3-1.5,0.4-2.3,0.4l0,0c-0.9,0-1.6-0.1-2.3-0.4c-0.7-0.3-1.3-0.7-1.8-1.2c-0.5-0.5-0.9-1.2-1.1-1.9
				c-0.3-0.7-0.4-1.6-0.4-2.5l0,0c0-0.9,0.1-1.8,0.4-2.5c0.3-0.7,0.6-1.4,1.1-1.9c0.5-0.5,1.1-0.9,1.8-1.2
				C473.9,271.9,474.7,271.8,475.6,271.8z M475.6,282.3L475.6,282.3c1.2,0,2-0.4,2.6-1.2c0.6-0.8,0.9-1.9,0.9-3.3l0,0
				c0-1.4-0.3-2.5-0.9-3.3c-0.6-0.8-1.4-1.2-2.6-1.2l0,0c-0.6,0-1.1,0.1-1.5,0.3c-0.4,0.2-0.8,0.5-1.1,0.9c-0.3,0.4-0.5,0.8-0.6,1.4
				s-0.2,1.2-0.2,1.9l0,0c0,0.7,0.1,1.3,0.2,1.9c0.1,0.5,0.4,1,0.6,1.4s0.7,0.7,1.1,0.9C474.5,282.2,475,282.3,475.6,282.3z
				 M486.7,283.7h-2.1V272h1.2c0.3,0,0.5,0.1,0.6,0.4l0,0l0.2,1.3c0.5-0.6,1.1-1,1.7-1.4c0.6-0.3,1.4-0.5,2.2-0.5l0,0
				c0.6,0,1.2,0.1,1.7,0.3c0.5,0.2,0.9,0.5,1.2,0.9c0.3,0.4,0.6,0.9,0.7,1.4c0.2,0.5,0.3,1.2,0.3,1.8l0,0v7.5h-2.1v-7.5
				c0-0.9-0.2-1.6-0.6-2.1c-0.4-0.5-1-0.7-1.9-0.7l0,0c-0.6,0-1.2,0.1-1.7,0.4c-0.5,0.3-1,0.7-1.5,1.2l0,0V283.7z M497.9,282.3
				L497.9,282.3c0-0.2,0-0.3,0.1-0.5c0.1-0.2,0.2-0.3,0.3-0.4c0.1-0.1,0.3-0.2,0.4-0.3c0.2-0.1,0.4-0.1,0.6-0.1l0,0
				c0.2,0,0.4,0,0.6,0.1c0.2,0.1,0.3,0.2,0.5,0.4c0.1,0.2,0.2,0.3,0.3,0.5c0.1,0.2,0.1,0.4,0.1,0.6l0,0c0,0.3-0.1,0.7-0.2,1.1
				c-0.1,0.4-0.2,0.7-0.4,1.1c-0.2,0.4-0.4,0.7-0.7,1.1c-0.3,0.3-0.6,0.7-0.9,1l0,0l-0.3-0.3c-0.1-0.1-0.2-0.2-0.2-0.3l0,0
				c0-0.1,0.1-0.2,0.2-0.3l0,0c0.1-0.1,0.2-0.2,0.3-0.3c0.1-0.1,0.2-0.3,0.4-0.5s0.2-0.4,0.3-0.6c0.1-0.2,0.2-0.5,0.2-0.7l0,0h-0.2
				c-0.2,0-0.4,0-0.5-0.1s-0.3-0.2-0.4-0.3c-0.1-0.1-0.2-0.3-0.3-0.5C497.9,282.7,497.9,282.5,497.9,282.3z M512.7,267.1v16.6h-2.2
				v-16.6H512.7z M527.2,283.7H526c-0.3,0-0.5-0.1-0.6-0.4l0,0l-0.2-1.4c-0.5,0.6-1.1,1.1-1.7,1.5s-1.4,0.6-2.2,0.6l0,0
				c-0.7,0-1.3-0.1-1.8-0.4c-0.5-0.3-1-0.6-1.4-1.1c-0.4-0.5-0.7-1.1-0.9-1.9c-0.2-0.7-0.3-1.6-0.3-2.6l0,0c0-0.9,0.1-1.7,0.3-2.4
				c0.2-0.7,0.6-1.4,1-1.9s1-1,1.6-1.3c0.6-0.3,1.3-0.5,2.1-0.5l0,0c0.7,0,1.3,0.1,1.8,0.4c0.5,0.2,1,0.6,1.4,1l0,0v-6.5h2.1V283.7z
				 M522,282.2L522,282.2c0.7,0,1.3-0.2,1.8-0.5c0.5-0.3,1-0.7,1.4-1.3l0,0v-5.7c-0.4-0.5-0.8-0.9-1.2-1.1s-1-0.3-1.5-0.3l0,0
				c-1.1,0-1.9,0.4-2.5,1.2c-0.6,0.8-0.9,1.9-0.9,3.3l0,0c0,0.8,0.1,1.4,0.2,2c0.1,0.5,0.3,1,0.6,1.3c0.3,0.4,0.6,0.6,0.9,0.8
				C521.1,282.1,521.5,282.2,522,282.2z M540.3,276.2v7.5h-0.9c-0.2,0-0.4,0-0.5-0.1c-0.1-0.1-0.2-0.2-0.2-0.4l0,0l-0.2-1.1
				c-0.3,0.3-0.6,0.5-0.9,0.7c-0.3,0.2-0.6,0.4-0.9,0.6c-0.3,0.2-0.7,0.3-1,0.3s-0.8,0.1-1.2,0.1l0,0c-0.5,0-0.9-0.1-1.3-0.2
				s-0.7-0.3-1-0.6c-0.3-0.3-0.5-0.6-0.7-1c-0.2-0.4-0.3-0.9-0.3-1.4l0,0c0-0.5,0.1-0.9,0.4-1.3c0.3-0.4,0.7-0.8,1.2-1.1
				s1.3-0.6,2.2-0.8c0.9-0.2,2-0.3,3.4-0.4l0,0v-0.9c0-0.9-0.2-1.6-0.6-2.1c-0.4-0.5-1-0.7-1.7-0.7l0,0c-0.5,0-0.9,0.1-1.3,0.2
				s-0.6,0.3-0.9,0.4c-0.3,0.2-0.5,0.3-0.6,0.4s-0.4,0.2-0.5,0.2l0,0c-0.1,0-0.3,0-0.4-0.1c-0.1-0.1-0.2-0.2-0.2-0.3l0,0l-0.4-0.7
				c0.6-0.6,1.3-1.1,2.1-1.4c0.7-0.3,1.6-0.5,2.5-0.5l0,0c0.7,0,1.2,0.1,1.8,0.3s0.9,0.5,1.3,0.9c0.3,0.4,0.6,0.9,0.8,1.4
				S540.3,275.5,540.3,276.2L540.3,276.2z M534.9,282.4L534.9,282.4c0.4,0,0.7,0,1-0.1c0.3-0.1,0.6-0.2,0.9-0.3
				c0.3-0.1,0.5-0.3,0.8-0.5s0.5-0.4,0.7-0.7l0,0v-2.4c-1,0-1.8,0.1-2.4,0.2c-0.7,0.1-1.2,0.3-1.6,0.5c-0.4,0.2-0.7,0.4-0.9,0.7
				c-0.2,0.3-0.3,0.6-0.3,0.9l0,0c0,0.3,0.1,0.6,0.2,0.8s0.2,0.4,0.4,0.6c0.2,0.1,0.4,0.2,0.6,0.3
				C534.4,282.4,534.6,282.4,534.9,282.4z M546.4,283.7h-2.1v-17.1h2.1v6.9c0.5-0.5,1.1-1,1.7-1.3c0.6-0.3,1.3-0.5,2.1-0.5l0,0
				c0.6,0,1.2,0.1,1.7,0.3c0.5,0.2,0.9,0.5,1.2,0.9c0.3,0.4,0.6,0.9,0.7,1.4c0.2,0.5,0.3,1.2,0.3,1.8l0,0v7.5H552v-7.5
				c0-0.9-0.2-1.6-0.6-2.1c-0.4-0.5-1-0.7-1.9-0.7l0,0c-0.6,0-1.2,0.1-1.7,0.4c-0.5,0.3-1,0.7-1.5,1.2l0,0V283.7z M562.9,271.8
				L562.9,271.8c0.9,0,1.6,0.1,2.3,0.4s1.3,0.7,1.8,1.2c0.5,0.5,0.9,1.2,1.1,1.9s0.4,1.6,0.4,2.5l0,0c0,0.9-0.1,1.8-0.4,2.5
				c-0.3,0.7-0.6,1.4-1.1,1.9c-0.5,0.5-1.1,0.9-1.8,1.2s-1.5,0.4-2.3,0.4l0,0c-0.9,0-1.6-0.1-2.3-0.4s-1.3-0.7-1.8-1.2
				c-0.5-0.5-0.9-1.2-1.1-1.9c-0.3-0.7-0.4-1.6-0.4-2.5l0,0c0-0.9,0.1-1.8,0.4-2.5s0.6-1.4,1.1-1.9c0.5-0.5,1.1-0.9,1.8-1.2
				S562,271.8,562.9,271.8z M562.9,282.3L562.9,282.3c1.2,0,2-0.4,2.6-1.2s0.9-1.9,0.9-3.3l0,0c0-1.4-0.3-2.5-0.9-3.3
				c-0.6-0.8-1.4-1.2-2.6-1.2l0,0c-0.6,0-1.1,0.1-1.5,0.3c-0.4,0.2-0.8,0.5-1.1,0.9c-0.3,0.4-0.5,0.8-0.6,1.4
				c-0.1,0.6-0.2,1.2-0.2,1.9l0,0c0,0.7,0.1,1.3,0.2,1.9c0.1,0.5,0.4,1,0.6,1.4c0.3,0.4,0.7,0.7,1.1,0.9
				C561.8,282.2,562.3,282.3,562.9,282.3z"/>
		</g>
	</g>
	<g transform="rotate(0 0 215.9373)">
		<g transform="matrix(1 0 0 1 0 0)">
			<path class="st1" d="M9.3,239.9H0v-0.5l2.6-1.3v-17.5L0,219.3v-0.5h8.6c1.4,0,2.7,0.2,3.9,0.5c1.1,0.4,2,0.9,2.7,1.6
				c0.7,0.7,1,1.6,1,2.6l0,0c0,1.1-0.4,2.1-1.1,3c-0.7,0.9-1.8,1.6-3.2,1.9l0,0c1.9,0.3,3.5,0.8,4.6,1.8c1.1,0.9,1.6,2.1,1.6,3.5
				l0,0c0,1.2-0.4,2.2-1.1,3.2c-0.7,0.9-1.8,1.7-3.1,2.2C12.5,239.7,11,239.9,9.3,239.9L9.3,239.9z M7.7,220.6L7.7,220.6H6v7.6h1.9
				c1.5,0,2.7-0.3,3.5-1c0.8-0.7,1.2-1.6,1.2-2.7l0,0C12.6,221.9,11,220.6,7.7,220.6z M8.9,229.9L8.9,229.9H6v8.3h3.1
				c1.6,0,2.9-0.4,3.9-1.2c0.9-0.8,1.4-1.8,1.4-3l0,0c0-1.4-0.5-2.5-1.4-3.1S10.6,229.9,8.9,229.9z M26.4,239.9h-6v-0.5l1.6-0.9
				l7.1-16.7h1.7l7,16.6l1.9,0.9v0.5h-7.4v-0.5l2.2-0.9l-2-4.7H26l-2,4.8l2.3,0.9V239.9z M29.3,225.8l-2.6,6.4h5.2L29.3,225.8z
				 M48.4,240.3L48.4,240.3c-1.2,0-2.1-0.1-3-0.4c-0.8-0.2-1.7-0.6-2.5-1l0,0l-0.3-4.4h0.5l1.7,3c0.6,0.4,1.2,0.8,1.8,0.9
				s1.3,0.3,2,0.3l0,0c1.2,0,2.1-0.2,2.7-0.7c0.6-0.5,1-1.2,1-2.2l0,0c0-0.7-0.2-1.3-0.6-1.7c-0.4-0.4-1-0.8-1.7-1.1
				c-0.8-0.4-1.7-0.8-2.8-1.3l0,0c-1.3-0.6-2.3-1.3-2.9-2c-0.6-0.7-0.9-1.6-0.9-2.8l0,0c0-0.9,0.3-1.8,0.8-2.6
				c0.5-0.8,1.3-1.4,2.2-1.9c0.9-0.5,1.9-0.7,3-0.7l0,0c0.9,0,1.8,0.1,2.5,0.3c0.8,0.2,1.5,0.5,2.2,0.9l0,0l0.3,4.2h-0.5l-1.5-2.8
				c-0.9-0.7-1.9-1.1-2.9-1.1l0,0c-1,0-1.8,0.3-2.4,0.8c-0.6,0.5-0.9,1.2-0.9,2l0,0c0,0.6,0.1,1,0.4,1.4c0.3,0.4,0.7,0.7,1.3,1.1
				c0.6,0.3,1.3,0.7,2.3,1.2l0,0c1.2,0.6,2.2,1.1,2.9,1.6c0.7,0.5,1.3,1,1.6,1.6c0.3,0.6,0.5,1.4,0.5,2.3l0,0c0,1-0.3,1.9-0.8,2.7
				c-0.6,0.8-1.3,1.4-2.3,1.8C50.7,240,49.6,240.3,48.4,240.3z M64.2,240.3L64.2,240.3c-1.2,0-2.1-0.1-3-0.4s-1.7-0.6-2.5-1l0,0
				l-0.3-4.4h0.5l1.7,3c0.6,0.4,1.2,0.8,1.8,0.9c0.6,0.2,1.3,0.3,2,0.3l0,0c1.2,0,2.1-0.2,2.7-0.7c0.6-0.5,1-1.2,1-2.2l0,0
				c0-0.7-0.2-1.3-0.6-1.7c-0.4-0.4-1-0.8-1.7-1.1c-0.8-0.4-1.7-0.8-2.8-1.3l0,0c-1.3-0.6-2.3-1.3-2.9-2s-0.9-1.6-0.9-2.8l0,0
				c0-0.9,0.3-1.8,0.8-2.6c0.5-0.8,1.3-1.4,2.2-1.9c0.9-0.5,1.9-0.7,3-0.7l0,0c0.9,0,1.8,0.1,2.5,0.3s1.5,0.5,2.2,0.9l0,0l0.3,4.2
				h-0.5l-1.5-2.8c-0.9-0.7-1.9-1.1-2.9-1.1l0,0c-1,0-1.8,0.3-2.4,0.8c-0.6,0.5-0.9,1.2-0.9,2l0,0c0,0.6,0.1,1,0.4,1.4
				c0.3,0.4,0.7,0.7,1.3,1.1c0.6,0.3,1.3,0.7,2.3,1.2l0,0c1.2,0.6,2.2,1.1,2.9,1.6c0.7,0.5,1.3,1,1.6,1.6c0.3,0.6,0.5,1.4,0.5,2.3
				l0,0c0,1-0.3,1.9-0.8,2.7c-0.6,0.8-1.3,1.4-2.3,1.8C66.6,240,65.5,240.3,64.2,240.3z M89.4,239.9h-7.2v-0.5l2.6-1.3l0.7-17.5
				l-2.8-1.3v-0.5h6.4l7.2,16.5l7.1-16.5h6.1v0.5l-2.7,1.2l0.5,17.6l2.3,1.3v0.5h-7.9v-0.5l2.4-1.2l-0.3-15.6l-7.6,17.6h-1.5
				l-7.5-17.4l-0.4,15.5l2.7,1.2V239.9z M118.3,239.9h-6v-0.5l1.6-0.9l7.1-16.7h1.7l7,16.6l1.9,0.9v0.5h-7.4v-0.5l2.2-0.9l-2-4.7
				h-6.6l-2,4.8l2.3,0.9V239.9z M121.2,225.8l-2.6,6.4h5.2L121.2,225.8z M140.3,240.3L140.3,240.3c-1.2,0-2.1-0.1-3-0.4
				c-0.8-0.2-1.7-0.6-2.5-1l0,0l-0.3-4.4h0.5l1.7,3c0.6,0.4,1.2,0.8,1.8,0.9c0.6,0.2,1.3,0.3,2,0.3l0,0c1.2,0,2.1-0.2,2.7-0.7
				c0.6-0.5,1-1.2,1-2.2l0,0c0-0.7-0.2-1.3-0.6-1.7c-0.4-0.4-1-0.8-1.7-1.1c-0.8-0.4-1.7-0.8-2.8-1.3l0,0c-1.3-0.6-2.3-1.3-2.9-2
				c-0.6-0.7-0.9-1.6-0.9-2.8l0,0c0-0.9,0.3-1.8,0.8-2.6c0.5-0.8,1.3-1.4,2.2-1.9s1.9-0.7,3-0.7l0,0c0.9,0,1.8,0.1,2.5,0.3
				c0.8,0.2,1.5,0.5,2.2,0.9l0,0l0.3,4.2h-0.5l-1.5-2.8c-0.9-0.7-1.9-1.1-2.9-1.1l0,0c-1,0-1.8,0.3-2.4,0.8c-0.6,0.5-0.9,1.2-0.9,2
				l0,0c0,0.6,0.1,1,0.4,1.4c0.3,0.4,0.7,0.7,1.3,1.1c0.6,0.3,1.3,0.7,2.3,1.2l0,0c1.2,0.6,2.2,1.1,2.9,1.6c0.7,0.5,1.3,1,1.6,1.6
				c0.3,0.6,0.5,1.4,0.5,2.3l0,0c0,1-0.3,1.9-0.8,2.7c-0.6,0.8-1.3,1.4-2.3,1.8C142.6,240,141.5,240.3,140.3,240.3z M162.8,239.9h-9
				v-0.5l2.9-1.1v-14.8h-4.7l-1.7,3.9h-0.5V222h17v5.5h-0.5l-1.7-3.9h-4.7v14.8l2.9,1.1V239.9z M185.1,239.9h-14.9v-0.5l2.3-1.1
				v-14.8l-2.3-1.1V222h14.1v4.6h-0.5l-1.7-3h-6.4v6.2h4.7l1.1-2.2h0.5v6h-0.5l-1.1-2.2h-4.7v6.9h7.1l1.8-3.6h0.5V239.9z
				 M196.7,239.9h-7.6v-0.5l2.3-1.1v-14.8l-2.3-1.1V222h7.7c2,0,3.5,0.4,4.7,1.2c1.1,0.8,1.7,1.9,1.7,3.3l0,0c0,1-0.3,1.9-0.9,2.6
				c-0.6,0.7-1.5,1.3-2.7,1.7l0,0l4.9,7.5l2.1,1v0.5h-5l-5.1-8.2h-2v6.6l2.1,1.1V239.9z M196.1,223.6L196.1,223.6h-1.5v6.6h1.6
				c1.2,0,2.1-0.3,2.7-0.9c0.7-0.6,1-1.4,1-2.4l0,0c0-1.1-0.3-1.9-1-2.5C198.2,223.9,197.3,223.6,196.1,223.6z M224.7,239.9h-8.4
				v-0.5l2.6-1.3v-17.5l-2.6-1.3v-0.5h8.9c2.2,0,4,0.5,5.3,1.4c1.3,0.9,1.9,2.2,1.9,3.8l0,0c0,1.2-0.4,2.3-1.2,3.2
				c-0.8,0.9-1.9,1.6-3.2,2.1l0,0l6,8.9l2.1,1.2v0.5h-5.2l-6.1-9.7h-2.7v7.9l2.4,1.3V239.9z M224.2,220.6L224.2,220.6h-1.9v7.9h2.1
				c1.3,0,2.4-0.4,3.3-1.1c0.9-0.8,1.3-1.7,1.3-2.9l0,0c0-1.2-0.4-2.2-1.3-2.9C226.8,220.9,225.7,220.6,224.2,220.6z M247.4,240.3
				L247.4,240.3c-1.8,0-3.4-0.4-4.8-1.2c-1.4-0.8-2.5-1.9-3.3-3.3c-0.8-1.4-1.2-3-1.2-4.8l0,0c0-1.8,0.4-3.4,1.2-4.8
				c0.8-1.4,1.9-2.5,3.3-3.3c1.4-0.8,3-1.2,4.8-1.2l0,0c1.8,0,3.4,0.4,4.8,1.2s2.5,1.9,3.3,3.3c0.8,1.4,1.2,3,1.2,4.8l0,0
				c0,1.8-0.4,3.4-1.2,4.8c-0.8,1.4-1.9,2.5-3.3,3.3C250.8,239.9,249.2,240.3,247.4,240.3z M247.9,238.7L247.9,238.7
				c1.7,0,3.1-0.6,4.1-1.9c1-1.3,1.5-2.9,1.5-5l0,0c0-1.7-0.3-3.2-0.8-4.4c-0.5-1.3-1.3-2.3-2.3-3c-1-0.7-2.1-1.1-3.4-1.1l0,0
				c-1.7,0-3.1,0.6-4.1,1.9c-1,1.2-1.5,2.9-1.5,4.9l0,0c0,1.7,0.3,3.2,0.8,4.5c0.6,1.3,1.3,2.3,2.3,3
				C245.5,238.3,246.6,238.7,247.9,238.7z M266.4,240.3L266.4,240.3c-1.2,0-2.1-0.1-3-0.4s-1.7-0.6-2.5-1l0,0l-0.3-4.4h0.5l1.7,3
				c0.6,0.4,1.2,0.8,1.8,0.9c0.6,0.2,1.3,0.3,2,0.3l0,0c1.2,0,2.1-0.2,2.7-0.7c0.6-0.5,1-1.2,1-2.2l0,0c0-0.7-0.2-1.3-0.6-1.7
				c-0.4-0.4-1-0.8-1.7-1.1c-0.8-0.4-1.7-0.8-2.8-1.3l0,0c-1.3-0.6-2.3-1.3-2.9-2s-0.9-1.6-0.9-2.8l0,0c0-0.9,0.3-1.8,0.8-2.6
				c0.5-0.8,1.3-1.4,2.2-1.9c0.9-0.5,1.9-0.7,3-0.7l0,0c0.9,0,1.8,0.1,2.5,0.3c0.8,0.2,1.5,0.5,2.2,0.9l0,0l0.3,4.2h-0.5l-1.5-2.8
				c-0.9-0.7-1.9-1.1-2.9-1.1l0,0c-1,0-1.8,0.3-2.4,0.8c-0.6,0.5-0.9,1.2-0.9,2l0,0c0,0.6,0.1,1,0.4,1.4c0.3,0.4,0.7,0.7,1.3,1.1
				c0.6,0.3,1.3,0.7,2.3,1.2l0,0c1.2,0.6,2.2,1.1,2.9,1.6c0.7,0.5,1.3,1,1.6,1.6c0.3,0.6,0.5,1.4,0.5,2.3l0,0c0,1-0.3,1.9-0.8,2.7
				c-0.6,0.8-1.3,1.4-2.3,1.8S267.6,240.3,266.4,240.3z M282.2,240.3L282.2,240.3c-1.2,0-2.1-0.1-3-0.4c-0.8-0.2-1.7-0.6-2.5-1l0,0
				l-0.3-4.4h0.5l1.7,3c0.6,0.4,1.2,0.8,1.8,0.9c0.6,0.2,1.3,0.3,2,0.3l0,0c1.2,0,2.1-0.2,2.7-0.7c0.6-0.5,1-1.2,1-2.2l0,0
				c0-0.7-0.2-1.3-0.6-1.7c-0.4-0.4-1-0.8-1.7-1.1c-0.8-0.4-1.7-0.8-2.8-1.3l0,0c-1.3-0.6-2.3-1.3-2.9-2c-0.6-0.7-0.9-1.6-0.9-2.8
				l0,0c0-0.9,0.3-1.8,0.8-2.6c0.5-0.8,1.3-1.4,2.2-1.9c0.9-0.5,1.9-0.7,3-0.7l0,0c0.9,0,1.8,0.1,2.5,0.3c0.8,0.2,1.5,0.5,2.2,0.9
				l0,0l0.3,4.2h-0.5l-1.5-2.8c-0.9-0.7-1.9-1.1-2.9-1.1l0,0c-1,0-1.8,0.3-2.4,0.8c-0.6,0.5-0.9,1.2-0.9,2l0,0c0,0.6,0.1,1,0.4,1.4
				c0.3,0.4,0.7,0.7,1.3,1.1c0.6,0.3,1.3,0.7,2.3,1.2l0,0c1.2,0.6,2.2,1.1,2.9,1.6c0.7,0.5,1.3,1,1.6,1.6s0.5,1.4,0.5,2.3l0,0
				c0,1-0.3,1.9-0.8,2.7c-0.6,0.8-1.3,1.4-2.3,1.8S283.5,240.3,282.2,240.3z M306.9,240.3L306.9,240.3c-1.3,0-2.5-0.1-3.4-0.4
				c-0.9-0.3-1.9-0.6-2.9-1.1l0,0l-0.3-5.3h0.5l1.7,3.5c0.7,0.6,1.5,1.1,2.2,1.3c0.7,0.3,1.5,0.4,2.2,0.4l0,0c1.2,0,2.2-0.3,2.9-1
				s1.1-1.5,1.1-2.6l0,0c0-0.9-0.2-1.6-0.6-2.1c-0.4-0.5-1-1-1.8-1.4s-1.7-0.9-2.9-1.5l0,0c-1.5-0.7-2.7-1.5-3.5-2.3
				c-0.8-0.8-1.2-1.9-1.2-3.4l0,0c0-0.8,0.2-1.5,0.6-2.2c0.4-0.7,0.9-1.4,1.5-1.9c0.6-0.6,1.4-1,2.1-1.4c0.8-0.3,1.6-0.5,2.5-0.5
				l0,0c1,0,1.9,0.1,2.8,0.4s1.7,0.6,2.6,1l0,0l0.3,5.1h-0.5l-1.7-3.4c-0.7-0.5-1.3-0.9-1.9-1.2c-0.6-0.2-1.2-0.4-1.9-0.4l0,0
				c-0.9,0-1.7,0.3-2.3,0.9c-0.6,0.6-0.9,1.4-0.9,2.3l0,0c0,1,0.3,1.9,1,2.5s1.7,1.2,3.2,1.9l0,0c1.3,0.6,2.3,1.2,3.2,1.8
				s1.5,1.2,1.9,1.9c0.4,0.7,0.6,1.6,0.6,2.7l0,0c0,1-0.2,1.9-0.6,2.7c-0.4,0.8-1,1.4-1.7,1.9c-0.7,0.5-1.5,0.9-2.3,1.2
				C308.6,240.1,307.8,240.3,306.9,240.3z M330.1,239.9h-9v-0.5l2.9-1.1v-14.8h-4.7l-1.7,3.9h-0.5V222h17v5.5h-0.5l-1.7-3.9h-4.7
				v14.8l2.9,1.1V239.9z M352.3,239.9h-14.9v-0.5l2.3-1.1v-14.8l-2.3-1.1V222h14.1v4.6H351l-1.7-3h-6.4v6.2h4.7l1.1-2.2h0.5v6h-0.5
				l-1.1-2.2h-4.7v6.9h7.1l1.8-3.6h0.5V239.9z M365.7,240.1h-1.4l-7-16.7l-1.9-0.9V222h7.6v0.5l-2.2,0.9l5,12.1h0.2l4.9-12.1
				l-2.3-0.9V222h5.9v0.5l-1.6,0.9L365.7,240.1z M392.3,239.9h-14.9v-0.5l2.3-1.1v-14.8l-2.3-1.1V222h14.1v4.6h-0.5l-1.7-3h-6.4v6.2
				h4.7l1.1-2.2h0.5v6h-0.5l-1.1-2.2h-4.7v6.9h7.1l1.8-3.6h0.5V239.9z M403.1,239.9h-6.9v-0.5l2.3-1.1v-14.8l-2.3-1V222h4.8
				l10.8,12.8v-11.3l-2.8-1V222h6.9v0.5l-2.3,1v16.5h-1.5l-11.8-13.9v12.1l2.8,1.2V239.9z M435.9,239.9h-8.4v-0.5l2.6-1.3v-17.5
				l-2.6-1.3v-0.5h8.9c2.2,0,4,0.5,5.3,1.4c1.3,0.9,1.9,2.2,1.9,3.8l0,0c0,1.2-0.4,2.3-1.2,3.2c-0.8,0.9-1.9,1.6-3.2,2.1l0,0l6,8.9
				l2.1,1.2v0.5h-5.2l-6.1-9.7h-2.7v7.9l2.4,1.3V239.9z M435.4,220.6L435.4,220.6h-1.9v7.9h2.1c1.3,0,2.4-0.4,3.3-1.1
				c0.9-0.8,1.3-1.7,1.3-2.9l0,0c0-1.2-0.4-2.2-1.3-2.9C438,220.9,436.9,220.6,435.4,220.6z M458.6,240.3L458.6,240.3
				c-1.8,0-3.4-0.4-4.8-1.2c-1.4-0.8-2.5-1.9-3.3-3.3c-0.8-1.4-1.2-3-1.2-4.8l0,0c0-1.8,0.4-3.4,1.2-4.8c0.8-1.4,1.9-2.5,3.3-3.3
				c1.4-0.8,3-1.2,4.8-1.2l0,0c1.8,0,3.4,0.4,4.8,1.2c1.4,0.8,2.5,1.9,3.3,3.3c0.8,1.4,1.2,3,1.2,4.8l0,0c0,1.8-0.4,3.4-1.2,4.8
				c-0.8,1.4-1.9,2.5-3.3,3.3C462,239.9,460.4,240.3,458.6,240.3z M459.1,238.7L459.1,238.7c1.7,0,3.1-0.6,4.1-1.9
				c1-1.3,1.5-2.9,1.5-5l0,0c0-1.7-0.3-3.2-0.8-4.4c-0.5-1.3-1.3-2.3-2.3-3c-1-0.7-2.1-1.1-3.4-1.1l0,0c-1.7,0-3.1,0.6-4.1,1.9
				s-1.5,2.9-1.5,4.9l0,0c0,1.7,0.3,3.2,0.8,4.5c0.6,1.3,1.3,2.3,2.3,3C456.7,238.3,457.8,238.7,459.1,238.7z M477.6,240.3
				L477.6,240.3c-1.2,0-2.1-0.1-3-0.4c-0.8-0.2-1.7-0.6-2.5-1l0,0l-0.3-4.4h0.5l1.7,3c0.6,0.4,1.2,0.8,1.8,0.9
				c0.6,0.2,1.3,0.3,2,0.3l0,0c1.2,0,2.1-0.2,2.7-0.7c0.6-0.5,1-1.2,1-2.2l0,0c0-0.7-0.2-1.3-0.6-1.7c-0.4-0.4-1-0.8-1.7-1.1
				c-0.8-0.4-1.7-0.8-2.8-1.3l0,0c-1.3-0.6-2.3-1.3-2.9-2c-0.6-0.7-0.9-1.6-0.9-2.8l0,0c0-0.9,0.3-1.8,0.8-2.6
				c0.5-0.8,1.3-1.4,2.2-1.9c0.9-0.5,1.9-0.7,3-0.7l0,0c0.9,0,1.8,0.1,2.5,0.3c0.8,0.2,1.5,0.5,2.2,0.9l0,0l0.3,4.2h-0.5l-1.5-2.8
				c-0.9-0.7-1.9-1.1-2.9-1.1l0,0c-1,0-1.8,0.3-2.4,0.8c-0.6,0.5-0.9,1.2-0.9,2l0,0c0,0.6,0.1,1,0.4,1.4s0.7,0.7,1.3,1.1
				c0.6,0.3,1.3,0.7,2.3,1.2l0,0c1.2,0.6,2.2,1.1,2.9,1.6c0.7,0.5,1.3,1,1.6,1.6s0.5,1.4,0.5,2.3l0,0c0,1-0.3,1.9-0.8,2.7
				c-0.6,0.8-1.3,1.4-2.3,1.8S478.8,240.3,477.6,240.3z M493.4,240.3L493.4,240.3c-1.2,0-2.1-0.1-3-0.4s-1.7-0.6-2.5-1l0,0l-0.3-4.4
				h0.5l1.7,3c0.6,0.4,1.2,0.8,1.8,0.9c0.6,0.2,1.3,0.3,2,0.3l0,0c1.2,0,2.1-0.2,2.7-0.7s1-1.2,1-2.2l0,0c0-0.7-0.2-1.3-0.6-1.7
				c-0.4-0.4-1-0.8-1.7-1.1c-0.8-0.4-1.7-0.8-2.8-1.3l0,0c-1.3-0.6-2.3-1.3-2.9-2s-0.9-1.6-0.9-2.8l0,0c0-0.9,0.3-1.8,0.8-2.6
				c0.5-0.8,1.3-1.4,2.2-1.9c0.9-0.5,1.9-0.7,3-0.7l0,0c0.9,0,1.8,0.1,2.5,0.3c0.8,0.2,1.5,0.5,2.2,0.9l0,0l0.3,4.2h-0.5l-1.5-2.8
				c-0.9-0.7-1.9-1.1-2.9-1.1l0,0c-1,0-1.8,0.3-2.4,0.8c-0.6,0.5-0.9,1.2-0.9,2l0,0c0,0.6,0.1,1,0.4,1.4s0.7,0.7,1.3,1.1
				c0.6,0.3,1.3,0.7,2.3,1.2l0,0c1.2,0.6,2.2,1.1,2.9,1.6c0.7,0.5,1.3,1,1.6,1.6c0.3,0.6,0.5,1.4,0.5,2.3l0,0c0,1-0.3,1.9-0.8,2.7
				c-0.6,0.8-1.3,1.4-2.3,1.8C495.8,240,494.7,240.3,493.4,240.3z M514.4,247.9h-1.6v-32h1.6V247.9z M539.3,239.9h-10.8v-0.5
				l3.8-1.3v-13.4l-3.8-1.3V223h10.8v0.5l-3.8,1.3v13.4l3.8,1.3V239.9z M549.8,244.4L549.8,244.4c-1.4,0-2.7-0.2-3.7-0.7
				c-1-0.4-1.8-1-2.3-1.8l0,0c-0.2-0.2-0.3-0.4-0.3-0.6l0,0c0-0.3,0.2-0.6,0.6-0.9l0,0l1.2-0.9h0.4l0.3,0.6c0.5,0.9,1,1.6,1.7,2.1
				c0.7,0.5,1.5,0.7,2.5,0.7l0,0c1.3,0,2.4-0.4,3.1-1.2s1.1-1.8,1.1-2.9l0,0c0-1.6-0.6-2.9-1.7-3.9c-1.1-1-2.9-1.5-5.2-1.5l0,0
				l-0.4-1.4h0.1c1.6,0,2.9-0.4,4-1.1c1-0.7,1.5-1.7,1.5-2.9l0,0c0-1-0.3-1.7-0.8-2.3c-0.6-0.6-1.4-0.8-2.5-0.8l0,0
				c-1,0-1.9,0.3-2.5,0.8c-0.7,0.5-1.2,1.2-1.6,2.2l0,0l-1.1-0.5c0.7-1.6,1.7-2.8,2.9-3.6c1.2-0.8,2.5-1.2,3.8-1.2l0,0
				c1.6,0,2.9,0.4,3.9,1.2c1,0.8,1.5,1.9,1.5,3.2l0,0c0,1.1-0.4,2-1.2,2.8s-1.8,1.4-3,1.9l0,0c1.9,0.4,3.3,1.2,4.1,2.3
				c0.9,1.1,1.3,2.4,1.3,3.8l0,0c0,1.2-0.3,2.3-1,3.3c-0.7,1-1.6,1.8-2.8,2.4C552.5,244.1,551.2,244.4,549.8,244.4z M577.8,239.9
				h-9.3v-0.5l2.6-1.3v-17.5l-2.6-1.3v-0.5h8.6c1.4,0,2.7,0.2,3.9,0.5c1.1,0.4,2,0.9,2.7,1.6s1,1.6,1,2.6l0,0c0,1.1-0.4,2.1-1.1,3
				c-0.7,0.9-1.8,1.6-3.2,1.9l0,0c1.9,0.3,3.5,0.8,4.6,1.8c1.1,0.9,1.6,2.1,1.6,3.5l0,0c0,1.2-0.4,2.2-1.1,3.2
				c-0.7,0.9-1.8,1.7-3.1,2.2C580.9,239.7,579.5,239.9,577.8,239.9L577.8,239.9z M576.1,220.6L576.1,220.6h-1.7v7.6h1.9
				c1.5,0,2.7-0.3,3.5-1c0.8-0.7,1.2-1.6,1.2-2.7l0,0C581.1,221.9,579.4,220.6,576.1,220.6z M577.3,229.9L577.3,229.9h-2.9v8.3h3.1
				c1.6,0,2.9-0.4,3.9-1.2c0.9-0.8,1.4-1.8,1.4-3l0,0c0-1.4-0.5-2.5-1.4-3.1S579.1,229.9,577.3,229.9z M599.3,240.3L599.3,240.3
				c-1.8,0-3.4-0.4-4.8-1.2c-1.4-0.8-2.5-1.9-3.3-3.3c-0.8-1.4-1.2-3-1.2-4.8l0,0c0-1.8,0.4-3.4,1.2-4.8c0.8-1.4,1.9-2.5,3.3-3.3
				c1.4-0.8,3-1.2,4.8-1.2l0,0c1.8,0,3.4,0.4,4.8,1.2s2.5,1.9,3.3,3.3c0.8,1.4,1.2,3,1.2,4.8l0,0c0,1.8-0.4,3.4-1.2,4.8
				c-0.8,1.4-1.9,2.5-3.3,3.3C602.7,239.9,601.1,240.3,599.3,240.3z M599.8,238.7L599.8,238.7c1.7,0,3.1-0.6,4.1-1.9s1.5-2.9,1.5-5
				l0,0c0-1.7-0.3-3.2-0.8-4.4s-1.3-2.3-2.3-3c-1-0.7-2.1-1.1-3.4-1.1l0,0c-1.7,0-3.1,0.6-4.1,1.9s-1.5,2.9-1.5,4.9l0,0
				c0,1.7,0.3,3.2,0.8,4.5c0.6,1.3,1.3,2.3,2.3,3C597.4,238.3,598.5,238.7,599.8,238.7z M619.4,239.9h-6.9v-0.5l2.3-1.1v-14.8
				l-2.3-1V222h4.8l10.8,12.8v-11.3l-2.8-1V222h6.9v0.5l-2.3,1v16.5h-1.5l-11.8-13.9v12.1l2.8,1.2V239.9z M650.7,239.9h-14.9v-0.5
				l2.3-1.1v-14.8l-2.3-1.1V222h14.1v4.6h-0.5l-1.7-3h-6.4v6.2h4.7l1.1-2.2h0.5v6H647l-1.1-2.2h-4.7v6.9h7.1l1.8-3.6h0.5V239.9z
				 M669.6,239.9h-14v-0.7l9.6-15.6h-7.1l-1.7,3.6h-0.5V222h13.4v0.7l-9.6,15.6h7.7l1.8-3.9h0.5V239.9z"/>
		</g>
	</g>
</g>
</svg>
