<?xml version="1.0" encoding="utf-8"?>
<!-- Generator: Adobe Illustrator 24.2.1, SVG Export Plug-In . SVG Version: 6.00 Build 0)  -->
<svg version="1.1" id="Layer_1" xmlns="http://www.w3.org/2000/svg" xmlns:xlink="http://www.w3.org/1999/xlink" x="0px" y="0px"
	 viewBox="0 0 484.5 263.3" style="enable-background:new 0 0 484.5 263.3;" xml:space="preserve">
<style type="text/css">
	.st0{fill:#E5E5E5;}
	.st1{fill:#E9E41D;}
	.st2{opacity:0.3;fill:#5B5B5B;enable-background:new    ;}
	.st3{opacity:0.6;fill:#5B5B5B;enable-background:new    ;}
	.st4{fill:#5B5B5B;}
</style>
<g>
	<g transform="rotate(0 0 241.0129)">
		<g transform="matrix(1 0 0 1 0 0)">
			<path class="st0" d="M7.1,249.8c0.9,0.4,1.6,0.9,2.2,1.5s0.8,1.4,0.8,2.3l0,0c0,1-0.2,1.9-0.7,2.5c-0.5,0.7-1.1,1.2-1.9,1.5
				c-0.8,0.3-1.7,0.5-2.6,0.5l0,0H0v-15.9h4.1c1.6,0,2.9,0.3,3.8,1c0.9,0.7,1.3,1.7,1.3,3l0,0c0,0.8-0.2,1.6-0.6,2.2
				S7.8,249.5,7.1,249.8L7.1,249.8z M2.1,244.2v4.9h2.4c0.8,0,1.4-0.2,1.9-0.7c0.4-0.5,0.6-1.1,0.6-1.8l0,0c0-0.8-0.2-1.4-0.7-1.8
				c-0.5-0.4-1.2-0.6-2.1-0.6l0,0H2.1z M4.6,256.1c0.9,0,1.7-0.2,2.3-0.6c0.6-0.4,0.9-1,0.9-1.8l0,0c0-0.8-0.3-1.5-1-1.8
				s-1.4-0.6-2.4-0.6l0,0H2.1v4.9H4.6z M21.9,249h1.9v9.1h-2v-1.5c-0.3,0.4-0.8,0.8-1.4,1.2c-0.6,0.4-1.3,0.5-2.1,0.5l0,0
				c-0.9,0-1.6-0.2-2.3-0.6c-0.7-0.4-1.2-0.9-1.6-1.6c-0.4-0.7-0.6-1.6-0.6-2.6l0,0c0-1,0.2-1.9,0.6-2.6c0.4-0.7,1-1.3,1.7-1.7
				c0.7-0.4,1.5-0.6,2.4-0.6l0,0c0.8,0,1.5,0.2,2,0.5c0.6,0.3,1,0.8,1.4,1.3l0,0L21.9,249z M18.8,256.6c0.7,0,1.4-0.2,1.9-0.6
				c0.5-0.4,0.9-1,1-1.7l0,0v-1.8c-0.2-0.6-0.5-1.2-1.1-1.6c-0.6-0.4-1.2-0.6-1.9-0.6l0,0c-0.5,0-1,0.1-1.5,0.4
				c-0.5,0.3-0.8,0.6-1.1,1.1c-0.3,0.5-0.4,1-0.4,1.6l0,0c0,0.6,0.1,1.1,0.4,1.6c0.3,0.5,0.7,0.9,1.1,1.2
				C17.7,256.5,18.2,256.6,18.8,256.6L18.8,256.6z M34.3,248.6c0.9,0,1.6,0.3,2.1,0.8c0.6,0.5,0.8,1.2,0.9,2l0,0v6.7h-2.1v-6
				c0-0.5-0.2-0.9-0.5-1.2c-0.3-0.3-0.7-0.4-1.3-0.5l0,0c-0.8,0-1.5,0.3-2,1c-0.5,0.6-0.8,1.5-0.8,2.5l0,0v4.3h-2V249h1.8l0.1,1.8
				c0.3-0.7,0.8-1.2,1.5-1.6C32.7,248.8,33.5,248.6,34.3,248.6L34.3,248.6z M49.6,241h2v17.1h-2.1v-1.4c-0.4,0.5-1,0.9-1.6,1.2
				c-0.6,0.3-1.3,0.4-2.1,0.4l0,0c-0.9,0-1.6-0.2-2.3-0.6c-0.7-0.4-1.2-1-1.6-1.7c-0.4-0.7-0.6-1.6-0.6-2.6l0,0c0-1,0.2-1.8,0.6-2.6
				c0.4-0.7,1-1.3,1.7-1.7c0.7-0.4,1.5-0.6,2.4-0.6l0,0c0.7,0,1.4,0.1,2,0.4c0.6,0.3,1.1,0.7,1.5,1.2l0,0V241z M46.5,256.5
				c0.8,0,1.5-0.2,2-0.6s0.9-1,1.1-1.7l0,0v-1.7c-0.2-0.7-0.5-1.2-1.1-1.6c-0.6-0.4-1.2-0.6-2-0.6l0,0c-0.6,0-1.1,0.1-1.5,0.4
				s-0.8,0.6-1.1,1.1s-0.4,1-0.4,1.6l0,0c0,0.6,0.1,1.1,0.4,1.6s0.7,0.9,1.1,1.1S45.9,256.5,46.5,256.5L46.5,256.5z M81.1,241.7
				L81.1,241.7l0,16.4H79v-10.3l-5.9,8.3h0l-5.7-8v10h-2.1v-16.4h0l7.8,11.1L81.1,241.7z M93.9,249h1.9v9.1h-2v-1.5
				c-0.3,0.4-0.8,0.8-1.4,1.2c-0.6,0.4-1.3,0.5-2.1,0.5l0,0c-0.9,0-1.6-0.2-2.3-0.6c-0.7-0.4-1.2-0.9-1.6-1.6
				c-0.4-0.7-0.6-1.6-0.6-2.6l0,0c0-1,0.2-1.9,0.6-2.6c0.4-0.7,1-1.3,1.7-1.7c0.7-0.4,1.5-0.6,2.4-0.6l0,0c0.8,0,1.5,0.2,2,0.5
				c0.6,0.3,1,0.8,1.4,1.3l0,0L93.9,249z M90.8,256.6c0.7,0,1.4-0.2,1.9-0.6c0.5-0.4,0.9-1,1-1.7l0,0v-1.8c-0.2-0.6-0.5-1.2-1.1-1.6
				s-1.2-0.6-1.9-0.6l0,0c-0.5,0-1,0.1-1.5,0.4c-0.5,0.3-0.8,0.6-1.1,1.1c-0.3,0.5-0.4,1-0.4,1.6l0,0c0,0.6,0.1,1.1,0.4,1.6
				c0.3,0.5,0.7,0.9,1.1,1.2C89.8,256.5,90.3,256.6,90.8,256.6L90.8,256.6z M106.4,248.6c0.9,0,1.6,0.3,2.1,0.8
				c0.6,0.5,0.8,1.2,0.9,2l0,0v6.7h-2.1v-6c0-0.5-0.2-0.9-0.5-1.2c-0.3-0.3-0.7-0.4-1.3-0.5l0,0c-0.8,0-1.5,0.3-2,1
				c-0.5,0.6-0.8,1.5-0.8,2.5l0,0v4.3h-2V249h1.8l0.1,1.8c0.3-0.7,0.8-1.2,1.5-1.6C104.8,248.8,105.5,248.6,106.4,248.6L106.4,248.6
				z M121.7,249h1.9v9.1h-2v-1.5c-0.3,0.4-0.8,0.8-1.4,1.2c-0.6,0.4-1.3,0.5-2.1,0.5l0,0c-0.9,0-1.6-0.2-2.3-0.6
				c-0.7-0.4-1.2-0.9-1.6-1.6c-0.4-0.7-0.6-1.6-0.6-2.6l0,0c0-1,0.2-1.9,0.6-2.6c0.4-0.7,1-1.3,1.7-1.7c0.7-0.4,1.5-0.6,2.4-0.6l0,0
				c0.8,0,1.5,0.2,2,0.5c0.6,0.3,1,0.8,1.4,1.3l0,0L121.7,249z M118.6,256.6c0.7,0,1.4-0.2,1.9-0.6c0.5-0.4,0.9-1,1-1.7l0,0v-1.8
				c-0.2-0.6-0.5-1.2-1.1-1.6c-0.6-0.4-1.2-0.6-1.9-0.6l0,0c-0.5,0-1,0.1-1.5,0.4c-0.5,0.3-0.8,0.6-1.1,1.1s-0.4,1-0.4,1.6l0,0
				c0,0.6,0.1,1.1,0.4,1.6c0.3,0.5,0.7,0.9,1.1,1.2C117.5,256.5,118,256.6,118.6,256.6L118.6,256.6z M136.2,249h1.9v9.2
				c0,0.8-0.2,1.6-0.6,2.3c-0.4,0.7-1,1.2-1.8,1.6s-1.7,0.6-2.8,0.6l0,0c-0.9,0-1.7-0.2-2.4-0.5s-1.3-0.8-2-1.4l0,0l1.2-1.4
				c0.5,0.5,1,0.8,1.5,1.1c0.5,0.2,1,0.4,1.6,0.4l0,0c1,0,1.8-0.2,2.3-0.7c0.5-0.5,0.8-1.1,0.8-2l0,0l0-1.7c-0.3,0.6-0.8,1-1.5,1.4
				c-0.7,0.3-1.4,0.5-2.3,0.5l0,0c-0.8,0-1.6-0.2-2.3-0.6c-0.7-0.4-1.3-1-1.7-1.7c-0.4-0.7-0.6-1.5-0.6-2.4l0,0
				c0-0.9,0.2-1.8,0.6-2.5c0.4-0.7,1-1.3,1.7-1.8c0.7-0.4,1.5-0.6,2.4-0.6l0,0c0.8,0,1.5,0.2,2.2,0.5s1.2,0.7,1.5,1.2l0,0L136.2,249
				z M132.9,256.6c0.8,0,1.5-0.2,2-0.6c0.6-0.4,0.9-1,1.1-1.7l0,0v-1.8c-0.2-0.7-0.6-1.2-1.2-1.6c-0.6-0.4-1.2-0.6-2-0.6l0,0
				c-0.9,0-1.6,0.3-2.2,0.9c-0.6,0.6-0.9,1.3-0.9,2.2l0,0c0,0.6,0.1,1.1,0.4,1.6s0.7,0.9,1.1,1.2
				C131.8,256.5,132.3,256.6,132.9,256.6L132.9,256.6z M147.2,256.5c0.8,0,1.5-0.3,2.2-0.8l0,0l0.9,1.5c-0.5,0.3-1,0.6-1.6,0.8
				c-0.6,0.2-1.1,0.3-1.6,0.3l0,0c-1,0-1.9-0.2-2.7-0.6c-0.8-0.4-1.3-1-1.7-1.7c-0.4-0.7-0.6-1.6-0.6-2.5l0,0c0-0.9,0.2-1.7,0.7-2.5
				c0.4-0.7,1.1-1.3,1.8-1.8c0.8-0.4,1.6-0.6,2.6-0.6l0,0c1.2,0,2.2,0.3,3,1c0.8,0.7,1.3,1.7,1.6,2.9l0,0l-7.2,2.5
				c0.3,0.5,0.6,0.8,1.1,1.1C146.1,256.4,146.6,256.5,147.2,256.5L147.2,256.5z M147,250.2c-0.8,0-1.5,0.3-2.1,0.9
				c-0.5,0.6-0.8,1.3-0.8,2.2l0,0c0,0.2,0,0.4,0,0.5l0,0l5.3-2c-0.2-0.5-0.5-0.9-0.9-1.2C148.2,250.4,147.6,250.2,147,250.2
				L147,250.2z M157.7,251.1c0.2-0.5,0.6-0.9,1-1.3c0.4-0.4,0.9-0.7,1.4-0.9c0.5-0.2,0.9-0.3,1.3-0.3l0,0l-0.1,2
				c-0.7,0-1.3,0.1-1.8,0.4c-0.5,0.3-1,0.7-1.3,1.2c-0.3,0.5-0.5,1.1-0.5,1.7l0,0v4.2h-2V249h1.8L157.7,251.1z M174.1,242.2h9.4v2
				h-7.3v5.1h6.4v2h-6.4v6.8h-2.1V242.2z M189.3,251.1c0.2-0.5,0.6-0.9,1-1.3c0.4-0.4,0.9-0.7,1.4-0.9c0.5-0.2,0.9-0.3,1.3-0.3l0,0
				l-0.1,2c-0.7,0-1.3,0.1-1.8,0.4c-0.5,0.3-1,0.7-1.3,1.2c-0.3,0.5-0.5,1.1-0.5,1.7l0,0v4.2h-2V249h1.8L189.3,251.1z M195.8,253.4
				c0-0.9,0.2-1.7,0.6-2.5s1-1.3,1.8-1.8s1.6-0.6,2.6-0.6l0,0c1,0,1.8,0.2,2.6,0.6c0.8,0.4,1.3,1,1.8,1.7c0.4,0.7,0.6,1.6,0.6,2.5
				l0,0c0,0.9-0.2,1.7-0.6,2.5c-0.4,0.7-1,1.3-1.8,1.8c-0.8,0.4-1.6,0.6-2.6,0.6l0,0c-1,0-1.8-0.2-2.6-0.6c-0.8-0.4-1.4-1-1.8-1.7
				S195.8,254.4,195.8,253.4L195.8,253.4z M197.8,253.5c0,0.6,0.1,1.1,0.4,1.6s0.6,0.9,1.1,1.1c0.4,0.3,0.9,0.4,1.5,0.4l0,0
				c0.9,0,1.6-0.3,2.1-0.9c0.6-0.6,0.8-1.4,0.8-2.2l0,0c0-0.9-0.3-1.6-0.8-2.3c-0.6-0.6-1.3-0.9-2.1-0.9l0,0c-0.6,0-1.1,0.1-1.5,0.4
				s-0.8,0.7-1,1.2S197.8,252.9,197.8,253.5L197.8,253.5z M215.5,248.6c0.9,0,1.6,0.3,2.1,0.8c0.6,0.5,0.8,1.2,0.9,2l0,0v6.7h-2.1
				v-6c0-0.5-0.2-0.9-0.5-1.2c-0.3-0.3-0.7-0.4-1.3-0.5l0,0c-0.8,0-1.5,0.3-2,1c-0.5,0.6-0.8,1.5-0.8,2.5l0,0v4.3h-2V249h1.8
				l0.1,1.8c0.3-0.7,0.8-1.2,1.5-1.6C213.9,248.8,214.7,248.6,215.5,248.6L215.5,248.6z M224.2,245h2.1v4h2.5v1.6h-2.5v7.5h-2.1
				v-7.5h-1.7V249h1.7V245z M257.2,241.7L257.2,241.7l0,16.4h-2.1v-10.3l-5.9,8.3h0l-5.7-8v10h-2.1v-16.4h0l7.8,11.1L257.2,241.7z
				 M270,249h1.9v9.1h-2v-1.5c-0.3,0.4-0.8,0.8-1.4,1.2c-0.6,0.4-1.3,0.5-2.1,0.5l0,0c-0.9,0-1.6-0.2-2.3-0.6
				c-0.7-0.4-1.2-0.9-1.6-1.6c-0.4-0.7-0.6-1.6-0.6-2.6l0,0c0-1,0.2-1.9,0.6-2.6s1-1.3,1.7-1.7c0.7-0.4,1.5-0.6,2.4-0.6l0,0
				c0.8,0,1.5,0.2,2,0.5c0.6,0.3,1,0.8,1.4,1.3l0,0L270,249z M266.9,256.6c0.7,0,1.4-0.2,1.9-0.6c0.5-0.4,0.9-1,1-1.7l0,0v-1.8
				c-0.2-0.6-0.5-1.2-1.1-1.6s-1.2-0.6-1.9-0.6l0,0c-0.5,0-1,0.1-1.5,0.4c-0.5,0.3-0.8,0.6-1.1,1.1s-0.4,1-0.4,1.6l0,0
				c0,0.6,0.1,1.1,0.4,1.6c0.3,0.5,0.7,0.9,1.1,1.2C265.9,256.5,266.4,256.6,266.9,256.6L266.9,256.6z M282.5,248.6
				c0.9,0,1.6,0.3,2.1,0.8c0.6,0.5,0.8,1.2,0.9,2l0,0v6.7h-2.1v-6c0-0.5-0.2-0.9-0.5-1.2c-0.3-0.3-0.7-0.4-1.3-0.5l0,0
				c-0.8,0-1.5,0.3-2,1c-0.5,0.6-0.8,1.5-0.8,2.5l0,0v4.3h-2V249h1.8l0.1,1.8c0.3-0.7,0.8-1.2,1.5-1.6
				C280.9,248.8,281.6,248.6,282.5,248.6L282.5,248.6z M298.8,242.5h1.9v20.8h-1.9V242.5z M314.7,242.2h2.1V256h8.1v2.1h-10.2V242.2
				z M333.4,256.5c0.8,0,1.5-0.3,2.2-0.8l0,0l0.9,1.5c-0.5,0.3-1,0.6-1.6,0.8c-0.6,0.2-1.1,0.3-1.6,0.3l0,0c-1,0-1.9-0.2-2.7-0.6
				c-0.8-0.4-1.3-1-1.7-1.7c-0.4-0.7-0.6-1.6-0.6-2.5l0,0c0-0.9,0.2-1.7,0.7-2.5c0.4-0.7,1.1-1.3,1.8-1.8c0.8-0.4,1.6-0.6,2.6-0.6
				l0,0c1.2,0,2.2,0.3,3,1c0.8,0.7,1.3,1.7,1.6,2.9l0,0l-7.2,2.5c0.3,0.5,0.6,0.8,1.1,1.1C332.4,256.4,332.9,256.5,333.4,256.5
				L333.4,256.5z M333.3,250.2c-0.8,0-1.5,0.3-2.1,0.9c-0.5,0.6-0.8,1.3-0.8,2.2l0,0c0,0.2,0,0.4,0,0.5l0,0l5.3-2
				c-0.2-0.5-0.5-0.9-0.9-1.2C334.4,250.4,333.9,250.2,333.3,250.2L333.3,250.2z M352.3,249h2l-4.2,9.7l-2.9-6.3l-2.7,6.3l-4.2-9.7
				h2l2.4,5.5l1.7-4l-0.7-1.6h1.8l2.5,5.7L352.3,249z M357.8,249h2v9.1h-2V249z M357.7,245.7c0-0.3,0.1-0.6,0.4-0.8s0.5-0.3,0.9-0.3
				l0,0c0.3,0,0.6,0.1,0.8,0.3s0.4,0.5,0.4,0.8l0,0c0,0.3-0.1,0.6-0.4,0.8s-0.5,0.3-0.8,0.3l0,0c-0.3,0-0.6-0.1-0.9-0.3
				S357.7,246,357.7,245.7L357.7,245.7z M367.3,258.3c-0.7,0-1.3-0.1-1.9-0.4c-0.6-0.2-1.1-0.6-1.5-1l0,0l0.9-1.2
				c0.4,0.4,0.8,0.6,1.2,0.8s0.8,0.3,1.2,0.3l0,0c0.5,0,0.9-0.1,1.2-0.3s0.5-0.5,0.5-0.9l0,0c0-0.3-0.1-0.6-0.3-0.7
				s-0.4-0.3-0.6-0.4s-0.6-0.2-1.2-0.4l0,0c-1.6-0.5-2.3-1.4-2.3-2.7l0,0c0-0.8,0.3-1.4,0.8-2s1.4-0.8,2.4-0.8l0,0
				c0.6,0,1.2,0.1,1.7,0.2s1,0.4,1.4,0.8l0,0l-0.8,1.3c-0.2-0.2-0.5-0.4-0.9-0.6c-0.4-0.1-0.7-0.2-1-0.2l0,0c-0.4,0-0.8,0.1-1.1,0.3
				s-0.4,0.5-0.4,0.8l0,0c0,0.3,0.1,0.5,0.3,0.7c0.2,0.2,0.4,0.3,0.6,0.4c0.2,0.1,0.6,0.2,1.2,0.4l0,0c0.7,0.2,1.3,0.6,1.7,1
				c0.4,0.4,0.6,0.9,0.6,1.6l0,0c0,0.9-0.3,1.6-0.9,2.2S368.5,258.3,367.3,258.3L367.3,258.3z M375.9,245h2.1v4h2.5v1.6H378v7.5
				h-2.1v-7.5h-1.7V249h1.7V245z M383.5,253.4c0-0.9,0.2-1.7,0.6-2.5s1-1.3,1.8-1.8c0.8-0.4,1.6-0.6,2.6-0.6l0,0
				c1,0,1.8,0.2,2.6,0.6c0.8,0.4,1.3,1,1.8,1.7c0.4,0.7,0.6,1.6,0.6,2.5l0,0c0,0.9-0.2,1.7-0.6,2.5c-0.4,0.7-1,1.3-1.8,1.8
				c-0.8,0.4-1.6,0.6-2.6,0.6l0,0c-1,0-1.8-0.2-2.6-0.6c-0.8-0.4-1.4-1-1.8-1.7S383.5,254.4,383.5,253.4L383.5,253.4z M385.6,253.5
				c0,0.6,0.1,1.1,0.4,1.6s0.6,0.9,1.1,1.1c0.4,0.3,0.9,0.4,1.5,0.4l0,0c0.9,0,1.6-0.3,2.1-0.9c0.6-0.6,0.8-1.4,0.8-2.2l0,0
				c0-0.9-0.3-1.6-0.8-2.3s-1.3-0.9-2.1-0.9l0,0c-0.6,0-1.1,0.1-1.5,0.4c-0.4,0.3-0.8,0.7-1,1.2S385.6,252.9,385.6,253.5
				L385.6,253.5z M403.3,248.6c0.9,0,1.6,0.3,2.1,0.8c0.6,0.5,0.8,1.2,0.9,2l0,0v6.7h-2.1v-6c0-0.5-0.2-0.9-0.5-1.2
				c-0.3-0.3-0.7-0.4-1.3-0.5l0,0c-0.8,0-1.5,0.3-2,1c-0.5,0.6-0.8,1.5-0.8,2.5l0,0v4.3h-2V249h1.8l0.1,1.8c0.3-0.7,0.8-1.2,1.5-1.6
				C401.7,248.8,402.4,248.6,403.3,248.6L403.3,248.6z M413,256.1l-1.3,3.1l-0.6,1.5h-1.7l0.6-1.5c0.7-1.8,1-2.8,1.1-3.1l0,0H413z
				 M425.7,242.2h2.1v15.9h-2.1V242.2z M440.6,241h2v17.1h-2.1v-1.4c-0.4,0.5-1,0.9-1.6,1.2c-0.6,0.3-1.3,0.4-2.1,0.4l0,0
				c-0.9,0-1.6-0.2-2.3-0.6c-0.7-0.4-1.2-1-1.6-1.7c-0.4-0.7-0.6-1.6-0.6-2.6l0,0c0-1,0.2-1.8,0.6-2.6s1-1.3,1.7-1.7
				c0.7-0.4,1.5-0.6,2.4-0.6l0,0c0.7,0,1.4,0.1,2,0.4c0.6,0.3,1.1,0.7,1.5,1.2l0,0V241z M437.5,256.5c0.8,0,1.5-0.2,2-0.6
				c0.5-0.4,0.9-1,1.1-1.7l0,0v-1.7c-0.2-0.7-0.5-1.2-1.1-1.6s-1.2-0.6-2-0.6l0,0c-0.6,0-1.1,0.1-1.5,0.4c-0.5,0.3-0.8,0.6-1.1,1.1
				c-0.3,0.5-0.4,1-0.4,1.6l0,0c0,0.6,0.1,1.1,0.4,1.6c0.3,0.5,0.7,0.9,1.1,1.1C436.5,256.4,437,256.5,437.5,256.5L437.5,256.5z
				 M455,249h1.9v9.1h-2v-1.5c-0.3,0.4-0.8,0.8-1.4,1.2c-0.6,0.4-1.3,0.5-2.1,0.5l0,0c-0.9,0-1.6-0.2-2.3-0.6
				c-0.7-0.4-1.2-0.9-1.6-1.6c-0.4-0.7-0.6-1.6-0.6-2.6l0,0c0-1,0.2-1.9,0.6-2.6s1-1.3,1.7-1.7c0.7-0.4,1.5-0.6,2.4-0.6l0,0
				c0.8,0,1.5,0.2,2,0.5c0.6,0.3,1,0.8,1.4,1.3l0,0L455,249z M451.9,256.6c0.7,0,1.4-0.2,1.9-0.6c0.5-0.4,0.9-1,1-1.7l0,0v-1.8
				c-0.2-0.6-0.5-1.2-1.1-1.6c-0.6-0.4-1.2-0.6-1.9-0.6l0,0c-0.5,0-1,0.1-1.5,0.4c-0.5,0.3-0.8,0.6-1.1,1.1c-0.3,0.5-0.4,1-0.4,1.6
				l0,0c0,0.6,0.1,1.1,0.4,1.6s0.7,0.9,1.1,1.2C450.8,256.5,451.3,256.6,451.9,256.6L451.9,256.6z M467.4,248.6
				c0.9,0,1.6,0.3,2.1,0.8c0.6,0.5,0.8,1.2,0.9,2l0,0v6.7h-2.1v-6c0-0.5-0.2-0.9-0.5-1.2c-0.3-0.3-0.7-0.4-1.3-0.5l0,0
				c-0.5,0-1,0.1-1.4,0.4c-0.4,0.3-0.8,0.7-1,1.2s-0.4,1.1-0.4,1.8l0,0v4.3h-2V241h2v9.6c0.3-0.6,0.8-1.1,1.5-1.5
				C465.9,248.8,466.6,248.6,467.4,248.6L467.4,248.6z M474.5,253.4c0-0.9,0.2-1.7,0.6-2.5s1-1.3,1.8-1.8c0.8-0.4,1.6-0.6,2.6-0.6
				l0,0c1,0,1.8,0.2,2.6,0.6c0.8,0.4,1.3,1,1.8,1.7c0.4,0.7,0.6,1.6,0.6,2.5l0,0c0,0.9-0.2,1.7-0.6,2.5c-0.4,0.7-1,1.3-1.8,1.8
				c-0.8,0.4-1.6,0.6-2.6,0.6l0,0c-1,0-1.8-0.2-2.6-0.6c-0.8-0.4-1.4-1-1.8-1.7S474.5,254.4,474.5,253.4L474.5,253.4z M476.5,253.5
				c0,0.6,0.1,1.1,0.4,1.6c0.3,0.5,0.6,0.9,1.1,1.1c0.4,0.3,0.9,0.4,1.5,0.4l0,0c0.9,0,1.6-0.3,2.1-0.9c0.6-0.6,0.8-1.4,0.8-2.2l0,0
				c0-0.9-0.3-1.6-0.8-2.3c-0.6-0.6-1.3-0.9-2.1-0.9l0,0c-0.6,0-1.1,0.1-1.5,0.4s-0.8,0.7-1,1.2
				C476.7,252.4,476.5,252.9,476.5,253.5L476.5,253.5z"/>
		</g>
	</g>
	<g transform="rotate(0 57.1785 197.0129)">
		<g transform="matrix(1 0 0 1 0 0)">
			<path class="st1" d="M64.5,215.7l-0.3,0.1c-0.3-0.1-0.6-0.1-1-0.2s-0.7-0.1-1-0.1c-0.3,0-0.6-0.1-0.9-0.1c-0.3,0-0.5,0-0.7,0l0,0
				H60v0.3c0,0-0.1,0-0.2,0c-0.1,0-0.2,0-0.4-0.1l0,0h-0.1l-0.1,0.1l-0.5,0.1l-0.6-0.2c0,0-0.1,0.1-0.2,0.1s-0.1,0-0.2,0l0,0
				c-0.1,0-0.2-0.1-0.3-0.2c-0.1-0.1-0.1-0.2-0.1-0.3s0-0.2,0-0.4c0-0.1,0-0.2,0-0.2l0,0l-0.1-0.1c0,0,0-0.1,0-0.1l0,0h0h0
				c0,0,0-0.1,0-0.1c0,0,0,0,0-0.1l0,0l0-0.3l-0.1,0.1c0,0-0.1,0-0.1,0l0,0v-0.1c0-0.2,0-0.5,0.1-0.7c0.1-0.2,0.1-0.4,0.1-0.3l0,0
				h0.2c0-0.1-0.1-0.1-0.2-0.1c-0.1,0-0.1,0-0.1-0.2l0,0c0-0.1,0.1-0.2,0.2-0.2c0.2,0,0.3,0,0.3,0l0,0c0,0,0,0,0,0.1l0,0l0.1-0.1
				c0,0,0,0,0-0.1c0,0,0-0.1,0-0.1l0,0v-0.3c-0.1,0-0.2,0.1-0.2,0c0,0-0.1,0-0.3,0.1l0,0v-0.1c0-0.2,0.1-0.2,0.2-0.2l0,0h0.1v-0.2
				c-0.1,0-0.2,0-0.2,0.1c0,0.1-0.1,0.1-0.2,0.1l0,0c0-0.1,0-0.2,0-0.4c0-0.2,0.1-0.3,0.2-0.3l0,0v-0.4c0,0-0.1,0.1-0.1,0.1l0,0
				h-0.1c0-0.1,0.1-0.3,0.1-0.4l0,0v-0.1c0,0-0.1,0.1-0.1,0.3c0,0.1-0.1,0.2-0.1,0.3l0,0v-0.1c0-0.1,0-0.2,0-0.4c0-0.2,0-0.3,0-0.3
				l0,0l0.1-0.2l0.1,0.1l0.2-0.4h0.1c0,0,0-0.1,0-0.1c0,0,0-0.1,0-0.1l0,0v-0.1l-0.1,0.1l-0.2-0.2c0-0.1,0-0.2,0.1-0.3
				c0-0.1,0.1-0.2,0.1-0.3l0,0c0-0.2,0.1-0.5,0.2-0.7s0.1-0.4,0.2-0.6c0.1-0.2,0.1-0.5,0.1-0.8c0-0.3,0.1-0.6,0.1-1l0,0v-0.2h-0.2
				c0,0,0-0.1-0.1-0.1l0,0c0,0,0-0.1,0.1-0.2c0.1-0.1,0.1-0.2,0.1-0.2l0,0c0-0.1,0-0.1,0-0.2l0,0c0-0.1,0-0.1,0-0.2
				c0-0.1,0.1-0.1,0.2-0.3c0.1-0.1,0.2-0.3,0.3-0.5c0.1-0.2,0.2-0.6,0.4-1l0,0H59l0.2-0.5c0-0.1,0.1-0.3,0.2-0.6
				c0.1-0.3,0.2-0.5,0.3-0.6l0,0l0.1,0.1c0,0,0,0,0.1,0c0.1,0,0.2,0,0.2-0.1l0,0c0.2,0.2,0.4,0.3,0.5,0.4c0.2,0.1,0.4,0.2,0.5,0.2
				s0.3,0.1,0.4,0.2c0.1,0.1,0.2,0.2,0.3,0.4l0,0c0,0-0.1,0.2-0.1,0.3c0,0.2-0.1,0.4-0.1,0.6c0,0.2-0.1,0.4-0.1,0.5
				c0,0.1,0,0.2,0,0.1l0,0h0.1c0.1,0,0.1,0,0.2,0s0.2,0,0.2,0l0,0c0.3-0.1,0.6-0.2,0.8-0.3c0.2-0.1,0.4-0.1,0.6-0.2
				c0.2,0,0.3-0.1,0.5-0.2c0.1-0.1,0.3-0.2,0.4-0.3l0,0c0.1,0,0.1,0,0.2,0l0,0c0.1,0,0.1,0,0.2-0.1c0,0,0.1-0.1,0.1-0.1
				c0.1,0,0.1-0.1,0.2-0.1c0.1,0,0.3-0.1,0.5-0.1l0,0c0,0,0.2,0,0.4,0.1c0.3,0.1,0.5,0.3,0.7,0.6l0,0c-0.1,0-0.2,0.2-0.3,0.5
				c-0.1,0.3-0.2,0.6-0.2,1c-0.1,0.4-0.1,0.7-0.2,1.1c0,0.4-0.1,0.7-0.1,0.9l0,0c-0.1,0.4-0.2,0.7-0.3,0.8c-0.1,0.1-0.1,0.2-0.1,0.3
				l0,0c0,0.1,0,0.1,0.1,0.2s0.2,0.1,0.3,0.2c0.1,0.1,0.2,0.1,0.3,0.2c0.1,0.1,0.2,0.1,0.2,0.2l0,0c0.1,0.1,0.1,0.2,0.2,0.3
				c0.1,0.2,0.1,0.2,0.1,0.3l0,0v0.6c0,0.2,0,0.5,0,0.9s0,0.6-0.1,0.9l0,0c-0.1,0-0.1,0.1-0.1,0.3c0,0.2,0,0.3,0,0.4l0,0l-0.1,0.2
				h0.1l-0.3,0.4l0,0.6c0,0.4-0.1,0.8-0.3,1.2c-0.2,0.3-0.3,0.7-0.3,1.1l0,0h-0.2l-0.3,0.2l-0.2,0L64.5,215.7z M60.3,213.8l0.2,0.1
				l0.1,0.1c0.3,0,0.6,0.1,1,0.1s0.6,0.1,0.9,0.1l0,0c0.2,0,0.6,0,1-0.1s0.7-0.1,1-0.3l0,0c0,0,0-0.1,0-0.3c0-0.1,0-0.3,0.1-0.4l0,0
				v0c0-0.1,0-0.2,0.1-0.3c0-0.1,0.1-0.2,0.1-0.3l0,0l0.1,0l-0.1-0.3c0-0.4,0-0.8,0.1-1.2c0.1-0.4,0.1-0.8,0.2-1.2l0,0
				c0-0.1-0.1-0.2-0.3-0.2c-0.2,0-0.3,0-0.4,0l0,0c-0.5,0-1.1,0.1-1.8,0.4s-1.2,0.5-1.7,0.9l0,0l-0.2,0c0,0-0.1,0.1-0.1,0.3
				c0,0.2-0.1,0.2-0.1,0.2l0,0h0l-0.2,0.6c0,0.3,0,0.6-0.1,0.8s-0.1,0.5-0.1,0.8l0,0c0,0.1,0,0.2,0.1,0.2l0,0L60.3,213.8z
				 M64.2,207.5l0.2-1c0,0,0,0,0,0l0,0c0-0.1,0.1-0.3,0.2-0.7c0.1-0.4,0.2-0.7,0.2-1.1l0,0c0-0.1,0-0.2-0.1-0.2l0,0
				c-0.5,0.2-1,0.4-1.5,0.6c-0.5,0.2-0.9,0.4-1.3,0.7l0,0l-0.4,0.3c-0.2,0.3-0.4,0.5-0.5,0.7s-0.1,0.3-0.1,0.5l0,0L61,207
				c0,0.2-0.1,0.4,0,0.5c0,0.1,0,0.2-0.2,0.4l0,0l-0.1,0h0.2v0.2c0,0,0,0.1,0,0.2s0,0.2,0,0.2l0,0c0,0.1,0,0.1,0,0.2
				c0,0,0,0.1,0,0.1l0,0c0,0.1,0,0.2-0.1,0.2l0,0h0.1c0,0,0.1,0,0.1,0s0.1,0,0.2,0l0,0c0,0,0.1,0,0.1,0l0,0c0.3-0.2,0.6-0.3,1-0.4
				s0.7-0.3,1-0.5l0,0l0.1-0.1c0.1,0,0.2-0.1,0.4-0.1C64,207.8,64.1,207.7,64.2,207.5L64.2,207.5z M72.6,214.6L72.6,214.6
				c0.4,0.1,0.5,0.2,0.5,0.2l0,0l0,0.3c0,0.2,0,0.4,0.1,0.6l0,0c0,0.1,0.1,0.1,0.1,0.2l0,0c0,0-0.1,0.1-0.3,0.1c-0.2,0-0.4,0-0.6,0
				c-0.2,0-0.5,0-0.7,0c-0.2,0-0.4,0-0.6,0l0,0h-0.2c-0.4,0-0.8-0.1-1.1-0.2c-0.3-0.1-0.5-0.4-0.7-0.7l0,0l-0.1-0.1l-0.1-0.4
				c0-0.2-0.1-0.3-0.1-0.5s-0.1-0.3-0.1-0.5l0,0c0-0.1,0.1-0.2,0.2-0.3c0.1-0.1,0.2-0.2,0.2-0.2c0.1-0.1,0.1-0.1,0.2-0.2
				c0,0,0-0.1,0-0.1l0,0c0-0.1,0.1-0.2,0.2-0.4c0.1-0.2,0.3-0.3,0.5-0.5c0.2-0.2,0.4-0.3,0.6-0.5c0.2-0.2,0.4-0.3,0.5-0.4l0,0
				l0.2,0.1c0,0,0.1,0,0.3-0.1c0.2-0.1,0.3-0.1,0.4-0.1l0,0l0.4-0.3c0.1,0,0.2-0.1,0.2-0.2l0,0l1.2-0.5c0,0,0.1-0.1,0.1-0.1
				s0.1-0.1,0.1-0.1l0,0l-0.2-1c0,0,0-0.1-0.1-0.1l0,0c0,0,0,0,0,0c0,0,0,0,0,0l0,0h-0.1c-0.1,0-0.3,0-0.5,0.1
				c-0.3,0-0.5,0.1-0.8,0.2c-0.3,0.1-0.5,0.1-0.7,0.2c-0.2,0-0.3,0.1-0.3,0.1l0,0c0,0-0.1,0-0.1,0l0,0c-0.1,0-0.2-0.1-0.4-0.2
				s-0.2-0.2-0.4-0.3l0,0l-0.3-0.1l-0.2-0.1c0,0,0-0.1,0-0.1c0,0,0-0.1-0.1-0.1l0,0l-0.1-0.1c0-0.1,0.2-0.2,0.5-0.3s0.8-0.2,1.3-0.2
				c0.5-0.1,1.1-0.1,1.6-0.1c0.6,0,1.1,0,1.6,0l0,0h0.1c0.3,0,0.5,0,0.7,0.1s0.3,0.2,0.5,0.3c0.1,0.1,0.2,0.3,0.3,0.4
				s0.2,0.3,0.3,0.4l0,0v0.5c0,0.2,0,0.4,0,0.5c0,0.1,0,0.3,0,0.4l0,0c0,0.1,0,0.2,0,0.4c0,0.1-0.1,0.3-0.1,0.5l0,0
				c0,0.1,0,0.2,0.1,0.3c0,0.1,0.1,0.1,0.1,0.2l0,0v0l0,0.2l-0.2,0.3l0.2,0.2l-0.2,0.3c0,0,0,0.1,0,0.2c0,0.1,0,0.1,0,0.2l0,0l0,0
				l-0.1,0.5l0.2,0.1l0,0.2l-0.2,0.1l0.1,0.1l0,0.2c-0.1,0.2-0.2,0.4-0.2,0.8c0,0.3-0.1,0.6-0.1,0.8l0,0c0,0-0.1,0.1-0.2,0.1
				s-0.3,0-0.4,0c-0.2,0-0.3,0-0.4,0s-0.2,0-0.2,0l0,0c-0.2,0-0.3-0.1-0.5-0.2s-0.2-0.2-0.3-0.4s-0.1-0.3-0.2-0.5c0-0.2,0-0.3,0-0.5
				l0,0c0-0.3,0.1-0.6,0.2-0.8c0.1-0.2,0.2-0.5,0.2-0.9l0,0c0-0.2,0-0.3,0-0.5c0-0.2,0-0.3-0.2-0.3l0,0c0,0-0.1,0.1-0.1,0.1
				c-0.1,0.1-0.1,0.1-0.1,0.1l0,0c0,0-0.1,0-0.2,0l0,0c0,0-0.1,0-0.3,0.1c-0.1,0.1-0.3,0.1-0.5,0.2c-0.2,0.1-0.3,0.2-0.4,0.2
				s-0.2,0.1-0.2,0.2l0,0c-0.2,0.1-0.4,0.3-0.7,0.4c-0.2,0.1-0.4,0.2-0.5,0.4l0,0l-0.1,0.5c0,0,0,0.1,0,0.1c0,0.1,0,0.1,0,0.2l0,0
				l0,0l0.1-0.1l0.1,0.2c0.1,0,0.3,0,0.4,0s0.2,0,0.3,0l0,0c0,0,0,0,0,0c0,0,0,0,0,0l0,0c0.1,0,0.2,0.1,0.4,0.2
				C72.3,214.6,72.4,214.7,72.6,214.6L72.6,214.6C72.6,214.7,72.6,214.7,72.6,214.6z M82.1,216.4L82.1,216.4c-0.1,0-0.1,0-0.3,0
				c-0.1,0-0.2,0-0.4,0c-0.1,0-0.3,0-0.4-0.1c-0.1,0-0.2-0.1-0.3-0.1l0,0l-0.7-0.3c0,0-0.1,0-0.2-0.1s-0.3-0.1-0.6-0.2l0,0l-0.4-0.5
				c0-0.2,0.1-0.4,0.3-0.5c0.2-0.2,0.4-0.3,0.5-0.3l0,0c0,0,0.1,0,0.2,0s0.2,0,0.3,0.1c0.1,0,0.2,0.1,0.3,0.1c0.1,0,0.1,0,0.2,0l0,0
				c0.2,0,0.4,0,0.7,0c0.3,0,0.6,0,0.9-0.1s0.5-0.1,0.8-0.1s0.3-0.1,0.3-0.2l0,0l0.2-0.8c0-0.2-0.1-0.4-0.2-0.5
				c-0.1-0.1-0.3-0.2-0.5-0.2l0,0c-0.1,0-0.1,0-0.2,0.1l0,0l-0.8-0.2h-0.3c-0.2,0-0.4,0-0.8-0.1c-0.3-0.1-0.7-0.2-1-0.3
				c-0.3-0.1-0.6-0.3-0.9-0.5c-0.3-0.2-0.4-0.5-0.4-0.8l0,0c0-0.2,0-0.3,0.1-0.4c0.1-0.1,0.1-0.2,0.2-0.4l0,0l-0.1-0.1
				c0-0.1,0-0.2,0.1-0.3c0.1-0.1,0.1-0.2,0.2-0.4c0.1-0.1,0.1-0.3,0.2-0.4c0.1-0.1,0.1-0.2,0.1-0.3l0,0l1.1-1.2c0,0,0.1-0.1,0.1,0
				c0.1,0,0.1,0,0.1,0l0,0l0.7-0.5h0.2c0,0,0.1,0,0.2-0.1l0,0l0.8-0.2h0.3l0.1,0.1c0.1,0,0.2,0.1,0.3,0.1c0.1,0,0.2,0,0.4,0l0,0h0.5
				c0,0,0.1,0.1,0.2,0.2c0.1,0.1,0.1,0.2,0.2,0.2l0,0c0.2,0.1,0.3,0.2,0.5,0.3c0.1,0.1,0.3,0.2,0.4,0.3s0.2,0.2,0.3,0.3
				c0.1,0.1,0.1,0.3,0.1,0.6l0,0c0,0.1-0.1,0.1-0.2,0.2c-0.1,0-0.2,0.1-0.2,0.1l0,0h-0.5c0,0-0.1,0-0.1,0c-0.1,0-0.2,0-0.2,0.1
				c-0.1,0-0.2,0-0.3,0.1c-0.1,0-0.1,0-0.2,0l0,0h-1.1c0,0.1-0.2,0.2-0.4,0.2s-0.3,0.1-0.4,0.1l0,0c-0.3,0.2-0.5,0.3-0.5,0.5
				c-0.1,0.2-0.1,0.4-0.2,0.7l0,0c0.3,0.2,0.7,0.3,1.1,0.4s0.7,0.1,0.9,0.1l0,0l0.8,0.2c0.5,0.2,0.9,0.4,1.1,0.7
				c0.2,0.3,0.4,0.6,0.4,0.9l0,0l0.1,0.4v0.2c0,0.1,0,0.2,0,0.2c0,0.1,0,0.3-0.1,0.7l0,0l-0.2,0.5l-0.1,0.1
				c-0.2,0.3-0.4,0.5-0.6,0.7c-0.2,0.2-0.4,0.3-0.8,0.4l0,0c0,0,0,0-0.1,0.1c0,0-0.1,0.1-0.2,0.1c-0.1,0-0.3,0.1-0.5,0.1
				C82.9,216.4,82.5,216.4,82.1,216.4z M79,210.5L79,210.5c0,0.2,0.1,0.3,0.2,0.4c0.2,0.1,0.3,0.1,0.5,0.1l0,0l-0.1-0.3v-0.1
				c0-0.1,0-0.2,0-0.2c0,0,0-0.1,0-0.3l0,0c-0.1,0-0.1,0-0.1-0.1l0,0c0,0,0-0.1,0.1-0.2c0-0.1,0.1-0.2,0.1-0.2l0,0v0.2
				c0.1,0,0.1-0.1,0.1-0.2s0-0.2,0-0.2l0,0c0-0.1,0-0.2-0.1-0.2l0,0l-0.1,0.2V209h-0.1c0,0.1-0.1,0.1-0.1,0.2s-0.1,0.2-0.2,0.2l0,0
				c0,0.1-0.1,0.3-0.1,0.4c0,0.1,0,0.3-0.1,0.4l0,0C79.2,210.4,79.1,210.4,79,210.5C79,210.4,79,210.4,79,210.5z M81.3,207.7
				L81.3,207.7c-0.4,0-0.7,0.1-0.9,0.4s-0.4,0.6-0.5,0.9l0,0v0c0.2,0,0.3-0.1,0.3-0.3c0.1-0.2,0.1-0.4,0.2-0.5l0,0
				c0,0,0.1-0.1,0.2-0.1s0.2-0.1,0.3-0.2s0.2-0.1,0.3-0.2C81.2,207.9,81.3,207.8,81.3,207.7L81.3,207.7z M91.1,216.4L91.1,216.4
				c-0.1,0-0.1,0-0.3,0c-0.1,0-0.2,0-0.4,0c-0.1,0-0.3,0-0.4-0.1s-0.2-0.1-0.3-0.1l0,0l-0.7-0.3c0,0-0.1,0-0.2-0.1s-0.3-0.1-0.6-0.2
				l0,0l-0.4-0.5c0-0.2,0.1-0.4,0.3-0.5c0.2-0.2,0.4-0.3,0.5-0.3l0,0c0,0,0.1,0,0.2,0s0.2,0,0.3,0.1s0.2,0.1,0.3,0.1
				c0.1,0,0.1,0,0.2,0l0,0c0.2,0,0.4,0,0.7,0c0.3,0,0.6,0,0.9-0.1s0.5-0.1,0.8-0.1s0.3-0.1,0.3-0.2l0,0l0.2-0.8
				c0-0.2-0.1-0.4-0.2-0.5s-0.3-0.2-0.5-0.2l0,0c-0.1,0-0.1,0-0.2,0.1l0,0l-0.8-0.2h-0.3c-0.2,0-0.4,0-0.8-0.1
				c-0.3-0.1-0.7-0.2-1-0.3c-0.3-0.1-0.6-0.3-0.9-0.5c-0.3-0.2-0.4-0.5-0.4-0.8l0,0c0-0.2,0-0.3,0.1-0.4c0.1-0.1,0.1-0.2,0.2-0.4
				l0,0l-0.1-0.1c0-0.1,0-0.2,0.1-0.3c0.1-0.1,0.1-0.2,0.2-0.4c0.1-0.1,0.1-0.3,0.2-0.4c0.1-0.1,0.1-0.2,0.1-0.3l0,0l1.1-1.2
				c0,0,0.1-0.1,0.1,0c0.1,0,0.1,0,0.1,0l0,0l0.7-0.5h0.2c0,0,0.1,0,0.2-0.1l0,0l0.8-0.2h0.3l0.1,0.1c0.1,0,0.2,0.1,0.3,0.1
				c0.1,0,0.2,0,0.4,0l0,0h0.5c0,0,0.1,0.1,0.2,0.2s0.1,0.2,0.2,0.2l0,0c0.2,0.1,0.3,0.2,0.5,0.3c0.1,0.1,0.3,0.2,0.4,0.3
				c0.1,0.1,0.2,0.2,0.3,0.3c0.1,0.1,0.1,0.3,0.1,0.6l0,0c0,0.1-0.1,0.1-0.2,0.2c-0.1,0-0.2,0.1-0.2,0.1l0,0h-0.5c0,0-0.1,0-0.1,0
				c-0.1,0-0.2,0-0.2,0.1c-0.1,0-0.2,0-0.3,0.1c-0.1,0-0.1,0-0.2,0l0,0h-1.1c0,0.1-0.2,0.2-0.4,0.2c-0.2,0-0.3,0.1-0.4,0.1l0,0
				c-0.3,0.2-0.5,0.3-0.5,0.5c-0.1,0.2-0.1,0.4-0.2,0.7l0,0c0.3,0.2,0.7,0.3,1.1,0.4s0.7,0.1,0.9,0.1l0,0l0.8,0.2
				c0.5,0.2,0.9,0.4,1.1,0.7c0.2,0.3,0.4,0.6,0.4,0.9l0,0l0.1,0.4v0.2c0,0.1,0,0.2,0,0.2c0,0.1,0,0.3-0.1,0.7l0,0l-0.2,0.5l-0.1,0.1
				c-0.2,0.3-0.4,0.5-0.6,0.7s-0.4,0.3-0.8,0.4l0,0c0,0,0,0-0.1,0.1c0,0-0.1,0.1-0.2,0.1c-0.1,0-0.3,0.1-0.5,0.1
				C91.9,216.4,91.5,216.4,91.1,216.4z M88,210.5L88,210.5c0,0.2,0.1,0.3,0.2,0.4c0.2,0.1,0.3,0.1,0.5,0.1l0,0l-0.1-0.3v-0.1
				c0-0.1,0-0.2,0-0.2c0,0,0-0.1,0-0.3l0,0c-0.1,0-0.1,0-0.1-0.1l0,0c0,0,0-0.1,0.1-0.2c0-0.1,0.1-0.2,0.1-0.2l0,0v0.2
				c0.1,0,0.1-0.1,0.1-0.2c0-0.1,0-0.2,0-0.2l0,0c0-0.1,0-0.2-0.1-0.2l0,0l-0.1,0.2V209h-0.1c0,0.1-0.1,0.1-0.1,0.2
				c-0.1,0.1-0.1,0.2-0.2,0.2l0,0c0,0.1-0.1,0.3-0.1,0.4s0,0.3-0.1,0.4l0,0C88.1,210.4,88.1,210.4,88,210.5
				C88,210.4,88,210.4,88,210.5z M90.3,207.7L90.3,207.7c-0.4,0-0.7,0.1-0.9,0.4c-0.2,0.3-0.4,0.6-0.5,0.9l0,0v0
				c0.2,0,0.3-0.1,0.3-0.3c0.1-0.2,0.1-0.4,0.2-0.5l0,0c0,0,0.1-0.1,0.2-0.1s0.2-0.1,0.3-0.2c0.1-0.1,0.2-0.1,0.3-0.2
				S90.2,207.8,90.3,207.7L90.3,207.7z M108,212.4L108,212.4c0,0-0.1-0.1-0.1-0.2c0-0.1-0.1-0.2-0.1-0.4l0,0l-0.3-0.8l-0.1-0.1
				c0-0.1,0-0.2-0.1-0.4c0-0.2-0.1-0.4-0.1-0.5s-0.1-0.3-0.2-0.5c-0.1-0.1-0.1-0.2-0.1-0.3l0,0c0,0-0.1-0.1-0.1-0.4
				c-0.1-0.2-0.1-0.5-0.2-0.7s-0.1-0.5-0.2-0.8c-0.1-0.2-0.1-0.4-0.1-0.4l0,0l-0.1,1c0,0-0.1,0.1-0.1,0.1s0,0.1-0.1,0.1l0,0l0,0.6
				l-0.2,0.5l-0.1,0.2c0,0.1,0,0.1,0,0.3s0,0.2,0,0.3l0,0v0.1v0.1c0,0.1,0,0.2,0,0.3c0,0.1,0,0.2,0,0.3l0,0l-0.2,0.2l-0.1,0.5
				c0,0.1,0,0.2,0,0.2c0,0.1,0,0.1,0,0.2l0,0l-0.1,0.7l-0.2,0l-0.1,0.2l0,0.1L105,213l0.3-0.2l0.1,0.1v0.4l0.1,0.1l-0.2,0.5l0.1,0.2
				l-0.1,0.2l-0.2,0l-0.1,0.3l-0.3,0.3l0.1,0.2h-0.4l-0.1-0.4l-0.1-0.1l-0.2,0.2c0,0,0,0,0,0c0,0,0,0,0,0l0,0c0,0,0,0.1,0,0.2
				c0,0.1,0,0.1,0,0.1l0,0h-0.2l-0.5-0.2l-0.5-0.1c-0.1-0.1-0.1-0.2-0.1-0.4c0-0.2-0.1-0.3-0.1-0.4l0,0l0.1-0.2c0-0.1,0-0.1,0.1-0.2
				c0-0.1,0-0.1,0-0.1l0,0v-0.2c0-0.1,0-0.1,0-0.1l0,0l0.1-0.2v-0.1l0.2-0.2v-0.3c0-0.1,0-0.2,0-0.4c0-0.2,0.1-0.3,0.1-0.4l0,0
				l0.1-0.4v0c0-0.1,0-0.2,0-0.3c0-0.1,0.1-0.2,0.1-0.3l0,0l-0.1-0.4c0-0.1,0-0.1,0.1-0.2l0,0l0.1-0.1l-0.1-0.2v-0.1
				c0,0,0.1-0.1,0.1-0.1c0.1-0.1,0.1-0.2,0.2-0.2c0.1-0.1,0.1-0.2,0.2-0.2c0-0.1,0.1-0.1,0.1-0.2l0,0l0-0.1l-0.2,0
				c0.1-0.5,0.2-0.9,0.3-1.4c0.1-0.4,0.2-0.9,0.2-1.5l0,0l0.3-0.6l0.1-0.3c0-0.1,0-0.2,0.1-0.4c0.1-0.2,0.1-0.4,0.2-0.6
				s0.2-0.4,0.2-0.6s0.2-0.3,0.2-0.4l0,0l0.8-0.1c0.2,0,0.5,0.3,0.8,0.8c0.3,0.5,0.6,1.1,0.9,1.9l0,0l0.1,0c0,0.4,0.1,0.8,0.3,1.2
				l0,0l0.2,0.3l0.1,0.5l0.1,0.2c0,0.1,0.1,0.2,0.1,0.2l0,0c0.1,0.3,0.2,0.7,0.2,0.9c0.1,0.3,0.2,0.6,0.3,0.9l0,0l0-0.1
				c0.1-0.2,0.2-0.3,0.4-0.5c0.2-0.1,0.3-0.3,0.3-0.5l0,0l0.2-0.5l0.1-0.1c0,0,0.1,0,0.1-0.1c0,0,0,0,0-0.1l0,0l0.3-0.5
				c0.2-0.4,0.4-0.8,0.5-1.1c0.1-0.3,0.3-0.5,0.4-0.8c0.1-0.2,0.2-0.5,0.4-0.7c0.1-0.2,0.3-0.5,0.4-0.9l0,0c0,0,0,0,0-0.1l0,0
				c0-0.2,0.1-0.4,0.3-0.6c0.2-0.2,0.4-0.3,0.7-0.3l0,0c0,0,0,0,0.1,0c0,0,0.1,0,0.1,0l0,0c0.1,0,0.2,0,0.2-0.1
				c0-0.1,0.1-0.1,0.1-0.1l0,0l0.1-0.1c0,0,0,0,0-0.1l0,0c0,0,0-0.1,0-0.1l0,0l0.2,0l0.5-0.1c0.2,0.1,0.4,0.2,0.6,0.3
				c0.2,0.1,0.4,0.2,0.4,0.4l0,0l-0.1,0.1l0.1,0.2l-0.1,0.1l-0.1,0.3c0,0,0,0.1,0,0.2c0,0.1,0,0.1,0.1,0.2l0,0l0.1,0.3
				c0,0.1,0,0.2,0.1,0.5c0.1,0.3,0.1,0.4,0.1,0.5l0,0l-0.1,0.9v1.2l0.1,0.6l-0.2,0.3c0,0.1,0,0.2,0,0.3l0,0l0,0.1l-0.1,0.5h0.3v0.2
				l-0.2,0.1l0,0.1l0.2-0.1l-0.1,0.2c0,0,0,0.1,0,0.1l0,0c0,0,0,0.1,0.1,0.1c0,0,0.1,0.1,0.1,0.1l0,0l-0.2,0.5c0,0,0,0.1-0.1,0.3
				l0,0l-0.1,0.2l0.2-0.1l0,0.2l-0.1,0.2l0,0.1h0.2c0,0,0.1,0,0.1,0l0,0l0.1,0.1l-0.2,0.6c0,0-0.1,0.1-0.1,0.2s0,0.2,0,0.3l0,0
				l0.4,0.7c0,0.1-0.1,0.2-0.2,0.2l0,0l-0.1,0.2l0.2,0l0.1,0.2l-0.1,0.3c0,0,0.1,0,0.1,0c0.1,0,0.1,0,0.1,0l0,0v0.1l-0.2,0.2
				l0.2,1.8c0,0-0.1,0.1-0.1,0.2l0,0l-0.1,0.1c0,0-0.1,0-0.2,0.1c-0.1,0.1-0.2,0.1-0.3,0.2c-0.1,0.1-0.2,0.1-0.3,0.2
				c-0.1,0.1-0.1,0.1-0.1,0.1l0,0v0.1l-0.1,0l-1-0.1c-0.1,0.1-0.1,0.1-0.2,0.1s-0.1,0-0.1,0.1l0,0l-0.1-0.1l-0.4-0.2l-0.3-0.5
				l-0.3-1.3l0.3-0.6c-0.1-0.3-0.1-0.6-0.1-1c0-0.4,0-0.7,0-1.1l0,0v-1.2v-0.4l0.1-0.4l-0.1,0c0-0.3,0-0.6,0-0.8s0-0.5,0-0.8l0,0
				c0-0.2,0-0.4,0-0.6s-0.1-0.4-0.1-0.5l0,0l-0.9,1.6c-0.1,0.3-0.2,0.6-0.4,0.7c-0.1,0.1-0.3,0.3-0.4,0.7l0,0
				c-0.1,0.2-0.2,0.4-0.3,0.6s-0.2,0.4-0.4,0.5l0,0l-0.4,0.7c-0.1,0.1-0.2,0.1-0.3,0.2c-0.1,0.1-0.2,0.1-0.3,0.2
				c-0.1,0.1-0.2,0.1-0.3,0.2c-0.1,0.1-0.1,0.1-0.1,0.1l0,0c-0.1,0-0.3-0.1-0.6-0.2C108.2,212.6,108.1,212.5,108,212.4z
				 M104.3,207.3l-0.1,0.2c0,0.1-0.1,0.3-0.1,0.4s-0.1,0.3-0.1,0.4l0,0l0.2-0.1L104.3,207.3z M105.4,211.4v-0.2l-0.1,0.1
				c0,0,0,0.1,0,0.2s0,0.2,0,0.3l0,0v0C105.3,211.7,105.4,211.6,105.4,211.4L105.4,211.4z M115.9,208.5L115.9,208.5
				c0.1,0,0.1,0.1,0.1,0.2l0,0c0,0.1,0,0.1-0.1,0.1l0,0c0,0-0.1-0.1-0.1-0.2l0,0C115.8,208.6,115.9,208.5,115.9,208.5z M105.3,210.8
				l-0.1,0.1l0,0.1L105.3,210.8L105.3,210.8z M116,209L116,209L116,209c0,0.1,0,0.1-0.1,0.1l0,0C115.9,209.2,115.9,209.1,116,209
				L116,209C115.9,209,115.9,209,116,209L116,209C115.9,209,116,209,116,209z M122.1,214.6L122.1,214.6c0.4,0.1,0.5,0.2,0.5,0.2l0,0
				l0,0.3c0,0.2,0,0.4,0.1,0.6l0,0c0,0.1,0.1,0.1,0.1,0.2l0,0c0,0-0.1,0.1-0.3,0.1c-0.2,0-0.4,0-0.6,0c-0.2,0-0.5,0-0.7,0
				c-0.2,0-0.4,0-0.6,0l0,0h-0.2c-0.4,0-0.8-0.1-1.1-0.2s-0.5-0.4-0.7-0.7l0,0l-0.1-0.1l-0.1-0.4c0-0.2-0.1-0.3-0.1-0.5
				s-0.1-0.3-0.1-0.5l0,0c0-0.1,0.1-0.2,0.2-0.3c0.1-0.1,0.2-0.2,0.2-0.2c0.1-0.1,0.1-0.1,0.2-0.2c0,0,0-0.1,0-0.1l0,0
				c0-0.1,0.1-0.2,0.2-0.4c0.1-0.2,0.3-0.3,0.5-0.5c0.2-0.2,0.4-0.3,0.6-0.5c0.2-0.2,0.4-0.3,0.5-0.4l0,0l0.2,0.1c0,0,0.1,0,0.3-0.1
				s0.3-0.1,0.4-0.1l0,0l0.4-0.3c0.1,0,0.2-0.1,0.2-0.2l0,0l1.2-0.5c0,0,0.1-0.1,0.1-0.1s0.1-0.1,0.1-0.1l0,0l-0.2-1
				c0,0,0-0.1-0.1-0.1l0,0c0,0,0,0,0,0c0,0,0,0,0,0l0,0H123c-0.1,0-0.3,0-0.5,0.1c-0.3,0-0.5,0.1-0.8,0.2s-0.5,0.1-0.7,0.2
				c-0.2,0-0.3,0.1-0.3,0.1l0,0c0,0-0.1,0-0.1,0l0,0c-0.1,0-0.2-0.1-0.4-0.2s-0.2-0.2-0.4-0.3l0,0l-0.3-0.1l-0.2-0.1
				c0,0,0-0.1,0-0.1s0-0.1-0.1-0.1l0,0l-0.1-0.1c0-0.1,0.2-0.2,0.5-0.3c0.3-0.1,0.8-0.2,1.3-0.2s1.1-0.1,1.6-0.1s1.1,0,1.6,0l0,0
				h0.1c0.3,0,0.5,0,0.7,0.1s0.3,0.2,0.5,0.3c0.1,0.1,0.2,0.3,0.3,0.4c0.1,0.2,0.2,0.3,0.3,0.4l0,0v0.5c0,0.2,0,0.4,0,0.5
				c0,0.1,0,0.3,0,0.4l0,0c0,0.1,0,0.2,0,0.4c0,0.1-0.1,0.3-0.1,0.5l0,0c0,0.1,0,0.2,0.1,0.3c0,0.1,0.1,0.1,0.1,0.2l0,0v0l0,0.2
				l-0.2,0.3l0.2,0.2l-0.2,0.3c0,0,0,0.1,0,0.2s0,0.1,0,0.2l0,0l0,0l-0.1,0.5l0.2,0.1l0,0.2l-0.2,0.1l0.1,0.1l0,0.2
				c-0.1,0.2-0.2,0.4-0.2,0.8c0,0.3-0.1,0.6-0.1,0.8l0,0c0,0-0.1,0.1-0.2,0.1c-0.1,0-0.3,0-0.4,0c-0.2,0-0.3,0-0.4,0s-0.2,0-0.2,0
				l0,0c-0.2,0-0.3-0.1-0.5-0.2c-0.1-0.1-0.2-0.2-0.3-0.4c-0.1-0.2-0.1-0.3-0.2-0.5c0-0.2,0-0.3,0-0.5l0,0c0-0.3,0.1-0.6,0.2-0.8
				c0.1-0.2,0.2-0.5,0.2-0.9l0,0c0-0.2,0-0.3,0-0.5c0-0.2,0-0.3-0.2-0.3l0,0c0,0-0.1,0.1-0.1,0.1c-0.1,0.1-0.1,0.1-0.1,0.1l0,0
				c0,0-0.1,0-0.2,0l0,0c0,0-0.1,0-0.3,0.1c-0.1,0.1-0.3,0.1-0.5,0.2c-0.2,0.1-0.3,0.2-0.4,0.2s-0.2,0.1-0.2,0.2l0,0
				c-0.2,0.1-0.4,0.3-0.7,0.4c-0.2,0.1-0.4,0.2-0.5,0.4l0,0l-0.1,0.5c0,0,0,0.1,0,0.1s0,0.1,0,0.2l0,0l0,0l0.1-0.1l0.1,0.2
				c0.1,0,0.3,0,0.4,0c0.1,0,0.2,0,0.3,0l0,0c0,0,0,0,0,0c0,0,0,0,0,0l0,0c0.1,0,0.2,0.1,0.4,0.2
				C121.7,214.6,121.8,214.7,122.1,214.6L122.1,214.6C122,214.7,122,214.7,122.1,214.6z M131.5,216.4L131.5,216.4
				c-0.1,0-0.1,0-0.3,0c-0.1,0-0.2,0-0.4,0c-0.1,0-0.3,0-0.4-0.1s-0.2-0.1-0.3-0.1l0,0l-0.7-0.3c0,0-0.1,0-0.2-0.1
				c-0.1-0.1-0.3-0.1-0.6-0.2l0,0l-0.4-0.5c0-0.2,0.1-0.4,0.3-0.5c0.2-0.2,0.4-0.3,0.5-0.3l0,0c0,0,0.1,0,0.2,0s0.2,0,0.3,0.1
				c0.1,0,0.2,0.1,0.3,0.1c0.1,0,0.1,0,0.2,0l0,0c0.2,0,0.4,0,0.7,0c0.3,0,0.6,0,0.9-0.1s0.5-0.1,0.8-0.1c0.2-0.1,0.3-0.1,0.3-0.2
				l0,0l0.2-0.8c0-0.2-0.1-0.4-0.2-0.5s-0.3-0.2-0.5-0.2l0,0c-0.1,0-0.1,0-0.2,0.1l0,0l-0.8-0.2h-0.3c-0.2,0-0.4,0-0.8-0.1
				c-0.3-0.1-0.7-0.2-1-0.3c-0.3-0.1-0.6-0.3-0.9-0.5c-0.3-0.2-0.4-0.5-0.4-0.8l0,0c0-0.2,0-0.3,0.1-0.4c0.1-0.1,0.1-0.2,0.2-0.4
				l0,0l-0.1-0.1c0-0.1,0-0.2,0.1-0.3c0.1-0.1,0.1-0.2,0.2-0.4c0.1-0.1,0.1-0.3,0.2-0.4c0.1-0.1,0.1-0.2,0.1-0.3l0,0l1.1-1.2
				c0,0,0.1-0.1,0.1,0c0.1,0,0.1,0,0.1,0l0,0l0.7-0.5h0.2c0,0,0.1,0,0.2-0.1l0,0l0.8-0.2h0.3l0.1,0.1c0.1,0,0.2,0.1,0.3,0.1
				c0.1,0,0.2,0,0.4,0l0,0h0.5c0,0,0.1,0.1,0.2,0.2s0.1,0.2,0.2,0.2l0,0c0.2,0.1,0.3,0.2,0.5,0.3c0.1,0.1,0.3,0.2,0.4,0.3
				c0.1,0.1,0.2,0.2,0.3,0.3c0.1,0.1,0.1,0.3,0.1,0.6l0,0c0,0.1-0.1,0.1-0.2,0.2c-0.1,0-0.2,0.1-0.2,0.1l0,0H134c0,0-0.1,0-0.1,0
				c-0.1,0-0.2,0-0.2,0.1c-0.1,0-0.2,0-0.3,0.1c-0.1,0-0.1,0-0.2,0l0,0H132c0,0.1-0.2,0.2-0.4,0.2s-0.3,0.1-0.4,0.1l0,0
				c-0.3,0.2-0.5,0.3-0.5,0.5c-0.1,0.2-0.1,0.4-0.2,0.7l0,0c0.3,0.2,0.7,0.3,1.1,0.4s0.7,0.1,0.9,0.1l0,0l0.8,0.2
				c0.5,0.2,0.9,0.4,1.1,0.7c0.2,0.3,0.4,0.6,0.4,0.9l0,0l0.1,0.4v0.2c0,0.1,0,0.2,0,0.2c0,0.1,0,0.3-0.1,0.7l0,0l-0.2,0.5l-0.1,0.1
				c-0.2,0.3-0.4,0.5-0.6,0.7c-0.2,0.2-0.4,0.3-0.8,0.4l0,0c0,0,0,0-0.1,0.1c0,0-0.1,0.1-0.2,0.1c-0.1,0-0.3,0.1-0.5,0.1
				C132.3,216.4,132,216.4,131.5,216.4z M128.4,210.5L128.4,210.5c0,0.2,0.1,0.3,0.2,0.4c0.2,0.1,0.3,0.1,0.5,0.1l0,0l-0.1-0.3v-0.1
				c0-0.1,0-0.2,0-0.2c0,0,0-0.1,0-0.3l0,0c-0.1,0-0.1,0-0.1-0.1l0,0c0,0,0-0.1,0.1-0.2c0-0.1,0.1-0.2,0.1-0.2l0,0v0.2
				c0.1,0,0.1-0.1,0.1-0.2c0-0.1,0-0.2,0-0.2l0,0c0-0.1,0-0.2-0.1-0.2l0,0l-0.1,0.2V209h-0.1c0,0.1-0.1,0.1-0.1,0.2
				c-0.1,0.1-0.1,0.2-0.2,0.2l0,0c0,0.1-0.1,0.3-0.1,0.4s0,0.3-0.1,0.4l0,0C128.6,210.4,128.5,210.4,128.4,210.5
				C128.4,210.4,128.4,210.4,128.4,210.5z M130.7,207.7L130.7,207.7c-0.4,0-0.7,0.1-0.9,0.4c-0.2,0.3-0.4,0.6-0.5,0.9l0,0v0
				c0.2,0,0.3-0.1,0.3-0.3c0.1-0.2,0.1-0.4,0.2-0.5l0,0c0,0,0.1-0.1,0.2-0.1s0.2-0.1,0.3-0.2s0.2-0.1,0.3-0.2
				S130.7,207.8,130.7,207.7L130.7,207.7z M145.7,208.3L145.7,208.3l0,0.2L145.7,208.3l-0.8,0.3c0,0-0.1,0-0.1,0l0,0
				c0,0-0.1,0-0.1-0.1l0,0l-0.2,0c-0.2,0-0.4,0-0.6,0.1c-0.3,0-0.5,0-0.7,0.1c-0.2,0-0.5,0.1-0.6,0.1c-0.2,0.1-0.3,0.1-0.3,0.2l0,0
				v0l0.1,0.1c0,0-0.1,0.1-0.1,0.1s0,0,0,0.1l0,0c0,0,0,0.1,0.1,0.2l0,0c0,0.1,0,0.2-0.1,0.2c-0.1,0-0.1,0.1-0.1,0.2l0,0
				c0,0.1,0.1,0.1,0.2,0.1l0,0c-0.1,0.1-0.2,0.2-0.2,0.4l0,0c0,0.2,0,0.3,0.1,0.3l0,0l0.1,0.3c-0.1,0.1-0.2,0.3-0.2,0.4l0,0
				c0,0.1,0,0.2,0,0.2l0,0c0,0.2,0,0.3,0,0.3s0,0.1,0,0.1c0,0,0,0,0,0c0,0,0,0,0,0.1l0,0l0,0c0,0.2,0,0.4-0.1,0.6s-0.1,0.4-0.2,0.4
				l0,0h-0.1v0.1h0.2c0,0-0.1,0.1-0.1,0.1c0,0-0.1,0.1-0.1,0.1l0,0c0,0,0,0,0,0.1l0,0h0.2l-0.2,1l0.1,0.1c0.1,0,0.3,0.1,0.5,0.1l0,0
				c0.2,0,0.3-0.1,0.5-0.1c0.1-0.1,0.3-0.1,0.5-0.1l0,0h0.1c0.1,0,0.2,0,0.3,0s0.2,0,0.3,0l0,0h1.4c0,0,0.1,0,0.2,0s0.2,0.1,0.3,0.1
				c0.1,0,0.2,0.1,0.2,0.1c0.1,0,0.1,0.1,0.1,0.1l0,0c0,0.1-0.1,0.2-0.2,0.4c-0.1,0.1-0.2,0.2-0.3,0.3l0,0l-1.4,0.4l-1.8,0.2
				c-0.2,0-0.4,0.1-0.7,0.2c-0.3,0.2-0.6,0.2-0.9,0.2l0,0v-0.1l-0.9-0.1c-0.2-0.2-0.4-0.3-0.5-0.3s-0.2-0.1-0.2-0.1s-0.1,0-0.2,0
				c0,0-0.1-0.1-0.2-0.2l0,0c0-0.1,0-0.2,0-0.4c0-0.2,0-0.4,0-0.6s0-0.4,0-0.6s0.1-0.3,0.1-0.3l0,0l0.1,1.3l0.1,0.2
				c0-0.3,0-0.7,0-1.3c0-0.6,0-1.2,0.1-2l0,0l0,0.1c0,0,0,0,0-0.1c0-0.1,0-0.2,0-0.3l0,0c0-0.2,0-0.3,0-0.3l0,0h0l0.1,0.3l0.2-1.7
				h-0.1v-0.3v-0.2c-0.1,0-0.3,0.1-0.4,0.1c-0.2,0-0.3,0.1-0.5,0.2l0,0l-0.6,0l-0.2,0l-0.2,0.1l-0.1-0.1c-0.2,0-0.4-0.1-0.6-0.4
				c-0.2-0.3-0.3-0.6-0.3-0.9l0,0c0-0.1,0.1-0.2,0.4-0.3c0.3-0.1,0.6-0.1,0.9-0.2s0.7-0.1,1.1-0.2c0.4-0.1,0.6-0.1,0.9-0.2l0,0
				c0.1-0.2,0.1-0.4,0.1-0.7s0.1-0.6,0.1-0.9c0-0.3,0-0.5,0-0.6s0-0.2,0-0.1l0,0c0,0,0-0.1,0.1-0.2c0-0.1,0.1-0.3,0.1-0.4
				c0.1-0.2,0.1-0.3,0.1-0.4c0-0.1,0.1-0.2,0.1-0.3l0,0c0,0,0-0.1,0-0.1l0,0c0-0.1,0-0.1,0.1-0.2c0-0.1,0.1-0.2,0.1-0.2l0,0l0.1,0
				c0.1,0,0.4,0,0.6,0.1c0.3,0.1,0.5,0.2,0.8,0.3c0.3,0.1,0.5,0.3,0.7,0.5c0.2,0.2,0.3,0.4,0.3,0.6l0,0c0,0.2-0.1,0.5-0.3,0.8
				s-0.3,0.6-0.3,1l0,0l-0.2,0.7c0.5,0,1.1,0,1.7-0.1c0.6-0.1,1-0.1,1.3-0.1l0,0c0.2,0,0.3,0,0.4,0.1c0.1,0.1,0.2,0.2,0.2,0.4l0,0
				L145.7,208.3z M139.2,212.5l0.1,0.9l-0.2,0c0,0,0-0.2,0-0.4S139.2,212.5,139.2,212.5L139.2,212.5z M140.6,214.3h-0.2l-0.2,0.3
				v0.3L140.6,214.3z M140.6,213.7L140.6,213.7c-0.1,0-0.1,0.1-0.1,0.2l0,0c0,0.1,0,0.2,0.1,0.2l0,0c0.1,0,0.2-0.1,0.2-0.2l0,0
				C140.8,213.8,140.7,213.7,140.6,213.7z M151.1,212.3L151.1,212.3c0.2-0.1,0.2-0.1,0.3-0.2s0.1-0.1,0.2-0.2c0-0.1,0.1-0.1,0.1-0.2
				c0.1-0.1,0.1-0.1,0.2-0.1l0,0c0.3,0,0.5-0.1,0.7-0.3c0.2-0.2,0.4-0.7,0.4-1.5l0,0v-0.6c0-0.1,0-0.2-0.1-0.3
				c-0.1-0.1-0.1-0.1-0.2-0.1l0,0c0,0-0.1,0.1-0.2,0.1s-0.3,0.1-0.4,0.2s-0.3,0.2-0.4,0.3s-0.3,0.2-0.3,0.3l0,0v0.3
				c0,0.3-0.1,0.7-0.2,1.1c-0.1,0.4-0.2,0.8-0.2,1.1l0,0H151.1z M155.5,211.1v0.2l-0.4,0.5l-0.2,0.1c-0.2,0.1-0.4,0.2-0.6,0.3
				c-0.2,0.1-0.4,0.2-0.6,0.3l0,0l-0.1,0.1h-0.2c-0.1,0-0.2,0-0.2,0.1c0,0.1-0.1,0.1-0.2,0.2l0,0c-0.2,0-0.4,0.1-0.4,0.1
				c-0.1,0-0.1,0.1-0.1,0.1l0,0c0,0,0,0.1,0,0.1l0,0c0,0,0,0-0.1,0.1c-0.1,0-0.1,0-0.2,0c-0.1,0-0.2,0-0.2,0c-0.1,0-0.1,0-0.1,0l0,0
				h-0.2c-0.1,0.1-0.2,0.1-0.5,0.1c-0.3,0-0.5,0.1-0.6,0.2l0,0l0.2,0.7c0.1,0,0.2,0.1,0.4,0.1c0.2,0,0.4,0.1,0.5,0.1
				c0.2,0,0.4,0,0.5,0c0.2,0,0.3,0,0.4,0l0,0c0.3,0,0.6,0,0.8,0c0.3,0,0.6,0,0.9,0l0,0c0.3,0,0.6,0,0.8,0.1c0.3,0.1,0.5,0.2,0.8,0.3
				l0,0v0.2c0,0.1,0,0.2,0,0.4c0,0.1,0,0.2-0.1,0.3l0,0l-0.1,0.1c0,0-0.1,0-0.2,0.1c-0.1,0-0.3,0.1-0.5,0.1c-0.2,0-0.4,0.1-0.6,0.1
				c-0.2,0-0.3,0-0.4,0l0,0c-0.4,0-0.8,0-1.2,0c-0.4,0-0.8,0-1.2,0l0,0c-0.3,0-0.6-0.1-1-0.2c-0.4-0.1-0.7-0.2-1-0.4
				c-0.3-0.2-0.6-0.4-0.8-0.7c-0.2-0.3-0.4-0.6-0.4-0.9l0,0l0.1-0.2c0,0,0-0.1,0-0.2s0-0.3,0.1-0.4l0,0v-0.3h0.2l0,0
				c0-0.1,0-0.2,0-0.2l0,0c0,0,0,0,0-0.1c0,0,0-0.1,0-0.1l0,0c0,0,0-0.1,0.1-0.1l0,0l0-0.4c0-0.1,0-0.2,0-0.3c0-0.1,0.1-0.2,0.1-0.4
				l0,0l0.1-0.1c0-0.1,0-0.2-0.1-0.2l0,0c0.1,0,0.1-0.1,0.1-0.2c0-0.1,0.1-0.2,0.1-0.2l0,0c0,0,0,0,0,0c0,0,0,0,0,0l0,0l0.1,0.1
				c0,0,0,0,0,0l0,0h0.1c0.1,0,0.1,0,0.1-0.1l0,0c0-0.1,0-0.2-0.1-0.3c-0.1-0.1-0.1-0.2-0.1-0.3l0,0c0,0,0-0.1,0-0.1l0,0
				c0,0,0-0.1,0-0.1c0,0,0,0,0-0.1l0,0l0.1,0c0.1-0.3,0.3-0.5,0.4-0.7c0.2-0.2,0.3-0.3,0.5-0.5l0,0l0.2-0.1c0.3-0.2,0.6-0.4,0.8-0.6
				c0.3-0.2,0.6-0.3,0.9-0.3l0,0c0.3,0,0.7,0,1.1,0.1c0.4,0.1,0.8,0.1,1.1,0.1l0,0c0.5,0.2,0.8,0.4,0.8,0.4s0.1,0.1,0.2,0.1l0,0
				l0,0.3l0.2,0.2l0.1,0.2l-0.2,0.3l0.2,0.2l-0.2,0.3c0,0-0.1,0.1-0.1,0.2s0,0.1,0,0.2l0,0l0,0l0,0.2l-0.1,0.3l0.2,0.1v0.2
				L155.5,211.1L155.5,211.1z M155.5,210.1L155.5,210.1L155.5,210.1c0.1,0,0.1,0,0.1,0.1l0,0c0,0.1,0,0.1-0.1,0.1l0,0
				C155.5,210.3,155.5,210.3,155.5,210.1L155.5,210.1C155.5,210.1,155.5,210.1,155.5,210.1z M155.6,210.5L155.6,210.5
				c0,0.1,0,0.1-0.1,0.1l0,0c0,0-0.1,0-0.1-0.1l0,0C155.5,210.5,155.5,210.4,155.6,210.5L155.6,210.5
				C155.6,210.4,155.6,210.5,155.6,210.5z M160.5,213.4L160.5,213.4l0,0.2c0,0.1,0,0.3,0.1,0.3l0,0l0.1,0c0,0.1,0,0.2,0,0.3
				c0,0.1-0.1,0.2-0.1,0.2l0,0l-0.2,1.3c-0.1,0-0.2,0-0.3,0l0,0h-0.2c0,0-0.1,0-0.2,0.1l0,0l0-0.2c-0.1,0-0.1,0.1-0.1,0.2l0,0v0.2
				v0.1c0,0-0.1-0.1-0.2-0.1l0,0c0,0-0.1,0,0,0c0,0,0,0,0,0l0,0c-0.1,0-0.2,0-0.4-0.1c-0.2-0.1-0.4-0.1-0.6-0.1l0,0
				c-0.1,0-0.2,0-0.3,0l0,0c0,0,0-0.1,0-0.2c0-0.1,0-0.1,0-0.2l0,0c-0.1-0.1-0.2-0.2-0.2-0.4s-0.1-0.3-0.3-0.3l0,0h-0.1
				c0.1-0.1,0.1-0.2,0.1-0.4c0-0.1,0-0.2,0-0.4l0,0c0,0,0-0.2-0.1-0.4l0,0l0-0.4v-0.2v-0.1c0,0,0.1-0.1,0.1-0.1
				c0.1,0,0.1-0.1,0.2-0.1l0,0c0,0,0-0.1-0.1-0.2c0-0.1-0.1-0.2-0.1-0.2l0,0l0.2-0.2c0,0,0-0.1,0-0.2l0,0c0-0.1,0-0.3,0-0.4
				c0-0.2,0-0.3,0-0.4l0,0c0-0.1,0-0.2,0-0.2l0,0l0.3-3.5c0-0.1,0.1-0.2,0.1-0.3s0.2,0,0.3,0l0,0c0.1,0,0.2,0,0.4,0.1
				c0.2,0.1,0.3,0.1,0.5,0.2c0.2,0.1,0.3,0.1,0.4,0.2c0.1,0.1,0.2,0.1,0.2,0.2l0,0c0,0,0.1,0.1,0.1,0.2c0.1,0.1,0.1,0.2,0.2,0.4
				c0.1,0.1,0.1,0.3,0.2,0.4c0.1,0.1,0.1,0.2,0.2,0.2l0,0l0.1-0.1c0.3-0.2,0.5-0.3,0.6-0.4c0.1-0.1,0.3-0.2,0.6-0.3l0,0
				c0-0.1,0.1-0.2,0.4-0.4s0.6-0.3,0.9-0.5c0.3-0.2,0.6-0.3,0.8-0.4c0.2-0.1,0.3-0.2,0.2-0.2l0,0c0.1,0,0.3,0,0.5,0.1
				c0.2,0.1,0.4,0.2,0.5,0.4l0,0l0.6,0.6l-0.4,0.6l-0.5,0.2l0.1,0.1c-0.1,0.1-0.3,0.2-0.5,0.2c-0.2,0-0.4,0.1-0.5,0.2l0,0
				c0,0,0,0,0,0l0,0l0,0c-0.3,0.1-0.6,0.2-0.9,0.3l0,0c-0.2,0.1-0.5,0.2-0.8,0.3c-0.3,0.1-0.5,0.2-0.6,0.4l0,0l-0.5,0.5
				c0,0-0.1,0-0.2,0.1c-0.1,0.1-0.2,0.2-0.4,0.3c-0.1,0.1-0.3,0.2-0.4,0.4c-0.1,0.1-0.2,0.2-0.2,0.4l0,0v0l0.2,0.1L160.5,213.4z
				 M163.3,208.3L163.3,208.3c-0.3,0.1-0.5,0.2-0.7,0.3l0,0l-0.3,0.2l0,0.1c0.3-0.1,0.5-0.3,0.8-0.4c0.3-0.1,0.5-0.2,0.7-0.2l0,0
				c-0.1,0-0.2,0-0.3,0S163.3,208.2,163.3,208.3z M161.7,208.9L161.7,208.9c0,0-0.1,0.1-0.3,0.2c-0.1,0.1-0.2,0.2-0.3,0.2l0,0
				l-0.2,0.2h0c0-0.1,0.1-0.1,0.2-0.2c0.1-0.1,0.2-0.1,0.3-0.2c0.1-0.1,0.2-0.1,0.3-0.1s0.1-0.1,0.1-0.1l0,0c0,0-0.1-0.1-0.2-0.1
				l0,0C161.7,208.8,161.7,208.8,161.7,208.9C161.7,208.9,161.7,208.9,161.7,208.9z M184.1,220.6L184.1,220.6c0,0-0.1-0.1-0.1-0.2
				c-0.1-0.1-0.1-0.1-0.1-0.2l0,0c0-0.1,0-0.1,0.1-0.1l0,0l0.2,0.3l0.1-0.1c0,0,0-0.1,0-0.1l0,0c0-0.1,0-0.1,0-0.2
				c0-0.1,0.1-0.1,0.1-0.2l0,0l-0.2,0c0,0,0,0,0-0.1s-0.1-0.2-0.2-0.4l0,0l0.2,0.1c0,0,0.1-0.1,0.1-0.2l0,0c0-0.1-0.1-0.2-0.2-0.3
				l0,0c-0.1,0.1-0.1,0.1-0.1,0.2l0,0c0,0.1,0,0.1,0,0.2l0,0h-0.1c0,0-0.1,0-0.2-0.1l0,0c0,0,0,0.1,0,0.2c0,0.1,0,0.1,0,0.2l0,0
				h-0.1c0,0-0.1-0.1-0.1-0.2c0-0.1,0-0.2-0.1-0.3l0,0l0,0c0,0,0.1-0.1,0-0.2c0-0.1,0.1-0.3,0.2-0.4l0,0c0,0.1,0,0.2,0,0.2
				s0,0.1,0,0.1l0,0c0,0,0-0.1,0-0.2l0,0c0-0.1,0-0.3-0.1-0.4s-0.1-0.2-0.1-0.3l0,0c0,0,0,0,0-0.1c0,0,0,0,0-0.1l0,0l-0.2-0.1
				c0-0.1-0.1-0.2-0.1-0.4s0-0.3,0-0.4l0,0c0,0.1,0,0.1-0.1,0.1c-0.1,0-0.1,0,0,0l0,0c-0.1,0-0.1-0.1-0.2-0.1l0,0c0,0-0.1,0-0.1,0.1
				l0,0c0-0.1-0.1-0.2-0.1-0.4s-0.1-0.3-0.2-0.5l0,0c-0.1,0.1-0.1,0.1-0.2,0.1c0,0,0,0,0,0.1l0,0c0,0,0,0,0,0.1c0,0,0,0.1,0,0.1l0,0
				c0,0,0,0,0,0c0,0,0,0,0,0l0,0c-0.1,0-0.1,0-0.1-0.1l0,0l0.1-0.8h0.1c0,0-0.1-0.1-0.1-0.2l0,0c-0.1,0.1-0.2,0.1-0.2,0.2l0,0
				c0,0,0,0,0,0.1l0,0l-0.2,0.1c0,0-0.1-0.2-0.2-0.4s-0.2-0.4-0.2-0.4l0,0l-0.1-0.3c0-0.1-0.1-0.3-0.2-0.4s-0.1-0.3-0.2-0.5l0,0
				v-0.1l-0.1,0c0-0.1,0-0.2-0.1-0.3c0-0.1,0-0.2-0.1-0.3l0,0L181,213l-0.2-0.1l-0.9-2.4c-0.1-0.1-0.1-0.2-0.1-0.2l0,0
				c0,0,0-0.1,0-0.1c0,0,0,0,0-0.1l0,0c0,0,0-0.1-0.1-0.2l0,0l-0.4,0c0,0-0.1,0-0.2,0l0,0c0,0,0,0,0,0l0,0h0c0,0,0,0-0.1,0
				c0,0,0,0-0.1,0l0,0h-0.5c-0.2,0-0.4-0.1-0.5-0.2s-0.2-0.1-0.3-0.2l0,0c-0.1,0.5-0.2,0.8-0.2,0.8l0,0l0.1,0.3l-0.1,0.1
				c0,0,0,0.1,0,0.1c0,0,0,0,0,0.1l0,0l0.1,0.1h0.1l-0.1,0.2v0.2c0,0.3,0,0.5,0,0.6c0,0.1,0,0.2-0.1,0.3s-0.1,0.1-0.1,0.2
				c0,0,0,0.1,0,0.2l0,0l0.1,0c0,0,0,0.1,0,0.1l0,0c0,0,0,0,0,0l0,0c0,0-0.1,0-0.1,0l0,0c0,0,0,0,0-0.1l0,0c0,0,0,0.1,0,0.2l0,0
				l0.1,0.1l-0.1,0.2v1v0.1c0,0,0,0.1,0,0.3c0,0.2,0,0.2,0,0.3l0,0l-0.1,0.1l0.1,0.2v0.4l0.1,0.1v0.2l0,0.1l-0.2,0.2l-0.7,0.2
				l-0.8,0.1l-0.7-0.1c-0.3-0.1-0.5-0.2-0.6-0.4s-0.2-0.4-0.2-0.6l0,0c0-0.1,0-0.2,0-0.3c0-0.2,0-0.3,0-0.5c0-0.2,0-0.3,0.1-0.5
				s0.1-0.2,0.1-0.3l0,0l0.1,1.4l0.2,0.2c0-0.3,0-0.7,0-1.3c0-0.5,0.1-1.2,0.3-2l0,0l0,0.1c-0.1,0-0.1-0.1-0.1-0.4l0,0
				c0-0.3,0-0.4,0.1-0.4l0,0c0,0.1,0.1,0.2,0.1,0.3l0,0l0.4-1.4H175c0-0.1,0-0.2,0.1-0.3s0.1-0.1,0.1-0.1l0,0h-0.1v-0.2
				c0.2-1.2,0.4-2.3,0.7-3.4c0.3-1.1,0.7-2.2,1-3.1l0,0c0.1-0.1,0.1-0.3,0.2-0.6s0.1-0.4,0.2-0.4l0,0l0.2-0.1h0.4c0.2,0,0.3,0,0.5,0
				s0.4,0,0.5,0l0,0h0.1c0.1,0.1,0.2,0.2,0.3,0.4c0.1,0.1,0.1,0.3,0.2,0.5l0,0c0,0,0,0,0,0.1s0,0.2,0,0.3c0,0.1,0,0.2,0,0.3
				c0,0.1,0,0.1,0,0.2l0,0l1.1-0.7c0,0,0.2-0.1,0.4-0.2c0.2-0.1,0.5-0.1,0.8-0.2s0.6-0.1,0.9-0.2c0.3,0,0.5-0.1,0.6-0.1l0,0l0.2,0.2
				h0.1l-0.1-0.1h0.2c0,0,0.1,0,0.2,0.1c0.1,0.1,0.2,0.1,0.2,0.1l0,0c0.2,0.1,0.4,0.1,0.6,0.1c0.2,0,0.4,0.1,0.6,0.2
				c0.2,0.1,0.3,0.2,0.4,0.4c0.1,0.2,0.2,0.5,0.2,0.9l0,0l0.2-0.1l0.1,0.1l-0.1,0.2l0.1,0.2l-0.2,0.3c0,0.1,0,0.1-0.1,0.3
				s-0.1,0.2-0.1,0.2l0,0l0.1,0.1c0,0-0.1,0.2-0.2,0.4l0,0l-0.1,0.4l0.1,0.1v0.2c0,0.1,0,0.1,0,0.2c0,0.1,0,0.1,0,0.2l0,0
				c0,0.1-0.1,0.2-0.2,0.3l0,0v0.1c0,0.2-0.1,0.4-0.3,0.7c-0.2,0.3-0.3,0.5-0.3,0.6l0,0v0.2l-0.2,0.2c0,0-0.1,0.1-0.3,0.1
				c-0.1,0-0.2,0.1-0.3,0.1l0,0l-0.3,0.1c0,0-0.1,0-0.2,0c-0.1,0-0.2,0.1-0.3,0.1c-0.1,0-0.2,0.1-0.4,0.1c-0.1,0-0.2,0-0.2,0l0,0
				c0,0.2,0.1,0.4,0.3,0.5c0.2,0.1,0.3,0.3,0.3,0.5l0,0c0,0.2,0.1,0.4,0.2,0.6c0.1,0.2,0.2,0.4,0.3,0.7c0.1,0.2,0.2,0.4,0.3,0.6
				c0.1,0.2,0.2,0.3,0.2,0.3l0,0v0.1l-0.1,0l-0.2-0.1l0.7,1.3l0.2,0.6l0.2,0.2l0.1,0.1l-0.1,0.1c0,0.1,0.1,0.2,0.2,0.3
				c0.1,0.2,0.2,0.2,0.2,0.3l0,0l0.1,0.1l0.1,0.3c0,0.1,0,0.1,0,0.2l0,0l0,0.3l0.2,0.5c0,0.2,0.1,0.3,0.1,0.3l0,0l0.2,0.7l-0.2,0.1
				l-0.1,0.2l0.2,0.2l0.1-0.1l0.2,0.1l0.1,0.3l0.1-0.1l0.3,0.9v0.1c0,0.1,0,0.1,0,0.2s0,0.2,0,0.3l0,0c0,0,0,0.1-0.1,0.1
				c-0.1,0-0.1,0.1-0.1,0.3l0,0c-0.1-0.1-0.2-0.1-0.3-0.2c0,0-0.1-0.1-0.1-0.1l0,0c-0.1,0-0.2,0-0.3,0.1c-0.1,0.1-0.2,0.2-0.2,0.2
				l0,0c0,0.1,0,0.2,0,0.2l0,0l-0.2,0l0-0.2c0,0-0.1,0-0.1,0c0,0,0,0,0,0l0,0c0,0,0,0,0,0c0,0,0,0,0,0l0,0v0.2c0,0,0,0,0,0l0,0h0
				l-0.1-0.2c0,0.1-0.1,0.1-0.2,0.2c-0.1,0.1-0.2,0.1-0.3,0.1l0,0l-0.1-0.1c-0.1,0-0.2,0.1-0.2,0.2l0,0
				C184.4,220.9,184.3,220.8,184.1,220.6z M178.4,207.5L178.4,207.5c0,0-0.1,0.2-0.2,0.4c-0.1,0.2-0.1,0.4-0.2,0.7l0,0
				c0.3-0.1,0.7-0.2,1-0.2s0.6,0,0.9-0.1l0,0c0.1,0,0.3-0.1,0.6-0.2s0.5-0.2,0.6-0.2l0,0c0.1-0.1,0.3-0.1,0.5-0.2
				c0.2,0,0.3-0.1,0.5-0.1c0.2-0.1,0.3-0.1,0.4-0.3c0.1-0.1,0.2-0.4,0.2-0.7l0,0c0-0.3,0.1-0.5,0.1-0.7c0-0.2,0.1-0.3,0.1-0.5
				c0-0.2,0.1-0.3,0.1-0.5c0-0.2,0-0.4,0-0.7l0,0c-0.2,0-0.3,0-0.4,0.1c-0.1,0.1-0.3,0.1-0.5,0.1l0,0c-0.1,0-0.2,0-0.3,0
				c-0.1,0-0.2,0-0.3,0l0,0l0,0l-0.2,0.1c-0.1,0.1-0.2,0.2-0.4,0.2s-0.4,0.1-0.6,0.2c-0.2,0.1-0.4,0.1-0.5,0.2s-0.2,0.1-0.2,0.2l0,0
				l-0.4,0.1l-0.2,0h-0.2c0,0,0,0.1,0,0.2c0,0.1,0,0.1,0,0.2l0,0l0.1,0.2c0,0,0-0.1,0.1-0.1c0.1,0,0.1,0,0.1,0l0,0
				c0,0.3-0.1,0.6-0.2,0.9C178.6,206.9,178.5,207.2,178.4,207.5z M184.6,218.5l0,0.2c0,0.1,0.1,0.2,0.2,0.2l0,0c0,0,0,0,0-0.1l0,0
				c0-0.1,0-0.3,0-0.5s-0.1-0.4-0.1-0.5s-0.1-0.3-0.2-0.5s-0.2-0.2-0.4-0.2l0,0v0.2c0.1,0.1,0.2,0.1,0.2,0.1c0,0,0.1,0,0.3,0.1l0,0
				l-0.2,0.2v0c0,0,0,0.1,0.1,0.2c0.1,0.1,0.1,0.2,0.1,0.3l0,0c0,0.1,0,0.2-0.1,0.3l0,0C184.4,218.4,184.5,218.4,184.6,218.5
				L184.6,218.5z M182.6,216.9L182.6,216.9c0.1,0.1,0.2,0.2,0.2,0.3c0,0.1,0,0.2,0,0.1l0,0c0,0.1,0,0.2,0,0.2l0,0
				c-0.1-0.2-0.1-0.3-0.2-0.4C182.5,217.1,182.5,217,182.6,216.9L182.6,216.9C182.5,216.9,182.5,216.9,182.6,216.9z M174.2,212.5
				v0.9h-0.1c0,0,0-0.1,0-0.2c0-0.1,0-0.2,0-0.3c0-0.1,0-0.2,0-0.3S174.2,212.5,174.2,212.5L174.2,212.5z M184.4,219.4l-0.1,0.1
				c0.1,0.1,0.1,0.1,0.2,0.1l0,0L184.4,219.4z M183.3,217.4l-0.1-0.1C183.3,217.3,183.4,217.3,183.3,217.4L183.3,217.4L183.3,217.4z
				 M184.5,219l0.1,0c0,0-0.1-0.1-0.1-0.2l0,0L184.5,219z M187.9,212.6l0.1-0.2c0,0,0-0.1,0-0.1c0,0,0-0.1,0.1-0.1l0,0l0.1-0.1
				c0-0.3,0.1-0.6,0.3-1.1s0.4-0.7,0.7-0.9l0,0l0.2-0.1c0,0,0.1-0.1,0.1-0.1c0-0.1,0-0.1,0-0.2l0,0l0.1-0.2c0.2-0.2,0.3-0.5,0.5-0.7
				c0.2-0.2,0.4-0.4,0.6-0.6c0.2-0.2,0.4-0.3,0.5-0.4s0.3-0.2,0.4-0.2l0,0c0,0,0.1,0,0.1,0c0,0,0.1,0.1,0.3,0.1l0,0l0.3,0.4
				c0.1,0,0.2,0.1,0.2,0.2l0,0l0.1,0.2v0.5l0.1,0.1c0,0,0.1,0.1,0.1,0.1c0,0,0.1,0.1,0.1,0.1l0,0l0.4,0.2c0,0.1,0.1,0.2,0.2,0.3
				s0.2,0.2,0.3,0.4l0,0l0.4,0.5c0,0.1,0.1,0.2,0.1,0.3s0.1,0.3,0.1,0.5s0.1,0.4,0.1,0.5c0,0.2,0,0.3,0,0.3l0,0v0.2l-0.3,0.6l0,0.2
				l-0.3,0.3l-0.5,0.4c-0.1,0.1-0.2,0.1-0.4,0.1s-0.3,0.1-0.4,0.2l0,0l-0.2,0.1c-0.1,0.1-0.2,0.1-0.3,0.1l0,0c0,0,0,0,0,0
				c0,0,0,0,0,0l0,0l-0.4,0.1c-0.1,0.1-0.3,0.1-0.5,0.1l0,0c-0.1,0-0.3,0-0.3,0l0,0l-0.7-0.2l-0.7-0.2c-0.3-0.1-0.5-0.2-0.7-0.2
				s-0.3-0.3-0.5-0.6l0,0c0-0.1-0.1-0.2-0.1-0.3c0-0.1-0.1-0.2-0.1-0.2l0,0L187.9,212.6z M190.4,212.7l0,0.7l0.2,0
				c0.2,0,0.4-0.1,0.6-0.1c0.2,0,0.4-0.1,0.5-0.1l0,0l0.3-0.2l0.2-0.3l0.1-0.3l-0.4-1.4l-0.5-0.2l-0.1,0.1c0,0-0.1,0.1-0.2,0.2
				s-0.2,0.3-0.3,0.5c-0.1,0.2-0.2,0.4-0.3,0.6C190.5,212.4,190.5,212.5,190.4,212.7L190.4,212.7z M189.5,210.8l-0.2-0.1
				c-0.1,0.1-0.2,0.3-0.4,0.5c-0.1,0.3-0.2,0.5-0.2,0.7l0,0c0,0.1,0,0.1,0,0.2l0,0l0.1-0.2l0.5-0.9
				C189.4,211,189.4,210.9,189.5,210.8L189.5,210.8z M199.7,216.4L199.7,216.4c-0.1,0-0.1,0-0.3,0c-0.1,0-0.2,0-0.4,0
				c-0.1,0-0.3,0-0.4-0.1c-0.1,0-0.2-0.1-0.3-0.1l0,0l-0.7-0.3c0,0-0.1,0-0.2-0.1c-0.1-0.1-0.3-0.1-0.6-0.2l0,0l-0.4-0.5
				c0-0.2,0.1-0.4,0.3-0.5c0.2-0.2,0.4-0.3,0.5-0.3l0,0c0,0,0.1,0,0.2,0c0.1,0,0.2,0,0.3,0.1s0.2,0.1,0.3,0.1c0.1,0,0.1,0,0.2,0l0,0
				c0.2,0,0.4,0,0.7,0c0.3,0,0.6,0,0.9-0.1s0.5-0.1,0.8-0.1c0.2-0.1,0.3-0.1,0.3-0.2l0,0l0.2-0.8c0-0.2-0.1-0.4-0.2-0.5
				c-0.1-0.1-0.3-0.2-0.5-0.2l0,0c-0.1,0-0.1,0-0.2,0.1l0,0l-0.8-0.2h-0.3c-0.2,0-0.4,0-0.8-0.1c-0.3-0.1-0.7-0.2-1-0.3
				c-0.3-0.1-0.6-0.3-0.9-0.5c-0.3-0.2-0.4-0.5-0.4-0.8l0,0c0-0.2,0-0.3,0.1-0.4c0.1-0.1,0.1-0.2,0.2-0.4l0,0l-0.1-0.1
				c0-0.1,0-0.2,0.1-0.3s0.1-0.2,0.2-0.4c0.1-0.1,0.1-0.3,0.2-0.4c0.1-0.1,0.1-0.2,0.1-0.3l0,0l1.1-1.2c0,0,0.1-0.1,0.1,0
				c0.1,0,0.1,0,0.1,0l0,0l0.7-0.5h0.2c0,0,0.1,0,0.2-0.1l0,0l0.8-0.2h0.3l0.1,0.1c0.1,0,0.2,0.1,0.3,0.1s0.2,0,0.4,0l0,0h0.5
				c0,0,0.1,0.1,0.2,0.2c0.1,0.1,0.1,0.2,0.2,0.2l0,0c0.2,0.1,0.3,0.2,0.5,0.3c0.1,0.1,0.3,0.2,0.4,0.3c0.1,0.1,0.2,0.2,0.3,0.3
				c0.1,0.1,0.1,0.3,0.1,0.6l0,0c0,0.1-0.1,0.1-0.2,0.2c-0.1,0-0.2,0.1-0.2,0.1l0,0h-0.5c0,0-0.1,0-0.1,0c-0.1,0-0.2,0-0.2,0.1
				c-0.1,0-0.2,0-0.3,0.1c-0.1,0-0.1,0-0.2,0l0,0h-1.1c0,0.1-0.2,0.2-0.4,0.2c-0.2,0-0.3,0.1-0.4,0.1l0,0c-0.3,0.2-0.5,0.3-0.5,0.5
				c-0.1,0.2-0.1,0.4-0.2,0.7l0,0c0.3,0.2,0.7,0.3,1.1,0.4c0.4,0.1,0.7,0.1,0.9,0.1l0,0l0.8,0.2c0.5,0.2,0.9,0.4,1.1,0.7
				c0.2,0.3,0.4,0.6,0.4,0.9l0,0l0.1,0.4v0.2c0,0.1,0,0.2,0,0.2c0,0.1,0,0.3-0.1,0.7l0,0l-0.2,0.5l-0.1,0.1
				c-0.2,0.3-0.4,0.5-0.6,0.7c-0.2,0.2-0.4,0.3-0.8,0.4l0,0c0,0,0,0-0.1,0.1c0,0-0.1,0.1-0.2,0.1c-0.1,0-0.3,0.1-0.5,0.1
				C200.5,216.4,200.1,216.4,199.7,216.4z M196.6,210.5L196.6,210.5c0,0.2,0.1,0.3,0.2,0.4c0.2,0.1,0.3,0.1,0.5,0.1l0,0l-0.1-0.3
				v-0.1c0-0.1,0-0.2,0-0.2c0,0,0-0.1,0-0.3l0,0c-0.1,0-0.1,0-0.1-0.1l0,0c0,0,0-0.1,0.1-0.2c0-0.1,0.1-0.2,0.1-0.2l0,0v0.2
				c0.1,0,0.1-0.1,0.1-0.2s0-0.2,0-0.2l0,0c0-0.1,0-0.2-0.1-0.2l0,0l-0.1,0.2V209h-0.1c0,0.1-0.1,0.1-0.1,0.2s-0.1,0.2-0.2,0.2l0,0
				c0,0.1-0.1,0.3-0.1,0.4s0,0.3-0.1,0.4l0,0C196.7,210.4,196.7,210.4,196.6,210.5C196.6,210.4,196.6,210.4,196.6,210.5z
				 M198.9,207.7L198.9,207.7c-0.4,0-0.7,0.1-0.9,0.4s-0.4,0.6-0.5,0.9l0,0v0c0.2,0,0.3-0.1,0.3-0.3c0.1-0.2,0.1-0.4,0.2-0.5l0,0
				c0,0,0.1-0.1,0.2-0.1s0.2-0.1,0.3-0.2s0.2-0.1,0.3-0.2C198.8,207.9,198.8,207.8,198.9,207.7L198.9,207.7z M208.7,216.4
				L208.7,216.4c-0.1,0-0.1,0-0.3,0c-0.1,0-0.2,0-0.4,0c-0.1,0-0.3,0-0.4-0.1c-0.1,0-0.2-0.1-0.3-0.1l0,0l-0.7-0.3
				c0,0-0.1,0-0.2-0.1c-0.1-0.1-0.3-0.1-0.6-0.2l0,0l-0.4-0.5c0-0.2,0.1-0.4,0.3-0.5c0.2-0.2,0.4-0.3,0.5-0.3l0,0c0,0,0.1,0,0.2,0
				c0.1,0,0.2,0,0.3,0.1s0.2,0.1,0.3,0.1c0.1,0,0.1,0,0.2,0l0,0c0.2,0,0.4,0,0.7,0c0.3,0,0.6,0,0.9-0.1s0.5-0.1,0.8-0.1
				c0.2-0.1,0.3-0.1,0.3-0.2l0,0l0.2-0.8c0-0.2-0.1-0.4-0.2-0.5c-0.1-0.1-0.3-0.2-0.5-0.2l0,0c-0.1,0-0.1,0-0.2,0.1l0,0l-0.8-0.2
				h-0.3c-0.2,0-0.4,0-0.8-0.1c-0.3-0.1-0.7-0.2-1-0.3c-0.3-0.1-0.6-0.3-0.9-0.5c-0.3-0.2-0.4-0.5-0.4-0.8l0,0c0-0.2,0-0.3,0.1-0.4
				s0.1-0.2,0.2-0.4l0,0l-0.1-0.1c0-0.1,0-0.2,0.1-0.3c0.1-0.1,0.1-0.2,0.2-0.4c0.1-0.1,0.1-0.3,0.2-0.4c0.1-0.1,0.1-0.2,0.1-0.3
				l0,0l1.1-1.2c0,0,0.1-0.1,0.1,0c0.1,0,0.1,0,0.1,0l0,0l0.7-0.5h0.2c0,0,0.1,0,0.2-0.1l0,0l0.8-0.2h0.3l0.1,0.1
				c0.1,0,0.2,0.1,0.3,0.1s0.2,0,0.4,0l0,0h0.5c0,0,0.1,0.1,0.2,0.2s0.1,0.2,0.2,0.2l0,0c0.2,0.1,0.3,0.2,0.5,0.3
				c0.1,0.1,0.3,0.2,0.4,0.3s0.2,0.2,0.3,0.3c0.1,0.1,0.1,0.3,0.1,0.6l0,0c0,0.1-0.1,0.1-0.2,0.2c-0.1,0-0.2,0.1-0.2,0.1l0,0h-0.5
				c0,0-0.1,0-0.1,0c-0.1,0-0.2,0-0.2,0.1c-0.1,0-0.2,0-0.3,0.1c-0.1,0-0.1,0-0.2,0l0,0h-1.1c0,0.1-0.2,0.2-0.4,0.2
				c-0.2,0-0.3,0.1-0.4,0.1l0,0c-0.3,0.2-0.5,0.3-0.5,0.5c-0.1,0.2-0.1,0.4-0.2,0.7l0,0c0.3,0.2,0.7,0.3,1.1,0.4s0.7,0.1,0.9,0.1
				l0,0l0.8,0.2c0.5,0.2,0.9,0.4,1.1,0.7c0.2,0.3,0.4,0.6,0.4,0.9l0,0l0.1,0.4v0.2c0,0.1,0,0.2,0,0.2c0,0.1,0,0.3-0.1,0.7l0,0
				l-0.2,0.5l-0.1,0.1c-0.2,0.3-0.4,0.5-0.6,0.7c-0.2,0.2-0.4,0.3-0.8,0.4l0,0c0,0,0,0-0.1,0.1c0,0-0.1,0.1-0.2,0.1
				c-0.1,0-0.3,0.1-0.5,0.1C209.4,216.4,209.1,216.4,208.7,216.4z M205.5,210.5L205.5,210.5c0,0.2,0.1,0.3,0.2,0.4s0.3,0.1,0.5,0.1
				l0,0l-0.1-0.3v-0.1c0-0.1,0-0.2,0-0.2c0,0,0-0.1,0-0.3l0,0c-0.1,0-0.1,0-0.1-0.1l0,0c0,0,0-0.1,0.1-0.2c0-0.1,0.1-0.2,0.1-0.2
				l0,0v0.2c0.1,0,0.1-0.1,0.1-0.2c0-0.1,0-0.2,0-0.2l0,0c0-0.1,0-0.2-0.1-0.2l0,0l-0.1,0.2V209h-0.1c0,0.1-0.1,0.1-0.1,0.2
				c-0.1,0.1-0.1,0.2-0.2,0.2l0,0c0,0.1-0.1,0.3-0.1,0.4c0,0.1,0,0.3-0.1,0.4l0,0C205.7,210.4,205.7,210.4,205.5,210.5
				C205.6,210.4,205.5,210.4,205.5,210.5z M207.9,207.7L207.9,207.7c-0.4,0-0.7,0.1-0.9,0.4c-0.2,0.3-0.4,0.6-0.5,0.9l0,0v0
				c0.2,0,0.3-0.1,0.3-0.3c0.1-0.2,0.1-0.4,0.2-0.5l0,0c0,0,0.1-0.1,0.2-0.1s0.2-0.1,0.3-0.2s0.2-0.1,0.3-0.2
				C207.8,207.9,207.8,207.8,207.9,207.7L207.9,207.7z M220.4,214.2L220.4,214.2c0.2-0.1,0.4-0.1,0.7-0.1l0,0c0.6,0,1.1,0,1.6,0.1
				s0.9,0.1,1.3,0.2l0,0l0.2-0.2l0.8-0.1c0,0,0.1,0,0.1,0l0,0c0.1,0,0.1,0,0.2-0.1c0-0.1,0.1-0.1,0.2-0.1l0,0c0.2,0,0.4,0,0.7-0.1
				c0.3-0.1,0.4-0.2,0.5-0.3l0,0c0.1-0.5,0.2-0.9,0.3-1.4c0.1-0.5,0.1-0.9,0.1-1.2l0,0l-0.2-0.4c0-0.1-0.1-0.2-0.2-0.2
				c-0.2-0.1-0.2-0.1-0.3-0.1l0,0l-0.3-0.1c-0.2,0-0.3,0-0.5-0.1s-0.3-0.1-0.4-0.2s-0.3-0.1-0.6-0.2c-0.2-0.1-0.5-0.1-0.9-0.1l0,0
				h-0.3c-0.1,0-0.1,0-0.1-0.1l0,0c-0.2-0.2-0.3-0.3-0.5-0.3c-0.2,0-0.4-0.2-0.5-0.3l0,0c0,0-0.1-0.1-0.2-0.3
				c-0.1-0.2-0.1-0.3-0.2-0.5c-0.1-0.2-0.1-0.4-0.2-0.6c0-0.2-0.1-0.3-0.1-0.4l0,0c0.1,0,0.2-0.1,0.2-0.2l0,0c0,0,0-0.1,0-0.1
				c0,0,0-0.1,0-0.1l0,0c0,0,0-0.1,0.1-0.2l0,0l0.1-0.1c0.1-0.1,0.1-0.2,0.1-0.2c0-0.1,0-0.1,0.1-0.2l0,0v0.3l0.1,0l0.7-2.2l0.9-1
				l0.5-0.3l0.6,0.2c0.1,0,0.3,0,0.5-0.1c0.2-0.1,0.4-0.1,0.5-0.1l0,0c0.3,0,0.6,0.1,1,0.2c0.4,0.1,0.8,0.2,1.1,0.4
				c0.4,0.2,0.7,0.3,1,0.5c0.3,0.2,0.5,0.3,0.6,0.4l0,0c0,0.1-0.1,0.2-0.1,0.2c0,0-0.1,0-0.1,0.1l0,0c0,0.1,0,0.1,0,0.1
				c0,0,0,0.1,0,0.1l0,0c0,0.1-0.1,0.1-0.2,0.2s-0.2,0.1-0.3,0.1l0,0l-1.8-0.2h-0.1c-0.1,0-0.3,0-0.5,0c-0.2,0-0.4,0-0.5,0l0,0
				c-0.3,0-0.6,0.1-0.8,0.2c-0.2,0.2-0.5,0.4-0.6,0.7c-0.2,0.3-0.3,0.6-0.4,0.9c-0.1,0.3-0.1,0.7-0.1,1.1l0,0c0,0.1,0,0.1,0.1,0.2
				s0.2,0.1,0.3,0.1s0.2,0.1,0.3,0.1c0.1,0,0.2,0,0.2,0l0,0l0.1,0c0.1,0.1,0.2,0.2,0.3,0.2s0.1,0.1,0.2,0.1l0,0h0.1l0.4,0l0.5,0.2
				c0,0,0.1,0,0.2,0l0,0h0.3c0.3,0.1,0.6,0.3,0.9,0.4c0.3,0.1,0.6,0.3,0.8,0.6c0.2,0.3,0.4,0.6,0.6,1c0.1,0.4,0.2,0.9,0.2,1.5l0,0
				c0,0.2,0,0.4,0,0.5c0,0.2-0.1,0.4-0.1,0.6l0,0l0,0.1c0,0-0.1,0.1-0.2,0.3c-0.1,0.1-0.2,0.2-0.2,0.2l0,0l-0.1,0.3l-0.2,0.1
				l-1.2,1.6c-0.3,0-0.5,0.1-0.7,0.2c-0.2,0.1-0.5,0.1-0.7,0.1l0,0c0,0-0.1,0-0.2-0.1l0,0c-0.2,0-0.3,0.1-0.5,0.1
				c-0.1,0-0.3,0-0.4,0l0,0c-0.2,0-0.6,0-1.1-0.1c-0.5,0-1-0.1-1.6-0.2c-0.6-0.1-1.1-0.1-1.6-0.2s-0.9-0.1-1.1-0.2l0,0
				c0-0.1,0-0.1,0.1-0.1c0.1,0,0.1-0.1,0.1-0.1l0,0c0,0,0,0,0,0l0,0h0c0,0-0.1,0-0.1-0.1l0,0c0,0,0.1,0,0.2,0c0.1,0,0.1-0.1,0.1-0.1
				l0,0l-0.1-0.2l0.1-0.1c0,0,0-0.1,0.1-0.1c0,0,0,0,0-0.1l0,0c0-0.1,0-0.1-0.1-0.1C220.4,214.4,220.4,214.3,220.4,214.2z
				 M222.5,205.1L222.5,205.1c0,0,0,0.2-0.1,0.4s-0.1,0.3-0.1,0.4l0,0c-0.1,0-0.1,0-0.1-0.1l0,0c0,0,0-0.1,0.1-0.3
				C222.4,205.3,222.4,205.2,222.5,205.1z M222.7,204.3L222.7,204.3C222.7,204.3,222.7,204.4,222.7,204.3L222.7,204.3l0.1,0
				l-0.3,0.5c0,0-0.1,0-0.1-0.1l0,0c0,0,0-0.1,0.1-0.2C222.6,204.4,222.7,204.4,222.7,204.3z M240.9,208.3L240.9,208.3l0,0.2
				L240.9,208.3l-0.8,0.3c0,0-0.1,0-0.1,0l0,0c0,0-0.1,0-0.1-0.1l0,0l-0.2,0c-0.2,0-0.4,0-0.6,0.1c-0.3,0-0.5,0-0.7,0.1
				c-0.2,0-0.5,0.1-0.6,0.1c-0.2,0.1-0.3,0.1-0.3,0.2l0,0v0l0.1,0.1c0,0-0.1,0.1-0.1,0.1c0,0,0,0,0,0.1l0,0c0,0,0,0.1,0.1,0.2l0,0
				c0,0.1,0,0.2-0.1,0.2c-0.1,0-0.1,0.1-0.1,0.2l0,0c0,0.1,0.1,0.1,0.2,0.1l0,0c-0.1,0.1-0.2,0.2-0.2,0.4l0,0c0,0.2,0,0.3,0.1,0.3
				l0,0l0.1,0.3c-0.1,0.1-0.2,0.3-0.2,0.4l0,0c0,0.1,0,0.2,0,0.2l0,0c0,0.2,0,0.3,0,0.3s0,0.1,0,0.1c0,0,0,0,0,0c0,0,0,0,0,0.1l0,0
				l0,0c0,0.2,0,0.4-0.1,0.6c-0.1,0.2-0.1,0.4-0.2,0.4l0,0h-0.1v0.1h0.2c0,0-0.1,0.1-0.1,0.1c0,0-0.1,0.1-0.1,0.1l0,0c0,0,0,0,0,0.1
				l0,0h0.2l-0.2,1l0.1,0.1c0.1,0,0.3,0.1,0.5,0.1l0,0c0.2,0,0.3-0.1,0.5-0.1c0.1-0.1,0.3-0.1,0.5-0.1l0,0h0.1c0.1,0,0.2,0,0.3,0
				c0.1,0,0.2,0,0.3,0l0,0h1.4c0,0,0.1,0,0.2,0s0.2,0.1,0.3,0.1c0.1,0,0.2,0.1,0.2,0.1c0.1,0,0.1,0.1,0.1,0.1l0,0
				c0,0.1-0.1,0.2-0.2,0.4c-0.1,0.1-0.2,0.2-0.3,0.3l0,0l-1.4,0.4l-1.8,0.2c-0.2,0-0.4,0.1-0.7,0.2c-0.3,0.2-0.6,0.2-0.9,0.2l0,0
				v-0.1l-0.9-0.1c-0.2-0.2-0.4-0.3-0.5-0.3c-0.1,0-0.2-0.1-0.2-0.1s-0.1,0-0.2,0s-0.1-0.1-0.2-0.2l0,0c0-0.1,0-0.2,0-0.4
				c0-0.2,0-0.4,0-0.6s0-0.4,0-0.6c0-0.2,0.1-0.3,0.1-0.3l0,0l0.1,1.3l0.1,0.2c0-0.3,0-0.7,0-1.3c0-0.6,0-1.2,0.1-2l0,0l0,0.1
				c0,0,0,0,0-0.1c0-0.1,0-0.2,0-0.3l0,0c0-0.2,0-0.3,0-0.3l0,0h0l0.1,0.3l0.2-1.7H235v-0.3v-0.2c-0.1,0-0.3,0.1-0.4,0.1
				c-0.2,0-0.3,0.1-0.5,0.2l0,0l-0.6,0l-0.2,0l-0.2,0.1l-0.1-0.1c-0.2,0-0.4-0.1-0.6-0.4c-0.2-0.3-0.3-0.6-0.3-0.9l0,0
				c0-0.1,0.1-0.2,0.4-0.3c0.3-0.1,0.6-0.1,0.9-0.2c0.3-0.1,0.7-0.1,1.1-0.2c0.4-0.1,0.6-0.1,0.9-0.2l0,0c0.1-0.2,0.1-0.4,0.1-0.7
				c0-0.3,0.1-0.6,0.1-0.9c0-0.3,0-0.5,0-0.6c0-0.2,0-0.2,0-0.1l0,0c0,0,0-0.1,0.1-0.2c0-0.1,0.1-0.3,0.1-0.4
				c0.1-0.2,0.1-0.3,0.1-0.4c0-0.1,0.1-0.2,0.1-0.3l0,0c0,0,0-0.1,0-0.1l0,0c0-0.1,0-0.1,0.1-0.2c0-0.1,0.1-0.2,0.1-0.2l0,0l0.1,0
				c0.1,0,0.4,0,0.6,0.1c0.3,0.1,0.5,0.2,0.8,0.3c0.3,0.1,0.5,0.3,0.7,0.5c0.2,0.2,0.3,0.4,0.3,0.6l0,0c0,0.2-0.1,0.5-0.3,0.8
				s-0.3,0.6-0.3,1l0,0l-0.2,0.7c0.5,0,1.1,0,1.7-0.1c0.6-0.1,1-0.1,1.3-0.1l0,0c0.2,0,0.3,0,0.4,0.1c0.1,0.1,0.2,0.2,0.2,0.4l0,0
				L240.9,208.3z M234.4,212.5l0.1,0.9l-0.2,0c0,0,0-0.2,0-0.4S234.3,212.5,234.4,212.5L234.4,212.5z M235.8,214.3h-0.2l-0.2,0.3
				v0.3L235.8,214.3z M235.8,213.7L235.8,213.7c-0.1,0-0.1,0.1-0.1,0.2l0,0c0,0.1,0,0.2,0.1,0.2l0,0c0.1,0,0.2-0.1,0.2-0.2l0,0
				C235.9,213.8,235.9,213.7,235.8,213.7z M246.3,212.3L246.3,212.3c0.2-0.1,0.2-0.1,0.3-0.2c0.1-0.1,0.1-0.1,0.2-0.2
				c0-0.1,0.1-0.1,0.1-0.2s0.1-0.1,0.2-0.1l0,0c0.3,0,0.5-0.1,0.7-0.3s0.4-0.7,0.4-1.5l0,0v-0.6c0-0.1,0-0.2-0.1-0.3
				c-0.1-0.1-0.1-0.1-0.2-0.1l0,0c0,0-0.1,0.1-0.2,0.1c-0.1,0.1-0.3,0.1-0.4,0.2s-0.3,0.2-0.4,0.3s-0.3,0.2-0.3,0.3l0,0v0.3
				c0,0.3-0.1,0.7-0.2,1.1s-0.2,0.8-0.2,1.1l0,0H246.3z M250.6,211.1v0.2l-0.4,0.5l-0.2,0.1c-0.2,0.1-0.4,0.2-0.6,0.3
				c-0.2,0.1-0.4,0.2-0.6,0.3l0,0l-0.1,0.1h-0.2c-0.1,0-0.2,0-0.2,0.1c0,0.1-0.1,0.1-0.2,0.2l0,0c-0.2,0-0.4,0.1-0.4,0.1
				c-0.1,0-0.1,0.1-0.1,0.1l0,0c0,0,0,0.1,0,0.1l0,0c0,0,0,0-0.1,0.1c-0.1,0-0.1,0-0.2,0c-0.1,0-0.2,0-0.2,0c-0.1,0-0.1,0-0.1,0l0,0
				h-0.2c-0.1,0.1-0.2,0.1-0.5,0.1c-0.3,0-0.5,0.1-0.6,0.2l0,0l0.2,0.7c0.1,0,0.2,0.1,0.4,0.1c0.2,0,0.4,0.1,0.5,0.1
				c0.2,0,0.4,0,0.5,0c0.2,0,0.3,0,0.4,0l0,0c0.3,0,0.6,0,0.8,0s0.6,0,0.9,0l0,0c0.3,0,0.6,0,0.8,0.1c0.3,0.1,0.5,0.2,0.8,0.3l0,0
				v0.2c0,0.1,0,0.2,0,0.4c0,0.1,0,0.2-0.1,0.3l0,0l-0.1,0.1c0,0-0.1,0-0.2,0.1c-0.1,0-0.3,0.1-0.5,0.1c-0.2,0-0.4,0.1-0.6,0.1
				c-0.2,0-0.3,0-0.4,0l0,0c-0.4,0-0.8,0-1.2,0c-0.4,0-0.8,0-1.2,0l0,0c-0.3,0-0.6-0.1-1-0.2c-0.4-0.1-0.7-0.2-1-0.4
				s-0.6-0.4-0.8-0.7c-0.2-0.3-0.4-0.6-0.4-0.9l0,0l0.1-0.2c0,0,0-0.1,0-0.2c0-0.1,0-0.3,0.1-0.4l0,0v-0.3h0.2l0,0
				c0-0.1,0-0.2,0-0.2l0,0c0,0,0,0,0-0.1c0,0,0-0.1,0-0.1l0,0c0,0,0-0.1,0.1-0.1l0,0l0-0.4c0-0.1,0-0.2,0-0.3c0-0.1,0.1-0.2,0.1-0.4
				l0,0l0.1-0.1c0-0.1,0-0.2-0.1-0.2l0,0c0.1,0,0.1-0.1,0.1-0.2c0-0.1,0.1-0.2,0.1-0.2l0,0c0,0,0,0,0,0c0,0,0,0,0,0l0,0l0.1,0.1
				c0,0,0,0,0,0l0,0h0.1c0.1,0,0.1,0,0.1-0.1l0,0c0-0.1,0-0.2-0.1-0.3c-0.1-0.1-0.1-0.2-0.1-0.3l0,0c0,0,0-0.1,0-0.1l0,0
				c0,0,0-0.1,0-0.1c0,0,0,0,0-0.1l0,0l0.1,0c0.1-0.3,0.3-0.5,0.4-0.7c0.2-0.2,0.3-0.3,0.5-0.5l0,0l0.2-0.1c0.3-0.2,0.6-0.4,0.8-0.6
				c0.3-0.2,0.6-0.3,0.9-0.3l0,0c0.3,0,0.7,0,1.1,0.1c0.4,0.1,0.8,0.1,1.1,0.1l0,0c0.5,0.2,0.8,0.4,0.8,0.4s0.1,0.1,0.2,0.1l0,0
				l0,0.3l0.2,0.2l0.1,0.2l-0.2,0.3l0.2,0.2l-0.2,0.3c0,0-0.1,0.1-0.1,0.2c0,0.1,0,0.1,0,0.2l0,0l0,0l0,0.2l-0.1,0.3l0.2,0.1v0.2
				L250.6,211.1L250.6,211.1z M250.7,210.1L250.7,210.1L250.7,210.1c0.1,0,0.1,0,0.1,0.1l0,0c0,0.1,0,0.1-0.1,0.1l0,0
				C250.7,210.3,250.6,210.3,250.7,210.1L250.7,210.1C250.6,210.1,250.7,210.1,250.7,210.1z M250.8,210.5L250.8,210.5
				c0,0.1,0,0.1-0.1,0.1l0,0c0,0-0.1,0-0.1-0.1l0,0C250.7,210.5,250.7,210.4,250.8,210.5L250.8,210.5
				C250.7,210.4,250.8,210.5,250.8,210.5z M255.2,215.3L255.2,215.3c-0.1-0.2-0.1-0.4-0.2-0.5l0,0l0.1,0c0,0,0.1,0.1,0.2,0.3
				c0.1,0.1,0.2,0.2,0.2,0.3l0,0l0.2,0.3c-0.1-0.2-0.1-0.4-0.2-0.7c-0.1-0.3-0.2-0.6-0.3-0.9c-0.1-0.3-0.2-0.6-0.3-0.9
				c-0.1-0.3-0.2-0.6-0.3-0.8l0,0l-0.2-1.1c-0.1-0.4-0.2-0.8-0.2-1.1c-0.1-0.3-0.1-0.7-0.2-1.1l0,0l-0.1,0.1l0,0.3l-0.2,0.2
				l-0.1-0.2c0,0,0-0.1,0-0.1l0,0c-0.1-0.3-0.1-0.5-0.2-0.5c0-0.1-0.1-0.2-0.2-0.3l0,0l-0.3-0.6l0.3-0.4c0.1,0,0.2,0,0.4,0
				c0.2,0,0.2,0,0.3,0l0,0h0.2l0.6,0.4c0.2,0.1,0.4,0.1,0.5,0.3c0.1,0.1,0.1,0.3,0.2,0.4l0,0l0.2,0.6c0,0.1,0.1,0.2,0.1,0.4
				s0,0.4,0.1,0.4l0,0l0.2,0.4c0.1,0.2,0.2,0.4,0.3,0.8c0.1,0.4,0.2,0.8,0.3,1.2l0,0l0.2,0.2c0,0.1,0.1,0.2,0.1,0.3
				c0,0.1,0,0.2,0.1,0.3l0,0l0.3,0.5c0.1,0,0.2-0.2,0.4-0.5c0.1-0.3,0.3-0.6,0.4-1s0.2-0.8,0.4-1.1c0.1-0.4,0.2-0.6,0.2-0.7l0,0
				c0-0.1,0.1-0.1,0.1-0.2c0.1,0,0.1-0.1,0.1-0.2l0,0c0.2-0.4,0.4-0.8,0.5-1.3c0.1-0.4,0.3-0.9,0.5-1.3l0,0c0.2-0.3,0.4-0.7,0.5-1
				s0.3-0.6,0.5-1l0,0l0.7-0.6c0.1,0,0.1,0.1,0.1,0.2c0,0.1,0.1,0.2,0.1,0.2l0,0c0.1,0,0.3-0.1,0.6-0.1c0.3-0.1,0.5-0.1,0.7-0.1l0,0
				c0.2,0,0.3,0,0.5,0.1c0.2,0.1,0.2,0.2,0.2,0.5l0,0c0,0.1,0,0.2,0,0.3s0,0.2,0,0.3l0,0c0,0.1,0,0.1,0,0.2l0,0l-0.3,0.2l-0.3,0.5
				c-0.1,0.2-0.2,0.4-0.2,0.6s-0.1,0.4-0.3,0.6l0,0c-0.2,0.2-0.4,0.4-0.4,0.5c-0.1,0.1-0.1,0.2-0.2,0.4l0,0l-0.6,1.5
				c-0.1,0.3-0.3,0.5-0.4,0.8l0,0c-0.1,0.2-0.2,0.5-0.3,0.7s-0.2,0.5-0.2,0.7l0,0c-0.1,0.1-0.1,0.2-0.3,0.4
				c-0.1,0.2-0.2,0.4-0.3,0.6s-0.2,0.4-0.3,0.6c-0.1,0.2-0.1,0.3-0.1,0.4l0,0c0,0,0,0.1-0.1,0.2c-0.1,0.1-0.2,0.2-0.3,0.3
				c-0.1,0.1-0.2,0.2-0.3,0.3c-0.1,0.1-0.1,0.2-0.2,0.2l0,0l-0.6,0.3l-0.8,0.1l-0.2,0.1l-0.1-0.1c-0.3-0.2-0.5-0.3-0.7-0.4
				c-0.2-0.1-0.3-0.2-0.4-0.2c-0.1-0.1-0.2-0.1-0.2-0.2S255.3,215.5,255.2,215.3L255.2,215.3z M254.2,212.3v-0.4l0-0.2l0.1,0.2
				l0,0.4L254.2,212.3z M253.8,210.2l-0.2-0.4l0.2-0.1l0.1,0.1L253.8,210.2z M254,211.3l0.2-0.1l0,0.3H254L254,211.3z M254.6,213.9
				l0.2,0l0.2,0.1l-0.1,0.2L254.6,213.9z M253.9,210.8l-0.1-0.1l0.1-0.2l0.2,0.4L253.9,210.8z M254.6,213.5L254.6,213.5L254.6,213.5
				c0.1,0,0.1,0,0.1,0l0,0c0,0.1-0.1,0.1-0.2,0.1l0,0c0,0,0,0,0,0l0,0C254.5,213.6,254.6,213.5,254.6,213.5z M254,210.2l0,0.2
				l-0.1-0.2L254,210.2z M254.4,212.9l0.1-0.1l-0.1,0.2L254.4,212.9z M268.2,212.3L268.2,212.3c0.2-0.1,0.2-0.1,0.3-0.2
				c0.1-0.1,0.1-0.1,0.2-0.2c0-0.1,0.1-0.1,0.1-0.2c0.1-0.1,0.1-0.1,0.2-0.1l0,0c0.3,0,0.5-0.1,0.7-0.3c0.2-0.2,0.4-0.7,0.4-1.5l0,0
				v-0.6c0-0.1,0-0.2-0.1-0.3c-0.1-0.1-0.1-0.1-0.2-0.1l0,0c0,0-0.1,0.1-0.2,0.1c-0.1,0.1-0.3,0.1-0.4,0.2s-0.3,0.2-0.4,0.3
				c-0.1,0.1-0.3,0.2-0.3,0.3l0,0v0.3c0,0.3-0.1,0.7-0.2,1.1s-0.2,0.8-0.2,1.1l0,0H268.2z M272.6,211.1v0.2l-0.4,0.5l-0.2,0.1
				c-0.2,0.1-0.4,0.2-0.6,0.3c-0.2,0.1-0.4,0.2-0.6,0.3l0,0l-0.1,0.1h-0.2c-0.1,0-0.2,0-0.2,0.1s-0.1,0.1-0.2,0.2l0,0
				c-0.2,0-0.4,0.1-0.4,0.1c-0.1,0-0.1,0.1-0.1,0.1l0,0c0,0,0,0.1,0,0.1l0,0c0,0,0,0-0.1,0.1c-0.1,0-0.1,0-0.2,0c-0.1,0-0.2,0-0.2,0
				c-0.1,0-0.1,0-0.1,0l0,0h-0.2c-0.1,0.1-0.2,0.1-0.5,0.1c-0.3,0-0.5,0.1-0.6,0.2l0,0l0.2,0.7c0.1,0,0.2,0.1,0.4,0.1
				c0.2,0,0.4,0.1,0.5,0.1c0.2,0,0.4,0,0.5,0c0.2,0,0.3,0,0.4,0l0,0c0.3,0,0.6,0,0.8,0c0.3,0,0.6,0,0.9,0l0,0c0.3,0,0.6,0,0.8,0.1
				c0.3,0.1,0.5,0.2,0.8,0.3l0,0v0.2c0,0.1,0,0.2,0,0.4c0,0.1,0,0.2-0.1,0.3l0,0l-0.1,0.1c0,0-0.1,0-0.2,0.1c-0.1,0-0.3,0.1-0.5,0.1
				c-0.2,0-0.4,0.1-0.6,0.1c-0.2,0-0.3,0-0.4,0l0,0c-0.4,0-0.8,0-1.2,0c-0.4,0-0.8,0-1.2,0l0,0c-0.3,0-0.6-0.1-1-0.2
				c-0.4-0.1-0.7-0.2-1-0.4c-0.3-0.2-0.6-0.4-0.8-0.7c-0.2-0.3-0.4-0.6-0.4-0.9l0,0l0.1-0.2c0,0,0-0.1,0-0.2c0-0.1,0-0.3,0.1-0.4
				l0,0v-0.3h0.2l0,0c0-0.1,0-0.2,0-0.2l0,0c0,0,0,0,0-0.1c0,0,0-0.1,0-0.1l0,0c0,0,0-0.1,0.1-0.1l0,0l0-0.4c0-0.1,0-0.2,0-0.3
				c0-0.1,0.1-0.2,0.1-0.4l0,0l0.1-0.1c0-0.1,0-0.2-0.1-0.2l0,0c0.1,0,0.1-0.1,0.1-0.2c0-0.1,0.1-0.2,0.1-0.2l0,0c0,0,0,0,0,0
				c0,0,0,0,0,0l0,0l0.1,0.1c0,0,0,0,0,0l0,0h0.1c0.1,0,0.1,0,0.1-0.1l0,0c0-0.1,0-0.2-0.1-0.3c-0.1-0.1-0.1-0.2-0.1-0.3l0,0
				c0,0,0-0.1,0-0.1l0,0c0,0,0-0.1,0-0.1c0,0,0,0,0-0.1l0,0l0.1,0c0.1-0.3,0.3-0.5,0.4-0.7c0.2-0.2,0.3-0.3,0.5-0.5l0,0l0.2-0.1
				c0.3-0.2,0.6-0.4,0.8-0.6c0.3-0.2,0.6-0.3,0.9-0.3l0,0c0.3,0,0.7,0,1.1,0.1c0.4,0.1,0.8,0.1,1.1,0.1l0,0c0.5,0.2,0.8,0.4,0.8,0.4
				c0.1,0.1,0.1,0.1,0.2,0.1l0,0l0,0.3l0.2,0.2l0.1,0.2l-0.2,0.3l0.2,0.2l-0.2,0.3c0,0-0.1,0.1-0.1,0.2s0,0.1,0,0.2l0,0l0,0l0,0.2
				l-0.1,0.3l0.2,0.1v0.2L272.6,211.1L272.6,211.1z M272.7,210.1L272.7,210.1L272.7,210.1c0.1,0,0.1,0,0.1,0.1l0,0
				c0,0.1,0,0.1-0.1,0.1l0,0C272.6,210.3,272.6,210.3,272.7,210.1L272.7,210.1C272.6,210.1,272.6,210.1,272.7,210.1z M272.8,210.5
				L272.8,210.5c0,0.1,0,0.1-0.1,0.1l0,0c0,0-0.1,0-0.1-0.1l0,0C272.7,210.5,272.7,210.4,272.8,210.5L272.8,210.5
				C272.7,210.4,272.8,210.5,272.8,210.5z M275.1,212.5L275,212l0.3-0.8c0,0,0-0.1,0-0.1s0-0.1,0-0.1l0,0c0-0.2,0-0.4,0.1-0.6
				c0.1-0.2,0.2-0.5,0.3-0.7s0.3-0.5,0.4-0.8c0.2-0.3,0.3-0.5,0.4-0.7l0,0c0,0,0,0,0-0.1l0,0c0-0.1,0-0.2,0.1-0.2
				c0.1-0.1,0.1-0.1,0.2-0.1l0,0c0.2,0,0.4,0,0.6,0.1c0.2,0.1,0.4,0.2,0.6,0.3s0.4,0.3,0.5,0.5c0.1,0.2,0.2,0.4,0.2,0.6l0,0
				l-0.1,0.2l2.4-1h0.5c0,0,0-0.1,0.1-0.1c0.1,0,0.1,0,0.1,0l0,0c0.1,0,0.2,0,0.3,0.1c0.1,0,0.1,0.1,0.2,0.2l0,0l0.4,0.1
				c0.1,0,0.2,0.1,0.4,0.2c0.2,0.1,0.3,0.2,0.3,0.2l0,0v0.5h-0.1l0,0.1c0,0,0,0,0,0l0,0h0.1c0,0,0,0,0.1,0l0,0v0.1l-0.1,0.1
				c0,0.2,0,0.3,0.1,0.3l0,0c0,0.2,0,0.5-0.1,0.8s-0.2,0.5-0.3,0.6l0,0h0.2c0,0-0.1,0.1-0.1,0.2l0,0c0,0.1,0,0.1,0,0.1c0,0,0,0,0,0
				l0,0c0,0.2,0,0.3-0.1,0.5c-0.1,0.2-0.1,0.3-0.1,0.4l0,0l-0.1,0.5c0,0.2-0.1,0.3-0.1,0.4c-0.1,0.1-0.1,0.3-0.1,0.5l0,0l0.1,0.2
				c0,0.1,0,0.1-0.1,0.2c-0.1,0.1-0.1,0.2-0.1,0.3l0,0c0,0.2,0,0.3,0.1,0.4l0,0v0.1l-0.2,0.1l-0.1,0.2c-0.1,0-0.2,0.1-0.2,0.1
				s-0.1,0.1-0.1,0.1s-0.1,0-0.1,0c-0.1,0-0.2,0-0.4,0l0,0c-0.2,0-0.4-0.1-0.5-0.2c-0.1-0.2-0.2-0.4-0.3-0.6
				c-0.1-0.2-0.1-0.4-0.1-0.7c0-0.2,0-0.4,0-0.5l0,0c0-0.3,0-0.6,0-0.8s0-0.4,0-0.6c0-0.2,0-0.4,0-0.6c0-0.2,0.1-0.5,0.1-0.8l0,0
				c0-0.1,0-0.2,0-0.4c0-0.2,0-0.3,0-0.4l0,0l-0.3,0.1c-0.5,0.2-0.9,0.5-1.4,0.8c-0.5,0.3-0.7,0.7-0.8,1.1l0,0l-0.1,0.3l0.1,0.1
				c0,0.1-0.1,0.2-0.1,0.2c0,0.1,0,0.2,0,0.4l0,0l0.2-0.2v0c0,0.3-0.1,0.5-0.3,0.6c-0.2,0.1-0.3,0.3-0.3,0.5l0,0l0.2,0.8l-0.1,0.8
				h-0.3c0,0-0.1,0.1-0.2,0.1s-0.1,0.1-0.2,0.1l0,0l-1.5-0.2l-1-0.5l0.3-0.4c0,0-0.1,0.1-0.1,0.1l0,0h0c-0.1,0-0.1,0-0.1,0l0,0
				c0-0.1,0-0.2,0.1-0.2l0,0l0.1,0.1l0.5-0.6c0-0.1,0-0.1-0.1-0.2l0,0c-0.1,0.1-0.1,0.1-0.1,0.1s-0.1,0-0.3,0l0,0
				c0-0.2,0-0.4,0.1-0.5c0.1-0.1,0.1-0.2,0.1-0.4l0,0h-0.1c0,0-0.1,0-0.2-0.1l0,0c0,0-0.1,0-0.1,0c0,0-0.1,0-0.1,0l0,0
				c0-0.1,0.1-0.2,0.2-0.3C275.1,212.7,275.1,212.5,275.1,212.5L275.1,212.5z M275.5,213.7L275.5,213.7c0.1,0,0.1,0,0.1-0.1
				c0-0.1,0-0.3,0.1-0.5l0,0c-0.1,0-0.1,0.1-0.2,0.2C275.5,213.4,275.4,213.5,275.5,213.7L275.5,213.7
				C275.4,213.7,275.4,213.7,275.5,213.7z M275.1,213l0-0.2H275v0C275,212.9,275.1,212.9,275.1,213L275.1,213z M275.1,213.6
				L275.1,213.6l0.1-0.1C275.2,213.4,275.2,213.4,275.1,213.6L275.1,213.6C275.2,213.5,275.2,213.5,275.1,213.6
				C275.2,213.5,275.1,213.5,275.1,213.6L275.1,213.6z M275.3,212.6L275.3,212.6l0.1-0.1L275.3,212.6z M301.4,220.6L301.4,220.6
				c0,0-0.1-0.1-0.1-0.2c-0.1-0.1-0.1-0.1-0.1-0.2l0,0c0-0.1,0-0.1,0.1-0.1l0,0l0.2,0.3l0.1-0.1c0,0,0-0.1,0-0.1l0,0
				c0-0.1,0-0.1,0-0.2c0-0.1,0.1-0.1,0.1-0.2l0,0l-0.2,0c0,0,0,0,0-0.1s-0.1-0.2-0.2-0.4l0,0l0.2,0.1c0,0,0.1-0.1,0.1-0.2l0,0
				c0-0.1-0.1-0.2-0.2-0.3l0,0c-0.1,0.1-0.1,0.1-0.1,0.2l0,0c0,0.1,0,0.1,0,0.2l0,0h-0.1c0,0-0.1,0-0.2-0.1l0,0c0,0,0,0.1,0,0.2
				c0,0.1,0,0.1,0,0.2l0,0h-0.1c0,0-0.1-0.1-0.1-0.2c0-0.1,0-0.2-0.1-0.3l0,0l0,0c0,0,0.1-0.1,0-0.2c0-0.1,0.1-0.3,0.2-0.4l0,0
				c0,0.1,0,0.2,0,0.2c0,0.1,0,0.1,0,0.1l0,0c0,0,0-0.1,0-0.2l0,0c0-0.1,0-0.3-0.1-0.4s-0.1-0.2-0.1-0.3l0,0c0,0,0,0,0-0.1
				c0,0,0,0,0-0.1l0,0l-0.2-0.1c0-0.1-0.1-0.2-0.1-0.4c0-0.2,0-0.3,0-0.4l0,0c0,0.1,0,0.1-0.1,0.1s-0.1,0,0,0l0,0
				c-0.1,0-0.1-0.1-0.2-0.1l0,0c0,0-0.1,0-0.1,0.1l0,0c0-0.1-0.1-0.2-0.1-0.4s-0.1-0.3-0.2-0.5l0,0c-0.1,0.1-0.1,0.1-0.2,0.1
				c0,0,0,0,0,0.1l0,0c0,0,0,0,0,0.1c0,0,0,0.1,0,0.1l0,0c0,0,0,0,0,0c0,0,0,0,0,0l0,0c-0.1,0-0.1,0-0.1-0.1l0,0l0.1-0.8h0.1
				c0,0-0.1-0.1-0.1-0.2l0,0c-0.1,0.1-0.2,0.1-0.2,0.2l0,0c0,0,0,0,0,0.1l0,0l-0.2,0.1c0,0-0.1-0.2-0.2-0.4
				c-0.1-0.2-0.2-0.4-0.2-0.4l0,0l-0.1-0.3c0-0.1-0.1-0.3-0.2-0.4s-0.1-0.3-0.2-0.5l0,0v-0.1l-0.1,0c0-0.1,0-0.2-0.1-0.3
				c0-0.1,0-0.2-0.1-0.3l0,0l-0.1-0.2l-0.2-0.1l-0.9-2.4c-0.1-0.1-0.1-0.2-0.1-0.2l0,0c0,0,0-0.1,0-0.1c0,0,0,0,0-0.1l0,0
				c0,0,0-0.1-0.1-0.2l0,0l-0.4,0c0,0-0.1,0-0.2,0l0,0c0,0,0,0,0,0l0,0h0c0,0,0,0-0.1,0s0,0-0.1,0l0,0h-0.5c-0.2,0-0.4-0.1-0.5-0.2
				c-0.1-0.1-0.2-0.1-0.3-0.2l0,0c-0.1,0.5-0.2,0.8-0.2,0.8l0,0l0.1,0.3l-0.1,0.1c0,0,0,0.1,0,0.1c0,0,0,0,0,0.1l0,0l0.1,0.1h0.1
				l-0.1,0.2v0.2c0,0.3,0,0.5,0,0.6c0,0.1,0,0.2-0.1,0.3s-0.1,0.1-0.1,0.2c0,0,0,0.1,0,0.2l0,0l0.1,0c0,0,0,0.1,0,0.1l0,0
				c0,0,0,0,0,0l0,0c0,0-0.1,0-0.1,0l0,0c0,0,0,0,0-0.1l0,0c0,0,0,0.1,0,0.2l0,0l0.1,0.1l-0.1,0.2v1v0.1c0,0,0,0.1,0,0.3
				s0,0.2,0,0.3l0,0l-0.1,0.1l0.1,0.2v0.4l0.1,0.1v0.2l0,0.1l-0.2,0.2l-0.7,0.2l-0.8,0.1l-0.7-0.1c-0.3-0.1-0.5-0.2-0.6-0.4
				s-0.2-0.4-0.2-0.6l0,0c0-0.1,0-0.2,0-0.3c0-0.2,0-0.3,0-0.5c0-0.2,0-0.3,0.1-0.5s0.1-0.2,0.1-0.3l0,0l0.1,1.4l0.2,0.2
				c0-0.3,0-0.7,0-1.3c0-0.5,0.1-1.2,0.3-2l0,0l0,0.1c-0.1,0-0.1-0.1-0.1-0.4l0,0c0-0.3,0-0.4,0.1-0.4l0,0c0,0.1,0.1,0.2,0.1,0.3
				l0,0l0.4-1.4h-0.1c0-0.1,0-0.2,0.1-0.3c0.1,0,0.1-0.1,0.1-0.1l0,0h-0.1v-0.2c0.2-1.2,0.4-2.3,0.7-3.4c0.3-1.1,0.7-2.2,1-3.1l0,0
				c0.1-0.1,0.1-0.3,0.2-0.6c0.1-0.2,0.1-0.4,0.2-0.4l0,0l0.2-0.1h0.4c0.2,0,0.3,0,0.5,0s0.4,0,0.5,0l0,0h0.1
				c0.1,0.1,0.2,0.2,0.3,0.4c0.1,0.1,0.1,0.3,0.2,0.5l0,0c0,0,0,0,0,0.1c0,0.1,0,0.2,0,0.3c0,0.1,0,0.2,0,0.3s0,0.1,0,0.2l0,0
				l1.1-0.7c0,0,0.2-0.1,0.4-0.2c0.2-0.1,0.5-0.1,0.8-0.2c0.3-0.1,0.6-0.1,0.9-0.2c0.3,0,0.5-0.1,0.6-0.1l0,0l0.2,0.2h0.1l-0.1-0.1
				h0.2c0,0,0.1,0,0.2,0.1c0.1,0.1,0.2,0.1,0.2,0.1l0,0c0.2,0.1,0.4,0.1,0.6,0.1c0.2,0,0.4,0.1,0.6,0.2s0.3,0.2,0.4,0.4
				c0.1,0.2,0.2,0.5,0.2,0.9l0,0l0.2-0.1l0.1,0.1l-0.1,0.2l0.1,0.2l-0.2,0.3c0,0.1,0,0.1-0.1,0.3s-0.1,0.2-0.1,0.2l0,0l0.1,0.1
				c0,0-0.1,0.2-0.2,0.4l0,0l-0.1,0.4l0.1,0.1v0.2c0,0.1,0,0.1,0,0.2c0,0.1,0,0.1,0,0.2l0,0c0,0.1-0.1,0.2-0.2,0.3l0,0v0.1
				c0,0.2-0.1,0.4-0.3,0.7c-0.2,0.3-0.3,0.5-0.3,0.6l0,0v0.2l-0.2,0.2c0,0-0.1,0.1-0.3,0.1c-0.1,0-0.2,0.1-0.3,0.1l0,0l-0.3,0.1
				c0,0-0.1,0-0.2,0s-0.2,0.1-0.3,0.1c-0.1,0-0.2,0.1-0.4,0.1c-0.1,0-0.2,0-0.2,0l0,0c0,0.2,0.1,0.4,0.3,0.5
				c0.2,0.1,0.3,0.3,0.3,0.5l0,0c0,0.2,0.1,0.4,0.2,0.6c0.1,0.2,0.2,0.4,0.3,0.7c0.1,0.2,0.2,0.4,0.3,0.6c0.1,0.2,0.2,0.3,0.2,0.3
				l0,0v0.1l-0.1,0l-0.2-0.1l0.7,1.3l0.2,0.6l0.2,0.2l0.1,0.1l-0.1,0.1c0,0.1,0.1,0.2,0.2,0.3s0.2,0.2,0.2,0.3l0,0l0.1,0.1l0.1,0.3
				c0,0.1,0,0.1,0,0.2l0,0l0,0.3l0.2,0.5c0,0.2,0.1,0.3,0.1,0.3l0,0l0.2,0.7l-0.2,0.1l-0.1,0.2l0.2,0.2l0.1-0.1l0.2,0.1l0.1,0.3
				l0.1-0.1l0.3,0.9v0.1c0,0.1,0,0.1,0,0.2c0,0.1,0,0.2,0,0.3l0,0c0,0,0,0.1-0.1,0.1c-0.1,0-0.1,0.1-0.1,0.3l0,0
				c-0.1-0.1-0.2-0.1-0.3-0.2c0,0-0.1-0.1-0.1-0.1l0,0c-0.1,0-0.2,0-0.3,0.1c-0.1,0.1-0.2,0.2-0.2,0.2l0,0c0,0.1,0,0.2,0,0.2l0,0
				l-0.2,0l0-0.2c0,0-0.1,0-0.1,0c0,0,0,0,0,0l0,0c0,0,0,0,0,0c0,0,0,0,0,0l0,0v0.2c0,0,0,0,0,0l0,0h0l-0.1-0.2
				c0,0.1-0.1,0.1-0.2,0.2c-0.1,0.1-0.2,0.1-0.3,0.1l0,0l-0.1-0.1c-0.1,0-0.2,0.1-0.2,0.2l0,0C301.7,220.9,301.5,220.8,301.4,220.6z
				 M295.6,207.5L295.6,207.5c0,0-0.1,0.2-0.2,0.4c-0.1,0.2-0.1,0.4-0.2,0.7l0,0c0.3-0.1,0.7-0.2,1-0.2c0.3,0,0.6,0,0.9-0.1l0,0
				c0.1,0,0.3-0.1,0.6-0.2c0.3-0.1,0.5-0.2,0.6-0.2l0,0c0.1-0.1,0.3-0.1,0.5-0.2c0.2,0,0.3-0.1,0.5-0.1c0.2-0.1,0.3-0.1,0.4-0.3
				c0.1-0.1,0.2-0.4,0.2-0.7l0,0c0-0.3,0.1-0.5,0.1-0.7c0-0.2,0.1-0.3,0.1-0.5s0.1-0.3,0.1-0.5c0-0.2,0-0.4,0-0.7l0,0
				c-0.2,0-0.3,0-0.4,0.1c-0.1,0.1-0.3,0.1-0.5,0.1l0,0c-0.1,0-0.2,0-0.3,0c-0.1,0-0.2,0-0.3,0l0,0l0,0l-0.2,0.1
				c-0.1,0.1-0.2,0.2-0.4,0.2c-0.2,0.1-0.4,0.1-0.6,0.2c-0.2,0.1-0.4,0.1-0.5,0.2c-0.1,0.1-0.2,0.1-0.2,0.2l0,0l-0.4,0.1l-0.2,0
				h-0.2c0,0,0,0.1,0,0.2c0,0.1,0,0.1,0,0.2l0,0l0.1,0.2c0,0,0-0.1,0.1-0.1c0.1,0,0.1,0,0.1,0l0,0c0,0.3-0.1,0.6-0.2,0.9
				C295.9,206.9,295.7,207.2,295.6,207.5z M301.8,218.5l0,0.2c0,0.1,0.1,0.2,0.2,0.2l0,0c0,0,0,0,0-0.1l0,0c0-0.1,0-0.3,0-0.5
				s-0.1-0.4-0.1-0.5c-0.1-0.2-0.1-0.3-0.2-0.5c-0.1-0.1-0.2-0.2-0.4-0.2l0,0v0.2c0.1,0.1,0.2,0.1,0.2,0.1c0,0,0.1,0,0.3,0.1l0,0
				l-0.2,0.2v0c0,0,0,0.1,0.1,0.2c0.1,0.1,0.1,0.2,0.1,0.3l0,0c0,0.1,0,0.2-0.1,0.3l0,0C301.7,218.4,301.7,218.4,301.8,218.5
				L301.8,218.5z M299.8,216.9L299.8,216.9c0.1,0.1,0.2,0.2,0.2,0.3s0,0.2,0,0.1l0,0c0,0.1,0,0.2,0,0.2l0,0
				c-0.1-0.2-0.1-0.3-0.2-0.4S299.7,217,299.8,216.9L299.8,216.9C299.7,216.9,299.7,216.9,299.8,216.9z M291.5,212.5v0.9h-0.1
				c0,0,0-0.1,0-0.2c0-0.1,0-0.2,0-0.3c0-0.1,0-0.2,0-0.3C291.4,212.6,291.4,212.5,291.5,212.5L291.5,212.5z M301.6,219.4l-0.1,0.1
				c0.1,0.1,0.1,0.1,0.2,0.1l0,0L301.6,219.4z M300.5,217.4l-0.1-0.1C300.6,217.3,300.6,217.3,300.5,217.4L300.5,217.4L300.5,217.4z
				 M301.7,219l0.1,0c0,0-0.1-0.1-0.1-0.2l0,0L301.7,219z M305.1,212.6l0.1-0.2c0,0,0-0.1,0-0.1c0,0,0-0.1,0.1-0.1l0,0l0.1-0.1
				c0-0.3,0.1-0.6,0.3-1.1c0.2-0.4,0.4-0.7,0.7-0.9l0,0l0.2-0.1c0,0,0.1-0.1,0.1-0.1c0-0.1,0-0.1,0-0.2l0,0l0.1-0.2
				c0.2-0.2,0.3-0.5,0.5-0.7c0.2-0.2,0.4-0.4,0.6-0.6c0.2-0.2,0.4-0.3,0.5-0.4s0.3-0.2,0.4-0.2l0,0c0,0,0.1,0,0.1,0
				c0,0,0.1,0.1,0.3,0.1l0,0l0.3,0.4c0.1,0,0.2,0.1,0.2,0.2l0,0l0.1,0.2v0.5l0.1,0.1c0,0,0.1,0.1,0.1,0.1s0.1,0.1,0.1,0.1l0,0
				l0.4,0.2c0,0.1,0.1,0.2,0.2,0.3s0.2,0.2,0.3,0.4l0,0l0.4,0.5c0,0.1,0.1,0.2,0.1,0.3c0,0.2,0.1,0.3,0.1,0.5c0,0.2,0.1,0.4,0.1,0.5
				c0,0.2,0,0.3,0,0.3l0,0v0.2l-0.3,0.6l0,0.2l-0.3,0.3l-0.5,0.4c-0.1,0.1-0.2,0.1-0.4,0.1c-0.2,0-0.3,0.1-0.4,0.2l0,0l-0.2,0.1
				c-0.1,0.1-0.2,0.1-0.3,0.1l0,0c0,0,0,0,0,0c0,0,0,0,0,0l0,0l-0.4,0.1c-0.1,0.1-0.3,0.1-0.5,0.1l0,0c-0.1,0-0.3,0-0.3,0l0,0
				l-0.7-0.2l-0.7-0.2c-0.3-0.1-0.5-0.2-0.7-0.2c-0.2-0.1-0.3-0.3-0.5-0.6l0,0c0-0.1-0.1-0.2-0.1-0.3c0-0.1-0.1-0.2-0.1-0.2l0,0
				L305.1,212.6z M307.7,212.7l0,0.7l0.2,0c0.2,0,0.4-0.1,0.6-0.1s0.4-0.1,0.5-0.1l0,0l0.3-0.2l0.2-0.3l0.1-0.3l-0.4-1.4l-0.5-0.2
				l-0.1,0.1c0,0-0.1,0.1-0.2,0.2s-0.2,0.3-0.3,0.5s-0.2,0.4-0.3,0.6S307.7,212.5,307.7,212.7L307.7,212.7z M306.7,210.8l-0.2-0.1
				c-0.1,0.1-0.2,0.3-0.4,0.5s-0.2,0.5-0.2,0.7l0,0c0,0.1,0,0.1,0,0.2l0,0l0.1-0.2l0.5-0.9C306.6,211,306.7,210.9,306.7,210.8
				L306.7,210.8z M317,216.4L317,216.4c-0.1,0-0.1,0-0.3,0c-0.1,0-0.2,0-0.4,0c-0.1,0-0.3,0-0.4-0.1c-0.1,0-0.2-0.1-0.3-0.1l0,0
				l-0.7-0.3c0,0-0.1,0-0.2-0.1s-0.3-0.1-0.6-0.2l0,0l-0.4-0.5c0-0.2,0.1-0.4,0.3-0.5c0.2-0.2,0.4-0.3,0.5-0.3l0,0c0,0,0.1,0,0.2,0
				s0.2,0,0.3,0.1s0.2,0.1,0.3,0.1c0.1,0,0.1,0,0.2,0l0,0c0.2,0,0.4,0,0.7,0c0.3,0,0.6,0,0.9-0.1c0.3,0,0.5-0.1,0.8-0.1
				c0.2-0.1,0.3-0.1,0.3-0.2l0,0l0.2-0.8c0-0.2-0.1-0.4-0.2-0.5c-0.1-0.1-0.3-0.2-0.5-0.2l0,0c-0.1,0-0.1,0-0.2,0.1l0,0l-0.8-0.2
				h-0.3c-0.2,0-0.4,0-0.8-0.1c-0.3-0.1-0.7-0.2-1-0.3c-0.3-0.1-0.6-0.3-0.9-0.5c-0.3-0.2-0.4-0.5-0.4-0.8l0,0c0-0.2,0-0.3,0.1-0.4
				c0.1-0.1,0.1-0.2,0.2-0.4l0,0l-0.1-0.1c0-0.1,0-0.2,0.1-0.3c0.1-0.1,0.1-0.2,0.2-0.4c0.1-0.1,0.1-0.3,0.2-0.4
				c0.1-0.1,0.1-0.2,0.1-0.3l0,0l1.1-1.2c0,0,0.1-0.1,0.1,0c0.1,0,0.1,0,0.1,0l0,0l0.7-0.5h0.2c0,0,0.1,0,0.2-0.1l0,0l0.8-0.2h0.3
				l0.1,0.1c0.1,0,0.2,0.1,0.3,0.1s0.2,0,0.4,0l0,0h0.5c0,0,0.1,0.1,0.2,0.2c0.1,0.1,0.1,0.2,0.2,0.2l0,0c0.2,0.1,0.3,0.2,0.5,0.3
				c0.1,0.1,0.3,0.2,0.4,0.3s0.2,0.2,0.3,0.3c0.1,0.1,0.1,0.3,0.1,0.6l0,0c0,0.1-0.1,0.1-0.2,0.2c-0.1,0-0.2,0.1-0.2,0.1l0,0h-0.5
				c0,0-0.1,0-0.1,0c-0.1,0-0.2,0-0.2,0.1c-0.1,0-0.2,0-0.3,0.1c-0.1,0-0.1,0-0.2,0l0,0h-1.1c0,0.1-0.2,0.2-0.4,0.2
				c-0.2,0-0.3,0.1-0.4,0.1l0,0c-0.3,0.2-0.5,0.3-0.5,0.5c-0.1,0.2-0.1,0.4-0.2,0.7l0,0c0.3,0.2,0.7,0.3,1.1,0.4
				c0.4,0.1,0.7,0.1,0.9,0.1l0,0l0.8,0.2c0.5,0.2,0.9,0.4,1.1,0.7c0.2,0.3,0.4,0.6,0.4,0.9l0,0l0.1,0.4v0.2c0,0.1,0,0.2,0,0.2
				s0,0.3-0.1,0.7l0,0l-0.2,0.5l-0.1,0.1c-0.2,0.3-0.4,0.5-0.6,0.7s-0.4,0.3-0.8,0.4l0,0c0,0,0,0-0.1,0.1c0,0-0.1,0.1-0.2,0.1
				c-0.1,0-0.3,0.1-0.5,0.1C317.7,216.4,317.4,216.4,317,216.4z M313.8,210.5L313.8,210.5c0,0.2,0.1,0.3,0.2,0.4
				c0.2,0.1,0.3,0.1,0.5,0.1l0,0l-0.1-0.3v-0.1c0-0.1,0-0.2,0-0.2c0,0,0-0.1,0-0.3l0,0c-0.1,0-0.1,0-0.1-0.1l0,0c0,0,0-0.1,0.1-0.2
				c0-0.1,0.1-0.2,0.1-0.2l0,0v0.2c0.1,0,0.1-0.1,0.1-0.2s0-0.2,0-0.2l0,0c0-0.1,0-0.2-0.1-0.2l0,0l-0.1,0.2V209h-0.1
				c0,0.1-0.1,0.1-0.1,0.2c-0.1,0.1-0.1,0.2-0.2,0.2l0,0c0,0.1-0.1,0.3-0.1,0.4s0,0.3-0.1,0.4l0,0
				C314,210.4,313.9,210.4,313.8,210.5C313.8,210.4,313.8,210.4,313.8,210.5z M316.1,207.7L316.1,207.7c-0.4,0-0.7,0.1-0.9,0.4
				s-0.4,0.6-0.5,0.9l0,0v0c0.2,0,0.3-0.1,0.3-0.3c0.1-0.2,0.1-0.4,0.2-0.5l0,0c0,0,0.1-0.1,0.2-0.1s0.2-0.1,0.3-0.2
				c0.1-0.1,0.2-0.1,0.3-0.2S316.1,207.8,316.1,207.7L316.1,207.7z M325.9,216.4L325.9,216.4c-0.1,0-0.1,0-0.3,0c-0.1,0-0.2,0-0.4,0
				c-0.1,0-0.3,0-0.4-0.1s-0.2-0.1-0.3-0.1l0,0l-0.7-0.3c0,0-0.1,0-0.2-0.1c-0.1-0.1-0.3-0.1-0.6-0.2l0,0l-0.4-0.5
				c0-0.2,0.1-0.4,0.3-0.5c0.2-0.2,0.4-0.3,0.5-0.3l0,0c0,0,0.1,0,0.2,0s0.2,0,0.3,0.1c0.1,0,0.2,0.1,0.3,0.1c0.1,0,0.1,0,0.2,0l0,0
				c0.2,0,0.4,0,0.7,0c0.3,0,0.6,0,0.9-0.1s0.5-0.1,0.8-0.1c0.2-0.1,0.3-0.1,0.3-0.2l0,0l0.2-0.8c0-0.2-0.1-0.4-0.2-0.5
				c-0.1-0.1-0.3-0.2-0.5-0.2l0,0c-0.1,0-0.1,0-0.2,0.1l0,0l-0.8-0.2h-0.3c-0.2,0-0.4,0-0.8-0.1c-0.3-0.1-0.7-0.2-1-0.3
				c-0.3-0.1-0.6-0.3-0.9-0.5c-0.3-0.2-0.4-0.5-0.4-0.8l0,0c0-0.2,0-0.3,0.1-0.4c0.1-0.1,0.1-0.2,0.2-0.4l0,0l-0.1-0.1
				c0-0.1,0-0.2,0.1-0.3s0.1-0.2,0.2-0.4c0.1-0.1,0.1-0.3,0.2-0.4c0.1-0.1,0.1-0.2,0.1-0.3l0,0l1.1-1.2c0,0,0.1-0.1,0.1,0
				c0.1,0,0.1,0,0.1,0l0,0l0.7-0.5h0.2c0,0,0.1,0,0.2-0.1l0,0l0.8-0.2h0.3l0.1,0.1c0.1,0,0.2,0.1,0.3,0.1s0.2,0,0.4,0l0,0h0.5
				c0,0,0.1,0.1,0.2,0.2c0.1,0.1,0.1,0.2,0.2,0.2l0,0c0.2,0.1,0.3,0.2,0.5,0.3c0.1,0.1,0.3,0.2,0.4,0.3c0.1,0.1,0.2,0.2,0.3,0.3
				c0.1,0.1,0.1,0.3,0.1,0.6l0,0c0,0.1-0.1,0.1-0.2,0.2c-0.1,0-0.2,0.1-0.2,0.1l0,0h-0.5c0,0-0.1,0-0.1,0c-0.1,0-0.2,0-0.2,0.1
				c-0.1,0-0.2,0-0.3,0.1c-0.1,0-0.1,0-0.2,0l0,0h-1.1c0,0.1-0.2,0.2-0.4,0.2c-0.2,0-0.3,0.1-0.4,0.1l0,0c-0.3,0.2-0.5,0.3-0.5,0.5
				c-0.1,0.2-0.1,0.4-0.2,0.7l0,0c0.3,0.2,0.7,0.3,1.1,0.4c0.4,0.1,0.7,0.1,0.9,0.1l0,0l0.8,0.2c0.5,0.2,0.9,0.4,1.1,0.7
				c0.2,0.3,0.4,0.6,0.4,0.9l0,0l0.1,0.4v0.2c0,0.1,0,0.2,0,0.2c0,0.1,0,0.3-0.1,0.7l0,0l-0.2,0.5l-0.1,0.1
				c-0.2,0.3-0.4,0.5-0.6,0.7c-0.2,0.2-0.4,0.3-0.8,0.4l0,0c0,0,0,0-0.1,0.1c0,0-0.1,0.1-0.2,0.1c-0.1,0-0.3,0.1-0.5,0.1
				C326.7,216.4,326.4,216.4,325.9,216.4z M322.8,210.5L322.8,210.5c0,0.2,0.1,0.3,0.2,0.4s0.3,0.1,0.5,0.1l0,0l-0.1-0.3v-0.1
				c0-0.1,0-0.2,0-0.2c0,0,0-0.1,0-0.3l0,0c-0.1,0-0.1,0-0.1-0.1l0,0c0,0,0-0.1,0.1-0.2c0-0.1,0.1-0.2,0.1-0.2l0,0v0.2
				c0.1,0,0.1-0.1,0.1-0.2c0-0.1,0-0.2,0-0.2l0,0c0-0.1,0-0.2-0.1-0.2l0,0l-0.1,0.2V209h-0.1c0,0.1-0.1,0.1-0.1,0.2
				s-0.1,0.2-0.2,0.2l0,0c0,0.1-0.1,0.3-0.1,0.4s0,0.3-0.1,0.4l0,0C323,210.4,322.9,210.4,322.8,210.5
				C322.8,210.4,322.8,210.4,322.8,210.5z M325.1,207.7L325.1,207.7c-0.4,0-0.7,0.1-0.9,0.4c-0.2,0.3-0.4,0.6-0.5,0.9l0,0v0
				c0.2,0,0.3-0.1,0.3-0.3c0.1-0.2,0.1-0.4,0.2-0.5l0,0c0,0,0.1-0.1,0.2-0.1s0.2-0.1,0.3-0.2c0.1-0.1,0.2-0.1,0.3-0.2
				C325,207.9,325.1,207.8,325.1,207.7L325.1,207.7z M338.9,216.1L338.9,216.1c0-0.3,0-0.6,0.1-0.8s0.1-0.5,0.1-0.8l0,0
				c0-1,0-1.7-0.1-2.4s-0.1-1.2-0.1-1.8c-0.1-0.6-0.1-1.2-0.1-1.8c0-0.6-0.1-1.4-0.1-2.4l0,0v-1.9c0-0.1,0.1-0.2,0.1-0.3
				s0-0.2,0-0.3l0,0c0-0.1,0-0.2,0-0.2s0-0.1-0.1-0.2l0,0c0,0,0.1-0.1,0.1-0.2c0-0.1,0-0.2,0-0.3l0,0v-0.9l-0.1-0.1l0.1-0.1
				c0-0.4,0-0.9,0-1.4c0-0.5,0-1,0-1.4l0,0c0-0.2,0-0.4-0.1-0.7c0-0.2-0.1-0.5-0.1-0.8l0,0l-0.1-0.2c0-0.1,0.1-0.2,0.3-0.2
				c0.2,0,0.3,0,0.4,0l0,0c0.7,0,1.2,0.1,1.5,0.2c0.3,0.1,0.4,0.5,0.4,1l0,0v0.1c0,0-0.1,0.1-0.1,0.3c0,0.2,0,0.4,0,0.6
				c0,0.2,0,0.4,0,0.6c0,0.2,0,0.3,0,0.4l0,0v0.1c0,0.1,0,0.3,0,0.4c0,0.2,0,0.3,0,0.5l0,0c0,0.2,0,0.4,0,0.6c0,0.2,0,0.4,0,0.6l0,0
				v0.2l0.1,0.1l-0.1,0.1l0.1,0.5l-0.1,0.1c0,0.1,0,0.2,0.1,0.4s0.1,0.3,0.1,0.4l0,0c0,0.1,0,0.2-0.1,0.2l0,0c0,0,0.1,0.1,0.1,0.2
				c0,0.1,0.1,0.2,0.1,0.3s0,0.2,0,0.4c0,0.1,0,0.2,0,0.3l0,0l-0.1,0.1v0.2h0.1c0,0.3,0.1,0.6,0.2,0.9c0.1,0.3,0.2,0.6,0.2,0.9l0,0
				c0,0.1,0,0.2,0,0.2s0,0.1,0,0.2l0,0h0.1v0.8c0,0.1,0,0.3-0.1,0.4c-0.1,0.1-0.1,0.3-0.1,0.4l0,0l0.1,0.2l-0.1,0.4
				c0,0.2,0,0.5,0.1,0.7c0,0.2,0.1,0.5,0.1,0.7l0,0v1.3l0.1,0.5c0,0.3,0,0.5,0,0.6c0,0.1,0,0.2,0,0.3c0,0.1,0,0.2,0,0.3s0,0.3,0,0.6
				l0,0v0.1c0,0.2,0,0.3,0,0.5s0,0.4-0.1,0.6c0,0.2-0.1,0.3-0.1,0.5c-0.1,0.1-0.1,0.2-0.2,0.2l0,0c-0.1,0-0.1,0-0.2-0.1
				c-0.1,0-0.1-0.1-0.1-0.2l0,0c-0.1,0-0.1,0-0.1,0.1c0,0,0,0.1-0.2,0.1l0,0c0,0-0.1,0-0.1-0.1l0,0c-0.1,0.1-0.2,0.2-0.4,0.2
				c-0.2,0-0.3,0.1-0.5,0.1l0,0c-0.1,0-0.3,0-0.4-0.1c-0.1,0-0.3-0.1-0.4-0.2c-0.1-0.1-0.3-0.2-0.4-0.2
				C338.9,216.3,338.9,216.2,338.9,216.1z M340.8,207.6L340.8,207.6c0,0.1,0,0.2,0,0.3c0,0.1,0,0.2,0,0.3l0,0c0,0.1,0,0.2,0,0.3
				c0,0.1,0.1,0.1,0.2,0.2l0,0l0.1-0.1c0-0.1,0-0.1,0-0.3s0-0.2,0-0.4s0-0.3,0-0.4c0-0.1,0-0.2,0-0.3l0,0l-0.1-0.1l0.1-0.2l-0.1-0.1
				l0.1-0.2v-0.3c0-0.4,0-0.9-0.1-1.3c-0.1-0.4-0.1-0.9-0.1-1.3l0,0c0-0.1,0-0.2,0-0.3s0-0.2,0-0.3l0,0c0,0,0-0.1-0.1-0.1
				c-0.1,0-0.1-0.1-0.1-0.1l0,0v-0.1l0.1-0.1v-0.4c-0.1,0-0.2,0.1-0.2,0.2s-0.1,0.3-0.1,0.4l0,0c0,0.1,0,0.1,0.1,0.1l0,0v1.5
				l-0.1-0.1v0.3l0.1-0.1v0.6c0,0.2,0,0.3,0.1,0.4c0,0.1,0.1,0.3,0.1,0.4l0,0l-0.1,0.1c0,0.2,0,0.3,0.1,0.5s0.1,0.3,0.1,0.5l0,0
				L340.8,207.6z M340.8,210L340.8,210v0.2c0.1,0.1,0.2,0.2,0.3,0.2l0,0v-0.2c0-0.2,0-0.3,0-0.5s0-0.3-0.1-0.4l0,0
				c-0.1,0.1-0.1,0.2-0.1,0.3S340.9,209.9,340.8,210z M353,216.3L353,216.3c-0.1,0-0.2,0-0.2-0.1c0-0.1-0.1-0.1-0.1-0.2l0,0
				l-0.1,0.2V216c-0.2,0-0.2,0-0.2,0.1c0,0.1,0,0.1-0.1,0.1l0,0c-0.1,0-0.2-0.1-0.2-0.2c0-0.1-0.1-0.2-0.2-0.2l0,0l-0.2,0.1l0,0.1
				c0,0,0,0.1-0.1,0.1l0,0h-0.1c-0.1,0-0.3-0.1-0.5-0.2c-0.2-0.1-0.3-0.3-0.4-0.4l0,0c0-0.4,0.1-0.8,0.3-1.1s0.3-0.7,0.3-1.1l0,0
				l0.2,0c0.2,0,0.3-0.1,0.3-0.2c0-0.1,0-0.2,0-0.3l0,0l-0.2-0.2v-0.2c0.1-0.1,0.1-0.1,0.1-0.2c0-0.1,0.1-0.1,0.1-0.2l0,0l0-0.2
				c0,0,0.1-0.1,0.2-0.1s0.2-0.1,0.3-0.2s0.2-0.1,0.3-0.2c0.1-0.1,0.1-0.1,0.1-0.1l0,0c0,0,0,0-0.1,0s-0.1,0-0.1-0.1l0,0l0.3-0.3
				l-0.2-0.2c0-0.1,0.1-0.2,0.3-0.3c0.2-0.1,0.3-0.3,0.4-0.6l0,0v-0.1c-0.1,0.1-0.2,0.1-0.2,0.2c0,0-0.1,0.1-0.1,0.1
				c0,0-0.1,0.1-0.1,0.1c-0.1,0-0.1,0-0.3,0l0,0c-0.1,0-0.2,0.1-0.2,0.2c0,0.1-0.1,0.1-0.1,0.2s0,0.1-0.1,0.2c0,0.1-0.1,0.1-0.2,0.1
				l0,0v-0.3l0.5-1.2c0,0,0-0.1,0-0.2c0-0.1,0-0.3,0.1-0.5c0-0.2,0.1-0.3,0.1-0.5c0-0.1,0-0.2,0-0.3l0,0l0-0.2l0.1,0l0.1-0.4
				l0.2-0.6l0.2-0.3c0-0.2,0.1-0.6,0.3-0.9c0.2-0.4,0.4-0.7,0.5-1l0,0l-0.1-0.2c0-0.1,0-0.1,0.1-0.2c0,0,0.1-0.1,0.1-0.1l0,0h0
				c0,0,0-0.1,0.1-0.2c0-0.1,0.1-0.1,0.1-0.1l0,0v-0.1l-0.1,0.2v-0.1c0-0.1,0.1-0.3,0.3-0.5c0.2-0.2,0.3-0.4,0.3-0.6l0,0
				c0-0.1,0-0.1-0.1-0.1s-0.1-0.1-0.1-0.2l0,0c0-0.1,0-0.1,0.1-0.2c0.1-0.1,0.2-0.1,0.3-0.1l0,0c0.1,0,0.1,0,0.2,0.1
				c0,0.1,0.1,0.1,0.2,0.1l0,0l0.3-0.1c0.1,0,0.2,0.1,0.4,0.2c0.2,0.1,0.4,0.2,0.5,0.3c0.2,0.1,0.3,0.2,0.5,0.4
				c0.1,0.1,0.2,0.2,0.2,0.2l0,0c0,0,0,0.1,0,0.1c0,0,0,0,0,0.1l0,0c0,0.1,0.1,0.1,0.2,0.2l0,0v0.1c0,0.2-0.1,0.4-0.2,0.7
				c-0.1,0.2-0.2,0.4-0.2,0.6l0,0h0.1c0,0.1,0,0.2,0,0.2c0,0,0,0.1,0,0.2l0,0h0.2l-0.9,1.8v0.2l0.1,0.1l-0.1,0.2v0.2
				c0,0-0.1,0-0.1,0l0,0c0,0-0.1,0.1-0.1,0.2c0,0.2,0,0.3,0,0.4l0,0l-0.2,0.5H356l0.1,0.1l-0.1,0.3L356,209c-0.2,0-0.3,0.1-0.3,0.3
				l0,0c0,0,0,0.1,0,0.1c0,0.1,0,0.1,0,0.1l0,0c0,0.1,0,0.2,0,0.2c0,0,0,0-0.1,0.1l0,0v0.2l0.1,0.2l-0.2,0.2c0,0-0.1,0.1-0.1,0
				c0,0,0,0,0,0l0,0l0.1,0.1v0c0,0.1-0.1,0.2-0.1,0.3c-0.1,0.2-0.1,0.3-0.2,0.5c-0.1,0.2-0.1,0.3-0.2,0.5c-0.1,0.2-0.2,0.3-0.2,0.4
				l0,0c0,0,0.1,0,0.1,0.1l0,0c0,0.1,0,0.2,0,0.2c0,0,0,0.1,0,0.1l0,0c0,0,0,0,0.1,0c0,0,0.1,0.1,0.1,0.2l0,0c0,0.2-0.1,0.4-0.2,0.5
				c-0.1,0.1-0.2,0.3-0.2,0.5l0,0c0,0,0,0.1,0,0.1c0,0,0,0,0,0.1l0,0l-0.2,0.2l0.2,0.2c-0.1,0.2-0.1,0.4-0.2,0.6
				c-0.1,0.2-0.1,0.4-0.2,0.6l0,0v0.2c0,0,0,0.1-0.1,0.2c0,0.1-0.1,0.2-0.2,0.3c-0.1,0.1-0.1,0.2-0.2,0.2c-0.1,0.1-0.1,0.1-0.1,0.1
				l0,0c-0.1-0.1-0.3-0.1-0.4-0.2C353.1,216.5,353,216.4,353,216.3z M352.4,212.1l-0.1-0.1c-0.1,0-0.1,0.1-0.2,0.2
				c-0.1,0.1-0.1,0.2-0.1,0.2l0,0v0.2c0.1-0.1,0.2-0.2,0.3-0.2s0.2-0.1,0.3-0.1l0,0v0.2c0.1,0,0.2-0.1,0.2-0.2
				c0.1-0.1,0.1-0.2,0.1-0.2l0,0c-0.2,0-0.3,0-0.3,0c0,0,0,0-0.1,0l0,0H352.4z M352.4,211.9L352.4,211.9c0.2,0.1,0.4,0,0.4-0.1
				c0-0.1,0.1-0.2,0.1-0.3l0,0h0.1v-0.2c0,0-0.1,0.1-0.2,0.1c-0.1,0.1-0.1,0.1-0.1,0.2l0,0h0.1c0,0.1,0,0.1-0.1,0.1
				c-0.1,0-0.1,0.1-0.1,0.1l0,0L352.4,211.9z M352,211.2L352,211.2c0-0.1,0.1-0.2,0.3-0.2l0,0c0,0.1,0,0.2,0,0.3s-0.1,0.2-0.3,0.2
				l0,0V211.2C351.9,211.2,351.9,211.2,352,211.2C352,211.2,352,211.2,352,211.2z M354.3,214.8L354.3,214.8c-0.2,0-0.4,0.1-0.4,0.2
				l0,0h0.1c0.1,0,0.2,0,0.2-0.1C354.3,214.8,354.3,214.8,354.3,214.8z M351.2,213.9L351.2,213.9l0.2,0.1l0.1-0.2h-0.2L351.2,213.9z
				 M351.3,214.2h-0.2c0,0,0,0,0,0.1s0,0.1,0.1,0.1l0,0C351.3,214.4,351.3,214.3,351.3,214.2L351.3,214.2z M369.7,205.5L369.7,205.5
				c-0.1,0.3-0.1,0.6-0.2,0.8c0,0.2-0.1,0.5-0.1,0.8l0,0c-0.1,0.1-0.1,0.2-0.2,0.2c-0.1,0-0.1,0.1-0.2,0.2l0,0
				c0,0.1-0.1,0.1-0.1,0.1c0,0-0.1,0.1-0.2,0.1c-0.1,0.1-0.3,0.2-0.5,0.3c-0.2,0.2-0.5,0.4-1,0.7l0,0c0.1,0.1,0.2,0.2,0.3,0.2
				c0.1,0.1,0.2,0.1,0.3,0.2l0,0c0.1,0.1,0.2,0.2,0.5,0.4s0.5,0.4,0.8,0.6c0.3,0.2,0.5,0.4,0.7,0.6c0.2,0.2,0.3,0.3,0.3,0.4l0,0
				l-0.1,0.9c-0.3,0.3-0.6,0.7-0.9,1c-0.3,0.3-0.5,0.7-0.6,1.1l0,0c0,0.1,0,0.2-0.1,0.2l0,0c0,0,0,0-0.1,0l0,0l-0.4,0.4l-0.1,0.3
				l-0.1,0c0,0-0.1,0.1-0.3,0.1c-0.2,0-0.3,0.1-0.4,0.1l0,0l-0.3,0.1l0-0.1c-0.2,0-0.4,0-0.6,0.1s-0.4,0.2-0.6,0.2l0,0
				c-0.1,0-0.3,0-0.4,0c-0.1,0-0.3,0-0.4,0.1l0,0l-0.6,0.1c-0.9,0.2-1.6,0.4-2.2,0.4c-0.5,0.1-1,0.1-1.4,0.1l0,0h-0.7h-0.4
				c-0.3-0.2-0.6-0.5-0.7-0.7c-0.1-0.2-0.2-0.6-0.2-1l0,0l0.2-0.3h0.2l0.1-0.1h1.4l0.2-0.1c0.1,0,0.1,0,0.2,0c0.1,0,0.2,0,0.2,0l0,0
				c0.4,0,0.7,0,1-0.1c0.3-0.1,0.7-0.1,1-0.1l0,0l0-0.1l0.3-0.2l-0.1-0.1c0,0,0.1,0,0.2,0l0,0h0.4c0.3,0,0.5-0.1,0.6-0.2
				c0.1-0.1,0.2-0.2,0.3-0.3l0,0l0.2-0.1c0.2,0,0.4-0.1,0.6-0.2c0.2-0.1,0.4-0.3,0.6-0.4c0.2-0.2,0.3-0.4,0.5-0.6
				c0.1-0.2,0.2-0.5,0.2-0.7l0,0c0,0,0-0.1-0.1-0.1c0,0-0.1-0.1-0.1-0.1l0,0l-1.9-1.4c-0.2-0.1-0.3-0.2-0.4-0.3
				c-0.1-0.1-0.2-0.2-0.2-0.4l0,0c0-0.1,0-0.2,0.1-0.3c0-0.1,0.1-0.2,0.1-0.2l0,0l-0.1-0.2v-0.5l0.1-0.1c0.1-0.1,0.1-0.1,0.1-0.1
				c0,0,0,0,0.1-0.1l0,0c0.1-0.1,0.2-0.1,0.2-0.2c0-0.1,0.1-0.1,0.1-0.2l0,0c0.2-0.2,0.4-0.3,0.6-0.5c0.2-0.1,0.4-0.3,0.6-0.4l0,0
				l0-0.1c0-0.4,0-0.8,0.1-1.2s0.1-0.8,0.1-1.2l0,0h-0.2c-0.1,0-0.2,0-0.4,0.1c-0.2,0.1-0.5,0.2-1,0.3l0,0h-0.1c-0.1,0-0.2,0-0.2,0
				l0,0l-0.5,0.1c-0.1,0-0.2,0-0.6,0.1c-0.3,0-0.6,0-0.9,0l0,0c-0.2,0-0.3,0-0.4,0c-0.1,0-0.2,0-0.2,0l0,0l-0.2,0l-0.2-0.5l-0.2-0.2
				l-0.2-0.5l0.1-0.5l0.5-0.1c0.1,0,0.2,0,0.4,0c0.2,0,0.4,0,0.4,0.1l0,0l0.2-0.1c0.2,0,0.3-0.1,0.3-0.1l0,0l0.6,0.1
				c0.1-0.1,0.3-0.2,0.6-0.2l0,0l0.4-0.1c0.3-0.1,0.6-0.2,0.9-0.2c0.3,0,0.6-0.1,1-0.2l0,0c0,0,0.1,0,0.3-0.1
				c0.2-0.1,0.3-0.1,0.3-0.1l0,0h0.3c0.1,0,0.1,0,0.1,0c0,0,0,0,0.1,0l0,0l0.4,0.1c0.1,0,0.2,0,0.3,0s0.1,0,0.2,0l0,0l0.4,0.2
				l0.4-0.1l0.5,0.4v0.2l-0.2,0.2v0.3l-0.3,0.3l0.2,0.2v0.1c0,0.3-0.1,0.6-0.2,0.9C369.8,205,369.7,205.2,369.7,205.5z M369.8,204.1
				l-0.2,0.4l0.1,0L369.8,204.1z M385.5,215.7l-0.3,0.1c-0.3-0.1-0.6-0.1-1-0.2c-0.3,0-0.7-0.1-1-0.1c-0.3,0-0.6-0.1-0.9-0.1
				c-0.3,0-0.5,0-0.7,0l0,0H381v0.3c0,0-0.1,0-0.2,0s-0.2,0-0.4-0.1l0,0h-0.1l-0.1,0.1l-0.5,0.1l-0.6-0.2c0,0-0.1,0.1-0.2,0.1
				c-0.1,0-0.1,0-0.2,0l0,0c-0.1,0-0.2-0.1-0.3-0.2c-0.1-0.1-0.1-0.2-0.1-0.3c0-0.1,0-0.2,0-0.4c0-0.1,0-0.2,0-0.2l0,0l-0.1-0.1
				c0,0,0-0.1,0-0.1l0,0h0h0c0,0,0-0.1,0-0.1c0,0,0,0,0-0.1l0,0l0-0.3l-0.1,0.1c0,0-0.1,0-0.1,0l0,0v-0.1c0-0.2,0-0.5,0.1-0.7
				c0.1-0.2,0.1-0.4,0.1-0.3l0,0h0.2c0-0.1-0.1-0.1-0.2-0.1c-0.1,0-0.1,0-0.1-0.2l0,0c0-0.1,0.1-0.2,0.2-0.2c0.2,0,0.3,0,0.3,0l0,0
				c0,0,0,0,0,0.1l0,0l0.1-0.1c0,0,0,0,0-0.1c0,0,0-0.1,0-0.1l0,0v-0.3c-0.1,0-0.2,0.1-0.2,0c0,0-0.1,0-0.3,0.1l0,0v-0.1
				c0-0.2,0.1-0.2,0.2-0.2l0,0h0.1v-0.2c-0.1,0-0.2,0-0.2,0.1c0,0.1-0.1,0.1-0.2,0.1l0,0c0-0.1,0-0.2,0-0.4c0-0.2,0.1-0.3,0.2-0.3
				l0,0v-0.4c0,0-0.1,0.1-0.1,0.1l0,0h-0.1c0-0.1,0.1-0.3,0.1-0.4l0,0v-0.1c0,0-0.1,0.1-0.1,0.3c0,0.1-0.1,0.2-0.1,0.3l0,0v-0.1
				c0-0.1,0-0.2,0-0.4c0-0.2,0-0.3,0-0.3l0,0l0.1-0.2l0.1,0.1l0.2-0.4h0.1c0,0,0-0.1,0-0.1c0,0,0-0.1,0-0.1l0,0v-0.1l-0.1,0.1
				l-0.2-0.2c0-0.1,0-0.2,0.1-0.3c0-0.1,0.1-0.2,0.1-0.3l0,0c0-0.2,0.1-0.5,0.2-0.7c0.1-0.2,0.1-0.4,0.2-0.6
				c0.1-0.2,0.1-0.5,0.1-0.8c0-0.3,0.1-0.6,0.1-1l0,0v-0.2h-0.2c0,0,0-0.1-0.1-0.1l0,0c0,0,0-0.1,0.1-0.2c0.1-0.1,0.1-0.2,0.1-0.2
				l0,0c0-0.1,0-0.1,0-0.2l0,0c0-0.1,0-0.1,0-0.2c0-0.1,0.1-0.1,0.2-0.3c0.1-0.1,0.2-0.3,0.3-0.5c0.1-0.2,0.2-0.6,0.4-1l0,0H380
				l0.2-0.5c0-0.1,0.1-0.3,0.2-0.6c0.1-0.3,0.2-0.5,0.3-0.6l0,0l0.1,0.1c0,0,0,0,0.1,0c0.1,0,0.2,0,0.2-0.1l0,0
				c0.2,0.2,0.4,0.3,0.5,0.4c0.2,0.1,0.4,0.2,0.5,0.2c0.2,0.1,0.3,0.1,0.4,0.2c0.1,0.1,0.2,0.2,0.3,0.4l0,0c0,0-0.1,0.2-0.1,0.3
				c0,0.2-0.1,0.4-0.1,0.6c0,0.2-0.1,0.4-0.1,0.5s0,0.2,0,0.1l0,0h0.1c0.1,0,0.1,0,0.2,0c0.1,0,0.2,0,0.2,0l0,0
				c0.3-0.1,0.6-0.2,0.8-0.3c0.2-0.1,0.4-0.1,0.6-0.2c0.2,0,0.3-0.1,0.5-0.2c0.1-0.1,0.3-0.2,0.4-0.3l0,0c0.1,0,0.1,0,0.2,0l0,0
				c0.1,0,0.1,0,0.2-0.1c0,0,0.1-0.1,0.1-0.1c0.1,0,0.1-0.1,0.2-0.1c0.1,0,0.3-0.1,0.5-0.1l0,0c0,0,0.2,0,0.4,0.1
				c0.3,0.1,0.5,0.3,0.7,0.6l0,0c-0.1,0-0.2,0.2-0.3,0.5c-0.1,0.3-0.2,0.6-0.2,1c-0.1,0.4-0.1,0.7-0.2,1.1c0,0.4-0.1,0.7-0.1,0.9
				l0,0c-0.1,0.4-0.2,0.7-0.3,0.8c-0.1,0.1-0.1,0.2-0.1,0.3l0,0c0,0.1,0,0.1,0.1,0.2s0.2,0.1,0.3,0.2s0.2,0.1,0.3,0.2
				c0.1,0.1,0.2,0.1,0.2,0.2l0,0c0.1,0.1,0.1,0.2,0.2,0.3c0.1,0.2,0.1,0.2,0.1,0.3l0,0v0.6c0,0.2,0,0.5,0,0.9s0,0.6-0.1,0.9l0,0
				c-0.1,0-0.1,0.1-0.1,0.3c0,0.2,0,0.3,0,0.4l0,0l-0.1,0.2h0.1l-0.3,0.4l0,0.6c0,0.4-0.1,0.8-0.3,1.2c-0.2,0.3-0.3,0.7-0.3,1.1l0,0
				h-0.2l-0.3,0.2l-0.2,0L385.5,215.7z M381.3,213.8l0.2,0.1l0.1,0.1c0.3,0,0.6,0.1,1,0.1s0.6,0.1,0.9,0.1l0,0c0.2,0,0.6,0,1-0.1
				s0.7-0.1,1-0.3l0,0c0,0,0-0.1,0-0.3c0-0.1,0-0.3,0.1-0.4l0,0v0c0-0.1,0-0.2,0.1-0.3c0-0.1,0.1-0.2,0.1-0.3l0,0l0.1,0l-0.1-0.3
				c0-0.4,0-0.8,0.1-1.2s0.1-0.8,0.2-1.2l0,0c0-0.1-0.1-0.2-0.3-0.2c-0.2,0-0.3,0-0.4,0l0,0c-0.5,0-1.1,0.1-1.8,0.4
				c-0.6,0.3-1.2,0.5-1.7,0.9l0,0l-0.2,0c0,0-0.1,0.1-0.1,0.3c0,0.2-0.1,0.2-0.1,0.2l0,0h0l-0.2,0.6c0,0.3,0,0.6-0.1,0.8
				c0,0.3-0.1,0.5-0.1,0.8l0,0c0,0.1,0,0.2,0.1,0.2l0,0L381.3,213.8z M385.2,207.5l0.2-1c0,0,0,0,0,0l0,0c0-0.1,0.1-0.3,0.2-0.7
				c0.1-0.4,0.2-0.7,0.2-1.1l0,0c0-0.1,0-0.2-0.1-0.2l0,0c-0.5,0.2-1,0.4-1.5,0.6s-0.9,0.4-1.3,0.7l0,0l-0.4,0.3
				c-0.2,0.3-0.4,0.5-0.5,0.7c-0.1,0.2-0.1,0.3-0.1,0.5l0,0l0.1-0.1c0,0.2-0.1,0.4,0,0.5c0,0.1,0,0.2-0.2,0.4l0,0l-0.1,0h0.2v0.2
				c0,0,0,0.1,0,0.2s0,0.2,0,0.2l0,0c0,0.1,0,0.1,0,0.2c0,0,0,0.1,0,0.1l0,0c0,0.1,0,0.2-0.1,0.2l0,0h0.1c0,0,0.1,0,0.1,0
				s0.1,0,0.2,0l0,0c0,0,0.1,0,0.1,0l0,0c0.3-0.2,0.6-0.3,1-0.4s0.7-0.3,1-0.5l0,0l0.1-0.1c0.1,0,0.2-0.1,0.4-0.1
				C385,207.8,385.1,207.7,385.2,207.5L385.2,207.5z M389.6,212.6l0.1-0.2c0,0,0-0.1,0-0.1s0-0.1,0.1-0.1l0,0l0.1-0.1
				c0-0.3,0.1-0.6,0.3-1.1c0.2-0.4,0.4-0.7,0.7-0.9l0,0l0.2-0.1c0,0,0.1-0.1,0.1-0.1c0-0.1,0-0.1,0-0.2l0,0l0.1-0.2
				c0.2-0.2,0.3-0.5,0.5-0.7c0.2-0.2,0.4-0.4,0.6-0.6s0.4-0.3,0.5-0.4c0.2-0.1,0.3-0.2,0.4-0.2l0,0c0,0,0.1,0,0.1,0
				c0,0,0.1,0.1,0.3,0.1l0,0l0.3,0.4c0.1,0,0.2,0.1,0.2,0.2l0,0l0.1,0.2v0.5l0.1,0.1c0,0,0.1,0.1,0.1,0.1c0,0,0.1,0.1,0.1,0.1l0,0
				l0.4,0.2c0,0.1,0.1,0.2,0.2,0.3s0.2,0.2,0.3,0.4l0,0l0.4,0.5c0,0.1,0.1,0.2,0.1,0.3c0,0.2,0.1,0.3,0.1,0.5s0.1,0.4,0.1,0.5
				c0,0.2,0,0.3,0,0.3l0,0v0.2l-0.3,0.6l0,0.2l-0.3,0.3l-0.5,0.4c-0.1,0.1-0.2,0.1-0.4,0.1c-0.2,0-0.3,0.1-0.4,0.2l0,0l-0.2,0.1
				c-0.1,0.1-0.2,0.1-0.3,0.1l0,0c0,0,0,0,0,0c0,0,0,0,0,0l0,0l-0.4,0.1c-0.1,0.1-0.3,0.1-0.5,0.1l0,0c-0.1,0-0.3,0-0.3,0l0,0
				l-0.7-0.2l-0.7-0.2c-0.3-0.1-0.5-0.2-0.7-0.2s-0.3-0.3-0.5-0.6l0,0c0-0.1-0.1-0.2-0.1-0.3c0-0.1-0.1-0.2-0.1-0.2l0,0L389.6,212.6
				z M392.1,212.7l0,0.7l0.2,0c0.2,0,0.4-0.1,0.6-0.1c0.2,0,0.4-0.1,0.5-0.1l0,0l0.3-0.2l0.2-0.3l0.1-0.3l-0.4-1.4l-0.5-0.2
				l-0.1,0.1c0,0-0.1,0.1-0.2,0.2c-0.1,0.1-0.2,0.3-0.3,0.5s-0.2,0.4-0.3,0.6S392.2,212.5,392.1,212.7L392.1,212.7z M391.2,210.8
				l-0.2-0.1c-0.1,0.1-0.2,0.3-0.4,0.5s-0.2,0.5-0.2,0.7l0,0c0,0.1,0,0.1,0,0.2l0,0l0.1-0.2l0.5-0.9
				C391.1,211,391.2,210.9,391.2,210.8L391.2,210.8z M398.1,212.5L398,212l0.3-0.8c0,0,0-0.1,0-0.1c0,0,0-0.1,0-0.1l0,0
				c0-0.2,0-0.4,0.1-0.6c0.1-0.2,0.2-0.5,0.3-0.7c0.1-0.3,0.3-0.5,0.4-0.8c0.2-0.3,0.3-0.5,0.4-0.7l0,0c0,0,0,0,0-0.1l0,0
				c0-0.1,0-0.2,0.1-0.2c0.1-0.1,0.1-0.1,0.2-0.1l0,0c0.2,0,0.4,0,0.6,0.1c0.2,0.1,0.4,0.2,0.6,0.3s0.4,0.3,0.5,0.5
				c0.1,0.2,0.2,0.4,0.2,0.6l0,0l-0.1,0.2l2.4-1h0.5c0,0,0-0.1,0.1-0.1s0.1,0,0.1,0l0,0c0.1,0,0.2,0,0.3,0.1c0.1,0,0.1,0.1,0.2,0.2
				l0,0l0.4,0.1c0.1,0,0.2,0.1,0.4,0.2c0.2,0.1,0.3,0.2,0.3,0.2l0,0v0.5h-0.1l0,0.1c0,0,0,0,0,0l0,0h0.1c0,0,0,0,0.1,0l0,0v0.1
				l-0.1,0.1c0,0.2,0,0.3,0.1,0.3l0,0c0,0.2,0,0.5-0.1,0.8s-0.2,0.5-0.3,0.6l0,0h0.2c0,0-0.1,0.1-0.1,0.2l0,0c0,0.1,0,0.1,0,0.1
				c0,0,0,0,0,0l0,0c0,0.2,0,0.3-0.1,0.5c-0.1,0.2-0.1,0.3-0.1,0.4l0,0l-0.1,0.5c0,0.2-0.1,0.3-0.1,0.4c-0.1,0.1-0.1,0.3-0.1,0.5
				l0,0l0.1,0.2c0,0.1,0,0.1-0.1,0.2c-0.1,0.1-0.1,0.2-0.1,0.3l0,0c0,0.2,0,0.3,0.1,0.4l0,0v0.1l-0.2,0.1l-0.1,0.2
				c-0.1,0-0.2,0.1-0.2,0.1s-0.1,0.1-0.1,0.1c0,0-0.1,0-0.1,0s-0.2,0-0.4,0l0,0c-0.2,0-0.4-0.1-0.5-0.2c-0.1-0.2-0.2-0.4-0.3-0.6
				c-0.1-0.2-0.1-0.4-0.1-0.7c0-0.2,0-0.4,0-0.5l0,0c0-0.3,0-0.6,0-0.8s0-0.4,0-0.6c0-0.2,0-0.4,0-0.6c0-0.2,0.1-0.5,0.1-0.8l0,0
				c0-0.1,0-0.2,0-0.4c0-0.2,0-0.3,0-0.4l0,0l-0.3,0.1c-0.5,0.2-0.9,0.5-1.4,0.8s-0.7,0.7-0.8,1.1l0,0l-0.1,0.3l0.1,0.1
				c0,0.1-0.1,0.2-0.1,0.2c0,0.1,0,0.2,0,0.4l0,0l0.2-0.2v0c0,0.3-0.1,0.5-0.3,0.6c-0.2,0.1-0.3,0.3-0.3,0.5l0,0l0.2,0.8l-0.1,0.8
				h-0.3c0,0-0.1,0.1-0.2,0.1c-0.1,0.1-0.1,0.1-0.2,0.1l0,0l-1.5-0.2l-1-0.5l0.3-0.4c0,0-0.1,0.1-0.1,0.1l0,0h0c-0.1,0-0.1,0-0.1,0
				l0,0c0-0.1,0-0.2,0.1-0.2l0,0l0.1,0.1l0.5-0.6c0-0.1,0-0.1-0.1-0.2l0,0c-0.1,0.1-0.1,0.1-0.1,0.1s-0.1,0-0.3,0l0,0
				c0-0.2,0-0.4,0.1-0.5c0.1-0.1,0.1-0.2,0.1-0.4l0,0h-0.1c0,0-0.1,0-0.2-0.1l0,0c0,0-0.1,0-0.1,0c0,0-0.1,0-0.1,0l0,0
				c0-0.1,0.1-0.2,0.2-0.3S398.1,212.5,398.1,212.5L398.1,212.5z M398.4,213.7L398.4,213.7c0.1,0,0.1,0,0.1-0.1c0-0.1,0-0.3,0.1-0.5
				l0,0c-0.1,0-0.1,0.1-0.2,0.2C398.4,213.4,398.4,213.5,398.4,213.7L398.4,213.7C398.4,213.7,398.4,213.7,398.4,213.7z M398.1,213
				l0-0.2H398v0C398,212.9,398,212.9,398.1,213L398.1,213z M398.1,213.6L398.1,213.6l0.1-0.1C398.1,213.4,398.1,213.4,398.1,213.6
				L398.1,213.6C398.1,213.5,398.1,213.5,398.1,213.6C398.1,213.5,398.1,213.5,398.1,213.6L398.1,213.6z M398.2,212.6L398.2,212.6
				l0.1-0.1L398.2,212.6z M411,212.3L411,212.3c0.2-0.1,0.2-0.1,0.3-0.2c0.1-0.1,0.1-0.1,0.2-0.2c0-0.1,0.1-0.1,0.1-0.2
				c0.1-0.1,0.1-0.1,0.2-0.1l0,0c0.3,0,0.5-0.1,0.7-0.3s0.4-0.7,0.4-1.5l0,0v-0.6c0-0.1,0-0.2-0.1-0.3c-0.1-0.1-0.1-0.1-0.2-0.1l0,0
				c0,0-0.1,0.1-0.2,0.1c-0.1,0.1-0.3,0.1-0.4,0.2c-0.1,0.1-0.3,0.2-0.4,0.3c-0.1,0.1-0.3,0.2-0.3,0.3l0,0v0.3
				c0,0.3-0.1,0.7-0.2,1.1c-0.1,0.4-0.2,0.8-0.2,1.1l0,0H411z M415.4,211.1v0.2l-0.4,0.5l-0.2,0.1c-0.2,0.1-0.4,0.2-0.6,0.3
				c-0.2,0.1-0.4,0.2-0.6,0.3l0,0l-0.1,0.1h-0.2c-0.1,0-0.2,0-0.2,0.1c0,0.1-0.1,0.1-0.2,0.2l0,0c-0.2,0-0.4,0.1-0.4,0.1
				c-0.1,0-0.1,0.1-0.1,0.1l0,0c0,0,0,0.1,0,0.1l0,0c0,0,0,0-0.1,0.1c-0.1,0-0.1,0-0.2,0c-0.1,0-0.2,0-0.2,0c-0.1,0-0.1,0-0.1,0l0,0
				h-0.2c-0.1,0.1-0.2,0.1-0.5,0.1c-0.3,0-0.5,0.1-0.6,0.2l0,0l0.2,0.7c0.1,0,0.2,0.1,0.4,0.1c0.2,0,0.4,0.1,0.5,0.1
				c0.2,0,0.4,0,0.5,0c0.2,0,0.3,0,0.4,0l0,0c0.3,0,0.6,0,0.8,0s0.6,0,0.9,0l0,0c0.3,0,0.6,0,0.8,0.1c0.3,0.1,0.5,0.2,0.8,0.3l0,0
				v0.2c0,0.1,0,0.2,0,0.4c0,0.1,0,0.2-0.1,0.3l0,0l-0.1,0.1c0,0-0.1,0-0.2,0.1s-0.3,0.1-0.5,0.1c-0.2,0-0.4,0.1-0.6,0.1
				c-0.2,0-0.3,0-0.4,0l0,0c-0.4,0-0.8,0-1.2,0c-0.4,0-0.8,0-1.2,0l0,0c-0.3,0-0.6-0.1-1-0.2c-0.4-0.1-0.7-0.2-1-0.4
				c-0.3-0.2-0.6-0.4-0.8-0.7c-0.2-0.3-0.4-0.6-0.4-0.9l0,0l0.1-0.2c0,0,0-0.1,0-0.2s0-0.3,0.1-0.4l0,0v-0.3h0.2l0,0
				c0-0.1,0-0.2,0-0.2l0,0c0,0,0,0,0-0.1c0,0,0-0.1,0-0.1l0,0c0,0,0-0.1,0.1-0.1l0,0l0-0.4c0-0.1,0-0.2,0-0.3c0-0.1,0.1-0.2,0.1-0.4
				l0,0l0.1-0.1c0-0.1,0-0.2-0.1-0.2l0,0c0.1,0,0.1-0.1,0.1-0.2c0-0.1,0.1-0.2,0.1-0.2l0,0c0,0,0,0,0,0c0,0,0,0,0,0l0,0l0.1,0.1
				c0,0,0,0,0,0l0,0h0.1c0.1,0,0.1,0,0.1-0.1l0,0c0-0.1,0-0.2-0.1-0.3c-0.1-0.1-0.1-0.2-0.1-0.3l0,0c0,0,0-0.1,0-0.1l0,0
				c0,0,0-0.1,0-0.1c0,0,0,0,0-0.1l0,0l0.1,0c0.1-0.3,0.3-0.5,0.4-0.7c0.2-0.2,0.3-0.3,0.5-0.5l0,0l0.2-0.1c0.3-0.2,0.6-0.4,0.8-0.6
				c0.3-0.2,0.6-0.3,0.9-0.3l0,0c0.3,0,0.7,0,1.1,0.1c0.4,0.1,0.8,0.1,1.1,0.1l0,0c0.5,0.2,0.8,0.4,0.8,0.4c0.1,0.1,0.1,0.1,0.2,0.1
				l0,0l0,0.3l0.2,0.2l0.1,0.2l-0.2,0.3l0.2,0.2l-0.2,0.3c0,0-0.1,0.1-0.1,0.2s0,0.1,0,0.2l0,0l0,0l0,0.2l-0.1,0.3l0.2,0.1v0.2
				L415.4,211.1L415.4,211.1z M415.5,210.1L415.5,210.1L415.5,210.1c0.1,0,0.1,0,0.1,0.1l0,0c0,0.1,0,0.1-0.1,0.1l0,0
				C415.4,210.3,415.4,210.3,415.5,210.1L415.5,210.1C415.4,210.1,415.4,210.1,415.5,210.1z M415.6,210.5L415.6,210.5
				c0,0.1,0,0.1-0.1,0.1l0,0c0,0-0.1,0-0.1-0.1l0,0C415.5,210.5,415.5,210.4,415.6,210.5L415.6,210.5
				C415.5,210.4,415.6,210.5,415.6,210.5z M421.8,212.6l-0.5,0.7c-0.1,0.1-0.2,0.3-0.3,0.4c-0.1,0.1-0.2,0.2-0.2,0.2l0,0v0.1
				c0.1,0,0.2,0,0.4,0s0.3,0,0.4,0l0,0l0.2-0.1l0.3,0.1l0.1,0.2l0.1-0.1l0-0.1l0.2-0.1l0.2,0.2l0.6,0.2l0.1,0l-0.1,0.1l0.1,0.1
				l0.2,0l0-0.1l0.6,0.2h0.5c0.1,0,0.2,0,0.4,0c0.2,0,0.3,0,0.5,0.1c0.2,0,0.3,0.1,0.4,0.1c0.1,0,0.2,0,0.2,0l0,0l0.3,0.1l0.7,0.4
				l-0.3,0.6l0.1,0.1l-0.1,0.1c-0.1,0-0.3,0.1-0.4,0.1s-0.2,0-0.4,0l0,0c-0.1,0-0.2,0-0.2,0c-0.1,0-0.2,0-0.2,0l0,0
				c-0.1,0-0.1,0-0.2,0l0,0c-0.4,0-0.8-0.1-1.2-0.1c-0.4,0-0.7,0-1.1,0l0,0c-0.6,0-1.1,0-1.6,0c-0.5,0-1.1,0-1.7,0l0,0
				c-0.2,0-0.4,0-0.7,0c-0.2,0-0.4,0-0.7,0l0,0l-0.6-0.6c0,0-0.1-0.1-0.1-0.3c-0.1-0.1-0.1-0.2-0.1-0.3l0,0l-0.1-0.3v-0.9l0.1-0.3
				h0.1l0.5-0.5h0.1l1.2-1.4v0c0-0.1,0.1-0.2,0.2-0.2l0,0l-0.1-0.1c0.1-0.1,0.3-0.3,0.4-0.4c0.2-0.1,0.4-0.3,0.6-0.5
				c0.2-0.2,0.5-0.5,0.8-0.7s0.6-0.7,0.9-1.1l0,0l-1.2,0.1c-0.1,0-0.2,0-0.3,0c-0.1,0-0.3,0.1-0.5,0.1l0,0h-0.7
				c-0.2,0-0.4-0.1-0.6-0.3c-0.2-0.2-0.4-0.4-0.4-0.6l0,0l-0.1-0.2c0,0,0-0.1,0-0.1c0-0.1-0.1-0.1-0.1-0.1l0,0c0-0.1,0-0.1,0.1-0.2
				l0,0l0.2-0.1c0.4,0,0.7,0,1,0s0.6-0.1,0.8-0.1c0.3-0.1,0.5-0.1,0.8-0.1c0.3,0,0.6,0,0.9,0l0,0h0.5c0.1,0,0.1,0,0.2,0
				c0.1,0,0.2,0,0.3,0l0,0l1.7,0.4c0,0,0.1,0.1,0.2,0.1c0.1,0,0.2,0.1,0.4,0.3l0,0l-0.1,0.5c0,0.1-0.1,0.3-0.3,0.6
				c-0.2,0.3-0.4,0.5-0.5,0.6l0,0l-0.5,0.6c-0.1,0.1-0.1,0.1-0.2,0.1l0,0l-0.4,0.2l-0.2,0.3c-0.1,0.2-0.2,0.3-0.2,0.4
				s-0.1,0.2-0.3,0.3l0,0l0.1,0.1l-0.7,0.7l0-0.2l-0.2,0.5L421.8,212.6z"/>
		</g>
	</g>
	<g transform="rotate(0 168.22129999999999 0)">
		<g transform="matrix(1 0 0 1 0 0)">
			<g>
				<path class="st0" d="M169.8,95.5C173,90,180,88,185.6,91l0.4,0.2l33.9,19.7c11.9,6.9,19.4,19.6,19.7,33.4l0,0.8v22l-52-30
					c-11.8-6.8-19.2-19.3-19.4-32.9l0-0.8v-1.9C168.2,99.4,168.8,97.3,169.8,95.5z M314.5,95.5c1,1.8,1.6,3.9,1.6,5.9v1.9
					c0,13.9-7.4,26.7-19.4,33.7l-52,30v-22c0-14.1,7.5-27.1,19.7-34.2l33.9-19.7C304,87.9,311.3,89.8,314.5,95.5z M244.1,0v22.1
					c0,14.1-7.5,27.2-19.7,34.2l-55.1,31.8v-22c0-14.1,7.5-27.1,19.7-34.2L244.1,0z"/>
				<path class="st2" d="M219.9,110.9L186,91.2c-5.7-3.3-12.9-1.4-16.2,4.3c-1,1.8-1.6,3.9-1.6,5.9v1.9c0,13.9,7.4,26.7,19.4,33.7
					l52,30v-22C239.6,131,232.1,117.9,219.9,110.9z"/>
				<path class="st3" d="M264.4,110.9l33.9-19.7c5.7-3.3,12.9-1.4,16.2,4.3c1,1.8,1.6,3.9,1.6,5.9v1.9c0,13.9-7.4,26.7-19.4,33.7
					l-52,30v-22C244.8,131,252.3,117.9,264.4,110.9L264.4,110.9z"/>
				<path class="st4" d="M276.6,43.1V20.6l20.1,11.7c12.2,7.1,19.7,20.1,19.6,34.2l0,22.2l-19.8-11.3
					C284.2,70.4,276.6,57.3,276.6,43.1z"/>
			</g>
		</g>
	</g>
</g>
</svg>
