<?xml version="1.0" encoding="utf-8"?>
<!-- Generator: Adobe Illustrator 24.2.1, SVG Export Plug-In . SVG Version: 6.00 Build 0)  -->
<svg version="1.1" id="Layer_1" xmlns="http://www.w3.org/2000/svg" xmlns:xlink="http://www.w3.org/1999/xlink" x="0px" y="0px"
	 viewBox="0 0 649 108.4" style="enable-background:new 0 0 649 108.4;" xml:space="preserve">
<style type="text/css">
	.st0{fill:#E5E5E5;}
	.st1{fill:#E9E41D;}
</style>
<g>
	<g transform="rotate(0 0 12)">
		<g transform="matrix(1 0 0 1 0 0)">
			<g>
				<path class="st0" d="M77.4,41.4c-0.2-0.5-0.3-1.1-0.5-1.6c-1.1-3.4-2.4-7.6-4.3-10.3c-1.1-1.5-3.6-1.4-6.4-1.1
					c-1.2-0.9-2.4-1.8-3.6-2.7c-0.4-0.3-0.7-0.5-1.1-0.8c-1.4-1-2.4-3.3-3.4-5.5c-1.3-2.9-2.7-5.9-4.9-6.6c-2.9-1-7.2-0.8-10.9-0.7
					c-1.1,0-2.1,0.1-3,0.1c-1.6,0-2.9,1.4-4.1,3.2c-0.2,0-0.4,0-0.6,0c-1.5,0-3.2,0.4-4.8,0.9c-1,0.1-1.9,0.2-2.7,0.5
					c-1.7,0.5-3.4,1.5-5,2.6l0,0c-0.6,0.2-1.1,0.6-1.5,1.1c-0.7,0.5-1.3,1-1.9,1.5c-0.6,0.4-1.2,0.9-1.8,1.3
					c-1.5,1.1-1.8,3.3-1.9,5.5c-0.3,0.1-0.5,0.2-0.8,0.3c-2.2,1-4.6,2-6,4c-0.3,0.4-0.6,0.8-0.8,1.2c-2.5,0.7-4.8,1.6-5.5,3.5
					C0.2,41.4,0,47.3,0,52.5c0,1.8,1.5,3.3,3.5,4.6c0.5,1,1.2,1.9,1.9,2.8C5.7,60.3,6,60.6,6.2,61c-0.5,1.7-0.8,3.4-0.2,5.3
					c0.7,2.1,1.3,3.9,2.2,5.7c0.1,1.2,0.4,2.4,1.1,3.4c0.9,1.2,1.5,2.9,2.2,4.6c0.9,2.5,1.9,5.1,3.8,6.5c0.6,0.5,1.4,0.8,2.2,1.1
					c0.9,0.9,1.7,1.9,2.6,3.1c1.7,2.2,3.6,4.6,5.9,5.3c0.8,0.3,1.7,0.4,2.7,0.4c1.7,0,3.6-0.3,5.4-0.7c1.7-0.3,3.5-0.7,5.1-0.7
					c2.4,0,4.3-2.1,6-4.1c1.4-1.5,2.8-3.1,4.3-3.6c4-1.3,6.4-2.1,9.6-4.4c3.3-2.4,5.2-4.3,7.5-7.5c1.7-2.4,2.3-4.4,2.9-6.9
					c0.2-0.9,0.5-1.9,0.8-2.9c0.4-1.4,1.1-2.6,1.8-3.7c1.1-2,2.1-3.8,2.1-6.4c0-1.7,0.5-3.4,1-5.1c0.6-1.9,1.2-3.9,1-5.7
					C77.3,43.5,77.7,42.4,77.4,41.4L77.4,41.4z M39.2,12.7c0.9,0,1.9,0,3-0.1c1.2,0,2.4-0.1,3.6-0.1c2.6,0,5.2,0.1,7.1,0.8
					c2,0.6,3.3,3.5,4.5,6.3c1.1,2.4,2.1,4.7,3.6,5.8c0.4,0.3,0.7,0.5,1.1,0.8c1,0.7,2.1,1.5,3.1,2.3c-0.2,0-0.5,0.1-0.7,0.1
					c-1.5,0.2-2.9,0.4-4.2,0.4c-2.7-2.6-5.9-4.5-10.3-6.3c-0.4-0.2-0.9-0.4-1.3-0.5c-1.1-0.5-2.3-1-3.4-1.4
					c-0.2-0.2-0.3-0.4-0.5-0.5c-1.7-1.9-3.4-3.9-5.7-3.9c-0.3,0-0.6,0-0.9,0c-0.8-0.4-1.6-0.7-2.4-0.9C36.9,13.9,38,12.7,39.2,12.7z
					 M72.9,47.5c-2.1,2.1-4.3,4.3-4.3,6.2c0,1.3,0.1,2.4,0.2,3.5c0.1,0.7,0.1,1.3,0.2,1.9c-1.6,1.5-3.2,3-3.9,4.6
					c-0.7,1.7-0.9,3.7-1,5.7c-0.2,2.8-0.4,5.4-2.1,7.1c-0.3,0.1-0.5,0.3-0.8,0.4c-1.2,0.6-2.5,1.2-3.7,2c-2.5,1.8-4.5,2.4-7.3,3.3
					c-0.5,0.2-1.1,0.3-1.6,0.5c-1.2,0.4-2.2,0.8-3.2,1.3c-2,0.9-3.8,1.7-6.3,1.7c-1.7,0-3.5,0.8-5.2,1.6c-1-0.8-1.9-1.9-2.8-2.9
					c-1.6-1.8-3.2-3.5-4.9-4.2c-1-0.4-2.1-0.8-3.1-1.2c-2.7-1-5.3-1.9-7.5-3.9c0.7,0,1.5,0,2.3,0c2.1-0.1,4.4-0.1,5.8,0.5
					c0.9,0.4,1.9,0.9,2.8,1.3c2.5,1.3,5.1,2.5,8.1,2.5c1,0,2.1,0.1,3.2,0.1c1.1,0.1,2.3,0.1,3.4,0.1c2,0,3.9-0.2,5.6-0.9
					c2.2-0.9,3.4-3.4,4.6-5.8c0.8-1.6,1.6-3.2,2.7-4.3c1.7-1.7,2-3.8,2.2-5.9c0.2-1.4,0.4-2.8,0.9-4.2c0.6-1.4,1.7-2.5,2.8-3.6
					c1.6-1.6,3.3-3.3,3.3-5.7c0-4.7-0.6-8.1-1.8-11.2c-1.8-4.3-3.7-7.3-6.1-9.7l-0.1-0.1c-0.9-0.9-1.7-1.7-2.6-2.5
					c1.4,0.8,2.7,1.7,4.3,2.9l0.1,0.1c0.7,0.5,1.7,0.7,2.9,0.7c0.1,0.1,0.2,0.2,0.3,0.2c1.3,1.3,3.1,2.2,5,3.3
					c2.7,1.4,5.5,2.9,6.5,5.3c0.9,2.1,1.4,4.9,1.7,8.6C73.3,47.2,73.1,47.4,72.9,47.5L72.9,47.5z M73.5,47.8c0.1,1.4,0.1,3,0.1,4.7
					c0,2.3-2,4.3-4,6.2c0-0.5-0.1-1-0.1-1.4c-0.1-1.1-0.2-2.2-0.2-3.5c0-1.7,2.1-3.8,4.1-5.8C73.4,48,73.5,47.8,73.5,47.8z
					 M69.1,60.1c0,1-0.1,2.1-0.5,3.2c-0.5,1.5-0.6,3-0.7,4.4c-0.1,2.1-0.3,4-1.5,5.7c-0.8,1.1-1.8,1.9-3,2.5
					c1.1-1.8,1.2-4.1,1.4-6.4c0.1-1.9,0.3-3.9,1-5.5C66.3,62.7,67.6,61.4,69.1,60.1z M60.6,78.1c-3.1,2.8-6.5,5.1-9.6,6.4
					c-1,0.4-2.2,1-3.3,1.6c-3.1,1.5-6.7,3.3-9.9,3.3c-1.2,0-2.2-0.5-3.3-1.3c1.6-0.7,3.2-1.4,4.7-1.4c2.7,0,4.6-0.8,6.6-1.7
					c1-0.4,2-0.9,3.1-1.2c0.6-0.2,1.1-0.4,1.6-0.5c2.8-0.9,4.9-1.5,7.5-3.4C58.8,79.1,59.7,78.6,60.6,78.1z M11.9,63.8
					c0.5,1.5,0.6,3.1,0.7,4.7c0.1,2.2,0.3,4.4,1.5,6.2c-1.4-0.1-2.7-0.4-3.5-1.2c-1.3-1.3-0.4-4.4,0.6-7.4
					C11.4,65.3,11.7,64.6,11.9,63.8z M11.6,62c-0.9-1.1-2.5-2.1-4.1-3.2c0.2-0.9,0.4-1.9,0.5-3c1.7,1,3.1,2,3.6,3.1
					C11.9,59.8,11.8,60.9,11.6,62z M13.2,68.5c-0.1-1.8-0.2-3.7-0.9-5.4c0-0.1-0.1-0.2-0.1-0.3c0.3-1.5,0.5-2.9,0-3.9
					c-0.6-1.4-2.3-2.5-4.2-3.6c-0.1-1.8-1.2-3.6-2.3-5.3c-0.1-0.2-0.2-0.4-0.3-0.5c0.3-0.3,0.6-0.6,0.9-1l0.2-0.2
					c0.5,2.4,2.6,4.6,4.7,6.7c1.3,1.3,2.5,2.6,3.3,3.9c0.2,0.3,0.4,0.7,0.6,1c1.9,3.3,3.9,6.8,7.3,8.7l0.7,0.4
					c3.3,1.9,7.5,4.4,11.7,4.4c3,0,5.5-2.1,7.8-4c1.2-1,2.3-1.9,3.4-2.6c2.6-1.5,3.5-3.8,4.5-6.1c0.5-1.1,0.9-2.2,1.6-3.4
					c0.7-1.2,1.7-2.3,2.6-3.3c1.7-1.9,3.5-3.8,3.5-6.7c0-1.3,0.2-2.8,0.3-4.2c0.4-3.3,0.8-6.6-0.7-9.2c-1.4-2.4-4.4-3.3-7.4-4.1
					c-1.7-0.5-3.4-1-4.7-1.7c-1.2-0.7-2.4-1.7-3.6-2.9c-2.3-2.1-4.6-4.2-7.5-4.2c-0.6,0-1.2,0-1.9,0c0.2-0.4,0.5-0.8,0.7-1.2
					c1.4,0.1,2.9,0.3,4.3,0.3c2.2,0,4.3,0.5,6.2,1.1c0.5,0.3,1,0.6,1.5,0.9c1,1.1,2.1,2,3.3,2.4c0.6,0.2,1.3,0.4,1.9,0.7
					c1.5,1.3,3,2.7,4.4,4.1l0.1,0.1c2.4,2.4,4.2,5.3,5.9,9.5c1.3,3,1.8,6.3,1.8,10.9c0,2.2-1.5,3.7-3.1,5.3c-1.2,1.2-2.4,2.4-3,3.9
					c-0.6,1.5-0.8,2.9-1,4.4c-0.3,2.1-0.5,4-2.1,5.6c-1.1,1.1-2,2.8-2.8,4.5c-1.1,2.3-2.3,4.6-4.3,5.5c-2.5,1-5.7,0.9-8.8,0.7
					c-1.1-0.1-2.2-0.1-3.3-0.1c-2.8,0-5.3-1.3-7.8-2.5c-0.9-0.5-1.9-1-2.9-1.4c-1.1-0.5-2.5-0.6-4-0.6c-0.7,0-1.4,0-2.1,0
					c-1,0-2,0.1-2.9,0C13.5,73.1,13.3,70.9,13.2,68.5L13.2,68.5z M4.6,49.3c-0.7,0.8-1.4,1.7-1.7,2.7c-0.8-0.7-1.3-1.5-1.3-2.4
					c0-3.1,1.6-6.6,3-9.7c0.4-0.8,0.7-1.6,1-2.3c0.1-0.2,0.2-0.4,0.3-0.6c-1.1,2.4-1.9,4.8-2.6,7C2.6,45.6,3.5,47.5,4.6,49.3z
					 M4.9,49.8l0.2,0.4c0.9,1.5,1.9,3,2.1,4.6l-0.4-0.2c-1.3-0.7-2.5-1.4-3.5-2.2C3.7,51.5,4.2,50.6,4.9,49.8z M9.3,44.1
					c0.1-0.3,0.2-0.6,0.3-0.9c0.9-0.7,1.9-1.3,2.9-2c2.1-1.3,4.1-2.5,5-4.1c0.9-1.6,1.1-4,1.2-6.2c0.1-1.2,0.2-2.4,0.4-3.5
					c0.1-0.2,0.2-0.3,0.2-0.5c1.7-1,3.5-1.3,5.5-1.5c1.4-0.2,2.8-0.4,4.4-0.8c1.2-0.4,2.2-1.6,3.2-3.1c0.8,0,1.6,0,2.3,0
					c2.7,0,5,2,7.1,4c1.2,1.1,2.4,2.2,3.7,2.9c1.4,0.8,3.2,1.3,4.9,1.8c2.8,0.8,5.7,1.6,7,3.8c1.4,2.3,1,5.6,0.6,8.8
					c-0.2,1.4-0.3,2.9-0.3,4.3c0,2.7-1.6,4.4-3.4,6.3c-1,1-2,2.1-2.7,3.4c-0.7,1.2-1.2,2.3-1.6,3.4c-1,2.4-1.9,4.5-4.3,5.8
					c-1.2,0.7-2.3,1.6-3.5,2.7c-2.3,1.9-4.6,3.9-7.4,3.9c-4,0-7.9-2.3-11.4-4.3l-0.7-0.4c-3.2-1.9-5.2-5.2-7-8.5
					c-0.2-0.3-0.4-0.7-0.6-1c-0.8-1.3-2-2.6-3.4-4C9.5,52.2,7.3,50,7,47.5C8,46.4,8.8,45.3,9.3,44.1z M7,46.5
					c0.2-0.9,0.8-1.8,1.6-2.6C8.3,44.9,7.7,45.7,7,46.5z M31.6,21.4c-0.8,1.2-1.7,2.2-2.6,2.5c-1.5,0.5-2.9,0.7-4.2,0.8
					c-1.7,0.2-3.4,0.4-5,1.2c0.3-0.6,0.6-1.3,0.9-1.9c0.2-0.1,0.3-0.3,0.5-0.4C23.9,22.1,28,21.6,31.6,21.4z M21.2,22.9
					c0.8-1.4,1.7-2.5,3-3c1.3-0.5,2.8-0.7,4.3-0.7c1.4,0,2.8,0.1,4.2,0.3c-0.3,0.4-0.5,0.9-0.8,1.3C28.4,20.9,24.1,21.3,21.2,22.9z
					 M42.1,18.9c-0.9-0.7-1.8-1.3-2.7-1.9c1.7,0.2,3.2,1.7,4.6,3.2C43.4,19.8,42.8,19.3,42.1,18.9z M47.3,22.7
					c0.5,0.3,1,0.6,1.5,0.9C48.3,23.3,47.8,23,47.3,22.7z M48.9,22.9c0.3,0.1,0.6,0.3,0.9,0.4c4,1.7,7,3.5,9.5,5.7
					c-0.7-0.1-1.4-0.2-1.8-0.6l-0.1-0.1c-2.4-1.7-4.1-3-6.5-4C50.3,23.8,49.6,23.3,48.9,22.9z M35.5,16c0.3,0.1,0.7,0.1,1,0.3
					c-0.3,0-0.6,0-0.9,0c-0.1,0-0.2,0-0.3,0C35.4,16.1,35.4,16,35.5,16z M35.6,16.8c0.9,0.1,1.7,0.1,2.5,0.1
					c1.2,0.7,2.5,1.6,3.7,2.4l0.6,0.4c-1.5-0.4-3-0.6-4.6-0.6c-1.3,0-2.6-0.1-3.9-0.3l0.1-0.2c0.4-0.6,0.7-1.3,1.1-1.9
					C35.2,16.8,35.4,16.8,35.6,16.8z M34.6,15.9c0.1,0,0.1,0,0.2,0c0,0.1-0.1,0.2-0.1,0.2c-0.6,0-1.3-0.1-1.9-0.1
					C33.4,16,34,15.9,34.6,15.9z M21,20.8c0.5-0.3,1-0.7,1.4-1c0.6-0.3,1.2-0.5,1.8-0.8c1.8-0.8,3.8-1.6,5.7-2.3
					c0.6-0.1,1.3-0.1,1.9-0.1c0.8,0,1.6,0,2.4,0.1c-0.3,0.5-0.6,1.1-0.9,1.6l-0.3,0.5c-3.2-0.3-6.5-0.7-9.1,0.5
					c-1.8,0.7-2.9,2.4-3.9,4.3c-0.8,0.7-1.2,1.8-1.5,2.9c-0.1,0.1-0.2,0.1-0.3,0.2c-0.1,0.1-0.2,0.1-0.3,0.2
					c0.2-0.4,0.3-0.9,0.5-1.3C19.2,23.8,19.9,22,21,20.8z M17.2,23.6c0.6-0.4,1.2-0.9,1.8-1.3l0.4-0.3c-0.6,1-1,2.3-1.5,3.5
					c-0.3,0.7-0.5,1.4-0.8,2.1c-0.5,0.3-1,0.5-1.5,0.8C15.7,26.3,16,24.5,17.2,23.6z M15.5,29.8c0-0.2,0-0.5,0-0.7
					c0.4-0.2,0.7-0.3,1.1-0.5c-0.3,0.7-0.7,1.2-1.2,1.7C15.5,30.2,15.5,29.8,15.5,29.8z M15.4,31.1c0.1-0.1,0.3-0.2,0.4-0.4
					c0.7-0.7,1.2-1.7,1.7-2.7c0.3-0.1,0.5-0.3,0.8-0.5c-0.6,1.3-1.3,2.6-2.2,3.4c-0.2,0.2-0.5,0.4-0.8,0.6
					C15.4,31.4,15.4,31.3,15.4,31.1z M15.3,32.4c0.5-0.3,0.9-0.6,1.3-0.9c0.6-0.6,1.1-1.4,1.6-2.3c0,0.6-0.1,1.1-0.1,1.7
					c-0.2,2.2-0.3,4.5-1.2,6c-0.8,1.4-2.7,2.6-4.8,3.9c-0.7,0.4-1.4,0.9-2.1,1.4c0.8-1.8,1.9-3.2,3.1-4.8c0.4-0.5,0.7-1,1.1-1.5
					C14.9,34.8,15.2,33.6,15.3,32.4z M14.7,31.9c-0.6,0.3-1.2,0.5-1.9,0.8c0.7-0.3,1.4-0.7,2-1.1C14.8,31.7,14.8,31.8,14.7,31.9z
					 M8.6,33.3c1.4-1.9,3.5-2.8,5.8-3.8l0.5-0.2l0,0.4c0,0.4,0,0.7,0,1.1c-1.1,0.8-2.5,1.5-4,2.1c-0.6,0.3-1.3,0.6-1.9,0.9
					c-0.2,0.1-0.5,0.1-0.7,0.2C8.3,33.7,8.5,33.5,8.6,33.3z M7.3,35.4c0.6-0.4,1.2-0.7,1.9-1.1c0.2-0.1,0.4-0.1,0.7-0.2
					c1.8-0.4,3.5-0.9,4.9-1.5c-0.1,1-0.4,2-0.9,2.7c-0.4,0.5-0.8,1-1.1,1.5c-1.5,1.9-2.7,3.5-3.6,5.9C7.5,44,6.4,45.3,6.4,47
					c0,0.1,0,0.2,0,0.3c-0.2,0.2-0.4,0.4-0.6,0.6c-0.3,0.3-0.5,0.6-0.8,0.8c-1-1.6-1.7-3.2-1.2-4.7C4.9,40.7,5.9,37.9,7.3,35.4z
					 M0.6,52.5c0-5.2,0.2-11,1.7-14.7c0.6-1.4,2.4-2.3,4.5-2.9c-0.8,0.6-1.5,1.3-1.9,2.3c-0.3,0.7-0.6,1.5-1,2.3
					c-1.4,3.2-3.1,6.8-3.1,10c0,1.2,0.7,2.2,1.8,3.1c-0.1,0.4-0.2,0.8-0.2,1.2c0,0.8,0.2,1.5,0.4,2.2C1.6,54.9,0.6,53.8,0.6,52.5z
					 M3.1,53.8c0-0.3,0-0.5,0.1-0.8c1,0.7,2.2,1.4,3.4,2.1c0.2,0.1,0.5,0.3,0.7,0.4c0,1.1-0.2,2-0.4,3l-0.4-0.2
					c-0.9-0.5-1.8-1.1-2.6-1.6C3.4,55.8,3.1,54.8,3.1,53.8z M5.9,59.5c-0.4-0.5-0.8-1-1.2-1.6c0.5,0.3,1,0.6,1.5,0.9l0.5,0.3
					c-0.1,0.4-0.2,0.7-0.3,1.1C6.3,60,6.1,59.8,5.9,59.5z M8.3,68.9c0,0.5,0,1,0,1.5c-0.6-1.3-1.1-2.7-1.6-4.2c-0.5-1.6-0.3-3,0-4.4
					c0.5,0.7,0.9,1.5,1.2,2.3C8.4,65.4,8.3,67.2,8.3,68.9z M8.9,68.9c0.1-1.7,0.1-3.6-0.4-5.2c-0.3-1-0.9-2-1.6-2.9
					C7,60.7,7,60.5,7.1,60.3c0.1-0.3,0.2-0.5,0.2-0.8c1.8,1.1,3.4,2.2,4.1,3.4c-0.2,1-0.6,2-0.9,3c-0.9,2.8-1.7,5.5-0.9,7.3
					c-0.3-0.5-0.5-0.9-0.8-1.4C8.8,70.9,8.9,69.9,8.9,68.9z M12.2,79.8c-0.7-1.8-1.3-3.5-2.2-4.8c-0.3-0.4-0.5-0.7-0.6-1.2
					c0.5,0.8,1,1.6,1.5,2.3c0.9,1.3,1.5,2.9,2.1,4.5c0.7,1.9,1.4,3.8,2.7,5.3C14,84.7,13.1,82.2,12.2,79.8z M16.9,86.3
					c-1.8-1.3-2.6-3.5-3.4-5.8c-0.6-1.6-1.2-3.3-2.2-4.7c-0.5-0.7-1-1.4-1.4-2.1c0.1,0.1,0.1,0.2,0.2,0.3c1,1,2.7,1.4,4.5,1.5
					c0,0,0.1,0.1,0.1,0.1c2.3,2.3,5.1,3.3,8.1,4.4c1,0.4,2,0.7,3,1.1c1.6,0.7,3.1,2.3,4.7,4c0.9,1,1.8,1.9,2.7,2.8
					c-2,0.9-3.9,1.7-5.6,1.2c-1.4-0.5-3-0.7-4.7-0.9c-1.8-0.2-3.5-0.5-5.1-1C17.6,86.8,17.3,86.5,16.9,86.3z M73.8,55.5
					c0,2.5-1,4.2-2.1,6.1c-0.7,1.2-1.4,2.4-1.8,3.8c-0.3,1.1-0.6,2-0.9,3c-0.6,2.4-1.2,4.4-2.8,6.7c-2.3,3.1-4.1,5-7.4,7.3
					c-3.1,2.3-5.5,3.1-9.4,4.4c-1.7,0.6-3.2,2.2-4.6,3.8c-1.7,1.9-3.4,3.9-5.6,3.9c-1.6,0-3.4,0.3-5.2,0.7c-2.7,0.5-5.6,1-7.8,0.3
					c-2.2-0.7-3.9-2.9-5.6-5.1c-0.6-0.8-1.3-1.6-1.9-2.3c1.3,0.3,2.7,0.5,4.1,0.7c1.7,0.2,3.3,0.5,4.6,0.9c0.4,0.1,0.9,0.2,1.4,0.2
					c1.6,0,3.3-0.8,4.9-1.5c1.2,1,2.5,1.7,3.9,1.7c3.4,0,7-1.8,10.2-3.3c1.2-0.6,2.3-1.1,3.3-1.5c3.7-1.5,7.8-4.4,11.2-7.8
					c1.7-0.8,3.2-1.7,4.4-3.3c1.4-1.9,1.5-3.9,1.6-6.1c0.1-1.4,0.2-2.9,0.7-4.3c0.5-1.5,0.6-2.8,0.6-4c1.6-1.5,3.3-3.1,4.1-4.8
					C73.8,55,73.8,55.2,73.8,55.5z M72.4,38.2c-1-2.5-3.9-4.1-6.7-5.6c-1.8-0.9-3.5-1.9-4.6-3c1.1-0.1,2.4-0.2,3.6-0.4
					c0.4-0.1,0.9-0.1,1.3-0.2c1.5,1.2,2.9,2.6,4,4.1c2.6,3.5,4.5,7.1,5.6,10.5c0.1,0.3,0.1,0.5,0.2,0.8c-0.5,0.6-1.1,1.2-1.7,1.9
					C73.8,42.9,73.2,40.2,72.4,38.2z M74.8,50.3c-0.2,0.6-0.4,1.2-0.5,1.8c0-1.7-0.1-3.3-0.2-4.8c0.6-0.6,1.2-1.2,1.7-1.8
					C75.8,47,75.3,48.6,74.8,50.3z M76.1,43.5c-1.1-3.5-3-7.1-5.7-10.7c-1-1.4-2.3-2.7-3.7-3.8c2.3-0.2,4.4-0.2,5.2,0.9
					c1.8,2.5,3.2,6.7,4.2,10.1c0.2,0.6,0.3,1.1,0.5,1.6c0.2,0.7,0,1.4-0.6,2.3C76.2,43.7,76.2,43.6,76.1,43.5z"/>
			</g>
		</g>
	</g>
	<g transform="rotate(0 111.4977 63)">
		<g transform="matrix(1 0 0 1 0 0)">
			<path class="st0" d="M120.9,70.7c0.7,0.2,1.3,0.6,1.7,1.2s0.6,1.3,0.6,2.1l0,0c0,1.1-0.4,2-1.3,2.7s-2.2,0.9-3.9,0.9l0,0h-6.6
				V64.4h6.2c1.6,0,2.8,0.3,3.6,0.9c0.8,0.6,1.3,1.5,1.3,2.5l0,0c0,0.7-0.2,1.2-0.5,1.7C121.8,70,121.4,70.4,120.9,70.7L120.9,70.7z
				 M117.4,66.3H114v3.6h3.5c0.9,0,1.5-0.2,2-0.5c0.5-0.3,0.7-0.8,0.7-1.4l0,0c0-0.6-0.2-1.1-0.7-1.4
				C119,66.4,118.3,66.3,117.4,66.3L117.4,66.3z M117.9,75.7c1.9,0,2.9-0.6,2.9-1.9l0,0c0-1.3-1-1.9-2.9-1.9l0,0h-4v3.8H117.9z
				 M131.4,67.4c1.5,0,2.6,0.4,3.4,1.1c0.8,0.7,1.2,1.8,1.2,3.2l0,0v5.9h-2.2v-1.2c-0.3,0.4-0.7,0.8-1.2,1c-0.5,0.2-1.2,0.3-1.9,0.3
				l0,0c-0.8,0-1.4-0.1-2-0.4s-1-0.6-1.3-1.1c-0.3-0.5-0.5-1-0.5-1.6l0,0c0-0.9,0.3-1.6,1-2.2c0.7-0.5,1.7-0.8,3.2-0.8l0,0h2.6v-0.2
				c0-0.7-0.2-1.2-0.6-1.6s-1-0.6-1.9-0.6l0,0c-0.6,0-1.1,0.1-1.7,0.3c-0.5,0.2-1,0.4-1.4,0.7l0,0l-0.9-1.7c0.5-0.4,1.2-0.7,1.9-0.9
				C129.8,67.5,130.6,67.4,131.4,67.4L131.4,67.4z M131.1,76c0.6,0,1.1-0.1,1.6-0.4c0.5-0.3,0.8-0.7,1-1.2l0,0v-1.2h-2.4
				c-1.4,0-2,0.4-2,1.3l0,0c0,0.4,0.2,0.8,0.5,1C130,75.9,130.5,76,131.1,76L131.1,76z M146.7,67.4c1.3,0,2.3,0.4,3.1,1.1
				c0.8,0.7,1.2,1.8,1.2,3.3l0,0v5.8h-2.4v-5.5c0-0.9-0.2-1.5-0.6-2c-0.4-0.4-1-0.7-1.8-0.7l0,0c-0.9,0-1.6,0.3-2.1,0.8
				c-0.5,0.5-0.8,1.3-0.8,2.3l0,0v5.1h-2.4V67.5h2.3v1.3c0.4-0.5,0.9-0.8,1.5-1.1C145.2,67.5,145.9,67.4,146.7,67.4L146.7,67.4z
				 M163.4,63.6h2.4v14h-2.3v-1.3c-0.4,0.5-0.9,0.8-1.4,1.1s-1.2,0.4-1.9,0.4l0,0c-1,0-1.8-0.2-2.6-0.6c-0.8-0.4-1.4-1-1.8-1.8
				s-0.7-1.7-0.7-2.7l0,0c0-1,0.2-1.9,0.7-2.7s1-1.4,1.8-1.8c0.8-0.4,1.6-0.6,2.6-0.6l0,0c0.7,0,1.3,0.1,1.8,0.3
				c0.6,0.2,1,0.6,1.4,1l0,0V63.6z M160.4,75.7c0.6,0,1.1-0.1,1.5-0.4s0.8-0.6,1.1-1.1c0.3-0.5,0.4-1,0.4-1.7l0,0
				c0-0.6-0.1-1.2-0.4-1.7c-0.3-0.5-0.6-0.8-1.1-1.1s-1-0.4-1.5-0.4l0,0c-0.6,0-1.1,0.1-1.5,0.4s-0.8,0.6-1.1,1.1
				c-0.3,0.5-0.4,1-0.4,1.7l0,0c0,0.6,0.1,1.2,0.4,1.7c0.3,0.5,0.6,0.8,1.1,1.1S159.9,75.7,160.4,75.7L160.4,75.7z M192.6,77.6h-2.3
				l0-8.8l-4.3,7.3h-1.1l-4.3-7.1v8.7h-2.3V64.4h2l5.3,8.8l5.2-8.8h2L192.6,77.6z M201.7,67.4c1.5,0,2.6,0.4,3.4,1.1
				c0.8,0.7,1.2,1.8,1.2,3.2l0,0v5.9H204v-1.2c-0.3,0.4-0.7,0.8-1.2,1c-0.5,0.2-1.2,0.3-1.9,0.3l0,0c-0.8,0-1.4-0.1-2-0.4
				c-0.6-0.3-1-0.6-1.3-1.1c-0.3-0.5-0.5-1-0.5-1.6l0,0c0-0.9,0.3-1.6,1-2.2s1.7-0.8,3.2-0.8l0,0h2.6v-0.2c0-0.7-0.2-1.2-0.6-1.6
				s-1-0.6-1.9-0.6l0,0c-0.6,0-1.1,0.1-1.7,0.3s-1,0.4-1.4,0.7l0,0l-0.9-1.7c0.5-0.4,1.2-0.7,1.9-0.9
				C200,67.5,200.8,67.4,201.7,67.4L201.7,67.4z M201.3,76c0.6,0,1.1-0.1,1.6-0.4c0.5-0.3,0.8-0.7,1-1.2l0,0v-1.2h-2.4
				c-1.4,0-2,0.4-2,1.3l0,0c0,0.4,0.2,0.8,0.5,1C200.3,75.9,200.7,76,201.3,76L201.3,76z M216.9,67.4c1.3,0,2.3,0.4,3.1,1.1
				c0.8,0.7,1.2,1.8,1.2,3.3l0,0v5.8h-2.4v-5.5c0-0.9-0.2-1.5-0.6-2c-0.4-0.4-1-0.7-1.8-0.7l0,0c-0.9,0-1.6,0.3-2.1,0.8
				c-0.5,0.5-0.8,1.3-0.8,2.3l0,0v5.1h-2.4V67.5h2.3v1.3c0.4-0.5,0.9-0.8,1.5-1.1C215.5,67.5,216.2,67.4,216.9,67.4L216.9,67.4z
				 M229.9,67.4c1.5,0,2.6,0.4,3.4,1.1c0.8,0.7,1.2,1.8,1.2,3.2l0,0v5.9h-2.2v-1.2c-0.3,0.4-0.7,0.8-1.2,1c-0.5,0.2-1.2,0.3-1.9,0.3
				l0,0c-0.8,0-1.4-0.1-2-0.4c-0.6-0.3-1-0.6-1.3-1.1c-0.3-0.5-0.5-1-0.5-1.6l0,0c0-0.9,0.3-1.6,1-2.2c0.7-0.5,1.7-0.8,3.2-0.8l0,0
				h2.6v-0.2c0-0.7-0.2-1.2-0.6-1.6c-0.4-0.4-1-0.6-1.9-0.6l0,0c-0.6,0-1.1,0.1-1.7,0.3c-0.5,0.2-1,0.4-1.4,0.7l0,0l-0.9-1.7
				c0.5-0.4,1.2-0.7,1.9-0.9C228.3,67.5,229,67.4,229.9,67.4L229.9,67.4z M229.6,76c0.6,0,1.1-0.1,1.6-0.4c0.5-0.3,0.8-0.7,1-1.2
				l0,0v-1.2h-2.4c-1.4,0-2,0.4-2,1.3l0,0c0,0.4,0.2,0.8,0.5,1C228.5,75.9,229,76,229.6,76L229.6,76z M247.3,67.5h2.3v8.6
				c0,3.6-1.8,5.3-5.4,5.3l0,0c-1,0-1.9-0.1-2.8-0.4c-0.9-0.2-1.6-0.6-2.2-1.1l0,0l1.1-1.8c0.4,0.4,1,0.7,1.7,0.9
				c0.7,0.2,1.4,0.3,2.1,0.3l0,0c1.1,0,1.9-0.3,2.4-0.8c0.5-0.5,0.8-1.3,0.8-2.3l0,0v-0.5c-0.4,0.4-0.9,0.8-1.5,1
				c-0.6,0.2-1.2,0.3-1.9,0.3l0,0c-1,0-1.8-0.2-2.6-0.6c-0.8-0.4-1.4-1-1.8-1.7c-0.4-0.7-0.7-1.6-0.7-2.6l0,0c0-1,0.2-1.8,0.7-2.5
				c0.4-0.7,1.1-1.3,1.8-1.7c0.8-0.4,1.6-0.6,2.6-0.6l0,0c0.7,0,1.4,0.1,2,0.4c0.6,0.2,1.1,0.6,1.5,1.1l0,0V67.5z M244.1,75.1
				c0.9,0,1.6-0.3,2.2-0.8c0.6-0.5,0.9-1.2,0.9-2.1l0,0c0-0.8-0.3-1.5-0.9-2.1c-0.6-0.5-1.3-0.8-2.2-0.8l0,0c-0.9,0-1.6,0.3-2.2,0.8
				s-0.9,1.2-0.9,2.1l0,0c0,0.9,0.3,1.6,0.9,2.1C242.5,74.9,243.2,75.1,244.1,75.1L244.1,75.1z M264,72.6c0,0.2,0,0.4,0,0.7l0,0H256
				c0.1,0.7,0.5,1.3,1.1,1.8c0.6,0.4,1.3,0.7,2.2,0.7l0,0c1.1,0,2-0.4,2.7-1.1l0,0l1.3,1.5c-0.5,0.5-1,1-1.7,1.2
				c-0.7,0.3-1.5,0.4-2.3,0.4l0,0c-1.1,0-2.1-0.2-2.9-0.7c-0.8-0.4-1.5-1.1-2-1.8s-0.7-1.7-0.7-2.7l0,0c0-1,0.2-1.9,0.7-2.7
				c0.4-0.8,1.1-1.4,1.9-1.8c0.8-0.4,1.7-0.7,2.7-0.7l0,0c1,0,1.9,0.2,2.6,0.7c0.8,0.4,1.4,1,1.8,1.8C263.8,70.7,264,71.6,264,72.6
				L264,72.6z M258.9,69.3c-0.8,0-1.4,0.2-1.9,0.7c-0.5,0.4-0.8,1-1,1.8l0,0h5.7c-0.1-0.7-0.4-1.3-0.9-1.8
				C260.3,69.5,259.7,69.3,258.9,69.3L258.9,69.3z M270.4,69c0.7-1.1,1.9-1.6,3.6-1.6l0,0v2.3c-0.2,0-0.4-0.1-0.5-0.1l0,0
				c-0.9,0-1.6,0.3-2.2,0.8c-0.5,0.5-0.8,1.3-0.8,2.3l0,0v4.9h-2.4V67.5h2.3V69z M295,66.4h-7.2v4h6.4v2.1h-6.4v5.1h-2.5V64.4h9.7
				V66.4z M301.1,69c0.7-1.1,1.9-1.6,3.6-1.6l0,0v2.3c-0.2,0-0.4-0.1-0.5-0.1l0,0c-0.9,0-1.6,0.3-2.2,0.8c-0.5,0.5-0.8,1.3-0.8,2.3
				l0,0v4.9h-2.4V67.5h2.3V69z M313,77.7c-1,0-1.9-0.2-2.8-0.7s-1.5-1.1-1.9-1.8s-0.7-1.7-0.7-2.7l0,0c0-1,0.2-1.9,0.7-2.7
				c0.5-0.8,1.1-1.4,1.9-1.8c0.8-0.4,1.7-0.7,2.8-0.7l0,0c1,0,2,0.2,2.8,0.7c0.8,0.4,1.5,1.1,1.9,1.8c0.5,0.8,0.7,1.7,0.7,2.7l0,0
				c0,1-0.2,1.9-0.7,2.7c-0.5,0.8-1.1,1.4-1.9,1.8S314.1,77.7,313,77.7L313,77.7z M313,75.7c0.9,0,1.6-0.3,2.2-0.9s0.9-1.3,0.9-2.3
				l0,0c0-0.9-0.3-1.7-0.9-2.3s-1.3-0.9-2.2-0.9l0,0c-0.9,0-1.6,0.3-2.1,0.9s-0.8,1.3-0.8,2.3l0,0c0,0.9,0.3,1.7,0.8,2.3
				S312.2,75.7,313,75.7L313,75.7z M328.3,67.4c1.3,0,2.3,0.4,3.1,1.1c0.8,0.7,1.2,1.8,1.2,3.3l0,0v5.8h-2.4v-5.5
				c0-0.9-0.2-1.5-0.6-2c-0.4-0.4-1-0.7-1.8-0.7l0,0c-0.9,0-1.6,0.3-2.1,0.8c-0.5,0.5-0.8,1.3-0.8,2.3l0,0v5.1h-2.4V67.5h2.3v1.3
				c0.4-0.5,0.9-0.8,1.5-1.1S327.6,67.4,328.3,67.4L328.3,67.4z M342.8,75.4l0.7,1.7c-0.3,0.2-0.6,0.4-1,0.5s-0.8,0.2-1.3,0.2l0,0
				c-1.1,0-2-0.3-2.6-0.9c-0.6-0.6-0.9-1.4-0.9-2.5l0,0v-4.9h-1.7v-1.9h1.7v-2.3h2.4v2.3h2.7v1.9h-2.7v4.8c0,0.5,0.1,0.9,0.4,1.1
				c0.2,0.3,0.6,0.4,1,0.4l0,0C342,75.8,342.5,75.6,342.8,75.4L342.8,75.4z M369.2,77.6h-2.3l0-8.8l-4.3,7.3h-1.1l-4.3-7.1v8.7h-2.3
				V64.4h2l5.3,8.8l5.2-8.8h2L369.2,77.6z M378.3,67.4c1.5,0,2.6,0.4,3.4,1.1c0.8,0.7,1.2,1.8,1.2,3.2l0,0v5.9h-2.2v-1.2
				c-0.3,0.4-0.7,0.8-1.2,1c-0.5,0.2-1.2,0.3-1.9,0.3l0,0c-0.8,0-1.4-0.1-2-0.4c-0.6-0.3-1-0.6-1.3-1.1c-0.3-0.5-0.5-1-0.5-1.6l0,0
				c0-0.9,0.3-1.6,1-2.2c0.7-0.5,1.7-0.8,3.2-0.8l0,0h2.6v-0.2c0-0.7-0.2-1.2-0.6-1.6c-0.4-0.4-1-0.6-1.9-0.6l0,0
				c-0.6,0-1.1,0.1-1.7,0.3c-0.5,0.2-1,0.4-1.4,0.7l0,0l-0.9-1.7c0.5-0.4,1.2-0.7,1.9-0.9C376.6,67.5,377.4,67.4,378.3,67.4
				L378.3,67.4z M377.9,76c0.6,0,1.1-0.1,1.6-0.4c0.5-0.3,0.8-0.7,1-1.2l0,0v-1.2H378c-1.4,0-2,0.4-2,1.3l0,0c0,0.4,0.2,0.8,0.5,1
				C376.9,75.9,377.3,76,377.9,76L377.9,76z M393.5,67.4c1.3,0,2.3,0.4,3.1,1.1c0.8,0.7,1.2,1.8,1.2,3.3l0,0v5.8h-2.4v-5.5
				c0-0.9-0.2-1.5-0.6-2c-0.4-0.4-1-0.7-1.8-0.7l0,0c-0.9,0-1.6,0.3-2.1,0.8c-0.5,0.5-0.8,1.3-0.8,2.3l0,0v5.1h-2.4V67.5h2.3v1.3
				c0.4-0.5,0.9-0.8,1.5-1.1C392.1,67.5,392.7,67.4,393.5,67.4L393.5,67.4z M409.9,81.3V63.6h2.2v17.7H409.9z M424.7,77.6V64.4h2.5
				v11.2h6.9v2.1H424.7z M447.1,72.6c0,0.2,0,0.4,0,0.7l0,0h-7.9c0.1,0.7,0.5,1.3,1.1,1.8c0.6,0.4,1.3,0.7,2.2,0.7l0,0
				c1.1,0,2-0.4,2.7-1.1l0,0l1.3,1.5c-0.5,0.5-1,1-1.7,1.2c-0.7,0.3-1.5,0.4-2.3,0.4l0,0c-1.1,0-2.1-0.2-2.9-0.7s-1.5-1.1-2-1.8
				c-0.5-0.8-0.7-1.7-0.7-2.7l0,0c0-1,0.2-1.9,0.7-2.7c0.4-0.8,1.1-1.4,1.9-1.8c0.8-0.4,1.7-0.7,2.7-0.7l0,0c1,0,1.9,0.2,2.6,0.7
				c0.8,0.4,1.4,1,1.8,1.8C446.9,70.7,447.1,71.6,447.1,72.6L447.1,72.6z M442,69.3c-0.8,0-1.4,0.2-1.9,0.7c-0.5,0.4-0.8,1-1,1.8
				l0,0h5.7c-0.1-0.7-0.4-1.3-0.9-1.8C443.4,69.5,442.7,69.3,442,69.3L442,69.3z M464.7,67.5h2.1l-3.7,10.1h-2.3l-2.6-7l-2.6,7h-2.3
				l-3.7-10.1h2.2l2.7,7.5l2.8-7.5h2L462,75L464.7,67.5z M470.3,77.6V67.5h2.4v10.1H470.3z M471.5,65.8c-0.4,0-0.8-0.1-1.1-0.4
				c-0.3-0.3-0.4-0.6-0.4-1l0,0c0-0.4,0.1-0.7,0.4-1c0.3-0.3,0.6-0.4,1.1-0.4l0,0c0.4,0,0.8,0.1,1.1,0.4c0.3,0.3,0.4,0.6,0.4,1l0,0
				c0,0.4-0.1,0.8-0.4,1C472.3,65.7,471.9,65.8,471.5,65.8L471.5,65.8z M480.8,77.7c-0.8,0-1.6-0.1-2.4-0.3
				c-0.8-0.2-1.4-0.5-1.9-0.8l0,0l0.9-1.8c0.5,0.3,1,0.5,1.6,0.7c0.6,0.2,1.3,0.3,1.9,0.3l0,0c1.4,0,2.1-0.4,2.1-1.1l0,0
				c0-0.4-0.2-0.6-0.5-0.7c-0.4-0.1-0.9-0.3-1.7-0.4l0,0c-0.8-0.1-1.5-0.3-2-0.4c-0.5-0.2-1-0.5-1.4-0.9s-0.6-1-0.6-1.7l0,0
				c0-1,0.4-1.7,1.2-2.3c0.8-0.6,1.9-0.9,3.2-0.9l0,0c0.7,0,1.4,0.1,2.1,0.2c0.7,0.2,1.3,0.4,1.7,0.6l0,0l-0.9,1.8
				c-0.9-0.5-1.8-0.8-2.9-0.8l0,0c-0.7,0-1.2,0.1-1.6,0.3s-0.5,0.5-0.5,0.8l0,0c0,0.4,0.2,0.6,0.6,0.8c0.4,0.2,1,0.3,1.8,0.4l0,0
				c0.8,0.1,1.5,0.3,2,0.4s1,0.4,1.3,0.8c0.4,0.4,0.6,0.9,0.6,1.7l0,0c0,0.9-0.4,1.7-1.2,2.3C483.3,77.4,482.2,77.7,480.8,77.7
				L480.8,77.7z M494.7,75.4l0.7,1.7c-0.3,0.2-0.6,0.4-1,0.5c-0.4,0.1-0.8,0.2-1.3,0.2l0,0c-1.1,0-2-0.3-2.6-0.9
				c-0.6-0.6-0.9-1.4-0.9-2.5l0,0v-4.9H488v-1.9h1.7v-2.3h2.4v2.3h2.7v1.9H492v4.8c0,0.5,0.1,0.9,0.4,1.1c0.2,0.3,0.6,0.4,1,0.4l0,0
				C493.9,75.8,494.4,75.6,494.7,75.4L494.7,75.4z M503.4,77.7c-1,0-1.9-0.2-2.8-0.7c-0.8-0.4-1.5-1.1-1.9-1.8
				c-0.5-0.8-0.7-1.7-0.7-2.7l0,0c0-1,0.2-1.9,0.7-2.7c0.5-0.8,1.1-1.4,1.9-1.8c0.8-0.4,1.7-0.7,2.8-0.7l0,0c1,0,2,0.2,2.8,0.7
				c0.8,0.4,1.5,1.1,1.9,1.8c0.5,0.8,0.7,1.7,0.7,2.7l0,0c0,1-0.2,1.9-0.7,2.7c-0.5,0.8-1.1,1.4-1.9,1.8
				C505.4,77.5,504.4,77.7,503.4,77.7L503.4,77.7z M503.4,75.7c0.9,0,1.6-0.3,2.2-0.9c0.6-0.6,0.9-1.3,0.9-2.3l0,0
				c0-0.9-0.3-1.7-0.9-2.3c-0.6-0.6-1.3-0.9-2.2-0.9l0,0c-0.9,0-1.6,0.3-2.1,0.9c-0.6,0.6-0.8,1.3-0.8,2.3l0,0
				c0,0.9,0.3,1.7,0.8,2.3C501.8,75.4,502.5,75.7,503.4,75.7L503.4,75.7z M518.7,67.4c1.3,0,2.3,0.4,3.1,1.1
				c0.8,0.7,1.2,1.8,1.2,3.3l0,0v5.8h-2.4v-5.5c0-0.9-0.2-1.5-0.6-2c-0.4-0.4-1-0.7-1.8-0.7l0,0c-0.9,0-1.6,0.3-2.1,0.8
				c-0.5,0.5-0.8,1.3-0.8,2.3l0,0v5.1H513V67.5h2.3v1.3c0.4-0.5,0.9-0.8,1.5-1.1C517.3,67.5,517.9,67.4,518.7,67.4L518.7,67.4z
				 M528.6,74.6c0.4,0,0.8,0.1,1.1,0.4s0.4,0.7,0.4,1.1l0,0c0,0.2,0,0.4-0.1,0.6c-0.1,0.2-0.2,0.6-0.3,1l0,0l-1,2.7h-1.5l0.8-2.9
				c-0.3-0.1-0.5-0.3-0.7-0.5c-0.2-0.2-0.2-0.5-0.2-0.9l0,0c0-0.5,0.1-0.8,0.4-1.1S528.1,74.6,528.6,74.6L528.6,74.6z M541.6,77.6
				V64.4h2.5v13.2H541.6z M556.9,63.6h2.4v14H557v-1.3c-0.4,0.5-0.9,0.8-1.4,1.1c-0.6,0.2-1.2,0.4-1.9,0.4l0,0c-1,0-1.8-0.2-2.6-0.6
				c-0.8-0.4-1.4-1-1.8-1.8s-0.7-1.7-0.7-2.7l0,0c0-1,0.2-1.9,0.7-2.7s1-1.4,1.8-1.8s1.6-0.6,2.6-0.6l0,0c0.7,0,1.3,0.1,1.8,0.3
				c0.6,0.2,1,0.6,1.4,1l0,0V63.6z M553.9,75.7c0.6,0,1.1-0.1,1.5-0.4c0.5-0.3,0.8-0.6,1.1-1.1s0.4-1,0.4-1.7l0,0
				c0-0.6-0.1-1.2-0.4-1.7c-0.3-0.5-0.6-0.8-1.1-1.1c-0.5-0.3-1-0.4-1.5-0.4l0,0c-0.6,0-1.1,0.1-1.5,0.4s-0.8,0.6-1.1,1.1
				c-0.3,0.5-0.4,1-0.4,1.7l0,0c0,0.6,0.1,1.2,0.4,1.7s0.6,0.8,1.1,1.1S553.3,75.7,553.9,75.7L553.9,75.7z M568.1,67.4
				c1.5,0,2.6,0.4,3.4,1.1c0.8,0.7,1.2,1.8,1.2,3.2l0,0v5.9h-2.2v-1.2c-0.3,0.4-0.7,0.8-1.2,1c-0.5,0.2-1.2,0.3-1.9,0.3l0,0
				c-0.8,0-1.4-0.1-2-0.4s-1-0.6-1.3-1.1c-0.3-0.5-0.5-1-0.5-1.6l0,0c0-0.9,0.3-1.6,1-2.2c0.7-0.5,1.7-0.8,3.2-0.8l0,0h2.6v-0.2
				c0-0.7-0.2-1.2-0.6-1.6s-1-0.6-1.9-0.6l0,0c-0.6,0-1.1,0.1-1.7,0.3s-1,0.4-1.4,0.7l0,0l-0.9-1.7c0.5-0.4,1.2-0.7,1.9-0.9
				C566.5,67.5,567.2,67.4,568.1,67.4L568.1,67.4z M567.8,76c0.6,0,1.1-0.1,1.6-0.4c0.5-0.3,0.8-0.7,1-1.2l0,0v-1.2h-2.4
				c-1.4,0-2,0.4-2,1.3l0,0c0,0.4,0.2,0.8,0.5,1C566.7,75.9,567.2,76,567.8,76L567.8,76z M583.3,67.4c1.3,0,2.3,0.4,3.1,1.1
				c0.8,0.7,1.2,1.8,1.2,3.3l0,0v5.8h-2.4v-5.5c0-0.9-0.2-1.5-0.6-2c-0.4-0.4-1-0.7-1.8-0.7l0,0c-0.9,0-1.6,0.3-2.1,0.8
				c-0.5,0.5-0.8,1.3-0.8,2.3l0,0v5.1h-2.4v-14h2.4v5.1c0.4-0.4,0.9-0.7,1.4-1C582,67.5,582.6,67.4,583.3,67.4L583.3,67.4z
				 M597.1,77.7c-1,0-1.9-0.2-2.8-0.7s-1.5-1.1-1.9-1.8c-0.5-0.8-0.7-1.7-0.7-2.7l0,0c0-1,0.2-1.9,0.7-2.7c0.5-0.8,1.1-1.4,1.9-1.8
				c0.8-0.4,1.7-0.7,2.8-0.7l0,0c1,0,2,0.2,2.8,0.7c0.8,0.4,1.5,1.1,1.9,1.8c0.5,0.8,0.7,1.7,0.7,2.7l0,0c0,1-0.2,1.9-0.7,2.7
				c-0.5,0.8-1.1,1.4-1.9,1.8C599,77.5,598.1,77.7,597.1,77.7L597.1,77.7z M597.1,75.7c0.9,0,1.6-0.3,2.2-0.9
				c0.6-0.6,0.9-1.3,0.9-2.3l0,0c0-0.9-0.3-1.7-0.9-2.3c-0.6-0.6-1.3-0.9-2.2-0.9l0,0c-0.9,0-1.6,0.3-2.1,0.9
				c-0.6,0.6-0.8,1.3-0.8,2.3l0,0c0,0.9,0.3,1.7,0.8,2.3C595.5,75.4,596.2,75.7,597.1,75.7L597.1,75.7z"/>
		</g>
	</g>
	<g transform="rotate(0 111.4977 27)">
		<g transform="matrix(1 0 0 1 0 0)">
			<path class="st1" d="M124.7,36.7c1,0.3,1.8,0.9,2.4,1.6s0.9,1.7,0.9,2.8l0,0c0,1.6-0.6,2.8-1.8,3.6c-1.2,0.8-3,1.3-5.3,1.3l0,0
				h-9.3V28.1h8.8c2.2,0,3.9,0.4,5,1.3c1.2,0.8,1.8,2,1.8,3.4l0,0c0,0.9-0.2,1.6-0.6,2.3S125.4,36.3,124.7,36.7L124.7,36.7z
				 M119.8,31.2h-4.1v4.2h4.1c1,0,1.8-0.2,2.3-0.5c0.5-0.4,0.8-0.9,0.8-1.6l0,0c0-0.7-0.3-1.2-0.8-1.6
				C121.6,31.4,120.8,31.2,119.8,31.2L119.8,31.2z M120.5,42.9c1.1,0,1.9-0.2,2.5-0.5s0.8-0.9,0.8-1.7l0,0c0-1.5-1.1-2.2-3.3-2.2
				l0,0h-4.8v4.4H120.5z M136.4,32c2.1,0,3.8,0.5,4.9,1.5c1.1,1,1.7,2.6,1.7,4.6l0,0V46h-3.7v-1.7c-0.8,1.3-2.2,1.9-4.2,1.9l0,0
				c-1.1,0-2-0.2-2.8-0.5s-1.4-0.9-1.8-1.5c-0.4-0.6-0.6-1.4-0.6-2.2l0,0c0-1.3,0.5-2.3,1.4-3s2.5-1.1,4.5-1.1l0,0h3.2
				c0-0.9-0.3-1.5-0.8-2c-0.5-0.5-1.3-0.7-2.4-0.7l0,0c-0.7,0-1.5,0.1-2.2,0.3c-0.7,0.2-1.3,0.5-1.8,0.9l0,0l-1.4-2.8
				c0.8-0.5,1.7-0.9,2.7-1.2C134.2,32.2,135.3,32,136.4,32L136.4,32z M136.1,43.5c0.7,0,1.3-0.2,1.8-0.5c0.5-0.3,0.9-0.8,1.1-1.4
				l0,0v-1.4h-2.7c-1.6,0-2.5,0.5-2.5,1.6l0,0c0,0.5,0.2,0.9,0.6,1.2S135.4,43.5,136.1,43.5L136.1,43.5z M151.3,46.2
				c-1.1,0-2.3-0.1-3.4-0.4c-1.1-0.3-2-0.6-2.6-1.1l0,0l1.3-2.9c0.6,0.4,1.4,0.7,2.2,1c0.9,0.2,1.7,0.4,2.6,0.4l0,0
				c1.7,0,2.5-0.4,2.5-1.3l0,0c0-0.4-0.2-0.7-0.7-0.8s-1.2-0.3-2.1-0.4l0,0c-1.1-0.2-2.1-0.4-2.8-0.6s-1.4-0.6-1.9-1.2
				s-0.8-1.4-0.8-2.4l0,0c0-0.9,0.3-1.6,0.8-2.3s1.2-1.2,2.2-1.6c1-0.4,2.1-0.6,3.4-0.6l0,0c1,0,1.9,0.1,2.9,0.3
				c1,0.2,1.8,0.5,2.4,0.9l0,0l-1.3,2.8c-1.2-0.7-2.5-1-4-1l0,0c-0.9,0-1.5,0.1-1.9,0.4c-0.4,0.2-0.6,0.5-0.6,0.9l0,0
				c0,0.4,0.2,0.7,0.7,0.9s1.2,0.3,2.2,0.5l0,0c1.1,0.2,2.1,0.4,2.8,0.6c0.7,0.2,1.3,0.6,1.9,1.2c0.5,0.6,0.8,1.4,0.8,2.4l0,0
				c0,0.9-0.3,1.6-0.8,2.3c-0.5,0.7-1.3,1.2-2.2,1.6C153.8,46,152.6,46.2,151.3,46.2L151.3,46.2z M164.9,46.2
				c-1.1,0-2.3-0.1-3.4-0.4c-1.1-0.3-2-0.6-2.6-1.1l0,0l1.3-2.9c0.6,0.4,1.4,0.7,2.2,1c0.9,0.2,1.7,0.4,2.6,0.4l0,0
				c1.7,0,2.5-0.4,2.5-1.3l0,0c0-0.4-0.2-0.7-0.7-0.8c-0.5-0.2-1.2-0.3-2.1-0.4l0,0c-1.1-0.2-2.1-0.4-2.8-0.6
				c-0.7-0.2-1.4-0.6-1.9-1.2c-0.5-0.6-0.8-1.4-0.8-2.4l0,0c0-0.9,0.3-1.6,0.8-2.3s1.2-1.2,2.2-1.6s2.1-0.6,3.4-0.6l0,0
				c1,0,1.9,0.1,2.9,0.3c1,0.2,1.8,0.5,2.4,0.9l0,0l-1.3,2.8c-1.2-0.7-2.5-1-4-1l0,0c-0.9,0-1.5,0.1-1.9,0.4
				c-0.4,0.2-0.6,0.5-0.6,0.9l0,0c0,0.4,0.2,0.7,0.7,0.9s1.2,0.3,2.2,0.5l0,0c1.1,0.2,2.1,0.4,2.8,0.6c0.7,0.2,1.3,0.6,1.9,1.2
				c0.5,0.6,0.8,1.4,0.8,2.4l0,0c0,0.9-0.3,1.6-0.8,2.3c-0.5,0.7-1.3,1.2-2.2,1.6C167.4,46,166.3,46.2,164.9,46.2L164.9,46.2z
				 M201.7,46h-3.9l0-10.8l-5.3,8.9h-1.9l-5.3-8.6V46h-3.9V28.1h3.4l6.7,11.2l6.6-11.2h3.4L201.7,46z M211.2,32
				c2.1,0,3.8,0.5,4.9,1.5c1.1,1,1.7,2.6,1.7,4.6l0,0V46h-3.7v-1.7c-0.8,1.3-2.2,1.9-4.2,1.9l0,0c-1.1,0-2-0.2-2.8-0.5
				s-1.4-0.9-1.8-1.5c-0.4-0.6-0.6-1.4-0.6-2.2l0,0c0-1.3,0.5-2.3,1.4-3c1-0.7,2.5-1.1,4.5-1.1l0,0h3.2c0-0.9-0.3-1.5-0.8-2
				c-0.5-0.5-1.3-0.7-2.4-0.7l0,0c-0.7,0-1.5,0.1-2.2,0.3c-0.7,0.2-1.3,0.5-1.8,0.9l0,0l-1.4-2.8c0.8-0.5,1.7-0.9,2.7-1.2
				C209,32.2,210.1,32,211.2,32L211.2,32z M210.9,43.5c0.7,0,1.3-0.2,1.8-0.5c0.5-0.3,0.9-0.8,1.1-1.4l0,0v-1.4h-2.7
				c-1.6,0-2.5,0.5-2.5,1.6l0,0c0,0.5,0.2,0.9,0.6,1.2S210.2,43.5,210.9,43.5L210.9,43.5z M226.1,46.2c-1.1,0-2.3-0.1-3.4-0.4
				c-1.1-0.3-2-0.6-2.6-1.1l0,0l1.3-2.9c0.6,0.4,1.4,0.7,2.2,1c0.9,0.2,1.7,0.4,2.6,0.4l0,0c1.7,0,2.5-0.4,2.5-1.3l0,0
				c0-0.4-0.2-0.7-0.7-0.8c-0.5-0.2-1.2-0.3-2.1-0.4l0,0c-1.1-0.2-2.1-0.4-2.8-0.6s-1.4-0.6-1.9-1.2c-0.5-0.6-0.8-1.4-0.8-2.4l0,0
				c0-0.9,0.3-1.6,0.8-2.3c0.5-0.7,1.2-1.2,2.2-1.6s2.1-0.6,3.4-0.6l0,0c1,0,1.9,0.1,2.9,0.3c1,0.2,1.8,0.5,2.4,0.9l0,0l-1.3,2.8
				c-1.2-0.7-2.5-1-4-1l0,0c-0.9,0-1.5,0.1-1.9,0.4c-0.4,0.2-0.6,0.5-0.6,0.9l0,0c0,0.4,0.2,0.7,0.7,0.9s1.2,0.3,2.2,0.5l0,0
				c1.1,0.2,2.1,0.4,2.8,0.6c0.7,0.2,1.3,0.6,1.9,1.2c0.5,0.6,0.8,1.4,0.8,2.4l0,0c0,0.9-0.3,1.6-0.8,2.3c-0.5,0.7-1.3,1.2-2.2,1.6
				C228.6,46,227.4,46.2,226.1,46.2L226.1,46.2z M242.9,42.5l1.1,2.8c-0.4,0.3-0.9,0.5-1.4,0.7c-0.6,0.1-1.2,0.2-1.8,0.2l0,0
				c-1.6,0-2.9-0.4-3.8-1.3c-0.9-0.8-1.3-2.1-1.3-3.7l0,0v-5.7h-2.1v-3.1h2.1v-3.4h4v3.4h3.4v3.1h-3.4v5.6c0,0.6,0.1,1,0.4,1.3
				s0.7,0.5,1.3,0.5l0,0C241.9,43.1,242.4,42.9,242.9,42.5L242.9,42.5z M259.3,39.2c0,0.1,0,0.4-0.1,1.1l0,0h-10.4
				c0.2,0.9,0.6,1.5,1.3,2c0.7,0.5,1.6,0.7,2.6,0.7l0,0c0.7,0,1.4-0.1,1.9-0.3c0.6-0.2,1.1-0.6,1.6-1l0,0l2.1,2.3
				c-1.3,1.5-3.2,2.2-5.7,2.2l0,0c-1.6,0-2.9-0.3-4.1-0.9s-2.1-1.4-2.8-2.5c-0.6-1.1-1-2.3-1-3.7l0,0c0-1.4,0.3-2.6,1-3.7
				c0.6-1.1,1.5-1.9,2.6-2.5c1.1-0.6,2.4-0.9,3.8-0.9l0,0c1.4,0,2.6,0.3,3.7,0.9c1.1,0.6,2,1.4,2.6,2.5
				C259,36.5,259.3,37.7,259.3,39.2L259.3,39.2z M252.1,35.1c-0.9,0-1.7,0.3-2.3,0.8s-1,1.2-1.1,2.1l0,0h6.8
				c-0.1-0.9-0.5-1.6-1.1-2.1C253.8,35.3,253,35.1,252.1,35.1L252.1,35.1z M265.8,34.1c0.5-0.7,1.1-1.2,1.9-1.5s1.7-0.5,2.8-0.5l0,0
				v3.7c-0.4,0-0.7-0.1-0.9-0.1l0,0c-1.1,0-2,0.3-2.7,1c-0.6,0.6-1,1.6-1,2.9l0,0V46h-4V32.2h3.8V34.1z M296.5,46H292l-3.5-5h-0.2
				h-3.6v5h-4.2V28.1h7.8c1.6,0,3,0.3,4.1,0.8s2.1,1.3,2.7,2.3s0.9,2.1,0.9,3.5l0,0c0,1.3-0.3,2.5-1,3.4c-0.6,1-1.6,1.7-2.7,2.2l0,0
				L296.5,46z M291.9,34.6c0-1-0.3-1.8-1-2.3c-0.6-0.5-1.6-0.8-2.8-0.8l0,0h-3.4v6.3h3.4c1.2,0,2.2-0.3,2.8-0.8
				S291.9,35.6,291.9,34.6L291.9,34.6z M305.7,46.2c-1.5,0-2.8-0.3-3.9-0.9c-1.2-0.6-2.1-1.4-2.7-2.5s-1-2.3-1-3.7l0,0
				c0-1.4,0.3-2.6,1-3.7s1.6-1.9,2.7-2.5c1.2-0.6,2.5-0.9,3.9-0.9l0,0c1.5,0,2.8,0.3,3.9,0.9s2,1.4,2.7,2.5c0.6,1.1,1,2.3,1,3.7l0,0
				c0,1.4-0.3,2.6-1,3.7c-0.6,1.1-1.5,1.9-2.7,2.5S307.1,46.2,305.7,46.2L305.7,46.2z M305.7,42.9c1,0,1.9-0.3,2.5-1
				c0.7-0.7,1-1.6,1-2.8l0,0c0-1.2-0.3-2.1-1-2.8c-0.7-0.7-1.5-1-2.5-1l0,0c-1,0-1.9,0.3-2.5,1c-0.7,0.7-1,1.6-1,2.8l0,0
				c0,1.2,0.3,2.1,1,2.8C303.8,42.6,304.7,42.9,305.7,42.9L305.7,42.9z M320.6,46.2c-1.1,0-2.3-0.1-3.4-0.4c-1.1-0.3-2-0.6-2.6-1.1
				l0,0l1.3-2.9c0.6,0.4,1.4,0.7,2.2,1c0.9,0.2,1.7,0.4,2.6,0.4l0,0c1.7,0,2.5-0.4,2.5-1.3l0,0c0-0.4-0.2-0.7-0.7-0.8
				s-1.2-0.3-2.1-0.4l0,0c-1.1-0.2-2.1-0.4-2.8-0.6c-0.7-0.2-1.4-0.6-1.9-1.2c-0.5-0.6-0.8-1.4-0.8-2.4l0,0c0-0.9,0.3-1.6,0.8-2.3
				s1.2-1.2,2.2-1.6s2.1-0.6,3.4-0.6l0,0c1,0,1.9,0.1,2.9,0.3c1,0.2,1.8,0.5,2.4,0.9l0,0l-1.3,2.8c-1.2-0.7-2.5-1-4-1l0,0
				c-0.9,0-1.5,0.1-1.9,0.4c-0.4,0.2-0.6,0.5-0.6,0.9l0,0c0,0.4,0.2,0.7,0.7,0.9s1.2,0.3,2.2,0.5l0,0c1.1,0.2,2.1,0.4,2.8,0.6
				c0.7,0.2,1.3,0.6,1.9,1.2c0.5,0.6,0.8,1.4,0.8,2.4l0,0c0,0.9-0.3,1.6-0.8,2.3c-0.5,0.7-1.3,1.2-2.2,1.6
				C323.1,46,321.9,46.2,320.6,46.2L320.6,46.2z M334.2,46.2c-1.1,0-2.3-0.1-3.4-0.4c-1.1-0.3-2-0.6-2.6-1.1l0,0l1.3-2.9
				c0.6,0.4,1.4,0.7,2.2,1c0.9,0.2,1.7,0.4,2.6,0.4l0,0c1.7,0,2.5-0.4,2.5-1.3l0,0c0-0.4-0.2-0.7-0.7-0.8c-0.5-0.2-1.2-0.3-2.1-0.4
				l0,0c-1.1-0.2-2.1-0.4-2.8-0.6s-1.4-0.6-1.9-1.2c-0.5-0.6-0.8-1.4-0.8-2.4l0,0c0-0.9,0.3-1.6,0.8-2.3c0.5-0.7,1.2-1.2,2.2-1.6
				s2.1-0.6,3.4-0.6l0,0c1,0,1.9,0.1,2.9,0.3c1,0.2,1.8,0.5,2.4,0.9l0,0l-1.3,2.8c-1.2-0.7-2.5-1-4-1l0,0c-0.9,0-1.5,0.1-1.9,0.4
				c-0.4,0.2-0.6,0.5-0.6,0.9l0,0c0,0.4,0.2,0.7,0.7,0.9c0.5,0.2,1.2,0.3,2.2,0.5l0,0c1.1,0.2,2.1,0.4,2.8,0.6
				c0.7,0.2,1.3,0.6,1.9,1.2c0.5,0.6,0.8,1.4,0.8,2.4l0,0c0,0.9-0.3,1.6-0.8,2.3c-0.5,0.7-1.3,1.2-2.2,1.6
				C336.7,46,335.5,46.2,334.2,46.2L334.2,46.2z M356.6,46.3c-1.4,0-2.8-0.2-4.1-0.6c-1.3-0.4-2.4-0.9-3.2-1.5l0,0l1.4-3.1
				c0.8,0.6,1.7,1,2.7,1.4c1.1,0.3,2.1,0.5,3.2,0.5l0,0c1.2,0,2.1-0.2,2.6-0.5c0.6-0.4,0.8-0.8,0.8-1.4l0,0c0-0.4-0.2-0.8-0.5-1.1
				s-0.8-0.5-1.3-0.7c-0.5-0.2-1.2-0.4-2.1-0.6l0,0c-1.4-0.3-2.5-0.6-3.4-1c-0.9-0.3-1.6-0.8-2.2-1.6c-0.6-0.7-0.9-1.7-0.9-2.9l0,0
				c0-1,0.3-2,0.8-2.8c0.6-0.8,1.4-1.5,2.6-2c1.1-0.5,2.5-0.7,4.2-0.7l0,0c1.1,0,2.3,0.1,3.4,0.4s2.1,0.7,2.9,1.2l0,0l-1.3,3.2
				c-1.7-0.9-3.3-1.4-5-1.4l0,0c-1.2,0-2,0.2-2.6,0.6c-0.6,0.4-0.8,0.9-0.8,1.5l0,0c0,0.6,0.3,1.1,1,1.4c0.6,0.3,1.6,0.6,2.9,0.9
				l0,0c1.4,0.3,2.5,0.6,3.4,1s1.6,0.8,2.2,1.5c0.6,0.7,0.9,1.6,0.9,2.8l0,0c0,1-0.3,2-0.9,2.8c-0.6,0.8-1.4,1.5-2.6,2
				C359.6,46.1,358.2,46.3,356.6,46.3L356.6,46.3z M374.6,42.5l1.1,2.8c-0.4,0.3-0.9,0.5-1.4,0.7c-0.6,0.1-1.2,0.2-1.8,0.2l0,0
				c-1.6,0-2.9-0.4-3.8-1.3c-0.9-0.8-1.3-2.1-1.3-3.7l0,0v-5.7h-2.1v-3.1h2.1v-3.4h4v3.4h3.4v3.1h-3.4v5.6c0,0.6,0.1,1,0.4,1.3
				c0.3,0.3,0.7,0.5,1.3,0.5l0,0C373.6,43.1,374.1,42.9,374.6,42.5L374.6,42.5z M391,39.2c0,0.1,0,0.4-0.1,1.1l0,0h-10.4
				c0.2,0.9,0.6,1.5,1.3,2c0.7,0.5,1.6,0.7,2.6,0.7l0,0c0.7,0,1.4-0.1,1.9-0.3c0.6-0.2,1.1-0.6,1.6-1l0,0L390,44
				c-1.3,1.5-3.2,2.2-5.7,2.2l0,0c-1.6,0-2.9-0.3-4.1-0.9c-1.2-0.6-2.1-1.4-2.8-2.5c-0.6-1.1-1-2.3-1-3.7l0,0c0-1.4,0.3-2.6,1-3.7
				c0.6-1.1,1.5-1.9,2.6-2.5c1.1-0.6,2.4-0.9,3.8-0.9l0,0c1.4,0,2.6,0.3,3.7,0.9c1.1,0.6,2,1.4,2.6,2.5
				C390.7,36.5,391,37.7,391,39.2L391,39.2z M383.8,35.1c-0.9,0-1.7,0.3-2.3,0.8c-0.6,0.5-1,1.2-1.1,2.1l0,0h6.8
				c-0.1-0.9-0.5-1.6-1.1-2.1C385.5,35.3,384.7,35.1,383.8,35.1L383.8,35.1z M403.2,32.2h3.8L401.3,46h-4.1l-5.8-13.8h4.1l3.8,9.4
				L403.2,32.2z M421.9,39.2c0,0.1,0,0.4-0.1,1.1l0,0h-10.4c0.2,0.9,0.6,1.5,1.3,2c0.7,0.5,1.6,0.7,2.6,0.7l0,0
				c0.7,0,1.4-0.1,1.9-0.3c0.6-0.2,1.1-0.6,1.6-1l0,0l2.1,2.3c-1.3,1.5-3.2,2.2-5.7,2.2l0,0c-1.6,0-2.9-0.3-4.1-0.9
				s-2.1-1.4-2.8-2.5s-1-2.3-1-3.7l0,0c0-1.4,0.3-2.6,1-3.7c0.6-1.1,1.5-1.9,2.6-2.5c1.1-0.6,2.4-0.9,3.8-0.9l0,0
				c1.4,0,2.6,0.3,3.7,0.9c1.1,0.6,2,1.4,2.6,2.5C421.6,36.5,421.9,37.7,421.9,39.2L421.9,39.2z M414.7,35.1c-0.9,0-1.7,0.3-2.3,0.8
				s-1,1.2-1.1,2.1l0,0h6.8c-0.1-0.9-0.5-1.6-1.1-2.1C416.4,35.3,415.6,35.1,414.7,35.1L414.7,35.1z M432.9,32
				c1.7,0,3.1,0.5,4.1,1.5c1.1,1,1.6,2.5,1.6,4.6l0,0V46h-4v-7.3c0-1.1-0.2-1.9-0.7-2.4c-0.5-0.5-1.2-0.8-2.1-0.8l0,0
				c-1,0-1.8,0.3-2.4,0.9c-0.6,0.6-0.9,1.6-0.9,2.8l0,0V46h-4V32.2h3.8v1.6c0.5-0.6,1.2-1,2-1.3C431.1,32.2,432,32,432.9,32
				L432.9,32z M465.7,46h-4.5l-3.5-5h-0.2h-3.6v5h-4.2V28.1h7.8c1.6,0,3,0.3,4.1,0.8c1.2,0.5,2.1,1.3,2.7,2.3c0.6,1,0.9,2.1,0.9,3.5
				l0,0c0,1.3-0.3,2.5-1,3.4c-0.6,1-1.6,1.7-2.7,2.2l0,0L465.7,46z M461.1,34.6c0-1-0.3-1.8-1-2.3c-0.6-0.5-1.6-0.8-2.8-0.8l0,0
				h-3.4v6.3h3.4c1.2,0,2.2-0.3,2.8-0.8C460.8,36.4,461.1,35.6,461.1,34.6L461.1,34.6z M474.9,46.2c-1.5,0-2.8-0.3-3.9-0.9
				s-2.1-1.4-2.7-2.5c-0.6-1.1-1-2.3-1-3.7l0,0c0-1.4,0.3-2.6,1-3.7c0.6-1.1,1.6-1.9,2.7-2.5s2.5-0.9,3.9-0.9l0,0
				c1.5,0,2.8,0.3,3.9,0.9s2,1.4,2.7,2.5c0.6,1.1,1,2.3,1,3.7l0,0c0,1.4-0.3,2.6-1,3.7c-0.6,1.1-1.5,1.9-2.7,2.5
				S476.4,46.2,474.9,46.2L474.9,46.2z M474.9,42.9c1,0,1.9-0.3,2.5-1c0.7-0.7,1-1.6,1-2.8l0,0c0-1.2-0.3-2.1-1-2.8
				c-0.7-0.7-1.5-1-2.5-1l0,0c-1,0-1.9,0.3-2.5,1c-0.7,0.7-1,1.6-1,2.8l0,0c0,1.2,0.3,2.1,1,2.8C473,42.6,473.9,42.9,474.9,42.9
				L474.9,42.9z M489.8,46.2c-1.1,0-2.3-0.1-3.4-0.4s-2-0.6-2.6-1.1l0,0l1.3-2.9c0.6,0.4,1.4,0.7,2.2,1c0.9,0.2,1.7,0.4,2.6,0.4l0,0
				c1.7,0,2.5-0.4,2.5-1.3l0,0c0-0.4-0.2-0.7-0.7-0.8c-0.5-0.2-1.2-0.3-2.1-0.4l0,0c-1.1-0.2-2.1-0.4-2.8-0.6
				c-0.7-0.2-1.4-0.6-1.9-1.2c-0.5-0.6-0.8-1.4-0.8-2.4l0,0c0-0.9,0.3-1.6,0.8-2.3c0.5-0.7,1.2-1.2,2.2-1.6c1-0.4,2.1-0.6,3.4-0.6
				l0,0c1,0,1.9,0.1,2.9,0.3c1,0.2,1.8,0.5,2.4,0.9l0,0l-1.3,2.8c-1.2-0.7-2.5-1-4-1l0,0c-0.9,0-1.5,0.1-1.9,0.4
				c-0.4,0.2-0.6,0.5-0.6,0.9l0,0c0,0.4,0.2,0.7,0.7,0.9s1.2,0.3,2.2,0.5l0,0c1.1,0.2,2.1,0.4,2.8,0.6c0.7,0.2,1.3,0.6,1.9,1.2
				c0.5,0.6,0.8,1.4,0.8,2.4l0,0c0,0.9-0.3,1.6-0.8,2.3c-0.5,0.7-1.3,1.2-2.2,1.6C492.3,46,491.1,46.2,489.8,46.2L489.8,46.2z
				 M503.4,46.2c-1.1,0-2.3-0.1-3.4-0.4c-1.1-0.3-2-0.6-2.6-1.1l0,0l1.3-2.9c0.6,0.4,1.4,0.7,2.2,1c0.9,0.2,1.7,0.4,2.6,0.4l0,0
				c1.7,0,2.5-0.4,2.5-1.3l0,0c0-0.4-0.2-0.7-0.7-0.8c-0.5-0.2-1.2-0.3-2.1-0.4l0,0c-1.1-0.2-2.1-0.4-2.8-0.6
				c-0.7-0.2-1.4-0.6-1.9-1.2c-0.5-0.6-0.8-1.4-0.8-2.4l0,0c0-0.9,0.3-1.6,0.8-2.3s1.2-1.2,2.2-1.6c1-0.4,2.1-0.6,3.4-0.6l0,0
				c1,0,1.9,0.1,2.9,0.3c1,0.2,1.8,0.5,2.4,0.9l0,0l-1.3,2.8c-1.2-0.7-2.5-1-4-1l0,0c-0.9,0-1.5,0.1-1.9,0.4
				c-0.4,0.2-0.6,0.5-0.6,0.9l0,0c0,0.4,0.2,0.7,0.7,0.9c0.5,0.2,1.2,0.3,2.2,0.5l0,0c1.1,0.2,2.1,0.4,2.8,0.6
				c0.7,0.2,1.3,0.6,1.9,1.2c0.5,0.6,0.8,1.4,0.8,2.4l0,0c0,0.9-0.3,1.6-0.8,2.3c-0.5,0.7-1.3,1.2-2.2,1.6
				C505.9,46,504.8,46.2,503.4,46.2L503.4,46.2z M519.9,51V27h3.7v24H519.9z M533.2,28.1h7.7V46h-4.2V31.4h-3.6V28.1z M552.4,35.4
				c1.6,0.3,2.8,0.8,3.6,1.8c0.8,0.9,1.3,2,1.3,3.4l0,0c0,1-0.3,2-0.8,2.9c-0.5,0.9-1.4,1.6-2.5,2.1s-2.5,0.8-4.1,0.8l0,0
				c-1.3,0-2.5-0.2-3.7-0.5c-1.2-0.3-2.3-0.8-3.1-1.4l0,0l1.6-3.2c0.7,0.5,1.5,0.9,2.4,1.2c0.9,0.3,1.8,0.4,2.8,0.4l0,0
				c1,0,1.9-0.2,2.5-0.6c0.6-0.4,0.9-1,0.9-1.7l0,0c0-1.5-1.1-2.2-3.4-2.2l0,0h-1.9v-2.7l3.7-4.2h-7.6v-3.3h12.6v2.7L552.4,35.4z
				 M580.8,36.7c1,0.3,1.8,0.9,2.4,1.6c0.6,0.8,0.9,1.7,0.9,2.8l0,0c0,1.6-0.6,2.8-1.8,3.6c-1.2,0.8-3,1.3-5.3,1.3l0,0h-9.3V28.1
				h8.8c2.2,0,3.9,0.4,5,1.3c1.2,0.8,1.8,2,1.8,3.4l0,0c0,0.9-0.2,1.6-0.6,2.3C582.1,35.8,581.5,36.3,580.8,36.7L580.8,36.7z
				 M575.8,31.2h-4.1v4.2h4.1c1,0,1.8-0.2,2.3-0.5c0.5-0.4,0.8-0.9,0.8-1.6l0,0c0-0.7-0.3-1.2-0.8-1.6
				C577.6,31.4,576.9,31.2,575.8,31.2L575.8,31.2z M576.6,42.9c1.1,0,1.9-0.2,2.5-0.5c0.6-0.4,0.8-0.9,0.8-1.7l0,0
				c0-1.5-1.1-2.2-3.3-2.2l0,0h-4.8v4.4H576.6z M593.5,46.2c-1.5,0-2.8-0.3-3.9-0.9s-2.1-1.4-2.7-2.5s-1-2.3-1-3.7l0,0
				c0-1.4,0.3-2.6,1-3.7s1.6-1.9,2.7-2.5s2.5-0.9,3.9-0.9l0,0c1.5,0,2.8,0.3,3.9,0.9s2,1.4,2.7,2.5c0.6,1.1,1,2.3,1,3.7l0,0
				c0,1.4-0.3,2.6-1,3.7c-0.6,1.1-1.5,1.9-2.7,2.5S594.9,46.2,593.5,46.2L593.5,46.2z M593.5,42.9c1,0,1.9-0.3,2.5-1
				c0.7-0.7,1-1.6,1-2.8l0,0c0-1.2-0.3-2.1-1-2.8c-0.7-0.7-1.5-1-2.5-1l0,0c-1,0-1.9,0.3-2.5,1c-0.7,0.7-1,1.6-1,2.8l0,0
				c0,1.2,0.3,2.1,1,2.8C591.6,42.6,592.5,42.9,593.5,42.9L593.5,42.9z M612.1,32c1.7,0,3.1,0.5,4.1,1.5c1.1,1,1.6,2.5,1.6,4.6l0,0
				V46h-4v-7.3c0-1.1-0.2-1.9-0.7-2.4c-0.5-0.5-1.2-0.8-2.1-0.8l0,0c-1,0-1.8,0.3-2.4,0.9c-0.6,0.6-0.9,1.6-0.9,2.8l0,0V46h-4V32.2
				h3.8v1.6c0.5-0.6,1.2-1,2-1.3C610.3,32.2,611.2,32,612.1,32L612.1,32z M635.1,39.2c0,0.1,0,0.4-0.1,1.1l0,0h-10.4
				c0.2,0.9,0.6,1.5,1.3,2c0.7,0.5,1.6,0.7,2.6,0.7l0,0c0.7,0,1.4-0.1,1.9-0.3c0.6-0.2,1.1-0.6,1.6-1l0,0l2.1,2.3
				c-1.3,1.5-3.2,2.2-5.7,2.2l0,0c-1.6,0-2.9-0.3-4.1-0.9c-1.2-0.6-2.1-1.4-2.8-2.5s-1-2.3-1-3.7l0,0c0-1.4,0.3-2.6,1-3.7
				c0.6-1.1,1.5-1.9,2.6-2.5c1.1-0.6,2.4-0.9,3.8-0.9l0,0c1.4,0,2.6,0.3,3.7,0.9c1.1,0.6,2,1.4,2.6,2.5
				C634.8,36.5,635.1,37.7,635.1,39.2L635.1,39.2z M627.9,35.1c-0.9,0-1.7,0.3-2.3,0.8s-1,1.2-1.1,2.1l0,0h6.8
				c-0.1-0.9-0.5-1.6-1.1-2.1C629.6,35.3,628.8,35.1,627.9,35.1L627.9,35.1z M641.7,42.9h7.3V46h-12.3v-2.4l7-8.3h-6.8v-3.1h11.9
				v2.4L641.7,42.9z"/>
		</g>
	</g>
	<g transform="rotate(0 91.4977 0)">
		<rect x="91.5" class="st1" width="4" height="108.4"/>
	</g>
</g>
</svg>
