<?xml version="1.0" encoding="utf-8"?>
<!-- Generator: Adobe Illustrator 24.2.1, SVG Export Plug-In . SVG Version: 6.00 Build 0)  -->
<svg version="1.1" id="Layer_1" xmlns="http://www.w3.org/2000/svg" xmlns:xlink="http://www.w3.org/1999/xlink" x="0px" y="0px"
	 viewBox="0 0 563.1 173" style="enable-background:new 0 0 563.1 173;" xml:space="preserve">
<style type="text/css">
	.st0{fill:#E5E5E5;}
	.st1{fill:#E9E41D;}
</style>
<g>
	<g transform="rotate(0 223.97790000000003 0)">
		<g transform="matrix(1 0 0 1 0 0)">
			<g>
				<path class="st0" d="M334.3,74.6V64.5h-9.8V43.1h-21.6v21.5h-21.4V43.1h21.4V0h-42.8v21.5h-21.1v-10H229V6.6h-5v5.1h4.8v10.2
					h9.9v42.8h21.4v21.7h42.8V64.9H324v9.9h10.1v4.8h5v-5.1L334.3,74.6z M281.4,43h-21.1V21.7h21.1V43z"/>
			</g>
		</g>
	</g>
	<g transform="rotate(0 0 150.3831)">
		<g transform="matrix(1 0 0 1 0 0)">
			<path class="st0" d="M10.6,159.6c1.1,0.2,2,0.7,2.6,1.4c0.6,0.7,0.9,1.6,0.9,2.8l0,0c0,1.4-0.5,2.6-1.6,3.3s-2.6,1.2-4.7,1.2l0,0
				H0v-16.8h7.3c1.9,0,3.3,0.4,4.4,1.1c1,0.8,1.6,1.8,1.6,3.2l0,0c0,0.9-0.2,1.7-0.7,2.4C12,158.7,11.4,159.2,10.6,159.6L10.6,159.6
				z M7.1,152.9H1.8v6.1h5.4c1.4,0,2.4-0.3,3.2-0.8c0.7-0.5,1.1-1.3,1.1-2.3l0,0c0-1-0.4-1.8-1.1-2.3C9.6,153.1,8.5,152.9,7.1,152.9
				L7.1,152.9z M7.7,166.8c1.5,0,2.6-0.3,3.4-0.8c0.8-0.5,1.2-1.3,1.2-2.4l0,0c0-2.1-1.5-3.2-4.6-3.2l0,0H1.8v6.3H7.7z M23.4,155.5
				c1.7,0,2.9,0.4,3.8,1.2c0.9,0.8,1.3,2,1.3,3.7l0,0v7.8h-1.6v-2c-0.4,0.7-1,1.2-1.7,1.5c-0.7,0.4-1.6,0.6-2.7,0.6l0,0
				c-1.4,0-2.5-0.3-3.4-1s-1.3-1.6-1.3-2.7l0,0c0-1.1,0.4-1.9,1.2-2.6c0.8-0.7,2-1,3.7-1l0,0h4v-0.8c0-1.1-0.3-1.9-0.9-2.5
				s-1.5-0.9-2.7-0.9l0,0c-0.8,0-1.6,0.1-2.3,0.4c-0.7,0.3-1.4,0.6-1.9,1.1l0,0l-0.8-1.3c0.6-0.5,1.4-1,2.3-1.3
				C21.5,155.6,22.4,155.5,23.4,155.5L23.4,155.5z M22.8,167c1,0,1.8-0.2,2.5-0.7c0.7-0.4,1.2-1.1,1.5-1.9l0,0v-2.1h-4
				c-2.2,0-3.2,0.8-3.2,2.3l0,0c0,0.7,0.3,1.3,0.8,1.7C21,166.8,21.8,167,22.8,167L22.8,167z M40.8,155.5c1.6,0,2.9,0.5,3.8,1.4
				c0.9,0.9,1.4,2.3,1.4,4l0,0v7.3h-1.7v-7.2c0-1.3-0.3-2.3-1-3c-0.7-0.7-1.6-1-2.8-1l0,0c-1.4,0-2.4,0.4-3.2,1.2s-1.2,1.9-1.2,3.4
				l0,0v6.6h-1.7v-12.7H36v2.3c0.5-0.8,1.1-1.4,1.9-1.8C38.8,155.7,39.8,155.5,40.8,155.5L40.8,155.5z M61.8,150.4h1.7v17.9h-1.6
				v-2.5c-0.5,0.9-1.2,1.5-2,1.9c-0.8,0.4-1.8,0.7-2.9,0.7l0,0c-1.2,0-2.3-0.3-3.2-0.8c-1-0.5-1.7-1.3-2.3-2.3s-0.8-2.1-0.8-3.3l0,0
				c0-1.3,0.3-2.4,0.8-3.3c0.5-1,1.3-1.7,2.3-2.3c1-0.5,2-0.8,3.2-0.8l0,0c1,0,2,0.2,2.8,0.6s1.5,1,2,1.9l0,0V150.4z M57.1,166.8
				c0.9,0,1.7-0.2,2.4-0.6c0.7-0.4,1.3-1,1.7-1.7s0.6-1.6,0.6-2.6l0,0c0-1-0.2-1.8-0.6-2.6s-1-1.3-1.7-1.7c-0.7-0.4-1.5-0.6-2.4-0.6
				l0,0c-0.9,0-1.7,0.2-2.4,0.6s-1.3,1-1.7,1.7c-0.4,0.8-0.6,1.6-0.6,2.6l0,0c0,1,0.2,1.8,0.6,2.6c0.4,0.8,1,1.3,1.7,1.7
				C55.4,166.6,56.2,166.8,57.1,166.8L57.1,166.8z M93.4,151.4h1.5v16.8h-1.7v-13.5l-6.6,11.3h-0.8L79,154.8v13.4h-1.7v-16.8h1.5
				l7.3,12.5L93.4,151.4z M105.6,155.5c1.7,0,2.9,0.4,3.8,1.2c0.9,0.8,1.3,2,1.3,3.7l0,0v7.8h-1.6v-2c-0.4,0.7-1,1.2-1.7,1.5
				c-0.7,0.4-1.6,0.6-2.7,0.6l0,0c-1.4,0-2.5-0.3-3.4-1s-1.3-1.6-1.3-2.7l0,0c0-1.1,0.4-1.9,1.2-2.6c0.8-0.7,2-1,3.7-1l0,0h4v-0.8
				c0-1.1-0.3-1.9-0.9-2.5c-0.6-0.6-1.5-0.9-2.7-0.9l0,0c-0.8,0-1.6,0.1-2.3,0.4c-0.7,0.3-1.4,0.6-1.9,1.1l0,0l-0.8-1.3
				c0.6-0.5,1.4-1,2.3-1.3C103.6,155.6,104.6,155.5,105.6,155.5L105.6,155.5z M105,167c1,0,1.8-0.2,2.5-0.7c0.7-0.4,1.2-1.1,1.5-1.9
				l0,0v-2.1h-4c-2.2,0-3.2,0.8-3.2,2.3l0,0c0,0.7,0.3,1.3,0.8,1.7S104,167,105,167L105,167z M123,155.5c1.6,0,2.9,0.5,3.8,1.4
				c0.9,0.9,1.4,2.3,1.4,4l0,0v7.3h-1.7v-7.2c0-1.3-0.3-2.3-1-3s-1.6-1-2.8-1l0,0c-1.4,0-2.4,0.4-3.2,1.2c-0.8,0.8-1.2,1.9-1.2,3.4
				l0,0v6.6h-1.7v-12.7h1.6v2.3c0.5-0.8,1.1-1.4,1.9-1.8C121,155.7,121.9,155.5,123,155.5L123,155.5z M138.5,155.5
				c1.7,0,2.9,0.4,3.8,1.2s1.3,2,1.3,3.7l0,0v7.8H142v-2c-0.4,0.7-1,1.2-1.7,1.5c-0.7,0.4-1.6,0.6-2.7,0.6l0,0c-1.4,0-2.5-0.3-3.4-1
				c-0.8-0.7-1.3-1.6-1.3-2.7l0,0c0-1.1,0.4-1.9,1.2-2.6c0.8-0.7,2-1,3.7-1l0,0h4v-0.8c0-1.1-0.3-1.9-0.9-2.5
				c-0.6-0.6-1.5-0.9-2.7-0.9l0,0c-0.8,0-1.6,0.1-2.3,0.4c-0.7,0.3-1.4,0.6-1.9,1.1l0,0l-0.8-1.3c0.6-0.5,1.4-1,2.3-1.3
				C136.5,155.6,137.5,155.5,138.5,155.5L138.5,155.5z M137.9,167c1,0,1.8-0.2,2.5-0.7c0.7-0.4,1.2-1.1,1.5-1.9l0,0v-2.1h-4
				c-2.2,0-3.2,0.8-3.2,2.3l0,0c0,0.7,0.3,1.3,0.8,1.7C136.1,166.8,136.9,167,137.9,167L137.9,167z M159.6,155.6h1.6v11.1
				c0,2.1-0.5,3.7-1.6,4.8s-2.6,1.6-4.8,1.6l0,0c-1.2,0-2.3-0.2-3.3-0.5c-1.1-0.3-1.9-0.8-2.6-1.4l0,0l0.9-1.3
				c0.6,0.5,1.4,1,2.2,1.3c0.9,0.3,1.8,0.5,2.8,0.5l0,0c1.6,0,2.8-0.4,3.5-1.1c0.8-0.7,1.1-1.9,1.1-3.5l0,0v-1.6
				c-0.5,0.8-1.2,1.4-2.1,1.8c-0.9,0.4-1.8,0.6-2.9,0.6l0,0c-1.2,0-2.3-0.3-3.2-0.8c-1-0.5-1.7-1.3-2.3-2.2c-0.6-0.9-0.8-2-0.8-3.2
				l0,0c0-1.2,0.3-2.2,0.8-3.2s1.3-1.7,2.3-2.2c1-0.5,2-0.8,3.2-0.8l0,0c1.1,0,2,0.2,2.9,0.6c0.9,0.4,1.6,1.1,2.1,1.9l0,0V155.6z
				 M154.8,166.2c0.9,0,1.7-0.2,2.5-0.6s1.3-0.9,1.7-1.6c0.4-0.7,0.6-1.5,0.6-2.4l0,0c0-0.9-0.2-1.7-0.6-2.4c-0.4-0.7-1-1.2-1.7-1.6
				c-0.7-0.4-1.6-0.6-2.5-0.6l0,0c-0.9,0-1.7,0.2-2.5,0.6c-0.7,0.4-1.3,0.9-1.7,1.6c-0.4,0.7-0.6,1.5-0.6,2.4l0,0
				c0,0.9,0.2,1.7,0.6,2.4c0.4,0.7,1,1.3,1.7,1.6C153,166,153.8,166.2,154.8,166.2L154.8,166.2z M178.3,161.9l0,0.5h-10.6
				c0.1,1.3,0.6,2.4,1.5,3.2c0.9,0.8,2.1,1.2,3.5,1.2l0,0c0.8,0,1.5-0.1,2.2-0.4s1.2-0.7,1.7-1.2l0,0l1,1.1
				c-0.6,0.7-1.3,1.2-2.1,1.5c-0.8,0.4-1.8,0.5-2.8,0.5l0,0c-1.3,0-2.5-0.3-3.5-0.8c-1-0.6-1.8-1.3-2.3-2.3s-0.8-2.1-0.8-3.3l0,0
				c0-1.2,0.3-2.3,0.8-3.3c0.5-1,1.3-1.7,2.2-2.3s2-0.8,3.2-0.8l0,0c1.2,0,2.2,0.3,3.2,0.8c0.9,0.5,1.7,1.3,2.2,2.3
				C178,159.5,178.3,160.7,178.3,161.9L178.3,161.9z M172.1,157c-1.2,0-2.2,0.4-3.1,1.2c-0.8,0.8-1.3,1.8-1.4,3l0,0h9
				c-0.1-1.3-0.6-2.3-1.4-3C174.4,157.3,173.4,157,172.1,157L172.1,157z M184.6,158.1c0.4-0.9,1-1.5,1.8-1.9
				c0.8-0.4,1.8-0.6,2.9-0.6l0,0v1.7l-0.4,0c-1.3,0-2.4,0.4-3.1,1.2c-0.8,0.8-1.1,2-1.1,3.4l0,0v6.4H183v-12.7h1.6V158.1z
				 M213.2,152.9h-9.8v6.6h8.7v1.5h-8.7v7.1h-1.8v-16.8h11.6V152.9z M219.2,158.1c0.4-0.9,1-1.5,1.8-1.9c0.8-0.4,1.8-0.6,2.9-0.6
				l0,0v1.7l-0.4,0c-1.3,0-2.4,0.4-3.1,1.2s-1.1,2-1.1,3.4l0,0v6.4h-1.7v-12.7h1.6V158.1z M233.2,168.4c-1.2,0-2.3-0.3-3.3-0.8
				c-1-0.6-1.7-1.3-2.3-2.3c-0.6-1-0.8-2.1-0.8-3.3l0,0c0-1.2,0.3-2.3,0.8-3.3c0.6-1,1.3-1.7,2.3-2.3c1-0.5,2.1-0.8,3.3-0.8l0,0
				c1.2,0,2.3,0.3,3.3,0.8s1.7,1.3,2.3,2.3c0.6,1,0.8,2.1,0.8,3.3l0,0c0,1.2-0.3,2.3-0.8,3.3c-0.6,1-1.3,1.7-2.3,2.3
				C235.6,168.1,234.5,168.4,233.2,168.4L233.2,168.4z M233.2,166.8c0.9,0,1.7-0.2,2.4-0.6c0.7-0.4,1.3-1,1.7-1.7s0.6-1.6,0.6-2.6
				l0,0c0-1-0.2-1.8-0.6-2.6s-1-1.3-1.7-1.7c-0.7-0.4-1.5-0.6-2.4-0.6l0,0c-0.9,0-1.7,0.2-2.4,0.6c-0.7,0.4-1.3,1-1.7,1.7
				c-0.4,0.8-0.6,1.6-0.6,2.6l0,0c0,1,0.2,1.8,0.6,2.6c0.4,0.8,1,1.3,1.7,1.7C231.5,166.6,232.4,166.8,233.2,166.8L233.2,166.8z
				 M250.8,155.5c1.6,0,2.9,0.5,3.8,1.4c0.9,0.9,1.4,2.3,1.4,4l0,0v7.3h-1.7v-7.2c0-1.3-0.3-2.3-1-3s-1.6-1-2.8-1l0,0
				c-1.4,0-2.4,0.4-3.2,1.2s-1.2,1.9-1.2,3.4l0,0v6.6h-1.7v-12.7h1.6v2.3c0.5-0.8,1.1-1.4,1.9-1.8
				C248.8,155.7,249.7,155.5,250.8,155.5L250.8,155.5z M267.9,166.2l0.6,1.2c-0.3,0.3-0.7,0.5-1.2,0.7c-0.5,0.2-1,0.2-1.5,0.2l0,0
				c-1.2,0-2.1-0.3-2.7-1c-0.6-0.6-1-1.5-1-2.7l0,0V157h-2.3v-1.4h2.3v-2.8h1.7v2.8h3.9v1.4h-3.9v7.6c0,0.8,0.2,1.3,0.6,1.7
				s0.9,0.6,1.6,0.6l0,0c0.4,0,0.7-0.1,1-0.2C267.4,166.6,267.7,166.4,267.9,166.2L267.9,166.2z M296.7,151.4h1.5v16.8h-1.7v-13.5
				l-6.6,11.3H289l-6.6-11.3v13.4h-1.7v-16.8h1.5l7.3,12.5L296.7,151.4z M309,155.5c1.7,0,2.9,0.4,3.8,1.2c0.9,0.8,1.3,2,1.3,3.7
				l0,0v7.8h-1.6v-2c-0.4,0.7-1,1.2-1.7,1.5c-0.7,0.4-1.6,0.6-2.7,0.6l0,0c-1.4,0-2.5-0.3-3.4-1c-0.8-0.7-1.3-1.6-1.3-2.7l0,0
				c0-1.1,0.4-1.9,1.2-2.6c0.8-0.7,2-1,3.7-1l0,0h4v-0.8c0-1.1-0.3-1.9-0.9-2.5c-0.6-0.6-1.5-0.9-2.7-0.9l0,0
				c-0.8,0-1.6,0.1-2.3,0.4c-0.7,0.3-1.4,0.6-1.9,1.1l0,0l-0.8-1.3c0.6-0.5,1.4-1,2.3-1.3C307,155.6,308,155.5,309,155.5L309,155.5z
				 M308.4,167c1,0,1.8-0.2,2.5-0.7c0.7-0.4,1.2-1.1,1.5-1.9l0,0v-2.1h-4c-2.2,0-3.2,0.8-3.2,2.3l0,0c0,0.7,0.3,1.3,0.8,1.7
				C306.6,166.8,307.4,167,308.4,167L308.4,167z M326.4,155.5c1.6,0,2.9,0.5,3.8,1.4s1.4,2.3,1.4,4l0,0v7.3h-1.7v-7.2
				c0-1.3-0.3-2.3-1-3c-0.7-0.7-1.6-1-2.8-1l0,0c-1.4,0-2.4,0.4-3.2,1.2c-0.8,0.8-1.2,1.9-1.2,3.4l0,0v6.6h-1.7v-12.7h1.6v2.3
				c0.5-0.8,1.1-1.4,1.9-1.8C324.3,155.7,325.3,155.5,326.4,155.5L326.4,155.5z M345.3,172.9v-22.5h1.6v22.5H345.3z M361.1,168.2
				v-16.8h1.8v15.3h9.4v1.5H361.1z M387,161.9l0,0.5h-10.6c0.1,1.3,0.6,2.4,1.5,3.2c0.9,0.8,2.1,1.2,3.5,1.2l0,0
				c0.8,0,1.5-0.1,2.2-0.4c0.7-0.3,1.2-0.7,1.7-1.2l0,0l1,1.1c-0.6,0.7-1.3,1.2-2.1,1.5c-0.8,0.4-1.8,0.5-2.8,0.5l0,0
				c-1.3,0-2.5-0.3-3.5-0.8c-1-0.6-1.8-1.3-2.3-2.3c-0.6-1-0.8-2.1-0.8-3.3l0,0c0-1.2,0.3-2.3,0.8-3.3c0.5-1,1.3-1.7,2.2-2.3
				c0.9-0.5,2-0.8,3.2-0.8l0,0c1.2,0,2.2,0.3,3.2,0.8s1.7,1.3,2.2,2.3C386.7,159.5,387,160.7,387,161.9L387,161.9z M380.9,157
				c-1.2,0-2.2,0.4-3.1,1.2c-0.8,0.8-1.3,1.8-1.4,3l0,0h9c-0.1-1.3-0.6-2.3-1.4-3C383.1,157.3,382.1,157,380.9,157L380.9,157z
				 M408.5,155.6h1.6l-4.8,12.7h-1.6l-4-10.4l-4,10.4H394l-4.8-12.7h1.6l4,10.8l4.1-10.8h1.5l4,10.8L408.5,155.6z M413.8,168.2
				v-12.7h1.7v12.7H413.8z M414.7,152.8c-0.4,0-0.6-0.1-0.9-0.4c-0.2-0.2-0.4-0.5-0.4-0.9l0,0c0-0.3,0.1-0.6,0.4-0.8
				c0.2-0.2,0.5-0.4,0.9-0.4l0,0c0.4,0,0.6,0.1,0.9,0.3s0.4,0.5,0.4,0.8l0,0c0,0.4-0.1,0.6-0.4,0.9
				C415.3,152.7,415,152.8,414.7,152.8L414.7,152.8z M424.9,168.4c-1,0-2-0.1-2.9-0.4c-0.9-0.3-1.7-0.7-2.2-1.1l0,0l0.8-1.3
				c0.5,0.4,1.2,0.8,2,1c0.8,0.3,1.6,0.4,2.5,0.4l0,0c1.2,0,2-0.2,2.6-0.5c0.6-0.4,0.8-0.9,0.8-1.5l0,0c0-0.5-0.2-0.8-0.5-1.1
				c-0.3-0.3-0.7-0.5-1.2-0.6c-0.5-0.1-1.1-0.3-1.9-0.4l0,0c-1-0.2-1.9-0.4-2.5-0.6c-0.6-0.2-1.2-0.5-1.6-1c-0.4-0.5-0.7-1.1-0.7-2
				l0,0c0-1.1,0.4-1.9,1.3-2.6c0.9-0.7,2.1-1,3.7-1l0,0c0.8,0,1.6,0.1,2.5,0.3c0.8,0.2,1.5,0.5,2,0.9l0,0l-0.7,1.4
				c-1-0.7-2.3-1.1-3.7-1.1l0,0c-1.1,0-1.9,0.2-2.5,0.6c-0.6,0.4-0.8,0.9-0.8,1.5l0,0c0,0.5,0.2,0.9,0.5,1.2
				c0.3,0.3,0.7,0.5,1.2,0.6c0.5,0.1,1.1,0.3,1.9,0.4l0,0c1,0.2,1.8,0.4,2.4,0.6c0.6,0.2,1.1,0.5,1.6,1s0.6,1.1,0.6,1.9l0,0
				c0,1.1-0.5,2-1.4,2.6C427.8,168,426.5,168.4,424.9,168.4L424.9,168.4z M440.5,166.2l0.6,1.2c-0.3,0.3-0.7,0.5-1.2,0.7
				c-0.5,0.2-1,0.2-1.5,0.2l0,0c-1.2,0-2.1-0.3-2.7-1c-0.6-0.6-1-1.5-1-2.7l0,0V157h-2.3v-1.4h2.3v-2.8h1.7v2.8h3.9v1.4h-3.9v7.6
				c0,0.8,0.2,1.3,0.6,1.7s0.9,0.6,1.6,0.6l0,0c0.4,0,0.7-0.1,1-0.2C440,166.6,440.3,166.4,440.5,166.2L440.5,166.2z M450.2,168.4
				c-1.2,0-2.3-0.3-3.3-0.8c-1-0.6-1.7-1.3-2.3-2.3c-0.6-1-0.8-2.1-0.8-3.3l0,0c0-1.2,0.3-2.3,0.8-3.3c0.6-1,1.3-1.7,2.3-2.3
				s2.1-0.8,3.3-0.8l0,0c1.2,0,2.3,0.3,3.3,0.8c1,0.5,1.7,1.3,2.3,2.3c0.6,1,0.8,2.1,0.8,3.3l0,0c0,1.2-0.3,2.3-0.8,3.3
				c-0.6,1-1.3,1.7-2.3,2.3C452.5,168.1,451.4,168.4,450.2,168.4L450.2,168.4z M450.2,166.8c0.9,0,1.7-0.2,2.4-0.6
				c0.7-0.4,1.3-1,1.7-1.7s0.6-1.6,0.6-2.6l0,0c0-1-0.2-1.8-0.6-2.6s-1-1.3-1.7-1.7s-1.5-0.6-2.4-0.6l0,0c-0.9,0-1.7,0.2-2.4,0.6
				s-1.3,1-1.7,1.7c-0.4,0.8-0.6,1.6-0.6,2.6l0,0c0,1,0.2,1.8,0.6,2.6c0.4,0.8,1,1.3,1.7,1.7C448.5,166.6,449.3,166.8,450.2,166.8
				L450.2,166.8z M467.7,155.5c1.6,0,2.9,0.5,3.8,1.4c0.9,0.9,1.4,2.3,1.4,4l0,0v7.3h-1.7v-7.2c0-1.3-0.3-2.3-1-3
				c-0.7-0.7-1.6-1-2.8-1l0,0c-1.4,0-2.4,0.4-3.2,1.2c-0.8,0.8-1.2,1.9-1.2,3.4l0,0v6.6h-1.7v-12.7h1.6v2.3c0.5-0.8,1.1-1.4,1.9-1.8
				C465.7,155.7,466.6,155.5,467.7,155.5L467.7,155.5z M479,165.7c0.4,0,0.7,0.1,0.9,0.4c0.2,0.2,0.4,0.6,0.4,0.9l0,0
				c0,0.2,0,0.4-0.1,0.6c-0.1,0.2-0.1,0.5-0.3,0.8l0,0l-1,3.3h-1.2l0.8-3.5c-0.3-0.1-0.5-0.2-0.6-0.4c-0.2-0.2-0.2-0.5-0.2-0.8l0,0
				c0-0.4,0.1-0.7,0.4-0.9C478.3,165.9,478.6,165.7,479,165.7L479,165.7z M492.9,168.2v-16.8h1.8v16.8H492.9z M510.9,150.4h1.7v17.9
				H511v-2.5c-0.5,0.9-1.2,1.5-2,1.9c-0.8,0.4-1.8,0.7-2.9,0.7l0,0c-1.2,0-2.3-0.3-3.2-0.8s-1.7-1.3-2.3-2.3c-0.5-1-0.8-2.1-0.8-3.3
				l0,0c0-1.3,0.3-2.4,0.8-3.3c0.5-1,1.3-1.7,2.3-2.3c1-0.5,2-0.8,3.2-0.8l0,0c1,0,2,0.2,2.8,0.6s1.5,1,2,1.9l0,0V150.4z
				 M506.2,166.8c0.9,0,1.7-0.2,2.4-0.6c0.7-0.4,1.3-1,1.7-1.7c0.4-0.8,0.6-1.6,0.6-2.6l0,0c0-1-0.2-1.8-0.6-2.6
				c-0.4-0.8-1-1.3-1.7-1.7c-0.7-0.4-1.5-0.6-2.4-0.6l0,0c-0.9,0-1.7,0.2-2.4,0.6c-0.7,0.4-1.3,1-1.7,1.7s-0.6,1.6-0.6,2.6l0,0
				c0,1,0.2,1.8,0.6,2.6s1,1.3,1.7,1.7C504.5,166.6,505.3,166.8,506.2,166.8L506.2,166.8z M523,155.5c1.7,0,2.9,0.4,3.8,1.2
				c0.9,0.8,1.3,2,1.3,3.7l0,0v7.8h-1.6v-2c-0.4,0.7-1,1.2-1.7,1.5c-0.7,0.4-1.6,0.6-2.7,0.6l0,0c-1.4,0-2.5-0.3-3.4-1
				c-0.8-0.7-1.3-1.6-1.3-2.7l0,0c0-1.1,0.4-1.9,1.2-2.6s2-1,3.7-1l0,0h4v-0.8c0-1.1-0.3-1.9-0.9-2.5s-1.5-0.9-2.7-0.9l0,0
				c-0.8,0-1.6,0.1-2.3,0.4c-0.7,0.3-1.4,0.6-1.9,1.1l0,0l-0.8-1.3c0.6-0.5,1.4-1,2.3-1.3C521.1,155.6,522,155.5,523,155.5
				L523,155.5z M522.4,167c1,0,1.8-0.2,2.5-0.7c0.7-0.4,1.2-1.1,1.5-1.9l0,0v-2.1h-4c-2.2,0-3.2,0.8-3.2,2.3l0,0
				c0,0.7,0.3,1.3,0.8,1.7C520.6,166.8,521.4,167,522.4,167L522.4,167z M540.4,155.5c1.6,0,2.9,0.5,3.8,1.4c0.9,0.9,1.4,2.3,1.4,4
				l0,0v7.3h-1.7v-7.2c0-1.3-0.3-2.3-1-3s-1.6-1-2.8-1l0,0c-1.4,0-2.4,0.4-3.2,1.2s-1.2,1.9-1.2,3.4l0,0v6.6H534v-17.9h1.7v7.4
				c0.5-0.7,1.1-1.3,1.9-1.7C538.4,155.7,539.4,155.5,540.4,155.5L540.4,155.5z M556.7,168.4c-1.2,0-2.3-0.3-3.3-0.8
				c-1-0.6-1.7-1.3-2.3-2.3c-0.6-1-0.8-2.1-0.8-3.3l0,0c0-1.2,0.3-2.3,0.8-3.3c0.6-1,1.3-1.7,2.3-2.3c1-0.5,2.1-0.8,3.3-0.8l0,0
				c1.2,0,2.3,0.3,3.3,0.8s1.7,1.3,2.3,2.3c0.6,1,0.8,2.1,0.8,3.3l0,0c0,1.2-0.3,2.3-0.8,3.3s-1.3,1.7-2.3,2.3
				C559,168.1,557.9,168.4,556.7,168.4L556.7,168.4z M556.7,166.8c0.9,0,1.7-0.2,2.4-0.6c0.7-0.4,1.3-1,1.7-1.7
				c0.4-0.8,0.6-1.6,0.6-2.6l0,0c0-1-0.2-1.8-0.6-2.6c-0.4-0.8-1-1.3-1.7-1.7c-0.7-0.4-1.5-0.6-2.4-0.6l0,0c-0.9,0-1.7,0.2-2.4,0.6
				c-0.7,0.4-1.3,1-1.7,1.7s-0.6,1.6-0.6,2.6l0,0c0,1,0.2,1.8,0.6,2.6s1,1.3,1.7,1.7C555,166.6,555.8,166.8,556.7,166.8L556.7,166.8
				z"/>
		</g>
	</g>
	<g transform="rotate(0 89.6042 112.3831)">
		<g transform="matrix(1 0 0 1 0 0)">
			<path class="st1" d="M97.5,130.2c-0.4,0.2-0.9,0.3-1.5,0.3c-0.6,0.1-1.3,0.1-2.3,0.1l0,0h-4.1c0.2-0.1,0.5-0.2,0.7-0.6
				c0.3-0.3,0.4-1,0.4-1.9l0,0v-12.4c0-0.9-0.1-1.5-0.4-1.8c-0.2-0.3-0.5-0.5-0.7-0.6l0,0h4.1c1.1,0,1.9,0,2.4,0.1s1,0.2,1.5,0.4
				l0,0c0.7,0.4,1.3,0.8,1.7,1.5c0.4,0.6,0.6,1.3,0.6,2.1l0,0c0,1.1-0.3,2.1-1,2.9c-0.7,0.8-1.6,1.3-2.7,1.6l0,0
				c0.8,0.1,1.5,0.3,2.1,0.7s1.2,0.8,1.7,1.4c0.4,0.6,0.6,1.3,0.6,2.1l0,0c0,1.1-0.3,1.9-0.9,2.6C99.3,129.3,98.5,129.8,97.5,130.2
				L97.5,130.2z M96.8,115.1c-0.3-0.3-0.7-0.4-1.1-0.6c-0.4-0.1-0.9-0.2-1.6-0.2l0,0h-1.7v7.1h2c0.6,0,1.1-0.1,1.5-0.3
				c0.4-0.2,0.8-0.4,1.1-0.7l0,0c0.3-0.3,0.6-0.7,0.8-1.2c0.2-0.5,0.3-0.9,0.3-1.4l0,0c0-0.6-0.1-1.1-0.3-1.6
				C97.6,115.8,97.3,115.4,96.8,115.1L96.8,115.1z M97.4,123.2c-0.3-0.3-0.7-0.4-1.2-0.6c-0.5-0.1-1.1-0.2-1.9-0.2l0,0h-1.8v7.1h2.4
				c1.2,0,2.1-0.3,2.8-0.9s1-1.5,1-2.7l0,0C98.7,124.9,98.2,123.9,97.4,123.2L97.4,123.2z M110.8,130.9c-0.5,0-1-0.2-1.4-0.4
				c-0.4-0.3-0.6-0.6-0.6-0.9l0,0c-0.3,0.4-0.7,0.8-1.2,1c-0.5,0.2-1,0.4-1.5,0.4l0,0c-0.8,0-1.4-0.2-1.9-0.7
				c-0.5-0.4-0.8-1-0.8-1.7l0,0c0-1.9,1.7-2.8,5.2-2.8l0,0v-0.3c0-0.9-0.1-1.6-0.4-2l0,0c-0.4-0.6-1-0.9-1.8-0.9l0,0
				c-0.7,0-1.2,0.2-1.6,0.6c-0.4,0.4-0.6,0.9-0.6,1.5l0,0c-0.1-0.2-0.2-0.3-0.2-0.5c-0.1-0.1-0.1-0.3-0.1-0.6l0,0
				c0-0.6,0.3-1.1,0.9-1.6c0.6-0.5,1.3-0.7,2.2-0.7l0,0c1.3,0,2.2,0.4,2.8,1.3l0,0c0.2,0.3,0.3,0.6,0.4,1c0.1,0.4,0.1,0.9,0.1,1.6
				l0,0v3c0,0.5,0.1,0.9,0.4,1.2c0.3,0.3,0.7,0.4,1.2,0.4l0,0h0.3L110.8,130.9z M108.7,126.4c-1.3,0-2.2,0.2-2.7,0.5
				c-0.5,0.3-0.7,0.8-0.7,1.4l0,0c0,0.5,0.1,0.8,0.4,1.1c0.3,0.3,0.6,0.4,1,0.4l0,0c0.3,0,0.6-0.1,0.9-0.2c0.3-0.2,0.5-0.4,0.7-0.6
				l0,0c0.3-0.4,0.4-0.8,0.4-1.4l0,0V126.4z M116.6,130.9c-0.5,0-1-0.1-1.6-0.3c-0.5-0.2-1-0.4-1.3-0.7l0,0v-2.2
				c0.3,0.8,0.7,1.3,1.3,1.7c0.5,0.3,1.1,0.5,1.8,0.5l0,0c0.5,0,0.9-0.1,1.3-0.4c0.3-0.3,0.5-0.6,0.5-0.9l0,0c0-0.4-0.2-0.7-0.5-0.9
				c-0.3-0.3-0.8-0.5-1.5-0.9l0,0c-0.9-0.4-1.6-0.8-2.1-1.2c-0.5-0.4-0.7-0.9-0.7-1.6l0,0c0-0.8,0.3-1.4,0.9-1.9
				c0.6-0.5,1.3-0.8,2.2-0.8l0,0c0.6,0,1.2,0.1,1.7,0.2c0.5,0.2,0.8,0.3,1.1,0.5l0,0l-0.4,1.9c-0.2-0.6-0.5-1-1-1.3s-1-0.4-1.5-0.4
				l0,0c-0.5,0-0.8,0.1-1.1,0.4s-0.4,0.6-0.4,0.9l0,0c0,0.5,0.2,0.8,0.5,1.1c0.4,0.3,0.9,0.6,1.6,0.9l0,0c0.9,0.4,1.5,0.7,2,1.1
				s0.7,0.9,0.7,1.6l0,0c0,0.5-0.1,0.9-0.4,1.4c-0.3,0.4-0.7,0.8-1.2,1C117.8,130.7,117.2,130.9,116.6,130.9L116.6,130.9z
				 M125.2,130.9c-0.5,0-1-0.1-1.6-0.3s-1-0.4-1.3-0.7l0,0v-2.2c0.3,0.8,0.7,1.3,1.3,1.7c0.5,0.3,1.1,0.5,1.8,0.5l0,0
				c0.5,0,0.9-0.1,1.3-0.4c0.3-0.3,0.5-0.6,0.5-0.9l0,0c0-0.4-0.2-0.7-0.5-0.9s-0.8-0.5-1.5-0.9l0,0c-0.9-0.4-1.6-0.8-2.1-1.2
				c-0.5-0.4-0.7-0.9-0.7-1.6l0,0c0-0.8,0.3-1.4,0.9-1.9c0.6-0.5,1.3-0.8,2.2-0.8l0,0c0.6,0,1.2,0.1,1.7,0.2
				c0.5,0.2,0.8,0.3,1.1,0.5l0,0l-0.4,1.9c-0.2-0.6-0.5-1-1-1.3c-0.5-0.3-1-0.4-1.5-0.4l0,0c-0.5,0-0.8,0.1-1.1,0.4
				s-0.4,0.6-0.4,0.9l0,0c0,0.5,0.2,0.8,0.5,1.1c0.4,0.3,0.9,0.6,1.6,0.9l0,0c0.9,0.4,1.5,0.7,2,1.1c0.5,0.4,0.7,0.9,0.7,1.6l0,0
				c0,0.5-0.1,0.9-0.4,1.4c-0.3,0.4-0.7,0.8-1.2,1C126.4,130.7,125.9,130.9,125.2,130.9L125.2,130.9z M156.4,130.6h-3.9
				c0.2,0,0.4-0.2,0.7-0.5c0.2-0.3,0.4-0.9,0.4-1.8l0,0v-12.5l-6.6,15.1l-6.7-15.1v12.4c0,0.9,0.1,1.5,0.4,1.9
				c0.3,0.4,0.6,0.6,0.8,0.6l0,0h-3.7c0.3,0,0.5-0.2,0.8-0.6c0.3-0.3,0.5-1,0.5-1.9l0,0v-12.5c0-0.8-0.1-1.4-0.4-1.7
				c-0.3-0.3-0.6-0.5-0.9-0.6l0,0h3.4l6.1,14l6-14h3c-0.2,0-0.5,0.2-0.7,0.5c-0.3,0.3-0.4,0.9-0.4,1.8l0,0v12.7
				c0,0.8,0.1,1.4,0.4,1.7C156,130.4,156.2,130.5,156.4,130.6L156.4,130.6z M166.7,130.9c-0.5,0-1-0.2-1.4-0.4
				c-0.4-0.3-0.6-0.6-0.6-0.9l0,0c-0.3,0.4-0.7,0.8-1.2,1c-0.5,0.2-1,0.4-1.5,0.4l0,0c-0.8,0-1.4-0.2-1.9-0.7
				c-0.5-0.4-0.8-1-0.8-1.7l0,0c0-1.9,1.7-2.8,5.2-2.8l0,0v-0.3c0-0.9-0.1-1.6-0.4-2l0,0c-0.4-0.6-1-0.9-1.8-0.9l0,0
				c-0.7,0-1.2,0.2-1.6,0.6c-0.4,0.4-0.6,0.9-0.6,1.5l0,0c-0.1-0.2-0.2-0.3-0.2-0.5c-0.1-0.1-0.1-0.3-0.1-0.6l0,0
				c0-0.6,0.3-1.1,0.9-1.6c0.6-0.5,1.3-0.7,2.2-0.7l0,0c1.3,0,2.2,0.4,2.8,1.3l0,0c0.2,0.3,0.3,0.6,0.4,1c0.1,0.4,0.1,0.9,0.1,1.6
				l0,0v3c0,0.5,0.1,0.9,0.4,1.2c0.3,0.3,0.7,0.4,1.2,0.4l0,0h0.3L166.7,130.9z M164.6,126.4c-1.3,0-2.2,0.2-2.7,0.5
				c-0.5,0.3-0.7,0.8-0.7,1.4l0,0c0,0.5,0.1,0.8,0.4,1.1c0.3,0.3,0.6,0.4,1,0.4l0,0c0.3,0,0.6-0.1,0.9-0.2c0.3-0.2,0.5-0.4,0.7-0.6
				l0,0c0.3-0.4,0.4-0.8,0.4-1.4l0,0V126.4z M172.4,130.9c-0.5,0-1-0.1-1.6-0.3s-1-0.4-1.3-0.7l0,0v-2.2c0.3,0.8,0.7,1.3,1.3,1.7
				c0.5,0.3,1.1,0.5,1.8,0.5l0,0c0.5,0,0.9-0.1,1.3-0.4c0.3-0.3,0.5-0.6,0.5-0.9l0,0c0-0.4-0.2-0.7-0.5-0.9s-0.8-0.5-1.5-0.9l0,0
				c-0.9-0.4-1.6-0.8-2.1-1.2c-0.5-0.4-0.7-0.9-0.7-1.6l0,0c0-0.8,0.3-1.4,0.9-1.9c0.6-0.5,1.3-0.8,2.2-0.8l0,0
				c0.6,0,1.2,0.1,1.7,0.2c0.5,0.2,0.8,0.3,1.1,0.5l0,0l-0.4,1.9c-0.2-0.6-0.5-1-1-1.3s-1-0.4-1.5-0.4l0,0c-0.5,0-0.8,0.1-1.1,0.4
				c-0.3,0.3-0.4,0.6-0.4,0.9l0,0c0,0.5,0.2,0.8,0.5,1.1c0.4,0.3,0.9,0.6,1.6,0.9l0,0c0.9,0.4,1.5,0.7,2,1.1s0.7,0.9,0.7,1.6l0,0
				c0,0.5-0.1,0.9-0.4,1.4s-0.7,0.8-1.2,1C173.7,130.7,173.1,130.9,172.4,130.9L172.4,130.9z M181.2,130.9c-0.8,0-1.4-0.3-1.9-0.8
				c-0.4-0.6-0.6-1.2-0.6-2l0,0v-5.6h-1.4l3-3.4v2.4h3.2v1h-3.2v5.3c0,0.6,0.2,1.1,0.5,1.4c0.3,0.3,0.7,0.5,1.2,0.5l0,0
				c0.3,0,0.7-0.1,1-0.3s0.6-0.5,0.8-0.8l0,0C183.5,130.1,182.7,130.9,181.2,130.9L181.2,130.9z M189.7,130.9
				c-0.9,0-1.7-0.2-2.3-0.7c-0.7-0.4-1.1-1-1.5-1.7c-0.3-0.7-0.5-1.5-0.5-2.3l0,0c0-1,0.2-1.9,0.6-2.7c0.4-0.8,0.9-1.3,1.6-1.7
				c0.7-0.4,1.3-0.6,2-0.6l0,0c1,0,1.9,0.4,2.6,1.1c0.7,0.7,1.1,1.7,1.2,3l0,0h-6.5c0,0.8,0.2,1.5,0.5,2.1c0.3,0.6,0.7,1.1,1.2,1.4
				c0.5,0.3,1.1,0.5,1.7,0.5l0,0c1.6,0,2.6-0.5,3.2-1.5l0,0c-0.2,0.9-0.6,1.6-1.2,2.2C191.5,130.6,190.7,130.9,189.7,130.9
				L189.7,130.9z M189.4,122.1c-0.7,0-1.2,0.2-1.7,0.7c-0.5,0.5-0.8,1.1-0.9,1.8l0,0h4.6c0-0.8-0.2-1.4-0.6-1.8
				C190.4,122.3,190,122.1,189.4,122.1L189.4,122.1z M198,123.5c0.3-0.5,0.7-1,1.2-1.5s1.2-0.7,1.7-0.7l0,0c0.4,0,0.6,0.1,0.8,0.2
				l0,0v2.1c-0.4-0.5-0.9-0.7-1.6-0.7l0,0c-0.7,0-1.3,0.3-1.7,0.9c-0.4,0.6-0.6,1.4-0.6,2.3l0,0v2c0,0.9,0.1,1.6,0.3,1.9
				c0.2,0.4,0.4,0.5,0.6,0.6l0,0h-3.5c0.2,0,0.4-0.2,0.6-0.6c0.2-0.3,0.3-1,0.3-1.9l0,0v-3.8c0-0.7-0.1-1.2-0.3-1.4
				c-0.2-0.3-0.5-0.4-0.8-0.4l0,0l2.7-1.2V123.5z M216,121.9c0.8,0,1.4-0.2,2-0.5c0.6-0.4,1-0.8,1.3-1.4s0.4-1.2,0.4-1.8l0,0
				c0-0.7-0.1-1.3-0.4-1.8c-0.3-0.6-0.7-1-1.3-1.4c-0.6-0.4-1.3-0.6-2.1-0.6l0,0h-2.1v13.9c0,0.7,0.1,1.2,0.3,1.5
				c0.2,0.3,0.4,0.6,0.6,0.7c0.2,0.1,0.3,0.1,0.3,0.1l0,0h-4c0,0,0.1,0,0.3-0.1c0.2-0.1,0.4-0.3,0.5-0.7c0.2-0.3,0.2-0.8,0.2-1.5
				l0,0v-12.5c0-0.7-0.1-1.2-0.2-1.6c-0.2-0.4-0.3-0.6-0.5-0.7s-0.3-0.2-0.3-0.1l0,0h5c1.3,0,2.4,0.2,3.2,0.6c0.8,0.4,1.5,1,1.8,1.7
				s0.6,1.4,0.6,2.2l0,0c0,0.7-0.2,1.3-0.5,2c-0.3,0.6-0.8,1.2-1.4,1.7c-0.6,0.5-1.3,0.8-2.1,1l0,0l-0.4,0.1l4.4,5.6
				c0.6,0.7,1.1,1.2,1.5,1.5c0.4,0.4,0.7,0.6,0.8,0.7c0.2,0.1,0.3,0.2,0.3,0.2l0,0h-2.9l-6.8-8.7H216z M225.3,126.3
				c0-0.9,0.2-1.7,0.6-2.5c0.4-0.8,1-1.4,1.8-1.9c0.8-0.5,1.6-0.7,2.5-0.7l0,0c0.9,0,1.7,0.2,2.4,0.6c0.7,0.4,1.3,1,1.7,1.7
				c0.4,0.7,0.6,1.5,0.6,2.3l0,0c0,0.9-0.2,1.7-0.6,2.5c-0.4,0.8-1,1.4-1.8,1.9c-0.8,0.5-1.6,0.7-2.5,0.7l0,0
				c-0.9,0-1.7-0.2-2.4-0.6c-0.7-0.4-1.3-1-1.7-1.7C225.5,127.9,225.3,127.1,225.3,126.3L225.3,126.3z M233.1,126.6
				c0-0.7-0.1-1.4-0.4-2.1c-0.3-0.7-0.6-1.2-1.1-1.7s-1-0.7-1.7-0.7l0,0c-0.9,0-1.6,0.3-2.1,1c-0.5,0.7-0.7,1.5-0.7,2.4l0,0
				c0,0.7,0.1,1.4,0.4,2.1c0.3,0.7,0.6,1.2,1.1,1.7c0.5,0.4,1,0.7,1.7,0.7l0,0c0.9,0,1.6-0.3,2.1-1S233.1,127.5,233.1,126.6
				L233.1,126.6z M240.2,130.9c-0.5,0-1-0.1-1.6-0.3s-1-0.4-1.3-0.7l0,0v-2.2c0.3,0.8,0.7,1.3,1.3,1.7s1.1,0.5,1.8,0.5l0,0
				c0.5,0,0.9-0.1,1.3-0.4c0.3-0.3,0.5-0.6,0.5-0.9l0,0c0-0.4-0.2-0.7-0.5-0.9c-0.3-0.3-0.8-0.5-1.5-0.9l0,0
				c-0.9-0.4-1.6-0.8-2.1-1.2c-0.5-0.4-0.7-0.9-0.7-1.6l0,0c0-0.8,0.3-1.4,0.9-1.9c0.6-0.5,1.3-0.8,2.2-0.8l0,0
				c0.6,0,1.2,0.1,1.7,0.2c0.5,0.2,0.8,0.3,1.1,0.5l0,0l-0.4,1.9c-0.2-0.6-0.5-1-1-1.3c-0.5-0.3-1-0.4-1.5-0.4l0,0
				c-0.5,0-0.8,0.1-1.1,0.4c-0.3,0.3-0.4,0.6-0.4,0.9l0,0c0,0.5,0.2,0.8,0.5,1.1c0.4,0.3,0.9,0.6,1.6,0.9l0,0c0.9,0.4,1.5,0.7,2,1.1
				s0.7,0.9,0.7,1.6l0,0c0,0.5-0.1,0.9-0.4,1.4c-0.3,0.4-0.7,0.8-1.2,1C241.5,130.7,240.9,130.9,240.2,130.9L240.2,130.9z
				 M248.8,130.9c-0.5,0-1-0.1-1.6-0.3c-0.5-0.2-1-0.4-1.3-0.7l0,0v-2.2c0.3,0.8,0.7,1.3,1.3,1.7s1.1,0.5,1.8,0.5l0,0
				c0.5,0,0.9-0.1,1.3-0.4c0.3-0.3,0.5-0.6,0.5-0.9l0,0c0-0.4-0.2-0.7-0.5-0.9c-0.3-0.3-0.8-0.5-1.5-0.9l0,0
				c-0.9-0.4-1.6-0.8-2.1-1.2c-0.5-0.4-0.7-0.9-0.7-1.6l0,0c0-0.8,0.3-1.4,0.9-1.9c0.6-0.5,1.3-0.8,2.2-0.8l0,0
				c0.6,0,1.2,0.1,1.7,0.2c0.5,0.2,0.8,0.3,1.1,0.5l0,0l-0.4,1.9c-0.2-0.6-0.5-1-1-1.3c-0.5-0.3-1-0.4-1.5-0.4l0,0
				c-0.5,0-0.8,0.1-1.1,0.4c-0.3,0.3-0.4,0.6-0.4,0.9l0,0c0,0.5,0.2,0.8,0.5,1.1c0.4,0.3,0.9,0.6,1.6,0.9l0,0c0.9,0.4,1.5,0.7,2,1.1
				s0.7,0.9,0.7,1.6l0,0c0,0.5-0.1,0.9-0.4,1.4c-0.3,0.4-0.7,0.8-1.2,1C250.1,130.7,249.5,130.9,248.8,130.9L248.8,130.9z
				 M266.2,130.9c-0.9,0-1.7-0.1-2.5-0.4c-0.8-0.2-1.5-0.6-2.2-1l0,0v-3c0.4,1.1,1.1,2,2,2.5c0.9,0.6,1.8,0.9,2.8,0.9l0,0
				c1,0,1.8-0.3,2.4-1c0.7-0.6,1-1.4,1-2.4l0,0c0-0.6-0.1-1.2-0.4-1.6s-0.7-0.9-1.2-1.3c-0.6-0.4-1.4-0.8-2.4-1.3l0,0
				c-1.5-0.7-2.5-1.4-3.2-2.1c-0.7-0.7-1-1.6-1-2.6l0,0c0-0.9,0.2-1.7,0.6-2.4s1-1.2,1.7-1.6c0.7-0.4,1.5-0.6,2.4-0.6l0,0
				c0.8,0,1.5,0.1,2.2,0.3c0.7,0.2,1.4,0.5,2,0.9l0,0v2.7c-0.4-0.9-1-1.6-1.8-2.1c-0.8-0.5-1.6-0.8-2.5-0.8l0,0
				c-1,0-1.7,0.3-2.3,0.9s-0.9,1.4-0.9,2.2l0,0c0,0.6,0.2,1.1,0.5,1.6c0.4,0.4,0.8,0.8,1.3,1.1c0.5,0.3,1.2,0.7,2.1,1.1l0,0
				c0.9,0.5,1.7,0.9,2.3,1.3c0.6,0.4,1.1,0.9,1.5,1.5s0.6,1.4,0.6,2.3l0,0c0,1-0.2,1.9-0.7,2.6c-0.5,0.7-1.1,1.3-1.9,1.7
				C268,130.7,267.2,130.9,266.2,130.9L266.2,130.9z M277.2,130.9c-0.8,0-1.4-0.3-1.9-0.8s-0.6-1.2-0.6-2l0,0v-5.6h-1.4l3-3.4v2.4
				h3.2v1h-3.2v5.3c0,0.6,0.2,1.1,0.5,1.4c0.3,0.3,0.7,0.5,1.2,0.5l0,0c0.3,0,0.7-0.1,1-0.3s0.6-0.5,0.8-0.8l0,0
				C279.5,130.1,278.7,130.9,277.2,130.9L277.2,130.9z M285.7,130.9c-0.9,0-1.7-0.2-2.3-0.7c-0.7-0.4-1.1-1-1.5-1.7
				s-0.5-1.5-0.5-2.3l0,0c0-1,0.2-1.9,0.6-2.7c0.4-0.8,0.9-1.3,1.6-1.7c0.7-0.4,1.3-0.6,2-0.6l0,0c1,0,1.9,0.4,2.6,1.1
				c0.7,0.7,1.1,1.7,1.2,3l0,0h-6.5c0,0.8,0.2,1.5,0.5,2.1c0.3,0.6,0.7,1.1,1.2,1.4c0.5,0.3,1.1,0.5,1.7,0.5l0,0
				c1.6,0,2.6-0.5,3.2-1.5l0,0c-0.2,0.9-0.6,1.6-1.2,2.2C287.5,130.6,286.7,130.9,285.7,130.9L285.7,130.9z M285.4,122.1
				c-0.7,0-1.2,0.2-1.7,0.7c-0.5,0.5-0.8,1.1-0.9,1.8l0,0h4.6c0-0.8-0.2-1.4-0.6-1.8C286.4,122.3,286,122.1,285.4,122.1L285.4,122.1
				z M298.8,123.3l-3.4,7.6l-3.4-7.7c-0.2-0.5-0.4-0.9-0.7-1.1c-0.2-0.3-0.4-0.4-0.6-0.5s-0.3-0.1-0.3-0.1l0,0h3.8
				c0,0-0.1,0-0.2,0.1c-0.1,0-0.2,0.1-0.3,0.3c-0.1,0.1-0.2,0.3-0.2,0.5l0,0c0,0.3,0.1,0.6,0.3,1l0,0l2,4.5l1.9-4.3
				c0.1-0.3,0.2-0.6,0.2-0.9l0,0c0-0.3-0.1-0.6-0.2-0.8c-0.1-0.2-0.3-0.3-0.6-0.4l0,0h3.3c0,0-0.1,0-0.3,0.1s-0.4,0.3-0.6,0.5
				C299.2,122.4,299,122.8,298.8,123.3L298.8,123.3z M305.7,130.9c-0.9,0-1.7-0.2-2.3-0.7c-0.7-0.4-1.1-1-1.5-1.7
				c-0.3-0.7-0.5-1.5-0.5-2.3l0,0c0-1,0.2-1.9,0.6-2.7c0.4-0.8,0.9-1.3,1.6-1.7c0.7-0.4,1.3-0.6,2-0.6l0,0c1,0,1.9,0.4,2.6,1.1
				c0.7,0.7,1.1,1.7,1.2,3l0,0h-6.5c0,0.8,0.2,1.5,0.5,2.1c0.3,0.6,0.7,1.1,1.2,1.4c0.5,0.3,1.1,0.5,1.7,0.5l0,0
				c1.6,0,2.6-0.5,3.2-1.5l0,0c-0.2,0.9-0.6,1.6-1.2,2.2C307.5,130.6,306.7,130.9,305.7,130.9L305.7,130.9z M305.5,122.1
				c-0.7,0-1.2,0.2-1.7,0.7c-0.5,0.5-0.8,1.1-0.9,1.8l0,0h4.6c0-0.8-0.2-1.4-0.6-1.8C306.5,122.3,306,122.1,305.5,122.1L305.5,122.1
				z M314,123c0.4-0.5,0.8-0.9,1.4-1.2s1.1-0.5,1.7-0.5l0,0c0.9,0,1.6,0.3,2.2,0.9s0.8,1.4,0.8,2.5l0,0v3.5c0,0.7,0.1,1.2,0.2,1.6
				s0.3,0.6,0.5,0.8c0.2,0.1,0.3,0.2,0.3,0.1l0,0h-3.6c0,0.1,0.1,0,0.3-0.1c0.2-0.1,0.4-0.4,0.5-0.7s0.2-0.9,0.2-1.7l0,0v-2.9
				c0-0.6-0.1-1-0.2-1.4s-0.4-0.6-0.6-0.8l0,0c-0.4-0.3-0.8-0.5-1.4-0.5l0,0c-0.6,0-1.1,0.2-1.6,0.6s-0.7,0.9-0.7,1.6l0,0v3.3
				c0,0.7,0.1,1.3,0.2,1.6s0.3,0.6,0.5,0.8c0.2,0.1,0.3,0.2,0.3,0.1l0,0h-3.6c0,0.1,0.1,0,0.3-0.1c0.2-0.1,0.3-0.4,0.5-0.8
				c0.1-0.4,0.2-0.9,0.2-1.6l0,0v-3.8c0-0.7-0.1-1.2-0.3-1.4c-0.2-0.3-0.5-0.4-0.8-0.4l0,0l2.7-1.2V123z M335.6,121.9
				c0.8,0,1.4-0.2,2-0.5c0.6-0.4,1-0.8,1.3-1.4c0.3-0.6,0.4-1.2,0.4-1.8l0,0c0-0.7-0.1-1.3-0.4-1.8c-0.3-0.6-0.7-1-1.3-1.4
				s-1.3-0.6-2.1-0.6l0,0h-2.1v13.9c0,0.7,0.1,1.2,0.3,1.5c0.2,0.3,0.4,0.6,0.6,0.7c0.2,0.1,0.3,0.1,0.3,0.1l0,0h-4
				c0,0,0.1,0,0.3-0.1c0.2-0.1,0.4-0.3,0.5-0.7c0.2-0.3,0.2-0.8,0.2-1.5l0,0v-12.5c0-0.7-0.1-1.2-0.2-1.6c-0.2-0.4-0.3-0.6-0.5-0.7
				s-0.3-0.2-0.3-0.1l0,0h5c1.3,0,2.4,0.2,3.2,0.6c0.8,0.4,1.5,1,1.8,1.7s0.6,1.4,0.6,2.2l0,0c0,0.7-0.2,1.3-0.5,2s-0.8,1.2-1.4,1.7
				s-1.3,0.8-2.1,1l0,0l-0.4,0.1l4.4,5.6c0.6,0.7,1.1,1.2,1.5,1.5c0.4,0.4,0.7,0.6,0.8,0.7s0.3,0.2,0.3,0.2l0,0h-2.9l-6.8-8.7H335.6
				z M344.9,126.3c0-0.9,0.2-1.7,0.6-2.5c0.4-0.8,1-1.4,1.8-1.9c0.8-0.5,1.6-0.7,2.5-0.7l0,0c0.9,0,1.7,0.2,2.4,0.6
				c0.7,0.4,1.3,1,1.7,1.7s0.6,1.5,0.6,2.3l0,0c0,0.9-0.2,1.7-0.6,2.5c-0.4,0.8-1,1.4-1.8,1.9c-0.8,0.5-1.6,0.7-2.5,0.7l0,0
				c-0.9,0-1.7-0.2-2.4-0.6c-0.7-0.4-1.3-1-1.7-1.7C345.1,127.9,344.9,127.1,344.9,126.3L344.9,126.3z M352.8,126.6
				c0-0.7-0.1-1.4-0.4-2.1c-0.3-0.7-0.6-1.2-1.1-1.7s-1-0.7-1.7-0.7l0,0c-0.9,0-1.6,0.3-2.1,1c-0.5,0.7-0.7,1.5-0.7,2.4l0,0
				c0,0.7,0.1,1.4,0.4,2.1c0.3,0.7,0.6,1.2,1.1,1.7c0.5,0.4,1,0.7,1.7,0.7l0,0c0.9,0,1.6-0.3,2.1-1S352.8,127.5,352.8,126.6
				L352.8,126.6z M359.8,130.9c-0.5,0-1-0.1-1.6-0.3c-0.5-0.2-1-0.4-1.3-0.7l0,0v-2.2c0.3,0.8,0.7,1.3,1.3,1.7
				c0.5,0.3,1.1,0.5,1.8,0.5l0,0c0.5,0,0.9-0.1,1.3-0.4c0.3-0.3,0.5-0.6,0.5-0.9l0,0c0-0.4-0.2-0.7-0.5-0.9
				c-0.3-0.3-0.8-0.5-1.5-0.9l0,0c-0.9-0.4-1.6-0.8-2.1-1.2c-0.5-0.4-0.7-0.9-0.7-1.6l0,0c0-0.8,0.3-1.4,0.9-1.9s1.3-0.8,2.2-0.8
				l0,0c0.6,0,1.2,0.1,1.7,0.2c0.5,0.2,0.8,0.3,1.1,0.5l0,0l-0.4,1.9c-0.2-0.6-0.5-1-1-1.3c-0.5-0.3-1-0.4-1.5-0.4l0,0
				c-0.5,0-0.8,0.1-1.1,0.4c-0.3,0.3-0.4,0.6-0.4,0.9l0,0c0,0.5,0.2,0.8,0.5,1.1s0.9,0.6,1.6,0.9l0,0c0.9,0.4,1.5,0.7,2,1.1
				c0.5,0.4,0.7,0.9,0.7,1.6l0,0c0,0.5-0.1,0.9-0.4,1.4s-0.7,0.8-1.2,1C361.1,130.7,360.5,130.9,359.8,130.9L359.8,130.9z
				 M368.4,130.9c-0.5,0-1-0.1-1.6-0.3c-0.5-0.2-1-0.4-1.3-0.7l0,0v-2.2c0.3,0.8,0.7,1.3,1.3,1.7c0.5,0.3,1.1,0.5,1.8,0.5l0,0
				c0.5,0,0.9-0.1,1.3-0.4c0.3-0.3,0.5-0.6,0.5-0.9l0,0c0-0.4-0.2-0.7-0.5-0.9s-0.8-0.5-1.5-0.9l0,0c-0.9-0.4-1.6-0.8-2.1-1.2
				c-0.5-0.4-0.7-0.9-0.7-1.6l0,0c0-0.8,0.3-1.4,0.9-1.9s1.3-0.8,2.2-0.8l0,0c0.6,0,1.2,0.1,1.7,0.2c0.5,0.2,0.8,0.3,1.1,0.5l0,0
				l-0.4,1.9c-0.2-0.6-0.5-1-1-1.3c-0.5-0.3-1-0.4-1.5-0.4l0,0c-0.5,0-0.8,0.1-1.1,0.4c-0.3,0.3-0.4,0.6-0.4,0.9l0,0
				c0,0.5,0.2,0.8,0.5,1.1s0.9,0.6,1.6,0.9l0,0c0.9,0.4,1.5,0.7,2,1.1c0.5,0.4,0.7,0.9,0.7,1.6l0,0c0,0.5-0.1,0.9-0.4,1.4
				c-0.3,0.4-0.7,0.8-1.2,1C369.7,130.7,369.1,130.9,368.4,130.9L368.4,130.9z M381.2,136.4v-24h1.2v24H381.2z M392.8,130.6
				c0.2-0.1,0.5-0.3,0.7-0.7c0.2-0.4,0.4-1,0.4-2l0,0v-12.9l-2.2,0.1v-0.4l3.8-1.8v14.9c0,1,0.1,1.6,0.4,2c0.3,0.4,0.5,0.6,0.7,0.7
				l0,0H392.8z M405.3,120.8c1.3,0.3,2.3,0.9,2.9,1.8c0.7,0.9,1,1.8,1,2.9l0,0c0,1-0.2,1.8-0.7,2.7c-0.4,0.8-1.1,1.5-1.9,2
				c-0.8,0.5-1.8,0.8-3,0.8l0,0c-0.9,0-1.6-0.1-2.2-0.4c-0.6-0.2-1.2-0.6-1.9-1l0,0v-2c0.3,0.6,0.8,1.2,1.6,1.6
				c0.8,0.5,1.6,0.7,2.5,0.7l0,0c1.2,0,2.2-0.4,2.8-1.1c0.7-0.7,1-1.7,1-2.8l0,0c0-1.3-0.4-2.3-1.2-3c-0.8-0.7-1.8-1.1-3-1.1l0,0
				h-0.5v-0.4c1.1-0.4,2-0.9,2.7-1.6c0.7-0.7,1-1.5,1-2.5l0,0c0-0.9-0.2-1.5-0.7-2.1c-0.5-0.5-1.2-0.8-2-0.8l0,0
				c-0.5,0-1,0.1-1.5,0.4c-0.5,0.3-0.8,0.7-1.1,1.2c-0.3,0.5-0.4,1.1-0.4,1.8l0,0c-0.3-0.4-0.5-0.9-0.5-1.5l0,0c0-1,0.4-1.8,1.1-2.4
				s1.7-0.9,2.7-0.9l0,0c1.2,0,2.1,0.3,2.9,1c0.8,0.7,1.2,1.6,1.2,2.7l0,0c0,0.7-0.2,1.5-0.7,2.2
				C406.8,119.7,406.1,120.3,405.3,120.8L405.3,120.8z M427.1,130.2c-0.4,0.2-0.9,0.3-1.5,0.3c-0.6,0.1-1.3,0.1-2.3,0.1l0,0h-4.1
				c0.2-0.1,0.5-0.2,0.7-0.6c0.3-0.3,0.4-1,0.4-1.9l0,0v-12.4c0-0.9-0.1-1.5-0.4-1.8c-0.2-0.3-0.5-0.5-0.7-0.6l0,0h4.1
				c1.1,0,1.9,0,2.4,0.1s1,0.2,1.5,0.4l0,0c0.7,0.4,1.3,0.8,1.7,1.5c0.4,0.6,0.6,1.3,0.6,2.1l0,0c0,1.1-0.3,2.1-1,2.9
				c-0.7,0.8-1.6,1.3-2.7,1.6l0,0c0.8,0.1,1.5,0.3,2.1,0.7c0.7,0.4,1.2,0.8,1.7,1.4c0.4,0.6,0.6,1.3,0.6,2.1l0,0
				c0,1.1-0.3,1.9-0.9,2.6C428.8,129.3,428,129.8,427.1,130.2L427.1,130.2z M426.4,115.1c-0.3-0.3-0.7-0.4-1.1-0.6
				c-0.4-0.1-0.9-0.2-1.6-0.2l0,0H422v7.1h2c0.6,0,1.1-0.1,1.5-0.3c0.4-0.2,0.8-0.4,1.1-0.7l0,0c0.3-0.3,0.6-0.7,0.8-1.2
				c0.2-0.5,0.3-0.9,0.3-1.4l0,0c0-0.6-0.1-1.1-0.3-1.6C427.1,115.8,426.8,115.4,426.4,115.1L426.4,115.1z M426.9,123.2
				c-0.3-0.3-0.7-0.4-1.2-0.6c-0.5-0.1-1.1-0.2-1.9-0.2l0,0H422v7.1h2.4c1.2,0,2.1-0.3,2.8-0.9s1-1.5,1-2.7l0,0
				C428.2,124.9,427.8,123.9,426.9,123.2L426.9,123.2z M432.8,126.3c0-0.9,0.2-1.7,0.6-2.5c0.4-0.8,1-1.4,1.8-1.9
				c0.8-0.5,1.6-0.7,2.5-0.7l0,0c0.9,0,1.7,0.2,2.4,0.6c0.7,0.4,1.3,1,1.7,1.7c0.4,0.7,0.6,1.5,0.6,2.3l0,0c0,0.9-0.2,1.7-0.6,2.5
				c-0.4,0.8-1,1.4-1.8,1.9c-0.8,0.5-1.6,0.7-2.5,0.7l0,0c-0.9,0-1.7-0.2-2.4-0.6c-0.7-0.4-1.3-1-1.7-1.7
				C433,127.9,432.8,127.1,432.8,126.3L432.8,126.3z M440.6,126.6c0-0.7-0.1-1.4-0.4-2.1c-0.3-0.7-0.6-1.2-1.1-1.7s-1-0.7-1.7-0.7
				l0,0c-0.9,0-1.6,0.3-2.1,1c-0.5,0.7-0.7,1.5-0.7,2.4l0,0c0,0.7,0.1,1.4,0.4,2.1c0.3,0.7,0.6,1.2,1.1,1.7c0.5,0.4,1,0.7,1.7,0.7
				l0,0c0.9,0,1.6-0.3,2.1-1C440.4,128.3,440.6,127.5,440.6,126.6L440.6,126.6z M447.1,123c0.4-0.5,0.8-0.9,1.4-1.2
				c0.5-0.3,1.1-0.5,1.7-0.5l0,0c0.9,0,1.6,0.3,2.2,0.9s0.8,1.4,0.8,2.5l0,0v3.5c0,0.7,0.1,1.2,0.2,1.6s0.3,0.6,0.5,0.8
				c0.2,0.1,0.3,0.2,0.3,0.1l0,0h-3.6c0,0.1,0.1,0,0.3-0.1c0.2-0.1,0.4-0.4,0.5-0.7c0.2-0.4,0.2-0.9,0.2-1.7l0,0v-2.9
				c0-0.6-0.1-1-0.2-1.4c-0.2-0.3-0.4-0.6-0.6-0.8l0,0c-0.4-0.3-0.8-0.5-1.4-0.5l0,0c-0.6,0-1.1,0.2-1.6,0.6
				c-0.4,0.4-0.7,0.9-0.7,1.6l0,0v3.3c0,0.7,0.1,1.3,0.2,1.6c0.2,0.4,0.3,0.6,0.5,0.8c0.2,0.1,0.3,0.2,0.3,0.1l0,0h-3.6
				c0,0.1,0.1,0,0.3-0.1c0.2-0.1,0.3-0.4,0.5-0.8c0.1-0.4,0.2-0.9,0.2-1.6l0,0v-3.8c0-0.7-0.1-1.2-0.3-1.4c-0.2-0.3-0.5-0.4-0.8-0.4
				l0,0l2.7-1.2V123z M460.4,130.9c-0.9,0-1.7-0.2-2.3-0.7c-0.7-0.4-1.1-1-1.5-1.7c-0.3-0.7-0.5-1.5-0.5-2.3l0,0
				c0-1,0.2-1.9,0.6-2.7c0.4-0.8,0.9-1.3,1.6-1.7c0.7-0.4,1.3-0.6,2-0.6l0,0c1,0,1.9,0.4,2.6,1.1c0.7,0.7,1.1,1.7,1.2,3l0,0h-6.5
				c0,0.8,0.2,1.5,0.5,2.1c0.3,0.6,0.7,1.1,1.2,1.4c0.5,0.3,1.1,0.5,1.7,0.5l0,0c1.6,0,2.6-0.5,3.2-1.5l0,0
				c-0.2,0.9-0.6,1.6-1.2,2.2C462.2,130.6,461.4,130.9,460.4,130.9L460.4,130.9z M460.1,122.1c-0.7,0-1.2,0.2-1.7,0.7
				c-0.5,0.5-0.8,1.1-0.9,1.8l0,0h4.6c0-0.8-0.2-1.4-0.6-1.8C461.1,122.3,460.6,122.1,460.1,122.1L460.1,122.1z M468.5,129.6h3.1
				c0.7,0,1.1-0.2,1.3-0.5c0.2-0.4,0.4-0.7,0.5-1.1l0,0v2.6H466l5.1-8.1h-2.6c-0.7,0-1.2,0.2-1.5,0.6c-0.3,0.4-0.4,0.7-0.5,1.1l0,0
				v-2.6h7.1L468.5,129.6z"/>
		</g>
	</g>
</g>
</svg>
