<?xml version="1.0" encoding="utf-8"?>
<!-- Generator: Adobe Illustrator 24.2.1, SVG Export Plug-In . SVG Version: 6.00 Build 0)  -->
<svg version="1.1" id="Layer_1" xmlns="http://www.w3.org/2000/svg" xmlns:xlink="http://www.w3.org/1999/xlink" x="0px" y="0px"
	 viewBox="0 0 484.5 232.7" style="enable-background:new 0 0 484.5 232.7;" xml:space="preserve">
<style type="text/css">
	.st0{fill:#E5E5E5;}
	.st1{fill:#E9E41D;}
	.st2{opacity:0.4;fill:#5B5B5B;enable-background:new    ;}
	.st3{fill:#5B5B5B;}
	.st4{opacity:0.8;fill:#5B5B5B;enable-background:new    ;}
	.st5{opacity:0.2;fill:#5B5B5B;enable-background:new    ;}
	.st6{opacity:0.6;fill:#5B5B5B;enable-background:new    ;}
</style>
<g>
	<g transform="rotate(0 0 210.4275)">
		<g transform="matrix(1 0 0 1 0 0)">
			<path class="st0" d="M7.1,219.2c0.9,0.4,1.6,0.9,2.2,1.5s0.8,1.4,0.8,2.3l0,0c0,1-0.2,1.9-0.7,2.5c-0.5,0.7-1.1,1.2-1.9,1.5
				s-1.7,0.5-2.6,0.5l0,0H0v-15.9h4.1c1.6,0,2.9,0.3,3.8,1c0.9,0.7,1.3,1.7,1.3,3l0,0c0,0.8-0.2,1.6-0.6,2.2S7.8,218.9,7.1,219.2
				L7.1,219.2z M2.1,213.6v4.9h2.4c0.8,0,1.4-0.2,1.9-0.7c0.4-0.5,0.6-1.1,0.6-1.8l0,0c0-0.8-0.2-1.4-0.7-1.8
				c-0.5-0.4-1.2-0.6-2.1-0.6l0,0H2.1z M4.6,225.5c0.9,0,1.7-0.2,2.3-0.6c0.6-0.4,0.9-1,0.9-1.8l0,0c0-0.8-0.3-1.5-1-1.8
				s-1.4-0.6-2.4-0.6l0,0H2.1v4.9H4.6z M21.9,218.4h1.9v9.1h-2V226c-0.3,0.4-0.8,0.8-1.4,1.2c-0.6,0.4-1.3,0.5-2.1,0.5l0,0
				c-0.9,0-1.6-0.2-2.3-0.6c-0.7-0.4-1.2-0.9-1.6-1.6c-0.4-0.7-0.6-1.6-0.6-2.6l0,0c0-1,0.2-1.9,0.6-2.6c0.4-0.7,1-1.3,1.7-1.7
				c0.7-0.4,1.5-0.6,2.4-0.6l0,0c0.8,0,1.5,0.2,2,0.5c0.6,0.3,1,0.8,1.4,1.3l0,0L21.9,218.4z M18.8,226c0.7,0,1.4-0.2,1.9-0.6
				s0.9-1,1-1.7l0,0v-1.8c-0.2-0.6-0.5-1.2-1.1-1.6c-0.6-0.4-1.2-0.6-1.9-0.6l0,0c-0.5,0-1,0.1-1.5,0.4c-0.5,0.3-0.8,0.6-1.1,1.1
				c-0.3,0.5-0.4,1-0.4,1.6l0,0c0,0.6,0.1,1.1,0.4,1.6c0.3,0.5,0.7,0.9,1.1,1.2C17.7,225.9,18.2,226,18.8,226L18.8,226z M34.3,218
				c0.9,0,1.6,0.3,2.1,0.8c0.6,0.5,0.8,1.2,0.9,2l0,0v6.7h-2.1v-6c0-0.5-0.2-0.9-0.5-1.2c-0.3-0.3-0.7-0.4-1.3-0.5l0,0
				c-0.8,0-1.5,0.3-2,1c-0.5,0.6-0.8,1.5-0.8,2.5l0,0v4.3h-2v-9.1h1.8l0.1,1.8c0.3-0.7,0.8-1.2,1.5-1.6
				C32.7,218.2,33.5,218,34.3,218L34.3,218z M49.6,210.4h2v17.1h-2.1v-1.4c-0.4,0.5-1,0.9-1.6,1.2c-0.6,0.3-1.3,0.4-2.1,0.4l0,0
				c-0.9,0-1.6-0.2-2.3-0.6c-0.7-0.4-1.2-1-1.6-1.7c-0.4-0.7-0.6-1.6-0.6-2.6l0,0c0-1,0.2-1.8,0.6-2.6c0.4-0.7,1-1.3,1.7-1.7
				c0.7-0.4,1.5-0.6,2.4-0.6l0,0c0.7,0,1.4,0.1,2,0.4c0.6,0.3,1.1,0.7,1.5,1.2l0,0V210.4z M46.5,226c0.8,0,1.5-0.2,2-0.6
				s0.9-1,1.1-1.7l0,0v-1.7c-0.2-0.7-0.5-1.2-1.1-1.6c-0.6-0.4-1.2-0.6-2-0.6l0,0c-0.6,0-1.1,0.1-1.5,0.4s-0.8,0.6-1.1,1.1
				s-0.4,1-0.4,1.6l0,0c0,0.6,0.1,1.1,0.4,1.6s0.7,0.9,1.1,1.1S45.9,226,46.5,226L46.5,226z M81.1,211.1L81.1,211.1l0,16.4H79v-10.3
				l-5.9,8.3h0l-5.7-8v10h-2.1v-16.4h0l7.8,11.1L81.1,211.1z M93.9,218.4h1.9v9.1h-2V226c-0.3,0.4-0.8,0.8-1.4,1.2
				c-0.6,0.4-1.3,0.5-2.1,0.5l0,0c-0.9,0-1.6-0.2-2.3-0.6c-0.7-0.4-1.2-0.9-1.6-1.6c-0.4-0.7-0.6-1.6-0.6-2.6l0,0
				c0-1,0.2-1.9,0.6-2.6c0.4-0.7,1-1.3,1.7-1.7c0.7-0.4,1.5-0.6,2.4-0.6l0,0c0.8,0,1.5,0.2,2,0.5c0.6,0.3,1,0.8,1.4,1.3l0,0
				L93.9,218.4z M90.8,226c0.7,0,1.4-0.2,1.9-0.6s0.9-1,1-1.7l0,0v-1.8c-0.2-0.6-0.5-1.2-1.1-1.6s-1.2-0.6-1.9-0.6l0,0
				c-0.5,0-1,0.1-1.5,0.4c-0.5,0.3-0.8,0.6-1.1,1.1c-0.3,0.5-0.4,1-0.4,1.6l0,0c0,0.6,0.1,1.1,0.4,1.6c0.3,0.5,0.7,0.9,1.1,1.2
				C89.8,225.9,90.3,226,90.8,226L90.8,226z M106.4,218c0.9,0,1.6,0.3,2.1,0.8c0.6,0.5,0.8,1.2,0.9,2l0,0v6.7h-2.1v-6
				c0-0.5-0.2-0.9-0.5-1.2c-0.3-0.3-0.7-0.4-1.3-0.5l0,0c-0.8,0-1.5,0.3-2,1c-0.5,0.6-0.8,1.5-0.8,2.5l0,0v4.3h-2v-9.1h1.8l0.1,1.8
				c0.3-0.7,0.8-1.2,1.5-1.6C104.8,218.2,105.5,218,106.4,218L106.4,218z M121.7,218.4h1.9v9.1h-2V226c-0.3,0.4-0.8,0.8-1.4,1.2
				c-0.6,0.4-1.3,0.5-2.1,0.5l0,0c-0.9,0-1.6-0.2-2.3-0.6c-0.7-0.4-1.2-0.9-1.6-1.6c-0.4-0.7-0.6-1.6-0.6-2.6l0,0
				c0-1,0.2-1.9,0.6-2.6c0.4-0.7,1-1.3,1.7-1.7c0.7-0.4,1.5-0.6,2.4-0.6l0,0c0.8,0,1.5,0.2,2,0.5c0.6,0.3,1,0.8,1.4,1.3l0,0
				L121.7,218.4z M118.6,226c0.7,0,1.4-0.2,1.9-0.6c0.5-0.4,0.9-1,1-1.7l0,0v-1.8c-0.2-0.6-0.5-1.2-1.1-1.6
				c-0.6-0.4-1.2-0.6-1.9-0.6l0,0c-0.5,0-1,0.1-1.5,0.4c-0.5,0.3-0.8,0.6-1.1,1.1s-0.4,1-0.4,1.6l0,0c0,0.6,0.1,1.1,0.4,1.6
				c0.3,0.5,0.7,0.9,1.1,1.2S118,226,118.6,226L118.6,226z M136.2,218.4h1.9v9.2c0,0.8-0.2,1.6-0.6,2.3c-0.4,0.7-1,1.2-1.8,1.6
				c-0.8,0.4-1.7,0.6-2.8,0.6l0,0c-0.9,0-1.7-0.2-2.4-0.5c-0.7-0.3-1.3-0.8-2-1.4l0,0l1.2-1.4c0.5,0.5,1,0.8,1.5,1.1
				c0.5,0.2,1,0.4,1.6,0.4l0,0c1,0,1.8-0.2,2.3-0.7c0.5-0.5,0.8-1.1,0.8-2l0,0l0-1.7c-0.3,0.6-0.8,1-1.5,1.4
				c-0.7,0.3-1.4,0.5-2.3,0.5l0,0c-0.8,0-1.6-0.2-2.3-0.6c-0.7-0.4-1.3-1-1.7-1.7c-0.4-0.7-0.6-1.5-0.6-2.4l0,0
				c0-0.9,0.2-1.8,0.6-2.5c0.4-0.7,1-1.3,1.7-1.8c0.7-0.4,1.5-0.6,2.4-0.6l0,0c0.8,0,1.5,0.2,2.2,0.5s1.2,0.7,1.5,1.2l0,0
				L136.2,218.4z M132.9,226c0.8,0,1.5-0.2,2-0.6c0.6-0.4,0.9-1,1.1-1.7l0,0v-1.8c-0.2-0.7-0.6-1.2-1.2-1.6c-0.6-0.4-1.2-0.6-2-0.6
				l0,0c-0.9,0-1.6,0.3-2.2,0.9c-0.6,0.6-0.9,1.3-0.9,2.2l0,0c0,0.6,0.1,1.1,0.4,1.6s0.7,0.9,1.1,1.2S132.3,226,132.9,226L132.9,226
				z M147.2,226c0.8,0,1.5-0.3,2.2-0.8l0,0l0.9,1.5c-0.5,0.3-1,0.6-1.6,0.8c-0.6,0.2-1.1,0.3-1.6,0.3l0,0c-1,0-1.9-0.2-2.7-0.6
				c-0.8-0.4-1.3-1-1.7-1.7c-0.4-0.7-0.6-1.6-0.6-2.5l0,0c0-0.9,0.2-1.7,0.7-2.5c0.4-0.7,1.1-1.3,1.8-1.8c0.8-0.4,1.6-0.6,2.6-0.6
				l0,0c1.2,0,2.2,0.3,3,1c0.8,0.7,1.3,1.7,1.6,2.9l0,0l-7.2,2.5c0.3,0.5,0.6,0.8,1.1,1.1C146.1,225.8,146.6,226,147.2,226
				L147.2,226z M147,219.6c-0.8,0-1.5,0.3-2.1,0.9c-0.5,0.6-0.8,1.3-0.8,2.2l0,0c0,0.2,0,0.4,0,0.5l0,0l5.3-2
				c-0.2-0.5-0.5-0.9-0.9-1.2C148.2,219.8,147.6,219.6,147,219.6L147,219.6z M157.7,220.5c0.2-0.5,0.6-0.9,1-1.3
				c0.4-0.4,0.9-0.7,1.4-0.9c0.5-0.2,0.9-0.3,1.3-0.3l0,0l-0.1,2c-0.7,0-1.3,0.1-1.8,0.4c-0.5,0.3-1,0.7-1.3,1.2
				c-0.3,0.5-0.5,1.1-0.5,1.7l0,0v4.2h-2v-9.1h1.8L157.7,220.5z M174.1,211.6h9.4v2h-7.3v5.1h6.4v2h-6.4v6.8h-2.1V211.6z
				 M189.3,220.5c0.2-0.5,0.6-0.9,1-1.3c0.4-0.4,0.9-0.7,1.4-0.9c0.5-0.2,0.9-0.3,1.3-0.3l0,0l-0.1,2c-0.7,0-1.3,0.1-1.8,0.4
				c-0.5,0.3-1,0.7-1.3,1.2c-0.3,0.5-0.5,1.1-0.5,1.7l0,0v4.2h-2v-9.1h1.8L189.3,220.5z M195.8,222.8c0-0.9,0.2-1.7,0.6-2.5
				s1-1.3,1.8-1.8s1.6-0.6,2.6-0.6l0,0c1,0,1.8,0.2,2.6,0.6c0.8,0.4,1.3,1,1.8,1.7c0.4,0.7,0.6,1.6,0.6,2.5l0,0
				c0,0.9-0.2,1.7-0.6,2.5c-0.4,0.7-1,1.3-1.8,1.8c-0.8,0.4-1.6,0.6-2.6,0.6l0,0c-1,0-1.8-0.2-2.6-0.6c-0.8-0.4-1.4-1-1.8-1.7
				C196,224.7,195.8,223.8,195.8,222.8L195.8,222.8z M197.8,222.9c0,0.6,0.1,1.1,0.4,1.6s0.6,0.9,1.1,1.1c0.4,0.3,0.9,0.4,1.5,0.4
				l0,0c0.9,0,1.6-0.3,2.1-0.9c0.6-0.6,0.8-1.4,0.8-2.2l0,0c0-0.9-0.3-1.6-0.8-2.3c-0.6-0.6-1.3-0.9-2.1-0.9l0,0
				c-0.6,0-1.1,0.1-1.5,0.4s-0.8,0.7-1,1.2S197.8,222.3,197.8,222.9L197.8,222.9z M215.5,218c0.9,0,1.6,0.3,2.1,0.8
				c0.6,0.5,0.8,1.2,0.9,2l0,0v6.7h-2.1v-6c0-0.5-0.2-0.9-0.5-1.2c-0.3-0.3-0.7-0.4-1.3-0.5l0,0c-0.8,0-1.5,0.3-2,1
				c-0.5,0.6-0.8,1.5-0.8,2.5l0,0v4.3h-2v-9.1h1.8l0.1,1.8c0.3-0.7,0.8-1.2,1.5-1.6C213.9,218.2,214.7,218,215.5,218L215.5,218z
				 M224.2,214.4h2.1v4h2.5v1.6h-2.5v7.5h-2.1V220h-1.7v-1.6h1.7V214.4z M257.2,211.1L257.2,211.1l0,16.4h-2.1v-10.3l-5.9,8.3h0
				l-5.7-8v10h-2.1v-16.4h0l7.8,11.1L257.2,211.1z M270,218.4h1.9v9.1h-2V226c-0.3,0.4-0.8,0.8-1.4,1.2c-0.6,0.4-1.3,0.5-2.1,0.5
				l0,0c-0.9,0-1.6-0.2-2.3-0.6c-0.7-0.4-1.2-0.9-1.6-1.6c-0.4-0.7-0.6-1.6-0.6-2.6l0,0c0-1,0.2-1.9,0.6-2.6s1-1.3,1.7-1.7
				c0.7-0.4,1.5-0.6,2.4-0.6l0,0c0.8,0,1.5,0.2,2,0.5c0.6,0.3,1,0.8,1.4,1.3l0,0L270,218.4z M266.9,226c0.7,0,1.4-0.2,1.9-0.6
				s0.9-1,1-1.7l0,0v-1.8c-0.2-0.6-0.5-1.2-1.1-1.6s-1.2-0.6-1.9-0.6l0,0c-0.5,0-1,0.1-1.5,0.4c-0.5,0.3-0.8,0.6-1.1,1.1
				s-0.4,1-0.4,1.6l0,0c0,0.6,0.1,1.1,0.4,1.6c0.3,0.5,0.7,0.9,1.1,1.2C265.9,225.9,266.4,226,266.9,226L266.9,226z M282.5,218
				c0.9,0,1.6,0.3,2.1,0.8c0.6,0.5,0.8,1.2,0.9,2l0,0v6.7h-2.1v-6c0-0.5-0.2-0.9-0.5-1.2c-0.3-0.3-0.7-0.4-1.3-0.5l0,0
				c-0.8,0-1.5,0.3-2,1c-0.5,0.6-0.8,1.5-0.8,2.5l0,0v4.3h-2v-9.1h1.8l0.1,1.8c0.3-0.7,0.8-1.2,1.5-1.6
				C280.9,218.2,281.6,218,282.5,218L282.5,218z M298.8,211.9h1.9v20.8h-1.9V211.9z M314.7,211.6h2.1v13.8h8.1v2.1h-10.2V211.6z
				 M333.4,226c0.8,0,1.5-0.3,2.2-0.8l0,0l0.9,1.5c-0.5,0.3-1,0.6-1.6,0.8c-0.6,0.2-1.1,0.3-1.6,0.3l0,0c-1,0-1.9-0.2-2.7-0.6
				c-0.8-0.4-1.3-1-1.7-1.7c-0.4-0.7-0.6-1.6-0.6-2.5l0,0c0-0.9,0.2-1.7,0.7-2.5c0.4-0.7,1.1-1.3,1.8-1.8c0.8-0.4,1.6-0.6,2.6-0.6
				l0,0c1.2,0,2.2,0.3,3,1c0.8,0.7,1.3,1.7,1.6,2.9l0,0l-7.2,2.5c0.3,0.5,0.6,0.8,1.1,1.1S332.9,226,333.4,226L333.4,226z
				 M333.3,219.6c-0.8,0-1.5,0.3-2.1,0.9c-0.5,0.6-0.8,1.3-0.8,2.2l0,0c0,0.2,0,0.4,0,0.5l0,0l5.3-2c-0.2-0.5-0.5-0.9-0.9-1.2
				C334.4,219.8,333.9,219.6,333.3,219.6L333.3,219.6z M352.3,218.4h2l-4.2,9.7l-2.9-6.3l-2.7,6.3l-4.2-9.7h2l2.4,5.5l1.7-4
				l-0.7-1.6h1.8l2.5,5.7L352.3,218.4z M357.8,218.4h2v9.1h-2V218.4z M357.7,215.1c0-0.3,0.1-0.6,0.4-0.8s0.5-0.3,0.9-0.3l0,0
				c0.3,0,0.6,0.1,0.8,0.3s0.4,0.5,0.4,0.8l0,0c0,0.3-0.1,0.6-0.4,0.8s-0.5,0.3-0.8,0.3l0,0c-0.3,0-0.6-0.1-0.9-0.3
				S357.7,215.4,357.7,215.1L357.7,215.1z M367.3,227.7c-0.7,0-1.3-0.1-1.9-0.4s-1.1-0.6-1.5-1l0,0l0.9-1.2c0.4,0.4,0.8,0.6,1.2,0.8
				c0.4,0.2,0.8,0.3,1.2,0.3l0,0c0.5,0,0.9-0.1,1.2-0.3c0.3-0.2,0.5-0.5,0.5-0.9l0,0c0-0.3-0.1-0.6-0.3-0.7s-0.4-0.3-0.6-0.4
				s-0.6-0.2-1.2-0.4l0,0c-1.6-0.5-2.3-1.4-2.3-2.7l0,0c0-0.8,0.3-1.4,0.8-2s1.4-0.8,2.4-0.8l0,0c0.6,0,1.2,0.1,1.7,0.2
				s1,0.4,1.4,0.8l0,0l-0.8,1.3c-0.2-0.2-0.5-0.4-0.9-0.6c-0.4-0.1-0.7-0.2-1-0.2l0,0c-0.4,0-0.8,0.1-1.1,0.3s-0.4,0.5-0.4,0.8l0,0
				c0,0.3,0.1,0.5,0.3,0.7c0.2,0.2,0.4,0.3,0.6,0.4c0.2,0.1,0.6,0.2,1.2,0.4l0,0c0.7,0.2,1.3,0.6,1.7,1c0.4,0.4,0.6,0.9,0.6,1.6l0,0
				c0,0.9-0.3,1.6-0.9,2.2S368.5,227.7,367.3,227.7L367.3,227.7z M375.9,214.4h2.1v4h2.5v1.6H378v7.5h-2.1V220h-1.7v-1.6h1.7V214.4z
				 M383.5,222.8c0-0.9,0.2-1.7,0.6-2.5s1-1.3,1.8-1.8c0.8-0.4,1.6-0.6,2.6-0.6l0,0c1,0,1.8,0.2,2.6,0.6c0.8,0.4,1.3,1,1.8,1.7
				c0.4,0.7,0.6,1.6,0.6,2.5l0,0c0,0.9-0.2,1.7-0.6,2.5c-0.4,0.7-1,1.3-1.8,1.8c-0.8,0.4-1.6,0.6-2.6,0.6l0,0c-1,0-1.8-0.2-2.6-0.6
				c-0.8-0.4-1.4-1-1.8-1.7C383.7,224.7,383.5,223.8,383.5,222.8L383.5,222.8z M385.6,222.9c0,0.6,0.1,1.1,0.4,1.6s0.6,0.9,1.1,1.1
				c0.4,0.3,0.9,0.4,1.5,0.4l0,0c0.9,0,1.6-0.3,2.1-0.9s0.8-1.4,0.8-2.2l0,0c0-0.9-0.3-1.6-0.8-2.3s-1.3-0.9-2.1-0.9l0,0
				c-0.6,0-1.1,0.1-1.5,0.4c-0.4,0.3-0.8,0.7-1,1.2S385.6,222.3,385.6,222.9L385.6,222.9z M403.3,218c0.9,0,1.6,0.3,2.1,0.8
				c0.6,0.5,0.8,1.2,0.9,2l0,0v6.7h-2.1v-6c0-0.5-0.2-0.9-0.5-1.2c-0.3-0.3-0.7-0.4-1.3-0.5l0,0c-0.8,0-1.5,0.3-2,1
				c-0.5,0.6-0.8,1.5-0.8,2.5l0,0v4.3h-2v-9.1h1.8l0.1,1.8c0.3-0.7,0.8-1.2,1.5-1.6C401.7,218.2,402.4,218,403.3,218L403.3,218z
				 M413,225.6l-1.3,3.1l-0.6,1.5h-1.7l0.6-1.5c0.7-1.8,1-2.8,1.1-3.1l0,0H413z M425.7,211.6h2.1v15.9h-2.1V211.6z M440.6,210.4h2
				v17.1h-2.1v-1.4c-0.4,0.5-1,0.9-1.6,1.2c-0.6,0.3-1.3,0.4-2.1,0.4l0,0c-0.9,0-1.6-0.2-2.3-0.6c-0.7-0.4-1.2-1-1.6-1.7
				c-0.4-0.7-0.6-1.6-0.6-2.6l0,0c0-1,0.2-1.8,0.6-2.6s1-1.3,1.7-1.7c0.7-0.4,1.5-0.6,2.4-0.6l0,0c0.7,0,1.4,0.1,2,0.4
				c0.6,0.3,1.1,0.7,1.5,1.2l0,0V210.4z M437.5,226c0.8,0,1.5-0.2,2-0.6c0.5-0.4,0.9-1,1.1-1.7l0,0v-1.7c-0.2-0.7-0.5-1.2-1.1-1.6
				s-1.2-0.6-2-0.6l0,0c-0.6,0-1.1,0.1-1.5,0.4c-0.5,0.3-0.8,0.6-1.1,1.1c-0.3,0.5-0.4,1-0.4,1.6l0,0c0,0.6,0.1,1.1,0.4,1.6
				c0.3,0.5,0.7,0.9,1.1,1.1C436.5,225.8,437,226,437.5,226L437.5,226z M455,218.4h1.9v9.1h-2V226c-0.3,0.4-0.8,0.8-1.4,1.2
				c-0.6,0.4-1.3,0.5-2.1,0.5l0,0c-0.9,0-1.6-0.2-2.3-0.6c-0.7-0.4-1.2-0.9-1.6-1.6c-0.4-0.7-0.6-1.6-0.6-2.6l0,0
				c0-1,0.2-1.9,0.6-2.6s1-1.3,1.7-1.7c0.7-0.4,1.5-0.6,2.4-0.6l0,0c0.8,0,1.5,0.2,2,0.5c0.6,0.3,1,0.8,1.4,1.3l0,0L455,218.4z
				 M451.9,226c0.7,0,1.4-0.2,1.9-0.6c0.5-0.4,0.9-1,1-1.7l0,0v-1.8c-0.2-0.6-0.5-1.2-1.1-1.6c-0.6-0.4-1.2-0.6-1.9-0.6l0,0
				c-0.5,0-1,0.1-1.5,0.4c-0.5,0.3-0.8,0.6-1.1,1.1c-0.3,0.5-0.4,1-0.4,1.6l0,0c0,0.6,0.1,1.1,0.4,1.6s0.7,0.9,1.1,1.2
				S451.3,226,451.9,226L451.9,226z M467.4,218c0.9,0,1.6,0.3,2.1,0.8c0.6,0.5,0.8,1.2,0.9,2l0,0v6.7h-2.1v-6c0-0.5-0.2-0.9-0.5-1.2
				c-0.3-0.3-0.7-0.4-1.3-0.5l0,0c-0.5,0-1,0.1-1.4,0.4c-0.4,0.3-0.8,0.7-1,1.2s-0.4,1.1-0.4,1.8l0,0v4.3h-2v-17.1h2v9.6
				c0.3-0.6,0.8-1.1,1.5-1.5C465.9,218.2,466.6,218,467.4,218L467.4,218z M474.5,222.8c0-0.9,0.2-1.7,0.6-2.5s1-1.3,1.8-1.8
				c0.8-0.4,1.6-0.6,2.6-0.6l0,0c1,0,1.8,0.2,2.6,0.6c0.8,0.4,1.3,1,1.8,1.7c0.4,0.7,0.6,1.6,0.6,2.5l0,0c0,0.9-0.2,1.7-0.6,2.5
				c-0.4,0.7-1,1.3-1.8,1.8c-0.8,0.4-1.6,0.6-2.6,0.6l0,0c-1,0-1.8-0.2-2.6-0.6c-0.8-0.4-1.4-1-1.8-1.7
				C474.7,224.7,474.5,223.8,474.5,222.8L474.5,222.8z M476.5,222.9c0,0.6,0.1,1.1,0.4,1.6c0.3,0.5,0.6,0.9,1.1,1.1s0.9,0.4,1.5,0.4
				l0,0c0.9,0,1.6-0.3,2.1-0.9c0.6-0.6,0.8-1.4,0.8-2.2l0,0c0-0.9-0.3-1.6-0.8-2.3c-0.6-0.6-1.3-0.9-2.1-0.9l0,0
				c-0.6,0-1.1,0.1-1.5,0.4s-0.8,0.7-1,1.2C476.7,221.8,476.5,222.3,476.5,222.9L476.5,222.9z"/>
		</g>
	</g>
	<g transform="rotate(0 57.1785 166.4275)">
		<g transform="matrix(1 0 0 1 0 0)">
			<path class="st1" d="M64.5,185.1l-0.3,0.1c-0.3-0.1-0.6-0.1-1-0.2s-0.7-0.1-1-0.1c-0.3,0-0.6-0.1-0.9-0.1c-0.3,0-0.5,0-0.7,0l0,0
				H60v0.3c0,0-0.1,0-0.2,0c-0.1,0-0.2,0-0.4-0.1l0,0h-0.1l-0.1,0.1l-0.5,0.1l-0.6-0.2c0,0-0.1,0.1-0.2,0.1s-0.1,0-0.2,0l0,0
				c-0.1,0-0.2-0.1-0.3-0.2c-0.1-0.1-0.1-0.2-0.1-0.3s0-0.2,0-0.4c0-0.1,0-0.2,0-0.2l0,0l-0.1-0.1c0,0,0-0.1,0-0.1l0,0h0h0
				c0,0,0-0.1,0-0.1c0,0,0,0,0-0.1l0,0l0-0.3l-0.1,0.1c0,0-0.1,0-0.1,0l0,0v-0.1c0-0.2,0-0.5,0.1-0.7c0.1-0.2,0.1-0.4,0.1-0.3l0,0
				h0.2c0-0.1-0.1-0.1-0.2-0.1c-0.1,0-0.1,0-0.1-0.2l0,0c0-0.1,0.1-0.2,0.2-0.2c0.2,0,0.3,0,0.3,0l0,0c0,0,0,0,0,0.1l0,0l0.1-0.1
				c0,0,0,0,0-0.1c0,0,0-0.1,0-0.1l0,0v-0.3c-0.1,0-0.2,0.1-0.2,0c0,0-0.1,0-0.3,0.1l0,0v-0.1c0-0.2,0.1-0.2,0.2-0.2l0,0h0.1v-0.2
				c-0.1,0-0.2,0-0.2,0.1c0,0.1-0.1,0.1-0.2,0.1l0,0c0-0.1,0-0.2,0-0.4c0-0.2,0.1-0.3,0.2-0.3l0,0v-0.4c0,0-0.1,0.1-0.1,0.1l0,0
				h-0.1c0-0.1,0.1-0.3,0.1-0.4l0,0v-0.1c0,0-0.1,0.1-0.1,0.3c0,0.1-0.1,0.2-0.1,0.3l0,0v-0.1c0-0.1,0-0.2,0-0.4c0-0.2,0-0.3,0-0.3
				l0,0l0.1-0.2l0.1,0.1l0.2-0.4h0.1c0,0,0-0.1,0-0.1c0,0,0-0.1,0-0.1l0,0v-0.1l-0.1,0.1l-0.2-0.2c0-0.1,0-0.2,0.1-0.3
				c0-0.1,0.1-0.2,0.1-0.3l0,0c0-0.2,0.1-0.5,0.2-0.7s0.1-0.4,0.2-0.6c0.1-0.2,0.1-0.5,0.1-0.8c0-0.3,0.1-0.6,0.1-1l0,0V175h-0.2
				c0,0,0-0.1-0.1-0.1l0,0c0,0,0-0.1,0.1-0.2c0.1-0.1,0.1-0.2,0.1-0.2l0,0c0-0.1,0-0.1,0-0.2l0,0c0-0.1,0-0.1,0-0.2
				c0-0.1,0.1-0.1,0.2-0.3c0.1-0.1,0.2-0.3,0.3-0.5c0.1-0.2,0.2-0.6,0.4-1l0,0H59l0.2-0.5c0-0.1,0.1-0.3,0.2-0.6
				c0.1-0.3,0.2-0.5,0.3-0.6l0,0l0.1,0.1c0,0,0,0,0.1,0c0.1,0,0.2,0,0.2-0.1l0,0c0.2,0.2,0.4,0.3,0.5,0.4c0.2,0.1,0.4,0.2,0.5,0.2
				s0.3,0.1,0.4,0.2c0.1,0.1,0.2,0.2,0.3,0.4l0,0c0,0-0.1,0.2-0.1,0.3c0,0.2-0.1,0.4-0.1,0.6c0,0.2-0.1,0.4-0.1,0.5
				c0,0.1,0,0.2,0,0.1l0,0h0.1c0.1,0,0.1,0,0.2,0s0.2,0,0.2,0l0,0c0.3-0.1,0.6-0.2,0.8-0.3c0.2-0.1,0.4-0.1,0.6-0.2
				c0.2,0,0.3-0.1,0.5-0.2c0.1-0.1,0.3-0.2,0.4-0.3l0,0c0.1,0,0.1,0,0.2,0l0,0c0.1,0,0.1,0,0.2-0.1c0,0,0.1-0.1,0.1-0.1
				c0.1,0,0.1-0.1,0.2-0.1c0.1,0,0.3-0.1,0.5-0.1l0,0c0,0,0.2,0,0.4,0.1c0.3,0.1,0.5,0.3,0.7,0.6l0,0c-0.1,0-0.2,0.2-0.3,0.5
				c-0.1,0.3-0.2,0.6-0.2,1c-0.1,0.4-0.1,0.7-0.2,1.1c0,0.4-0.1,0.7-0.1,0.9l0,0c-0.1,0.4-0.2,0.7-0.3,0.8c-0.1,0.1-0.1,0.2-0.1,0.3
				l0,0c0,0.1,0,0.1,0.1,0.2s0.2,0.1,0.3,0.2c0.1,0.1,0.2,0.1,0.3,0.2c0.1,0.1,0.2,0.1,0.2,0.2l0,0c0.1,0.1,0.1,0.2,0.2,0.3
				c0.1,0.2,0.1,0.2,0.1,0.3l0,0v0.6c0,0.2,0,0.5,0,0.9s0,0.6-0.1,0.9l0,0c-0.1,0-0.1,0.1-0.1,0.3c0,0.2,0,0.3,0,0.4l0,0l-0.1,0.2
				h0.1l-0.3,0.4l0,0.6c0,0.4-0.1,0.8-0.3,1.2c-0.2,0.3-0.3,0.7-0.3,1.1l0,0h-0.2l-0.3,0.2l-0.2,0L64.5,185.1z M60.3,183.2l0.2,0.1
				l0.1,0.1c0.3,0,0.6,0.1,1,0.1s0.6,0.1,0.9,0.1l0,0c0.2,0,0.6,0,1-0.1s0.7-0.1,1-0.3l0,0c0,0,0-0.1,0-0.3c0-0.1,0-0.3,0.1-0.4l0,0
				v0c0-0.1,0-0.2,0.1-0.3c0-0.1,0.1-0.2,0.1-0.3l0,0l0.1,0l-0.1-0.3c0-0.4,0-0.8,0.1-1.2c0.1-0.4,0.1-0.8,0.2-1.2l0,0
				c0-0.1-0.1-0.2-0.3-0.2c-0.2,0-0.3,0-0.4,0l0,0c-0.5,0-1.1,0.1-1.8,0.4s-1.2,0.5-1.7,0.9l0,0l-0.2,0c0,0-0.1,0.1-0.1,0.3
				c0,0.2-0.1,0.2-0.1,0.2l0,0h0l-0.2,0.6c0,0.3,0,0.6-0.1,0.8s-0.1,0.5-0.1,0.8l0,0c0,0.1,0,0.2,0.1,0.2l0,0L60.3,183.2z
				 M64.2,176.9l0.2-1c0,0,0,0,0,0l0,0c0-0.1,0.1-0.3,0.2-0.7c0.1-0.4,0.2-0.7,0.2-1.1l0,0c0-0.1,0-0.2-0.1-0.2l0,0
				c-0.5,0.2-1,0.4-1.5,0.6c-0.5,0.2-0.9,0.4-1.3,0.7l0,0l-0.4,0.3c-0.2,0.3-0.4,0.5-0.5,0.7s-0.1,0.3-0.1,0.5l0,0l0.1-0.1
				c0,0.2-0.1,0.4,0,0.5c0,0.1,0,0.2-0.2,0.4l0,0l-0.1,0h0.2v0.2c0,0,0,0.1,0,0.2s0,0.2,0,0.2l0,0c0,0.1,0,0.1,0,0.2
				c0,0,0,0.1,0,0.1l0,0c0,0.1,0,0.2-0.1,0.2l0,0h0.1c0,0,0.1,0,0.1,0s0.1,0,0.2,0l0,0c0,0,0.1,0,0.1,0l0,0c0.3-0.2,0.6-0.3,1-0.4
				s0.7-0.3,1-0.5l0,0l0.1-0.1c0.1,0,0.2-0.1,0.4-0.1C64,177.2,64.1,177.1,64.2,176.9L64.2,176.9z M72.6,184.1L72.6,184.1
				c0.4,0.1,0.5,0.2,0.5,0.2l0,0l0,0.3c0,0.2,0,0.4,0.1,0.6l0,0c0,0.1,0.1,0.1,0.1,0.2l0,0c0,0-0.1,0.1-0.3,0.1c-0.2,0-0.4,0-0.6,0
				c-0.2,0-0.5,0-0.7,0c-0.2,0-0.4,0-0.6,0l0,0h-0.2c-0.4,0-0.8-0.1-1.1-0.2c-0.3-0.1-0.5-0.4-0.7-0.7l0,0l-0.1-0.1l-0.1-0.4
				c0-0.2-0.1-0.3-0.1-0.5s-0.1-0.3-0.1-0.5l0,0c0-0.1,0.1-0.2,0.2-0.3c0.1-0.1,0.2-0.2,0.2-0.2c0.1-0.1,0.1-0.1,0.2-0.2
				c0,0,0-0.1,0-0.1l0,0c0-0.1,0.1-0.2,0.2-0.4c0.1-0.2,0.3-0.3,0.5-0.5c0.2-0.2,0.4-0.3,0.6-0.5c0.2-0.2,0.4-0.3,0.5-0.4l0,0
				l0.2,0.1c0,0,0.1,0,0.3-0.1c0.2-0.1,0.3-0.1,0.4-0.1l0,0l0.4-0.3c0.1,0,0.2-0.1,0.2-0.2l0,0l1.2-0.5c0,0,0.1-0.1,0.1-0.1
				s0.1-0.1,0.1-0.1l0,0l-0.2-1c0,0,0-0.1-0.1-0.1l0,0c0,0,0,0,0,0c0,0,0,0,0,0l0,0h-0.1c-0.1,0-0.3,0-0.5,0.1
				c-0.3,0-0.5,0.1-0.8,0.2c-0.3,0.1-0.5,0.1-0.7,0.2c-0.2,0-0.3,0.1-0.3,0.1l0,0c0,0-0.1,0-0.1,0l0,0c-0.1,0-0.2-0.1-0.4-0.2
				s-0.2-0.2-0.4-0.3l0,0l-0.3-0.1l-0.2-0.1c0,0,0-0.1,0-0.1c0,0,0-0.1-0.1-0.1l0,0l-0.1-0.1c0-0.1,0.2-0.2,0.5-0.3s0.8-0.2,1.3-0.2
				c0.5-0.1,1.1-0.1,1.6-0.1c0.6,0,1.1,0,1.6,0l0,0h0.1c0.3,0,0.5,0,0.7,0.1s0.3,0.2,0.5,0.3c0.1,0.1,0.2,0.3,0.3,0.4
				s0.2,0.3,0.3,0.4l0,0v0.5c0,0.2,0,0.4,0,0.5c0,0.1,0,0.3,0,0.4l0,0c0,0.1,0,0.2,0,0.4c0,0.1-0.1,0.3-0.1,0.5l0,0
				c0,0.1,0,0.2,0.1,0.3c0,0.1,0.1,0.1,0.1,0.2l0,0v0l0,0.2l-0.2,0.3l0.2,0.2l-0.2,0.3c0,0,0,0.1,0,0.2c0,0.1,0,0.1,0,0.2l0,0l0,0
				l-0.1,0.5l0.2,0.1l0,0.2l-0.2,0.1l0.1,0.1l0,0.2c-0.1,0.2-0.2,0.4-0.2,0.8c0,0.3-0.1,0.6-0.1,0.8l0,0c0,0-0.1,0.1-0.2,0.1
				s-0.3,0-0.4,0c-0.2,0-0.3,0-0.4,0s-0.2,0-0.2,0l0,0c-0.2,0-0.3-0.1-0.5-0.2s-0.2-0.2-0.3-0.4s-0.1-0.3-0.2-0.5c0-0.2,0-0.3,0-0.5
				l0,0c0-0.3,0.1-0.6,0.2-0.8c0.1-0.2,0.2-0.5,0.2-0.9l0,0c0-0.2,0-0.3,0-0.5c0-0.2,0-0.3-0.2-0.3l0,0c0,0-0.1,0.1-0.1,0.1
				c-0.1,0.1-0.1,0.1-0.1,0.1l0,0c0,0-0.1,0-0.2,0l0,0c0,0-0.1,0-0.3,0.1c-0.1,0.1-0.3,0.1-0.5,0.2c-0.2,0.1-0.3,0.2-0.4,0.2
				s-0.2,0.1-0.2,0.2l0,0c-0.2,0.1-0.4,0.3-0.7,0.4c-0.2,0.1-0.4,0.2-0.5,0.4l0,0l-0.1,0.5c0,0,0,0.1,0,0.1c0,0.1,0,0.1,0,0.2l0,0
				l0,0l0.1-0.1l0.1,0.2c0.1,0,0.3,0,0.4,0s0.2,0,0.3,0l0,0c0,0,0,0,0,0c0,0,0,0,0,0l0,0c0.1,0,0.2,0.1,0.4,0.2
				C72.3,184,72.4,184.1,72.6,184.1L72.6,184.1C72.6,184.1,72.6,184.1,72.6,184.1z M82.1,185.8L82.1,185.8c-0.1,0-0.1,0-0.3,0
				c-0.1,0-0.2,0-0.4,0c-0.1,0-0.3,0-0.4-0.1c-0.1,0-0.2-0.1-0.3-0.1l0,0l-0.7-0.3c0,0-0.1,0-0.2-0.1s-0.3-0.1-0.6-0.2l0,0l-0.4-0.5
				c0-0.2,0.1-0.4,0.3-0.5c0.2-0.2,0.4-0.3,0.5-0.3l0,0c0,0,0.1,0,0.2,0s0.2,0,0.3,0.1c0.1,0,0.2,0.1,0.3,0.1c0.1,0,0.1,0,0.2,0l0,0
				c0.2,0,0.4,0,0.7,0c0.3,0,0.6,0,0.9-0.1s0.5-0.1,0.8-0.1s0.3-0.1,0.3-0.2l0,0l0.2-0.8c0-0.2-0.1-0.4-0.2-0.5
				c-0.1-0.1-0.3-0.2-0.5-0.2l0,0c-0.1,0-0.1,0-0.2,0.1l0,0l-0.8-0.2h-0.3c-0.2,0-0.4,0-0.8-0.1c-0.3-0.1-0.7-0.2-1-0.3
				c-0.3-0.1-0.6-0.3-0.9-0.5c-0.3-0.2-0.4-0.5-0.4-0.8l0,0c0-0.2,0-0.3,0.1-0.4c0.1-0.1,0.1-0.2,0.2-0.4l0,0l-0.1-0.1
				c0-0.1,0-0.2,0.1-0.3c0.1-0.1,0.1-0.2,0.2-0.4c0.1-0.1,0.1-0.3,0.2-0.4c0.1-0.1,0.1-0.2,0.1-0.3l0,0l1.1-1.2c0,0,0.1-0.1,0.1,0
				c0.1,0,0.1,0,0.1,0l0,0l0.7-0.5h0.2c0,0,0.1,0,0.2-0.1l0,0l0.8-0.2h0.3l0.1,0.1c0.1,0,0.2,0.1,0.3,0.1c0.1,0,0.2,0,0.4,0l0,0h0.5
				c0,0,0.1,0.1,0.2,0.2c0.1,0.1,0.1,0.2,0.2,0.2l0,0c0.2,0.1,0.3,0.2,0.5,0.3c0.1,0.1,0.3,0.2,0.4,0.3s0.2,0.2,0.3,0.3
				c0.1,0.1,0.1,0.3,0.1,0.6l0,0c0,0.1-0.1,0.1-0.2,0.2c-0.1,0-0.2,0.1-0.2,0.1l0,0h-0.5c0,0-0.1,0-0.1,0c-0.1,0-0.2,0-0.2,0.1
				c-0.1,0-0.2,0-0.3,0.1c-0.1,0-0.1,0-0.2,0l0,0h-1.1c0,0.1-0.2,0.2-0.4,0.2s-0.3,0.1-0.4,0.1l0,0c-0.3,0.2-0.5,0.3-0.5,0.5
				c-0.1,0.2-0.1,0.4-0.2,0.7l0,0c0.3,0.2,0.7,0.3,1.1,0.4s0.7,0.1,0.9,0.1l0,0l0.8,0.2c0.5,0.2,0.9,0.4,1.1,0.7
				c0.2,0.3,0.4,0.6,0.4,0.9l0,0l0.1,0.4v0.2c0,0.1,0,0.2,0,0.2c0,0.1,0,0.3-0.1,0.7l0,0l-0.2,0.5l-0.1,0.1
				c-0.2,0.3-0.4,0.5-0.6,0.7c-0.2,0.2-0.4,0.3-0.8,0.4l0,0c0,0,0,0-0.1,0.1c0,0-0.1,0.1-0.2,0.1c-0.1,0-0.3,0.1-0.5,0.1
				C82.9,185.8,82.5,185.8,82.1,185.8z M79,179.9L79,179.9c0,0.2,0.1,0.3,0.2,0.4c0.2,0.1,0.3,0.1,0.5,0.1l0,0l-0.1-0.3V180
				c0-0.1,0-0.2,0-0.2c0,0,0-0.1,0-0.3l0,0c-0.1,0-0.1,0-0.1-0.1l0,0c0,0,0-0.1,0.1-0.2c0-0.1,0.1-0.2,0.1-0.2l0,0v0.2
				c0.1,0,0.1-0.1,0.1-0.2s0-0.2,0-0.2l0,0c0-0.1,0-0.2-0.1-0.2l0,0l-0.1,0.2v-0.4h-0.1c0,0.1-0.1,0.1-0.1,0.2s-0.1,0.2-0.2,0.2l0,0
				c0,0.1-0.1,0.3-0.1,0.4c0,0.1,0,0.3-0.1,0.4l0,0C79.2,179.8,79.1,179.8,79,179.9C79,179.8,79,179.8,79,179.9z M81.3,177.1
				L81.3,177.1c-0.4,0-0.7,0.1-0.9,0.4s-0.4,0.6-0.5,0.9l0,0v0c0.2,0,0.3-0.1,0.3-0.3c0.1-0.2,0.1-0.4,0.2-0.5l0,0
				c0,0,0.1-0.1,0.2-0.1s0.2-0.1,0.3-0.2s0.2-0.1,0.3-0.2C81.2,177.3,81.3,177.2,81.3,177.1L81.3,177.1z M91.1,185.8L91.1,185.8
				c-0.1,0-0.1,0-0.3,0c-0.1,0-0.2,0-0.4,0c-0.1,0-0.3,0-0.4-0.1s-0.2-0.1-0.3-0.1l0,0l-0.7-0.3c0,0-0.1,0-0.2-0.1s-0.3-0.1-0.6-0.2
				l0,0l-0.4-0.5c0-0.2,0.1-0.4,0.3-0.5c0.2-0.2,0.4-0.3,0.5-0.3l0,0c0,0,0.1,0,0.2,0s0.2,0,0.3,0.1s0.2,0.1,0.3,0.1
				c0.1,0,0.1,0,0.2,0l0,0c0.2,0,0.4,0,0.7,0c0.3,0,0.6,0,0.9-0.1s0.5-0.1,0.8-0.1s0.3-0.1,0.3-0.2l0,0l0.2-0.8
				c0-0.2-0.1-0.4-0.2-0.5s-0.3-0.2-0.5-0.2l0,0c-0.1,0-0.1,0-0.2,0.1l0,0l-0.8-0.2h-0.3c-0.2,0-0.4,0-0.8-0.1
				c-0.3-0.1-0.7-0.2-1-0.3c-0.3-0.1-0.6-0.3-0.9-0.5c-0.3-0.2-0.4-0.5-0.4-0.8l0,0c0-0.2,0-0.3,0.1-0.4c0.1-0.1,0.1-0.2,0.2-0.4
				l0,0l-0.1-0.1c0-0.1,0-0.2,0.1-0.3c0.1-0.1,0.1-0.2,0.2-0.4c0.1-0.1,0.1-0.3,0.2-0.4c0.1-0.1,0.1-0.2,0.1-0.3l0,0l1.1-1.2
				c0,0,0.1-0.1,0.1,0c0.1,0,0.1,0,0.1,0l0,0l0.7-0.5h0.2c0,0,0.1,0,0.2-0.1l0,0l0.8-0.2h0.3l0.1,0.1c0.1,0,0.2,0.1,0.3,0.1
				c0.1,0,0.2,0,0.4,0l0,0h0.5c0,0,0.1,0.1,0.2,0.2s0.1,0.2,0.2,0.2l0,0c0.2,0.1,0.3,0.2,0.5,0.3c0.1,0.1,0.3,0.2,0.4,0.3
				c0.1,0.1,0.2,0.2,0.3,0.3c0.1,0.1,0.1,0.3,0.1,0.6l0,0c0,0.1-0.1,0.1-0.2,0.2c-0.1,0-0.2,0.1-0.2,0.1l0,0h-0.5c0,0-0.1,0-0.1,0
				c-0.1,0-0.2,0-0.2,0.1c-0.1,0-0.2,0-0.3,0.1c-0.1,0-0.1,0-0.2,0l0,0h-1.1c0,0.1-0.2,0.2-0.4,0.2c-0.2,0-0.3,0.1-0.4,0.1l0,0
				c-0.3,0.2-0.5,0.3-0.5,0.5c-0.1,0.2-0.1,0.4-0.2,0.7l0,0c0.3,0.2,0.7,0.3,1.1,0.4s0.7,0.1,0.9,0.1l0,0l0.8,0.2
				c0.5,0.2,0.9,0.4,1.1,0.7c0.2,0.3,0.4,0.6,0.4,0.9l0,0l0.1,0.4v0.2c0,0.1,0,0.2,0,0.2c0,0.1,0,0.3-0.1,0.7l0,0l-0.2,0.5l-0.1,0.1
				c-0.2,0.3-0.4,0.5-0.6,0.7s-0.4,0.3-0.8,0.4l0,0c0,0,0,0-0.1,0.1c0,0-0.1,0.1-0.2,0.1c-0.1,0-0.3,0.1-0.5,0.1
				C91.9,185.8,91.5,185.8,91.1,185.8z M88,179.9L88,179.9c0,0.2,0.1,0.3,0.2,0.4c0.2,0.1,0.3,0.1,0.5,0.1l0,0l-0.1-0.3V180
				c0-0.1,0-0.2,0-0.2c0,0,0-0.1,0-0.3l0,0c-0.1,0-0.1,0-0.1-0.1l0,0c0,0,0-0.1,0.1-0.2c0-0.1,0.1-0.2,0.1-0.2l0,0v0.2
				c0.1,0,0.1-0.1,0.1-0.2c0-0.1,0-0.2,0-0.2l0,0c0-0.1,0-0.2-0.1-0.2l0,0l-0.1,0.2v-0.4h-0.1c0,0.1-0.1,0.1-0.1,0.2
				c-0.1,0.1-0.1,0.2-0.2,0.2l0,0c0,0.1-0.1,0.3-0.1,0.4s0,0.3-0.1,0.4l0,0C88.1,179.8,88.1,179.8,88,179.9
				C88,179.8,88,179.8,88,179.9z M90.3,177.1L90.3,177.1c-0.4,0-0.7,0.1-0.9,0.4c-0.2,0.3-0.4,0.6-0.5,0.9l0,0v0
				c0.2,0,0.3-0.1,0.3-0.3c0.1-0.2,0.1-0.4,0.2-0.5l0,0c0,0,0.1-0.1,0.2-0.1s0.2-0.1,0.3-0.2c0.1-0.1,0.2-0.1,0.3-0.2
				S90.2,177.2,90.3,177.1L90.3,177.1z M108,181.8L108,181.8c0,0-0.1-0.1-0.1-0.2c0-0.1-0.1-0.2-0.1-0.4l0,0l-0.3-0.8l-0.1-0.1
				c0-0.1,0-0.2-0.1-0.4c0-0.2-0.1-0.4-0.1-0.5s-0.1-0.3-0.2-0.5c-0.1-0.1-0.1-0.2-0.1-0.3l0,0c0,0-0.1-0.1-0.1-0.4
				c-0.1-0.2-0.1-0.5-0.2-0.7s-0.1-0.5-0.2-0.8c-0.1-0.2-0.1-0.4-0.1-0.4l0,0l-0.1,1c0,0-0.1,0.1-0.1,0.1s0,0.1-0.1,0.1l0,0l0,0.6
				l-0.2,0.5l-0.1,0.2c0,0.1,0,0.1,0,0.3s0,0.2,0,0.3l0,0v0.1v0.1c0,0.1,0,0.2,0,0.3c0,0.1,0,0.2,0,0.3l0,0l-0.2,0.2l-0.1,0.5
				c0,0.1,0,0.2,0,0.2c0,0.1,0,0.1,0,0.2l0,0l-0.1,0.7l-0.2,0l-0.1,0.2l0,0.1l-0.1,0.1l0.3-0.2l0.1,0.1v0.4l0.1,0.1l-0.2,0.5
				l0.1,0.2l-0.1,0.2l-0.2,0l-0.1,0.3l-0.3,0.3l0.1,0.2h-0.4l-0.1-0.4l-0.1-0.1l-0.2,0.2c0,0,0,0,0,0c0,0,0,0,0,0l0,0
				c0,0,0,0.1,0,0.2c0,0.1,0,0.1,0,0.1l0,0h-0.2l-0.5-0.2l-0.5-0.1c-0.1-0.1-0.1-0.2-0.1-0.4c0-0.2-0.1-0.3-0.1-0.4l0,0l0.1-0.2
				c0-0.1,0-0.1,0.1-0.2c0-0.1,0-0.1,0-0.1l0,0v-0.2c0-0.1,0-0.1,0-0.1l0,0l0.1-0.2v-0.1l0.2-0.2v-0.3c0-0.1,0-0.2,0-0.4
				c0-0.2,0.1-0.3,0.1-0.4l0,0l0.1-0.4v0c0-0.1,0-0.2,0-0.3c0-0.1,0.1-0.2,0.1-0.3l0,0l-0.1-0.4c0-0.1,0-0.1,0.1-0.2l0,0l0.1-0.1
				l-0.1-0.2v-0.1c0,0,0.1-0.1,0.1-0.1c0.1-0.1,0.1-0.2,0.2-0.2c0.1-0.1,0.1-0.2,0.2-0.2c0-0.1,0.1-0.1,0.1-0.2l0,0l0-0.1l-0.2,0
				c0.1-0.5,0.2-0.9,0.3-1.4c0.1-0.4,0.2-0.9,0.2-1.5l0,0l0.3-0.6l0.1-0.3c0-0.1,0-0.2,0.1-0.4c0.1-0.2,0.1-0.4,0.2-0.6
				s0.2-0.4,0.2-0.6s0.2-0.3,0.2-0.4l0,0l0.8-0.1c0.2,0,0.5,0.3,0.8,0.8c0.3,0.5,0.6,1.1,0.9,1.9l0,0l0.1,0c0,0.4,0.1,0.8,0.3,1.2
				l0,0l0.2,0.3l0.1,0.5l0.1,0.2c0,0.1,0.1,0.2,0.1,0.2l0,0c0.1,0.3,0.2,0.7,0.2,0.9c0.1,0.3,0.2,0.6,0.3,0.9l0,0l0-0.1
				c0.1-0.2,0.2-0.3,0.4-0.5c0.2-0.1,0.3-0.3,0.3-0.5l0,0l0.2-0.5l0.1-0.1c0,0,0.1,0,0.1-0.1c0,0,0,0,0-0.1l0,0l0.3-0.5
				c0.2-0.4,0.4-0.8,0.5-1.1c0.1-0.3,0.3-0.5,0.4-0.8c0.1-0.2,0.2-0.5,0.4-0.7c0.1-0.2,0.3-0.5,0.4-0.9l0,0c0,0,0,0,0-0.1l0,0
				c0-0.2,0.1-0.4,0.3-0.6c0.2-0.2,0.4-0.3,0.7-0.3l0,0c0,0,0,0,0.1,0c0,0,0.1,0,0.1,0l0,0c0.1,0,0.2,0,0.2-0.1
				c0-0.1,0.1-0.1,0.1-0.1l0,0l0.1-0.1c0,0,0,0,0-0.1l0,0c0,0,0-0.1,0-0.1l0,0l0.2,0l0.5-0.1c0.2,0.1,0.4,0.2,0.6,0.3
				c0.2,0.1,0.4,0.2,0.4,0.4l0,0l-0.1,0.1l0.1,0.2l-0.1,0.1l-0.1,0.3c0,0,0,0.1,0,0.2c0,0.1,0,0.1,0.1,0.2l0,0l0.1,0.3
				c0,0.1,0,0.2,0.1,0.5c0.1,0.3,0.1,0.4,0.1,0.5l0,0l-0.1,0.9v1.2l0.1,0.6l-0.2,0.3c0,0.1,0,0.2,0,0.3l0,0l0,0.1l-0.1,0.5h0.3v0.2
				l-0.2,0.1l0,0.1l0.2-0.1l-0.1,0.2c0,0,0,0.1,0,0.1l0,0c0,0,0,0.1,0.1,0.1c0,0,0.1,0.1,0.1,0.1l0,0l-0.2,0.5c0,0,0,0.1-0.1,0.3
				l0,0l-0.1,0.2l0.2-0.1l0,0.2l-0.1,0.2l0,0.1h0.2c0,0,0.1,0,0.1,0l0,0l0.1,0.1l-0.2,0.6c0,0-0.1,0.1-0.1,0.2s0,0.2,0,0.3l0,0
				l0.4,0.7c0,0.1-0.1,0.2-0.2,0.2l0,0l-0.1,0.2l0.2,0l0.1,0.2l-0.1,0.3c0,0,0.1,0,0.1,0c0.1,0,0.1,0,0.1,0l0,0v0.1l-0.2,0.2
				l0.2,1.8c0,0-0.1,0.1-0.1,0.2l0,0l-0.1,0.1c0,0-0.1,0-0.2,0.1c-0.1,0.1-0.2,0.1-0.3,0.2c-0.1,0.1-0.2,0.1-0.3,0.2
				c-0.1,0.1-0.1,0.1-0.1,0.1l0,0v0.1l-0.1,0l-1-0.1c-0.1,0.1-0.1,0.1-0.2,0.1s-0.1,0-0.1,0.1l0,0l-0.1-0.1l-0.4-0.2l-0.3-0.5
				l-0.3-1.3l0.3-0.6c-0.1-0.3-0.1-0.6-0.1-1c0-0.4,0-0.7,0-1.1l0,0v-1.2v-0.4l0.1-0.4l-0.1,0c0-0.3,0-0.6,0-0.8s0-0.5,0-0.8l0,0
				c0-0.2,0-0.4,0-0.6s-0.1-0.4-0.1-0.5l0,0l-0.9,1.6c-0.1,0.3-0.2,0.6-0.4,0.7c-0.1,0.1-0.3,0.3-0.4,0.7l0,0
				c-0.1,0.2-0.2,0.4-0.3,0.6s-0.2,0.4-0.4,0.5l0,0l-0.4,0.7c-0.1,0.1-0.2,0.1-0.3,0.2c-0.1,0.1-0.2,0.1-0.3,0.2
				c-0.1,0.1-0.2,0.1-0.3,0.2c-0.1,0.1-0.1,0.1-0.1,0.1l0,0c-0.1,0-0.3-0.1-0.6-0.2C108.2,182.1,108.1,181.9,108,181.8z
				 M104.3,176.7l-0.1,0.2c0,0.1-0.1,0.3-0.1,0.4s-0.1,0.3-0.1,0.4l0,0l0.2-0.1L104.3,176.7z M105.4,180.8v-0.2l-0.1,0.1
				c0,0,0,0.1,0,0.2s0,0.2,0,0.3l0,0v0C105.3,181.1,105.4,181,105.4,180.8L105.4,180.8z M115.9,177.9L115.9,177.9
				c0.1,0,0.1,0.1,0.1,0.2l0,0c0,0.1,0,0.1-0.1,0.1l0,0c0,0-0.1-0.1-0.1-0.2l0,0C115.8,178,115.9,178,115.9,177.9z M105.3,180.2
				l-0.1,0.1l0,0.1L105.3,180.2L105.3,180.2z M116,178.5L116,178.5L116,178.5c0,0.1,0,0.1-0.1,0.1l0,0
				C115.9,178.6,115.9,178.5,116,178.5L116,178.5C115.9,178.4,115.9,178.4,116,178.5L116,178.5C115.9,178.4,116,178.4,116,178.5z
				 M122.1,184.1L122.1,184.1c0.4,0.1,0.5,0.2,0.5,0.2l0,0l0,0.3c0,0.2,0,0.4,0.1,0.6l0,0c0,0.1,0.1,0.1,0.1,0.2l0,0
				c0,0-0.1,0.1-0.3,0.1c-0.2,0-0.4,0-0.6,0c-0.2,0-0.5,0-0.7,0c-0.2,0-0.4,0-0.6,0l0,0h-0.2c-0.4,0-0.8-0.1-1.1-0.2
				s-0.5-0.4-0.7-0.7l0,0l-0.1-0.1l-0.1-0.4c0-0.2-0.1-0.3-0.1-0.5s-0.1-0.3-0.1-0.5l0,0c0-0.1,0.1-0.2,0.2-0.3
				c0.1-0.1,0.2-0.2,0.2-0.2c0.1-0.1,0.1-0.1,0.2-0.2c0,0,0-0.1,0-0.1l0,0c0-0.1,0.1-0.2,0.2-0.4c0.1-0.2,0.3-0.3,0.5-0.5
				c0.2-0.2,0.4-0.3,0.6-0.5c0.2-0.2,0.4-0.3,0.5-0.4l0,0l0.2,0.1c0,0,0.1,0,0.3-0.1s0.3-0.1,0.4-0.1l0,0l0.4-0.3
				c0.1,0,0.2-0.1,0.2-0.2l0,0l1.2-0.5c0,0,0.1-0.1,0.1-0.1s0.1-0.1,0.1-0.1l0,0l-0.2-1c0,0,0-0.1-0.1-0.1l0,0c0,0,0,0,0,0
				c0,0,0,0,0,0l0,0H123c-0.1,0-0.3,0-0.5,0.1c-0.3,0-0.5,0.1-0.8,0.2s-0.5,0.1-0.7,0.2c-0.2,0-0.3,0.1-0.3,0.1l0,0c0,0-0.1,0-0.1,0
				l0,0c-0.1,0-0.2-0.1-0.4-0.2s-0.2-0.2-0.4-0.3l0,0l-0.3-0.1l-0.2-0.1c0,0,0-0.1,0-0.1s0-0.1-0.1-0.1l0,0l-0.1-0.1
				c0-0.1,0.2-0.2,0.5-0.3c0.3-0.1,0.8-0.2,1.3-0.2s1.1-0.1,1.6-0.1s1.1,0,1.6,0l0,0h0.1c0.3,0,0.5,0,0.7,0.1s0.3,0.2,0.5,0.3
				c0.1,0.1,0.2,0.3,0.3,0.4c0.1,0.2,0.2,0.3,0.3,0.4l0,0v0.5c0,0.2,0,0.4,0,0.5c0,0.1,0,0.3,0,0.4l0,0c0,0.1,0,0.2,0,0.4
				c0,0.1-0.1,0.3-0.1,0.5l0,0c0,0.1,0,0.2,0.1,0.3c0,0.1,0.1,0.1,0.1,0.2l0,0v0l0,0.2l-0.2,0.3l0.2,0.2l-0.2,0.3c0,0,0,0.1,0,0.2
				s0,0.1,0,0.2l0,0l0,0l-0.1,0.5l0.2,0.1l0,0.2l-0.2,0.1l0.1,0.1l0,0.2c-0.1,0.2-0.2,0.4-0.2,0.8c0,0.3-0.1,0.6-0.1,0.8l0,0
				c0,0-0.1,0.1-0.2,0.1c-0.1,0-0.3,0-0.4,0c-0.2,0-0.3,0-0.4,0s-0.2,0-0.2,0l0,0c-0.2,0-0.3-0.1-0.5-0.2c-0.1-0.1-0.2-0.2-0.3-0.4
				c-0.1-0.2-0.1-0.3-0.2-0.5c0-0.2,0-0.3,0-0.5l0,0c0-0.3,0.1-0.6,0.2-0.8c0.1-0.2,0.2-0.5,0.2-0.9l0,0c0-0.2,0-0.3,0-0.5
				c0-0.2,0-0.3-0.2-0.3l0,0c0,0-0.1,0.1-0.1,0.1c-0.1,0.1-0.1,0.1-0.1,0.1l0,0c0,0-0.1,0-0.2,0l0,0c0,0-0.1,0-0.3,0.1
				c-0.1,0.1-0.3,0.1-0.5,0.2c-0.2,0.1-0.3,0.2-0.4,0.2s-0.2,0.1-0.2,0.2l0,0c-0.2,0.1-0.4,0.3-0.7,0.4c-0.2,0.1-0.4,0.2-0.5,0.4
				l0,0l-0.1,0.5c0,0,0,0.1,0,0.1s0,0.1,0,0.2l0,0l0,0l0.1-0.1l0.1,0.2c0.1,0,0.3,0,0.4,0c0.1,0,0.2,0,0.3,0l0,0c0,0,0,0,0,0
				c0,0,0,0,0,0l0,0c0.1,0,0.2,0.1,0.4,0.2C121.7,184,121.8,184.1,122.1,184.1L122.1,184.1C122,184.1,122,184.1,122.1,184.1z
				 M131.5,185.8L131.5,185.8c-0.1,0-0.1,0-0.3,0c-0.1,0-0.2,0-0.4,0c-0.1,0-0.3,0-0.4-0.1s-0.2-0.1-0.3-0.1l0,0l-0.7-0.3
				c0,0-0.1,0-0.2-0.1c-0.1-0.1-0.3-0.1-0.6-0.2l0,0l-0.4-0.5c0-0.2,0.1-0.4,0.3-0.5c0.2-0.2,0.4-0.3,0.5-0.3l0,0c0,0,0.1,0,0.2,0
				s0.2,0,0.3,0.1c0.1,0,0.2,0.1,0.3,0.1c0.1,0,0.1,0,0.2,0l0,0c0.2,0,0.4,0,0.7,0c0.3,0,0.6,0,0.9-0.1s0.5-0.1,0.8-0.1
				c0.2-0.1,0.3-0.1,0.3-0.2l0,0l0.2-0.8c0-0.2-0.1-0.4-0.2-0.5s-0.3-0.2-0.5-0.2l0,0c-0.1,0-0.1,0-0.2,0.1l0,0l-0.8-0.2h-0.3
				c-0.2,0-0.4,0-0.8-0.1c-0.3-0.1-0.7-0.2-1-0.3c-0.3-0.1-0.6-0.3-0.9-0.5c-0.3-0.2-0.4-0.5-0.4-0.8l0,0c0-0.2,0-0.3,0.1-0.4
				c0.1-0.1,0.1-0.2,0.2-0.4l0,0l-0.1-0.1c0-0.1,0-0.2,0.1-0.3c0.1-0.1,0.1-0.2,0.2-0.4c0.1-0.1,0.1-0.3,0.2-0.4
				c0.1-0.1,0.1-0.2,0.1-0.3l0,0l1.1-1.2c0,0,0.1-0.1,0.1,0c0.1,0,0.1,0,0.1,0l0,0l0.7-0.5h0.2c0,0,0.1,0,0.2-0.1l0,0l0.8-0.2h0.3
				l0.1,0.1c0.1,0,0.2,0.1,0.3,0.1c0.1,0,0.2,0,0.4,0l0,0h0.5c0,0,0.1,0.1,0.2,0.2s0.1,0.2,0.2,0.2l0,0c0.2,0.1,0.3,0.2,0.5,0.3
				c0.1,0.1,0.3,0.2,0.4,0.3c0.1,0.1,0.2,0.2,0.3,0.3c0.1,0.1,0.1,0.3,0.1,0.6l0,0c0,0.1-0.1,0.1-0.2,0.2c-0.1,0-0.2,0.1-0.2,0.1
				l0,0H134c0,0-0.1,0-0.1,0c-0.1,0-0.2,0-0.2,0.1c-0.1,0-0.2,0-0.3,0.1c-0.1,0-0.1,0-0.2,0l0,0H132c0,0.1-0.2,0.2-0.4,0.2
				s-0.3,0.1-0.4,0.1l0,0c-0.3,0.2-0.5,0.3-0.5,0.5c-0.1,0.2-0.1,0.4-0.2,0.7l0,0c0.3,0.2,0.7,0.3,1.1,0.4s0.7,0.1,0.9,0.1l0,0
				l0.8,0.2c0.5,0.2,0.9,0.4,1.1,0.7c0.2,0.3,0.4,0.6,0.4,0.9l0,0l0.1,0.4v0.2c0,0.1,0,0.2,0,0.2c0,0.1,0,0.3-0.1,0.7l0,0l-0.2,0.5
				l-0.1,0.1c-0.2,0.3-0.4,0.5-0.6,0.7c-0.2,0.2-0.4,0.3-0.8,0.4l0,0c0,0,0,0-0.1,0.1c0,0-0.1,0.1-0.2,0.1c-0.1,0-0.3,0.1-0.5,0.1
				C132.3,185.8,132,185.8,131.5,185.8z M128.4,179.9L128.4,179.9c0,0.2,0.1,0.3,0.2,0.4c0.2,0.1,0.3,0.1,0.5,0.1l0,0l-0.1-0.3V180
				c0-0.1,0-0.2,0-0.2c0,0,0-0.1,0-0.3l0,0c-0.1,0-0.1,0-0.1-0.1l0,0c0,0,0-0.1,0.1-0.2c0-0.1,0.1-0.2,0.1-0.2l0,0v0.2
				c0.1,0,0.1-0.1,0.1-0.2c0-0.1,0-0.2,0-0.2l0,0c0-0.1,0-0.2-0.1-0.2l0,0l-0.1,0.2v-0.4h-0.1c0,0.1-0.1,0.1-0.1,0.2
				c-0.1,0.1-0.1,0.2-0.2,0.2l0,0c0,0.1-0.1,0.3-0.1,0.4s0,0.3-0.1,0.4l0,0C128.6,179.8,128.5,179.8,128.4,179.9
				C128.4,179.8,128.4,179.8,128.4,179.9z M130.7,177.1L130.7,177.1c-0.4,0-0.7,0.1-0.9,0.4c-0.2,0.3-0.4,0.6-0.5,0.9l0,0v0
				c0.2,0,0.3-0.1,0.3-0.3c0.1-0.2,0.1-0.4,0.2-0.5l0,0c0,0,0.1-0.1,0.2-0.1s0.2-0.1,0.3-0.2s0.2-0.1,0.3-0.2
				S130.7,177.2,130.7,177.1L130.7,177.1z M145.7,177.7L145.7,177.7l0,0.2L145.7,177.7L145,178c0,0-0.1,0-0.1,0l0,0
				c0,0-0.1,0-0.1-0.1l0,0l-0.2,0c-0.2,0-0.4,0-0.6,0.1c-0.3,0-0.5,0-0.7,0.1c-0.2,0-0.5,0.1-0.6,0.1c-0.2,0.1-0.3,0.1-0.3,0.2l0,0
				v0l0.1,0.1c0,0-0.1,0.1-0.1,0.1s0,0,0,0.1l0,0c0,0,0,0.1,0.1,0.2l0,0c0,0.1,0,0.2-0.1,0.2c-0.1,0-0.1,0.1-0.1,0.2l0,0
				c0,0.1,0.1,0.1,0.2,0.1l0,0c-0.1,0.1-0.2,0.2-0.2,0.4l0,0c0,0.2,0,0.3,0.1,0.3l0,0l0.1,0.3c-0.1,0.1-0.2,0.3-0.2,0.4l0,0
				c0,0.1,0,0.2,0,0.2l0,0c0,0.2,0,0.3,0,0.3s0,0.1,0,0.1c0,0,0,0,0,0c0,0,0,0,0,0.1l0,0l0,0c0,0.2,0,0.4-0.1,0.6s-0.1,0.4-0.2,0.4
				l0,0h-0.1v0.1h0.2c0,0-0.1,0.1-0.1,0.1c0,0-0.1,0.1-0.1,0.1l0,0c0,0,0,0,0,0.1l0,0h0.2l-0.2,1l0.1,0.1c0.1,0,0.3,0.1,0.5,0.1l0,0
				c0.2,0,0.3-0.1,0.5-0.1c0.1-0.1,0.3-0.1,0.5-0.1l0,0h0.1c0.1,0,0.2,0,0.3,0s0.2,0,0.3,0l0,0h1.4c0,0,0.1,0,0.2,0s0.2,0.1,0.3,0.1
				c0.1,0,0.2,0.1,0.2,0.1c0.1,0,0.1,0.1,0.1,0.1l0,0c0,0.1-0.1,0.2-0.2,0.4c-0.1,0.1-0.2,0.2-0.3,0.3l0,0l-1.4,0.4l-1.8,0.2
				c-0.2,0-0.4,0.1-0.7,0.2c-0.3,0.2-0.6,0.2-0.9,0.2l0,0v-0.1l-0.9-0.1c-0.2-0.2-0.4-0.3-0.5-0.3s-0.2-0.1-0.2-0.1s-0.1,0-0.2,0
				c0,0-0.1-0.1-0.2-0.2l0,0c0-0.1,0-0.2,0-0.4c0-0.2,0-0.4,0-0.6s0-0.4,0-0.6s0.1-0.3,0.1-0.3l0,0l0.1,1.3l0.1,0.2
				c0-0.3,0-0.7,0-1.3c0-0.6,0-1.2,0.1-2l0,0l0,0.1c0,0,0,0,0-0.1c0-0.1,0-0.2,0-0.3l0,0c0-0.2,0-0.3,0-0.3l0,0h0l0.1,0.3l0.2-1.7
				h-0.1v-0.3v-0.2c-0.1,0-0.3,0.1-0.4,0.1c-0.2,0-0.3,0.1-0.5,0.2l0,0l-0.6,0l-0.2,0l-0.2,0.1l-0.1-0.1c-0.2,0-0.4-0.1-0.6-0.4
				c-0.2-0.3-0.3-0.6-0.3-0.9l0,0c0-0.1,0.1-0.2,0.4-0.3c0.3-0.1,0.6-0.1,0.9-0.2s0.7-0.1,1.1-0.2c0.4-0.1,0.6-0.1,0.9-0.2l0,0
				c0.1-0.2,0.1-0.4,0.1-0.7s0.1-0.6,0.1-0.9c0-0.3,0-0.5,0-0.6s0-0.2,0-0.1l0,0c0,0,0-0.1,0.1-0.2c0-0.1,0.1-0.3,0.1-0.4
				c0.1-0.2,0.1-0.3,0.1-0.4c0-0.1,0.1-0.2,0.1-0.3l0,0c0,0,0-0.1,0-0.1l0,0c0-0.1,0-0.1,0.1-0.2c0-0.1,0.1-0.2,0.1-0.2l0,0l0.1,0
				c0.1,0,0.4,0,0.6,0.1c0.3,0.1,0.5,0.2,0.8,0.3c0.3,0.1,0.5,0.3,0.7,0.5c0.2,0.2,0.3,0.4,0.3,0.6l0,0c0,0.2-0.1,0.5-0.3,0.8
				s-0.3,0.6-0.3,1l0,0l-0.2,0.7c0.5,0,1.1,0,1.7-0.1c0.6-0.1,1-0.1,1.3-0.1l0,0c0.2,0,0.3,0,0.4,0.1c0.1,0.1,0.2,0.2,0.2,0.4l0,0
				L145.7,177.7z M139.2,181.9l0.1,0.9l-0.2,0c0,0,0-0.2,0-0.4S139.2,182,139.2,181.9L139.2,181.9z M140.6,183.7h-0.2l-0.2,0.3v0.3
				L140.6,183.7z M140.6,183.1L140.6,183.1c-0.1,0-0.1,0.1-0.1,0.2l0,0c0,0.1,0,0.2,0.1,0.2l0,0c0.1,0,0.2-0.1,0.2-0.2l0,0
				C140.8,183.2,140.7,183.1,140.6,183.1z M151.1,181.7L151.1,181.7c0.2-0.1,0.2-0.1,0.3-0.2s0.1-0.1,0.2-0.2c0-0.1,0.1-0.1,0.1-0.2
				c0.1-0.1,0.1-0.1,0.2-0.1l0,0c0.3,0,0.5-0.1,0.7-0.3c0.2-0.2,0.4-0.7,0.4-1.5l0,0v-0.6c0-0.1,0-0.2-0.1-0.3
				c-0.1-0.1-0.1-0.1-0.2-0.1l0,0c0,0-0.1,0.1-0.2,0.1s-0.3,0.1-0.4,0.2s-0.3,0.2-0.4,0.3s-0.3,0.2-0.3,0.3l0,0v0.3
				c0,0.3-0.1,0.7-0.2,1.1c-0.1,0.4-0.2,0.8-0.2,1.1l0,0H151.1z M155.5,180.6v0.2l-0.4,0.5l-0.2,0.1c-0.2,0.1-0.4,0.2-0.6,0.3
				c-0.2,0.1-0.4,0.2-0.6,0.3l0,0l-0.1,0.1h-0.2c-0.1,0-0.2,0-0.2,0.1c0,0.1-0.1,0.1-0.2,0.2l0,0c-0.2,0-0.4,0.1-0.4,0.1
				c-0.1,0-0.1,0.1-0.1,0.1l0,0c0,0,0,0.1,0,0.1l0,0c0,0,0,0-0.1,0.1c-0.1,0-0.1,0-0.2,0c-0.1,0-0.2,0-0.2,0c-0.1,0-0.1,0-0.1,0l0,0
				h-0.2c-0.1,0.1-0.2,0.1-0.5,0.1c-0.3,0-0.5,0.1-0.6,0.2l0,0l0.2,0.7c0.1,0,0.2,0.1,0.4,0.1c0.2,0,0.4,0.1,0.5,0.1
				c0.2,0,0.4,0,0.5,0c0.2,0,0.3,0,0.4,0l0,0c0.3,0,0.6,0,0.8,0c0.3,0,0.6,0,0.9,0l0,0c0.3,0,0.6,0,0.8,0.1c0.3,0.1,0.5,0.2,0.8,0.3
				l0,0v0.2c0,0.1,0,0.2,0,0.4c0,0.1,0,0.2-0.1,0.3l0,0l-0.1,0.1c0,0-0.1,0-0.2,0.1c-0.1,0-0.3,0.1-0.5,0.1c-0.2,0-0.4,0.1-0.6,0.1
				c-0.2,0-0.3,0-0.4,0l0,0c-0.4,0-0.8,0-1.2,0c-0.4,0-0.8,0-1.2,0l0,0c-0.3,0-0.6-0.1-1-0.2c-0.4-0.1-0.7-0.2-1-0.4
				c-0.3-0.2-0.6-0.4-0.8-0.7c-0.2-0.3-0.4-0.6-0.4-0.9l0,0l0.1-0.2c0,0,0-0.1,0-0.2s0-0.3,0.1-0.4l0,0v-0.3h0.2l0,0
				c0-0.1,0-0.2,0-0.2l0,0c0,0,0,0,0-0.1c0,0,0-0.1,0-0.1l0,0c0,0,0-0.1,0.1-0.1l0,0l0-0.4c0-0.1,0-0.2,0-0.3c0-0.1,0.1-0.2,0.1-0.4
				l0,0l0.1-0.1c0-0.1,0-0.2-0.1-0.2l0,0c0.1,0,0.1-0.1,0.1-0.2c0-0.1,0.1-0.2,0.1-0.2l0,0c0,0,0,0,0,0c0,0,0,0,0,0l0,0l0.1,0.1
				c0,0,0,0,0,0l0,0h0.1c0.1,0,0.1,0,0.1-0.1l0,0c0-0.1,0-0.2-0.1-0.3c-0.1-0.1-0.1-0.2-0.1-0.3l0,0c0,0,0-0.1,0-0.1l0,0
				c0,0,0-0.1,0-0.1c0,0,0,0,0-0.1l0,0l0.1,0c0.1-0.3,0.3-0.5,0.4-0.7c0.2-0.2,0.3-0.3,0.5-0.5l0,0l0.2-0.1c0.3-0.2,0.6-0.4,0.8-0.6
				c0.3-0.2,0.6-0.3,0.9-0.3l0,0c0.3,0,0.7,0,1.1,0.1c0.4,0.1,0.8,0.1,1.1,0.1l0,0c0.5,0.2,0.8,0.4,0.8,0.4s0.1,0.1,0.2,0.1l0,0
				l0,0.3l0.2,0.2l0.1,0.2l-0.2,0.3l0.2,0.2l-0.2,0.3c0,0-0.1,0.1-0.1,0.2s0,0.1,0,0.2l0,0l0,0l0,0.2l-0.1,0.3l0.2,0.1v0.2
				L155.5,180.6L155.5,180.6z M155.5,179.5L155.5,179.5L155.5,179.5c0.1,0,0.1,0,0.1,0.1l0,0c0,0.1,0,0.1-0.1,0.1l0,0
				C155.5,179.7,155.5,179.7,155.5,179.5L155.5,179.5C155.5,179.5,155.5,179.5,155.5,179.5z M155.6,179.9L155.6,179.9
				c0,0.1,0,0.1-0.1,0.1l0,0c0,0-0.1,0-0.1-0.1l0,0C155.5,179.9,155.5,179.9,155.6,179.9L155.6,179.9
				C155.6,179.9,155.6,179.9,155.6,179.9z M160.5,182.8L160.5,182.8l0,0.2c0,0.1,0,0.3,0.1,0.3l0,0l0.1,0c0,0.1,0,0.2,0,0.3
				c0,0.1-0.1,0.2-0.1,0.2l0,0l-0.2,1.3c-0.1,0-0.2,0-0.3,0l0,0h-0.2c0,0-0.1,0-0.2,0.1l0,0l0-0.2c-0.1,0-0.1,0.1-0.1,0.2l0,0v0.2
				v0.1c0,0-0.1-0.1-0.2-0.1l0,0c0,0-0.1,0,0,0c0,0,0,0,0,0l0,0c-0.1,0-0.2,0-0.4-0.1c-0.2-0.1-0.4-0.1-0.6-0.1l0,0
				c-0.1,0-0.2,0-0.3,0l0,0c0,0,0-0.1,0-0.2c0-0.1,0-0.1,0-0.2l0,0c-0.1-0.1-0.2-0.2-0.2-0.4s-0.1-0.3-0.3-0.3l0,0h-0.1
				c0.1-0.1,0.1-0.2,0.1-0.4c0-0.1,0-0.2,0-0.4l0,0c0,0,0-0.2-0.1-0.4l0,0l0-0.4v-0.2v-0.1c0,0,0.1-0.1,0.1-0.1
				c0.1,0,0.1-0.1,0.2-0.1l0,0c0,0,0-0.1-0.1-0.2c0-0.1-0.1-0.2-0.1-0.2l0,0l0.2-0.2c0,0,0-0.1,0-0.2l0,0c0-0.1,0-0.3,0-0.4
				c0-0.2,0-0.3,0-0.4l0,0c0-0.1,0-0.2,0-0.2l0,0l0.3-3.5c0-0.1,0.1-0.2,0.1-0.3s0.2,0,0.3,0l0,0c0.1,0,0.2,0,0.4,0.1
				c0.2,0.1,0.3,0.1,0.5,0.2c0.2,0.1,0.3,0.1,0.4,0.2c0.1,0.1,0.2,0.1,0.2,0.2l0,0c0,0,0.1,0.1,0.1,0.2c0.1,0.1,0.1,0.2,0.2,0.4
				c0.1,0.1,0.1,0.3,0.2,0.4c0.1,0.1,0.1,0.2,0.2,0.2l0,0l0.1-0.1c0.3-0.2,0.5-0.3,0.6-0.4c0.1-0.1,0.3-0.2,0.6-0.3l0,0
				c0-0.1,0.1-0.2,0.4-0.4s0.6-0.3,0.9-0.5c0.3-0.2,0.6-0.3,0.8-0.4c0.2-0.1,0.3-0.2,0.2-0.2l0,0c0.1,0,0.3,0,0.5,0.1
				c0.2,0.1,0.4,0.2,0.5,0.4l0,0l0.6,0.6l-0.4,0.6l-0.5,0.2l0.1,0.1c-0.1,0.1-0.3,0.2-0.5,0.2c-0.2,0-0.4,0.1-0.5,0.2l0,0
				c0,0,0,0,0,0l0,0l0,0c-0.3,0.1-0.6,0.2-0.9,0.3l0,0c-0.2,0.1-0.5,0.2-0.8,0.3c-0.3,0.1-0.5,0.2-0.6,0.4l0,0l-0.5,0.5
				c0,0-0.1,0-0.2,0.1c-0.1,0.1-0.2,0.2-0.4,0.3c-0.1,0.1-0.3,0.2-0.4,0.4c-0.1,0.1-0.2,0.2-0.2,0.4l0,0v0l0.2,0.1L160.5,182.8z
				 M163.3,177.7L163.3,177.7c-0.3,0.1-0.5,0.2-0.7,0.3l0,0l-0.3,0.2l0,0.1c0.3-0.1,0.5-0.3,0.8-0.4c0.3-0.1,0.5-0.2,0.7-0.2l0,0
				c-0.1,0-0.2,0-0.3,0S163.3,177.6,163.3,177.7z M161.7,178.3L161.7,178.3c0,0-0.1,0.1-0.3,0.2c-0.1,0.1-0.2,0.2-0.3,0.2l0,0
				l-0.2,0.2h0c0-0.1,0.1-0.1,0.2-0.2c0.1-0.1,0.2-0.1,0.3-0.2c0.1-0.1,0.2-0.1,0.3-0.1s0.1-0.1,0.1-0.1l0,0c0,0-0.1-0.1-0.2-0.1
				l0,0C161.7,178.2,161.7,178.2,161.7,178.3C161.7,178.3,161.7,178.3,161.7,178.3z M184.1,190.1L184.1,190.1c0,0-0.1-0.1-0.1-0.2
				c-0.1-0.1-0.1-0.1-0.1-0.2l0,0c0-0.1,0-0.1,0.1-0.1l0,0l0.2,0.3l0.1-0.1c0,0,0-0.1,0-0.1l0,0c0-0.1,0-0.1,0-0.2
				c0-0.1,0.1-0.1,0.1-0.2l0,0l-0.2,0c0,0,0,0,0-0.1s-0.1-0.2-0.2-0.4l0,0l0.2,0.1c0,0,0.1-0.1,0.1-0.2l0,0c0-0.1-0.1-0.2-0.2-0.3
				l0,0c-0.1,0.1-0.1,0.1-0.1,0.2l0,0c0,0.1,0,0.1,0,0.2l0,0h-0.1c0,0-0.1,0-0.2-0.1l0,0c0,0,0,0.1,0,0.2c0,0.1,0,0.1,0,0.2l0,0
				h-0.1c0,0-0.1-0.1-0.1-0.2c0-0.1,0-0.2-0.1-0.3l0,0l0,0c0,0,0.1-0.1,0-0.2c0-0.1,0.1-0.3,0.2-0.4l0,0c0,0.1,0,0.2,0,0.2
				s0,0.1,0,0.1l0,0c0,0,0-0.1,0-0.2l0,0c0-0.1,0-0.3-0.1-0.4s-0.1-0.2-0.1-0.3l0,0c0,0,0,0,0-0.1c0,0,0,0,0-0.1l0,0l-0.2-0.1
				c0-0.1-0.1-0.2-0.1-0.4s0-0.3,0-0.4l0,0c0,0.1,0,0.1-0.1,0.1c-0.1,0-0.1,0,0,0l0,0c-0.1,0-0.1-0.1-0.2-0.1l0,0c0,0-0.1,0-0.1,0.1
				l0,0c0-0.1-0.1-0.2-0.1-0.4s-0.1-0.3-0.2-0.5l0,0c-0.1,0.1-0.1,0.1-0.2,0.1c0,0,0,0,0,0.1l0,0c0,0,0,0,0,0.1c0,0,0,0.1,0,0.1l0,0
				c0,0,0,0,0,0c0,0,0,0,0,0l0,0c-0.1,0-0.1,0-0.1-0.1l0,0l0.1-0.8h0.1c0,0-0.1-0.1-0.1-0.2l0,0c-0.1,0.1-0.2,0.1-0.2,0.2l0,0
				c0,0,0,0,0,0.1l0,0l-0.2,0.1c0,0-0.1-0.2-0.2-0.4s-0.2-0.4-0.2-0.4l0,0l-0.1-0.3c0-0.1-0.1-0.3-0.2-0.4s-0.1-0.3-0.2-0.5l0,0
				v-0.1l-0.1,0c0-0.1,0-0.2-0.1-0.3c0-0.1,0-0.2-0.1-0.3l0,0l-0.1-0.2l-0.2-0.1l-0.9-2.4c-0.1-0.1-0.1-0.2-0.1-0.2l0,0
				c0,0,0-0.1,0-0.1c0,0,0,0,0-0.1l0,0c0,0,0-0.1-0.1-0.2l0,0l-0.4,0c0,0-0.1,0-0.2,0l0,0c0,0,0,0,0,0l0,0h0c0,0,0,0-0.1,0
				c0,0,0,0-0.1,0l0,0h-0.5c-0.2,0-0.4-0.1-0.5-0.2s-0.2-0.1-0.3-0.2l0,0c-0.1,0.5-0.2,0.8-0.2,0.8l0,0l0.1,0.3l-0.1,0.1
				c0,0,0,0.1,0,0.1c0,0,0,0,0,0.1l0,0l0.1,0.1h0.1l-0.1,0.2v0.2c0,0.3,0,0.5,0,0.6c0,0.1,0,0.2-0.1,0.3s-0.1,0.1-0.1,0.2
				c0,0,0,0.1,0,0.2l0,0l0.1,0c0,0,0,0.1,0,0.1l0,0c0,0,0,0,0,0l0,0c0,0-0.1,0-0.1,0l0,0c0,0,0,0,0-0.1l0,0c0,0,0,0.1,0,0.2l0,0
				l0.1,0.1l-0.1,0.2v1v0.1c0,0,0,0.1,0,0.3c0,0.2,0,0.2,0,0.3l0,0l-0.1,0.1l0.1,0.2v0.4l0.1,0.1v0.2l0,0.1l-0.2,0.2l-0.7,0.2
				l-0.8,0.1l-0.7-0.1c-0.3-0.1-0.5-0.2-0.6-0.4s-0.2-0.4-0.2-0.6l0,0c0-0.1,0-0.2,0-0.3c0-0.2,0-0.3,0-0.5c0-0.2,0-0.3,0.1-0.5
				s0.1-0.2,0.1-0.3l0,0l0.1,1.4l0.2,0.2c0-0.3,0-0.7,0-1.3c0-0.5,0.1-1.2,0.3-2l0,0l0,0.1c-0.1,0-0.1-0.1-0.1-0.4l0,0
				c0-0.3,0-0.4,0.1-0.4l0,0c0,0.1,0.1,0.2,0.1,0.3l0,0l0.4-1.4H175c0-0.1,0-0.2,0.1-0.3s0.1-0.1,0.1-0.1l0,0h-0.1V179
				c0.2-1.2,0.4-2.3,0.7-3.4c0.3-1.1,0.7-2.2,1-3.1l0,0c0.1-0.1,0.1-0.3,0.2-0.6s0.1-0.4,0.2-0.4l0,0l0.2-0.1h0.4c0.2,0,0.3,0,0.5,0
				s0.4,0,0.5,0l0,0h0.1c0.1,0.1,0.2,0.2,0.3,0.4c0.1,0.1,0.1,0.3,0.2,0.5l0,0c0,0,0,0,0,0.1s0,0.2,0,0.3c0,0.1,0,0.2,0,0.3
				c0,0.1,0,0.1,0,0.2l0,0l1.1-0.7c0,0,0.2-0.1,0.4-0.2c0.2-0.1,0.5-0.1,0.8-0.2s0.6-0.1,0.9-0.2c0.3,0,0.5-0.1,0.6-0.1l0,0l0.2,0.2
				h0.1l-0.1-0.1h0.2c0,0,0.1,0,0.2,0.1c0.1,0.1,0.2,0.1,0.2,0.1l0,0c0.2,0.1,0.4,0.1,0.6,0.1c0.2,0,0.4,0.1,0.6,0.2
				c0.2,0.1,0.3,0.2,0.4,0.4c0.1,0.2,0.2,0.5,0.2,0.9l0,0l0.2-0.1l0.1,0.1l-0.1,0.2l0.1,0.2l-0.2,0.3c0,0.1,0,0.1-0.1,0.3
				s-0.1,0.2-0.1,0.2l0,0l0.1,0.1c0,0-0.1,0.2-0.2,0.4l0,0l-0.1,0.4l0.1,0.1v0.2c0,0.1,0,0.1,0,0.2c0,0.1,0,0.1,0,0.2l0,0
				c0,0.1-0.1,0.2-0.2,0.3l0,0v0.1c0,0.2-0.1,0.4-0.3,0.7c-0.2,0.3-0.3,0.5-0.3,0.6l0,0v0.2l-0.2,0.2c0,0-0.1,0.1-0.3,0.1
				c-0.1,0-0.2,0.1-0.3,0.1l0,0l-0.3,0.1c0,0-0.1,0-0.2,0c-0.1,0-0.2,0.1-0.3,0.1c-0.1,0-0.2,0.1-0.4,0.1c-0.1,0-0.2,0-0.2,0l0,0
				c0,0.2,0.1,0.4,0.3,0.5c0.2,0.1,0.3,0.3,0.3,0.5l0,0c0,0.2,0.1,0.4,0.2,0.6c0.1,0.2,0.2,0.4,0.3,0.7c0.1,0.2,0.2,0.4,0.3,0.6
				c0.1,0.2,0.2,0.3,0.2,0.3l0,0v0.1l-0.1,0l-0.2-0.1l0.7,1.3l0.2,0.6l0.2,0.2l0.1,0.1l-0.1,0.1c0,0.1,0.1,0.2,0.2,0.3
				c0.1,0.2,0.2,0.2,0.2,0.3l0,0l0.1,0.1l0.1,0.3c0,0.1,0,0.1,0,0.2l0,0l0,0.3l0.2,0.5c0,0.2,0.1,0.3,0.1,0.3l0,0l0.2,0.7l-0.2,0.1
				l-0.1,0.2l0.2,0.2l0.1-0.1l0.2,0.1l0.1,0.3l0.1-0.1l0.3,0.9v0.1c0,0.1,0,0.1,0,0.2s0,0.2,0,0.3l0,0c0,0,0,0.1-0.1,0.1
				c-0.1,0-0.1,0.1-0.1,0.3l0,0c-0.1-0.1-0.2-0.1-0.3-0.2c0,0-0.1-0.1-0.1-0.1l0,0c-0.1,0-0.2,0-0.3,0.1c-0.1,0.1-0.2,0.2-0.2,0.2
				l0,0c0,0.1,0,0.2,0,0.2l0,0l-0.2,0l0-0.2c0,0-0.1,0-0.1,0c0,0,0,0,0,0l0,0c0,0,0,0,0,0c0,0,0,0,0,0l0,0v0.2c0,0,0,0,0,0l0,0h0
				l-0.1-0.2c0,0.1-0.1,0.1-0.2,0.2c-0.1,0.1-0.2,0.1-0.3,0.1l0,0l-0.1-0.1c-0.1,0-0.2,0.1-0.2,0.2l0,0
				C184.4,190.3,184.3,190.2,184.1,190.1z M178.4,176.9L178.4,176.9c0,0-0.1,0.2-0.2,0.4c-0.1,0.2-0.1,0.4-0.2,0.7l0,0
				c0.3-0.1,0.7-0.2,1-0.2s0.6,0,0.9-0.1l0,0c0.1,0,0.3-0.1,0.6-0.2s0.5-0.2,0.6-0.2l0,0c0.1-0.1,0.3-0.1,0.5-0.2
				c0.2,0,0.3-0.1,0.5-0.1c0.2-0.1,0.3-0.1,0.4-0.3c0.1-0.1,0.2-0.4,0.2-0.7l0,0c0-0.3,0.1-0.5,0.1-0.7c0-0.2,0.1-0.3,0.1-0.5
				c0-0.2,0.1-0.3,0.1-0.5c0-0.2,0-0.4,0-0.7l0,0c-0.2,0-0.3,0-0.4,0.1c-0.1,0.1-0.3,0.1-0.5,0.1l0,0c-0.1,0-0.2,0-0.3,0
				c-0.1,0-0.2,0-0.3,0l0,0l0,0l-0.2,0.1c-0.1,0.1-0.2,0.2-0.4,0.2s-0.4,0.1-0.6,0.2c-0.2,0.1-0.4,0.1-0.5,0.2s-0.2,0.1-0.2,0.2l0,0
				l-0.4,0.1l-0.2,0h-0.2c0,0,0,0.1,0,0.2c0,0.1,0,0.1,0,0.2l0,0l0.1,0.2c0,0,0-0.1,0.1-0.1c0.1,0,0.1,0,0.1,0l0,0
				c0,0.3-0.1,0.6-0.2,0.9C178.6,176.3,178.5,176.6,178.4,176.9z M184.6,187.9l0,0.2c0,0.1,0.1,0.2,0.2,0.2l0,0c0,0,0,0,0-0.1l0,0
				c0-0.1,0-0.3,0-0.5s-0.1-0.4-0.1-0.5s-0.1-0.3-0.2-0.5s-0.2-0.2-0.4-0.2l0,0v0.2c0.1,0.1,0.2,0.1,0.2,0.1c0,0,0.1,0,0.3,0.1l0,0
				l-0.2,0.2v0c0,0,0,0.1,0.1,0.2c0.1,0.1,0.1,0.2,0.1,0.3l0,0c0,0.1,0,0.2-0.1,0.3l0,0C184.4,187.8,184.5,187.8,184.6,187.9
				L184.6,187.9z M182.6,186.3L182.6,186.3c0.1,0.1,0.2,0.2,0.2,0.3c0,0.1,0,0.2,0,0.1l0,0c0,0.1,0,0.2,0,0.2l0,0
				c-0.1-0.2-0.1-0.3-0.2-0.4C182.5,186.5,182.5,186.4,182.6,186.3L182.6,186.3C182.5,186.3,182.5,186.3,182.6,186.3z M174.2,181.9
				v0.9h-0.1c0,0,0-0.1,0-0.2c0-0.1,0-0.2,0-0.3c0-0.1,0-0.2,0-0.3S174.2,181.9,174.2,181.9L174.2,181.9z M184.4,188.8l-0.1,0.1
				c0.1,0.1,0.1,0.1,0.2,0.1l0,0L184.4,188.8z M183.3,186.8l-0.1-0.1C183.3,186.7,183.4,186.7,183.3,186.8L183.3,186.8L183.3,186.8z
				 M184.5,188.4l0.1,0c0,0-0.1-0.1-0.1-0.2l0,0L184.5,188.4z M187.9,182l0.1-0.2c0,0,0-0.1,0-0.1c0,0,0-0.1,0.1-0.1l0,0l0.1-0.1
				c0-0.3,0.1-0.6,0.3-1.1s0.4-0.7,0.7-0.9l0,0l0.2-0.1c0,0,0.1-0.1,0.1-0.1c0-0.1,0-0.1,0-0.2l0,0l0.1-0.2c0.2-0.2,0.3-0.5,0.5-0.7
				c0.2-0.2,0.4-0.4,0.6-0.6c0.2-0.2,0.4-0.3,0.5-0.4s0.3-0.2,0.4-0.2l0,0c0,0,0.1,0,0.1,0c0,0,0.1,0.1,0.3,0.1l0,0l0.3,0.4
				c0.1,0,0.2,0.1,0.2,0.2l0,0l0.1,0.2v0.5l0.1,0.1c0,0,0.1,0.1,0.1,0.1c0,0,0.1,0.1,0.1,0.1l0,0l0.4,0.2c0,0.1,0.1,0.2,0.2,0.3
				s0.2,0.2,0.3,0.4l0,0l0.4,0.5c0,0.1,0.1,0.2,0.1,0.3s0.1,0.3,0.1,0.5s0.1,0.4,0.1,0.5c0,0.2,0,0.3,0,0.3l0,0v0.2l-0.3,0.6l0,0.2
				l-0.3,0.3l-0.5,0.4c-0.1,0.1-0.2,0.1-0.4,0.1s-0.3,0.1-0.4,0.2l0,0l-0.2,0.1c-0.1,0.1-0.2,0.1-0.3,0.1l0,0c0,0,0,0,0,0
				c0,0,0,0,0,0l0,0l-0.4,0.1c-0.1,0.1-0.3,0.1-0.5,0.1l0,0c-0.1,0-0.3,0-0.3,0l0,0l-0.7-0.2l-0.7-0.2c-0.3-0.1-0.5-0.2-0.7-0.2
				s-0.3-0.3-0.5-0.6l0,0c0-0.1-0.1-0.2-0.1-0.3c0-0.1-0.1-0.2-0.1-0.2l0,0L187.9,182z M190.4,182.1l0,0.7l0.2,0
				c0.2,0,0.4-0.1,0.6-0.1c0.2,0,0.4-0.1,0.5-0.1l0,0l0.3-0.2l0.2-0.3l0.1-0.3l-0.4-1.4l-0.5-0.2l-0.1,0.1c0,0-0.1,0.1-0.2,0.2
				s-0.2,0.3-0.3,0.5c-0.1,0.2-0.2,0.4-0.3,0.6C190.5,181.8,190.5,181.9,190.4,182.1L190.4,182.1z M189.5,180.3l-0.2-0.1
				c-0.1,0.1-0.2,0.3-0.4,0.5c-0.1,0.3-0.2,0.5-0.2,0.7l0,0c0,0.1,0,0.1,0,0.2l0,0l0.1-0.2l0.5-0.9
				C189.4,180.4,189.4,180.3,189.5,180.3L189.5,180.3z M199.7,185.8L199.7,185.8c-0.1,0-0.1,0-0.3,0c-0.1,0-0.2,0-0.4,0
				c-0.1,0-0.3,0-0.4-0.1c-0.1,0-0.2-0.1-0.3-0.1l0,0l-0.7-0.3c0,0-0.1,0-0.2-0.1c-0.1-0.1-0.3-0.1-0.6-0.2l0,0l-0.4-0.5
				c0-0.2,0.1-0.4,0.3-0.5c0.2-0.2,0.4-0.3,0.5-0.3l0,0c0,0,0.1,0,0.2,0c0.1,0,0.2,0,0.3,0.1s0.2,0.1,0.3,0.1c0.1,0,0.1,0,0.2,0l0,0
				c0.2,0,0.4,0,0.7,0c0.3,0,0.6,0,0.9-0.1s0.5-0.1,0.8-0.1c0.2-0.1,0.3-0.1,0.3-0.2l0,0l0.2-0.8c0-0.2-0.1-0.4-0.2-0.5
				c-0.1-0.1-0.3-0.2-0.5-0.2l0,0c-0.1,0-0.1,0-0.2,0.1l0,0l-0.8-0.2h-0.3c-0.2,0-0.4,0-0.8-0.1c-0.3-0.1-0.7-0.2-1-0.3
				c-0.3-0.1-0.6-0.3-0.9-0.5c-0.3-0.2-0.4-0.5-0.4-0.8l0,0c0-0.2,0-0.3,0.1-0.4c0.1-0.1,0.1-0.2,0.2-0.4l0,0l-0.1-0.1
				c0-0.1,0-0.2,0.1-0.3s0.1-0.2,0.2-0.4c0.1-0.1,0.1-0.3,0.2-0.4c0.1-0.1,0.1-0.2,0.1-0.3l0,0l1.1-1.2c0,0,0.1-0.1,0.1,0
				c0.1,0,0.1,0,0.1,0l0,0l0.7-0.5h0.2c0,0,0.1,0,0.2-0.1l0,0l0.8-0.2h0.3l0.1,0.1c0.1,0,0.2,0.1,0.3,0.1s0.2,0,0.4,0l0,0h0.5
				c0,0,0.1,0.1,0.2,0.2c0.1,0.1,0.1,0.2,0.2,0.2l0,0c0.2,0.1,0.3,0.2,0.5,0.3c0.1,0.1,0.3,0.2,0.4,0.3c0.1,0.1,0.2,0.2,0.3,0.3
				c0.1,0.1,0.1,0.3,0.1,0.6l0,0c0,0.1-0.1,0.1-0.2,0.2c-0.1,0-0.2,0.1-0.2,0.1l0,0h-0.5c0,0-0.1,0-0.1,0c-0.1,0-0.2,0-0.2,0.1
				c-0.1,0-0.2,0-0.3,0.1c-0.1,0-0.1,0-0.2,0l0,0h-1.1c0,0.1-0.2,0.2-0.4,0.2c-0.2,0-0.3,0.1-0.4,0.1l0,0c-0.3,0.2-0.5,0.3-0.5,0.5
				c-0.1,0.2-0.1,0.4-0.2,0.7l0,0c0.3,0.2,0.7,0.3,1.1,0.4c0.4,0.1,0.7,0.1,0.9,0.1l0,0l0.8,0.2c0.5,0.2,0.9,0.4,1.1,0.7
				c0.2,0.3,0.4,0.6,0.4,0.9l0,0l0.1,0.4v0.2c0,0.1,0,0.2,0,0.2c0,0.1,0,0.3-0.1,0.7l0,0l-0.2,0.5l-0.1,0.1
				c-0.2,0.3-0.4,0.5-0.6,0.7c-0.2,0.2-0.4,0.3-0.8,0.4l0,0c0,0,0,0-0.1,0.1c0,0-0.1,0.1-0.2,0.1c-0.1,0-0.3,0.1-0.5,0.1
				C200.5,185.8,200.1,185.8,199.7,185.8z M196.6,179.9L196.6,179.9c0,0.2,0.1,0.3,0.2,0.4c0.2,0.1,0.3,0.1,0.5,0.1l0,0l-0.1-0.3
				V180c0-0.1,0-0.2,0-0.2c0,0,0-0.1,0-0.3l0,0c-0.1,0-0.1,0-0.1-0.1l0,0c0,0,0-0.1,0.1-0.2c0-0.1,0.1-0.2,0.1-0.2l0,0v0.2
				c0.1,0,0.1-0.1,0.1-0.2s0-0.2,0-0.2l0,0c0-0.1,0-0.2-0.1-0.2l0,0l-0.1,0.2v-0.4h-0.1c0,0.1-0.1,0.1-0.1,0.2s-0.1,0.2-0.2,0.2l0,0
				c0,0.1-0.1,0.3-0.1,0.4s0,0.3-0.1,0.4l0,0C196.7,179.8,196.7,179.8,196.6,179.9C196.6,179.8,196.6,179.8,196.6,179.9z
				 M198.9,177.1L198.9,177.1c-0.4,0-0.7,0.1-0.9,0.4s-0.4,0.6-0.5,0.9l0,0v0c0.2,0,0.3-0.1,0.3-0.3c0.1-0.2,0.1-0.4,0.2-0.5l0,0
				c0,0,0.1-0.1,0.2-0.1s0.2-0.1,0.3-0.2s0.2-0.1,0.3-0.2C198.8,177.3,198.8,177.2,198.9,177.1L198.9,177.1z M208.7,185.8
				L208.7,185.8c-0.1,0-0.1,0-0.3,0c-0.1,0-0.2,0-0.4,0c-0.1,0-0.3,0-0.4-0.1c-0.1,0-0.2-0.1-0.3-0.1l0,0l-0.7-0.3
				c0,0-0.1,0-0.2-0.1c-0.1-0.1-0.3-0.1-0.6-0.2l0,0l-0.4-0.5c0-0.2,0.1-0.4,0.3-0.5c0.2-0.2,0.4-0.3,0.5-0.3l0,0c0,0,0.1,0,0.2,0
				c0.1,0,0.2,0,0.3,0.1s0.2,0.1,0.3,0.1c0.1,0,0.1,0,0.2,0l0,0c0.2,0,0.4,0,0.7,0c0.3,0,0.6,0,0.9-0.1s0.5-0.1,0.8-0.1
				c0.2-0.1,0.3-0.1,0.3-0.2l0,0l0.2-0.8c0-0.2-0.1-0.4-0.2-0.5c-0.1-0.1-0.3-0.2-0.5-0.2l0,0c-0.1,0-0.1,0-0.2,0.1l0,0l-0.8-0.2
				h-0.3c-0.2,0-0.4,0-0.8-0.1c-0.3-0.1-0.7-0.2-1-0.3c-0.3-0.1-0.6-0.3-0.9-0.5c-0.3-0.2-0.4-0.5-0.4-0.8l0,0c0-0.2,0-0.3,0.1-0.4
				s0.1-0.2,0.2-0.4l0,0l-0.1-0.1c0-0.1,0-0.2,0.1-0.3c0.1-0.1,0.1-0.2,0.2-0.4c0.1-0.1,0.1-0.3,0.2-0.4c0.1-0.1,0.1-0.2,0.1-0.3
				l0,0l1.1-1.2c0,0,0.1-0.1,0.1,0c0.1,0,0.1,0,0.1,0l0,0l0.7-0.5h0.2c0,0,0.1,0,0.2-0.1l0,0l0.8-0.2h0.3l0.1,0.1
				c0.1,0,0.2,0.1,0.3,0.1s0.2,0,0.4,0l0,0h0.5c0,0,0.1,0.1,0.2,0.2s0.1,0.2,0.2,0.2l0,0c0.2,0.1,0.3,0.2,0.5,0.3
				c0.1,0.1,0.3,0.2,0.4,0.3s0.2,0.2,0.3,0.3c0.1,0.1,0.1,0.3,0.1,0.6l0,0c0,0.1-0.1,0.1-0.2,0.2c-0.1,0-0.2,0.1-0.2,0.1l0,0h-0.5
				c0,0-0.1,0-0.1,0c-0.1,0-0.2,0-0.2,0.1c-0.1,0-0.2,0-0.3,0.1c-0.1,0-0.1,0-0.2,0l0,0h-1.1c0,0.1-0.2,0.2-0.4,0.2
				c-0.2,0-0.3,0.1-0.4,0.1l0,0c-0.3,0.2-0.5,0.3-0.5,0.5c-0.1,0.2-0.1,0.4-0.2,0.7l0,0c0.3,0.2,0.7,0.3,1.1,0.4s0.7,0.1,0.9,0.1
				l0,0l0.8,0.2c0.5,0.2,0.9,0.4,1.1,0.7c0.2,0.3,0.4,0.6,0.4,0.9l0,0l0.1,0.4v0.2c0,0.1,0,0.2,0,0.2c0,0.1,0,0.3-0.1,0.7l0,0
				l-0.2,0.5l-0.1,0.1c-0.2,0.3-0.4,0.5-0.6,0.7c-0.2,0.2-0.4,0.3-0.8,0.4l0,0c0,0,0,0-0.1,0.1c0,0-0.1,0.1-0.2,0.1
				c-0.1,0-0.3,0.1-0.5,0.1C209.4,185.8,209.1,185.8,208.7,185.8z M205.5,179.9L205.5,179.9c0,0.2,0.1,0.3,0.2,0.4s0.3,0.1,0.5,0.1
				l0,0l-0.1-0.3V180c0-0.1,0-0.2,0-0.2c0,0,0-0.1,0-0.3l0,0c-0.1,0-0.1,0-0.1-0.1l0,0c0,0,0-0.1,0.1-0.2c0-0.1,0.1-0.2,0.1-0.2l0,0
				v0.2c0.1,0,0.1-0.1,0.1-0.2c0-0.1,0-0.2,0-0.2l0,0c0-0.1,0-0.2-0.1-0.2l0,0l-0.1,0.2v-0.4h-0.1c0,0.1-0.1,0.1-0.1,0.2
				c-0.1,0.1-0.1,0.2-0.2,0.2l0,0c0,0.1-0.1,0.3-0.1,0.4c0,0.1,0,0.3-0.1,0.4l0,0C205.7,179.8,205.7,179.8,205.5,179.9
				C205.6,179.8,205.5,179.8,205.5,179.9z M207.9,177.1L207.9,177.1c-0.4,0-0.7,0.1-0.9,0.4c-0.2,0.3-0.4,0.6-0.5,0.9l0,0v0
				c0.2,0,0.3-0.1,0.3-0.3c0.1-0.2,0.1-0.4,0.2-0.5l0,0c0,0,0.1-0.1,0.2-0.1s0.2-0.1,0.3-0.2s0.2-0.1,0.3-0.2
				C207.8,177.3,207.8,177.2,207.9,177.1L207.9,177.1z M220.4,183.6L220.4,183.6c0.2-0.1,0.4-0.1,0.7-0.1l0,0c0.6,0,1.1,0,1.6,0.1
				s0.9,0.1,1.3,0.2l0,0l0.2-0.2l0.8-0.1c0,0,0.1,0,0.1,0l0,0c0.1,0,0.1,0,0.2-0.1c0-0.1,0.1-0.1,0.2-0.1l0,0c0.2,0,0.4,0,0.7-0.1
				c0.3-0.1,0.4-0.2,0.5-0.3l0,0c0.1-0.5,0.2-0.9,0.3-1.4c0.1-0.5,0.1-0.9,0.1-1.2l0,0l-0.2-0.4c0-0.1-0.1-0.2-0.2-0.2
				c-0.2-0.1-0.2-0.1-0.3-0.1l0,0l-0.3-0.1c-0.2,0-0.3,0-0.5-0.1s-0.3-0.1-0.4-0.2s-0.3-0.1-0.6-0.2c-0.2-0.1-0.5-0.1-0.9-0.1l0,0
				h-0.3c-0.1,0-0.1,0-0.1-0.1l0,0c-0.2-0.2-0.3-0.3-0.5-0.3c-0.2,0-0.4-0.2-0.5-0.3l0,0c0,0-0.1-0.1-0.2-0.3
				c-0.1-0.2-0.1-0.3-0.2-0.5c-0.1-0.2-0.1-0.4-0.2-0.6c0-0.2-0.1-0.3-0.1-0.4l0,0c0.1,0,0.2-0.1,0.2-0.2l0,0c0,0,0-0.1,0-0.1
				c0,0,0-0.1,0-0.1l0,0c0,0,0-0.1,0.1-0.2l0,0l0.1-0.1c0.1-0.1,0.1-0.2,0.1-0.2c0-0.1,0-0.1,0.1-0.2l0,0v0.3l0.1,0l0.7-2.2l0.9-1
				l0.5-0.3l0.6,0.2c0.1,0,0.3,0,0.5-0.1c0.2-0.1,0.4-0.1,0.5-0.1l0,0c0.3,0,0.6,0.1,1,0.2c0.4,0.1,0.8,0.2,1.1,0.4
				c0.4,0.2,0.7,0.3,1,0.5c0.3,0.2,0.5,0.3,0.6,0.4l0,0c0,0.1-0.1,0.2-0.1,0.2c0,0-0.1,0-0.1,0.1l0,0c0,0.1,0,0.1,0,0.1
				c0,0,0,0.1,0,0.1l0,0c0,0.1-0.1,0.1-0.2,0.2s-0.2,0.1-0.3,0.1l0,0l-1.8-0.2h-0.1c-0.1,0-0.3,0-0.5,0c-0.2,0-0.4,0-0.5,0l0,0
				c-0.3,0-0.6,0.1-0.8,0.2c-0.2,0.2-0.5,0.4-0.6,0.7c-0.2,0.3-0.3,0.6-0.4,0.9c-0.1,0.3-0.1,0.7-0.1,1.1l0,0c0,0.1,0,0.1,0.1,0.2
				s0.2,0.1,0.3,0.1s0.2,0.1,0.3,0.1c0.1,0,0.2,0,0.2,0l0,0l0.1,0c0.1,0.1,0.2,0.2,0.3,0.2s0.1,0.1,0.2,0.1l0,0h0.1l0.4,0l0.5,0.2
				c0,0,0.1,0,0.2,0l0,0h0.3c0.3,0.1,0.6,0.3,0.9,0.4c0.3,0.1,0.6,0.3,0.8,0.6c0.2,0.3,0.4,0.6,0.6,1c0.1,0.4,0.2,0.9,0.2,1.5l0,0
				c0,0.2,0,0.4,0,0.5c0,0.2-0.1,0.4-0.1,0.6l0,0l0,0.1c0,0-0.1,0.1-0.2,0.3c-0.1,0.1-0.2,0.2-0.2,0.2l0,0l-0.1,0.3l-0.2,0.1
				l-1.2,1.6c-0.3,0-0.5,0.1-0.7,0.2c-0.2,0.1-0.5,0.1-0.7,0.1l0,0c0,0-0.1,0-0.2-0.1l0,0c-0.2,0-0.3,0.1-0.5,0.1
				c-0.1,0-0.3,0-0.4,0l0,0c-0.2,0-0.6,0-1.1-0.1c-0.5,0-1-0.1-1.6-0.2c-0.6-0.1-1.1-0.1-1.6-0.2s-0.9-0.1-1.1-0.2l0,0
				c0-0.1,0-0.1,0.1-0.1c0.1,0,0.1-0.1,0.1-0.1l0,0c0,0,0,0,0,0l0,0h0c0,0-0.1,0-0.1-0.1l0,0c0,0,0.1,0,0.2,0c0.1,0,0.1-0.1,0.1-0.1
				l0,0l-0.1-0.2l0.1-0.1c0,0,0-0.1,0.1-0.1c0,0,0,0,0-0.1l0,0c0-0.1,0-0.1-0.1-0.1C220.4,183.8,220.4,183.7,220.4,183.6z
				 M222.5,174.5L222.5,174.5c0,0,0,0.2-0.1,0.4s-0.1,0.3-0.1,0.4l0,0c-0.1,0-0.1,0-0.1-0.1l0,0c0,0,0-0.1,0.1-0.3
				C222.4,174.7,222.4,174.6,222.5,174.5z M222.7,173.7L222.7,173.7C222.7,173.8,222.7,173.8,222.7,173.7L222.7,173.7l0.1,0
				l-0.3,0.5c0,0-0.1,0-0.1-0.1l0,0c0,0,0-0.1,0.1-0.2C222.6,173.8,222.7,173.8,222.7,173.7z M240.9,177.7L240.9,177.7l0,0.2
				L240.9,177.7l-0.8,0.3c0,0-0.1,0-0.1,0l0,0c0,0-0.1,0-0.1-0.1l0,0l-0.2,0c-0.2,0-0.4,0-0.6,0.1c-0.3,0-0.5,0-0.7,0.1
				c-0.2,0-0.5,0.1-0.6,0.1c-0.2,0.1-0.3,0.1-0.3,0.2l0,0v0l0.1,0.1c0,0-0.1,0.1-0.1,0.1c0,0,0,0,0,0.1l0,0c0,0,0,0.1,0.1,0.2l0,0
				c0,0.1,0,0.2-0.1,0.2c-0.1,0-0.1,0.1-0.1,0.2l0,0c0,0.1,0.1,0.1,0.2,0.1l0,0c-0.1,0.1-0.2,0.2-0.2,0.4l0,0c0,0.2,0,0.3,0.1,0.3
				l0,0l0.1,0.3c-0.1,0.1-0.2,0.3-0.2,0.4l0,0c0,0.1,0,0.2,0,0.2l0,0c0,0.2,0,0.3,0,0.3s0,0.1,0,0.1c0,0,0,0,0,0c0,0,0,0,0,0.1l0,0
				l0,0c0,0.2,0,0.4-0.1,0.6c-0.1,0.2-0.1,0.4-0.2,0.4l0,0h-0.1v0.1h0.2c0,0-0.1,0.1-0.1,0.1c0,0-0.1,0.1-0.1,0.1l0,0c0,0,0,0,0,0.1
				l0,0h0.2l-0.2,1l0.1,0.1c0.1,0,0.3,0.1,0.5,0.1l0,0c0.2,0,0.3-0.1,0.5-0.1c0.1-0.1,0.3-0.1,0.5-0.1l0,0h0.1c0.1,0,0.2,0,0.3,0
				c0.1,0,0.2,0,0.3,0l0,0h1.4c0,0,0.1,0,0.2,0s0.2,0.1,0.3,0.1c0.1,0,0.2,0.1,0.2,0.1c0.1,0,0.1,0.1,0.1,0.1l0,0
				c0,0.1-0.1,0.2-0.2,0.4c-0.1,0.1-0.2,0.2-0.3,0.3l0,0l-1.4,0.4l-1.8,0.2c-0.2,0-0.4,0.1-0.7,0.2c-0.3,0.2-0.6,0.2-0.9,0.2l0,0
				v-0.1l-0.9-0.1c-0.2-0.2-0.4-0.3-0.5-0.3c-0.1,0-0.2-0.1-0.2-0.1s-0.1,0-0.2,0s-0.1-0.1-0.2-0.2l0,0c0-0.1,0-0.2,0-0.4
				c0-0.2,0-0.4,0-0.6s0-0.4,0-0.6c0-0.2,0.1-0.3,0.1-0.3l0,0l0.1,1.3l0.1,0.2c0-0.3,0-0.7,0-1.3c0-0.6,0-1.2,0.1-2l0,0l0,0.1
				c0,0,0,0,0-0.1c0-0.1,0-0.2,0-0.3l0,0c0-0.2,0-0.3,0-0.3l0,0h0l0.1,0.3l0.2-1.7H235v-0.3v-0.2c-0.1,0-0.3,0.1-0.4,0.1
				c-0.2,0-0.3,0.1-0.5,0.2l0,0l-0.6,0l-0.2,0l-0.2,0.1l-0.1-0.1c-0.2,0-0.4-0.1-0.6-0.4c-0.2-0.3-0.3-0.6-0.3-0.9l0,0
				c0-0.1,0.1-0.2,0.4-0.3c0.3-0.1,0.6-0.1,0.9-0.2c0.3-0.1,0.7-0.1,1.1-0.2c0.4-0.1,0.6-0.1,0.9-0.2l0,0c0.1-0.2,0.1-0.4,0.1-0.7
				c0-0.3,0.1-0.6,0.1-0.9c0-0.3,0-0.5,0-0.6c0-0.2,0-0.2,0-0.1l0,0c0,0,0-0.1,0.1-0.2c0-0.1,0.1-0.3,0.1-0.4
				c0.1-0.2,0.1-0.3,0.1-0.4c0-0.1,0.1-0.2,0.1-0.3l0,0c0,0,0-0.1,0-0.1l0,0c0-0.1,0-0.1,0.1-0.2c0-0.1,0.1-0.2,0.1-0.2l0,0l0.1,0
				c0.1,0,0.4,0,0.6,0.1c0.3,0.1,0.5,0.2,0.8,0.3c0.3,0.1,0.5,0.3,0.7,0.5c0.2,0.2,0.3,0.4,0.3,0.6l0,0c0,0.2-0.1,0.5-0.3,0.8
				s-0.3,0.6-0.3,1l0,0l-0.2,0.7c0.5,0,1.1,0,1.7-0.1c0.6-0.1,1-0.1,1.3-0.1l0,0c0.2,0,0.3,0,0.4,0.1c0.1,0.1,0.2,0.2,0.2,0.4l0,0
				L240.9,177.7z M234.4,181.9l0.1,0.9l-0.2,0c0,0,0-0.2,0-0.4S234.3,182,234.4,181.9L234.4,181.9z M235.8,183.7h-0.2l-0.2,0.3v0.3
				L235.8,183.7z M235.8,183.1L235.8,183.1c-0.1,0-0.1,0.1-0.1,0.2l0,0c0,0.1,0,0.2,0.1,0.2l0,0c0.1,0,0.2-0.1,0.2-0.2l0,0
				C235.9,183.2,235.9,183.1,235.8,183.1z M246.3,181.7L246.3,181.7c0.2-0.1,0.2-0.1,0.3-0.2c0.1-0.1,0.1-0.1,0.2-0.2
				c0-0.1,0.1-0.1,0.1-0.2s0.1-0.1,0.2-0.1l0,0c0.3,0,0.5-0.1,0.7-0.3s0.4-0.7,0.4-1.5l0,0v-0.6c0-0.1,0-0.2-0.1-0.3
				c-0.1-0.1-0.1-0.1-0.2-0.1l0,0c0,0-0.1,0.1-0.2,0.1c-0.1,0.1-0.3,0.1-0.4,0.2s-0.3,0.2-0.4,0.3s-0.3,0.2-0.3,0.3l0,0v0.3
				c0,0.3-0.1,0.7-0.2,1.1s-0.2,0.8-0.2,1.1l0,0H246.3z M250.6,180.6v0.2l-0.4,0.5l-0.2,0.1c-0.2,0.1-0.4,0.2-0.6,0.3
				c-0.2,0.1-0.4,0.2-0.6,0.3l0,0l-0.1,0.1h-0.2c-0.1,0-0.2,0-0.2,0.1c0,0.1-0.1,0.1-0.2,0.2l0,0c-0.2,0-0.4,0.1-0.4,0.1
				c-0.1,0-0.1,0.1-0.1,0.1l0,0c0,0,0,0.1,0,0.1l0,0c0,0,0,0-0.1,0.1c-0.1,0-0.1,0-0.2,0c-0.1,0-0.2,0-0.2,0c-0.1,0-0.1,0-0.1,0l0,0
				h-0.2c-0.1,0.1-0.2,0.1-0.5,0.1c-0.3,0-0.5,0.1-0.6,0.2l0,0l0.2,0.7c0.1,0,0.2,0.1,0.4,0.1c0.2,0,0.4,0.1,0.5,0.1
				c0.2,0,0.4,0,0.5,0c0.2,0,0.3,0,0.4,0l0,0c0.3,0,0.6,0,0.8,0s0.6,0,0.9,0l0,0c0.3,0,0.6,0,0.8,0.1c0.3,0.1,0.5,0.2,0.8,0.3l0,0
				v0.2c0,0.1,0,0.2,0,0.4c0,0.1,0,0.2-0.1,0.3l0,0l-0.1,0.1c0,0-0.1,0-0.2,0.1c-0.1,0-0.3,0.1-0.5,0.1c-0.2,0-0.4,0.1-0.6,0.1
				c-0.2,0-0.3,0-0.4,0l0,0c-0.4,0-0.8,0-1.2,0c-0.4,0-0.8,0-1.2,0l0,0c-0.3,0-0.6-0.1-1-0.2c-0.4-0.1-0.7-0.2-1-0.4
				s-0.6-0.4-0.8-0.7c-0.2-0.3-0.4-0.6-0.4-0.9l0,0l0.1-0.2c0,0,0-0.1,0-0.2c0-0.1,0-0.3,0.1-0.4l0,0v-0.3h0.2l0,0
				c0-0.1,0-0.2,0-0.2l0,0c0,0,0,0,0-0.1c0,0,0-0.1,0-0.1l0,0c0,0,0-0.1,0.1-0.1l0,0l0-0.4c0-0.1,0-0.2,0-0.3c0-0.1,0.1-0.2,0.1-0.4
				l0,0l0.1-0.1c0-0.1,0-0.2-0.1-0.2l0,0c0.1,0,0.1-0.1,0.1-0.2c0-0.1,0.1-0.2,0.1-0.2l0,0c0,0,0,0,0,0c0,0,0,0,0,0l0,0l0.1,0.1
				c0,0,0,0,0,0l0,0h0.1c0.1,0,0.1,0,0.1-0.1l0,0c0-0.1,0-0.2-0.1-0.3c-0.1-0.1-0.1-0.2-0.1-0.3l0,0c0,0,0-0.1,0-0.1l0,0
				c0,0,0-0.1,0-0.1c0,0,0,0,0-0.1l0,0l0.1,0c0.1-0.3,0.3-0.5,0.4-0.7c0.2-0.2,0.3-0.3,0.5-0.5l0,0l0.2-0.1c0.3-0.2,0.6-0.4,0.8-0.6
				c0.3-0.2,0.6-0.3,0.9-0.3l0,0c0.3,0,0.7,0,1.1,0.1c0.4,0.1,0.8,0.1,1.1,0.1l0,0c0.5,0.2,0.8,0.4,0.8,0.4s0.1,0.1,0.2,0.1l0,0
				l0,0.3l0.2,0.2l0.1,0.2l-0.2,0.3l0.2,0.2l-0.2,0.3c0,0-0.1,0.1-0.1,0.2c0,0.1,0,0.1,0,0.2l0,0l0,0l0,0.2l-0.1,0.3l0.2,0.1v0.2
				L250.6,180.6L250.6,180.6z M250.7,179.5L250.7,179.5L250.7,179.5c0.1,0,0.1,0,0.1,0.1l0,0c0,0.1,0,0.1-0.1,0.1l0,0
				C250.7,179.7,250.6,179.7,250.7,179.5L250.7,179.5C250.6,179.5,250.7,179.5,250.7,179.5z M250.8,179.9L250.8,179.9
				c0,0.1,0,0.1-0.1,0.1l0,0c0,0-0.1,0-0.1-0.1l0,0C250.7,179.9,250.7,179.9,250.8,179.9L250.8,179.9
				C250.7,179.9,250.8,179.9,250.8,179.9z M255.2,184.8L255.2,184.8c-0.1-0.2-0.1-0.4-0.2-0.5l0,0l0.1,0c0,0,0.1,0.1,0.2,0.3
				c0.1,0.1,0.2,0.2,0.2,0.3l0,0l0.2,0.3c-0.1-0.2-0.1-0.4-0.2-0.7c-0.1-0.3-0.2-0.6-0.3-0.9c-0.1-0.3-0.2-0.6-0.3-0.9
				c-0.1-0.3-0.2-0.6-0.3-0.8l0,0l-0.2-1.1c-0.1-0.4-0.2-0.8-0.2-1.1c-0.1-0.3-0.1-0.7-0.2-1.1l0,0l-0.1,0.1l0,0.3l-0.2,0.2
				l-0.1-0.2c0,0,0-0.1,0-0.1l0,0c-0.1-0.3-0.1-0.5-0.2-0.5c0-0.1-0.1-0.2-0.2-0.3l0,0l-0.3-0.6l0.3-0.4c0.1,0,0.2,0,0.4,0
				c0.2,0,0.2,0,0.3,0l0,0h0.2l0.6,0.4c0.2,0.1,0.4,0.1,0.5,0.3c0.1,0.1,0.1,0.3,0.2,0.4l0,0l0.2,0.6c0,0.1,0.1,0.2,0.1,0.4
				s0,0.4,0.1,0.4l0,0l0.2,0.4c0.1,0.2,0.2,0.4,0.3,0.8c0.1,0.4,0.2,0.8,0.3,1.2l0,0l0.2,0.2c0,0.1,0.1,0.2,0.1,0.3
				c0,0.1,0,0.2,0.1,0.3l0,0l0.3,0.5c0.1,0,0.2-0.2,0.4-0.5c0.1-0.3,0.3-0.6,0.4-1s0.2-0.8,0.4-1.1c0.1-0.4,0.2-0.6,0.2-0.7l0,0
				c0-0.1,0.1-0.1,0.1-0.2c0.1,0,0.1-0.1,0.1-0.2l0,0c0.2-0.4,0.4-0.8,0.5-1.3c0.1-0.4,0.3-0.9,0.5-1.3l0,0c0.2-0.3,0.4-0.7,0.5-1
				s0.3-0.6,0.5-1l0,0l0.7-0.6c0.1,0,0.1,0.1,0.1,0.2c0,0.1,0.1,0.2,0.1,0.2l0,0c0.1,0,0.3-0.1,0.6-0.1c0.3-0.1,0.5-0.1,0.7-0.1l0,0
				c0.2,0,0.3,0,0.5,0.1c0.2,0.1,0.2,0.2,0.2,0.5l0,0c0,0.1,0,0.2,0,0.3s0,0.2,0,0.3l0,0c0,0.1,0,0.1,0,0.2l0,0l-0.3,0.2l-0.3,0.5
				c-0.1,0.2-0.2,0.4-0.2,0.6s-0.1,0.4-0.3,0.6l0,0c-0.2,0.2-0.4,0.4-0.4,0.5c-0.1,0.1-0.1,0.2-0.2,0.4l0,0l-0.6,1.5
				c-0.1,0.3-0.3,0.5-0.4,0.8l0,0c-0.1,0.2-0.2,0.5-0.3,0.7s-0.2,0.5-0.2,0.7l0,0c-0.1,0.1-0.1,0.2-0.3,0.4
				c-0.1,0.2-0.2,0.4-0.3,0.6s-0.2,0.4-0.3,0.6c-0.1,0.2-0.1,0.3-0.1,0.4l0,0c0,0,0,0.1-0.1,0.2c-0.1,0.1-0.2,0.2-0.3,0.3
				c-0.1,0.1-0.2,0.2-0.3,0.3c-0.1,0.1-0.1,0.2-0.2,0.2l0,0l-0.6,0.3l-0.8,0.1l-0.2,0.1l-0.1-0.1c-0.3-0.2-0.5-0.3-0.7-0.4
				c-0.2-0.1-0.3-0.2-0.4-0.2c-0.1-0.1-0.2-0.1-0.2-0.2S255.3,184.9,255.2,184.8L255.2,184.8z M254.2,181.7v-0.4l0-0.2l0.1,0.2
				l0,0.4L254.2,181.7z M253.8,179.6l-0.2-0.4l0.2-0.1l0.1,0.1L253.8,179.6z M254,180.7l0.2-0.1l0,0.3H254L254,180.7z M254.6,183.3
				l0.2,0l0.2,0.1l-0.1,0.2L254.6,183.3z M253.9,180.3l-0.1-0.1l0.1-0.2l0.2,0.4L253.9,180.3z M254.6,182.9L254.6,182.9L254.6,182.9
				c0.1,0,0.1,0,0.1,0l0,0c0,0.1-0.1,0.1-0.2,0.1l0,0c0,0,0,0,0,0l0,0C254.5,183,254.6,182.9,254.6,182.9z M254,179.6l0,0.2
				l-0.1-0.2L254,179.6z M254.4,182.3l0.1-0.1l-0.1,0.2L254.4,182.3z M268.2,181.7L268.2,181.7c0.2-0.1,0.2-0.1,0.3-0.2
				c0.1-0.1,0.1-0.1,0.2-0.2c0-0.1,0.1-0.1,0.1-0.2c0.1-0.1,0.1-0.1,0.2-0.1l0,0c0.3,0,0.5-0.1,0.7-0.3c0.2-0.2,0.4-0.7,0.4-1.5l0,0
				v-0.6c0-0.1,0-0.2-0.1-0.3c-0.1-0.1-0.1-0.1-0.2-0.1l0,0c0,0-0.1,0.1-0.2,0.1c-0.1,0.1-0.3,0.1-0.4,0.2s-0.3,0.2-0.4,0.3
				c-0.1,0.1-0.3,0.2-0.3,0.3l0,0v0.3c0,0.3-0.1,0.7-0.2,1.1s-0.2,0.8-0.2,1.1l0,0H268.2z M272.6,180.6v0.2l-0.4,0.5l-0.2,0.1
				c-0.2,0.1-0.4,0.2-0.6,0.3c-0.2,0.1-0.4,0.2-0.6,0.3l0,0l-0.1,0.1h-0.2c-0.1,0-0.2,0-0.2,0.1s-0.1,0.1-0.2,0.2l0,0
				c-0.2,0-0.4,0.1-0.4,0.1c-0.1,0-0.1,0.1-0.1,0.1l0,0c0,0,0,0.1,0,0.1l0,0c0,0,0,0-0.1,0.1c-0.1,0-0.1,0-0.2,0c-0.1,0-0.2,0-0.2,0
				c-0.1,0-0.1,0-0.1,0l0,0h-0.2c-0.1,0.1-0.2,0.1-0.5,0.1c-0.3,0-0.5,0.1-0.6,0.2l0,0l0.2,0.7c0.1,0,0.2,0.1,0.4,0.1
				c0.2,0,0.4,0.1,0.5,0.1c0.2,0,0.4,0,0.5,0c0.2,0,0.3,0,0.4,0l0,0c0.3,0,0.6,0,0.8,0c0.3,0,0.6,0,0.9,0l0,0c0.3,0,0.6,0,0.8,0.1
				c0.3,0.1,0.5,0.2,0.8,0.3l0,0v0.2c0,0.1,0,0.2,0,0.4c0,0.1,0,0.2-0.1,0.3l0,0l-0.1,0.1c0,0-0.1,0-0.2,0.1c-0.1,0-0.3,0.1-0.5,0.1
				c-0.2,0-0.4,0.1-0.6,0.1c-0.2,0-0.3,0-0.4,0l0,0c-0.4,0-0.8,0-1.2,0c-0.4,0-0.8,0-1.2,0l0,0c-0.3,0-0.6-0.1-1-0.2
				c-0.4-0.1-0.7-0.2-1-0.4c-0.3-0.2-0.6-0.4-0.8-0.7c-0.2-0.3-0.4-0.6-0.4-0.9l0,0l0.1-0.2c0,0,0-0.1,0-0.2c0-0.1,0-0.3,0.1-0.4
				l0,0v-0.3h0.2l0,0c0-0.1,0-0.2,0-0.2l0,0c0,0,0,0,0-0.1c0,0,0-0.1,0-0.1l0,0c0,0,0-0.1,0.1-0.1l0,0l0-0.4c0-0.1,0-0.2,0-0.3
				c0-0.1,0.1-0.2,0.1-0.4l0,0l0.1-0.1c0-0.1,0-0.2-0.1-0.2l0,0c0.1,0,0.1-0.1,0.1-0.2c0-0.1,0.1-0.2,0.1-0.2l0,0c0,0,0,0,0,0
				c0,0,0,0,0,0l0,0l0.1,0.1c0,0,0,0,0,0l0,0h0.1c0.1,0,0.1,0,0.1-0.1l0,0c0-0.1,0-0.2-0.1-0.3c-0.1-0.1-0.1-0.2-0.1-0.3l0,0
				c0,0,0-0.1,0-0.1l0,0c0,0,0-0.1,0-0.1c0,0,0,0,0-0.1l0,0l0.1,0c0.1-0.3,0.3-0.5,0.4-0.7c0.2-0.2,0.3-0.3,0.5-0.5l0,0l0.2-0.1
				c0.3-0.2,0.6-0.4,0.8-0.6c0.3-0.2,0.6-0.3,0.9-0.3l0,0c0.3,0,0.7,0,1.1,0.1c0.4,0.1,0.8,0.1,1.1,0.1l0,0c0.5,0.2,0.8,0.4,0.8,0.4
				c0.1,0.1,0.1,0.1,0.2,0.1l0,0l0,0.3l0.2,0.2l0.1,0.2l-0.2,0.3l0.2,0.2l-0.2,0.3c0,0-0.1,0.1-0.1,0.2s0,0.1,0,0.2l0,0l0,0l0,0.2
				l-0.1,0.3l0.2,0.1v0.2L272.6,180.6L272.6,180.6z M272.7,179.5L272.7,179.5L272.7,179.5c0.1,0,0.1,0,0.1,0.1l0,0
				c0,0.1,0,0.1-0.1,0.1l0,0C272.6,179.7,272.6,179.7,272.7,179.5L272.7,179.5C272.6,179.5,272.6,179.5,272.7,179.5z M272.8,179.9
				L272.8,179.9c0,0.1,0,0.1-0.1,0.1l0,0c0,0-0.1,0-0.1-0.1l0,0C272.7,179.9,272.7,179.9,272.8,179.9L272.8,179.9
				C272.7,179.9,272.8,179.9,272.8,179.9z M275.1,181.9l-0.1-0.5l0.3-0.8c0,0,0-0.1,0-0.1s0-0.1,0-0.1l0,0c0-0.2,0-0.4,0.1-0.6
				c0.1-0.2,0.2-0.5,0.3-0.7s0.3-0.5,0.4-0.8c0.2-0.3,0.3-0.5,0.4-0.7l0,0c0,0,0,0,0-0.1l0,0c0-0.1,0-0.2,0.1-0.2
				c0.1-0.1,0.1-0.1,0.2-0.1l0,0c0.2,0,0.4,0,0.6,0.1c0.2,0.1,0.4,0.2,0.6,0.3s0.4,0.3,0.5,0.5c0.1,0.2,0.2,0.4,0.2,0.6l0,0
				l-0.1,0.2l2.4-1h0.5c0,0,0-0.1,0.1-0.1c0.1,0,0.1,0,0.1,0l0,0c0.1,0,0.2,0,0.3,0.1c0.1,0,0.1,0.1,0.2,0.2l0,0l0.4,0.1
				c0.1,0,0.2,0.1,0.4,0.2c0.2,0.1,0.3,0.2,0.3,0.2l0,0v0.5h-0.1l0,0.1c0,0,0,0,0,0l0,0h0.1c0,0,0,0,0.1,0l0,0v0.1l-0.1,0.1
				c0,0.2,0,0.3,0.1,0.3l0,0c0,0.2,0,0.5-0.1,0.8s-0.2,0.5-0.3,0.6l0,0h0.2c0,0-0.1,0.1-0.1,0.2l0,0c0,0.1,0,0.1,0,0.1c0,0,0,0,0,0
				l0,0c0,0.2,0,0.3-0.1,0.5c-0.1,0.2-0.1,0.3-0.1,0.4l0,0l-0.1,0.5c0,0.2-0.1,0.3-0.1,0.4c-0.1,0.1-0.1,0.3-0.1,0.5l0,0l0.1,0.2
				c0,0.1,0,0.1-0.1,0.2c-0.1,0.1-0.1,0.2-0.1,0.3l0,0c0,0.2,0,0.3,0.1,0.4l0,0v0.1l-0.2,0.1l-0.1,0.2c-0.1,0-0.2,0.1-0.2,0.1
				s-0.1,0.1-0.1,0.1s-0.1,0-0.1,0c-0.1,0-0.2,0-0.4,0l0,0c-0.2,0-0.4-0.1-0.5-0.2c-0.1-0.2-0.2-0.4-0.3-0.6
				c-0.1-0.2-0.1-0.4-0.1-0.7c0-0.2,0-0.4,0-0.5l0,0c0-0.3,0-0.6,0-0.8s0-0.4,0-0.6c0-0.2,0-0.4,0-0.6c0-0.2,0.1-0.5,0.1-0.8l0,0
				c0-0.1,0-0.2,0-0.4c0-0.2,0-0.3,0-0.4l0,0l-0.3,0.1c-0.5,0.2-0.9,0.5-1.4,0.8c-0.5,0.3-0.7,0.7-0.8,1.1l0,0l-0.1,0.3l0.1,0.1
				c0,0.1-0.1,0.2-0.1,0.2c0,0.1,0,0.2,0,0.4l0,0l0.2-0.2v0c0,0.3-0.1,0.5-0.3,0.6c-0.2,0.1-0.3,0.3-0.3,0.5l0,0l0.2,0.8L278,185
				h-0.3c0,0-0.1,0.1-0.2,0.1s-0.1,0.1-0.2,0.1l0,0l-1.5-0.2l-1-0.5l0.3-0.4c0,0-0.1,0.1-0.1,0.1l0,0h0c-0.1,0-0.1,0-0.1,0l0,0
				c0-0.1,0-0.2,0.1-0.2l0,0l0.1,0.1l0.5-0.6c0-0.1,0-0.1-0.1-0.2l0,0c-0.1,0.1-0.1,0.1-0.1,0.1s-0.1,0-0.3,0l0,0
				c0-0.2,0-0.4,0.1-0.5c0.1-0.1,0.1-0.2,0.1-0.4l0,0h-0.1c0,0-0.1,0-0.2-0.1l0,0c0,0-0.1,0-0.1,0c0,0-0.1,0-0.1,0l0,0
				c0-0.1,0.1-0.2,0.2-0.3C275.1,182.1,275.1,182,275.1,181.9L275.1,181.9z M275.5,183.1L275.5,183.1c0.1,0,0.1,0,0.1-0.1
				c0-0.1,0-0.3,0.1-0.5l0,0c-0.1,0-0.1,0.1-0.2,0.2C275.5,182.8,275.4,183,275.5,183.1L275.5,183.1
				C275.4,183.1,275.4,183.1,275.5,183.1z M275.1,182.4l0-0.2H275v0C275,182.3,275.1,182.4,275.1,182.4L275.1,182.4z M275.1,183
				L275.1,183l0.1-0.1C275.2,182.8,275.2,182.9,275.1,183L275.1,183C275.2,182.9,275.2,182.9,275.1,183
				C275.2,182.9,275.1,182.9,275.1,183L275.1,183z M275.3,182.1L275.3,182.1l0.1-0.1L275.3,182.1z M301.4,190.1L301.4,190.1
				c0,0-0.1-0.1-0.1-0.2c-0.1-0.1-0.1-0.1-0.1-0.2l0,0c0-0.1,0-0.1,0.1-0.1l0,0l0.2,0.3l0.1-0.1c0,0,0-0.1,0-0.1l0,0
				c0-0.1,0-0.1,0-0.2c0-0.1,0.1-0.1,0.1-0.2l0,0l-0.2,0c0,0,0,0,0-0.1s-0.1-0.2-0.2-0.4l0,0l0.2,0.1c0,0,0.1-0.1,0.1-0.2l0,0
				c0-0.1-0.1-0.2-0.2-0.3l0,0c-0.1,0.1-0.1,0.1-0.1,0.2l0,0c0,0.1,0,0.1,0,0.2l0,0h-0.1c0,0-0.1,0-0.2-0.1l0,0c0,0,0,0.1,0,0.2
				c0,0.1,0,0.1,0,0.2l0,0h-0.1c0,0-0.1-0.1-0.1-0.2c0-0.1,0-0.2-0.1-0.3l0,0l0,0c0,0,0.1-0.1,0-0.2c0-0.1,0.1-0.3,0.2-0.4l0,0
				c0,0.1,0,0.2,0,0.2c0,0.1,0,0.1,0,0.1l0,0c0,0,0-0.1,0-0.2l0,0c0-0.1,0-0.3-0.1-0.4s-0.1-0.2-0.1-0.3l0,0c0,0,0,0,0-0.1
				c0,0,0,0,0-0.1l0,0l-0.2-0.1c0-0.1-0.1-0.2-0.1-0.4c0-0.2,0-0.3,0-0.4l0,0c0,0.1,0,0.1-0.1,0.1s-0.1,0,0,0l0,0
				c-0.1,0-0.1-0.1-0.2-0.1l0,0c0,0-0.1,0-0.1,0.1l0,0c0-0.1-0.1-0.2-0.1-0.4s-0.1-0.3-0.2-0.5l0,0c-0.1,0.1-0.1,0.1-0.2,0.1
				c0,0,0,0,0,0.1l0,0c0,0,0,0,0,0.1c0,0,0,0.1,0,0.1l0,0c0,0,0,0,0,0c0,0,0,0,0,0l0,0c-0.1,0-0.1,0-0.1-0.1l0,0l0.1-0.8h0.1
				c0,0-0.1-0.1-0.1-0.2l0,0c-0.1,0.1-0.2,0.1-0.2,0.2l0,0c0,0,0,0,0,0.1l0,0l-0.2,0.1c0,0-0.1-0.2-0.2-0.4
				c-0.1-0.2-0.2-0.4-0.2-0.4l0,0l-0.1-0.3c0-0.1-0.1-0.3-0.2-0.4s-0.1-0.3-0.2-0.5l0,0v-0.1l-0.1,0c0-0.1,0-0.2-0.1-0.3
				c0-0.1,0-0.2-0.1-0.3l0,0l-0.1-0.2l-0.2-0.1l-0.9-2.4c-0.1-0.1-0.1-0.2-0.1-0.2l0,0c0,0,0-0.1,0-0.1c0,0,0,0,0-0.1l0,0
				c0,0,0-0.1-0.1-0.2l0,0l-0.4,0c0,0-0.1,0-0.2,0l0,0c0,0,0,0,0,0l0,0h0c0,0,0,0-0.1,0s0,0-0.1,0l0,0h-0.5c-0.2,0-0.4-0.1-0.5-0.2
				c-0.1-0.1-0.2-0.1-0.3-0.2l0,0c-0.1,0.5-0.2,0.8-0.2,0.8l0,0l0.1,0.3l-0.1,0.1c0,0,0,0.1,0,0.1c0,0,0,0,0,0.1l0,0l0.1,0.1h0.1
				l-0.1,0.2v0.2c0,0.3,0,0.5,0,0.6c0,0.1,0,0.2-0.1,0.3s-0.1,0.1-0.1,0.2c0,0,0,0.1,0,0.2l0,0l0.1,0c0,0,0,0.1,0,0.1l0,0
				c0,0,0,0,0,0l0,0c0,0-0.1,0-0.1,0l0,0c0,0,0,0,0-0.1l0,0c0,0,0,0.1,0,0.2l0,0l0.1,0.1l-0.1,0.2v1v0.1c0,0,0,0.1,0,0.3
				s0,0.2,0,0.3l0,0l-0.1,0.1l0.1,0.2v0.4l0.1,0.1v0.2l0,0.1l-0.2,0.2l-0.7,0.2l-0.8,0.1l-0.7-0.1c-0.3-0.1-0.5-0.2-0.6-0.4
				s-0.2-0.4-0.2-0.6l0,0c0-0.1,0-0.2,0-0.3c0-0.2,0-0.3,0-0.5c0-0.2,0-0.3,0.1-0.5s0.1-0.2,0.1-0.3l0,0l0.1,1.4l0.2,0.2
				c0-0.3,0-0.7,0-1.3c0-0.5,0.1-1.2,0.3-2l0,0l0,0.1c-0.1,0-0.1-0.1-0.1-0.4l0,0c0-0.3,0-0.4,0.1-0.4l0,0c0,0.1,0.1,0.2,0.1,0.3
				l0,0l0.4-1.4h-0.1c0-0.1,0-0.2,0.1-0.3c0.1,0,0.1-0.1,0.1-0.1l0,0h-0.1V179c0.2-1.2,0.4-2.3,0.7-3.4c0.3-1.1,0.7-2.2,1-3.1l0,0
				c0.1-0.1,0.1-0.3,0.2-0.6c0.1-0.2,0.1-0.4,0.2-0.4l0,0l0.2-0.1h0.4c0.2,0,0.3,0,0.5,0s0.4,0,0.5,0l0,0h0.1
				c0.1,0.1,0.2,0.2,0.3,0.4c0.1,0.1,0.1,0.3,0.2,0.5l0,0c0,0,0,0,0,0.1c0,0.1,0,0.2,0,0.3c0,0.1,0,0.2,0,0.3s0,0.1,0,0.2l0,0
				l1.1-0.7c0,0,0.2-0.1,0.4-0.2c0.2-0.1,0.5-0.1,0.8-0.2c0.3-0.1,0.6-0.1,0.9-0.2c0.3,0,0.5-0.1,0.6-0.1l0,0l0.2,0.2h0.1l-0.1-0.1
				h0.2c0,0,0.1,0,0.2,0.1c0.1,0.1,0.2,0.1,0.2,0.1l0,0c0.2,0.1,0.4,0.1,0.6,0.1c0.2,0,0.4,0.1,0.6,0.2s0.3,0.2,0.4,0.4
				c0.1,0.2,0.2,0.5,0.2,0.9l0,0l0.2-0.1l0.1,0.1l-0.1,0.2l0.1,0.2l-0.2,0.3c0,0.1,0,0.1-0.1,0.3s-0.1,0.2-0.1,0.2l0,0l0.1,0.1
				c0,0-0.1,0.2-0.2,0.4l0,0l-0.1,0.4l0.1,0.1v0.2c0,0.1,0,0.1,0,0.2c0,0.1,0,0.1,0,0.2l0,0c0,0.1-0.1,0.2-0.2,0.3l0,0v0.1
				c0,0.2-0.1,0.4-0.3,0.7c-0.2,0.3-0.3,0.5-0.3,0.6l0,0v0.2l-0.2,0.2c0,0-0.1,0.1-0.3,0.1c-0.1,0-0.2,0.1-0.3,0.1l0,0l-0.3,0.1
				c0,0-0.1,0-0.2,0s-0.2,0.1-0.3,0.1c-0.1,0-0.2,0.1-0.4,0.1c-0.1,0-0.2,0-0.2,0l0,0c0,0.2,0.1,0.4,0.3,0.5
				c0.2,0.1,0.3,0.3,0.3,0.5l0,0c0,0.2,0.1,0.4,0.2,0.6c0.1,0.2,0.2,0.4,0.3,0.7c0.1,0.2,0.2,0.4,0.3,0.6c0.1,0.2,0.2,0.3,0.2,0.3
				l0,0v0.1l-0.1,0l-0.2-0.1l0.7,1.3l0.2,0.6l0.2,0.2l0.1,0.1l-0.1,0.1c0,0.1,0.1,0.2,0.2,0.3s0.2,0.2,0.2,0.3l0,0l0.1,0.1l0.1,0.3
				c0,0.1,0,0.1,0,0.2l0,0l0,0.3l0.2,0.5c0,0.2,0.1,0.3,0.1,0.3l0,0l0.2,0.7l-0.2,0.1l-0.1,0.2l0.2,0.2l0.1-0.1l0.2,0.1l0.1,0.3
				l0.1-0.1l0.3,0.9v0.1c0,0.1,0,0.1,0,0.2c0,0.1,0,0.2,0,0.3l0,0c0,0,0,0.1-0.1,0.1c-0.1,0-0.1,0.1-0.1,0.3l0,0
				c-0.1-0.1-0.2-0.1-0.3-0.2c0,0-0.1-0.1-0.1-0.1l0,0c-0.1,0-0.2,0-0.3,0.1c-0.1,0.1-0.2,0.2-0.2,0.2l0,0c0,0.1,0,0.2,0,0.2l0,0
				l-0.2,0l0-0.2c0,0-0.1,0-0.1,0c0,0,0,0,0,0l0,0c0,0,0,0,0,0c0,0,0,0,0,0l0,0v0.2c0,0,0,0,0,0l0,0h0l-0.1-0.2
				c0,0.1-0.1,0.1-0.2,0.2c-0.1,0.1-0.2,0.1-0.3,0.1l0,0l-0.1-0.1c-0.1,0-0.2,0.1-0.2,0.2l0,0C301.7,190.3,301.5,190.2,301.4,190.1z
				 M295.6,176.9L295.6,176.9c0,0-0.1,0.2-0.2,0.4c-0.1,0.2-0.1,0.4-0.2,0.7l0,0c0.3-0.1,0.7-0.2,1-0.2c0.3,0,0.6,0,0.9-0.1l0,0
				c0.1,0,0.3-0.1,0.6-0.2c0.3-0.1,0.5-0.2,0.6-0.2l0,0c0.1-0.1,0.3-0.1,0.5-0.2c0.2,0,0.3-0.1,0.5-0.1c0.2-0.1,0.3-0.1,0.4-0.3
				c0.1-0.1,0.2-0.4,0.2-0.7l0,0c0-0.3,0.1-0.5,0.1-0.7c0-0.2,0.1-0.3,0.1-0.5s0.1-0.3,0.1-0.5c0-0.2,0-0.4,0-0.7l0,0
				c-0.2,0-0.3,0-0.4,0.1c-0.1,0.1-0.3,0.1-0.5,0.1l0,0c-0.1,0-0.2,0-0.3,0c-0.1,0-0.2,0-0.3,0l0,0l0,0l-0.2,0.1
				c-0.1,0.1-0.2,0.2-0.4,0.2c-0.2,0.1-0.4,0.1-0.6,0.2c-0.2,0.1-0.4,0.1-0.5,0.2c-0.1,0.1-0.2,0.1-0.2,0.2l0,0l-0.4,0.1l-0.2,0
				h-0.2c0,0,0,0.1,0,0.2c0,0.1,0,0.1,0,0.2l0,0l0.1,0.2c0,0,0-0.1,0.1-0.1c0.1,0,0.1,0,0.1,0l0,0c0,0.3-0.1,0.6-0.2,0.9
				C295.9,176.3,295.7,176.6,295.6,176.9z M301.8,187.9l0,0.2c0,0.1,0.1,0.2,0.2,0.2l0,0c0,0,0,0,0-0.1l0,0c0-0.1,0-0.3,0-0.5
				s-0.1-0.4-0.1-0.5c-0.1-0.2-0.1-0.3-0.2-0.5c-0.1-0.1-0.2-0.2-0.4-0.2l0,0v0.2c0.1,0.1,0.2,0.1,0.2,0.1c0,0,0.1,0,0.3,0.1l0,0
				l-0.2,0.2v0c0,0,0,0.1,0.1,0.2c0.1,0.1,0.1,0.2,0.1,0.3l0,0c0,0.1,0,0.2-0.1,0.3l0,0C301.7,187.8,301.7,187.8,301.8,187.9
				L301.8,187.9z M299.8,186.3L299.8,186.3c0.1,0.1,0.2,0.2,0.2,0.3s0,0.2,0,0.1l0,0c0,0.1,0,0.2,0,0.2l0,0
				c-0.1-0.2-0.1-0.3-0.2-0.4S299.7,186.4,299.8,186.3L299.8,186.3C299.7,186.3,299.7,186.3,299.8,186.3z M291.5,181.9v0.9h-0.1
				c0,0,0-0.1,0-0.2c0-0.1,0-0.2,0-0.3c0-0.1,0-0.2,0-0.3C291.4,182,291.4,181.9,291.5,181.9L291.5,181.9z M301.6,188.8l-0.1,0.1
				c0.1,0.1,0.1,0.1,0.2,0.1l0,0L301.6,188.8z M300.5,186.8l-0.1-0.1C300.6,186.7,300.6,186.7,300.5,186.8L300.5,186.8L300.5,186.8z
				 M301.7,188.4l0.1,0c0,0-0.1-0.1-0.1-0.2l0,0L301.7,188.4z M305.1,182l0.1-0.2c0,0,0-0.1,0-0.1c0,0,0-0.1,0.1-0.1l0,0l0.1-0.1
				c0-0.3,0.1-0.6,0.3-1.1c0.2-0.4,0.4-0.7,0.7-0.9l0,0l0.2-0.1c0,0,0.1-0.1,0.1-0.1c0-0.1,0-0.1,0-0.2l0,0l0.1-0.2
				c0.2-0.2,0.3-0.5,0.5-0.7c0.2-0.2,0.4-0.4,0.6-0.6c0.2-0.2,0.4-0.3,0.5-0.4s0.3-0.2,0.4-0.2l0,0c0,0,0.1,0,0.1,0
				c0,0,0.1,0.1,0.3,0.1l0,0l0.3,0.4c0.1,0,0.2,0.1,0.2,0.2l0,0l0.1,0.2v0.5l0.1,0.1c0,0,0.1,0.1,0.1,0.1s0.1,0.1,0.1,0.1l0,0
				l0.4,0.2c0,0.1,0.1,0.2,0.2,0.3s0.2,0.2,0.3,0.4l0,0l0.4,0.5c0,0.1,0.1,0.2,0.1,0.3c0,0.2,0.1,0.3,0.1,0.5c0,0.2,0.1,0.4,0.1,0.5
				c0,0.2,0,0.3,0,0.3l0,0v0.2l-0.3,0.6l0,0.2l-0.3,0.3l-0.5,0.4c-0.1,0.1-0.2,0.1-0.4,0.1c-0.2,0-0.3,0.1-0.4,0.2l0,0l-0.2,0.1
				c-0.1,0.1-0.2,0.1-0.3,0.1l0,0c0,0,0,0,0,0c0,0,0,0,0,0l0,0l-0.4,0.1c-0.1,0.1-0.3,0.1-0.5,0.1l0,0c-0.1,0-0.3,0-0.3,0l0,0
				l-0.7-0.2l-0.7-0.2c-0.3-0.1-0.5-0.2-0.7-0.2c-0.2-0.1-0.3-0.3-0.5-0.6l0,0c0-0.1-0.1-0.2-0.1-0.3c0-0.1-0.1-0.2-0.1-0.2l0,0
				L305.1,182z M307.7,182.1l0,0.7l0.2,0c0.2,0,0.4-0.1,0.6-0.1s0.4-0.1,0.5-0.1l0,0l0.3-0.2l0.2-0.3l0.1-0.3l-0.4-1.4l-0.5-0.2
				l-0.1,0.1c0,0-0.1,0.1-0.2,0.2s-0.2,0.3-0.3,0.5s-0.2,0.4-0.3,0.6S307.7,181.9,307.7,182.1L307.7,182.1z M306.7,180.3l-0.2-0.1
				c-0.1,0.1-0.2,0.3-0.4,0.5s-0.2,0.5-0.2,0.7l0,0c0,0.1,0,0.1,0,0.2l0,0l0.1-0.2l0.5-0.9C306.6,180.4,306.7,180.3,306.7,180.3
				L306.7,180.3z M317,185.8L317,185.8c-0.1,0-0.1,0-0.3,0c-0.1,0-0.2,0-0.4,0c-0.1,0-0.3,0-0.4-0.1c-0.1,0-0.2-0.1-0.3-0.1l0,0
				l-0.7-0.3c0,0-0.1,0-0.2-0.1s-0.3-0.1-0.6-0.2l0,0l-0.4-0.5c0-0.2,0.1-0.4,0.3-0.5c0.2-0.2,0.4-0.3,0.5-0.3l0,0c0,0,0.1,0,0.2,0
				s0.2,0,0.3,0.1s0.2,0.1,0.3,0.1c0.1,0,0.1,0,0.2,0l0,0c0.2,0,0.4,0,0.7,0c0.3,0,0.6,0,0.9-0.1c0.3,0,0.5-0.1,0.8-0.1
				c0.2-0.1,0.3-0.1,0.3-0.2l0,0l0.2-0.8c0-0.2-0.1-0.4-0.2-0.5c-0.1-0.1-0.3-0.2-0.5-0.2l0,0c-0.1,0-0.1,0-0.2,0.1l0,0l-0.8-0.2
				h-0.3c-0.2,0-0.4,0-0.8-0.1c-0.3-0.1-0.7-0.2-1-0.3c-0.3-0.1-0.6-0.3-0.9-0.5c-0.3-0.2-0.4-0.5-0.4-0.8l0,0c0-0.2,0-0.3,0.1-0.4
				c0.1-0.1,0.1-0.2,0.2-0.4l0,0l-0.1-0.1c0-0.1,0-0.2,0.1-0.3c0.1-0.1,0.1-0.2,0.2-0.4c0.1-0.1,0.1-0.3,0.2-0.4
				c0.1-0.1,0.1-0.2,0.1-0.3l0,0l1.1-1.2c0,0,0.1-0.1,0.1,0c0.1,0,0.1,0,0.1,0l0,0l0.7-0.5h0.2c0,0,0.1,0,0.2-0.1l0,0l0.8-0.2h0.3
				l0.1,0.1c0.1,0,0.2,0.1,0.3,0.1s0.2,0,0.4,0l0,0h0.5c0,0,0.1,0.1,0.2,0.2c0.1,0.1,0.1,0.2,0.2,0.2l0,0c0.2,0.1,0.3,0.2,0.5,0.3
				c0.1,0.1,0.3,0.2,0.4,0.3s0.2,0.2,0.3,0.3c0.1,0.1,0.1,0.3,0.1,0.6l0,0c0,0.1-0.1,0.1-0.2,0.2c-0.1,0-0.2,0.1-0.2,0.1l0,0h-0.5
				c0,0-0.1,0-0.1,0c-0.1,0-0.2,0-0.2,0.1c-0.1,0-0.2,0-0.3,0.1c-0.1,0-0.1,0-0.2,0l0,0h-1.1c0,0.1-0.2,0.2-0.4,0.2
				c-0.2,0-0.3,0.1-0.4,0.1l0,0c-0.3,0.2-0.5,0.3-0.5,0.5c-0.1,0.2-0.1,0.4-0.2,0.7l0,0c0.3,0.2,0.7,0.3,1.1,0.4
				c0.4,0.1,0.7,0.1,0.9,0.1l0,0l0.8,0.2c0.5,0.2,0.9,0.4,1.1,0.7c0.2,0.3,0.4,0.6,0.4,0.9l0,0l0.1,0.4v0.2c0,0.1,0,0.2,0,0.2
				s0,0.3-0.1,0.7l0,0l-0.2,0.5l-0.1,0.1c-0.2,0.3-0.4,0.5-0.6,0.7s-0.4,0.3-0.8,0.4l0,0c0,0,0,0-0.1,0.1c0,0-0.1,0.1-0.2,0.1
				c-0.1,0-0.3,0.1-0.5,0.1C317.7,185.8,317.4,185.8,317,185.8z M313.8,179.9L313.8,179.9c0,0.2,0.1,0.3,0.2,0.4
				c0.2,0.1,0.3,0.1,0.5,0.1l0,0l-0.1-0.3V180c0-0.1,0-0.2,0-0.2c0,0,0-0.1,0-0.3l0,0c-0.1,0-0.1,0-0.1-0.1l0,0c0,0,0-0.1,0.1-0.2
				c0-0.1,0.1-0.2,0.1-0.2l0,0v0.2c0.1,0,0.1-0.1,0.1-0.2s0-0.2,0-0.2l0,0c0-0.1,0-0.2-0.1-0.2l0,0l-0.1,0.2v-0.4h-0.1
				c0,0.1-0.1,0.1-0.1,0.2c-0.1,0.1-0.1,0.2-0.2,0.2l0,0c0,0.1-0.1,0.3-0.1,0.4s0,0.3-0.1,0.4l0,0
				C314,179.8,313.9,179.8,313.8,179.9C313.8,179.8,313.8,179.8,313.8,179.9z M316.1,177.1L316.1,177.1c-0.4,0-0.7,0.1-0.9,0.4
				s-0.4,0.6-0.5,0.9l0,0v0c0.2,0,0.3-0.1,0.3-0.3c0.1-0.2,0.1-0.4,0.2-0.5l0,0c0,0,0.1-0.1,0.2-0.1s0.2-0.1,0.3-0.2
				c0.1-0.1,0.2-0.1,0.3-0.2S316.1,177.2,316.1,177.1L316.1,177.1z M325.9,185.8L325.9,185.8c-0.1,0-0.1,0-0.3,0c-0.1,0-0.2,0-0.4,0
				c-0.1,0-0.3,0-0.4-0.1s-0.2-0.1-0.3-0.1l0,0l-0.7-0.3c0,0-0.1,0-0.2-0.1c-0.1-0.1-0.3-0.1-0.6-0.2l0,0l-0.4-0.5
				c0-0.2,0.1-0.4,0.3-0.5c0.2-0.2,0.4-0.3,0.5-0.3l0,0c0,0,0.1,0,0.2,0s0.2,0,0.3,0.1c0.1,0,0.2,0.1,0.3,0.1c0.1,0,0.1,0,0.2,0l0,0
				c0.2,0,0.4,0,0.7,0c0.3,0,0.6,0,0.9-0.1s0.5-0.1,0.8-0.1c0.2-0.1,0.3-0.1,0.3-0.2l0,0l0.2-0.8c0-0.2-0.1-0.4-0.2-0.5
				c-0.1-0.1-0.3-0.2-0.5-0.2l0,0c-0.1,0-0.1,0-0.2,0.1l0,0l-0.8-0.2h-0.3c-0.2,0-0.4,0-0.8-0.1c-0.3-0.1-0.7-0.2-1-0.3
				c-0.3-0.1-0.6-0.3-0.9-0.5c-0.3-0.2-0.4-0.5-0.4-0.8l0,0c0-0.2,0-0.3,0.1-0.4c0.1-0.1,0.1-0.2,0.2-0.4l0,0l-0.1-0.1
				c0-0.1,0-0.2,0.1-0.3s0.1-0.2,0.2-0.4c0.1-0.1,0.1-0.3,0.2-0.4c0.1-0.1,0.1-0.2,0.1-0.3l0,0l1.1-1.2c0,0,0.1-0.1,0.1,0
				c0.1,0,0.1,0,0.1,0l0,0l0.7-0.5h0.2c0,0,0.1,0,0.2-0.1l0,0l0.8-0.2h0.3l0.1,0.1c0.1,0,0.2,0.1,0.3,0.1s0.2,0,0.4,0l0,0h0.5
				c0,0,0.1,0.1,0.2,0.2c0.1,0.1,0.1,0.2,0.2,0.2l0,0c0.2,0.1,0.3,0.2,0.5,0.3c0.1,0.1,0.3,0.2,0.4,0.3c0.1,0.1,0.2,0.2,0.3,0.3
				c0.1,0.1,0.1,0.3,0.1,0.6l0,0c0,0.1-0.1,0.1-0.2,0.2c-0.1,0-0.2,0.1-0.2,0.1l0,0h-0.5c0,0-0.1,0-0.1,0c-0.1,0-0.2,0-0.2,0.1
				c-0.1,0-0.2,0-0.3,0.1c-0.1,0-0.1,0-0.2,0l0,0h-1.1c0,0.1-0.2,0.2-0.4,0.2c-0.2,0-0.3,0.1-0.4,0.1l0,0c-0.3,0.2-0.5,0.3-0.5,0.5
				c-0.1,0.2-0.1,0.4-0.2,0.7l0,0c0.3,0.2,0.7,0.3,1.1,0.4c0.4,0.1,0.7,0.1,0.9,0.1l0,0l0.8,0.2c0.5,0.2,0.9,0.4,1.1,0.7
				c0.2,0.3,0.4,0.6,0.4,0.9l0,0l0.1,0.4v0.2c0,0.1,0,0.2,0,0.2c0,0.1,0,0.3-0.1,0.7l0,0l-0.2,0.5l-0.1,0.1
				c-0.2,0.3-0.4,0.5-0.6,0.7c-0.2,0.2-0.4,0.3-0.8,0.4l0,0c0,0,0,0-0.1,0.1c0,0-0.1,0.1-0.2,0.1c-0.1,0-0.3,0.1-0.5,0.1
				C326.7,185.8,326.4,185.8,325.9,185.8z M322.8,179.9L322.8,179.9c0,0.2,0.1,0.3,0.2,0.4s0.3,0.1,0.5,0.1l0,0l-0.1-0.3V180
				c0-0.1,0-0.2,0-0.2c0,0,0-0.1,0-0.3l0,0c-0.1,0-0.1,0-0.1-0.1l0,0c0,0,0-0.1,0.1-0.2c0-0.1,0.1-0.2,0.1-0.2l0,0v0.2
				c0.1,0,0.1-0.1,0.1-0.2c0-0.1,0-0.2,0-0.2l0,0c0-0.1,0-0.2-0.1-0.2l0,0l-0.1,0.2v-0.4h-0.1c0,0.1-0.1,0.1-0.1,0.2
				s-0.1,0.2-0.2,0.2l0,0c0,0.1-0.1,0.3-0.1,0.4s0,0.3-0.1,0.4l0,0C323,179.8,322.9,179.8,322.8,179.9
				C322.8,179.8,322.8,179.8,322.8,179.9z M325.1,177.1L325.1,177.1c-0.4,0-0.7,0.1-0.9,0.4c-0.2,0.3-0.4,0.6-0.5,0.9l0,0v0
				c0.2,0,0.3-0.1,0.3-0.3c0.1-0.2,0.1-0.4,0.2-0.5l0,0c0,0,0.1-0.1,0.2-0.1s0.2-0.1,0.3-0.2c0.1-0.1,0.2-0.1,0.3-0.2
				C325,177.3,325.1,177.2,325.1,177.1L325.1,177.1z M338.9,185.5L338.9,185.5c0-0.3,0-0.6,0.1-0.8s0.1-0.5,0.1-0.8l0,0
				c0-1,0-1.7-0.1-2.4s-0.1-1.2-0.1-1.8c-0.1-0.6-0.1-1.2-0.1-1.8c0-0.6-0.1-1.4-0.1-2.4l0,0v-1.9c0-0.1,0.1-0.2,0.1-0.3
				s0-0.2,0-0.3l0,0c0-0.1,0-0.2,0-0.2s0-0.1-0.1-0.2l0,0c0,0,0.1-0.1,0.1-0.2c0-0.1,0-0.2,0-0.3l0,0v-0.9l-0.1-0.1l0.1-0.1
				c0-0.4,0-0.9,0-1.4c0-0.5,0-1,0-1.4l0,0c0-0.2,0-0.4-0.1-0.7c0-0.2-0.1-0.5-0.1-0.8l0,0l-0.1-0.2c0-0.1,0.1-0.2,0.3-0.2
				c0.2,0,0.3,0,0.4,0l0,0c0.7,0,1.2,0.1,1.5,0.2c0.3,0.1,0.4,0.5,0.4,1l0,0v0.1c0,0-0.1,0.1-0.1,0.3c0,0.2,0,0.4,0,0.6
				c0,0.2,0,0.4,0,0.6c0,0.2,0,0.3,0,0.4l0,0v0.1c0,0.1,0,0.3,0,0.4c0,0.2,0,0.3,0,0.5l0,0c0,0.2,0,0.4,0,0.6c0,0.2,0,0.4,0,0.6l0,0
				v0.2l0.1,0.1l-0.1,0.1l0.1,0.5l-0.1,0.1c0,0.1,0,0.2,0.1,0.4s0.1,0.3,0.1,0.4l0,0c0,0.1,0,0.2-0.1,0.2l0,0c0,0,0.1,0.1,0.1,0.2
				c0,0.1,0.1,0.2,0.1,0.3s0,0.2,0,0.4c0,0.1,0,0.2,0,0.3l0,0l-0.1,0.1v0.2h0.1c0,0.3,0.1,0.6,0.2,0.9c0.1,0.3,0.2,0.6,0.2,0.9l0,0
				c0,0.1,0,0.2,0,0.2s0,0.1,0,0.2l0,0h0.1v0.8c0,0.1,0,0.3-0.1,0.4c-0.1,0.1-0.1,0.3-0.1,0.4l0,0l0.1,0.2l-0.1,0.4
				c0,0.2,0,0.5,0.1,0.7c0,0.2,0.1,0.5,0.1,0.7l0,0v1.3l0.1,0.5c0,0.3,0,0.5,0,0.6c0,0.1,0,0.2,0,0.3c0,0.1,0,0.2,0,0.3s0,0.3,0,0.6
				l0,0v0.1c0,0.2,0,0.3,0,0.5s0,0.4-0.1,0.6c0,0.2-0.1,0.3-0.1,0.5c-0.1,0.1-0.1,0.2-0.2,0.2l0,0c-0.1,0-0.1,0-0.2-0.1
				c-0.1,0-0.1-0.1-0.1-0.2l0,0c-0.1,0-0.1,0-0.1,0.1c0,0,0,0.1-0.2,0.1l0,0c0,0-0.1,0-0.1-0.1l0,0c-0.1,0.1-0.2,0.2-0.4,0.2
				c-0.2,0-0.3,0.1-0.5,0.1l0,0c-0.1,0-0.3,0-0.4-0.1c-0.1,0-0.3-0.1-0.4-0.2c-0.1-0.1-0.3-0.2-0.4-0.2
				C338.9,185.7,338.9,185.6,338.9,185.5z M340.8,177L340.8,177c0,0.1,0,0.2,0,0.3c0,0.1,0,0.2,0,0.3l0,0c0,0.1,0,0.2,0,0.3
				c0,0.1,0.1,0.1,0.2,0.2l0,0l0.1-0.1c0-0.1,0-0.1,0-0.3s0-0.2,0-0.4s0-0.3,0-0.4c0-0.1,0-0.2,0-0.3l0,0l-0.1-0.1l0.1-0.2l-0.1-0.1
				l0.1-0.2v-0.3c0-0.4,0-0.9-0.1-1.3c-0.1-0.4-0.1-0.9-0.1-1.3l0,0c0-0.1,0-0.2,0-0.3s0-0.2,0-0.3l0,0c0,0,0-0.1-0.1-0.1
				c-0.1,0-0.1-0.1-0.1-0.1l0,0v-0.1l0.1-0.1v-0.4c-0.1,0-0.2,0.1-0.2,0.2s-0.1,0.3-0.1,0.4l0,0c0,0.1,0,0.1,0.1,0.1l0,0v1.5
				l-0.1-0.1v0.3l0.1-0.1v0.6c0,0.2,0,0.3,0.1,0.4c0,0.1,0.1,0.3,0.1,0.4l0,0l-0.1,0.1c0,0.2,0,0.3,0.1,0.5s0.1,0.3,0.1,0.5l0,0
				L340.8,177z M340.8,179.4L340.8,179.4v0.2c0.1,0.1,0.2,0.2,0.3,0.2l0,0v-0.2c0-0.2,0-0.3,0-0.5s0-0.3-0.1-0.4l0,0
				c-0.1,0.1-0.1,0.2-0.1,0.3S340.9,179.3,340.8,179.4z M353,185.7L353,185.7c-0.1,0-0.2,0-0.2-0.1c0-0.1-0.1-0.1-0.1-0.2l0,0
				l-0.1,0.2v-0.2c-0.2,0-0.2,0-0.2,0.1c0,0.1,0,0.1-0.1,0.1l0,0c-0.1,0-0.2-0.1-0.2-0.2c0-0.1-0.1-0.2-0.2-0.2l0,0l-0.2,0.1l0,0.1
				c0,0,0,0.1-0.1,0.1l0,0h-0.1c-0.1,0-0.3-0.1-0.5-0.2c-0.2-0.1-0.3-0.3-0.4-0.4l0,0c0-0.4,0.1-0.8,0.3-1.1s0.3-0.7,0.3-1.1l0,0
				l0.2,0c0.2,0,0.3-0.1,0.3-0.2c0-0.1,0-0.2,0-0.3l0,0l-0.2-0.2v-0.2c0.1-0.1,0.1-0.1,0.1-0.2c0-0.1,0.1-0.1,0.1-0.2l0,0l0-0.2
				c0,0,0.1-0.1,0.2-0.1s0.2-0.1,0.3-0.2s0.2-0.1,0.3-0.2c0.1-0.1,0.1-0.1,0.1-0.1l0,0c0,0,0,0-0.1,0s-0.1,0-0.1-0.1l0,0l0.3-0.3
				l-0.2-0.2c0-0.1,0.1-0.2,0.3-0.3c0.2-0.1,0.3-0.3,0.4-0.6l0,0v-0.1c-0.1,0.1-0.2,0.1-0.2,0.2c0,0-0.1,0.1-0.1,0.1
				c0,0-0.1,0.1-0.1,0.1c-0.1,0-0.1,0-0.3,0l0,0c-0.1,0-0.2,0.1-0.2,0.2c0,0.1-0.1,0.1-0.1,0.2s0,0.1-0.1,0.2c0,0.1-0.1,0.1-0.2,0.1
				l0,0v-0.3l0.5-1.2c0,0,0-0.1,0-0.2c0-0.1,0-0.3,0.1-0.5c0-0.2,0.1-0.3,0.1-0.5c0-0.1,0-0.2,0-0.3l0,0l0-0.2l0.1,0l0.1-0.4
				l0.2-0.6l0.2-0.3c0-0.2,0.1-0.6,0.3-0.9c0.2-0.4,0.4-0.7,0.5-1l0,0l-0.1-0.2c0-0.1,0-0.1,0.1-0.2c0,0,0.1-0.1,0.1-0.1l0,0h0
				c0,0,0-0.1,0.1-0.2c0-0.1,0.1-0.1,0.1-0.1l0,0v-0.1l-0.1,0.2v-0.1c0-0.1,0.1-0.3,0.3-0.5c0.2-0.2,0.3-0.4,0.3-0.6l0,0
				c0-0.1,0-0.1-0.1-0.1s-0.1-0.1-0.1-0.2l0,0c0-0.1,0-0.1,0.1-0.2c0.1-0.1,0.2-0.1,0.3-0.1l0,0c0.1,0,0.1,0,0.2,0.1
				c0,0.1,0.1,0.1,0.2,0.1l0,0l0.3-0.1c0.1,0,0.2,0.1,0.4,0.2c0.2,0.1,0.4,0.2,0.5,0.3c0.2,0.1,0.3,0.2,0.5,0.4
				c0.1,0.1,0.2,0.2,0.2,0.2l0,0c0,0,0,0.1,0,0.1c0,0,0,0,0,0.1l0,0c0,0.1,0.1,0.1,0.2,0.2l0,0v0.1c0,0.2-0.1,0.4-0.2,0.7
				c-0.1,0.2-0.2,0.4-0.2,0.6l0,0h0.1c0,0.1,0,0.2,0,0.2c0,0,0,0.1,0,0.2l0,0h0.2l-0.9,1.8v0.2l0.1,0.1l-0.1,0.2v0.2
				c0,0-0.1,0-0.1,0l0,0c0,0-0.1,0.1-0.1,0.2c0,0.2,0,0.3,0,0.4l0,0l-0.2,0.5H356l0.1,0.1l-0.1,0.3l-0.1,0.1c-0.2,0-0.3,0.1-0.3,0.3
				l0,0c0,0,0,0.1,0,0.1c0,0.1,0,0.1,0,0.1l0,0c0,0.1,0,0.2,0,0.2c0,0,0,0-0.1,0.1l0,0v0.2l0.1,0.2l-0.2,0.2c0,0-0.1,0.1-0.1,0
				c0,0,0,0,0,0l0,0l0.1,0.1v0c0,0.1-0.1,0.2-0.1,0.3c-0.1,0.2-0.1,0.3-0.2,0.5c-0.1,0.2-0.1,0.3-0.2,0.5c-0.1,0.2-0.2,0.3-0.2,0.4
				l0,0c0,0,0.1,0,0.1,0.1l0,0c0,0.1,0,0.2,0,0.2c0,0,0,0.1,0,0.1l0,0c0,0,0,0,0.1,0c0,0,0.1,0.1,0.1,0.2l0,0c0,0.2-0.1,0.4-0.2,0.5
				c-0.1,0.1-0.2,0.3-0.2,0.5l0,0c0,0,0,0.1,0,0.1c0,0,0,0,0,0.1l0,0l-0.2,0.2l0.2,0.2c-0.1,0.2-0.1,0.4-0.2,0.6
				c-0.1,0.2-0.1,0.4-0.2,0.6l0,0v0.2c0,0,0,0.1-0.1,0.2c0,0.1-0.1,0.2-0.2,0.3c-0.1,0.1-0.1,0.2-0.2,0.2c-0.1,0.1-0.1,0.1-0.1,0.1
				l0,0c-0.1-0.1-0.3-0.1-0.4-0.2C353.1,185.9,353,185.8,353,185.7z M352.4,181.5l-0.1-0.1c-0.1,0-0.1,0.1-0.2,0.2
				c-0.1,0.1-0.1,0.2-0.1,0.2l0,0v0.2c0.1-0.1,0.2-0.2,0.3-0.2s0.2-0.1,0.3-0.1l0,0v0.2c0.1,0,0.2-0.1,0.2-0.2
				c0.1-0.1,0.1-0.2,0.1-0.2l0,0c-0.2,0-0.3,0-0.3,0c0,0,0,0-0.1,0l0,0H352.4z M352.4,181.3L352.4,181.3c0.2,0.1,0.4,0,0.4-0.1
				c0-0.1,0.1-0.2,0.1-0.3l0,0h0.1v-0.2c0,0-0.1,0.1-0.2,0.1c-0.1,0.1-0.1,0.1-0.1,0.2l0,0h0.1c0,0.1,0,0.1-0.1,0.1
				c-0.1,0-0.1,0.1-0.1,0.1l0,0L352.4,181.3z M352,180.6L352,180.6c0-0.1,0.1-0.2,0.3-0.2l0,0c0,0.1,0,0.2,0,0.3s-0.1,0.2-0.3,0.2
				l0,0V180.6C351.9,180.6,351.9,180.6,352,180.6C352,180.6,352,180.6,352,180.6z M354.3,184.2L354.3,184.2c-0.2,0-0.4,0.1-0.4,0.2
				l0,0h0.1c0.1,0,0.2,0,0.2-0.1C354.3,184.3,354.3,184.2,354.3,184.2z M351.2,183.4L351.2,183.4l0.2,0.1l0.1-0.2h-0.2L351.2,183.4z
				 M351.3,183.6h-0.2c0,0,0,0,0,0.1s0,0.1,0.1,0.1l0,0C351.3,183.8,351.3,183.7,351.3,183.6L351.3,183.6z M369.7,175L369.7,175
				c-0.1,0.3-0.1,0.6-0.2,0.8c0,0.2-0.1,0.5-0.1,0.8l0,0c-0.1,0.1-0.1,0.2-0.2,0.2c-0.1,0-0.1,0.1-0.2,0.2l0,0
				c0,0.1-0.1,0.1-0.1,0.1c0,0-0.1,0.1-0.2,0.1c-0.1,0.1-0.3,0.2-0.5,0.3c-0.2,0.2-0.5,0.4-1,0.7l0,0c0.1,0.1,0.2,0.2,0.3,0.2
				c0.1,0.1,0.2,0.1,0.3,0.2l0,0c0.1,0.1,0.2,0.2,0.5,0.4s0.5,0.4,0.8,0.6c0.3,0.2,0.5,0.4,0.7,0.6c0.2,0.2,0.3,0.3,0.3,0.4l0,0
				l-0.1,0.9c-0.3,0.3-0.6,0.7-0.9,1c-0.3,0.3-0.5,0.7-0.6,1.1l0,0c0,0.1,0,0.2-0.1,0.2l0,0c0,0,0,0-0.1,0l0,0l-0.4,0.4l-0.1,0.3
				l-0.1,0c0,0-0.1,0.1-0.3,0.1c-0.2,0-0.3,0.1-0.4,0.1l0,0l-0.3,0.1l0-0.1c-0.2,0-0.4,0-0.6,0.1s-0.4,0.2-0.6,0.2l0,0
				c-0.1,0-0.3,0-0.4,0c-0.1,0-0.3,0-0.4,0.1l0,0l-0.6,0.1c-0.9,0.2-1.6,0.4-2.2,0.4c-0.5,0.1-1,0.1-1.4,0.1l0,0h-0.7h-0.4
				c-0.3-0.2-0.6-0.5-0.7-0.7c-0.1-0.2-0.2-0.6-0.2-1l0,0l0.2-0.3h0.2l0.1-0.1h1.4l0.2-0.1c0.1,0,0.1,0,0.2,0c0.1,0,0.2,0,0.2,0l0,0
				c0.4,0,0.7,0,1-0.1c0.3-0.1,0.7-0.1,1-0.1l0,0l0-0.1l0.3-0.2l-0.1-0.1c0,0,0.1,0,0.2,0l0,0h0.4c0.3,0,0.5-0.1,0.6-0.2
				c0.1-0.1,0.2-0.2,0.3-0.3l0,0l0.2-0.1c0.2,0,0.4-0.1,0.6-0.2c0.2-0.1,0.4-0.3,0.6-0.4c0.2-0.2,0.3-0.4,0.5-0.6
				c0.1-0.2,0.2-0.5,0.2-0.7l0,0c0,0,0-0.1-0.1-0.1c0,0-0.1-0.1-0.1-0.1l0,0l-1.9-1.4c-0.2-0.1-0.3-0.2-0.4-0.3
				c-0.1-0.1-0.2-0.2-0.2-0.4l0,0c0-0.1,0-0.2,0.1-0.3c0-0.1,0.1-0.2,0.1-0.2l0,0l-0.1-0.2v-0.5l0.1-0.1c0.1-0.1,0.1-0.1,0.1-0.1
				c0,0,0,0,0.1-0.1l0,0c0.1-0.1,0.2-0.1,0.2-0.2c0-0.1,0.1-0.1,0.1-0.2l0,0c0.2-0.2,0.4-0.3,0.6-0.5c0.2-0.1,0.4-0.3,0.6-0.4l0,0
				l0-0.1c0-0.4,0-0.8,0.1-1.2s0.1-0.8,0.1-1.2l0,0h-0.2c-0.1,0-0.2,0-0.4,0.1c-0.2,0.1-0.5,0.2-1,0.3l0,0h-0.1c-0.1,0-0.2,0-0.2,0
				l0,0l-0.5,0.1c-0.1,0-0.2,0-0.6,0.1c-0.3,0-0.6,0-0.9,0l0,0c-0.2,0-0.3,0-0.4,0c-0.1,0-0.2,0-0.2,0l0,0l-0.2,0l-0.2-0.5l-0.2-0.2
				l-0.2-0.5l0.1-0.5l0.5-0.1c0.1,0,0.2,0,0.4,0c0.2,0,0.4,0,0.4,0.1l0,0l0.2-0.1c0.2,0,0.3-0.1,0.3-0.1l0,0l0.6,0.1
				c0.1-0.1,0.3-0.2,0.6-0.2l0,0l0.4-0.1c0.3-0.1,0.6-0.2,0.9-0.2c0.3,0,0.6-0.1,1-0.2l0,0c0,0,0.1,0,0.3-0.1
				c0.2-0.1,0.3-0.1,0.3-0.1l0,0h0.3c0.1,0,0.1,0,0.1,0c0,0,0,0,0.1,0l0,0l0.4,0.1c0.1,0,0.2,0,0.3,0s0.1,0,0.2,0l0,0l0.4,0.2
				l0.4-0.1l0.5,0.4v0.2l-0.2,0.2v0.3l-0.3,0.3l0.2,0.2v0.1c0,0.3-0.1,0.6-0.2,0.9C369.8,174.4,369.7,174.7,369.7,175z M369.8,173.5
				l-0.2,0.4l0.1,0L369.8,173.5z M385.5,185.1l-0.3,0.1c-0.3-0.1-0.6-0.1-1-0.2c-0.3,0-0.7-0.1-1-0.1c-0.3,0-0.6-0.1-0.9-0.1
				c-0.3,0-0.5,0-0.7,0l0,0H381v0.3c0,0-0.1,0-0.2,0s-0.2,0-0.4-0.1l0,0h-0.1l-0.1,0.1l-0.5,0.1l-0.6-0.2c0,0-0.1,0.1-0.2,0.1
				c-0.1,0-0.1,0-0.2,0l0,0c-0.1,0-0.2-0.1-0.3-0.2c-0.1-0.1-0.1-0.2-0.1-0.3c0-0.1,0-0.2,0-0.4c0-0.1,0-0.2,0-0.2l0,0l-0.1-0.1
				c0,0,0-0.1,0-0.1l0,0h0h0c0,0,0-0.1,0-0.1c0,0,0,0,0-0.1l0,0l0-0.3l-0.1,0.1c0,0-0.1,0-0.1,0l0,0v-0.1c0-0.2,0-0.5,0.1-0.7
				c0.1-0.2,0.1-0.4,0.1-0.3l0,0h0.2c0-0.1-0.1-0.1-0.2-0.1c-0.1,0-0.1,0-0.1-0.2l0,0c0-0.1,0.1-0.2,0.2-0.2c0.2,0,0.3,0,0.3,0l0,0
				c0,0,0,0,0,0.1l0,0l0.1-0.1c0,0,0,0,0-0.1c0,0,0-0.1,0-0.1l0,0v-0.3c-0.1,0-0.2,0.1-0.2,0c0,0-0.1,0-0.3,0.1l0,0v-0.1
				c0-0.2,0.1-0.2,0.2-0.2l0,0h0.1v-0.2c-0.1,0-0.2,0-0.2,0.1c0,0.1-0.1,0.1-0.2,0.1l0,0c0-0.1,0-0.2,0-0.4c0-0.2,0.1-0.3,0.2-0.3
				l0,0v-0.4c0,0-0.1,0.1-0.1,0.1l0,0h-0.1c0-0.1,0.1-0.3,0.1-0.4l0,0v-0.1c0,0-0.1,0.1-0.1,0.3c0,0.1-0.1,0.2-0.1,0.3l0,0v-0.1
				c0-0.1,0-0.2,0-0.4c0-0.2,0-0.3,0-0.3l0,0l0.1-0.2l0.1,0.1l0.2-0.4h0.1c0,0,0-0.1,0-0.1c0,0,0-0.1,0-0.1l0,0v-0.1l-0.1,0.1
				l-0.2-0.2c0-0.1,0-0.2,0.1-0.3c0-0.1,0.1-0.2,0.1-0.3l0,0c0-0.2,0.1-0.5,0.2-0.7c0.1-0.2,0.1-0.4,0.2-0.6
				c0.1-0.2,0.1-0.5,0.1-0.8c0-0.3,0.1-0.6,0.1-1l0,0V175h-0.2c0,0,0-0.1-0.1-0.1l0,0c0,0,0-0.1,0.1-0.2c0.1-0.1,0.1-0.2,0.1-0.2
				l0,0c0-0.1,0-0.1,0-0.2l0,0c0-0.1,0-0.1,0-0.2c0-0.1,0.1-0.1,0.2-0.3c0.1-0.1,0.2-0.3,0.3-0.5c0.1-0.2,0.2-0.6,0.4-1l0,0H380
				l0.2-0.5c0-0.1,0.1-0.3,0.2-0.6c0.1-0.3,0.2-0.5,0.3-0.6l0,0l0.1,0.1c0,0,0,0,0.1,0c0.1,0,0.2,0,0.2-0.1l0,0
				c0.2,0.2,0.4,0.3,0.5,0.4c0.2,0.1,0.4,0.2,0.5,0.2c0.2,0.1,0.3,0.1,0.4,0.2c0.1,0.1,0.2,0.2,0.3,0.4l0,0c0,0-0.1,0.2-0.1,0.3
				c0,0.2-0.1,0.4-0.1,0.6c0,0.2-0.1,0.4-0.1,0.5s0,0.2,0,0.1l0,0h0.1c0.1,0,0.1,0,0.2,0c0.1,0,0.2,0,0.2,0l0,0
				c0.3-0.1,0.6-0.2,0.8-0.3c0.2-0.1,0.4-0.1,0.6-0.2c0.2,0,0.3-0.1,0.5-0.2c0.1-0.1,0.3-0.2,0.4-0.3l0,0c0.1,0,0.1,0,0.2,0l0,0
				c0.1,0,0.1,0,0.2-0.1c0,0,0.1-0.1,0.1-0.1c0.1,0,0.1-0.1,0.2-0.1c0.1,0,0.3-0.1,0.5-0.1l0,0c0,0,0.2,0,0.4,0.1
				c0.3,0.1,0.5,0.3,0.7,0.6l0,0c-0.1,0-0.2,0.2-0.3,0.5c-0.1,0.3-0.2,0.6-0.2,1c-0.1,0.4-0.1,0.7-0.2,1.1c0,0.4-0.1,0.7-0.1,0.9
				l0,0c-0.1,0.4-0.2,0.7-0.3,0.8c-0.1,0.1-0.1,0.2-0.1,0.3l0,0c0,0.1,0,0.1,0.1,0.2s0.2,0.1,0.3,0.2s0.2,0.1,0.3,0.2
				c0.1,0.1,0.2,0.1,0.2,0.2l0,0c0.1,0.1,0.1,0.2,0.2,0.3c0.1,0.2,0.1,0.2,0.1,0.3l0,0v0.6c0,0.2,0,0.5,0,0.9s0,0.6-0.1,0.9l0,0
				c-0.1,0-0.1,0.1-0.1,0.3c0,0.2,0,0.3,0,0.4l0,0l-0.1,0.2h0.1l-0.3,0.4l0,0.6c0,0.4-0.1,0.8-0.3,1.2c-0.2,0.3-0.3,0.7-0.3,1.1l0,0
				h-0.2l-0.3,0.2l-0.2,0L385.5,185.1z M381.3,183.2l0.2,0.1l0.1,0.1c0.3,0,0.6,0.1,1,0.1s0.6,0.1,0.9,0.1l0,0c0.2,0,0.6,0,1-0.1
				s0.7-0.1,1-0.3l0,0c0,0,0-0.1,0-0.3c0-0.1,0-0.3,0.1-0.4l0,0v0c0-0.1,0-0.2,0.1-0.3c0-0.1,0.1-0.2,0.1-0.3l0,0l0.1,0l-0.1-0.3
				c0-0.4,0-0.8,0.1-1.2s0.1-0.8,0.2-1.2l0,0c0-0.1-0.1-0.2-0.3-0.2c-0.2,0-0.3,0-0.4,0l0,0c-0.5,0-1.1,0.1-1.8,0.4
				c-0.6,0.3-1.2,0.5-1.7,0.9l0,0l-0.2,0c0,0-0.1,0.1-0.1,0.3c0,0.2-0.1,0.2-0.1,0.2l0,0h0l-0.2,0.6c0,0.3,0,0.6-0.1,0.8
				c0,0.3-0.1,0.5-0.1,0.8l0,0c0,0.1,0,0.2,0.1,0.2l0,0L381.3,183.2z M385.2,176.9l0.2-1c0,0,0,0,0,0l0,0c0-0.1,0.1-0.3,0.2-0.7
				c0.1-0.4,0.2-0.7,0.2-1.1l0,0c0-0.1,0-0.2-0.1-0.2l0,0c-0.5,0.2-1,0.4-1.5,0.6s-0.9,0.4-1.3,0.7l0,0l-0.4,0.3
				c-0.2,0.3-0.4,0.5-0.5,0.7c-0.1,0.2-0.1,0.3-0.1,0.5l0,0l0.1-0.1c0,0.2-0.1,0.4,0,0.5c0,0.1,0,0.2-0.2,0.4l0,0l-0.1,0h0.2v0.2
				c0,0,0,0.1,0,0.2s0,0.2,0,0.2l0,0c0,0.1,0,0.1,0,0.2c0,0,0,0.1,0,0.1l0,0c0,0.1,0,0.2-0.1,0.2l0,0h0.1c0,0,0.1,0,0.1,0
				s0.1,0,0.2,0l0,0c0,0,0.1,0,0.1,0l0,0c0.3-0.2,0.6-0.3,1-0.4s0.7-0.3,1-0.5l0,0l0.1-0.1c0.1,0,0.2-0.1,0.4-0.1
				C385,177.2,385.1,177.1,385.2,176.9L385.2,176.9z M389.6,182l0.1-0.2c0,0,0-0.1,0-0.1s0-0.1,0.1-0.1l0,0l0.1-0.1
				c0-0.3,0.1-0.6,0.3-1.1c0.2-0.4,0.4-0.7,0.7-0.9l0,0l0.2-0.1c0,0,0.1-0.1,0.1-0.1c0-0.1,0-0.1,0-0.2l0,0l0.1-0.2
				c0.2-0.2,0.3-0.5,0.5-0.7c0.2-0.2,0.4-0.4,0.6-0.6s0.4-0.3,0.5-0.4c0.2-0.1,0.3-0.2,0.4-0.2l0,0c0,0,0.1,0,0.1,0
				c0,0,0.1,0.1,0.3,0.1l0,0l0.3,0.4c0.1,0,0.2,0.1,0.2,0.2l0,0l0.1,0.2v0.5l0.1,0.1c0,0,0.1,0.1,0.1,0.1c0,0,0.1,0.1,0.1,0.1l0,0
				l0.4,0.2c0,0.1,0.1,0.2,0.2,0.3s0.2,0.2,0.3,0.4l0,0l0.4,0.5c0,0.1,0.1,0.2,0.1,0.3c0,0.2,0.1,0.3,0.1,0.5s0.1,0.4,0.1,0.5
				c0,0.2,0,0.3,0,0.3l0,0v0.2l-0.3,0.6l0,0.2l-0.3,0.3l-0.5,0.4c-0.1,0.1-0.2,0.1-0.4,0.1c-0.2,0-0.3,0.1-0.4,0.2l0,0l-0.2,0.1
				c-0.1,0.1-0.2,0.1-0.3,0.1l0,0c0,0,0,0,0,0c0,0,0,0,0,0l0,0l-0.4,0.1c-0.1,0.1-0.3,0.1-0.5,0.1l0,0c-0.1,0-0.3,0-0.3,0l0,0
				l-0.7-0.2l-0.7-0.2c-0.3-0.1-0.5-0.2-0.7-0.2s-0.3-0.3-0.5-0.6l0,0c0-0.1-0.1-0.2-0.1-0.3c0-0.1-0.1-0.2-0.1-0.2l0,0L389.6,182z
				 M392.1,182.1l0,0.7l0.2,0c0.2,0,0.4-0.1,0.6-0.1c0.2,0,0.4-0.1,0.5-0.1l0,0l0.3-0.2l0.2-0.3l0.1-0.3l-0.4-1.4l-0.5-0.2l-0.1,0.1
				c0,0-0.1,0.1-0.2,0.2c-0.1,0.1-0.2,0.3-0.3,0.5s-0.2,0.4-0.3,0.6S392.2,181.9,392.1,182.1L392.1,182.1z M391.2,180.3l-0.2-0.1
				c-0.1,0.1-0.2,0.3-0.4,0.5s-0.2,0.5-0.2,0.7l0,0c0,0.1,0,0.1,0,0.2l0,0l0.1-0.2l0.5-0.9C391.1,180.4,391.2,180.3,391.2,180.3
				L391.2,180.3z M398.1,181.9l-0.1-0.5l0.3-0.8c0,0,0-0.1,0-0.1c0,0,0-0.1,0-0.1l0,0c0-0.2,0-0.4,0.1-0.6c0.1-0.2,0.2-0.5,0.3-0.7
				c0.1-0.3,0.3-0.5,0.4-0.8c0.2-0.3,0.3-0.5,0.4-0.7l0,0c0,0,0,0,0-0.1l0,0c0-0.1,0-0.2,0.1-0.2c0.1-0.1,0.1-0.1,0.2-0.1l0,0
				c0.2,0,0.4,0,0.6,0.1c0.2,0.1,0.4,0.2,0.6,0.3s0.4,0.3,0.5,0.5c0.1,0.2,0.2,0.4,0.2,0.6l0,0l-0.1,0.2l2.4-1h0.5
				c0,0,0-0.1,0.1-0.1s0.1,0,0.1,0l0,0c0.1,0,0.2,0,0.3,0.1c0.1,0,0.1,0.1,0.2,0.2l0,0l0.4,0.1c0.1,0,0.2,0.1,0.4,0.2
				c0.2,0.1,0.3,0.2,0.3,0.2l0,0v0.5h-0.1l0,0.1c0,0,0,0,0,0l0,0h0.1c0,0,0,0,0.1,0l0,0v0.1l-0.1,0.1c0,0.2,0,0.3,0.1,0.3l0,0
				c0,0.2,0,0.5-0.1,0.8s-0.2,0.5-0.3,0.6l0,0h0.2c0,0-0.1,0.1-0.1,0.2l0,0c0,0.1,0,0.1,0,0.1c0,0,0,0,0,0l0,0c0,0.2,0,0.3-0.1,0.5
				c-0.1,0.2-0.1,0.3-0.1,0.4l0,0l-0.1,0.5c0,0.2-0.1,0.3-0.1,0.4c-0.1,0.1-0.1,0.3-0.1,0.5l0,0l0.1,0.2c0,0.1,0,0.1-0.1,0.2
				c-0.1,0.1-0.1,0.2-0.1,0.3l0,0c0,0.2,0,0.3,0.1,0.4l0,0v0.1l-0.2,0.1l-0.1,0.2c-0.1,0-0.2,0.1-0.2,0.1S405,185,405,185
				c0,0-0.1,0-0.1,0s-0.2,0-0.4,0l0,0c-0.2,0-0.4-0.1-0.5-0.2c-0.1-0.2-0.2-0.4-0.3-0.6c-0.1-0.2-0.1-0.4-0.1-0.7c0-0.2,0-0.4,0-0.5
				l0,0c0-0.3,0-0.6,0-0.8s0-0.4,0-0.6c0-0.2,0-0.4,0-0.6c0-0.2,0.1-0.5,0.1-0.8l0,0c0-0.1,0-0.2,0-0.4c0-0.2,0-0.3,0-0.4l0,0
				l-0.3,0.1c-0.5,0.2-0.9,0.5-1.4,0.8s-0.7,0.7-0.8,1.1l0,0l-0.1,0.3l0.1,0.1c0,0.1-0.1,0.2-0.1,0.2c0,0.1,0,0.2,0,0.4l0,0l0.2-0.2
				v0c0,0.3-0.1,0.5-0.3,0.6c-0.2,0.1-0.3,0.3-0.3,0.5l0,0l0.2,0.8L401,185h-0.3c0,0-0.1,0.1-0.2,0.1c-0.1,0.1-0.1,0.1-0.2,0.1l0,0
				l-1.5-0.2l-1-0.5l0.3-0.4c0,0-0.1,0.1-0.1,0.1l0,0h0c-0.1,0-0.1,0-0.1,0l0,0c0-0.1,0-0.2,0.1-0.2l0,0l0.1,0.1l0.5-0.6
				c0-0.1,0-0.1-0.1-0.2l0,0c-0.1,0.1-0.1,0.1-0.1,0.1s-0.1,0-0.3,0l0,0c0-0.2,0-0.4,0.1-0.5c0.1-0.1,0.1-0.2,0.1-0.4l0,0h-0.1
				c0,0-0.1,0-0.2-0.1l0,0c0,0-0.1,0-0.1,0c0,0-0.1,0-0.1,0l0,0c0-0.1,0.1-0.2,0.2-0.3S398.1,182,398.1,181.9L398.1,181.9z
				 M398.4,183.1L398.4,183.1c0.1,0,0.1,0,0.1-0.1c0-0.1,0-0.3,0.1-0.5l0,0c-0.1,0-0.1,0.1-0.2,0.2
				C398.4,182.8,398.4,183,398.4,183.1L398.4,183.1C398.4,183.1,398.4,183.1,398.4,183.1z M398.1,182.4l0-0.2H398v0
				C398,182.3,398,182.4,398.1,182.4L398.1,182.4z M398.1,183L398.1,183l0.1-0.1C398.1,182.8,398.1,182.9,398.1,183L398.1,183
				C398.1,182.9,398.1,182.9,398.1,183C398.1,182.9,398.1,182.9,398.1,183L398.1,183z M398.2,182.1L398.2,182.1l0.1-0.1L398.2,182.1
				z M411,181.7L411,181.7c0.2-0.1,0.2-0.1,0.3-0.2c0.1-0.1,0.1-0.1,0.2-0.2c0-0.1,0.1-0.1,0.1-0.2c0.1-0.1,0.1-0.1,0.2-0.1l0,0
				c0.3,0,0.5-0.1,0.7-0.3s0.4-0.7,0.4-1.5l0,0v-0.6c0-0.1,0-0.2-0.1-0.3c-0.1-0.1-0.1-0.1-0.2-0.1l0,0c0,0-0.1,0.1-0.2,0.1
				c-0.1,0.1-0.3,0.1-0.4,0.2c-0.1,0.1-0.3,0.2-0.4,0.3c-0.1,0.1-0.3,0.2-0.3,0.3l0,0v0.3c0,0.3-0.1,0.7-0.2,1.1
				c-0.1,0.4-0.2,0.8-0.2,1.1l0,0H411z M415.4,180.6v0.2l-0.4,0.5l-0.2,0.1c-0.2,0.1-0.4,0.2-0.6,0.3c-0.2,0.1-0.4,0.2-0.6,0.3l0,0
				l-0.1,0.1h-0.2c-0.1,0-0.2,0-0.2,0.1c0,0.1-0.1,0.1-0.2,0.2l0,0c-0.2,0-0.4,0.1-0.4,0.1c-0.1,0-0.1,0.1-0.1,0.1l0,0
				c0,0,0,0.1,0,0.1l0,0c0,0,0,0-0.1,0.1c-0.1,0-0.1,0-0.2,0c-0.1,0-0.2,0-0.2,0c-0.1,0-0.1,0-0.1,0l0,0h-0.2
				c-0.1,0.1-0.2,0.1-0.5,0.1c-0.3,0-0.5,0.1-0.6,0.2l0,0l0.2,0.7c0.1,0,0.2,0.1,0.4,0.1c0.2,0,0.4,0.1,0.5,0.1c0.2,0,0.4,0,0.5,0
				c0.2,0,0.3,0,0.4,0l0,0c0.3,0,0.6,0,0.8,0s0.6,0,0.9,0l0,0c0.3,0,0.6,0,0.8,0.1c0.3,0.1,0.5,0.2,0.8,0.3l0,0v0.2
				c0,0.1,0,0.2,0,0.4c0,0.1,0,0.2-0.1,0.3l0,0l-0.1,0.1c0,0-0.1,0-0.2,0.1s-0.3,0.1-0.5,0.1c-0.2,0-0.4,0.1-0.6,0.1
				c-0.2,0-0.3,0-0.4,0l0,0c-0.4,0-0.8,0-1.2,0c-0.4,0-0.8,0-1.2,0l0,0c-0.3,0-0.6-0.1-1-0.2c-0.4-0.1-0.7-0.2-1-0.4
				c-0.3-0.2-0.6-0.4-0.8-0.7c-0.2-0.3-0.4-0.6-0.4-0.9l0,0l0.1-0.2c0,0,0-0.1,0-0.2s0-0.3,0.1-0.4l0,0v-0.3h0.2l0,0
				c0-0.1,0-0.2,0-0.2l0,0c0,0,0,0,0-0.1c0,0,0-0.1,0-0.1l0,0c0,0,0-0.1,0.1-0.1l0,0l0-0.4c0-0.1,0-0.2,0-0.3c0-0.1,0.1-0.2,0.1-0.4
				l0,0l0.1-0.1c0-0.1,0-0.2-0.1-0.2l0,0c0.1,0,0.1-0.1,0.1-0.2c0-0.1,0.1-0.2,0.1-0.2l0,0c0,0,0,0,0,0c0,0,0,0,0,0l0,0l0.1,0.1
				c0,0,0,0,0,0l0,0h0.1c0.1,0,0.1,0,0.1-0.1l0,0c0-0.1,0-0.2-0.1-0.3c-0.1-0.1-0.1-0.2-0.1-0.3l0,0c0,0,0-0.1,0-0.1l0,0
				c0,0,0-0.1,0-0.1c0,0,0,0,0-0.1l0,0l0.1,0c0.1-0.3,0.3-0.5,0.4-0.7c0.2-0.2,0.3-0.3,0.5-0.5l0,0l0.2-0.1c0.3-0.2,0.6-0.4,0.8-0.6
				c0.3-0.2,0.6-0.3,0.9-0.3l0,0c0.3,0,0.7,0,1.1,0.1c0.4,0.1,0.8,0.1,1.1,0.1l0,0c0.5,0.2,0.8,0.4,0.8,0.4c0.1,0.1,0.1,0.1,0.2,0.1
				l0,0l0,0.3l0.2,0.2l0.1,0.2l-0.2,0.3l0.2,0.2l-0.2,0.3c0,0-0.1,0.1-0.1,0.2s0,0.1,0,0.2l0,0l0,0l0,0.2l-0.1,0.3l0.2,0.1v0.2
				L415.4,180.6L415.4,180.6z M415.5,179.5L415.5,179.5L415.5,179.5c0.1,0,0.1,0,0.1,0.1l0,0c0,0.1,0,0.1-0.1,0.1l0,0
				C415.4,179.7,415.4,179.7,415.5,179.5L415.5,179.5C415.4,179.5,415.4,179.5,415.5,179.5z M415.6,179.9L415.6,179.9
				c0,0.1,0,0.1-0.1,0.1l0,0c0,0-0.1,0-0.1-0.1l0,0C415.5,179.9,415.5,179.9,415.6,179.9L415.6,179.9
				C415.5,179.9,415.6,179.9,415.6,179.9z M421.8,182l-0.5,0.7c-0.1,0.1-0.2,0.3-0.3,0.4c-0.1,0.1-0.2,0.2-0.2,0.2l0,0v0.1
				c0.1,0,0.2,0,0.4,0s0.3,0,0.4,0l0,0l0.2-0.1l0.3,0.1l0.1,0.2l0.1-0.1l0-0.1l0.2-0.1l0.2,0.2l0.6,0.2l0.1,0l-0.1,0.1l0.1,0.1
				l0.2,0l0-0.1l0.6,0.2h0.5c0.1,0,0.2,0,0.4,0c0.2,0,0.3,0,0.5,0.1c0.2,0,0.3,0.1,0.4,0.1c0.1,0,0.2,0,0.2,0l0,0l0.3,0.1l0.7,0.4
				l-0.3,0.6l0.1,0.1l-0.1,0.1c-0.1,0-0.3,0.1-0.4,0.1s-0.2,0-0.4,0l0,0c-0.1,0-0.2,0-0.2,0c-0.1,0-0.2,0-0.2,0l0,0
				c-0.1,0-0.1,0-0.2,0l0,0c-0.4,0-0.8-0.1-1.2-0.1c-0.4,0-0.7,0-1.1,0l0,0c-0.6,0-1.1,0-1.6,0c-0.5,0-1.1,0-1.7,0l0,0
				c-0.2,0-0.4,0-0.7,0c-0.2,0-0.4,0-0.7,0l0,0l-0.6-0.6c0,0-0.1-0.1-0.1-0.3c-0.1-0.1-0.1-0.2-0.1-0.3l0,0l-0.1-0.3v-0.9l0.1-0.3
				h0.1l0.5-0.5h0.1l1.2-1.4v0c0-0.1,0.1-0.2,0.2-0.2l0,0l-0.1-0.1c0.1-0.1,0.3-0.3,0.4-0.4c0.2-0.1,0.4-0.3,0.6-0.5
				c0.2-0.2,0.5-0.5,0.8-0.7s0.6-0.7,0.9-1.1l0,0l-1.2,0.1c-0.1,0-0.2,0-0.3,0c-0.1,0-0.3,0.1-0.5,0.1l0,0h-0.7
				c-0.2,0-0.4-0.1-0.6-0.3c-0.2-0.2-0.4-0.4-0.4-0.6l0,0l-0.1-0.2c0,0,0-0.1,0-0.1c0-0.1-0.1-0.1-0.1-0.1l0,0c0-0.1,0-0.1,0.1-0.2
				l0,0l0.2-0.1c0.4,0,0.7,0,1,0s0.6-0.1,0.8-0.1c0.3-0.1,0.5-0.1,0.8-0.1c0.3,0,0.6,0,0.9,0l0,0h0.5c0.1,0,0.1,0,0.2,0
				c0.1,0,0.2,0,0.3,0l0,0l1.7,0.4c0,0,0.1,0.1,0.2,0.1c0.1,0,0.2,0.1,0.4,0.3l0,0l-0.1,0.5c0,0.1-0.1,0.3-0.3,0.6
				c-0.2,0.3-0.4,0.5-0.5,0.6l0,0l-0.5,0.6c-0.1,0.1-0.1,0.1-0.2,0.1l0,0l-0.4,0.2l-0.2,0.3c-0.1,0.2-0.2,0.3-0.2,0.4
				s-0.1,0.2-0.3,0.3l0,0l0.1,0.1l-0.7,0.7l0-0.2l-0.2,0.5L421.8,182z"/>
		</g>
	</g>
	<g transform="rotate(0 168.22129999999999 0)">
		<g transform="matrix(1 0 0 1 0 0)">
			<g>
				<path class="st0" d="M182.8,102.8l10.9,18.8c5.3,9.1,15,14.8,25.6,14.8h22.6L202.7,68L182.8,102.8L182.8,102.8z"/>
				<path class="st0" d="M301,33.4l-39.5,68.7l40,0.1l10.6-18.3c5.6-9.7,5.6-21.7,0-31.4L301,33.4L301,33.4z"/>
				<path class="st0" d="M191.5,18.5l-9.4,16.3l79.8,0L241.8,0h-18.3C210.3,0,198.1,7.1,191.5,18.5z"/>
				<path class="st0" d="M182,34.4l-8.9,15.4c-6.6,11.4-6.6,25.5,0,36.9l9.5,16.5l39.4-68.8C222.1,34.4,182,34.4,182,34.4z"/>
				<path class="st0" d="M242,136.4h18.2c13.2,0,25.4-7,31.9-18.4l9.3-16.1l-79.3-0.1L242,136.4L242,136.4z"/>
				<path class="st2" d="M182.8,102.8l10.9,18.8c5.3,9.1,15,14.8,25.6,14.8h22.6L202.7,68L182.8,102.8L182.8,102.8z"/>
				<path class="st3" d="M241.8,0l39.3,68.6l19.9-34.8l-8.8-15.3C285.7,7,273.5,0,260.4,0H241.8z"/>
				<path class="st4" d="M301,33.4l-39.5,68.7l40,0.1l10.6-18.3c5.6-9.7,5.6-21.7,0-31.4L301,33.4L301,33.4z"/>
				<path class="st5" d="M182,34.4l-8.9,15.4c-6.6,11.4-6.6,25.5,0,36.9l9.5,16.5l39.4-68.8C222.1,34.4,182,34.4,182,34.4z"/>
				<path class="st6" d="M242,136.4h18.2c13.2,0,25.4-7,31.9-18.4l9.3-16.1l-79.3-0.1L242,136.4L242,136.4z"/>
			</g>
		</g>
	</g>
</g>
</svg>
