<?xml version="1.0" encoding="utf-8"?>
<!-- Generator: Adobe Illustrator 24.2.1, SVG Export Plug-In . SVG Version: 6.00 Build 0)  -->
<svg version="1.1" id="Layer_1" xmlns="http://www.w3.org/2000/svg" xmlns:xlink="http://www.w3.org/1999/xlink" x="0px" y="0px"
	 viewBox="0 0 677.5 126.4" style="enable-background:new 0 0 677.5 126.4;" xml:space="preserve">
<style type="text/css">
	.st0{fill:#E9E41D;}
	.st1{fill:#141414;}
	.st2{fill:#353535;fill-opacity:0;stroke:#E5E5E5;stroke-width:4;}
	.st3{fill:#E5E5E5;}
	.st4{fill:#5B5B5B;}
</style>
<g>
	<g transform="rotate(0 80.0001 0)">
		<rect x="80" class="st0" width="597.5" height="84"/>
	</g>
	<g transform="rotate(0 111.0359 108)">
		<g transform="matrix(1 0 0 1 0 0)">
			<path class="st0" d="M120.1,115.6c0.8,0.2,1.4,0.6,1.8,1.2c0.4,0.6,0.7,1.3,0.7,2.2l0,0c0,1.2-0.4,2.1-1.3,2.7
				c-0.9,0.6-2.2,0.9-3.8,0.9l0,0H111v-13.5h6c1.5,0,2.7,0.3,3.6,0.9s1.3,1.5,1.3,2.6l0,0c0,0.7-0.2,1.3-0.5,1.8
				C121.1,114.9,120.6,115.3,120.1,115.6L120.1,115.6z M116.9,110.7H113v4.3h3.9c1,0,1.7-0.2,2.3-0.5c0.5-0.4,0.8-0.9,0.8-1.6l0,0
				c0-0.7-0.3-1.2-0.8-1.6C118.6,110.8,117.9,110.7,116.9,110.7L116.9,110.7z M117.4,121c1.1,0,1.9-0.2,2.5-0.5
				c0.6-0.4,0.8-0.9,0.8-1.7l0,0c0-1.5-1.1-2.2-3.3-2.2l0,0H113v4.5H117.4z M130,112.3c1.4,0,2.5,0.3,3.2,1c0.7,0.7,1.1,1.7,1.1,3.1
				l0,0v6.2h-1.7v-1.3c-0.3,0.5-0.7,0.8-1.3,1.1c-0.6,0.2-1.2,0.4-2,0.4l0,0c-1.1,0-2.1-0.3-2.7-0.8c-0.7-0.6-1-1.3-1-2.2l0,0
				c0-0.9,0.3-1.6,1-2.2c0.7-0.5,1.7-0.8,3.1-0.8l0,0h2.9v-0.4c0-0.8-0.2-1.4-0.7-1.8c-0.5-0.4-1.1-0.6-2-0.6l0,0
				c-0.6,0-1.2,0.1-1.8,0.3s-1.1,0.5-1.5,0.8l0,0l-0.8-1.4c0.5-0.4,1.2-0.7,1.9-1C128.4,112.4,129.2,112.3,130,112.3L130,112.3z
				 M129.6,121.2c0.7,0,1.3-0.2,1.8-0.5c0.5-0.3,0.9-0.8,1.1-1.3l0,0V118h-2.8c-1.6,0-2.3,0.5-2.3,1.6l0,0c0,0.5,0.2,0.9,0.6,1.2
				S128.9,121.2,129.6,121.2L129.6,121.2z M144.2,112.3c1.3,0,2.3,0.4,3.1,1.1c0.8,0.7,1.1,1.8,1.1,3.3l0,0v5.9h-1.8v-5.7
				c0-1-0.2-1.7-0.7-2.2c-0.5-0.5-1.2-0.7-2-0.7l0,0c-1,0-1.8,0.3-2.4,0.9c-0.6,0.6-0.9,1.4-0.9,2.5l0,0v5.2h-1.8v-10.2h1.8v1.5
				c0.4-0.5,0.9-0.9,1.5-1.2C142.7,112.4,143.4,112.3,144.2,112.3L144.2,112.3z M160.6,108.3h1.8v14.3h-1.8v-1.6
				c-0.4,0.6-0.9,1-1.6,1.3c-0.6,0.3-1.3,0.4-2.1,0.4l0,0c-1,0-1.9-0.2-2.7-0.7c-0.8-0.4-1.4-1-1.8-1.8c-0.4-0.8-0.7-1.7-0.7-2.7
				l0,0c0-1,0.2-1.9,0.7-2.7c0.4-0.8,1.1-1.4,1.8-1.8c0.8-0.4,1.7-0.7,2.7-0.7l0,0c0.7,0,1.4,0.1,2,0.4c0.6,0.3,1.1,0.7,1.5,1.2l0,0
				V108.3z M157.2,121.1c0.6,0,1.2-0.2,1.7-0.5s0.9-0.7,1.2-1.3c0.3-0.5,0.4-1.2,0.4-1.9l0,0c0-0.7-0.1-1.3-0.4-1.9
				c-0.3-0.5-0.7-1-1.2-1.3s-1.1-0.4-1.7-0.4l0,0c-0.7,0-1.2,0.1-1.8,0.4s-0.9,0.7-1.2,1.3c-0.3,0.5-0.5,1.2-0.5,1.9l0,0
				c0,0.7,0.2,1.3,0.5,1.9c0.3,0.5,0.7,1,1.2,1.3S156.6,121.1,157.2,121.1L157.2,121.1z M187.7,122.6h-1.8l0-9.8l-4.9,8.2H180
				l-4.9-8.1v9.7h-1.8v-13.5h1.6l5.6,9.5l5.5-9.5h1.6L187.7,122.6z M196.1,112.3c1.4,0,2.5,0.3,3.2,1c0.7,0.7,1.1,1.7,1.1,3.1l0,0
				v6.2h-1.7v-1.3c-0.3,0.5-0.7,0.8-1.3,1.1s-1.2,0.4-2,0.4l0,0c-1.1,0-2.1-0.3-2.7-0.8c-0.7-0.6-1-1.3-1-2.2l0,0
				c0-0.9,0.3-1.6,1-2.2c0.7-0.5,1.7-0.8,3.1-0.8l0,0h2.9v-0.4c0-0.8-0.2-1.4-0.7-1.8c-0.5-0.4-1.1-0.6-2-0.6l0,0
				c-0.6,0-1.2,0.1-1.8,0.3s-1.1,0.5-1.5,0.8l0,0l-0.8-1.4c0.5-0.4,1.2-0.7,1.9-1C194.5,112.4,195.3,112.3,196.1,112.3L196.1,112.3z
				 M195.7,121.2c0.7,0,1.3-0.2,1.8-0.5c0.5-0.3,0.9-0.8,1.1-1.3l0,0V118h-2.8c-1.6,0-2.3,0.5-2.3,1.6l0,0c0,0.5,0.2,0.9,0.6,1.2
				C194.4,121.1,195,121.2,195.7,121.2L195.7,121.2z M210.3,112.3c1.3,0,2.3,0.4,3.1,1.1c0.8,0.7,1.1,1.8,1.1,3.3l0,0v5.9h-1.8v-5.7
				c0-1-0.2-1.7-0.7-2.2c-0.5-0.5-1.2-0.7-2-0.7l0,0c-1,0-1.8,0.3-2.4,0.9c-0.6,0.6-0.9,1.4-0.9,2.5l0,0v5.2h-1.8v-10.2h1.8v1.5
				c0.4-0.5,0.9-0.9,1.5-1.2C208.8,112.4,209.5,112.3,210.3,112.3L210.3,112.3z M222.6,112.3c1.4,0,2.5,0.3,3.2,1
				c0.7,0.7,1.1,1.7,1.1,3.1l0,0v6.2h-1.7v-1.3c-0.3,0.5-0.7,0.8-1.3,1.1c-0.6,0.2-1.2,0.4-2,0.4l0,0c-1.1,0-2.1-0.3-2.7-0.8
				c-0.7-0.6-1-1.3-1-2.2l0,0c0-0.9,0.3-1.6,1-2.2c0.7-0.5,1.7-0.8,3.1-0.8l0,0h2.9v-0.4c0-0.8-0.2-1.4-0.7-1.8s-1.1-0.6-2-0.6l0,0
				c-0.6,0-1.2,0.1-1.8,0.3s-1.1,0.5-1.5,0.8l0,0l-0.8-1.4c0.5-0.4,1.2-0.7,1.9-1S221.8,112.3,222.6,112.3L222.6,112.3z
				 M222.2,121.2c0.7,0,1.3-0.2,1.8-0.5c0.5-0.3,0.9-0.8,1.1-1.3l0,0V118h-2.8c-1.6,0-2.3,0.5-2.3,1.6l0,0c0,0.5,0.2,0.9,0.6,1.2
				C220.9,121.1,221.5,121.2,222.2,121.2L222.2,121.2z M239.4,112.4h1.7v8.8c0,1.8-0.4,3.1-1.3,4c-0.9,0.9-2.2,1.3-4,1.3l0,0
				c-1,0-1.9-0.1-2.7-0.4s-1.6-0.6-2.1-1.1l0,0l0.9-1.4c0.5,0.4,1.1,0.7,1.8,1c0.7,0.2,1.4,0.4,2.2,0.4l0,0c1.2,0,2.1-0.3,2.6-0.8
				c0.6-0.6,0.9-1.4,0.9-2.6l0,0v-0.8c-0.4,0.5-1,0.9-1.6,1.2c-0.6,0.3-1.3,0.4-2.1,0.4l0,0c-1,0-1.9-0.2-2.6-0.6s-1.4-1-1.9-1.7
				c-0.4-0.7-0.7-1.6-0.7-2.6l0,0c0-1,0.2-1.8,0.7-2.6c0.4-0.7,1.1-1.3,1.9-1.7c0.8-0.4,1.7-0.6,2.6-0.6l0,0c0.8,0,1.5,0.1,2.1,0.4
				c0.7,0.3,1.2,0.7,1.6,1.2l0,0V112.4z M235.9,120.5c0.7,0,1.3-0.1,1.8-0.4c0.5-0.3,0.9-0.7,1.2-1.2c0.3-0.5,0.5-1.1,0.5-1.7l0,0
				c0-1-0.3-1.8-1-2.4c-0.7-0.6-1.5-0.9-2.5-0.9l0,0c-1,0-1.9,0.3-2.5,0.9c-0.7,0.6-1,1.4-1,2.4l0,0c0,0.6,0.2,1.2,0.5,1.7
				c0.3,0.5,0.7,0.9,1.2,1.2C234.6,120.4,235.2,120.5,235.9,120.5L235.9,120.5z M254.9,117.5c0,0.1,0,0.3,0,0.6l0,0h-8.3
				c0.1,0.9,0.5,1.6,1.2,2.2c0.7,0.5,1.5,0.8,2.5,0.8l0,0c1.2,0,2.2-0.4,2.9-1.2l0,0l1,1.2c-0.5,0.5-1,0.9-1.7,1.2
				c-0.7,0.3-1.5,0.4-2.3,0.4l0,0c-1.1,0-2-0.2-2.9-0.7c-0.8-0.4-1.5-1.1-1.9-1.9c-0.5-0.8-0.7-1.7-0.7-2.7l0,0c0-1,0.2-1.9,0.7-2.7
				c0.4-0.8,1.1-1.4,1.8-1.9c0.8-0.4,1.7-0.7,2.6-0.7l0,0c1,0,1.8,0.2,2.6,0.7c0.8,0.4,1.4,1.1,1.8,1.9
				C254.6,115.6,254.9,116.5,254.9,117.5L254.9,117.5z M249.8,113.8c-0.9,0-1.6,0.3-2.2,0.8c-0.6,0.5-0.9,1.2-1,2.1l0,0h6.5
				c-0.1-0.9-0.5-1.6-1-2.1C251.4,114.1,250.7,113.8,249.8,113.8L249.8,113.8z M260.1,114.1c0.3-0.6,0.8-1,1.4-1.3
				c0.6-0.3,1.4-0.5,2.3-0.5l0,0v1.8c-0.1,0-0.2,0-0.4,0l0,0c-1,0-1.8,0.3-2.4,0.9c-0.6,0.6-0.9,1.4-0.9,2.5l0,0v5.1h-1.8v-10.2h1.8
				V114.1z M283.1,110.8h-7.6v4.7h6.7v1.7h-6.7v5.4h-1.9v-13.5h9.5V110.8z M288.1,114.1c0.3-0.6,0.8-1,1.4-1.3
				c0.6-0.3,1.4-0.5,2.3-0.5l0,0v1.8c-0.1,0-0.2,0-0.4,0l0,0c-1,0-1.8,0.3-2.4,0.9s-0.9,1.4-0.9,2.5l0,0v5.1h-1.8v-10.2h1.8V114.1z
				 M299.3,122.7c-1,0-1.9-0.2-2.7-0.7c-0.8-0.4-1.4-1.1-1.9-1.9c-0.5-0.8-0.7-1.7-0.7-2.7l0,0c0-1,0.2-1.9,0.7-2.7
				c0.5-0.8,1.1-1.4,1.9-1.8c0.8-0.4,1.7-0.7,2.7-0.7l0,0c1,0,1.9,0.2,2.7,0.7s1.4,1.1,1.9,1.8c0.5,0.8,0.7,1.7,0.7,2.7l0,0
				c0,1-0.2,1.9-0.7,2.7c-0.5,0.8-1.1,1.4-1.9,1.9S300.3,122.7,299.3,122.7L299.3,122.7z M299.3,121.1c0.7,0,1.2-0.2,1.8-0.5
				c0.5-0.3,0.9-0.7,1.2-1.3c0.3-0.5,0.4-1.2,0.4-1.9l0,0c0-0.7-0.1-1.3-0.4-1.9c-0.3-0.5-0.7-1-1.2-1.3c-0.5-0.3-1.1-0.4-1.8-0.4
				l0,0c-0.7,0-1.2,0.1-1.8,0.4c-0.5,0.3-0.9,0.7-1.2,1.3c-0.3,0.5-0.5,1.2-0.5,1.9l0,0c0,0.7,0.2,1.3,0.5,1.9
				c0.3,0.5,0.7,1,1.2,1.3C298.1,120.9,298.6,121.1,299.3,121.1L299.3,121.1z M313.5,112.3c1.3,0,2.3,0.4,3.1,1.1
				c0.8,0.7,1.1,1.8,1.1,3.3l0,0v5.9h-1.8v-5.7c0-1-0.2-1.7-0.7-2.2c-0.5-0.5-1.2-0.7-2-0.7l0,0c-1,0-1.8,0.3-2.4,0.9
				c-0.6,0.6-0.9,1.4-0.9,2.5l0,0v5.2h-1.8v-10.2h1.8v1.5c0.4-0.5,0.9-0.9,1.5-1.2C312,112.4,312.7,112.3,313.5,112.3L313.5,112.3z
				 M327.3,120.6l0.6,1.3c-0.3,0.2-0.6,0.4-1,0.5c-0.4,0.1-0.8,0.2-1.2,0.2l0,0c-1,0-1.8-0.3-2.4-0.8c-0.6-0.6-0.8-1.3-0.8-2.4l0,0
				v-5.6h-1.7v-1.5h1.7v-2.2h1.8v2.2h2.9v1.5h-2.9v5.5c0,0.6,0.1,1,0.4,1.3c0.3,0.3,0.7,0.4,1.2,0.4l0,0
				C326.4,121.1,326.9,121,327.3,120.6L327.3,120.6z M351.8,122.6H350l0-9.8l-4.9,8.2h-0.9l-4.9-8.1v9.7h-1.8v-13.5h1.6l5.6,9.5
				l5.5-9.5h1.6L351.8,122.6z M360.3,112.3c1.4,0,2.5,0.3,3.2,1c0.7,0.7,1.1,1.7,1.1,3.1l0,0v6.2h-1.7v-1.3
				c-0.3,0.5-0.7,0.8-1.3,1.1c-0.6,0.2-1.2,0.4-2,0.4l0,0c-1.1,0-2.1-0.3-2.7-0.8c-0.7-0.6-1-1.3-1-2.2l0,0c0-0.9,0.3-1.6,1-2.2
				c0.7-0.5,1.7-0.8,3.1-0.8l0,0h2.9v-0.4c0-0.8-0.2-1.4-0.7-1.8c-0.5-0.4-1.1-0.6-2-0.6l0,0c-0.6,0-1.2,0.1-1.8,0.3
				s-1.1,0.5-1.5,0.8l0,0l-0.8-1.4c0.5-0.4,1.2-0.7,1.9-1S359.4,112.3,360.3,112.3L360.3,112.3z M359.8,121.2c0.7,0,1.3-0.2,1.8-0.5
				c0.5-0.3,0.9-0.8,1.1-1.3l0,0V118h-2.8c-1.6,0-2.3,0.5-2.3,1.6l0,0c0,0.5,0.2,0.9,0.6,1.2C358.6,121.1,359.1,121.2,359.8,121.2
				L359.8,121.2z M374.4,112.3c1.3,0,2.3,0.4,3.1,1.1c0.8,0.7,1.1,1.8,1.1,3.3l0,0v5.9h-1.8v-5.7c0-1-0.2-1.7-0.7-2.2
				c-0.5-0.5-1.2-0.7-2-0.7l0,0c-1,0-1.8,0.3-2.4,0.9c-0.6,0.6-0.9,1.4-0.9,2.5l0,0v5.2H369v-10.2h1.8v1.5c0.4-0.5,0.9-0.9,1.5-1.2
				C372.9,112.4,373.6,112.3,374.4,112.3L374.4,112.3z M389.5,126.3v-18h1.7v18H389.5z M402.3,122.6v-13.5h1.9v11.8h7.3v1.7H402.3z
				 M423.5,117.5c0,0.1,0,0.3,0,0.6l0,0h-8.3c0.1,0.9,0.5,1.6,1.2,2.2c0.7,0.5,1.5,0.8,2.5,0.8l0,0c1.2,0,2.2-0.4,2.9-1.2l0,0l1,1.2
				c-0.5,0.5-1,0.9-1.7,1.2c-0.7,0.3-1.5,0.4-2.3,0.4l0,0c-1.1,0-2-0.2-2.9-0.7c-0.8-0.4-1.5-1.1-1.9-1.9c-0.5-0.8-0.7-1.7-0.7-2.7
				l0,0c0-1,0.2-1.9,0.7-2.7c0.4-0.8,1.1-1.4,1.8-1.9c0.8-0.4,1.7-0.7,2.6-0.7l0,0c1,0,1.8,0.2,2.6,0.7s1.4,1.1,1.8,1.9
				C423.3,115.6,423.5,116.5,423.5,117.5L423.5,117.5z M418.4,113.8c-0.9,0-1.6,0.3-2.2,0.8c-0.6,0.5-0.9,1.2-1,2.1l0,0h6.5
				c-0.1-0.9-0.5-1.6-1-2.1C420.1,114.1,419.3,113.8,418.4,113.8L418.4,113.8z M440.6,112.4h1.7l-3.8,10.2h-1.8l-2.9-7.7l-3,7.7H429
				l-3.8-10.2h1.7l3,8.1l3.1-8.1h1.6l3,8.2L440.6,112.4z M445.1,122.6v-10.2h1.8v10.2H445.1z M446,110.4c-0.4,0-0.7-0.1-0.9-0.3
				c-0.2-0.2-0.4-0.5-0.4-0.8l0,0c0-0.3,0.1-0.6,0.4-0.9c0.2-0.2,0.5-0.4,0.9-0.4l0,0c0.4,0,0.7,0.1,0.9,0.3
				c0.2,0.2,0.4,0.5,0.4,0.8l0,0c0,0.3-0.1,0.6-0.4,0.9C446.6,110.3,446.3,110.4,446,110.4L446,110.4z M454.3,122.7
				c-0.8,0-1.6-0.1-2.4-0.3c-0.8-0.2-1.4-0.5-1.8-0.9l0,0l0.8-1.5c0.4,0.3,1,0.6,1.6,0.8c0.6,0.2,1.3,0.3,1.9,0.3l0,0
				c1.6,0,2.4-0.5,2.4-1.4l0,0c0-0.3-0.1-0.6-0.3-0.7c-0.2-0.2-0.5-0.3-0.8-0.4c-0.3-0.1-0.8-0.2-1.4-0.3l0,0
				c-0.8-0.1-1.5-0.3-2-0.4c-0.5-0.2-1-0.4-1.3-0.8c-0.4-0.4-0.6-1-0.6-1.7l0,0c0-0.9,0.4-1.7,1.2-2.2c0.8-0.6,1.8-0.8,3.1-0.8l0,0
				c0.7,0,1.4,0.1,2,0.2c0.7,0.2,1.2,0.4,1.7,0.7l0,0l-0.8,1.5c-0.8-0.5-1.8-0.8-2.9-0.8l0,0c-0.8,0-1.4,0.1-1.8,0.4
				c-0.4,0.3-0.6,0.6-0.6,1l0,0c0,0.3,0.1,0.6,0.3,0.8c0.2,0.2,0.5,0.3,0.9,0.4s0.8,0.2,1.4,0.3l0,0c0.8,0.1,1.5,0.3,2,0.5
				c0.5,0.2,0.9,0.4,1.3,0.8c0.4,0.4,0.5,0.9,0.5,1.6l0,0c0,0.9-0.4,1.7-1.2,2.2C456.7,122.4,455.7,122.7,454.3,122.7L454.3,122.7z
				 M467.1,120.6l0.6,1.3c-0.3,0.2-0.6,0.4-1,0.5c-0.4,0.1-0.8,0.2-1.2,0.2l0,0c-1,0-1.8-0.3-2.4-0.8c-0.6-0.6-0.8-1.3-0.8-2.4l0,0
				v-5.6h-1.7v-1.5h1.7v-2.2h1.8v2.2h2.9v1.5h-2.9v5.5c0,0.6,0.1,1,0.4,1.3c0.3,0.3,0.7,0.4,1.2,0.4l0,0
				C466.3,121.1,466.7,121,467.1,120.6L467.1,120.6z M474.9,122.7c-1,0-1.9-0.2-2.7-0.7s-1.4-1.1-1.9-1.9c-0.5-0.8-0.7-1.7-0.7-2.7
				l0,0c0-1,0.2-1.9,0.7-2.7c0.5-0.8,1.1-1.4,1.9-1.8s1.7-0.7,2.7-0.7l0,0c1,0,1.9,0.2,2.7,0.7c0.8,0.4,1.4,1.1,1.9,1.8
				c0.5,0.8,0.7,1.7,0.7,2.7l0,0c0,1-0.2,1.9-0.7,2.7c-0.5,0.8-1.1,1.4-1.9,1.9C476.8,122.4,475.9,122.7,474.9,122.7L474.9,122.7z
				 M474.9,121.1c0.7,0,1.2-0.2,1.8-0.5s0.9-0.7,1.2-1.3c0.3-0.5,0.4-1.2,0.4-1.9l0,0c0-0.7-0.1-1.3-0.4-1.9c-0.3-0.5-0.7-1-1.2-1.3
				s-1.1-0.4-1.8-0.4l0,0c-0.7,0-1.2,0.1-1.8,0.4c-0.5,0.3-0.9,0.7-1.2,1.3c-0.3,0.5-0.5,1.2-0.5,1.9l0,0c0,0.7,0.2,1.3,0.5,1.9
				c0.3,0.5,0.7,1,1.2,1.3C473.7,120.9,474.3,121.1,474.9,121.1L474.9,121.1z M489.2,112.3c1.3,0,2.3,0.4,3.1,1.1
				c0.8,0.7,1.1,1.8,1.1,3.3l0,0v5.9h-1.8v-5.7c0-1-0.2-1.7-0.7-2.2c-0.5-0.5-1.2-0.7-2-0.7l0,0c-1,0-1.8,0.3-2.4,0.9
				c-0.6,0.6-0.9,1.4-0.9,2.5l0,0v5.2h-1.8v-10.2h1.8v1.5c0.4-0.5,0.9-0.9,1.5-1.2C487.6,112.4,488.4,112.3,489.2,112.3L489.2,112.3
				z M498.2,120c0.4,0,0.7,0.1,0.9,0.4s0.4,0.6,0.4,0.9l0,0c0,0.2,0,0.4-0.1,0.6s-0.1,0.5-0.3,0.8l0,0l-0.9,2.7H497l0.7-2.9
				c-0.2-0.1-0.4-0.2-0.6-0.5c-0.1-0.2-0.2-0.5-0.2-0.7l0,0c0-0.4,0.1-0.7,0.4-0.9C497.6,120.2,497.9,120,498.2,120L498.2,120z
				 M509.5,122.6v-13.5h1.9v13.5H509.5z M523.9,108.3h1.8v14.3H524v-1.6c-0.4,0.6-0.9,1-1.6,1.3c-0.6,0.3-1.3,0.4-2.1,0.4l0,0
				c-1,0-1.9-0.2-2.7-0.7c-0.8-0.4-1.4-1-1.8-1.8s-0.7-1.7-0.7-2.7l0,0c0-1,0.2-1.9,0.7-2.7s1.1-1.4,1.8-1.8
				c0.8-0.4,1.7-0.7,2.7-0.7l0,0c0.7,0,1.4,0.1,2,0.4c0.6,0.3,1.1,0.7,1.5,1.2l0,0V108.3z M520.5,121.1c0.6,0,1.2-0.2,1.7-0.5
				s0.9-0.7,1.2-1.3c0.3-0.5,0.4-1.2,0.4-1.9l0,0c0-0.7-0.1-1.3-0.4-1.9c-0.3-0.5-0.7-1-1.2-1.3s-1.1-0.4-1.7-0.4l0,0
				c-0.7,0-1.2,0.1-1.8,0.4s-0.9,0.7-1.2,1.3c-0.3,0.5-0.5,1.2-0.5,1.9l0,0c0,0.7,0.2,1.3,0.5,1.9c0.3,0.5,0.7,1,1.2,1.3
				S519.9,121.1,520.5,121.1L520.5,121.1z M533.9,112.3c1.4,0,2.5,0.3,3.2,1c0.7,0.7,1.1,1.7,1.1,3.1l0,0v6.2h-1.7v-1.3
				c-0.3,0.5-0.7,0.8-1.3,1.1s-1.2,0.4-2,0.4l0,0c-1.1,0-2.1-0.3-2.7-0.8c-0.7-0.6-1-1.3-1-2.2l0,0c0-0.9,0.3-1.6,1-2.2
				c0.7-0.5,1.7-0.8,3.1-0.8l0,0h2.9v-0.4c0-0.8-0.2-1.4-0.7-1.8s-1.1-0.6-2-0.6l0,0c-0.6,0-1.2,0.1-1.8,0.3
				c-0.6,0.2-1.1,0.5-1.5,0.8l0,0l-0.8-1.4c0.5-0.4,1.2-0.7,1.9-1C532.3,112.4,533.1,112.3,533.9,112.3L533.9,112.3z M533.5,121.2
				c0.7,0,1.3-0.2,1.8-0.5c0.5-0.3,0.9-0.8,1.1-1.3l0,0V118h-2.8c-1.6,0-2.3,0.5-2.3,1.6l0,0c0,0.5,0.2,0.9,0.6,1.2
				C532.3,121.1,532.8,121.2,533.5,121.2L533.5,121.2z M548.1,112.3c1.3,0,2.3,0.4,3.1,1.1c0.8,0.7,1.1,1.8,1.1,3.3l0,0v5.9h-1.8
				v-5.7c0-1-0.2-1.7-0.7-2.2c-0.5-0.5-1.2-0.7-2-0.7l0,0c-1,0-1.8,0.3-2.4,0.9c-0.6,0.6-0.9,1.4-0.9,2.5l0,0v5.2h-1.8v-14.3h1.8
				v5.5c0.4-0.5,0.9-0.9,1.5-1.1C546.7,112.4,547.4,112.3,548.1,112.3L548.1,112.3z M561.2,122.7c-1,0-1.9-0.2-2.7-0.7
				c-0.8-0.4-1.4-1.1-1.9-1.9s-0.7-1.7-0.7-2.7l0,0c0-1,0.2-1.9,0.7-2.7c0.5-0.8,1.1-1.4,1.9-1.8c0.8-0.4,1.7-0.7,2.7-0.7l0,0
				c1,0,1.9,0.2,2.7,0.7s1.4,1.1,1.9,1.8c0.5,0.8,0.7,1.7,0.7,2.7l0,0c0,1-0.2,1.9-0.7,2.7s-1.1,1.4-1.9,1.9
				S562.2,122.7,561.2,122.7L561.2,122.7z M561.2,121.1c0.7,0,1.2-0.2,1.8-0.5s0.9-0.7,1.2-1.3c0.3-0.5,0.4-1.2,0.4-1.9l0,0
				c0-0.7-0.1-1.3-0.4-1.9c-0.3-0.5-0.7-1-1.2-1.3s-1.1-0.4-1.8-0.4l0,0c-0.7,0-1.2,0.1-1.8,0.4c-0.5,0.3-0.9,0.7-1.2,1.3
				c-0.3,0.5-0.5,1.2-0.5,1.9l0,0c0,0.7,0.2,1.3,0.5,1.9c0.3,0.5,0.7,1,1.2,1.3C559.9,120.9,560.5,121.1,561.2,121.1L561.2,121.1z"
				/>
		</g>
	</g>
	<g transform="rotate(0 110.0001 30)">
		<g transform="matrix(1 0 0 1 0 0)">
			<path class="st1" d="M123.2,39.7c1,0.3,1.8,0.9,2.4,1.6s0.9,1.7,0.9,2.8l0,0c0,1.6-0.6,2.8-1.8,3.6c-1.2,0.8-3,1.3-5.3,1.3l0,0
				H110V31.1h8.8c2.2,0,3.9,0.4,5,1.3c1.2,0.8,1.8,2,1.8,3.4l0,0c0,0.9-0.2,1.6-0.6,2.3C124.5,38.8,123.9,39.3,123.2,39.7
				L123.2,39.7z M118.3,34.2h-4.1v4.2h4.1c1,0,1.8-0.2,2.3-0.5c0.5-0.4,0.8-0.9,0.8-1.6l0,0c0-0.7-0.3-1.2-0.8-1.6
				C120.1,34.4,119.3,34.2,118.3,34.2L118.3,34.2z M119,45.9c1.1,0,1.9-0.2,2.5-0.5s0.8-0.9,0.8-1.7l0,0c0-1.5-1.1-2.2-3.3-2.2l0,0
				h-4.8v4.4H119z M134.9,35c2.1,0,3.8,0.5,4.9,1.5c1.1,1,1.7,2.6,1.7,4.6l0,0V49h-3.7v-1.7c-0.8,1.3-2.2,1.9-4.2,1.9l0,0
				c-1.1,0-2-0.2-2.8-0.5s-1.4-0.9-1.8-1.5c-0.4-0.6-0.6-1.4-0.6-2.2l0,0c0-1.3,0.5-2.3,1.4-3c1-0.7,2.5-1.1,4.5-1.1l0,0h3.2
				c0-0.9-0.3-1.5-0.8-2s-1.3-0.7-2.4-0.7l0,0c-0.7,0-1.5,0.1-2.2,0.3c-0.7,0.2-1.3,0.5-1.8,0.9l0,0l-1.4-2.8
				c0.8-0.5,1.7-0.9,2.7-1.2C132.7,35.2,133.8,35,134.9,35L134.9,35z M134.6,46.5c0.7,0,1.3-0.2,1.8-0.5c0.5-0.3,0.9-0.8,1.1-1.4
				l0,0v-1.4h-2.7c-1.6,0-2.5,0.5-2.5,1.6l0,0c0,0.5,0.2,0.9,0.6,1.2S133.9,46.5,134.6,46.5L134.6,46.5z M149.8,49.2
				c-1.1,0-2.3-0.1-3.4-0.4s-2-0.6-2.6-1.1l0,0l1.3-2.9c0.6,0.4,1.4,0.7,2.2,1c0.9,0.2,1.7,0.4,2.6,0.4l0,0c1.7,0,2.5-0.4,2.5-1.3
				l0,0c0-0.4-0.2-0.7-0.7-0.8c-0.5-0.2-1.2-0.3-2.1-0.4l0,0c-1.1-0.2-2.1-0.4-2.8-0.6c-0.7-0.2-1.4-0.6-1.9-1.2s-0.8-1.4-0.8-2.4
				l0,0c0-0.9,0.3-1.6,0.8-2.3s1.2-1.2,2.2-1.6c1-0.4,2.1-0.6,3.4-0.6l0,0c1,0,1.9,0.1,2.9,0.3c1,0.2,1.8,0.5,2.4,0.9l0,0l-1.3,2.8
				c-1.2-0.7-2.5-1-4-1l0,0c-0.9,0-1.5,0.1-1.9,0.4c-0.4,0.2-0.6,0.5-0.6,0.9l0,0c0,0.4,0.2,0.7,0.7,0.9c0.5,0.2,1.2,0.3,2.2,0.5
				l0,0c1.1,0.2,2.1,0.4,2.8,0.6c0.7,0.2,1.3,0.6,1.9,1.2c0.5,0.6,0.8,1.4,0.8,2.4l0,0c0,0.9-0.3,1.6-0.8,2.3
				c-0.5,0.7-1.3,1.2-2.2,1.6C152.3,49,151.1,49.2,149.8,49.2L149.8,49.2z M163.4,49.2c-1.1,0-2.3-0.1-3.4-0.4
				c-1.1-0.3-2-0.6-2.6-1.1l0,0l1.3-2.9c0.6,0.4,1.4,0.7,2.2,1c0.9,0.2,1.7,0.4,2.6,0.4l0,0c1.7,0,2.5-0.4,2.5-1.3l0,0
				c0-0.4-0.2-0.7-0.7-0.8c-0.5-0.2-1.2-0.3-2.1-0.4l0,0c-1.1-0.2-2.1-0.4-2.8-0.6s-1.4-0.6-1.9-1.2s-0.8-1.4-0.8-2.4l0,0
				c0-0.9,0.3-1.6,0.8-2.3s1.2-1.2,2.2-1.6s2.1-0.6,3.4-0.6l0,0c1,0,1.9,0.1,2.9,0.3c1,0.2,1.8,0.5,2.4,0.9l0,0l-1.3,2.8
				c-1.2-0.7-2.5-1-4-1l0,0c-0.9,0-1.5,0.1-1.9,0.4c-0.4,0.2-0.6,0.5-0.6,0.9l0,0c0,0.4,0.2,0.7,0.7,0.9c0.5,0.2,1.2,0.3,2.2,0.5
				l0,0c1.1,0.2,2.1,0.4,2.8,0.6c0.7,0.2,1.3,0.6,1.9,1.2c0.5,0.6,0.8,1.4,0.8,2.4l0,0c0,0.9-0.3,1.6-0.8,2.3
				c-0.5,0.7-1.3,1.2-2.2,1.6C165.9,49,164.8,49.2,163.4,49.2L163.4,49.2z M200.2,49h-3.9l0-10.8l-5.3,8.9h-1.9l-5.3-8.6V49h-3.9
				V31.1h3.4l6.7,11.2l6.6-11.2h3.4L200.2,49z M209.7,35c2.1,0,3.8,0.5,4.9,1.5c1.1,1,1.7,2.6,1.7,4.6l0,0V49h-3.7v-1.7
				c-0.8,1.3-2.2,1.9-4.2,1.9l0,0c-1.1,0-2-0.2-2.8-0.5s-1.4-0.9-1.8-1.5c-0.4-0.6-0.6-1.4-0.6-2.2l0,0c0-1.3,0.5-2.3,1.4-3
				c1-0.7,2.5-1.1,4.5-1.1l0,0h3.2c0-0.9-0.3-1.5-0.8-2s-1.3-0.7-2.4-0.7l0,0c-0.7,0-1.5,0.1-2.2,0.3c-0.7,0.2-1.3,0.5-1.8,0.9l0,0
				l-1.4-2.8c0.8-0.5,1.7-0.9,2.7-1.2C207.5,35.2,208.6,35,209.7,35L209.7,35z M209.4,46.5c0.7,0,1.3-0.2,1.8-0.5
				c0.5-0.3,0.9-0.8,1.1-1.4l0,0v-1.4h-2.7c-1.6,0-2.5,0.5-2.5,1.6l0,0c0,0.5,0.2,0.9,0.6,1.2C208.1,46.4,208.7,46.5,209.4,46.5
				L209.4,46.5z M224.6,49.2c-1.1,0-2.3-0.1-3.4-0.4c-1.1-0.3-2-0.6-2.6-1.1l0,0l1.3-2.9c0.6,0.4,1.4,0.7,2.2,1
				c0.9,0.2,1.7,0.4,2.6,0.4l0,0c1.7,0,2.5-0.4,2.5-1.3l0,0c0-0.4-0.2-0.7-0.7-0.8c-0.5-0.2-1.2-0.3-2.1-0.4l0,0
				c-1.1-0.2-2.1-0.4-2.8-0.6c-0.7-0.2-1.4-0.6-1.9-1.2s-0.8-1.4-0.8-2.4l0,0c0-0.9,0.3-1.6,0.8-2.3s1.2-1.2,2.2-1.6
				s2.1-0.6,3.4-0.6l0,0c1,0,1.9,0.1,2.9,0.3c1,0.2,1.8,0.5,2.4,0.9l0,0l-1.3,2.8c-1.2-0.7-2.5-1-4-1l0,0c-0.9,0-1.5,0.1-1.9,0.4
				c-0.4,0.2-0.6,0.5-0.6,0.9l0,0c0,0.4,0.2,0.7,0.7,0.9c0.5,0.2,1.2,0.3,2.2,0.5l0,0c1.1,0.2,2.1,0.4,2.8,0.6
				c0.7,0.2,1.3,0.6,1.9,1.2c0.5,0.6,0.8,1.4,0.8,2.4l0,0c0,0.9-0.3,1.6-0.8,2.3c-0.5,0.7-1.3,1.2-2.2,1.6
				C227.1,49,225.9,49.2,224.6,49.2L224.6,49.2z M241.4,45.5l1.1,2.8c-0.4,0.3-0.9,0.5-1.4,0.7s-1.2,0.2-1.8,0.2l0,0
				c-1.6,0-2.9-0.4-3.8-1.3c-0.9-0.8-1.3-2.1-1.3-3.7l0,0v-5.7h-2.1v-3.1h2.1v-3.4h4v3.4h3.4v3.1h-3.4v5.6c0,0.6,0.1,1,0.4,1.3
				c0.3,0.3,0.7,0.5,1.3,0.5l0,0C240.4,46.1,240.9,45.9,241.4,45.5L241.4,45.5z M257.8,42.2c0,0.1,0,0.4-0.1,1.1l0,0h-10.4
				c0.2,0.9,0.6,1.5,1.3,2c0.7,0.5,1.6,0.7,2.6,0.7l0,0c0.7,0,1.4-0.1,1.9-0.3c0.6-0.2,1.1-0.6,1.6-1l0,0l2.1,2.3
				c-1.3,1.5-3.2,2.2-5.7,2.2l0,0c-1.6,0-2.9-0.3-4.1-0.9c-1.2-0.6-2.1-1.4-2.8-2.5s-1-2.3-1-3.7l0,0c0-1.4,0.3-2.6,1-3.7
				c0.6-1.1,1.5-1.9,2.6-2.5s2.4-0.9,3.8-0.9l0,0c1.4,0,2.6,0.3,3.7,0.9c1.1,0.6,2,1.4,2.6,2.5C257.5,39.5,257.8,40.7,257.8,42.2
				L257.8,42.2z M250.6,38.1c-0.9,0-1.7,0.3-2.3,0.8s-1,1.2-1.1,2.1l0,0h6.8c-0.1-0.9-0.5-1.6-1.1-2.1
				C252.3,38.3,251.5,38.1,250.6,38.1L250.6,38.1z M264.3,37.1c0.5-0.7,1.1-1.2,1.9-1.5C267,35.2,268,35,269,35l0,0v3.7
				c-0.4,0-0.7-0.1-0.9-0.1l0,0c-1.1,0-2,0.3-2.7,1c-0.6,0.6-1,1.6-1,2.9l0,0V49h-4V35.2h3.8V37.1z M295,49h-4.5l-3.5-5h-0.2h-3.6v5
				h-4.2V31.1h7.8c1.6,0,3,0.3,4.1,0.8c1.2,0.5,2.1,1.3,2.7,2.3c0.6,1,0.9,2.1,0.9,3.5l0,0c0,1.3-0.3,2.5-1,3.4
				c-0.6,1-1.6,1.7-2.7,2.2l0,0L295,49z M290.4,37.6c0-1-0.3-1.8-1-2.3c-0.6-0.5-1.6-0.8-2.8-0.8l0,0h-3.4v6.3h3.4
				c1.2,0,2.2-0.3,2.8-0.8S290.4,38.6,290.4,37.6L290.4,37.6z M304.2,49.2c-1.5,0-2.8-0.3-3.9-0.9c-1.2-0.6-2.1-1.4-2.7-2.5
				c-0.6-1.1-1-2.3-1-3.7l0,0c0-1.4,0.3-2.6,1-3.7c0.6-1.1,1.6-1.9,2.7-2.5c1.2-0.6,2.5-0.9,3.9-0.9l0,0c1.5,0,2.8,0.3,3.9,0.9
				c1.1,0.6,2,1.4,2.7,2.5c0.6,1.1,1,2.3,1,3.7l0,0c0,1.4-0.3,2.6-1,3.7c-0.6,1.1-1.5,1.9-2.7,2.5C306.9,48.9,305.6,49.2,304.2,49.2
				L304.2,49.2z M304.2,45.9c1,0,1.9-0.3,2.5-1c0.7-0.7,1-1.6,1-2.8l0,0c0-1.2-0.3-2.1-1-2.8c-0.7-0.7-1.5-1-2.5-1l0,0
				c-1,0-1.9,0.3-2.5,1c-0.7,0.7-1,1.6-1,2.8l0,0c0,1.2,0.3,2.1,1,2.8C302.3,45.6,303.2,45.9,304.2,45.9L304.2,45.9z M319.1,49.2
				c-1.1,0-2.3-0.1-3.4-0.4s-2-0.6-2.6-1.1l0,0l1.3-2.9c0.6,0.4,1.4,0.7,2.2,1c0.9,0.2,1.7,0.4,2.6,0.4l0,0c1.7,0,2.5-0.4,2.5-1.3
				l0,0c0-0.4-0.2-0.7-0.7-0.8c-0.5-0.2-1.2-0.3-2.1-0.4l0,0c-1.1-0.2-2.1-0.4-2.8-0.6s-1.4-0.6-1.9-1.2s-0.8-1.4-0.8-2.4l0,0
				c0-0.9,0.3-1.6,0.8-2.3s1.2-1.2,2.2-1.6s2.1-0.6,3.4-0.6l0,0c1,0,1.9,0.1,2.9,0.3c1,0.2,1.8,0.5,2.4,0.9l0,0l-1.3,2.8
				c-1.2-0.7-2.5-1-4-1l0,0c-0.9,0-1.5,0.1-1.9,0.4c-0.4,0.2-0.6,0.5-0.6,0.9l0,0c0,0.4,0.2,0.7,0.7,0.9c0.5,0.2,1.2,0.3,2.2,0.5
				l0,0c1.1,0.2,2.1,0.4,2.8,0.6c0.7,0.2,1.3,0.6,1.9,1.2c0.5,0.6,0.8,1.4,0.8,2.4l0,0c0,0.9-0.3,1.6-0.8,2.3
				c-0.5,0.7-1.3,1.2-2.2,1.6C321.6,49,320.4,49.2,319.1,49.2L319.1,49.2z M332.7,49.2c-1.1,0-2.3-0.1-3.4-0.4
				c-1.1-0.3-2-0.6-2.6-1.1l0,0l1.3-2.9c0.6,0.4,1.4,0.7,2.2,1c0.9,0.2,1.7,0.4,2.6,0.4l0,0c1.7,0,2.5-0.4,2.5-1.3l0,0
				c0-0.4-0.2-0.7-0.7-0.8s-1.2-0.3-2.1-0.4l0,0c-1.1-0.2-2.1-0.4-2.8-0.6c-0.7-0.2-1.4-0.6-1.9-1.2s-0.8-1.4-0.8-2.4l0,0
				c0-0.9,0.3-1.6,0.8-2.3c0.5-0.7,1.2-1.2,2.2-1.6c1-0.4,2.1-0.6,3.4-0.6l0,0c1,0,1.9,0.1,2.9,0.3c1,0.2,1.8,0.5,2.4,0.9l0,0
				l-1.3,2.8c-1.2-0.7-2.5-1-4-1l0,0c-0.9,0-1.5,0.1-1.9,0.4c-0.4,0.2-0.6,0.5-0.6,0.9l0,0c0,0.4,0.2,0.7,0.7,0.9
				c0.5,0.2,1.2,0.3,2.2,0.5l0,0c1.1,0.2,2.1,0.4,2.8,0.6c0.7,0.2,1.3,0.6,1.9,1.2c0.5,0.6,0.8,1.4,0.8,2.4l0,0
				c0,0.9-0.3,1.6-0.8,2.3c-0.5,0.7-1.3,1.2-2.2,1.6C335.2,49,334,49.2,332.7,49.2L332.7,49.2z M355.1,49.3c-1.4,0-2.8-0.2-4.1-0.6
				c-1.3-0.4-2.4-0.9-3.2-1.5l0,0l1.4-3.1c0.8,0.6,1.7,1,2.7,1.4c1.1,0.3,2.1,0.5,3.2,0.5l0,0c1.2,0,2.1-0.2,2.6-0.5
				c0.6-0.4,0.8-0.8,0.8-1.4l0,0c0-0.4-0.2-0.8-0.5-1.1c-0.3-0.3-0.8-0.5-1.3-0.7s-1.2-0.4-2.1-0.6l0,0c-1.4-0.3-2.5-0.6-3.4-1
				c-0.9-0.3-1.6-0.8-2.2-1.6s-0.9-1.7-0.9-2.9l0,0c0-1,0.3-2,0.8-2.8c0.6-0.8,1.4-1.5,2.6-2c1.1-0.5,2.5-0.7,4.2-0.7l0,0
				c1.1,0,2.3,0.1,3.4,0.4s2.1,0.7,2.9,1.2l0,0l-1.3,3.2c-1.7-0.9-3.3-1.4-5-1.4l0,0c-1.2,0-2,0.2-2.6,0.6c-0.6,0.4-0.8,0.9-0.8,1.5
				l0,0c0,0.6,0.3,1.1,1,1.4c0.6,0.3,1.6,0.6,2.9,0.9l0,0c1.4,0.3,2.5,0.6,3.4,1c0.9,0.3,1.6,0.8,2.2,1.5s0.9,1.6,0.9,2.8l0,0
				c0,1-0.3,2-0.9,2.8s-1.4,1.5-2.6,2C358.1,49.1,356.7,49.3,355.1,49.3L355.1,49.3z M373.1,45.5l1.1,2.8c-0.4,0.3-0.9,0.5-1.4,0.7
				s-1.2,0.2-1.8,0.2l0,0c-1.6,0-2.9-0.4-3.8-1.3c-0.9-0.8-1.3-2.1-1.3-3.7l0,0v-5.7h-2.1v-3.1h2.1v-3.4h4v3.4h3.4v3.1h-3.4v5.6
				c0,0.6,0.1,1,0.4,1.3s0.7,0.5,1.3,0.5l0,0C372.1,46.1,372.6,45.9,373.1,45.5L373.1,45.5z M389.5,42.2c0,0.1,0,0.4-0.1,1.1l0,0
				H379c0.2,0.9,0.6,1.5,1.3,2c0.7,0.5,1.6,0.7,2.6,0.7l0,0c0.7,0,1.4-0.1,1.9-0.3c0.6-0.2,1.1-0.6,1.6-1l0,0l2.1,2.3
				c-1.3,1.5-3.2,2.2-5.7,2.2l0,0c-1.6,0-2.9-0.3-4.1-0.9s-2.1-1.4-2.8-2.5c-0.6-1.1-1-2.3-1-3.7l0,0c0-1.4,0.3-2.6,1-3.7
				c0.6-1.1,1.5-1.9,2.6-2.5c1.1-0.6,2.4-0.9,3.8-0.9l0,0c1.4,0,2.6,0.3,3.7,0.9c1.1,0.6,2,1.4,2.6,2.5
				C389.2,39.5,389.5,40.7,389.5,42.2L389.5,42.2z M382.3,38.1c-0.9,0-1.7,0.3-2.3,0.8s-1,1.2-1.1,2.1l0,0h6.8
				c-0.1-0.9-0.5-1.6-1.1-2.1C384,38.3,383.2,38.1,382.3,38.1L382.3,38.1z M401.7,35.2h3.8L399.8,49h-4.1l-5.8-13.8h4.1l3.8,9.4
				L401.7,35.2z M420.4,42.2c0,0.1,0,0.4-0.1,1.1l0,0h-10.4c0.2,0.9,0.6,1.5,1.3,2c0.7,0.5,1.6,0.7,2.6,0.7l0,0
				c0.7,0,1.4-0.1,1.9-0.3c0.6-0.2,1.1-0.6,1.6-1l0,0l2.1,2.3c-1.3,1.5-3.2,2.2-5.7,2.2l0,0c-1.6,0-2.9-0.3-4.1-0.9
				s-2.1-1.4-2.8-2.5c-0.6-1.1-1-2.3-1-3.7l0,0c0-1.4,0.3-2.6,1-3.7c0.6-1.1,1.5-1.9,2.6-2.5c1.1-0.6,2.4-0.9,3.8-0.9l0,0
				c1.4,0,2.6,0.3,3.7,0.9c1.1,0.6,2,1.4,2.6,2.5C420,39.5,420.4,40.7,420.4,42.2L420.4,42.2z M413.2,38.1c-0.9,0-1.7,0.3-2.3,0.8
				s-1,1.2-1.1,2.1l0,0h6.8c-0.1-0.9-0.5-1.6-1.1-2.1C414.8,38.3,414.1,38.1,413.2,38.1L413.2,38.1z M431.4,35
				c1.7,0,3.1,0.5,4.1,1.5c1.1,1,1.6,2.5,1.6,4.6l0,0V49h-4v-7.3c0-1.1-0.2-1.9-0.7-2.4c-0.5-0.5-1.2-0.8-2.1-0.8l0,0
				c-1,0-1.8,0.3-2.4,0.9c-0.6,0.6-0.9,1.6-0.9,2.8l0,0V49h-4V35.2h3.8v1.6c0.5-0.6,1.2-1,2-1.3C429.6,35.2,430.5,35,431.4,35
				L431.4,35z M464.2,49h-4.5l-3.5-5h-0.2h-3.6v5h-4.2V31.1h7.8c1.6,0,3,0.3,4.1,0.8c1.2,0.5,2.1,1.3,2.7,2.3c0.6,1,0.9,2.1,0.9,3.5
				l0,0c0,1.3-0.3,2.5-1,3.4c-0.6,1-1.6,1.7-2.7,2.2l0,0L464.2,49z M459.6,37.6c0-1-0.3-1.8-1-2.3c-0.6-0.5-1.6-0.8-2.8-0.8l0,0
				h-3.4v6.3h3.4c1.2,0,2.2-0.3,2.8-0.8S459.6,38.6,459.6,37.6L459.6,37.6z M473.4,49.2c-1.5,0-2.8-0.3-3.9-0.9
				c-1.2-0.6-2.1-1.4-2.7-2.5c-0.6-1.1-1-2.3-1-3.7l0,0c0-1.4,0.3-2.6,1-3.7c0.6-1.1,1.6-1.9,2.7-2.5c1.2-0.6,2.5-0.9,3.9-0.9l0,0
				c1.5,0,2.8,0.3,3.9,0.9c1.1,0.6,2,1.4,2.7,2.5c0.6,1.1,1,2.3,1,3.7l0,0c0,1.4-0.3,2.6-1,3.7c-0.6,1.1-1.5,1.9-2.7,2.5
				C476.2,48.9,474.9,49.2,473.4,49.2L473.4,49.2z M473.4,45.9c1,0,1.9-0.3,2.5-1c0.7-0.7,1-1.6,1-2.8l0,0c0-1.2-0.3-2.1-1-2.8
				c-0.7-0.7-1.5-1-2.5-1l0,0c-1,0-1.9,0.3-2.5,1c-0.7,0.7-1,1.6-1,2.8l0,0c0,1.2,0.3,2.1,1,2.8C471.5,45.6,472.4,45.9,473.4,45.9
				L473.4,45.9z M488.3,49.2c-1.1,0-2.3-0.1-3.4-0.4s-2-0.6-2.6-1.1l0,0l1.3-2.9c0.6,0.4,1.4,0.7,2.2,1c0.9,0.2,1.7,0.4,2.6,0.4l0,0
				c1.7,0,2.5-0.4,2.5-1.3l0,0c0-0.4-0.2-0.7-0.7-0.8c-0.5-0.2-1.2-0.3-2.1-0.4l0,0c-1.1-0.2-2.1-0.4-2.8-0.6s-1.4-0.6-1.9-1.2
				c-0.5-0.6-0.8-1.4-0.8-2.4l0,0c0-0.9,0.3-1.6,0.8-2.3c0.5-0.7,1.2-1.2,2.2-1.6c1-0.4,2.1-0.6,3.4-0.6l0,0c1,0,1.9,0.1,2.9,0.3
				c1,0.2,1.8,0.5,2.4,0.9l0,0l-1.3,2.8c-1.2-0.7-2.5-1-4-1l0,0c-0.9,0-1.5,0.1-1.9,0.4c-0.4,0.2-0.6,0.5-0.6,0.9l0,0
				c0,0.4,0.2,0.7,0.7,0.9c0.5,0.2,1.2,0.3,2.2,0.5l0,0c1.1,0.2,2.1,0.4,2.8,0.6c0.7,0.2,1.3,0.6,1.9,1.2c0.5,0.6,0.8,1.4,0.8,2.4
				l0,0c0,0.9-0.3,1.6-0.8,2.3c-0.5,0.7-1.3,1.2-2.2,1.6C490.8,49,489.6,49.2,488.3,49.2L488.3,49.2z M501.9,49.2
				c-1.1,0-2.3-0.1-3.4-0.4s-2-0.6-2.6-1.1l0,0l1.3-2.9c0.6,0.4,1.4,0.7,2.2,1c0.9,0.2,1.7,0.4,2.6,0.4l0,0c1.7,0,2.5-0.4,2.5-1.3
				l0,0c0-0.4-0.2-0.7-0.7-0.8c-0.5-0.2-1.2-0.3-2.1-0.4l0,0c-1.1-0.2-2.1-0.4-2.8-0.6s-1.4-0.6-1.9-1.2s-0.8-1.4-0.8-2.4l0,0
				c0-0.9,0.3-1.6,0.8-2.3s1.2-1.2,2.2-1.6s2.1-0.6,3.4-0.6l0,0c1,0,1.9,0.1,2.9,0.3c1,0.2,1.8,0.5,2.4,0.9l0,0l-1.3,2.8
				c-1.2-0.7-2.5-1-4-1l0,0c-0.9,0-1.5,0.1-1.9,0.4c-0.4,0.2-0.6,0.5-0.6,0.9l0,0c0,0.4,0.2,0.7,0.7,0.9c0.5,0.2,1.2,0.3,2.2,0.5
				l0,0c1.1,0.2,2.1,0.4,2.8,0.6c0.7,0.2,1.3,0.6,1.9,1.2c0.5,0.6,0.8,1.4,0.8,2.4l0,0c0,0.9-0.3,1.6-0.8,2.3
				c-0.5,0.7-1.3,1.2-2.2,1.6C504.4,49,503.3,49.2,501.9,49.2L501.9,49.2z M518.4,54V30h3.7v24H518.4z M531.6,31.1h7.7V49h-4.2V34.4
				h-3.6V31.1z M550.9,38.4c1.6,0.3,2.8,0.8,3.6,1.8c0.8,0.9,1.3,2,1.3,3.4l0,0c0,1-0.3,2-0.8,2.9c-0.5,0.9-1.4,1.6-2.5,2.1
				c-1.1,0.5-2.5,0.8-4.1,0.8l0,0c-1.3,0-2.5-0.2-3.7-0.5c-1.2-0.3-2.3-0.8-3.1-1.4l0,0l1.6-3.2c0.7,0.5,1.5,0.9,2.4,1.2
				c0.9,0.3,1.8,0.4,2.8,0.4l0,0c1,0,1.9-0.2,2.5-0.6s0.9-1,0.9-1.7l0,0c0-1.5-1.1-2.2-3.4-2.2l0,0h-1.9v-2.7l3.7-4.2h-7.6v-3.3H555
				v2.7L550.9,38.4z M579.3,39.7c1,0.3,1.8,0.9,2.4,1.6s0.9,1.7,0.9,2.8l0,0c0,1.6-0.6,2.8-1.8,3.6s-3,1.3-5.3,1.3l0,0h-9.3V31.1
				h8.8c2.2,0,3.9,0.4,5,1.3c1.2,0.8,1.8,2,1.8,3.4l0,0c0,0.9-0.2,1.6-0.6,2.3S580,39.3,579.3,39.7L579.3,39.7z M574.3,34.2h-4.1
				v4.2h4.1c1,0,1.8-0.2,2.3-0.5c0.5-0.4,0.8-0.9,0.8-1.6l0,0c0-0.7-0.3-1.2-0.8-1.6C576.1,34.4,575.4,34.2,574.3,34.2L574.3,34.2z
				 M575.1,45.9c1.1,0,1.9-0.2,2.5-0.5c0.6-0.4,0.8-0.9,0.8-1.7l0,0c0-1.5-1.1-2.2-3.3-2.2l0,0h-4.8v4.4H575.1z M592,49.2
				c-1.5,0-2.8-0.3-3.9-0.9s-2.1-1.4-2.7-2.5c-0.6-1.1-1-2.3-1-3.7l0,0c0-1.4,0.3-2.6,1-3.7c0.6-1.1,1.6-1.9,2.7-2.5
				s2.5-0.9,3.9-0.9l0,0c1.5,0,2.8,0.3,3.9,0.9s2,1.4,2.7,2.5c0.6,1.1,1,2.3,1,3.7l0,0c0,1.4-0.3,2.6-1,3.7
				c-0.6,1.1-1.5,1.9-2.7,2.5S593.4,49.2,592,49.2L592,49.2z M592,45.9c1,0,1.9-0.3,2.5-1c0.7-0.7,1-1.6,1-2.8l0,0
				c0-1.2-0.3-2.1-1-2.8c-0.7-0.7-1.5-1-2.5-1l0,0c-1,0-1.9,0.3-2.5,1c-0.7,0.7-1,1.6-1,2.8l0,0c0,1.2,0.3,2.1,1,2.8
				C590.1,45.6,591,45.9,592,45.9L592,45.9z M610.6,35c1.7,0,3.1,0.5,4.1,1.5c1.1,1,1.6,2.5,1.6,4.6l0,0V49h-4v-7.3
				c0-1.1-0.2-1.9-0.7-2.4c-0.5-0.5-1.2-0.8-2.1-0.8l0,0c-1,0-1.8,0.3-2.4,0.9c-0.6,0.6-0.9,1.6-0.9,2.8l0,0V49h-4V35.2h3.8v1.6
				c0.5-0.6,1.2-1,2-1.3C608.8,35.2,609.7,35,610.6,35L610.6,35z M633.6,42.2c0,0.1,0,0.4-0.1,1.1l0,0h-10.4c0.2,0.9,0.6,1.5,1.3,2
				c0.7,0.5,1.6,0.7,2.6,0.7l0,0c0.7,0,1.4-0.1,1.9-0.3c0.6-0.2,1.1-0.6,1.6-1l0,0l2.1,2.3c-1.3,1.5-3.2,2.2-5.7,2.2l0,0
				c-1.6,0-2.9-0.3-4.1-0.9s-2.1-1.4-2.8-2.5c-0.6-1.1-1-2.3-1-3.7l0,0c0-1.4,0.3-2.6,1-3.7c0.6-1.1,1.5-1.9,2.6-2.5
				s2.4-0.9,3.8-0.9l0,0c1.4,0,2.6,0.3,3.7,0.9c1.1,0.6,2,1.4,2.6,2.5C633.3,39.5,633.6,40.7,633.6,42.2L633.6,42.2z M626.4,38.1
				c-0.9,0-1.7,0.3-2.3,0.8s-1,1.2-1.1,2.1l0,0h6.8c-0.1-0.9-0.5-1.6-1.1-2.1C628.1,38.3,627.3,38.1,626.4,38.1L626.4,38.1z
				 M640.2,45.9h7.3V49h-12.3v-2.4l7-8.3h-6.8v-3.1h11.9v2.4L640.2,45.9z"/>
		</g>
	</g>
	<g transform="rotate(0 0 0)">
		<rect x="2" y="2" class="st2" width="80" height="80"/>
	</g>
	<g transform="rotate(0 20 21.3749)">
		<g transform="matrix(1 0 0 1 0 0)">
			<g>
				<path class="st3" d="M64,24.7l-5.7,3.3L58.1,28v18.5l-10.4,6V34l-5.8,3.4v25.3l0.1-0.1v0.1L63.9,50v0l-5.7-3.3L64,50V24.7z"/>
				<path class="st3" d="M31.6,24.7l-5.8,3.3L25.7,28l0.1,0.1v18.5l10.3,5.9V46l-4.5-2.6V24.7z"/>
				<path class="st4" d="M64,24.7l-5.8-3.4l-5.8,3.3l5.8,3.4C58.2,28.1,64,24.7,64,24.7z"/>
				<path class="st4" d="M31.6,24.7l-5.8-3.4L20,24.7l5.8,3.4C25.8,28.1,31.6,24.7,31.6,24.7z"/>
				<path class="st4" d="M36.1,52.6l-10.3-5.9V28.1L20,24.7V50l5.8,3.4l16.1,9.3v0l0,0V37.4L36.1,34V52.6z"/>
				<path class="st4" d="M36.1,34l5.8,3.4l5.8-3.3l-5.8-3.4L36.1,34z"/>
				<path class="st4" d="M58.1,28l-5.7-3.3v18.6L47.7,46v6.6l10.4-6C58.1,46.5,58.1,28,58.1,28z"/>
				<path class="st4" d="M58.2,53.4v-0.1l-0.1,0.1C58.1,53.3,58.2,53.4,58.2,53.4z"/>
			</g>
		</g>
	</g>
</g>
</svg>
