<?xml version="1.0" encoding="utf-8"?>
<!-- Generator: Adobe Illustrator 24.2.1, SVG Export Plug-In . SVG Version: 6.00 Build 0)  -->
<svg version="1.1" id="Layer_1" xmlns="http://www.w3.org/2000/svg" xmlns:xlink="http://www.w3.org/1999/xlink" x="0px" y="0px"
	 viewBox="0 0 300 67.9" style="enable-background:new 0 0 300 67.9;" xml:space="preserve">
<style type="text/css">
	.st0{fill:#EDE7E7;}
	.st1{fill:#FF7851;}
</style>
<g>
	<g transform="rotate(45 150.0001 0)">
		<rect x="150" y="0" transform="matrix(5.070363e-06 1 -1 5.070363e-06 198.0059 -150.0068)" class="st0" width="48" height="48"/>
	</g>
	<g transform="rotate(0 19.526799999999994 52.05029999999999)">
		<g transform="matrix(1 0 0 1 0 0)">
			<path class="st1" d="M24,55.8c0.4,0.1,0.7,0.3,0.9,0.6c0.2,0.3,0.3,0.6,0.3,1.1l0,0c0,0.6-0.2,1-0.6,1.3s-1.1,0.5-1.9,0.5l0,0
				h-3.2v-6.6h3c0.8,0,1.3,0.2,1.8,0.5s0.6,0.7,0.6,1.3l0,0c0,0.3-0.1,0.6-0.2,0.9C24.5,55.5,24.3,55.6,24,55.8L24,55.8z M22.4,53.4
				h-1.9v2.1h1.9c0.5,0,0.9-0.1,1.1-0.3c0.3-0.2,0.4-0.4,0.4-0.8l0,0c0-0.3-0.1-0.6-0.4-0.8S22.9,53.4,22.4,53.4L22.4,53.4z
				 M22.6,58.4c0.5,0,0.9-0.1,1.2-0.3c0.3-0.2,0.4-0.5,0.4-0.8l0,0c0-0.7-0.5-1.1-1.6-1.1l0,0h-2.2v2.2
				C20.4,58.4,22.6,58.4,22.6,58.4z M29.8,54.2c0.7,0,1.2,0.2,1.6,0.5s0.6,0.8,0.6,1.5l0,0v3h-0.9v-0.7c-0.2,0.2-0.4,0.4-0.6,0.5
				c-0.3,0.1-0.6,0.2-1,0.2l0,0c-0.6,0-1-0.1-1.3-0.4c-0.3-0.3-0.5-0.6-0.5-1.1l0,0c0-0.4,0.2-0.8,0.5-1.1s0.8-0.4,1.5-0.4l0,0H31
				V56c0-0.4-0.1-0.7-0.3-0.9c-0.2-0.2-0.6-0.3-1-0.3l0,0c-0.3,0-0.6,0-0.9,0.1s-0.5,0.2-0.7,0.4l0,0l-0.4-0.7
				c0.3-0.2,0.6-0.4,0.9-0.5S29.4,54.2,29.8,54.2L29.8,54.2z M29.6,58.6c0.3,0,0.6-0.1,0.9-0.2c0.3-0.2,0.4-0.4,0.5-0.7l0,0V57h-1.4
				c-0.8,0-1.2,0.3-1.2,0.8l0,0c0,0.3,0.1,0.5,0.3,0.6C29,58.5,29.2,58.6,29.6,58.6L29.6,58.6z M37.7,54.2c0.6,0,1.1,0.2,1.5,0.6
				c0.4,0.4,0.6,0.9,0.6,1.6l0,0v2.9h-0.9v-2.8c0-0.5-0.1-0.9-0.3-1.1c-0.2-0.2-0.6-0.4-1-0.4l0,0c-0.5,0-0.9,0.1-1.2,0.4
				c-0.3,0.3-0.4,0.7-0.4,1.2l0,0v2.6h-1v-5h0.9V55c0.2-0.3,0.4-0.5,0.7-0.6C37,54.2,37.3,54.2,37.7,54.2L37.7,54.2z M46.8,52.2h0.9
				v7h-0.9v-0.8c-0.2,0.3-0.5,0.5-0.8,0.6s-0.6,0.2-1,0.2l0,0c-0.5,0-0.9-0.1-1.3-0.3c-0.4-0.2-0.7-0.5-0.9-0.9s-0.3-0.8-0.3-1.3
				l0,0c0-0.5,0.1-0.9,0.3-1.3c0.2-0.4,0.5-0.7,0.9-0.9s0.8-0.3,1.3-0.3l0,0c0.4,0,0.7,0.1,1,0.2c0.3,0.1,0.6,0.3,0.8,0.6l0,0V52.2z
				 M45.1,58.5c0.3,0,0.6-0.1,0.9-0.2c0.3-0.1,0.5-0.4,0.6-0.6s0.2-0.6,0.2-0.9l0,0c0-0.3-0.1-0.7-0.2-0.9s-0.3-0.5-0.6-0.6
				s-0.5-0.2-0.9-0.2l0,0c-0.3,0-0.6,0.1-0.9,0.2s-0.5,0.4-0.6,0.6c-0.1,0.3-0.2,0.6-0.2,0.9l0,0c0,0.3,0.1,0.7,0.2,0.9
				c0.1,0.3,0.3,0.5,0.6,0.6C44.5,58.4,44.8,58.5,45.1,58.5L45.1,58.5z M62,59.2h-1v-4.8l-2.4,4h-0.4l-2.4-4v4.8h-0.9v-6.6h0.8
				l2.8,4.7l2.7-4.7H62L62,59.2z M67,54.2c0.7,0,1.2,0.2,1.6,0.5s0.6,0.8,0.6,1.5l0,0v3h-0.9v-0.7c-0.2,0.2-0.4,0.4-0.6,0.5
				c-0.3,0.1-0.6,0.2-1,0.2l0,0c-0.6,0-1-0.1-1.3-0.4c-0.3-0.3-0.5-0.6-0.5-1.1l0,0c0-0.4,0.2-0.8,0.5-1.1s0.8-0.4,1.5-0.4l0,0h1.4
				V56c0-0.4-0.1-0.7-0.3-0.9c-0.2-0.2-0.6-0.3-1-0.3l0,0c-0.3,0-0.6,0-0.9,0.1s-0.5,0.2-0.7,0.4l0,0L65,54.8
				c0.3-0.2,0.6-0.4,0.9-0.5C66.3,54.2,66.6,54.2,67,54.2L67,54.2z M66.8,58.6c0.3,0,0.6-0.1,0.9-0.2c0.3-0.2,0.4-0.4,0.5-0.7l0,0
				V57h-1.4c-0.8,0-1.2,0.3-1.2,0.8l0,0c0,0.3,0.1,0.5,0.3,0.6C66.2,58.5,66.5,58.6,66.8,58.6L66.8,58.6z M75,54.2
				c0.6,0,1.1,0.2,1.5,0.6s0.6,0.9,0.6,1.6l0,0v2.9h-0.9v-2.8c0-0.5-0.1-0.9-0.3-1.1c-0.2-0.2-0.6-0.4-1-0.4l0,0
				c-0.5,0-0.9,0.1-1.2,0.4c-0.3,0.3-0.4,0.7-0.4,1.2l0,0v2.6h-0.9v-5h0.9V55c0.2-0.3,0.4-0.5,0.7-0.6S74.6,54.2,75,54.2L75,54.2z
				 M82,54.2c0.7,0,1.2,0.2,1.6,0.5s0.6,0.8,0.6,1.5l0,0v3h-0.9v-0.7c-0.2,0.2-0.4,0.4-0.6,0.5c-0.3,0.1-0.6,0.2-1,0.2l0,0
				c-0.6,0-1-0.1-1.3-0.4c-0.3-0.3-0.5-0.6-0.5-1.1l0,0c0-0.4,0.2-0.8,0.5-1.1s0.8-0.4,1.5-0.4l0,0h1.4V56c0-0.4-0.1-0.7-0.3-0.9
				c-0.2-0.2-0.6-0.3-1-0.3l0,0c-0.3,0-0.6,0-0.9,0.1s-0.5,0.2-0.7,0.4l0,0L80,54.6c0.3-0.2,0.6-0.4,0.9-0.5
				C81.2,54.2,81.6,54.2,82,54.2L82,54.2z M81.8,58.6c0.3,0,0.6-0.1,0.9-0.2c0.3-0.2,0.4-0.4,0.5-0.7l0,0V57h-1.4
				c-0.8,0-1.2,0.3-1.2,0.8l0,0c0,0.3,0.1,0.5,0.3,0.6C81.2,58.5,81.4,58.6,81.8,58.6L81.8,58.6z M91.2,54.2h0.9v4.3
				c0,0.9-0.2,1.5-0.7,1.9C91,60.8,90.3,61,89.5,61l0,0c-0.5,0-0.9-0.1-1.4-0.2c-0.4-0.1-0.8-0.3-1-0.6l0,0l0.4-0.7
				c0.2,0.2,0.5,0.4,0.9,0.5s0.7,0.2,1.1,0.2l0,0c0.6,0,1-0.1,1.3-0.4c0.3-0.3,0.4-0.7,0.4-1.3l0,0v-0.4c-0.2,0.3-0.5,0.5-0.8,0.6
				s-0.7,0.2-1,0.2l0,0c-0.5,0-0.9-0.1-1.3-0.3s-0.7-0.5-0.9-0.9c-0.2-0.4-0.3-0.8-0.3-1.3l0,0c0-0.5,0.1-0.9,0.3-1.3
				c0.2-0.4,0.5-0.7,0.9-0.9s0.8-0.3,1.3-0.3l0,0c0.4,0,0.7,0.1,1.1,0.2s0.6,0.3,0.8,0.6l0,0v-0.5H91.2z M89.4,58.2
				c0.3,0,0.6-0.1,0.9-0.2c0.3-0.1,0.5-0.3,0.6-0.6s0.2-0.5,0.2-0.8l0,0c0-0.5-0.2-0.9-0.5-1.2S89.9,55,89.4,55l0,0
				c-0.5,0-0.9,0.1-1.2,0.4c-0.3,0.3-0.5,0.7-0.5,1.2l0,0c0,0.3,0.1,0.6,0.2,0.8s0.4,0.4,0.6,0.6C88.8,58.1,89.1,58.2,89.4,58.2
				L89.4,58.2z M99.7,56.7c0,0.1,0,0.2,0,0.3l0,0h-4.1c0.1,0.4,0.3,0.8,0.6,1.1c0.3,0.3,0.7,0.4,1.2,0.4l0,0c0.6,0,1.1-0.2,1.4-0.6
				l0,0l0.5,0.6c-0.2,0.3-0.5,0.5-0.8,0.6s-0.7,0.2-1.1,0.2l0,0c-0.5,0-1-0.1-1.4-0.3s-0.7-0.5-1-0.9c-0.2-0.4-0.3-0.8-0.3-1.3l0,0
				c0-0.5,0.1-0.9,0.3-1.3c0.2-0.4,0.5-0.7,0.9-0.9s0.8-0.3,1.3-0.3l0,0c0.5,0,0.9,0.1,1.3,0.3s0.7,0.5,0.9,0.9
				C99.6,55.8,99.7,56.2,99.7,56.7L99.7,56.7z M97.3,54.9c-0.4,0-0.8,0.1-1.1,0.4c-0.3,0.3-0.5,0.6-0.5,1l0,0h3.2
				c-0.1-0.4-0.2-0.8-0.5-1S97.7,54.9,97.3,54.9L97.3,54.9z M103.3,55c0.2-0.3,0.4-0.5,0.7-0.7c0.3-0.2,0.7-0.2,1.1-0.2l0,0V55
				c-0.1,0-0.1,0-0.2,0l0,0c-0.5,0-0.9,0.1-1.2,0.4c-0.3,0.3-0.4,0.7-0.4,1.3l0,0v2.5h-0.9v-5h0.9V55z M116.5,53.4h-3.7v2.3h3.3v0.8
				h-3.3v2.7h-0.9v-6.6h4.7L116.5,53.4L116.5,53.4z M119.9,55c0.2-0.3,0.4-0.5,0.7-0.7c0.3-0.2,0.7-0.2,1.1-0.2l0,0V55
				c-0.1,0-0.1,0-0.2,0l0,0c-0.5,0-0.9,0.1-1.2,0.4c-0.3,0.3-0.4,0.7-0.4,1.3l0,0v2.5H119v-5h0.9V55z M126.3,59.3
				c-0.5,0-0.9-0.1-1.3-0.3s-0.7-0.5-0.9-0.9c-0.2-0.4-0.3-0.8-0.3-1.3l0,0c0-0.5,0.1-0.9,0.3-1.3c0.2-0.4,0.5-0.7,0.9-0.9
				s0.8-0.3,1.3-0.3l0,0c0.5,0,0.9,0.1,1.3,0.3c0.4,0.2,0.7,0.5,0.9,0.9s0.3,0.8,0.3,1.3l0,0c0,0.5-0.1,0.9-0.3,1.3
				c-0.2,0.4-0.5,0.7-0.9,0.9C127.3,59.2,126.8,59.3,126.3,59.3L126.3,59.3z M126.3,58.5c0.3,0,0.6-0.1,0.9-0.2
				c0.3-0.1,0.5-0.4,0.6-0.6c0.1-0.3,0.2-0.6,0.2-0.9l0,0c0-0.3-0.1-0.7-0.2-0.9c-0.1-0.3-0.3-0.5-0.6-0.6c-0.3-0.1-0.5-0.2-0.9-0.2
				l0,0c-0.3,0-0.6,0.1-0.9,0.2c-0.3,0.1-0.5,0.4-0.6,0.6c-0.1,0.3-0.2,0.6-0.2,0.9l0,0c0,0.3,0.1,0.7,0.2,0.9
				c0.1,0.3,0.3,0.5,0.6,0.6C125.7,58.4,126,58.5,126.3,58.5L126.3,58.5z M134.3,54.2c0.6,0,1.1,0.2,1.5,0.6
				c0.4,0.4,0.6,0.9,0.6,1.6l0,0v2.9h-0.9v-2.8c0-0.5-0.1-0.9-0.3-1.1c-0.2-0.2-0.6-0.4-1-0.4l0,0c-0.5,0-0.9,0.1-1.2,0.4
				c-0.3,0.3-0.4,0.7-0.4,1.2l0,0v2.6h-0.9v-5h0.9V55c0.2-0.3,0.4-0.5,0.7-0.6C133.5,54.2,133.9,54.2,134.3,54.2L134.3,54.2z
				 M142,58.3l0.3,0.7c-0.1,0.1-0.3,0.2-0.5,0.3s-0.4,0.1-0.6,0.1l0,0c-0.5,0-0.9-0.1-1.2-0.4c-0.3-0.3-0.4-0.7-0.4-1.2l0,0V55h-0.9
				v-0.7h0.9v-1.1h0.9v1.1h1.4V55h-1.4v2.7c0,0.3,0.1,0.5,0.2,0.6c0.1,0.1,0.3,0.2,0.6,0.2l0,0C141.6,58.5,141.8,58.4,142,58.3
				L142,58.3z M156,59.2h-1v-4.8l-2.4,4h-0.4l-2.4-4v4.8h-0.9v-6.6h0.8l2.8,4.7l2.7-4.7h0.8L156,59.2z M161.1,54.2
				c0.7,0,1.2,0.2,1.6,0.5c0.4,0.3,0.6,0.8,0.6,1.5l0,0v3h-0.9v-0.7c-0.2,0.2-0.4,0.4-0.6,0.5c-0.3,0.1-0.6,0.2-1,0.2l0,0
				c-0.6,0-1-0.1-1.3-0.4c-0.3-0.3-0.5-0.6-0.5-1.1l0,0c0-0.4,0.2-0.8,0.5-1.1s0.8-0.4,1.5-0.4l0,0h1.4V56c0-0.4-0.1-0.7-0.3-0.9
				s-0.6-0.3-1-0.3l0,0c-0.3,0-0.6,0-0.9,0.1s-0.5,0.2-0.7,0.4l0,0l-0.4-0.7c0.3-0.2,0.6-0.4,0.9-0.5
				C160.3,54.2,160.6,54.2,161.1,54.2L161.1,54.2z M160.8,58.6c0.3,0,0.6-0.1,0.9-0.2c0.3-0.2,0.4-0.4,0.5-0.7l0,0V57h-1.4
				c-0.8,0-1.2,0.3-1.2,0.8l0,0c0,0.3,0.1,0.5,0.3,0.6S160.5,58.6,160.8,58.6L160.8,58.6z M169,54.2c0.6,0,1.1,0.2,1.5,0.6
				c0.4,0.4,0.6,0.9,0.6,1.6l0,0v2.9h-0.9v-2.8c0-0.5-0.1-0.9-0.3-1.1c-0.2-0.2-0.6-0.4-1-0.4l0,0c-0.5,0-0.9,0.1-1.2,0.4
				c-0.3,0.3-0.4,0.7-0.4,1.2l0,0v2.6h-0.9v-5h0.9V55c0.2-0.3,0.4-0.5,0.7-0.6C168.2,54.2,168.6,54.2,169,54.2L169,54.2z M178.3,61
				v-8.9h0.8V61H178.3z M186.5,59.2v-6.6h0.9v5.8h3.6v0.8H186.5z M197.8,56.7c0,0.1,0,0.2,0,0.3l0,0h-4.1c0.1,0.4,0.3,0.8,0.6,1.1
				s0.7,0.4,1.2,0.4l0,0c0.6,0,1.1-0.2,1.4-0.6l0,0l0.5,0.6c-0.2,0.3-0.5,0.5-0.8,0.6s-0.7,0.2-1.1,0.2l0,0c-0.5,0-1-0.1-1.4-0.3
				s-0.7-0.5-1-0.9c-0.2-0.4-0.3-0.8-0.3-1.3l0,0c0-0.5,0.1-0.9,0.3-1.3c0.2-0.4,0.5-0.7,0.9-0.9s0.8-0.3,1.3-0.3l0,0
				c0.5,0,0.9,0.1,1.3,0.3c0.4,0.2,0.7,0.5,0.9,0.9C197.7,55.8,197.8,56.2,197.8,56.7L197.8,56.7z M195.4,54.9
				c-0.4,0-0.8,0.1-1.1,0.4c-0.3,0.3-0.5,0.6-0.5,1l0,0h3.2c-0.1-0.4-0.2-0.8-0.5-1C196.2,55.1,195.8,54.9,195.4,54.9L195.4,54.9z
				 M207.2,54.2h0.8l-1.9,5h-0.9l-1.4-3.8l-1.5,3.8h-0.9l-1.9-5h0.9l1.5,4l1.5-4h0.8l1.5,4L207.2,54.2z M210.3,59.2v-5h0.9v5H210.3z
				 M210.8,53.2c-0.2,0-0.3-0.1-0.4-0.2c-0.1-0.1-0.2-0.3-0.2-0.4l0,0c0-0.2,0.1-0.3,0.2-0.4c0.1-0.1,0.3-0.2,0.4-0.2l0,0
				c0.2,0,0.3,0.1,0.4,0.2s0.2,0.2,0.2,0.4l0,0c0,0.2-0.1,0.3-0.2,0.4S211,53.2,210.8,53.2L210.8,53.2z M215.8,59.3
				c-0.4,0-0.8-0.1-1.2-0.2s-0.7-0.3-0.9-0.4l0,0l0.4-0.7c0.2,0.2,0.5,0.3,0.8,0.4c0.3,0.1,0.6,0.1,1,0.1l0,0c0.8,0,1.2-0.2,1.2-0.7
				l0,0c0-0.2-0.1-0.3-0.2-0.4c-0.1-0.1-0.2-0.2-0.4-0.2s-0.4-0.1-0.7-0.1l0,0c-0.4-0.1-0.7-0.1-1-0.2c-0.3-0.1-0.5-0.2-0.7-0.4
				s-0.3-0.5-0.3-0.8l0,0c0-0.5,0.2-0.8,0.6-1.1c0.4-0.3,0.9-0.4,1.5-0.4l0,0c0.3,0,0.7,0,1,0.1s0.6,0.2,0.8,0.3l0,0l-0.4,0.7
				c-0.4-0.3-0.9-0.4-1.4-0.4l0,0c-0.4,0-0.7,0.1-0.9,0.2c-0.2,0.1-0.3,0.3-0.3,0.5l0,0c0,0.2,0.1,0.3,0.2,0.4
				c0.1,0.1,0.3,0.2,0.4,0.2c0.2,0,0.4,0.1,0.7,0.2l0,0c0.4,0.1,0.7,0.1,1,0.2c0.2,0.1,0.5,0.2,0.6,0.4c0.2,0.2,0.3,0.5,0.3,0.8l0,0
				c0,0.5-0.2,0.8-0.6,1.1C217,59.1,216.5,59.3,215.8,59.3L215.8,59.3z M223.1,58.3l0.3,0.7c-0.1,0.1-0.3,0.2-0.5,0.3
				s-0.4,0.1-0.6,0.1l0,0c-0.5,0-0.9-0.1-1.2-0.4c-0.3-0.3-0.4-0.7-0.4-1.2l0,0V55h-0.9v-0.7h0.9v-1.1h0.9v1.1h1.4V55h-1.4v2.7
				c0,0.3,0.1,0.5,0.2,0.6c0.1,0.1,0.3,0.2,0.6,0.2l0,0C222.7,58.5,222.9,58.4,223.1,58.3L223.1,58.3z M227.9,59.3
				c-0.5,0-0.9-0.1-1.3-0.3c-0.4-0.2-0.7-0.5-0.9-0.9s-0.3-0.8-0.3-1.3l0,0c0-0.5,0.1-0.9,0.3-1.3c0.2-0.4,0.5-0.7,0.9-0.9
				s0.8-0.3,1.3-0.3l0,0c0.5,0,0.9,0.1,1.3,0.3c0.4,0.2,0.7,0.5,0.9,0.9s0.3,0.8,0.3,1.3l0,0c0,0.5-0.1,0.9-0.3,1.3
				c-0.2,0.4-0.5,0.7-0.9,0.9S228.4,59.3,227.9,59.3L227.9,59.3z M227.9,58.5c0.3,0,0.6-0.1,0.9-0.2c0.3-0.1,0.5-0.4,0.6-0.6
				s0.2-0.6,0.2-0.9l0,0c0-0.3-0.1-0.7-0.2-0.9s-0.3-0.5-0.6-0.6s-0.5-0.2-0.9-0.2l0,0c-0.3,0-0.6,0.1-0.9,0.2s-0.5,0.4-0.6,0.6
				c-0.1,0.3-0.2,0.6-0.2,0.9l0,0c0,0.3,0.1,0.7,0.2,0.9c0.1,0.3,0.3,0.5,0.6,0.6C227.3,58.4,227.5,58.5,227.9,58.5L227.9,58.5z
				 M235.8,54.2c0.6,0,1.1,0.2,1.5,0.6c0.4,0.4,0.6,0.9,0.6,1.6l0,0v2.9H237v-2.8c0-0.5-0.1-0.9-0.4-1.1c-0.2-0.2-0.6-0.4-1-0.4l0,0
				c-0.5,0-0.9,0.1-1.2,0.4c-0.3,0.3-0.4,0.7-0.4,1.2l0,0v2.6h-0.9v-5h0.9V55c0.2-0.3,0.4-0.5,0.7-0.6
				C235.1,54.2,235.4,54.2,235.8,54.2L235.8,54.2z M241.2,58c0.2,0,0.3,0.1,0.4,0.2s0.2,0.3,0.2,0.5l0,0c0,0.1,0,0.2,0,0.3
				s-0.1,0.2-0.1,0.4l0,0l-0.4,1.3h-0.6l0.3-1.4c-0.1,0-0.2-0.1-0.3-0.2c-0.1-0.1-0.1-0.2-0.1-0.4l0,0c0-0.2,0.1-0.3,0.2-0.5
				C240.9,58,241.1,58,241.2,58L241.2,58z M248.7,59.2v-6.6h0.9v6.6H248.7z M256.7,52.2h0.9v7h-0.9v-0.8c-0.2,0.3-0.5,0.5-0.8,0.6
				s-0.6,0.2-1,0.2l0,0c-0.5,0-0.9-0.1-1.3-0.3s-0.7-0.5-0.9-0.9s-0.3-0.8-0.3-1.3l0,0c0-0.5,0.1-0.9,0.3-1.3
				c0.2-0.4,0.5-0.7,0.9-0.9s0.8-0.3,1.3-0.3l0,0c0.4,0,0.7,0.1,1,0.2c0.3,0.1,0.6,0.3,0.8,0.6l0,0V52.2z M255,58.5
				c0.3,0,0.6-0.1,0.9-0.2c0.3-0.1,0.5-0.4,0.6-0.6c0.1-0.3,0.2-0.6,0.2-0.9l0,0c0-0.3-0.1-0.7-0.2-0.9c-0.1-0.3-0.3-0.5-0.6-0.6
				c-0.3-0.1-0.5-0.2-0.9-0.2l0,0c-0.3,0-0.6,0.1-0.9,0.2c-0.3,0.1-0.5,0.4-0.6,0.6c-0.1,0.3-0.2,0.6-0.2,0.9l0,0
				c0,0.3,0.1,0.7,0.2,0.9c0.1,0.3,0.3,0.5,0.6,0.6C254.4,58.4,254.7,58.5,255,58.5L255,58.5z M262.6,54.2c0.7,0,1.2,0.2,1.6,0.5
				s0.6,0.8,0.6,1.5l0,0v3h-0.9v-0.7c-0.2,0.2-0.4,0.4-0.6,0.5c-0.3,0.1-0.6,0.2-1,0.2l0,0c-0.6,0-1-0.1-1.3-0.4
				c-0.3-0.3-0.5-0.6-0.5-1.1l0,0c0-0.4,0.2-0.8,0.5-1.1s0.8-0.4,1.5-0.4l0,0h1.4V56c0-0.4-0.1-0.7-0.3-0.9s-0.6-0.3-1-0.3l0,0
				c-0.3,0-0.6,0-0.9,0.1s-0.5,0.2-0.7,0.4l0,0l-0.4-0.7c0.3-0.2,0.6-0.4,0.9-0.5C261.8,54.2,262.2,54.2,262.6,54.2L262.6,54.2z
				 M262.4,58.6c0.3,0,0.6-0.1,0.9-0.2c0.3-0.2,0.4-0.4,0.5-0.7l0,0V57h-1.4c-0.8,0-1.2,0.3-1.2,0.8l0,0c0,0.3,0.1,0.5,0.3,0.6
				C261.8,58.5,262,58.6,262.4,58.6L262.4,58.6z M270.5,54.2c0.6,0,1.1,0.2,1.5,0.6s0.6,0.9,0.6,1.6l0,0v2.9h-0.9v-2.8
				c0-0.5-0.1-0.9-0.3-1.1c-0.2-0.2-0.6-0.4-1-0.4l0,0c-0.5,0-0.9,0.1-1.2,0.4c-0.3,0.3-0.4,0.7-0.4,1.2l0,0v2.6h-0.9v-7h0.9v2.7
				c0.2-0.2,0.4-0.4,0.7-0.6S270.1,54.2,270.5,54.2L270.5,54.2z M277.9,59.3c-0.5,0-0.9-0.1-1.3-0.3s-0.7-0.5-0.9-0.9
				c-0.2-0.4-0.3-0.8-0.3-1.3l0,0c0-0.5,0.1-0.9,0.3-1.3c0.2-0.4,0.5-0.7,0.9-0.9s0.8-0.3,1.3-0.3l0,0c0.5,0,0.9,0.1,1.3,0.3
				s0.7,0.5,0.9,0.9c0.2,0.4,0.3,0.8,0.3,1.3l0,0c0,0.5-0.1,0.9-0.3,1.3c-0.2,0.4-0.5,0.7-0.9,0.9S278.4,59.3,277.9,59.3L277.9,59.3
				z M277.9,58.5c0.3,0,0.6-0.1,0.9-0.2c0.3-0.1,0.5-0.4,0.6-0.6c0.1-0.3,0.2-0.6,0.2-0.9l0,0c0-0.3-0.1-0.7-0.2-0.9
				c-0.1-0.3-0.3-0.5-0.6-0.6s-0.5-0.2-0.9-0.2l0,0c-0.3,0-0.6,0.1-0.9,0.2c-0.3,0.1-0.5,0.4-0.6,0.6s-0.2,0.6-0.2,0.9l0,0
				c0,0.3,0.1,0.7,0.2,0.9s0.4,0.5,0.6,0.6C277.3,58.4,277.6,58.5,277.9,58.5L277.9,58.5z"/>
		</g>
	</g>
	<g transform="rotate(0 0 27.1567)">
		<g transform="matrix(1 0 0 1 0 0)">
			<path class="st1" d="M5.3,37.3H0v-0.2l1.2-0.6v-7.4L0,28.6v-0.2h4.9c0.7,0,1.3,0.1,1.8,0.2s1,0.4,1.3,0.7
				c0.3,0.3,0.5,0.7,0.5,1.1l0,0c0,0.5-0.2,0.9-0.6,1.3c-0.4,0.4-0.9,0.7-1.6,0.8l0,0c0.9,0.1,1.7,0.4,2.2,0.8
				c0.5,0.4,0.8,0.9,0.8,1.5l0,0c0,0.5-0.2,0.9-0.5,1.3C8.4,36.5,8,36.8,7.4,37C6.7,37.2,6,37.3,5.3,37.3L5.3,37.3z M4,29.1L4,29.1
				H3.8v3.3h0.3c0.6,0,1-0.1,1.3-0.4c0.3-0.3,0.5-0.7,0.5-1.2l0,0c0-0.6-0.2-1-0.5-1.3C5.1,29.3,4.7,29.1,4,29.1z M4.5,33L4.5,33
				H3.8v3.6h0.8c0.6,0,1.1-0.2,1.5-0.5s0.5-0.8,0.5-1.3l0,0c0-0.6-0.2-1-0.5-1.3C5.7,33.2,5.2,33,4.5,33z M12.3,37.3H9.7v-0.2
				l0.7-0.4l3-7H15l3,6.9l0.9,0.5v0.2h-4.3v-0.2l1-0.4L14.7,35H12l-0.7,1.7l0.9,0.4v0.2H12.3z M13.4,31.8l-1,2.5h2.1L13.4,31.8z
				 M22.2,37.5L22.2,37.5c-0.5,0-1-0.1-1.4-0.2c-0.4-0.1-0.8-0.3-1.2-0.4l0,0l-0.1-2h0.2l1.2,1.6c0.4,0.2,0.8,0.3,1.2,0.3l0,0
				c0.4,0,0.7-0.1,1-0.2c0.2-0.1,0.4-0.4,0.4-0.6l0,0c0-0.2-0.1-0.4-0.2-0.5s-0.3-0.3-0.6-0.4c-0.3-0.1-0.7-0.3-1.2-0.6l0,0
				c-0.6-0.3-1-0.6-1.3-0.9s-0.4-0.8-0.4-1.3l0,0c0-0.5,0.1-0.9,0.4-1.3s0.7-0.7,1.1-0.9c0.5-0.2,1-0.3,1.5-0.3l0,0
				c0.4,0,0.9,0,1.2,0.1c0.4,0.1,0.7,0.2,1,0.4l0,0l0.1,1.9H25l-1.3-1.6c-0.2-0.1-0.5-0.1-0.8-0.1l0,0c-0.3,0-0.5,0.1-0.7,0.2
				c-0.2,0.2-0.3,0.4-0.3,0.7l0,0c0,0.2,0,0.3,0.1,0.5c0.1,0.1,0.3,0.3,0.5,0.4c0.2,0.1,0.5,0.3,0.9,0.5l0,0
				c0.7,0.3,1.2,0.7,1.5,1.1c0.3,0.4,0.5,0.8,0.5,1.4l0,0c0,0.5-0.1,0.9-0.4,1.3c-0.3,0.4-0.7,0.6-1.2,0.8
				C23.4,37.4,22.8,37.5,22.2,37.5z M20.6,36.3l-0.1-0.1L20.6,36.3L20.6,36.3z M29.3,37.5L29.3,37.5c-0.5,0-1-0.1-1.4-0.2
				c-0.4-0.1-0.8-0.3-1.2-0.4l0,0l-0.1-2h0.2l1.2,1.6c0.4,0.2,0.8,0.3,1.2,0.3l0,0c0.4,0,0.7-0.1,1-0.2c0.2-0.1,0.4-0.4,0.4-0.6l0,0
				c0-0.2-0.1-0.4-0.2-0.5s-0.3-0.3-0.6-0.4c-0.3-0.1-0.7-0.3-1.2-0.6l0,0c-0.6-0.3-1-0.6-1.3-0.9s-0.4-0.8-0.4-1.3l0,0
				c0-0.5,0.1-0.9,0.4-1.3s0.7-0.7,1.1-0.9c0.5-0.2,1-0.3,1.5-0.3l0,0c0.4,0,0.9,0,1.2,0.1c0.4,0.1,0.7,0.2,1,0.4l0,0l0.1,1.9H32
				l-1.3-1.6c-0.2-0.1-0.5-0.1-0.8-0.1l0,0c-0.3,0-0.5,0.1-0.7,0.2c-0.2,0.2-0.3,0.4-0.3,0.7l0,0c0,0.2,0,0.3,0.1,0.5
				c0.1,0.1,0.3,0.3,0.5,0.4c0.2,0.1,0.5,0.3,0.9,0.5l0,0c0.7,0.3,1.2,0.7,1.5,1.1c0.3,0.4,0.5,0.8,0.5,1.4l0,0
				c0,0.5-0.1,0.9-0.4,1.3c-0.3,0.4-0.7,0.6-1.2,0.8C30.5,37.4,29.9,37.5,29.3,37.5z M27.7,36.3l-0.1-0.1L27.7,36.3L27.7,36.3z
				 M40.3,37.3h-3.4v-0.2l1.2-0.6l0.3-7.4l-1.2-0.6v-0.2h3.9l2.5,5.7l2.4-5.7h3.8v0.2L48.6,29l0.2,7.6l1.1,0.6v0.2h-4.8v-0.2
				l1.1-0.6l-0.1-6.3l-3,7.1h-0.9l-3.1-7.1l-0.2,6.3l1.2,0.6v0.1H40.3z M53,37.3h-2.5v-0.2l0.7-0.4l3-7h1.5l3,6.9l0.9,0.5v0.2h-4.3
				v-0.2l1-0.4L55.5,35h-2.7l-0.7,1.7l0.9,0.4V37.3z M54.2,31.8l-1,2.5h2.1L54.2,31.8z M63,37.5L63,37.5c-0.5,0-1-0.1-1.4-0.2
				c-0.4-0.1-0.8-0.3-1.2-0.4l0,0l-0.1-2h0.2l1.2,1.6c0.4,0.2,0.8,0.3,1.2,0.3l0,0c0.4,0,0.7-0.1,1-0.2c0.2-0.1,0.4-0.4,0.4-0.6l0,0
				c0-0.2-0.1-0.4-0.2-0.5s-0.3-0.3-0.6-0.4c-0.3-0.1-0.7-0.3-1.2-0.6l0,0c-0.6-0.3-1-0.6-1.3-0.9c-0.3-0.4-0.4-0.8-0.4-1.3l0,0
				c0-0.5,0.1-0.9,0.4-1.3c0.3-0.4,0.7-0.7,1.1-0.9c0.5-0.2,1-0.3,1.5-0.3l0,0c0.4,0,0.9,0,1.2,0.1c0.4,0.1,0.7,0.2,1,0.4l0,0L66,32
				h-0.2l-1.3-1.6c-0.2-0.1-0.5-0.1-0.8-0.1l0,0c-0.3,0-0.5,0.1-0.7,0.2c-0.2,0.2-0.3,0.4-0.3,0.7l0,0c0,0.2,0,0.3,0.1,0.5
				c0.1,0.1,0.3,0.3,0.5,0.4c0.2,0.1,0.5,0.3,0.9,0.5l0,0c0.7,0.3,1.2,0.7,1.5,1.1s0.5,0.8,0.5,1.4l0,0c0,0.5-0.1,0.9-0.4,1.3
				c-0.3,0.4-0.7,0.6-1.2,0.8S63.6,37.5,63,37.5z M61.4,36.3L61.4,36.3C61.3,36.2,61.3,36.3,61.4,36.3L61.4,36.3z M73.7,37.3h-5.1
				v-0.2l1.3-0.4v-6.2h-1.4l-1.1,2.1h-0.2v-2.8h7.9v2.8h-0.2l-1.1-2.1h-1.4v6.2l1.3,0.4L73.7,37.3L73.7,37.3z M83.3,37.3h-7.4v-0.2
				l1-0.4v-6.3l-1-0.4v-0.2h7v2.1h-0.2l-1-1.4h-2.3v2.7H81l0.8-1H82v2.6h-0.2l-0.8-1h-1.6v2.9H82l1.1-1.9h0.2
				C83.3,34.8,83.3,37.3,83.3,37.3z M88.7,37.3h-4.4v-0.2l1-0.4v-6.3l-1-0.4v-0.2h4.9c0.8,0,1.4,0.2,1.9,0.5s0.7,0.8,0.7,1.3l0,0
				c0,0.4-0.1,0.7-0.4,1c-0.2,0.3-0.6,0.5-1.1,0.7l0,0l2.1,3.4l0.9,0.5v0.2h-3.4l-1.8-3.5h-0.3v2.8L88.7,37.3
				C88.7,37.2,88.7,37.3,88.7,37.3z M88,30.3L88,30.3h-0.2v2.9H88c0.5,0,0.8-0.1,1-0.4c0.2-0.3,0.3-0.6,0.3-1.1l0,0
				c0-0.5-0.1-0.8-0.3-1.1C88.8,30.5,88.5,30.3,88,30.3z M101.7,37.3h-4.8v-0.2l1.2-0.6v-7.4l-1.2-0.6v-0.2h5.4c1,0,1.7,0.2,2.2,0.6
				s0.8,0.9,0.8,1.6l0,0c0,0.5-0.2,0.9-0.5,1.2c-0.3,0.3-0.8,0.6-1.3,0.8l0,0l2.5,3.9l1,0.6v0.2h-3.6L101,33h-0.4v3.4l1,0.6v0.3
				H101.7z M101,29.1L101,29.1h-0.3v3.4h0.4c0.5,0,1-0.2,1.3-0.5s0.5-0.7,0.5-1.2l0,0c0-0.6-0.1-1-0.4-1.3
				C102.1,29.3,101.6,29.1,101,29.1z M111.7,37.5L111.7,37.5c-0.8,0-1.6-0.2-2.2-0.5s-1.1-0.8-1.5-1.4c-0.4-0.6-0.5-1.3-0.5-2l0,0
				c0-0.8,0.2-1.4,0.5-2c0.4-0.6,0.9-1.1,1.5-1.4s1.4-0.5,2.2-0.5l0,0c0.8,0,1.6,0.2,2.2,0.5s1.1,0.8,1.5,1.4c0.4,0.6,0.5,1.3,0.5,2
				l0,0c0,0.8-0.2,1.4-0.5,2c-0.4,0.6-0.9,1.1-1.5,1.4S112.5,37.5,111.7,37.5z M111.8,36.8L111.8,36.8c0.3,0,0.6-0.1,0.8-0.4
				c0.2-0.3,0.4-0.6,0.5-1s0.2-0.9,0.2-1.5l0,0c0-0.7-0.1-1.3-0.2-1.8s-0.4-1-0.6-1.3c-0.3-0.3-0.6-0.5-0.9-0.5l0,0
				c-0.3,0-0.5,0.1-0.8,0.4c-0.2,0.3-0.4,0.6-0.5,1s-0.2,0.9-0.2,1.5l0,0c0,0.7,0.1,1.3,0.2,1.8c0.2,0.5,0.4,1,0.6,1.3
				S111.5,36.8,111.8,36.8z M119.7,37.5L119.7,37.5c-0.5,0-1-0.1-1.4-0.2c-0.4-0.1-0.8-0.3-1.2-0.4l0,0l-0.1-2h0.2l1.2,1.6
				c0.4,0.2,0.8,0.3,1.2,0.3l0,0c0.4,0,0.7-0.1,1-0.2c0.2-0.1,0.4-0.4,0.4-0.6l0,0c0-0.2-0.1-0.4-0.2-0.5s-0.3-0.3-0.6-0.4
				c-0.3-0.1-0.7-0.3-1.2-0.6l0,0c-0.6-0.3-1-0.6-1.3-0.9c-0.3-0.4-0.4-0.8-0.4-1.3l0,0c0-0.5,0.1-0.9,0.4-1.3s0.7-0.7,1.1-0.9
				c0.5-0.2,1-0.3,1.5-0.3l0,0c0.4,0,0.9,0,1.2,0.1c0.4,0.1,0.7,0.2,1,0.4l0,0l0.1,1.9h-0.2l-1.3-1.6c-0.2-0.1-0.5-0.1-0.8-0.1l0,0
				c-0.3,0-0.5,0.1-0.7,0.2c-0.2,0.2-0.3,0.4-0.3,0.7l0,0c0,0.2,0,0.3,0.1,0.5c0.1,0.1,0.3,0.3,0.5,0.4c0.2,0.1,0.5,0.3,0.9,0.5l0,0
				c0.7,0.3,1.2,0.7,1.5,1.1c0.3,0.4,0.5,0.8,0.5,1.4l0,0c0,0.5-0.1,0.9-0.4,1.3c-0.3,0.4-0.7,0.6-1.2,0.8
				C120.8,37.4,120.3,37.5,119.7,37.5z M118.1,36.3L118.1,36.3C118,36.2,118,36.3,118.1,36.3L118.1,36.3z M126.7,37.5L126.7,37.5
				c-0.5,0-1-0.1-1.4-0.2c-0.4-0.1-0.8-0.3-1.2-0.4l0,0l-0.1-2h0.2l1.2,1.6c0.4,0.2,0.8,0.3,1.2,0.3l0,0c0.4,0,0.7-0.1,1-0.2
				c0.2-0.1,0.4-0.4,0.4-0.6l0,0c0-0.2-0.1-0.4-0.2-0.5s-0.3-0.3-0.6-0.4c-0.3-0.1-0.7-0.3-1.2-0.6l0,0c-0.6-0.3-1-0.6-1.3-0.9
				s-0.4-0.8-0.4-1.3l0,0c0-0.5,0.1-0.9,0.4-1.3s0.7-0.7,1.1-0.9c0.5-0.2,1-0.3,1.5-0.3l0,0c0.4,0,0.9,0,1.2,0.1
				c0.4,0.1,0.7,0.2,1,0.4l0,0l0.1,1.9h-0.2l-1.3-1.6c-0.2-0.1-0.5-0.1-0.8-0.1l0,0c-0.3,0-0.5,0.1-0.7,0.2
				c-0.2,0.2-0.3,0.4-0.3,0.7l0,0c0,0.2,0,0.3,0.1,0.5c0.1,0.1,0.3,0.3,0.5,0.4c0.2,0.1,0.5,0.3,0.9,0.5l0,0
				c0.7,0.3,1.2,0.7,1.5,1.1c0.3,0.4,0.5,0.8,0.5,1.4l0,0c0,0.5-0.1,0.9-0.4,1.3c-0.3,0.4-0.7,0.6-1.2,0.8
				C127.9,37.4,127.3,37.5,126.7,37.5z M125.1,36.3L125.1,36.3L125.1,36.3L125.1,36.3z M137.7,37.5L137.7,37.5
				c-0.6,0-1.2-0.1-1.7-0.2c-0.5-0.1-1-0.3-1.4-0.5l0,0l-0.1-2.3h0.3l1.2,1.8c0.2,0.1,0.4,0.3,0.7,0.4c0.3,0.1,0.5,0.1,0.8,0.1l0,0
				c0.5,0,0.8-0.1,1.2-0.3s0.5-0.5,0.5-1l0,0c0-0.3-0.1-0.5-0.2-0.6c-0.1-0.2-0.3-0.4-0.7-0.5s-0.8-0.4-1.5-0.7l0,0
				c-0.6-0.3-1.1-0.6-1.5-1c-0.3-0.4-0.5-0.9-0.5-1.5l0,0c0-0.4,0.1-0.8,0.3-1.1c0.2-0.4,0.5-0.7,0.8-0.9c0.3-0.3,0.7-0.5,1.2-0.6
				c0.4-0.1,0.9-0.2,1.3-0.2l0,0c0.5,0,1,0.1,1.4,0.2c0.5,0.1,0.9,0.3,1.2,0.5l0,0l0.1,2.2H141l-1.1-1.6c-0.2-0.2-0.4-0.3-0.6-0.4
				c-0.2-0.1-0.5-0.1-0.7-0.1l0,0c-0.4,0-0.6,0.1-0.9,0.3c-0.2,0.2-0.3,0.5-0.3,0.9l0,0c0,0.2,0.1,0.4,0.2,0.6
				c0.1,0.2,0.3,0.3,0.6,0.5s0.6,0.3,1.1,0.6l0,0c0.8,0.4,1.4,0.8,1.8,1.2c0.4,0.4,0.6,1,0.6,1.6l0,0c0,0.6-0.2,1.1-0.5,1.5
				s-0.8,0.8-1.4,1C139,37.4,138.4,37.5,137.7,37.5z M149,37.3h-5.1v-0.2l1.3-0.4v-6.2h-1.4l-1.1,2.1h-0.2v-2.8h7.9v2.8h-0.2
				l-1.1-2.1h-1.4v6.2l1.3,0.4V37.3z M158.6,37.3h-7.4v-0.2l1-0.4v-6.3l-1-0.4v-0.2h7v2.1H158l-1-1.4h-2.3v2.7h1.6l0.8-1h0.2v2.6
				h-0.2l-0.8-1h-1.6v2.9h2.5l1.1-1.9h0.2L158.6,37.3L158.6,37.3z M164.5,37.4h-1.2l-3.2-6.9l-0.9-0.5v-0.2h4.4V30l-0.9,0.4l1.9,4.3
				h0.1l1.9-4.2l-0.9-0.4v-0.2h2.5V30l-0.7,0.4L164.5,37.4z M176.3,37.3h-7.4v-0.2l1-0.4v-6.3l-1-0.4v-0.2h7v2.1h-0.2l-1-1.4h-2.3
				v2.7h1.6l0.8-1h0.2v2.6h-0.2l-0.8-1h-1.6v2.9h2.5l1.1-1.9h0.2L176.3,37.3L176.3,37.3z M180.6,37.3h-3.3v-0.2l1-0.4v-6.3l-1-0.4
				v-0.2h2.8l4.5,4.7v-4l-1.4-0.4v-0.2h3.3V30l-1,0.4v7h-1.2l-5-5.2v4.5l1.4,0.4v0.2H180.6z M195.4,37.3h-4.8v-0.2l1.2-0.6v-7.4
				l-1.2-0.6v-0.2h5.4c1,0,1.7,0.2,2.2,0.6s0.8,0.9,0.8,1.6l0,0c0,0.5-0.2,0.9-0.5,1.2c-0.3,0.3-0.8,0.6-1.3,0.8l0,0l2.5,3.9l1,0.6
				v0.2h-3.6l-2.4-4.2h-0.4v3.4l1,0.6v0.3H195.4z M194.8,29.1L194.8,29.1h-0.3v3.4h0.4c0.5,0,1-0.2,1.3-0.5s0.5-0.7,0.5-1.2l0,0
				c0-0.6-0.1-1-0.4-1.3S195.4,29.1,194.8,29.1z M205.4,37.5L205.4,37.5c-0.8,0-1.6-0.2-2.2-0.5s-1.1-0.8-1.5-1.4
				c-0.4-0.6-0.5-1.3-0.5-2l0,0c0-0.8,0.2-1.4,0.5-2c0.4-0.6,0.9-1.1,1.5-1.4s1.4-0.5,2.2-0.5l0,0c0.8,0,1.6,0.2,2.2,0.5
				c0.6,0.3,1.1,0.8,1.5,1.4c0.4,0.6,0.5,1.3,0.5,2l0,0c0,0.8-0.2,1.4-0.5,2c-0.4,0.6-0.9,1.1-1.5,1.4S206.2,37.5,205.4,37.5z
				 M205.6,36.8L205.6,36.8c0.3,0,0.6-0.1,0.8-0.4c0.2-0.3,0.4-0.6,0.5-1s0.2-0.9,0.2-1.5l0,0c0-0.7-0.1-1.3-0.2-1.8
				c-0.1-0.5-0.4-1-0.6-1.3c-0.3-0.3-0.6-0.5-0.9-0.5l0,0c-0.3,0-0.5,0.1-0.8,0.4c-0.2,0.3-0.4,0.6-0.5,1s-0.2,0.9-0.2,1.5l0,0
				c0,0.7,0.1,1.3,0.2,1.8c0.2,0.5,0.4,1,0.6,1.3S205.2,36.8,205.6,36.8z M213.4,37.5L213.4,37.5c-0.5,0-1-0.1-1.4-0.2
				c-0.4-0.1-0.8-0.3-1.2-0.4l0,0l-0.1-2h0.2l1.2,1.6c0.4,0.2,0.8,0.3,1.2,0.3l0,0c0.4,0,0.7-0.1,1-0.2c0.2-0.1,0.4-0.4,0.4-0.6l0,0
				c0-0.2-0.1-0.4-0.2-0.5s-0.3-0.3-0.6-0.4c-0.3-0.1-0.7-0.3-1.2-0.6l0,0c-0.6-0.3-1-0.6-1.3-0.9s-0.4-0.8-0.4-1.3l0,0
				c0-0.5,0.1-0.9,0.4-1.3c0.3-0.4,0.7-0.7,1.1-0.9c0.5-0.2,1-0.3,1.5-0.3l0,0c0.4,0,0.9,0,1.2,0.1c0.4,0.1,0.7,0.2,1,0.4l0,0
				l0.1,1.9h-0.2l-1.3-1.6c-0.2-0.1-0.5-0.1-0.8-0.1l0,0c-0.3,0-0.5,0.1-0.7,0.2c-0.2,0.2-0.3,0.4-0.3,0.7l0,0c0,0.2,0,0.3,0.1,0.5
				c0.1,0.1,0.3,0.3,0.5,0.4c0.2,0.1,0.5,0.3,0.9,0.5l0,0c0.7,0.3,1.2,0.7,1.5,1.1c0.3,0.4,0.5,0.8,0.5,1.4l0,0
				c0,0.5-0.1,0.9-0.4,1.3c-0.3,0.4-0.7,0.6-1.2,0.8C214.5,37.4,214,37.5,213.4,37.5z M211.8,36.3l-0.1-0.1
				C211.7,36.2,211.7,36.3,211.8,36.3L211.8,36.3z M220.5,37.5L220.5,37.5c-0.5,0-1-0.1-1.4-0.2c-0.4-0.1-0.8-0.3-1.2-0.4l0,0
				l-0.1-2h0.2l1.2,1.6c0.4,0.2,0.8,0.3,1.2,0.3l0,0c0.4,0,0.7-0.1,1-0.2c0.2-0.1,0.4-0.4,0.4-0.6l0,0c0-0.2-0.1-0.4-0.2-0.5
				s-0.3-0.3-0.6-0.4c-0.3-0.1-0.7-0.3-1.2-0.6l0,0c-0.6-0.3-1-0.6-1.3-0.9s-0.4-0.8-0.4-1.3l0,0c0-0.5,0.1-0.9,0.4-1.3
				c0.3-0.4,0.7-0.7,1.1-0.9s1-0.3,1.5-0.3l0,0c0.4,0,0.9,0,1.2,0.1c0.4,0.1,0.7,0.2,1,0.4l0,0l0.1,1.9h-0.2l-1.3-1.6
				c-0.2-0.1-0.5-0.1-0.8-0.1l0,0c-0.3,0-0.5,0.1-0.7,0.2c-0.2,0.2-0.3,0.4-0.3,0.7l0,0c0,0.2,0,0.3,0.1,0.5
				c0.1,0.1,0.3,0.3,0.5,0.4c0.2,0.1,0.5,0.3,0.9,0.5l0,0c0.7,0.3,1.2,0.7,1.5,1.1c0.3,0.4,0.5,0.8,0.5,1.4l0,0
				c0,0.5-0.1,0.9-0.4,1.3c-0.3,0.4-0.7,0.6-1.2,0.8C221.6,37.4,221.1,37.5,220.5,37.5z M218.9,36.3l-0.1-0.1
				C218.8,36.2,218.8,36.3,218.9,36.3L218.9,36.3z M229.7,40.7H229V27.2h0.7V40.7z M241.4,37.3h-5.8v-0.2l1.6-0.5v-5.7l-1.6-0.5
				v-0.2h5.8v0.2l-1.6,0.5v5.7l1.6,0.5V37.3z M246.2,39.2L246.2,39.2c-0.7,0-1.3-0.1-1.8-0.3s-0.9-0.5-1.2-0.9l0,0
				c-0.1-0.1-0.1-0.2-0.1-0.3l0,0c0-0.1,0.1-0.2,0.2-0.4l0,0l0.9-0.7h0.2l0.2,0.4c0.2,0.5,0.4,0.8,0.7,1.1c0.2,0.2,0.6,0.4,1,0.4
				l0,0c0.5,0,0.8-0.2,1-0.5s0.3-0.7,0.3-1.2l0,0c0-0.7-0.3-1.2-0.8-1.6c-0.5-0.3-1.2-0.5-2.1-0.5l0,0l-0.2-0.6l0,0
				c0.4,0,0.9-0.1,1.2-0.2c0.4-0.1,0.7-0.3,0.9-0.6c0.2-0.2,0.3-0.5,0.3-0.8l0,0c0-0.4-0.1-0.7-0.3-1c-0.2-0.2-0.6-0.4-1-0.4l0,0
				c-0.4,0-0.8,0.1-1.1,0.4c-0.3,0.2-0.5,0.6-0.7,1l0,0l-0.5-0.2c0.3-0.8,0.8-1.4,1.4-1.8c0.6-0.4,1.3-0.6,2.1-0.6l0,0
				c0.9,0,1.6,0.2,2.1,0.5c0.5,0.4,0.7,0.8,0.7,1.4l0,0c0,0.5-0.2,0.9-0.6,1.2c-0.4,0.3-1,0.5-1.7,0.7l0,0c1,0.2,1.7,0.5,2.1,0.9
				c0.4,0.5,0.6,1,0.6,1.6l0,0c0,0.6-0.2,1.1-0.5,1.5s-0.8,0.7-1.4,1S246.9,39.2,246.2,39.2z M259.8,37.3h-5.3v-0.2l1.2-0.6v-7.4
				l-1.2-0.6v-0.2h4.9c0.7,0,1.3,0.1,1.8,0.2s1,0.4,1.3,0.7s0.5,0.7,0.5,1.1l0,0c0,0.5-0.2,0.9-0.6,1.3s-0.9,0.7-1.6,0.8l0,0
				c0.9,0.1,1.7,0.4,2.2,0.8c0.5,0.4,0.8,0.9,0.8,1.5l0,0c0,0.5-0.2,0.9-0.5,1.3c-0.4,0.4-0.8,0.7-1.4,0.9
				C261.3,37.2,260.6,37.3,259.8,37.3L259.8,37.3z M258.6,29.1L258.6,29.1h-0.2v3.3h0.3c0.6,0,1-0.1,1.3-0.4s0.5-0.7,0.5-1.2l0,0
				c0-0.6-0.2-1-0.5-1.3C259.7,29.3,259.2,29.1,258.6,29.1z M259,33L259,33h-0.7v3.6h0.8c0.6,0,1.1-0.2,1.5-0.5s0.5-0.8,0.5-1.3l0,0
				c0-0.6-0.2-1-0.5-1.3C260.2,33.2,259.7,33,259,33z M268.9,37.5L268.9,37.5c-0.8,0-1.6-0.2-2.2-0.5s-1.1-0.8-1.5-1.4
				c-0.4-0.6-0.5-1.3-0.5-2l0,0c0-0.8,0.2-1.4,0.5-2c0.4-0.6,0.9-1.1,1.5-1.4s1.4-0.5,2.2-0.5l0,0c0.8,0,1.6,0.2,2.2,0.5
				s1.1,0.8,1.5,1.4c0.4,0.6,0.5,1.3,0.5,2l0,0c0,0.8-0.2,1.4-0.5,2c-0.4,0.6-0.9,1.1-1.5,1.4C270.4,37.3,269.7,37.5,268.9,37.5z
				 M269,36.8L269,36.8c0.3,0,0.6-0.1,0.8-0.4c0.2-0.3,0.4-0.6,0.5-1s0.2-0.9,0.2-1.5l0,0c0-0.7-0.1-1.3-0.2-1.8s-0.4-1-0.6-1.3
				c-0.3-0.3-0.6-0.5-0.9-0.5l0,0c-0.3,0-0.5,0.1-0.8,0.4c-0.2,0.3-0.4,0.6-0.5,1s-0.2,0.9-0.2,1.5l0,0c0,0.7,0.1,1.3,0.2,1.8
				s0.4,1,0.6,1.3S268.7,36.8,269,36.8z M277.3,37.3H274v-0.2l1-0.4v-6.3l-1-0.4v-0.2h2.8l4.5,4.7v-4l-1.4-0.4v-0.2h3.3V30l-1,0.4v7
				H281l-5-5.2v4.5l1.4,0.4L277.3,37.3L277.3,37.3z M291.4,37.3H284v-0.2l1-0.4v-6.3l-1-0.4v-0.2h7v2.1h-0.2l-1-1.4h-2.3v2.7h1.6
				l0.8-1h0.2v2.6h-0.2l-0.8-1h-1.6v2.9h2.5l1.1-1.9h0.2L291.4,37.3L291.4,37.3z M300,37.3h-7v-0.4l3.9-6.5h-2.5l-1,1.9h-0.2v-2.6
				h6.7v0.4l-3.9,6.5h2.7l1.1-2.1h0.2L300,37.3L300,37.3z"/>
		</g>
	</g>
</g>
</svg>
