<?xml version="1.0" encoding="utf-8"?>
<!-- Generator: Adobe Illustrator 24.2.1, SVG Export Plug-In . SVG Version: 6.00 Build 0)  -->
<svg version="1.1" id="Layer_1" xmlns="http://www.w3.org/2000/svg" xmlns:xlink="http://www.w3.org/1999/xlink" x="0px" y="0px"
	 viewBox="0 0 474.6 105.3" style="enable-background:new 0 0 474.6 105.3;" xml:space="preserve">
<style type="text/css">
	.st0{fill:#E5E5E5;}
	.st1{fill:#E9E41D;}
	.st2{fill:#353535;fill-opacity:0;stroke:#E5E5E5;stroke-width:2;}
</style>
<g transform="rotate(180 267.3134 23.3129)">
	<g transform="matrix(1 0 0 1 0 0)">
	</g>
</g>
<g>
	<g transform="rotate(0 13.5196 87.3129)">
		<g transform="matrix(1 0 0 1 0 0)">
			<path class="st0" d="M22,94.6c0.9,0.2,1.6,0.6,2,1.1c0.5,0.6,0.7,1.3,0.7,2.2l0,0c0,1.1-0.4,2-1.3,2.6c-0.8,0.6-2.1,0.9-3.8,0.9
				l0,0h-6.2V88.1h5.8c1.5,0,2.6,0.3,3.5,0.9s1.2,1.4,1.2,2.5l0,0c0,0.7-0.2,1.4-0.5,1.9S22.6,94.3,22,94.6L22,94.6z M19.2,89.3
				h-4.3v4.9h4.3c1.1,0,1.9-0.2,2.5-0.6c0.6-0.4,0.9-1,0.9-1.8l0,0c0-0.8-0.3-1.4-0.9-1.8C21.1,89.5,20.3,89.3,19.2,89.3L19.2,89.3z
				 M19.7,100.3c1.2,0,2.1-0.2,2.7-0.6c0.6-0.4,0.9-1,0.9-1.9l0,0c0-1.7-1.2-2.5-3.6-2.5l0,0h-4.7v5H19.7z M32.1,91.4
				c1.3,0,2.3,0.3,3,1s1.1,1.6,1.1,2.9l0,0v6.2h-1.3v-1.6c-0.3,0.5-0.8,0.9-1.3,1.2c-0.6,0.3-1.3,0.4-2.1,0.4l0,0
				c-1.1,0-2-0.3-2.7-0.8c-0.7-0.5-1-1.2-1-2.1l0,0c0-0.9,0.3-1.5,0.9-2.1c0.6-0.5,1.6-0.8,3-0.8l0,0h3.2v-0.6c0-0.9-0.2-1.5-0.7-2
				c-0.5-0.5-1.2-0.7-2.1-0.7l0,0c-0.6,0-1.2,0.1-1.8,0.3c-0.6,0.2-1.1,0.5-1.5,0.9l0,0l-0.6-1c0.5-0.4,1.1-0.8,1.8-1
				C30.6,91.5,31.3,91.4,32.1,91.4L32.1,91.4z M31.7,100.5c0.8,0,1.4-0.2,2-0.5c0.5-0.4,1-0.9,1.2-1.5l0,0v-1.6h-3.2
				c-1.7,0-2.6,0.6-2.6,1.8l0,0c0,0.6,0.2,1,0.7,1.4C30.2,100.4,30.9,100.5,31.7,100.5L31.7,100.5z M46,91.4c1.3,0,2.3,0.4,3,1.1
				c0.7,0.7,1.1,1.8,1.1,3.2l0,0v5.8h-1.4v-5.7c0-1-0.3-1.8-0.8-2.4c-0.5-0.5-1.3-0.8-2.2-0.8l0,0c-1.1,0-1.9,0.3-2.6,1
				c-0.6,0.6-0.9,1.5-0.9,2.7l0,0v5.3h-1.4V91.4h1.3v1.9c0.4-0.6,0.9-1.1,1.5-1.4C44.4,91.5,45.1,91.4,46,91.4L46,91.4z M62.6,87.3
				H64v14.2h-1.3v-2c-0.4,0.7-0.9,1.2-1.6,1.5c-0.7,0.4-1.4,0.5-2.3,0.5l0,0c-0.9,0-1.8-0.2-2.6-0.7c-0.8-0.4-1.4-1-1.8-1.8
				c-0.4-0.8-0.7-1.7-0.7-2.7l0,0c0-1,0.2-1.9,0.7-2.7c0.4-0.8,1-1.4,1.8-1.8c0.8-0.4,1.6-0.6,2.6-0.6l0,0c0.8,0,1.6,0.2,2.2,0.5
				c0.7,0.3,1.2,0.8,1.6,1.5l0,0V87.3z M58.9,100.4c0.7,0,1.3-0.2,1.9-0.5c0.6-0.3,1-0.8,1.3-1.4c0.3-0.6,0.5-1.3,0.5-2l0,0
				c0-0.8-0.2-1.4-0.5-2c-0.3-0.6-0.8-1.1-1.3-1.4c-0.6-0.3-1.2-0.5-1.9-0.5l0,0c-0.7,0-1.4,0.2-1.9,0.5c-0.6,0.3-1,0.8-1.3,1.4
				c-0.3,0.6-0.5,1.3-0.5,2l0,0c0,0.8,0.2,1.4,0.5,2c0.3,0.6,0.8,1.1,1.3,1.4C57.6,100.2,58.2,100.4,58.9,100.4L58.9,100.4z
				 M87.7,88.1h1.2v13.4h-1.4V90.8l-5.3,9h-0.7l-5.3-9v10.7H75V88.1h1.2L82,98L87.7,88.1z M97.4,91.4c1.3,0,2.3,0.3,3,1
				s1.1,1.6,1.1,2.9l0,0v6.2h-1.3v-1.6c-0.3,0.5-0.8,0.9-1.3,1.2s-1.3,0.4-2.1,0.4l0,0c-1.1,0-2-0.3-2.7-0.8c-0.7-0.5-1-1.2-1-2.1
				l0,0c0-0.9,0.3-1.5,0.9-2.1c0.6-0.5,1.6-0.8,3-0.8l0,0h3.2v-0.6c0-0.9-0.2-1.5-0.7-2c-0.5-0.5-1.2-0.7-2.1-0.7l0,0
				c-0.6,0-1.2,0.1-1.8,0.3c-0.6,0.2-1.1,0.5-1.5,0.9l0,0l-0.6-1c0.5-0.4,1.1-0.8,1.8-1C95.9,91.5,96.7,91.4,97.4,91.4L97.4,91.4z
				 M97,100.5c0.8,0,1.4-0.2,2-0.5c0.5-0.4,1-0.9,1.2-1.5l0,0v-1.6H97c-1.7,0-2.6,0.6-2.6,1.8l0,0c0,0.6,0.2,1,0.7,1.4
				C95.5,100.4,96.2,100.5,97,100.5L97,100.5z M111.3,91.4c1.3,0,2.3,0.4,3,1.1c0.7,0.7,1.1,1.8,1.1,3.2l0,0v5.8h-1.4v-5.7
				c0-1-0.3-1.8-0.8-2.4c-0.5-0.5-1.3-0.8-2.2-0.8l0,0c-1.1,0-1.9,0.3-2.6,1c-0.6,0.6-0.9,1.5-0.9,2.7l0,0v5.3h-1.4V91.4h1.3v1.9
				c0.4-0.6,0.9-1.1,1.5-1.4C109.7,91.5,110.4,91.4,111.3,91.4L111.3,91.4z M123.6,91.4c1.3,0,2.3,0.3,3,1c0.7,0.7,1.1,1.6,1.1,2.9
				l0,0v6.2h-1.3v-1.6c-0.3,0.5-0.8,0.9-1.3,1.2s-1.3,0.4-2.1,0.4l0,0c-1.1,0-2-0.3-2.7-0.8c-0.7-0.5-1-1.2-1-2.1l0,0
				c0-0.9,0.3-1.5,0.9-2.1s1.6-0.8,3-0.8l0,0h3.2v-0.6c0-0.9-0.2-1.5-0.7-2c-0.5-0.5-1.2-0.7-2.1-0.7l0,0c-0.6,0-1.2,0.1-1.8,0.3
				c-0.6,0.2-1.1,0.5-1.5,0.9l0,0l-0.6-1c0.5-0.4,1.1-0.8,1.8-1C122.1,91.5,122.8,91.4,123.6,91.4L123.6,91.4z M123.1,100.5
				c0.8,0,1.4-0.2,2-0.5c0.5-0.4,1-0.9,1.2-1.5l0,0v-1.6h-3.2c-1.7,0-2.6,0.6-2.6,1.8l0,0c0,0.6,0.2,1,0.7,1.4
				C121.7,100.4,122.3,100.5,123.1,100.5L123.1,100.5z M140.4,91.4h1.3v8.8c0,1.7-0.4,3-1.3,3.8c-0.8,0.8-2.1,1.2-3.8,1.2l0,0
				c-0.9,0-1.8-0.1-2.6-0.4s-1.5-0.7-2-1.1l0,0l0.7-1c0.5,0.4,1.1,0.8,1.8,1c0.7,0.2,1.4,0.4,2.2,0.4l0,0c1.3,0,2.2-0.3,2.8-0.9
				s0.9-1.5,0.9-2.8l0,0v-1.3c-0.4,0.6-1,1.1-1.7,1.5c-0.7,0.3-1.4,0.5-2.3,0.5l0,0c-0.9,0-1.8-0.2-2.6-0.6c-0.8-0.4-1.4-1-1.8-1.7
				c-0.4-0.7-0.7-1.6-0.7-2.5l0,0c0-0.9,0.2-1.8,0.7-2.5s1-1.3,1.8-1.7c0.8-0.4,1.6-0.6,2.6-0.6l0,0c0.9,0,1.6,0.2,2.3,0.5
				c0.7,0.3,1.2,0.8,1.7,1.5l0,0V91.4z M136.5,99.9c0.7,0,1.4-0.2,2-0.5c0.6-0.3,1-0.7,1.4-1.3c0.3-0.6,0.5-1.2,0.5-1.9l0,0
				c0-0.7-0.2-1.3-0.5-1.9c-0.3-0.6-0.8-1-1.4-1.3c-0.6-0.3-1.2-0.5-2-0.5l0,0c-0.7,0-1.4,0.2-2,0.5c-0.6,0.3-1,0.7-1.4,1.3
				c-0.3,0.6-0.5,1.2-0.5,1.9l0,0c0,0.7,0.2,1.4,0.5,1.9s0.8,1,1.4,1.3C135.1,99.8,135.8,99.9,136.5,99.9L136.5,99.9z M155.2,96.5
				l0,0.4h-8.4c0.1,1,0.5,1.9,1.2,2.5c0.7,0.6,1.6,1,2.8,1l0,0c0.6,0,1.2-0.1,1.7-0.3s1-0.6,1.4-1l0,0l0.8,0.9
				c-0.4,0.5-1,0.9-1.7,1.2c-0.7,0.3-1.4,0.4-2.2,0.4l0,0c-1,0-1.9-0.2-2.7-0.7c-0.8-0.4-1.4-1-1.9-1.8c-0.4-0.8-0.7-1.7-0.7-2.6
				l0,0c0-1,0.2-1.9,0.6-2.6c0.4-0.8,1-1.4,1.8-1.8c0.7-0.4,1.6-0.7,2.5-0.7l0,0c0.9,0,1.8,0.2,2.5,0.7c0.7,0.4,1.3,1,1.7,1.8
				C155,94.6,155.2,95.5,155.2,96.5L155.2,96.5z M150.3,92.5c-1,0-1.8,0.3-2.4,0.9c-0.7,0.6-1,1.4-1.1,2.4l0,0h7.1
				c-0.1-1-0.5-1.8-1.1-2.4C152.1,92.8,151.3,92.5,150.3,92.5L150.3,92.5z M160.2,93.4c0.3-0.7,0.8-1.2,1.4-1.5s1.4-0.5,2.3-0.5l0,0
				v1.3l-0.3,0c-1.1,0-1.9,0.3-2.5,1c-0.6,0.7-0.9,1.6-0.9,2.7l0,0v5.1h-1.4V91.4h1.3V93.4z M183,89.3h-7.8v5.3h6.9v1.2h-6.9v5.7
				h-1.4V88.1h9.2V89.3z M187.7,93.4c0.3-0.7,0.8-1.2,1.4-1.5c0.6-0.3,1.4-0.5,2.3-0.5l0,0v1.3l-0.3,0c-1.1,0-1.9,0.3-2.5,1
				c-0.6,0.7-0.9,1.6-0.9,2.7l0,0v5.1h-1.4V91.4h1.3V93.4z M198.9,101.6c-1,0-1.8-0.2-2.6-0.7c-0.8-0.4-1.4-1-1.8-1.8
				c-0.4-0.8-0.7-1.7-0.7-2.6l0,0c0-1,0.2-1.9,0.7-2.6s1.1-1.4,1.8-1.8c0.8-0.4,1.7-0.7,2.6-0.7l0,0c1,0,1.8,0.2,2.6,0.7
				c0.8,0.4,1.4,1,1.8,1.8s0.7,1.7,0.7,2.6l0,0c0,1-0.2,1.9-0.7,2.6c-0.4,0.8-1,1.4-1.8,1.8C200.8,101.4,199.9,101.6,198.9,101.6
				L198.9,101.6z M198.9,100.4c0.7,0,1.4-0.2,1.9-0.5c0.6-0.3,1-0.8,1.3-1.4c0.3-0.6,0.5-1.3,0.5-2l0,0c0-0.8-0.2-1.4-0.5-2
				c-0.3-0.6-0.8-1.1-1.3-1.4c-0.6-0.3-1.2-0.5-1.9-0.5l0,0c-0.7,0-1.4,0.2-1.9,0.5c-0.6,0.3-1,0.8-1.3,1.4c-0.3,0.6-0.5,1.3-0.5,2
				l0,0c0,0.8,0.2,1.4,0.5,2c0.3,0.6,0.8,1.1,1.3,1.4C197.6,100.2,198.2,100.4,198.9,100.4L198.9,100.4z M212.9,91.4
				c1.3,0,2.3,0.4,3,1.1c0.7,0.7,1.1,1.8,1.1,3.2l0,0v5.8h-1.4v-5.7c0-1-0.3-1.8-0.8-2.4c-0.5-0.5-1.3-0.8-2.2-0.8l0,0
				c-1.1,0-1.9,0.3-2.6,1s-0.9,1.5-0.9,2.7l0,0v5.3h-1.4V91.4h1.3v1.9c0.4-0.6,0.9-1.1,1.5-1.4C211.2,91.5,212,91.4,212.9,91.4
				L212.9,91.4z M226.5,99.9l0.5,1c-0.3,0.2-0.6,0.4-0.9,0.5c-0.4,0.1-0.8,0.2-1.2,0.2l0,0c-0.9,0-1.7-0.3-2.2-0.8s-0.8-1.2-0.8-2.2
				l0,0v-6.1h-1.8v-1.1h1.8v-2.2h1.4v2.2h3.1v1.1h-3.1v6c0,0.6,0.1,1.1,0.4,1.4c0.3,0.3,0.7,0.5,1.3,0.5l0,0c0.3,0,0.6,0,0.8-0.1
				S226.3,100.1,226.5,99.9L226.5,99.9z M249.4,88.1h1.2v13.4h-1.4V90.8l-5.3,9h-0.7l-5.3-9v10.7h-1.4V88.1h1.2l5.8,9.9L249.4,88.1z
				 M259.1,91.4c1.3,0,2.3,0.3,3,1s1.1,1.6,1.1,2.9l0,0v6.2h-1.3v-1.6c-0.3,0.5-0.8,0.9-1.3,1.2c-0.6,0.3-1.3,0.4-2.1,0.4l0,0
				c-1.1,0-2-0.3-2.7-0.8s-1-1.2-1-2.1l0,0c0-0.9,0.3-1.5,0.9-2.1c0.6-0.5,1.6-0.8,3-0.8l0,0h3.2v-0.6c0-0.9-0.2-1.5-0.7-2
				c-0.5-0.5-1.2-0.7-2.1-0.7l0,0c-0.6,0-1.2,0.1-1.8,0.3c-0.6,0.2-1.1,0.5-1.5,0.9l0,0l-0.6-1c0.5-0.4,1.1-0.8,1.8-1
				C257.5,91.5,258.3,91.4,259.1,91.4L259.1,91.4z M258.6,100.5c0.8,0,1.4-0.2,2-0.5c0.5-0.4,1-0.9,1.2-1.5l0,0v-1.6h-3.2
				c-1.7,0-2.6,0.6-2.6,1.8l0,0c0,0.6,0.2,1,0.7,1.4C257.2,100.4,257.8,100.5,258.6,100.5L258.6,100.5z M272.9,91.4
				c1.3,0,2.3,0.4,3,1.1c0.7,0.7,1.1,1.8,1.1,3.2l0,0v5.8h-1.4v-5.7c0-1-0.3-1.8-0.8-2.4c-0.5-0.5-1.3-0.8-2.2-0.8l0,0
				c-1.1,0-1.9,0.3-2.6,1s-0.9,1.5-0.9,2.7l0,0v5.3h-1.4V91.4h1.3v1.9c0.4-0.6,0.9-1.1,1.5-1.4C271.3,91.5,272.1,91.4,272.9,91.4
				L272.9,91.4z M288,105.2V87.3h1.3v17.9H288z M300.5,101.5V88.1h1.4v12.2h7.5v1.2H300.5z M321.1,96.5l0,0.4h-8.4
				c0.1,1,0.5,1.9,1.2,2.5c0.7,0.6,1.6,1,2.8,1l0,0c0.6,0,1.2-0.1,1.7-0.3c0.5-0.2,1-0.6,1.4-1l0,0l0.8,0.9c-0.4,0.5-1,0.9-1.7,1.2
				c-0.7,0.3-1.4,0.4-2.2,0.4l0,0c-1,0-1.9-0.2-2.7-0.7c-0.8-0.4-1.4-1-1.9-1.8c-0.4-0.8-0.7-1.7-0.7-2.6l0,0c0-1,0.2-1.9,0.6-2.6
				c0.4-0.8,1-1.4,1.8-1.8c0.7-0.4,1.6-0.7,2.5-0.7l0,0c0.9,0,1.8,0.2,2.5,0.7c0.7,0.4,1.3,1,1.7,1.8
				C320.9,94.6,321.1,95.5,321.1,96.5L321.1,96.5z M316.2,92.5c-1,0-1.8,0.3-2.4,0.9s-1,1.4-1.1,2.4l0,0h7.1c-0.1-1-0.5-1.8-1.1-2.4
				S317.2,92.5,316.2,92.5L316.2,92.5z M338.2,91.4h1.2l-3.8,10.1h-1.3l-3.2-8.2l-3.2,8.2h-1.3l-3.8-10.1h1.3l3.2,8.6l3.2-8.6h1.2
				l3.2,8.6L338.2,91.4z M342.4,101.5V91.4h1.4v10.1H342.4z M343.1,89.2c-0.3,0-0.5-0.1-0.7-0.3c-0.2-0.2-0.3-0.4-0.3-0.7l0,0
				c0-0.3,0.1-0.5,0.3-0.7c0.2-0.2,0.4-0.3,0.7-0.3l0,0c0.3,0,0.5,0.1,0.7,0.3c0.2,0.2,0.3,0.4,0.3,0.7l0,0c0,0.3-0.1,0.5-0.3,0.7
				C343.6,89.1,343.4,89.2,343.1,89.2L343.1,89.2z M351.2,101.6c-0.8,0-1.6-0.1-2.3-0.4c-0.7-0.2-1.3-0.5-1.8-0.9l0,0l0.6-1.1
				c0.4,0.3,1,0.6,1.6,0.8c0.6,0.2,1.3,0.3,2,0.3l0,0c0.9,0,1.6-0.1,2-0.4c0.4-0.3,0.7-0.7,0.7-1.2l0,0c0-0.4-0.1-0.7-0.4-0.9
				c-0.2-0.2-0.5-0.4-0.9-0.5c-0.4-0.1-0.9-0.2-1.5-0.3l0,0c-0.8-0.2-1.5-0.3-2-0.5c-0.5-0.2-0.9-0.4-1.3-0.8s-0.5-0.9-0.5-1.6l0,0
				c0-0.8,0.4-1.5,1.1-2.1c0.7-0.5,1.7-0.8,2.9-0.8l0,0c0.7,0,1.3,0.1,2,0.3c0.7,0.2,1.2,0.4,1.6,0.7l0,0l-0.6,1.1
				c-0.8-0.6-1.8-0.9-3-0.9l0,0c-0.9,0-1.5,0.2-2,0.5c-0.4,0.3-0.7,0.7-0.7,1.2l0,0c0,0.4,0.1,0.7,0.4,0.9c0.2,0.2,0.6,0.4,0.9,0.5
				c0.4,0.1,0.9,0.2,1.5,0.3l0,0c0.8,0.2,1.4,0.3,1.9,0.5c0.5,0.2,0.9,0.4,1.2,0.8s0.5,0.9,0.5,1.5l0,0c0,0.9-0.4,1.6-1.1,2.1
				S352.5,101.6,351.2,101.6L351.2,101.6z M363.7,99.9l0.5,1c-0.3,0.2-0.6,0.4-0.9,0.5c-0.4,0.1-0.8,0.2-1.2,0.2l0,0
				c-0.9,0-1.7-0.3-2.2-0.8c-0.5-0.5-0.8-1.2-0.8-2.2l0,0v-6.1h-1.8v-1.1h1.8v-2.2h1.4v2.2h3.1v1.1h-3.1v6c0,0.6,0.1,1.1,0.4,1.4
				c0.3,0.3,0.7,0.5,1.3,0.5l0,0c0.3,0,0.6,0,0.8-0.1C363.2,100.2,363.5,100.1,363.7,99.9L363.7,99.9z M371.3,101.6
				c-1,0-1.8-0.2-2.6-0.7c-0.8-0.4-1.4-1-1.8-1.8c-0.4-0.8-0.7-1.7-0.7-2.6l0,0c0-1,0.2-1.9,0.7-2.6s1.1-1.4,1.8-1.8
				c0.8-0.4,1.7-0.7,2.6-0.7l0,0c1,0,1.8,0.2,2.6,0.7c0.8,0.4,1.4,1,1.8,1.8s0.7,1.7,0.7,2.6l0,0c0,1-0.2,1.9-0.7,2.6
				c-0.4,0.8-1,1.4-1.8,1.8C373.2,101.4,372.3,101.6,371.3,101.6L371.3,101.6z M371.3,100.4c0.7,0,1.4-0.2,1.9-0.5
				c0.6-0.3,1-0.8,1.3-1.4c0.3-0.6,0.5-1.3,0.5-2l0,0c0-0.8-0.2-1.4-0.5-2c-0.3-0.6-0.8-1.1-1.3-1.4c-0.6-0.3-1.2-0.5-1.9-0.5l0,0
				c-0.7,0-1.4,0.2-1.9,0.5s-1,0.8-1.3,1.4c-0.3,0.6-0.5,1.3-0.5,2l0,0c0,0.8,0.2,1.4,0.5,2c0.3,0.6,0.8,1.1,1.3,1.4
				S370.6,100.4,371.3,100.4L371.3,100.4z M385.3,91.4c1.3,0,2.3,0.4,3,1.1c0.7,0.7,1.1,1.8,1.1,3.2l0,0v5.8H388v-5.7
				c0-1-0.3-1.8-0.8-2.4c-0.5-0.5-1.3-0.8-2.2-0.8l0,0c-1.1,0-1.9,0.3-2.6,1c-0.6,0.6-0.9,1.5-0.9,2.7l0,0v5.3h-1.4V91.4h1.3v1.9
				c0.4-0.6,0.9-1.1,1.5-1.4C383.6,91.5,384.4,91.4,385.3,91.4L385.3,91.4z M394.2,99.5c0.3,0,0.5,0.1,0.7,0.3
				c0.2,0.2,0.3,0.4,0.3,0.7l0,0c0,0.2,0,0.3-0.1,0.5c0,0.2-0.1,0.4-0.2,0.6l0,0l-0.8,2.6h-0.9l0.7-2.8c-0.2-0.1-0.4-0.2-0.5-0.4
				c-0.1-0.2-0.2-0.4-0.2-0.6l0,0c0-0.3,0.1-0.5,0.3-0.7S393.9,99.5,394.2,99.5L394.2,99.5z M405.3,101.5V88.1h1.4v13.4H405.3z
				 M419.6,87.3h1.4v14.2h-1.3v-2c-0.4,0.7-0.9,1.2-1.6,1.5c-0.7,0.4-1.4,0.5-2.3,0.5l0,0c-0.9,0-1.8-0.2-2.6-0.7
				c-0.8-0.4-1.4-1-1.8-1.8c-0.4-0.8-0.7-1.7-0.7-2.7l0,0c0-1,0.2-1.9,0.7-2.7c0.4-0.8,1-1.4,1.8-1.8c0.8-0.4,1.6-0.6,2.6-0.6l0,0
				c0.8,0,1.6,0.2,2.2,0.5c0.7,0.3,1.2,0.8,1.6,1.5l0,0V87.3z M415.9,100.4c0.7,0,1.3-0.2,1.9-0.5s1-0.8,1.3-1.4
				c0.3-0.6,0.5-1.3,0.5-2l0,0c0-0.8-0.2-1.4-0.5-2c-0.3-0.6-0.8-1.1-1.3-1.4s-1.2-0.5-1.9-0.5l0,0c-0.7,0-1.4,0.2-1.9,0.5
				s-1,0.8-1.3,1.4c-0.3,0.6-0.5,1.3-0.5,2l0,0c0,0.8,0.2,1.4,0.5,2c0.3,0.6,0.8,1.1,1.3,1.4S415.2,100.4,415.9,100.4L415.9,100.4z
				 M429.2,91.4c1.3,0,2.3,0.3,3,1s1.1,1.6,1.1,2.9l0,0v6.2H432v-1.6c-0.3,0.5-0.8,0.9-1.3,1.2s-1.3,0.4-2.1,0.4l0,0
				c-1.1,0-2-0.3-2.7-0.8s-1-1.2-1-2.1l0,0c0-0.9,0.3-1.5,0.9-2.1s1.6-0.8,3-0.8l0,0h3.2v-0.6c0-0.9-0.2-1.5-0.7-2
				c-0.5-0.5-1.2-0.7-2.1-0.7l0,0c-0.6,0-1.2,0.1-1.8,0.3c-0.6,0.2-1.1,0.5-1.5,0.9l0,0l-0.6-1c0.5-0.4,1.1-0.8,1.8-1
				C427.7,91.5,428.4,91.4,429.2,91.4L429.2,91.4z M428.7,100.5c0.8,0,1.4-0.2,2-0.5s1-0.9,1.2-1.5l0,0v-1.6h-3.2
				c-1.7,0-2.6,0.6-2.6,1.8l0,0c0,0.6,0.2,1,0.7,1.4C427.3,100.4,427.9,100.5,428.7,100.5L428.7,100.5z M443.1,91.4
				c1.3,0,2.3,0.4,3,1.1c0.7,0.7,1.1,1.8,1.1,3.2l0,0v5.8h-1.4v-5.7c0-1-0.3-1.8-0.8-2.4c-0.5-0.5-1.3-0.8-2.2-0.8l0,0
				c-1.1,0-1.9,0.3-2.6,1c-0.6,0.6-0.9,1.5-0.9,2.7l0,0v5.3h-1.4V87.3h1.4v5.9c0.4-0.6,0.9-1,1.5-1.4S442.2,91.4,443.1,91.4
				L443.1,91.4z M456,101.6c-1,0-1.8-0.2-2.6-0.7c-0.8-0.4-1.4-1-1.8-1.8c-0.4-0.8-0.7-1.7-0.7-2.6l0,0c0-1,0.2-1.9,0.7-2.6
				c0.4-0.8,1.1-1.4,1.8-1.8c0.8-0.4,1.7-0.7,2.6-0.7l0,0c1,0,1.8,0.2,2.6,0.7c0.8,0.4,1.4,1,1.8,1.8c0.4,0.8,0.7,1.7,0.7,2.6l0,0
				c0,1-0.2,1.9-0.7,2.6c-0.4,0.8-1,1.4-1.8,1.8S457,101.6,456,101.6L456,101.6z M456,100.4c0.7,0,1.4-0.2,1.9-0.5
				c0.6-0.3,1-0.8,1.3-1.4c0.3-0.6,0.5-1.3,0.5-2l0,0c0-0.8-0.2-1.4-0.5-2c-0.3-0.6-0.8-1.1-1.3-1.4c-0.6-0.3-1.2-0.5-1.9-0.5l0,0
				c-0.7,0-1.4,0.2-1.9,0.5c-0.6,0.3-1,0.8-1.3,1.4c-0.3,0.6-0.5,1.3-0.5,2l0,0c0,0.8,0.2,1.4,0.5,2c0.3,0.6,0.8,1.1,1.3,1.4
				C454.6,100.2,455.3,100.4,456,100.4L456,100.4z"/>
		</g>
	</g>
	<g transform="rotate(0 28.32 43.3129)">
		<g transform="matrix(1 0 0 1 0 0)">
			<path class="st1" d="M32.9,53.7L32.9,53.7L33,48c0.6,0,1-0.1,1.3-0.1l0,0c1,0,1.7,0.2,2.3,0.6c0.6,0.4,0.8,1.1,0.8,2l0,0
				C37.4,52.7,35.9,53.7,32.9,53.7z M33,61.4L33,61.4l-0.1-7.1c0.5,0,1.1-0.1,1.6-0.1l0,0c1.4,0,2.6,0.3,3.5,0.8
				c0.9,0.5,1.3,1.4,1.3,2.5l0,0c0,0.7-0.1,1.2-0.4,1.7c-0.2,0.5-0.6,0.9-0.9,1.1c-0.4,0.3-0.9,0.5-1.4,0.6
				c-0.6,0.2-1.1,0.2-1.6,0.3C34.3,61.4,33.7,61.4,33,61.4z M34.5,54.7l0.1,6.3c0.6,0,1.1-0.1,1.6-0.2c0.5-0.1,0.9-0.3,1.3-0.5
				c0.4-0.2,0.7-0.6,1-1c0.2-0.4,0.3-1,0.3-1.6l0,0c0-0.7-0.2-1.3-0.7-1.8c-0.5-0.5-1-0.8-1.7-1C35.8,54.7,35.1,54.6,34.5,54.7
				L34.5,54.7z M34.6,48.3L34.6,48.3l-0.1,4.9c1.7-0.3,2.5-1.1,2.5-2.7l0,0C37,49.2,36.2,48.4,34.6,48.3z M28.7,62.1L28.7,62.1
				c1.3,0,2.9-0.1,4.7-0.1l0,0c0.6,0,1.2,0,1.6,0c0.5,0,1.1-0.1,1.7-0.2c0.7-0.1,1.3-0.2,1.8-0.5c0.5-0.2,1-0.5,1.5-0.8
				c0.5-0.3,0.8-0.7,1.1-1.3c0.2-0.5,0.4-1.1,0.4-1.8l0,0c0-1.1-0.4-1.9-1.2-2.6c-0.8-0.7-1.8-1.1-3.1-1.3l0,0v-0.1
				c0.8-0.3,1.4-0.6,1.9-1.1c0.5-0.5,0.7-1.1,0.7-1.9l0,0c0-2.2-1.7-3.3-5.1-3.3l0,0c-0.3,0-0.7,0-1.3,0c-0.6,0-1.3,0-2.1,0
				c-0.8,0-1.6,0-2.6-0.1l0,0c-0.1,0.1-0.1,0.3,0,0.5l0,0c1.5,0.1,2.3,0.5,2.3,1l0,0c0.1,1.6,0.1,3.5,0.1,5.6l0,0
				c0,2.1,0,4.3-0.1,6.4l0,0c0,0.5-0.8,0.8-2.3,1l0,0C28.7,61.8,28.7,61.9,28.7,62.1z M28.5,46.8L28.5,46.8c1,0,1.9,0.1,2.8,0.1
				c0.9,0,1.7,0,2.5,0c0.8,0,1.4,0,1.7,0l0,0c0.6,0,1.1,0,1.5,0.1c0.5,0,1,0.1,1.5,0.3c0.6,0.2,1,0.4,1.4,0.6c0.4,0.3,0.7,0.6,1,1.1
				c0.3,0.5,0.4,1,0.4,1.7l0,0c0,1.2-0.7,2.2-2,2.9l0,0c1.1,0.3,2,0.8,2.6,1.5c0.7,0.7,1,1.5,1,2.5l0,0c0,0.7-0.1,1.2-0.3,1.8
				c-0.2,0.5-0.5,0.9-0.8,1.3c-0.3,0.3-0.8,0.6-1.3,0.9c-0.5,0.2-1,0.4-1.5,0.6c-0.5,0.1-1.1,0.2-1.7,0.3c-0.6,0.1-1.2,0.1-1.6,0.1
				s-1,0-1.5,0l0,0c-1.6,0-3.5,0-5.7,0.1l0,0c-0.2-0.5-0.2-0.9,0-1.3l0,0c1.5-0.1,2.2-0.3,2.2-0.6l0,0c0.1-2.1,0.1-4.2,0.1-6.4l0,0
				c0-2.2,0-4-0.1-5.6l0,0c0-0.2-0.8-0.4-2.2-0.6l0,0C28.3,47.7,28.3,47.2,28.5,46.8z M47,54.7L47,54.7c0.3,0.1,0.6,0.2,0.8,0.4
				c0.2,0.2,0.3,0.4,0.3,0.7l0,0c0,0.4-0.1,0.6-0.4,0.9c-0.2,0.2-0.5,0.3-0.9,0.3l0,0c-0.4,0-0.8-0.1-1.1-0.4
				c-0.3-0.3-0.5-0.7-0.5-1.2l0,0c0-0.9,0.4-1.6,1.3-2.1c0.8-0.5,1.9-0.8,3.3-0.8l0,0c1.3,0,2.2,0.3,2.7,0.8
				c0.5,0.5,0.8,1.4,0.8,2.6l0,0v3.5l0.6,0c0.6,0,0.9,0.3,1.2,0.8l0,0l-0.3,0.6c-0.2,0.3-0.4,0.6-0.5,0.7c-0.1,0.2-0.3,0.4-0.6,0.6
				c-0.3,0.2-0.6,0.4-0.9,0.5c-0.3,0.1-0.7,0.1-1.2,0.1l0,0c-0.6,0-1-0.2-1.3-0.6l0,0c-0.7,0.5-1.7,0.8-2.8,0.8l0,0
				c-0.5,0-0.9-0.1-1.3-0.2c-0.4-0.2-0.6-0.4-0.8-0.6c-0.2-0.3-0.3-0.5-0.3-0.7c-0.1-0.2-0.1-0.5-0.1-0.7l0,0c0-1,0.3-1.7,1-2.2
				c0.7-0.5,2-1,4-1.5l0,0v-1.1c0-0.5-0.1-0.9-0.3-1.2c-0.2-0.2-0.5-0.4-0.9-0.4l0,0C47.9,54.1,47.4,54.3,47,54.7z M50.3,57.7
				L50.3,57.7v2.1c-0.6,0.9-1.3,1.3-2,1.3l0,0c-0.4,0-0.7-0.1-1-0.3C47.1,60.6,47,60.4,47,60l0,0c0-0.6,0.2-1,0.7-1.4
				C48.1,58.3,49,58,50.3,57.7z M49.9,59.7L49.9,59.7v-1.2c-1,0.4-1.5,0.9-1.5,1.6l0,0c0,0.3,0.1,0.5,0.3,0.6l0,0
				C49.1,60.5,49.5,60.2,49.9,59.7z M46.8,56.2L46.8,56.2c-0.2,0-0.4-0.2-0.5-0.5l0,0c-0.1-0.6,0-1,0.5-1.4l0,0
				c0.5-0.4,1.1-0.6,2.1-0.6l0,0c0.4,0,0.8,0.2,1,0.5c0.3,0.3,0.4,0.8,0.4,1.5l0,0V57c-2,0.5-3.3,1-4,1.5c-0.7,0.5-1,1.1-1,2l0,0
				c0,0.5,0.2,0.9,0.5,1.3c0.3,0.4,0.9,0.6,1.7,0.6l0,0c0.3,0,0.6-0.1,0.9-0.2c0.3-0.1,0.6-0.3,0.9-0.5c0.3-0.2,0.5-0.4,0.6-0.4
				c0.1-0.1,0.2-0.2,0.3-0.3c0.2-0.2,0.2-0.2,0.3-0.2l0,0c0.1,1,0.5,1.5,1.2,1.5l0,0c0.2,0,0.4,0,0.6-0.1c0.2-0.1,0.5-0.3,0.7-0.6
				c0.2-0.3,0.4-0.5,0.5-0.6c0.1-0.1,0.2-0.2,0.3-0.4c0.1-0.2,0.2-0.3,0.3-0.4l0,0c-0.1-0.2-0.3-0.3-0.5-0.3l0,0
				c-0.4,0.6-0.7,0.8-1.1,0.8l0,0c-0.3,0-0.4-0.2-0.4-0.6l0,0v-4.2c0-1.1-0.2-1.8-0.6-2.3c-0.4-0.4-1.1-0.7-2.2-0.7l0,0
				c-0.9,0-1.7,0.2-2.4,0.7c-0.7,0.5-1,1.1-1,1.8l0,0c0,0.4,0.1,0.7,0.4,0.9c0.2,0.2,0.5,0.3,0.8,0.3l0,0
				C46.9,56.5,46.9,56.4,46.8,56.2z M57.8,62.2L57.8,62.2c-0.3,0.1-0.6,0.2-1,0.4l0,0c-0.3-0.2-0.5-0.4-0.6-0.6l0,0
				c0,0,0-0.2,0.1-0.4c0-0.2,0.1-0.5,0.1-0.8c0-0.3,0.1-0.6,0.1-1c0-0.3,0-0.6,0-0.9l0,0c0.3-0.1,0.8-0.2,1.5-0.2l0,0
				c0.1,0,0.1,0,0.2,0c0.1,0,0.2,0,0.2,0l0,0c0.5,1.6,1.1,2.4,2,2.6l0,0c0.3-0.1,0.6-0.2,0.8-0.4c0.2-0.2,0.3-0.4,0.3-0.7l0,0
				c0-0.2,0-0.4-0.1-0.5c-0.1-0.2-0.2-0.3-0.4-0.4c-0.2-0.1-0.4-0.3-0.6-0.4c-0.2-0.1-0.5-0.2-0.7-0.3c-0.3-0.1-0.5-0.2-0.8-0.3
				c-0.3-0.1-0.5-0.2-0.7-0.3l0,0c-0.3-0.1-0.5-0.3-0.7-0.4c-0.2-0.2-0.4-0.4-0.6-0.6c-0.2-0.2-0.3-0.4-0.4-0.7
				c-0.1-0.3-0.1-0.5-0.1-0.8l0,0c0-0.3,0.1-0.6,0.2-1c0.1-0.3,0.3-0.7,0.6-0.9c0.3-0.3,0.6-0.5,1.1-0.7c0.4-0.2,1-0.3,1.7-0.3l0,0
				c0.7,0,1.3,0,1.7,0.1l0,0l0.4-0.1h0.7c0.1,0.6,0.2,1.1,0.3,1.6c0.1,0.5,0.3,1,0.4,1.4l0,0c-0.3,0.3-0.6,0.4-1,0.4l0,0
				c-0.2-0.3-0.4-0.5-0.6-0.7s-0.4-0.4-0.6-0.6c-0.2-0.2-0.4-0.3-0.5-0.4c-0.2-0.1-0.3-0.2-0.5-0.2l0,0c-0.4,0.1-0.7,0.3-0.7,0.6
				l0,0c0,0.3,0.1,0.5,0.3,0.7c0.2,0.2,0.5,0.4,0.9,0.5c0.3,0.2,0.7,0.3,1.1,0.5c0.4,0.1,0.8,0.3,1.2,0.5l0,0
				c0.3,0.1,0.5,0.3,0.7,0.4c0.2,0.2,0.4,0.4,0.6,0.6c0.2,0.2,0.3,0.5,0.4,0.8s0.1,0.6,0.1,0.9l0,0c0,0.5-0.1,0.9-0.4,1.3
				c-0.3,0.4-0.6,0.7-1,1c-0.4,0.3-0.9,0.5-1.4,0.6c-0.5,0.1-1.1,0.2-1.6,0.2l0,0C59.3,62.8,58.5,62.6,57.8,62.2z M60.2,62.4
				L60.2,62.4c0.8,0,1.6-0.2,2.2-0.7c0.6-0.5,0.9-1.1,0.9-1.7l0,0c0-0.6-0.2-1.1-0.6-1.6c-0.4-0.4-0.8-0.8-1.3-1
				c-0.5-0.2-1.1-0.5-1.6-0.7c-0.5-0.2-1-0.4-1.3-0.7c-0.4-0.3-0.6-0.6-0.6-1l0,0c0-0.5,0.2-0.8,0.5-1.1c0.3-0.2,0.8-0.4,1.2-0.4
				l0,0c0.5,0,0.9,0.2,1.3,0.5c0.4,0.3,0.9,0.8,1.4,1.5l0,0c0.2,0,0.3,0,0.4-0.1l0,0c-0.2-0.7-0.6-1.3-1.1-1.8
				c-0.5-0.5-1.1-0.7-1.9-0.7l0,0c-1.1,0-1.9,0.3-2.3,0.8c-0.5,0.5-0.7,1.1-0.7,1.7l0,0c0,0.5,0.2,1,0.5,1.4
				c0.4,0.4,0.8,0.7,1.3,0.9c0.5,0.2,1,0.4,1.5,0.6c0.5,0.2,0.9,0.5,1.3,0.8c0.4,0.3,0.5,0.7,0.5,1.2l0,0c0,0.4-0.2,0.7-0.5,1
				c-0.3,0.3-0.8,0.5-1.4,0.5l0,0c-0.7,0-1.3-0.2-1.6-0.7c-0.4-0.5-0.7-1.1-1-1.9l0,0c-0.2,0-0.4,0-0.5,0.1l0,0c0,0.5,0,1-0.1,1.7
				c0,0.6-0.1,1-0.1,1.1l0,0c0,0.1,0.1,0.1,0.2,0.2l0,0c0.3-0.2,0.5-0.4,0.6-0.6l0,0c0.6,0.3,1.1,0.5,1.4,0.7
				C59.3,62.3,59.7,62.4,60.2,62.4z M68,62.2L68,62.2c-0.3,0.1-0.6,0.2-1,0.4l0,0c-0.3-0.2-0.5-0.4-0.6-0.6l0,0c0,0,0-0.2,0.1-0.4
				c0-0.2,0.1-0.5,0.1-0.8c0-0.3,0.1-0.6,0.1-1c0-0.3,0-0.6,0-0.9l0,0c0.3-0.1,0.8-0.2,1.5-0.2l0,0c0.1,0,0.1,0,0.2,0
				c0.1,0,0.2,0,0.2,0l0,0c0.5,1.6,1.1,2.4,2,2.6l0,0c0.3-0.1,0.6-0.2,0.8-0.4c0.2-0.2,0.3-0.4,0.3-0.7l0,0c0-0.2,0-0.4-0.1-0.5
				c-0.1-0.2-0.2-0.3-0.4-0.4c-0.2-0.1-0.4-0.3-0.6-0.4c-0.2-0.1-0.5-0.2-0.7-0.3c-0.3-0.1-0.5-0.2-0.8-0.3
				c-0.3-0.1-0.5-0.2-0.7-0.3l0,0c-0.3-0.1-0.5-0.3-0.7-0.4c-0.2-0.2-0.4-0.4-0.6-0.6c-0.2-0.2-0.3-0.4-0.4-0.7
				c-0.1-0.3-0.1-0.5-0.1-0.8l0,0c0-0.3,0.1-0.6,0.2-1c0.1-0.3,0.3-0.7,0.6-0.9c0.3-0.3,0.6-0.5,1.1-0.7c0.4-0.2,1-0.3,1.7-0.3l0,0
				c0.7,0,1.3,0,1.7,0.1l0,0l0.4-0.1h0.7c0.1,0.6,0.2,1.1,0.3,1.6c0.1,0.5,0.3,1,0.4,1.4l0,0c-0.3,0.3-0.6,0.4-1,0.4l0,0
				c-0.2-0.3-0.4-0.5-0.6-0.7s-0.4-0.4-0.6-0.6c-0.2-0.2-0.3-0.3-0.5-0.4c-0.2-0.1-0.3-0.2-0.5-0.2l0,0c-0.4,0.1-0.7,0.3-0.7,0.6
				l0,0c0,0.3,0.1,0.5,0.3,0.7c0.2,0.2,0.5,0.4,0.9,0.5c0.3,0.2,0.7,0.3,1.1,0.5c0.4,0.1,0.8,0.3,1.2,0.5l0,0
				c0.3,0.1,0.5,0.3,0.7,0.4c0.2,0.2,0.4,0.4,0.6,0.6c0.2,0.2,0.3,0.5,0.4,0.8c0.1,0.3,0.1,0.6,0.1,0.9l0,0c0,0.5-0.1,0.9-0.4,1.3
				c-0.3,0.4-0.6,0.7-1,1c-0.4,0.3-0.9,0.5-1.4,0.6c-0.5,0.1-1.1,0.2-1.6,0.2l0,0C69.4,62.8,68.6,62.6,68,62.2z M70.3,62.4
				L70.3,62.4c0.8,0,1.6-0.2,2.2-0.7c0.6-0.5,0.9-1.1,0.9-1.7l0,0c0-0.6-0.2-1.1-0.6-1.6c-0.4-0.4-0.8-0.8-1.3-1
				c-0.5-0.2-1.1-0.5-1.6-0.7c-0.5-0.2-1-0.4-1.4-0.7c-0.4-0.3-0.6-0.6-0.6-1l0,0c0-0.5,0.2-0.8,0.5-1.1c0.3-0.2,0.8-0.4,1.2-0.4
				l0,0c0.5,0,0.9,0.2,1.3,0.5c0.4,0.3,0.9,0.8,1.4,1.5l0,0c0.2,0,0.3,0,0.4-0.1l0,0c-0.2-0.7-0.6-1.3-1.1-1.8
				c-0.5-0.5-1.1-0.7-1.9-0.7l0,0c-1.1,0-1.9,0.3-2.3,0.8c-0.5,0.5-0.7,1.1-0.7,1.7l0,0c0,0.5,0.2,1,0.5,1.4
				c0.4,0.4,0.8,0.7,1.3,0.9c0.5,0.2,1,0.4,1.5,0.6c0.5,0.2,0.9,0.5,1.3,0.8c0.4,0.3,0.5,0.7,0.5,1.2l0,0c0,0.4-0.2,0.7-0.5,1
				c-0.3,0.3-0.8,0.5-1.4,0.5l0,0c-0.7,0-1.3-0.2-1.7-0.7c-0.4-0.5-0.7-1.1-1-1.9l0,0c-0.2,0-0.4,0-0.5,0.1l0,0c0,0.5,0,1-0.1,1.7
				c0,0.6-0.1,1-0.1,1.1l0,0c0,0.1,0.1,0.1,0.2,0.2l0,0c0.3-0.2,0.5-0.4,0.6-0.6l0,0c0.6,0.3,1.1,0.5,1.4,0.7
				C69.4,62.3,69.8,62.4,70.3,62.4z M84.1,60.5L84.1,60.5c0,0.6-0.8,1-2.2,1.1l0,0c-0.1,0.1-0.1,0.3,0,0.5l0,0
				c1.3,0,2.2-0.1,2.7-0.1l0,0c0.8,0,1.8,0,2.9,0.1l0,0c0.1-0.2,0.1-0.4,0-0.5l0,0c-1.5-0.1-2.2-0.5-2.2-1.1l0,0
				c-0.1-2.1-0.1-3.9-0.1-5.5l0,0c0-2.1,0-4,0.1-5.6l0,0h0.1l4.9,12.4h0.1L95,49.7H95c0.1,2,0.1,3.8,0.1,5.4l0,0
				c0,2.2,0,4.1-0.1,5.6l0,0c0,0.2-0.1,0.3-0.2,0.4c-0.1,0.1-0.4,0.2-0.6,0.3c-0.3,0.1-0.5,0.1-0.7,0.1c-0.2,0-0.4,0.1-0.7,0.1l0,0
				c-0.1,0.1-0.1,0.3,0,0.5l0,0c1.1,0,2.3-0.1,3.5-0.1l0,0c1.4,0,2.8,0,4.1,0.1l0,0c0.1-0.1,0.1-0.3,0-0.5l0,0
				c-2.2-0.1-3.4-0.5-3.4-1l0,0c-0.1-2.1-0.1-4.2-0.1-6.4l0,0c0-2.1,0-4,0.1-5.6l0,0c0-0.5,1.1-0.8,3.4-0.9l0,0
				c0.1-0.2,0.1-0.4,0-0.5l0,0c-1.3,0-3.1,0.1-5.3,0.1l0,0l-4.3,11.2l-4.1-11.2c-1.6,0-3.1,0-4.4-0.1l0,0c-0.1,0.1-0.1,0.3,0,0.4
				l0,0c0.8,0.1,1.3,0.3,1.6,0.5c0.2,0.2,0.4,0.7,0.4,1.5l0,0c0,1.7,0.1,3.2,0.1,4.7l0,0C84.2,56.4,84.2,58.4,84.1,60.5z M83.7,60.5
				L83.7,60.5c0.1-2.1,0.1-4.2,0.1-6.2l0,0c0-1.5,0-3-0.1-4.7l0,0c0-0.6-0.1-1-0.4-1.2c-0.2-0.2-0.7-0.3-1.5-0.4l0,0
				c-0.2-0.4-0.2-0.8,0-1.2l0,0c1.5,0.1,3.6,0.1,6,0.1l0,0l3.3,8.8l3.4-8.8c1.8,0,3.8,0,6-0.1l0,0c0.1,0.4,0.1,0.9,0,1.3l0,0
				c-1.5,0.1-2.2,0.3-2.3,0.6l0,0c-0.1,1.3-0.1,3.1-0.1,5.6l0,0c0,2.6,0,4.7,0.1,6.3l0,0c0,0.2,0.8,0.4,2.3,0.6l0,0
				c0.1,0.4,0.1,0.9,0,1.3l0,0c-2.2-0.1-3.5-0.1-3.8-0.1l0,0c-0.5,0-2,0-4.5,0.1l0,0c-0.2-0.5-0.2-0.9,0-1.3l0,0
				c1.5-0.1,2.2-0.3,2.2-0.6l0,0c0.1-1.6,0.1-3.4,0.1-5.6l0,0c0-1.7,0-2.9,0-3.7l0,0l-4.1,10.9H90l-4.4-11.1v3.9
				c0,1.6,0,3.4,0.1,5.5l0,0c0,0.4,0.8,0.6,2.2,0.7l0,0c0.2,0.4,0.2,0.8,0,1.3l0,0c-2-0.1-4.1-0.1-6.3,0l0,0c-0.2-0.5-0.2-0.9,0-1.3
				l0,0C83,61.1,83.7,60.9,83.7,60.5z M104.6,54.7L104.6,54.7c0.3,0.1,0.6,0.2,0.7,0.4c0.2,0.2,0.3,0.4,0.3,0.7l0,0
				c0,0.4-0.1,0.6-0.4,0.9c-0.2,0.2-0.5,0.3-0.9,0.3l0,0c-0.4,0-0.8-0.1-1.1-0.4c-0.3-0.3-0.5-0.7-0.5-1.2l0,0
				c0-0.9,0.4-1.6,1.3-2.1c0.8-0.5,1.9-0.8,3.3-0.8l0,0c1.3,0,2.2,0.3,2.7,0.8c0.5,0.5,0.8,1.4,0.8,2.6l0,0v3.5l0.6,0
				c0.6,0,0.9,0.3,1.2,0.8l0,0l-0.3,0.6c-0.2,0.3-0.4,0.6-0.5,0.7c-0.1,0.2-0.3,0.4-0.6,0.6c-0.3,0.2-0.6,0.4-0.9,0.5
				c-0.3,0.1-0.7,0.1-1.2,0.1l0,0c-0.6,0-1-0.2-1.3-0.6l0,0c-0.7,0.5-1.7,0.8-2.8,0.8l0,0c-0.5,0-0.9-0.1-1.3-0.2
				c-0.4-0.2-0.6-0.4-0.8-0.6c-0.2-0.3-0.3-0.5-0.3-0.7c-0.1-0.2-0.1-0.5-0.1-0.7l0,0c0-1,0.3-1.7,1-2.2c0.7-0.5,2-1,4-1.5l0,0v-1.1
				c0-0.5-0.1-0.9-0.3-1.2c-0.2-0.2-0.5-0.4-0.9-0.4l0,0C105.5,54.1,104.9,54.3,104.6,54.7z M107.9,57.7L107.9,57.7v2.1
				c-0.6,0.9-1.3,1.3-2,1.3l0,0c-0.4,0-0.7-0.1-1-0.3c-0.2-0.2-0.4-0.5-0.4-0.8l0,0c0-0.6,0.2-1,0.7-1.4
				C105.7,58.3,106.6,58,107.9,57.7z M107.5,59.7L107.5,59.7v-1.2c-1,0.4-1.5,0.9-1.5,1.6l0,0c0,0.3,0.1,0.5,0.3,0.6l0,0
				C106.7,60.5,107.1,60.2,107.5,59.7z M104.4,56.2L104.4,56.2c-0.2,0-0.4-0.2-0.5-0.5l0,0c-0.1-0.6,0-1,0.5-1.4l0,0
				c0.5-0.4,1.1-0.6,2.1-0.6l0,0c0.4,0,0.8,0.2,1,0.5c0.3,0.3,0.4,0.8,0.4,1.5l0,0V57c-2,0.5-3.3,1-4,1.5c-0.7,0.5-1,1.1-1,2l0,0
				c0,0.5,0.2,0.9,0.5,1.3c0.3,0.4,0.9,0.6,1.7,0.6l0,0c0.3,0,0.6-0.1,0.9-0.2c0.3-0.1,0.6-0.3,0.9-0.5c0.3-0.2,0.5-0.4,0.6-0.4
				c0.1-0.1,0.2-0.2,0.3-0.3c0.2-0.2,0.2-0.2,0.3-0.2l0,0c0.1,1,0.5,1.5,1.2,1.5l0,0c0.2,0,0.4,0,0.6-0.1c0.2-0.1,0.5-0.3,0.7-0.6
				c0.2-0.3,0.4-0.5,0.5-0.6c0.1-0.1,0.2-0.2,0.3-0.4c0.1-0.2,0.2-0.3,0.3-0.4l0,0c-0.1-0.2-0.3-0.3-0.5-0.3l0,0
				c-0.4,0.6-0.7,0.8-1.1,0.8l0,0c-0.3,0-0.4-0.2-0.4-0.6l0,0v-4.2c0-1.1-0.2-1.8-0.6-2.3c-0.4-0.4-1.1-0.7-2.2-0.7l0,0
				c-0.9,0-1.7,0.2-2.4,0.7c-0.7,0.5-1,1.1-1,1.8l0,0c0,0.4,0.1,0.7,0.4,0.9c0.2,0.2,0.5,0.3,0.8,0.3l0,0
				C104.5,56.5,104.5,56.4,104.4,56.2z M115.4,62.2L115.4,62.2c-0.3,0.1-0.6,0.2-1,0.4l0,0c-0.3-0.2-0.5-0.4-0.6-0.6l0,0
				c0,0,0-0.2,0.1-0.4c0-0.2,0.1-0.5,0.1-0.8c0-0.3,0.1-0.6,0.1-1c0-0.3,0-0.6,0-0.9l0,0c0.3-0.1,0.8-0.2,1.5-0.2l0,0
				c0.1,0,0.1,0,0.2,0c0.1,0,0.2,0,0.2,0l0,0c0.5,1.6,1.1,2.4,2,2.6l0,0c0.3-0.1,0.6-0.2,0.8-0.4c0.2-0.2,0.3-0.4,0.3-0.7l0,0
				c0-0.2,0-0.4-0.1-0.5c-0.1-0.2-0.2-0.3-0.4-0.4c-0.2-0.1-0.4-0.3-0.6-0.4c-0.2-0.1-0.5-0.2-0.7-0.3c-0.3-0.1-0.5-0.2-0.8-0.3
				c-0.3-0.1-0.5-0.2-0.7-0.3l0,0c-0.2-0.1-0.5-0.3-0.7-0.4c-0.2-0.2-0.4-0.4-0.6-0.6c-0.2-0.2-0.3-0.4-0.4-0.7
				c-0.1-0.3-0.1-0.5-0.1-0.8l0,0c0-0.3,0.1-0.6,0.2-1c0.1-0.3,0.3-0.7,0.6-0.9c0.3-0.3,0.6-0.5,1.1-0.7c0.4-0.2,1-0.3,1.7-0.3l0,0
				c0.7,0,1.3,0,1.7,0.1l0,0l0.4-0.1h0.7c0.1,0.6,0.2,1.1,0.3,1.6c0.1,0.5,0.3,1,0.4,1.4l0,0c-0.3,0.3-0.6,0.4-1,0.4l0,0
				c-0.2-0.3-0.4-0.5-0.6-0.7c-0.2-0.2-0.4-0.4-0.6-0.6c-0.2-0.2-0.3-0.3-0.5-0.4c-0.2-0.1-0.3-0.2-0.5-0.2l0,0
				c-0.4,0.1-0.7,0.3-0.7,0.6l0,0c0,0.3,0.1,0.5,0.3,0.7c0.2,0.2,0.5,0.4,0.9,0.5c0.3,0.2,0.7,0.3,1.1,0.5c0.4,0.1,0.8,0.3,1.2,0.5
				l0,0c0.3,0.1,0.5,0.3,0.7,0.4c0.2,0.2,0.4,0.4,0.6,0.6c0.2,0.2,0.3,0.5,0.4,0.8c0.1,0.3,0.1,0.6,0.1,0.9l0,0
				c0,0.5-0.1,0.9-0.4,1.3c-0.3,0.4-0.6,0.7-1,1s-0.9,0.5-1.4,0.6c-0.5,0.1-1.1,0.2-1.6,0.2l0,0C116.8,62.8,116.1,62.6,115.4,62.2z
				 M117.7,62.4L117.7,62.4c0.8,0,1.6-0.2,2.2-0.7c0.6-0.5,0.9-1.1,0.9-1.7l0,0c0-0.6-0.2-1.1-0.6-1.6c-0.4-0.4-0.8-0.8-1.3-1
				c-0.5-0.2-1.1-0.5-1.6-0.7c-0.5-0.2-1-0.4-1.4-0.7c-0.4-0.3-0.6-0.6-0.6-1l0,0c0-0.5,0.2-0.8,0.5-1.1c0.3-0.2,0.8-0.4,1.2-0.4
				l0,0c0.5,0,0.9,0.2,1.3,0.5c0.4,0.3,0.9,0.8,1.4,1.5l0,0c0.2,0,0.3,0,0.4-0.1l0,0c-0.2-0.7-0.6-1.3-1.1-1.8
				c-0.5-0.5-1.1-0.7-1.9-0.7l0,0c-1.1,0-1.9,0.3-2.3,0.8c-0.5,0.5-0.7,1.1-0.7,1.7l0,0c0,0.5,0.2,1,0.5,1.4
				c0.4,0.4,0.8,0.7,1.3,0.9c0.5,0.2,1,0.4,1.5,0.6c0.5,0.2,0.9,0.5,1.3,0.8c0.4,0.3,0.5,0.7,0.5,1.2l0,0c0,0.4-0.2,0.7-0.5,1
				c-0.3,0.3-0.8,0.5-1.4,0.5l0,0c-0.7,0-1.3-0.2-1.7-0.7c-0.4-0.5-0.7-1.1-1-1.9l0,0c-0.2,0-0.4,0-0.5,0.1l0,0c0,0.5,0,1-0.1,1.7
				c0,0.6-0.1,1-0.1,1.1l0,0c0,0.1,0.1,0.1,0.2,0.2l0,0c0.3-0.2,0.5-0.4,0.6-0.6l0,0c0.6,0.3,1.1,0.5,1.4,0.7
				C116.8,62.3,117.2,62.4,117.7,62.4z M127.1,59.5v-5.4h4c0.1-0.3,0.1-0.5,0-0.7l0,0h-4v-2.2c-0.2-0.1-0.3-0.1-0.5,0l0,0
				c-0.2,0.5-0.5,0.9-0.8,1.2c-0.3,0.3-0.6,0.6-0.8,0.7c-0.2,0.1-0.5,0.3-0.9,0.5l0,0c0,0.1,0,0.3,0,0.5l0,0h1.2v5.3
				c0,2,0.8,3,2.4,3l0,0c0.7,0,1.3-0.2,1.9-0.5c0.6-0.4,1-0.8,1.3-1.3l0,0c-0.1-0.1-0.2-0.2-0.3-0.2l0,0c-0.6,0.6-1.2,0.8-1.8,0.8
				l0,0C127.7,61.1,127.1,60.6,127.1,59.5L127.1,59.5z M130.6,59.8L130.6,59.8c0.4,0.1,0.7,0.3,0.9,0.7l0,0
				c-0.3,0.6-0.9,1.2-1.5,1.6c-0.7,0.4-1.4,0.7-2.2,0.7l0,0c-1.9,0-2.8-1.1-2.8-3.4l0,0v-4.9h-1.2c-0.1-0.4-0.1-0.7,0-1.1l0,0
				c0.4-0.2,0.7-0.4,0.9-0.6c0.2-0.2,0.5-0.4,0.8-0.7c0.3-0.3,0.6-0.8,0.9-1.2l0,0c0.6-0.3,1.4-0.2,2.2,0l0,0V53h2.9
				c0.2,0.5,0.2,1,0,1.5l0,0h-2.9v5c0,0.6,0.2,1,0.7,1.1l0,0C129.7,60.6,130.1,60.3,130.6,59.8z M137.9,53.6L137.9,53.6
				c0.5,0,0.9,0.2,1.2,0.5c0.2,0.3,0.4,0.8,0.4,1.3l0,0c0,0.2,0,0.4-0.1,0.7l0,0h-3.9c0.2-0.8,0.5-1.5,1-1.9
				C136.8,53.8,137.3,53.6,137.9,53.6z M135.3,56.7L135.3,56.7h5.5c0.1-0.3,0.2-0.7,0.2-1l0,0c0-0.8-0.2-1.5-0.7-2
				c-0.4-0.5-1.2-0.8-2.1-0.8l0,0c-1.3,0-2.3,0.5-3.2,1.4c-0.9,0.9-1.3,2.1-1.3,3.5l0,0c0,1.5,0.4,2.7,1.2,3.4
				c0.8,0.8,1.8,1.2,2.9,1.2l0,0c0.8,0,1.6-0.2,2.3-0.7c0.7-0.4,1.2-1.1,1.6-2l0,0c-0.1-0.1-0.2-0.2-0.4-0.2l0,0
				c0,0-0.1,0.2-0.2,0.3c-0.1,0.2-0.2,0.3-0.3,0.4c-0.1,0.1-0.2,0.2-0.3,0.3c-0.2,0.1-0.3,0.3-0.5,0.3c-0.1,0.1-0.3,0.1-0.5,0.2
				c-0.2,0.1-0.5,0.1-0.7,0.1l0,0c-1,0-1.9-0.3-2.5-0.9c-0.6-0.6-0.9-1.4-1-2.5l0,0C135.2,57.5,135.2,57.1,135.3,56.7z M141.1,59
				L141.1,59c0.4,0.1,0.8,0.3,1,0.6l0,0c-0.4,1.1-1,1.8-1.8,2.4c-0.8,0.5-1.7,0.8-2.6,0.8l0,0c-1.2,0-2.3-0.4-3.2-1.3
				c-0.9-0.8-1.4-2.1-1.4-3.7l0,0c0-1.5,0.5-2.8,1.4-3.8c0.9-1,2.2-1.5,3.9-1.5l0,0c2.6,0,3.8,1.1,3.8,3.2l0,0
				c0,0.4-0.1,0.9-0.3,1.5l0,0h-5.4v0.7c0,0.8,0.3,1.5,0.7,2c0.4,0.5,1,0.8,1.7,0.9l0,0c0.4,0,0.8-0.2,1.1-0.4
				C140.3,60,140.7,59.6,141.1,59z M139,55.4L139,55.4c0-0.7-0.2-1.2-0.7-1.3l0,0c-0.6,0.2-1,0.7-1.3,1.6l0,0h2.1c0,0,0-0.1,0-0.1
				C139,55.5,139,55.4,139,55.4z M147.8,56.4L147.8,56.4c0.2-0.6,0.5-1.2,1-1.8c0.5-0.6,1.1-0.9,1.6-0.9l0,0c0.6,0,1,0.2,1,0.6l0,0
				c0,0.4-0.2,0.6-0.5,0.7l0,0c-0.1,0.1-0.1,0.3,0,0.5l0,0c0.4,0,0.7-0.1,0.9-0.3c0.2-0.2,0.3-0.5,0.3-0.9l0,0c0-0.4-0.1-0.7-0.4-1
				c-0.3-0.2-0.6-0.4-1-0.4l0,0c-0.5,0-1.1,0.2-1.6,0.6s-1,0.9-1.4,1.4l0,0v-1.7c-0.1-0.1-0.2-0.2-0.3-0.3l0,0
				c-0.9,0.4-1.9,0.7-3.1,0.8l0,0c0,0.2,0,0.3,0,0.5l0,0c0.9,0,1.6,0.2,1.9,0.4l0,0c0.1,2.5,0,4.5,0,6l0,0c0,0.5-0.6,0.8-1.7,1l0,0
				c-0.1,0.2-0.1,0.3,0,0.5l0,0c1.8-0.1,3.7-0.1,5.8,0l0,0c0.1-0.1,0.1-0.3,0-0.5l0,0c-1.6-0.1-2.4-0.5-2.4-1l0,0
				C147.9,59.3,147.8,57.9,147.8,56.4z M149.4,60.7L149.4,60.7c0,0.3,0.5,0.5,1.4,0.6l0,0c0.2,0.4,0.2,0.9,0,1.3l0,0
				c-2.9-0.1-5-0.1-6.5-0.1l0,0c-0.2-0.4-0.3-0.8,0-1.2l0,0c1.1-0.1,1.7-0.4,1.7-0.6l0,0c0.1-1.9,0.1-3.8,0-5.8l0,0
				c-0.4-0.1-1.1-0.2-1.8-0.3l0,0c-0.2-0.4-0.2-0.8,0-1.3l0,0c1.1-0.1,2.3-0.4,3.6-0.9l0,0c0.7,0.1,1.3,0.3,1.6,0.7l0,0
				c0.6-0.4,1.1-0.6,1.5-0.6l0,0c0.5,0,1,0.2,1.3,0.5c0.3,0.3,0.5,0.7,0.5,1.3l0,0c0,0.5-0.2,0.9-0.5,1.2c-0.3,0.3-0.7,0.4-1.2,0.4
				l0,0c-0.5,0-0.8-0.2-1.1-0.5l0,0c-0.3,0.4-0.4,0.7-0.5,1l0,0C149.3,57.9,149.3,59.3,149.4,60.7z M164.2,47.9L164.2,47.9
				L164.2,47.9c0.4,0,1,0,1.6,0l0,0c1,0,1.8,0.3,2.3,0.9c0.5,0.6,0.8,1.5,0.8,2.5l0,0c0,1-0.2,1.9-0.7,2.7c-0.5,0.7-1.3,1.1-2.3,1.1
				l0,0c-0.6,0-1.2-0.1-1.8-0.2l0,0C164.1,52.5,164.1,50.2,164.2,47.9z M168.6,51.3L168.6,51.3c0-0.9-0.3-1.6-0.8-2.2
				c-0.5-0.6-1.2-0.9-2.1-0.8l0,0c-0.1,2.6-0.1,4.7-0.1,6.2l0,0c0.1,0,0.3,0.1,0.6,0.1l0,0c0.8-0.1,1.4-0.5,1.7-1.1
				C168.4,52.9,168.6,52.1,168.6,51.3z M162.3,60.7L162.3,60.7c0,0.5-0.8,0.8-2.3,1l0,0c-0.1,0.1-0.1,0.3,0,0.5l0,0
				c1.1,0,2.3-0.1,3.5-0.1l0,0c1.4,0,2.8,0,4.1,0.1l0,0c0.1-0.1,0.1-0.3,0-0.5l0,0c-2.2-0.1-3.4-0.5-3.4-1l0,0
				c-0.1-1.9-0.1-3.6-0.1-5.1l0,0c0.8,0.2,1.5,0.2,2.1,0.2l0,0c1.1,2.1,2.6,4.1,4.4,6.2l0,0c0.3,0,0.8,0,1.5,0c0.6,0,1.2,0,1.8,0
				c0.5,0,1,0,1.5,0l0,0c0.1-0.1,0.1-0.3,0-0.5l0,0c-1.1-0.1-2-0.4-2.8-0.8c-0.8-0.5-1.6-1.3-2.7-2.6l0,0c-0.7-0.9-1.3-1.8-1.9-2.8
				l0,0c1-0.3,1.8-0.9,2.4-1.6c0.6-0.8,0.9-1.6,0.9-2.6l0,0c0-1.2-0.4-2.2-1.2-2.9c-0.8-0.8-1.9-1.1-3.2-1.1l0,0
				c-4.6,0.1-6.8,0.1-6.9,0l0,0c0,0.2,0,0.3,0,0.5l0,0c1.5,0.1,2.3,0.5,2.3,1l0,0c0.1,1.6,0.1,3.5,0.1,5.6l0,0
				C162.4,56.5,162.3,58.6,162.3,60.7z M161.8,60.7L161.8,60.7c0.1-1.7,0.1-3.8,0.1-6.4l0,0c0-2.2,0-4-0.1-5.6l0,0
				c0-0.2-0.8-0.4-2.2-0.6l0,0c-0.1-0.4-0.1-0.9,0-1.3l0,0c0.7,0,1.5,0.1,2.4,0.1s1.9,0,3,0c1.1,0,1.9,0,2.5,0l0,0
				c1.6,0,2.9,0.4,3.8,1.2c0.9,0.8,1.4,1.9,1.4,3.2l0,0c0,0.9-0.3,1.8-0.8,2.6c-0.5,0.8-1.3,1.4-2.2,1.8l0,0c0.5,0.7,1,1.5,1.6,2.3
				l0,0c0.7,0.9,1.4,1.7,2.1,2.3c0.7,0.6,1.5,0.9,2.3,1l0,0c0.1,0.4,0.1,0.9,0,1.3l0,0c-1,0-2.7-0.1-5.3-0.1l0,0
				c-1.9-2.2-3.4-4.3-4.4-6.2l0,0h-0.3c0,1.3,0,2.7,0.1,4.4l0,0c0,0,0,0.1,0.1,0.1s0.2,0.1,0.4,0.2c0.2,0.1,0.6,0.2,1,0.2
				c0.5,0.1,0.7,0.1,0.8,0.1l0,0c0.1,0.4,0.1,0.8-0.1,1.2l0,0c-2.5-0.1-4-0.1-4.5-0.1l0,0c-0.4,0-1.6,0-3.8,0.1l0,0
				c-0.2-0.5-0.2-0.9,0-1.3l0,0C161.1,61.1,161.8,60.9,161.8,60.7z M181.4,53.6L181.4,53.6c0.7,0,1.2,0.3,1.6,1
				c0.4,0.7,0.6,1.7,0.6,3.1l0,0c0,1.4-0.2,2.4-0.6,3.1c-0.4,0.7-1,1-1.6,1l0,0c-0.4,0-0.7-0.1-1-0.2c-0.3-0.2-0.6-0.4-0.8-0.7
				c-0.2-0.3-0.4-0.8-0.5-1.3c-0.1-0.5-0.2-1.1-0.2-1.8l0,0c0-0.7,0.1-1.3,0.2-1.8c0.1-0.5,0.3-0.9,0.5-1.3c0.2-0.3,0.5-0.6,0.8-0.7
				C180.7,53.6,181,53.6,181.4,53.6z M181.4,62.4L181.4,62.4c0.6,0,1.2-0.1,1.7-0.4c0.5-0.2,0.9-0.6,1.3-1c0.4-0.4,0.6-0.9,0.8-1.5
				c0.2-0.6,0.3-1.2,0.3-1.9l0,0c0-0.7-0.1-1.3-0.3-1.9c-0.2-0.6-0.5-1.1-0.8-1.5c-0.4-0.4-0.8-0.7-1.3-1c-0.5-0.2-1.1-0.4-1.7-0.4
				l0,0c-0.7,0-1.3,0.1-1.8,0.4c-0.5,0.2-1,0.6-1.4,1c-0.4,0.4-0.7,0.9-0.9,1.5c-0.2,0.6-0.3,1.2-0.3,1.9l0,0c0,0.7,0.1,1.3,0.3,1.9
				c0.2,0.6,0.5,1.1,0.9,1.5c0.4,0.4,0.8,0.7,1.4,1C180.1,62.3,180.7,62.4,181.4,62.4z M181.8,52.5L181.8,52.5
				c0.8,0,1.5,0.1,2.2,0.4c0.6,0.2,1.2,0.6,1.6,1.1c0.4,0.5,0.8,1,1,1.6c0.2,0.6,0.3,1.3,0.3,2.1l0,0c0,0.8-0.1,1.4-0.3,2.1
				c-0.2,0.6-0.6,1.2-1,1.6c-0.4,0.5-1,0.8-1.6,1.1c-0.6,0.3-1.4,0.4-2.2,0.4l0,0c-0.8,0-1.5-0.1-2.2-0.4c-0.6-0.3-1.2-0.6-1.6-1.1
				c-0.4-0.5-0.8-1-1-1.6c-0.2-0.6-0.3-1.3-0.3-2.1l0,0c0-0.8,0.1-1.5,0.3-2.1c0.2-0.6,0.6-1.2,1-1.6c0.4-0.5,1-0.8,1.6-1.1
				S181,52.5,181.8,52.5z M180.3,57.6L180.3,57.6c0,2.2,0.5,3.4,1.5,3.6l0,0c1-0.2,1.5-1.4,1.5-3.6l0,0c0-2.2-0.5-3.4-1.5-3.6l0,0
				C180.8,54.3,180.3,55.5,180.3,57.6z M190.4,62.2L190.4,62.2c-0.3,0.1-0.6,0.2-1,0.4l0,0c-0.3-0.2-0.5-0.4-0.6-0.6l0,0
				c0,0,0-0.2,0.1-0.4c0-0.2,0.1-0.5,0.1-0.8c0-0.3,0.1-0.6,0.1-1c0-0.3,0-0.6,0-0.9l0,0c0.3-0.1,0.8-0.2,1.5-0.2l0,0
				c0.1,0,0.1,0,0.2,0c0.1,0,0.2,0,0.2,0l0,0c0.5,1.6,1.1,2.4,2,2.6l0,0c0.3-0.1,0.6-0.2,0.8-0.4c0.2-0.2,0.3-0.4,0.3-0.7l0,0
				c0-0.2-0.1-0.4-0.2-0.5c-0.1-0.2-0.2-0.3-0.4-0.4c-0.2-0.1-0.4-0.3-0.6-0.4c-0.2-0.1-0.5-0.2-0.7-0.3c-0.2-0.1-0.5-0.2-0.8-0.3
				c-0.3-0.1-0.5-0.2-0.7-0.3l0,0c-0.2-0.1-0.5-0.3-0.7-0.4c-0.2-0.2-0.4-0.4-0.6-0.6c-0.2-0.2-0.3-0.4-0.4-0.7
				c-0.1-0.3-0.1-0.5-0.1-0.8l0,0c0-0.3,0.1-0.6,0.2-1c0.1-0.3,0.3-0.7,0.6-0.9c0.3-0.3,0.6-0.5,1.1-0.7c0.4-0.2,1-0.3,1.7-0.3l0,0
				c0.7,0,1.3,0,1.7,0.1l0,0l0.4-0.1h0.7c0.1,0.6,0.2,1.1,0.3,1.6c0.1,0.5,0.3,1,0.4,1.4l0,0c-0.3,0.3-0.6,0.4-1,0.4l0,0
				c-0.2-0.3-0.4-0.5-0.6-0.7c-0.2-0.2-0.4-0.4-0.6-0.6c-0.2-0.2-0.4-0.3-0.5-0.4c-0.2-0.1-0.3-0.2-0.5-0.2l0,0
				c-0.4,0.1-0.7,0.3-0.7,0.6l0,0c0,0.3,0.1,0.5,0.3,0.7c0.2,0.2,0.5,0.4,0.9,0.5c0.3,0.2,0.7,0.3,1.1,0.5c0.4,0.1,0.8,0.3,1.2,0.5
				l0,0c0.3,0.1,0.5,0.3,0.7,0.4c0.2,0.2,0.4,0.4,0.6,0.6c0.2,0.2,0.3,0.5,0.4,0.8s0.1,0.6,0.1,0.9l0,0c0,0.5-0.1,0.9-0.4,1.3
				c-0.3,0.4-0.6,0.7-1,1c-0.4,0.3-0.9,0.5-1.4,0.6c-0.5,0.1-1.1,0.2-1.6,0.2l0,0C191.9,62.8,191.1,62.6,190.4,62.2z M192.7,62.4
				L192.7,62.4c0.8,0,1.6-0.2,2.2-0.7c0.6-0.5,0.9-1.1,0.9-1.7l0,0c0-0.6-0.2-1.1-0.6-1.6c-0.4-0.4-0.8-0.8-1.3-1
				c-0.5-0.2-1.1-0.5-1.6-0.7c-0.5-0.2-1-0.4-1.4-0.7c-0.4-0.3-0.6-0.6-0.6-1l0,0c0-0.5,0.2-0.8,0.5-1.1c0.4-0.2,0.8-0.4,1.2-0.4
				l0,0c0.5,0,0.9,0.2,1.3,0.5c0.4,0.3,0.9,0.8,1.4,1.5l0,0c0.2,0,0.3,0,0.4-0.1l0,0c-0.2-0.7-0.6-1.3-1.1-1.8
				c-0.5-0.5-1.1-0.7-1.9-0.7l0,0c-1.1,0-1.9,0.3-2.3,0.8c-0.5,0.5-0.7,1.1-0.7,1.7l0,0c0,0.5,0.2,1,0.5,1.4
				c0.4,0.4,0.8,0.7,1.3,0.9c0.5,0.2,1,0.4,1.5,0.6c0.5,0.2,0.9,0.5,1.3,0.8c0.4,0.3,0.5,0.7,0.5,1.2l0,0c0,0.4-0.2,0.7-0.5,1
				c-0.3,0.3-0.8,0.5-1.4,0.5l0,0c-0.7,0-1.3-0.2-1.7-0.7c-0.4-0.5-0.7-1.1-1-1.9l0,0c-0.2,0-0.4,0-0.5,0.1l0,0c0,0.5,0,1-0.1,1.7
				c0,0.6-0.1,1-0.1,1.1l0,0c0,0.1,0.1,0.1,0.2,0.2l0,0c0.3-0.2,0.5-0.4,0.6-0.6l0,0c0.6,0.3,1.1,0.5,1.4,0.7
				C191.9,62.3,192.3,62.4,192.7,62.4z M200.6,62.2L200.6,62.2c-0.3,0.1-0.6,0.2-1,0.4l0,0c-0.3-0.2-0.5-0.4-0.6-0.6l0,0
				c0,0,0-0.2,0.1-0.4c0-0.2,0.1-0.5,0.1-0.8c0-0.3,0.1-0.6,0.1-1c0-0.3,0-0.6,0-0.9l0,0c0.3-0.1,0.8-0.2,1.5-0.2l0,0
				c0.1,0,0.1,0,0.2,0c0.1,0,0.1,0,0.2,0l0,0c0.5,1.6,1.1,2.4,2,2.6l0,0c0.3-0.1,0.6-0.2,0.8-0.4c0.2-0.2,0.3-0.4,0.3-0.7l0,0
				c0-0.2-0.1-0.4-0.2-0.5c-0.1-0.2-0.2-0.3-0.4-0.4c-0.2-0.1-0.4-0.3-0.6-0.4s-0.5-0.2-0.7-0.3c-0.2-0.1-0.5-0.2-0.8-0.3
				c-0.3-0.1-0.5-0.2-0.7-0.3l0,0c-0.2-0.1-0.5-0.3-0.7-0.4c-0.2-0.2-0.4-0.4-0.6-0.6c-0.2-0.2-0.3-0.4-0.4-0.7s-0.1-0.5-0.1-0.8
				l0,0c0-0.3,0.1-0.6,0.2-1c0.1-0.3,0.3-0.7,0.6-0.9c0.3-0.3,0.6-0.5,1.1-0.7c0.4-0.2,1-0.3,1.7-0.3l0,0c0.7,0,1.3,0,1.7,0.1l0,0
				l0.4-0.1h0.7c0.1,0.6,0.2,1.1,0.3,1.6c0.1,0.5,0.3,1,0.4,1.4l0,0c-0.3,0.3-0.6,0.4-1,0.4l0,0c-0.2-0.3-0.4-0.5-0.6-0.7
				c-0.2-0.2-0.4-0.4-0.6-0.6c-0.2-0.2-0.4-0.3-0.5-0.4c-0.2-0.1-0.3-0.2-0.5-0.2l0,0c-0.4,0.1-0.7,0.3-0.7,0.6l0,0
				c0,0.3,0.1,0.5,0.3,0.7c0.2,0.2,0.5,0.4,0.9,0.5c0.3,0.2,0.7,0.3,1.1,0.5c0.4,0.1,0.8,0.3,1.2,0.5l0,0c0.3,0.1,0.5,0.3,0.7,0.4
				c0.2,0.2,0.4,0.4,0.6,0.6c0.2,0.2,0.3,0.5,0.4,0.8s0.1,0.6,0.1,0.9l0,0c0,0.5-0.1,0.9-0.4,1.3c-0.3,0.4-0.6,0.7-1,1
				c-0.4,0.3-0.9,0.5-1.4,0.6s-1.1,0.2-1.6,0.2l0,0C202,62.8,201.2,62.6,200.6,62.2z M202.9,62.4L202.9,62.4c0.8,0,1.6-0.2,2.2-0.7
				c0.6-0.5,0.9-1.1,0.9-1.7l0,0c0-0.6-0.2-1.1-0.6-1.6c-0.4-0.4-0.8-0.8-1.3-1c-0.5-0.2-1.1-0.5-1.6-0.7c-0.5-0.2-1-0.4-1.4-0.7
				c-0.4-0.3-0.6-0.6-0.6-1l0,0c0-0.5,0.2-0.8,0.5-1.1c0.4-0.2,0.8-0.4,1.2-0.4l0,0c0.5,0,0.9,0.2,1.3,0.5c0.4,0.3,0.9,0.8,1.4,1.5
				l0,0c0.2,0,0.3,0,0.4-0.1l0,0c-0.2-0.7-0.6-1.3-1.1-1.8c-0.5-0.5-1.1-0.7-1.9-0.7l0,0c-1.1,0-1.9,0.3-2.3,0.8
				c-0.5,0.5-0.7,1.1-0.7,1.7l0,0c0,0.5,0.2,1,0.5,1.4c0.4,0.4,0.8,0.7,1.3,0.9c0.5,0.2,1,0.4,1.5,0.6c0.5,0.2,0.9,0.5,1.3,0.8
				c0.4,0.3,0.5,0.7,0.5,1.2l0,0c0,0.4-0.2,0.7-0.5,1c-0.3,0.3-0.8,0.5-1.4,0.5l0,0c-0.7,0-1.3-0.2-1.7-0.7c-0.4-0.5-0.7-1.1-1-1.9
				l0,0c-0.2,0-0.4,0-0.5,0.1l0,0c0,0.5,0,1-0.1,1.7c0,0.6-0.1,1-0.1,1.1l0,0c0,0.1,0.1,0.1,0.2,0.2l0,0c0.3-0.2,0.5-0.4,0.6-0.6
				l0,0c0.6,0.3,1.1,0.5,1.4,0.7C202,62.3,202.4,62.4,202.9,62.4z M220.4,46.5L220.4,46.5c1,0,1.8,0.1,2.7,0.4
				c0.8,0.3,1.5,0.4,2.2,0.5l0,0c-0.4,1.3-0.4,2.6,0,4l0,0c-0.3,0.3-0.7,0.5-1.2,0.5l0,0c-0.1-0.1-0.2-0.4-0.3-0.8
				c-0.1-0.4-0.3-0.7-0.4-1c-0.1-0.3-0.3-0.6-0.5-0.9c-0.2-0.3-0.5-0.6-0.9-0.8c-0.4-0.2-0.8-0.3-1.2-0.4l0,0
				c-0.7,0.1-1.2,0.3-1.6,0.6c-0.4,0.4-0.6,0.8-0.6,1.4l0,0c0,0.6,0.1,1.1,0.4,1.4c0.3,0.4,0.7,0.7,1.2,0.8c0.5,0.2,1,0.3,1.6,0.5
				c0.6,0.1,1.1,0.3,1.7,0.5c0.6,0.2,1.1,0.5,1.6,0.8c0.5,0.3,0.9,0.8,1.2,1.4c0.3,0.6,0.4,1.4,0.4,2.3l0,0c0,1.1-0.3,2.1-1,2.8
				c-0.6,0.8-1.4,1.4-2.3,1.7c-0.9,0.3-1.8,0.5-2.7,0.5l0,0c-2,0-4-0.4-5.9-1.3l0,0c0-0.9,0.1-1.4,0.1-1.6l0,0
				c0-1.1-0.1-2.3-0.3-3.5l0,0c0.6-0.3,1.3-0.3,2,0l0,0c0.2,1.5,0.7,2.7,1.4,3.5c0.7,0.8,1.5,1.3,2.4,1.4l0,0
				c0.8-0.1,1.4-0.3,1.9-0.8c0.4-0.5,0.7-1.1,0.7-1.8l0,0c0-0.6-0.1-1.1-0.4-1.5c-0.3-0.4-0.7-0.7-1.1-1c-0.5-0.2-1-0.4-1.5-0.6
				c-0.5-0.2-1.1-0.4-1.6-0.6c-0.6-0.2-1.1-0.5-1.5-0.8c-0.5-0.3-0.8-0.7-1.1-1.2c-0.3-0.5-0.4-1.2-0.4-1.9l0,0
				c0-0.7,0.1-1.3,0.3-1.8c0.2-0.5,0.5-1,0.9-1.3c0.4-0.3,0.8-0.6,1.2-0.8c0.5-0.2,0.9-0.4,1.4-0.5
				C219.4,46.5,219.9,46.5,220.4,46.5z M220.4,46.9L220.4,46.9c-0.6,0-1.1,0.1-1.6,0.2c-0.5,0.1-1,0.3-1.5,0.6
				c-0.5,0.3-0.9,0.7-1.2,1.3c-0.3,0.6-0.5,1.2-0.5,2l0,0c0,0.7,0.1,1.3,0.4,1.8c0.3,0.5,0.7,0.9,1.1,1.1c0.5,0.3,1,0.5,1.5,0.7
				c0.6,0.2,1.1,0.4,1.6,0.6c0.5,0.2,1,0.4,1.5,0.7c0.5,0.3,0.8,0.6,1.1,1.1s0.4,1,0.4,1.7l0,0c0,0.9-0.3,1.6-0.9,2.2
				c-0.6,0.6-1.4,0.8-2.4,0.8l0,0c-1,0-1.9-0.4-2.8-1.3c-0.9-0.8-1.4-2.1-1.7-3.8l0,0c-0.1-0.1-0.3-0.1-0.5,0l0,0
				c0.2,1.1,0.3,2.2,0.3,3.3l0,0c0,0.3,0,0.8,0,1.3l0,0c1.7,0.8,3.3,1.2,4.8,1.2l0,0c1.3,0,2.4-0.4,3.5-1.1c1.1-0.7,1.6-1.8,1.6-3.1
				l0,0c0-0.8-0.1-1.4-0.4-1.9c-0.3-0.5-0.7-0.9-1.2-1.2c-0.5-0.3-1-0.5-1.6-0.8c-0.6-0.2-1.1-0.4-1.7-0.6s-1.1-0.4-1.6-0.6
				c-0.5-0.2-0.9-0.6-1.2-1c-0.3-0.4-0.4-1-0.4-1.6l0,0c0-0.9,0.3-1.6,0.9-2.1c0.6-0.5,1.4-0.8,2.5-0.8l0,0c1.9,0,3.2,1.3,3.9,3.9
				l0,0c0.2,0,0.4,0,0.4-0.1l0,0c-0.2-1.6-0.7-2.8-1.5-3.5C222.5,47.2,221.5,46.9,220.4,46.9z M231.7,59.5v-5.4h4
				c0.1-0.3,0.1-0.5,0-0.7l0,0h-4v-2.2c-0.2-0.1-0.3-0.1-0.5,0l0,0c-0.3,0.5-0.5,0.9-0.8,1.2c-0.3,0.3-0.6,0.6-0.8,0.7
				c-0.2,0.1-0.5,0.3-0.9,0.5l0,0c0,0.1,0,0.3,0,0.5l0,0h1.2v5.3c0,2,0.8,3,2.4,3l0,0c0.7,0,1.3-0.2,1.9-0.5c0.6-0.4,1-0.8,1.3-1.3
				l0,0c-0.1-0.1-0.2-0.2-0.3-0.2l0,0c-0.6,0.6-1.2,0.8-1.8,0.8l0,0C232.3,61.1,231.7,60.6,231.7,59.5L231.7,59.5z M235.2,59.8
				L235.2,59.8c0.4,0.1,0.7,0.3,0.9,0.7l0,0c-0.4,0.6-0.9,1.2-1.5,1.6c-0.7,0.4-1.4,0.7-2.2,0.7l0,0c-1.9,0-2.8-1.1-2.8-3.4l0,0
				v-4.9h-1.2c-0.1-0.4-0.1-0.7,0-1.1l0,0c0.4-0.2,0.7-0.4,0.9-0.6c0.2-0.2,0.5-0.4,0.8-0.7c0.3-0.3,0.6-0.8,0.9-1.2l0,0
				c0.6-0.3,1.4-0.2,2.2,0l0,0V53h2.9c0.2,0.5,0.2,1,0,1.5l0,0h-2.9v5c0,0.6,0.2,1,0.7,1.1l0,0C234.2,60.6,234.7,60.3,235.2,59.8z
				 M242.4,53.6L242.4,53.6c0.5,0,0.9,0.2,1.2,0.5c0.2,0.3,0.4,0.8,0.4,1.3l0,0c0,0.2,0,0.4-0.1,0.7l0,0h-3.9c0.2-0.8,0.5-1.5,1-1.9
				C241.4,53.8,241.9,53.6,242.4,53.6z M239.8,56.7L239.8,56.7h5.5c0.1-0.3,0.2-0.7,0.2-1l0,0c0-0.8-0.2-1.5-0.7-2
				c-0.4-0.5-1.2-0.8-2.1-0.8l0,0c-1.3,0-2.3,0.5-3.2,1.4c-0.9,0.9-1.3,2.1-1.3,3.5l0,0c0,1.5,0.4,2.7,1.2,3.4
				c0.8,0.8,1.8,1.2,2.9,1.2l0,0c0.8,0,1.6-0.2,2.3-0.7c0.7-0.4,1.2-1.1,1.6-2l0,0c-0.1-0.1-0.2-0.2-0.4-0.2l0,0
				c0,0-0.1,0.2-0.2,0.3c-0.1,0.2-0.2,0.3-0.3,0.4c-0.1,0.1-0.2,0.2-0.3,0.3c-0.2,0.1-0.3,0.3-0.5,0.3c-0.1,0.1-0.3,0.1-0.6,0.2
				c-0.2,0.1-0.5,0.1-0.7,0.1l0,0c-1,0-1.9-0.3-2.5-0.9c-0.6-0.6-0.9-1.4-1-2.5l0,0C239.8,57.5,239.8,57.1,239.8,56.7z M245.6,59
				L245.6,59c0.4,0.1,0.8,0.3,1,0.6l0,0c-0.4,1.1-1,1.8-1.8,2.4c-0.8,0.5-1.7,0.8-2.6,0.8l0,0c-1.2,0-2.3-0.4-3.2-1.3
				c-0.9-0.8-1.4-2.1-1.4-3.7l0,0c0-1.5,0.5-2.8,1.4-3.8c0.9-1,2.2-1.5,3.9-1.5l0,0c2.6,0,3.9,1.1,3.9,3.2l0,0
				c0,0.4-0.1,0.9-0.3,1.5l0,0h-5.4v0.7c0,0.8,0.3,1.5,0.7,2c0.4,0.5,1,0.8,1.7,0.9l0,0c0.4,0,0.8-0.2,1-0.4
				C244.9,60,245.2,59.6,245.6,59z M243.6,55.4L243.6,55.4c0-0.7-0.2-1.2-0.7-1.3l0,0c-0.6,0.2-1,0.7-1.3,1.6l0,0h2c0,0,0-0.1,0-0.1
				C243.6,55.5,243.6,55.4,243.6,55.4z M247.5,52.7L247.5,52.7c2.1,0.1,4.2,0.1,6.3,0l0,0c0.2,0.5,0.2,0.9,0,1.2l0,0
				c-0.4,0.1-0.7,0.1-0.9,0.2c-0.1,0.1-0.2,0.3-0.1,0.5l0,0l1.1,3l1.2-3c0.1-0.2,0.1-0.4,0-0.5c-0.1-0.1-0.4-0.2-0.8-0.2l0,0
				c-0.2-0.4-0.2-0.8,0-1.2l0,0c1.4,0,2.8,0,4.2,0l0,0c0.2,0.4,0.2,0.8,0,1.2l0,0c-0.5,0-0.9,0.1-1.1,0.2c-0.2,0.1-0.4,0.3-0.5,0.5
				l0,0l-3.6,8.1h-1.1l-3.2-8.1c-0.1-0.2-0.3-0.4-0.5-0.5c-0.3-0.1-0.6-0.2-1.1-0.2l0,0C247.4,53.6,247.4,53.1,247.5,52.7z
				 M253.5,53.1L253.5,53.1c-1.9,0.1-3.8,0.1-5.7,0l0,0c-0.1,0.2-0.1,0.3,0,0.5l0,0c0.5,0.1,0.9,0.2,1.2,0.3
				c0.3,0.1,0.5,0.4,0.6,0.7l0,0l3.1,7.8h0.5l3.5-7.8c0.3-0.6,0.8-0.9,1.6-1l0,0c0.1-0.1,0.1-0.3,0-0.5l0,0c-1.2,0-2.4,0-3.6,0l0,0
				c-0.1,0.2-0.1,0.3,0,0.5l0,0c0.3,0,0.5,0,0.6,0.1c0.2,0.1,0.3,0.1,0.4,0.3c0.1,0.1,0.1,0.3,0,0.6l0,0l-2.3,5.5l-2-5.5
				c-0.1-0.2-0.1-0.3,0-0.5c0.1-0.1,0.2-0.2,0.5-0.3c0.2-0.1,0.5-0.1,0.7-0.1c0.2,0,0.6-0.1,1-0.1l0,0
				C253.6,53.5,253.6,53.3,253.5,53.1z M264.5,53.6L264.5,53.6c0.5,0,0.9,0.2,1.2,0.5c0.2,0.3,0.4,0.8,0.4,1.3l0,0
				c0,0.2,0,0.4-0.1,0.7l0,0H262c0.2-0.8,0.5-1.5,1-1.9C263.5,53.8,264,53.6,264.5,53.6z M261.9,56.7L261.9,56.7h5.5
				c0.1-0.3,0.2-0.7,0.2-1l0,0c0-0.8-0.2-1.5-0.7-2c-0.4-0.5-1.2-0.8-2.1-0.8l0,0c-1.3,0-2.3,0.5-3.2,1.4c-0.9,0.9-1.3,2.1-1.3,3.5
				l0,0c0,1.5,0.4,2.7,1.2,3.4c0.8,0.8,1.8,1.2,2.9,1.2l0,0c0.8,0,1.6-0.2,2.3-0.7c0.7-0.4,1.2-1.1,1.6-2l0,0
				c-0.1-0.1-0.2-0.2-0.4-0.2l0,0c0,0-0.1,0.2-0.2,0.3c-0.1,0.2-0.2,0.3-0.3,0.4c-0.1,0.1-0.2,0.2-0.3,0.3c-0.2,0.1-0.3,0.3-0.5,0.3
				c-0.1,0.1-0.3,0.1-0.5,0.2c-0.2,0.1-0.5,0.1-0.7,0.1l0,0c-1,0-1.9-0.3-2.5-0.9c-0.6-0.6-0.9-1.4-1-2.5l0,0
				C261.9,57.5,261.9,57.1,261.9,56.7z M267.8,59L267.8,59c0.4,0.1,0.8,0.3,1,0.6l0,0c-0.4,1.1-1,1.8-1.8,2.4
				c-0.8,0.5-1.7,0.8-2.6,0.8l0,0c-1.2,0-2.3-0.4-3.2-1.3c-0.9-0.8-1.4-2.1-1.4-3.7l0,0c0-1.5,0.5-2.8,1.4-3.8
				c0.9-1,2.2-1.5,3.9-1.5l0,0c2.6,0,3.8,1.1,3.8,3.2l0,0c0,0.4-0.1,0.9-0.3,1.5l0,0h-5.4v0.7c0,0.8,0.3,1.5,0.7,2
				c0.4,0.5,1,0.8,1.7,0.9l0,0c0.4,0,0.8-0.2,1.1-0.4C267,60,267.4,59.6,267.8,59z M265.7,55.4L265.7,55.4c0-0.7-0.2-1.2-0.7-1.3
				l0,0c-0.6,0.2-1,0.7-1.3,1.6l0,0h2.1c0,0,0-0.1,0-0.1C265.7,55.5,265.7,55.4,265.7,55.4z M277.6,61.6L277.6,61.6
				c-0.1,0.2-0.1,0.3,0,0.5l0,0c1.8,0,3.5,0,5.3,0l0,0c0.1-0.2,0.1-0.3,0-0.5l0,0c-1.6-0.1-2.5-0.4-2.5-1l0,0l-0.1-5.1
				c0-0.9-0.2-1.6-0.4-2c-0.3-0.4-0.7-0.6-1.4-0.6l0,0c-1.1,0-2.4,0.8-4,2.3l0,0v-2c-0.1-0.1-0.2-0.2-0.4-0.3l0,0
				c-0.9,0.4-1.9,0.7-2.9,0.8l0,0c0,0.2,0,0.3,0,0.5l0,0c0.8,0,1.3,0.2,1.7,0.4l0,0c0.1,2,0.1,4,0,6l0,0c0,0.5-0.6,0.8-1.7,1l0,0
				c-0.1,0.2-0.1,0.3,0,0.5l0,0c1.8-0.1,3.5-0.1,5.3,0l0,0c0.1-0.2,0.1-0.3,0-0.5l0,0c-1.3-0.1-1.9-0.5-1.9-1l0,0
				c-0.1-1.4-0.1-3-0.1-4.8l0,0c1.4-1.2,2.4-1.8,3.2-1.8l0,0c0.7,0,1.1,0.6,1.1,1.8l0,0l0,4.7c0,0.3-0.1,0.6-0.3,0.7
				C278.2,61.5,277.9,61.6,277.6,61.6z M277.3,62.5L277.3,62.5c-0.2-0.4-0.2-0.8,0-1.2l0,0c0.2,0,0.4-0.1,0.7-0.2
				c0.2-0.1,0.3-0.3,0.3-0.4l0,0l0-4.7c0-0.7-0.1-1.2-0.4-1.3l0,0c-0.5,0.1-1.2,0.5-2,1.1l0,0c0,1.9,0,3.5,0.1,5l0,0
				c0,0.4,0.3,0.6,0.8,0.6l0,0c0.2,0.4,0.2,0.8,0,1.2l0,0c-2-0.1-4-0.1-5.9,0l0,0c-0.2-0.4-0.2-0.8,0-1.2l0,0
				c1.1-0.1,1.7-0.4,1.7-0.6l0,0c0.1-1.9,0.1-3.8,0-5.7l0,0c-0.5-0.1-1-0.2-1.7-0.3l0,0c-0.2-0.4-0.2-0.8,0-1.3l0,0
				c1-0.1,2.2-0.4,3.4-0.9l0,0c0.7,0.1,1.3,0.3,1.6,0.7l0,0v0.3c1-0.6,2.1-0.9,3.3-0.9l0,0c0.9,0,1.6,0.2,1.9,0.7
				c0.4,0.5,0.6,1.3,0.6,2.3l0,0c0,2.7,0.1,4.4,0.1,5.1l0,0c0,0.3,0.5,0.5,1.4,0.6l0,0c0.2,0.4,0.1,0.9,0,1.2l0,0
				C281.2,62.4,279.2,62.4,277.3,62.5z M294.3,47.9L294.3,47.9L294.3,47.9c0.4,0,1,0,1.6,0l0,0c1,0,1.8,0.3,2.3,0.9
				c0.5,0.6,0.8,1.5,0.8,2.5l0,0c0,1-0.2,1.9-0.7,2.7c-0.5,0.7-1.3,1.1-2.3,1.1l0,0c-0.6,0-1.2-0.1-1.8-0.2l0,0
				C294.2,52.5,294.3,50.2,294.3,47.9z M298.7,51.3L298.7,51.3c0-0.9-0.3-1.6-0.8-2.2c-0.5-0.6-1.2-0.9-2.1-0.8l0,0
				c-0.1,2.6-0.1,4.7-0.1,6.2l0,0c0.1,0,0.3,0.1,0.6,0.1l0,0c0.8-0.1,1.4-0.5,1.7-1.1C298.5,52.9,298.7,52.1,298.7,51.3z
				 M292.4,60.7L292.4,60.7c0,0.5-0.8,0.8-2.3,1l0,0c-0.1,0.1-0.1,0.3,0,0.5l0,0c1.1,0,2.3-0.1,3.5-0.1l0,0c1.4,0,2.8,0,4.1,0.1l0,0
				c0.1-0.1,0.1-0.3,0-0.5l0,0c-2.2-0.1-3.4-0.5-3.4-1l0,0c-0.1-1.9-0.1-3.6-0.1-5.1l0,0c0.8,0.2,1.5,0.2,2.1,0.2l0,0
				c1.1,2.1,2.6,4.1,4.4,6.2l0,0c0.3,0,0.8,0,1.5,0c0.7,0,1.2,0,1.8,0c0.5,0,1,0,1.5,0l0,0c0.1-0.1,0.1-0.3,0-0.5l0,0
				c-1.1-0.1-2-0.4-2.8-0.8c-0.8-0.5-1.6-1.3-2.7-2.6l0,0c-0.7-0.9-1.3-1.8-1.9-2.8l0,0c1-0.3,1.8-0.9,2.4-1.6
				c0.6-0.8,0.9-1.6,0.9-2.6l0,0c0-1.2-0.4-2.2-1.2-2.9c-0.8-0.8-1.9-1.1-3.2-1.1l0,0c-4.6,0.1-6.8,0.1-6.9,0l0,0c0,0.2,0,0.3,0,0.5
				l0,0c1.6,0.1,2.3,0.5,2.3,1l0,0c0.1,1.6,0.1,3.5,0.1,5.6l0,0C292.5,56.5,292.5,58.6,292.4,60.7z M292,60.7L292,60.7
				c0.1-1.7,0.1-3.8,0.1-6.4l0,0c0-2.2,0-4-0.1-5.6l0,0c0-0.2-0.8-0.4-2.2-0.6l0,0c-0.1-0.4-0.1-0.9,0-1.3l0,0
				c0.7,0,1.5,0.1,2.4,0.1s1.9,0,3,0c1.1,0,1.9,0,2.5,0l0,0c1.6,0,2.9,0.4,3.8,1.2c0.9,0.8,1.4,1.9,1.4,3.2l0,0
				c0,0.9-0.3,1.8-0.8,2.6c-0.5,0.8-1.3,1.4-2.2,1.8l0,0c0.5,0.7,1,1.5,1.6,2.3l0,0c0.7,0.9,1.4,1.7,2.1,2.3c0.7,0.6,1.5,0.9,2.3,1
				l0,0c0.1,0.4,0.1,0.9,0,1.3l0,0c-1,0-2.7-0.1-5.3-0.1l0,0c-1.9-2.2-3.4-4.3-4.4-6.2l0,0h-0.3c0,1.3,0,2.7,0.1,4.4l0,0
				c0,0,0,0.1,0.1,0.1c0,0,0.2,0.1,0.4,0.2c0.2,0.1,0.6,0.2,1,0.2c0.5,0.1,0.7,0.1,0.8,0.1l0,0c0.1,0.4,0.1,0.8-0.1,1.2l0,0
				c-2.5-0.1-4-0.1-4.5-0.1l0,0c-0.4,0-1.6,0-3.8,0.1l0,0c-0.2-0.5-0.2-0.9,0-1.3l0,0C291.2,61.1,292,60.9,292,60.7z M311.6,53.6
				L311.6,53.6c0.7,0,1.2,0.3,1.6,1c0.4,0.7,0.6,1.7,0.6,3.1l0,0c0,1.4-0.2,2.4-0.6,3.1c-0.4,0.7-1,1-1.6,1l0,0
				c-0.4,0-0.7-0.1-1-0.2c-0.3-0.2-0.6-0.4-0.8-0.7c-0.2-0.3-0.4-0.8-0.5-1.3c-0.1-0.5-0.2-1.1-0.2-1.8l0,0c0-0.7,0.1-1.3,0.2-1.8
				c0.1-0.5,0.3-0.9,0.5-1.3c0.2-0.3,0.5-0.6,0.8-0.7C310.8,53.6,311.2,53.6,311.6,53.6z M311.6,62.4L311.6,62.4
				c0.6,0,1.2-0.1,1.7-0.4c0.5-0.2,0.9-0.6,1.3-1c0.4-0.4,0.6-0.9,0.8-1.5c0.2-0.6,0.3-1.2,0.3-1.9l0,0c0-0.7-0.1-1.3-0.3-1.9
				c-0.2-0.6-0.5-1.1-0.8-1.5c-0.4-0.4-0.8-0.7-1.3-1c-0.5-0.2-1.1-0.4-1.7-0.4l0,0c-0.7,0-1.3,0.1-1.8,0.4c-0.5,0.2-1,0.6-1.4,1
				c-0.4,0.4-0.7,0.9-0.9,1.5c-0.2,0.6-0.3,1.2-0.3,1.9l0,0c0,0.7,0.1,1.3,0.3,1.9c0.2,0.6,0.5,1.1,0.9,1.5c0.4,0.4,0.8,0.7,1.4,1
				C310.3,62.3,310.9,62.4,311.6,62.4z M311.9,52.5L311.9,52.5c0.8,0,1.5,0.1,2.2,0.4c0.6,0.2,1.2,0.6,1.6,1.1c0.4,0.5,0.8,1,1,1.6
				c0.2,0.6,0.3,1.3,0.3,2.1l0,0c0,0.8-0.1,1.4-0.3,2.1c-0.2,0.6-0.6,1.2-1,1.6c-0.4,0.5-1,0.8-1.6,1.1c-0.6,0.3-1.4,0.4-2.2,0.4
				l0,0c-0.8,0-1.5-0.1-2.2-0.4c-0.6-0.3-1.2-0.6-1.6-1.1c-0.4-0.5-0.8-1-1-1.6c-0.2-0.6-0.3-1.3-0.3-2.1l0,0c0-0.8,0.1-1.5,0.3-2.1
				c0.2-0.6,0.6-1.2,1-1.6c0.4-0.5,1-0.8,1.6-1.1C310.4,52.6,311.1,52.5,311.9,52.5z M310.4,57.6L310.4,57.6c0,2.2,0.5,3.4,1.5,3.6
				l0,0c1-0.2,1.5-1.4,1.5-3.6l0,0c0-2.2-0.5-3.4-1.5-3.6l0,0C310.9,54.3,310.4,55.5,310.4,57.6z M320.6,62.2L320.6,62.2
				c-0.3,0.1-0.6,0.2-1,0.4l0,0c-0.3-0.2-0.5-0.4-0.6-0.6l0,0c0,0,0-0.2,0.1-0.4c0-0.2,0.1-0.5,0.1-0.8c0-0.3,0.1-0.6,0.1-1
				c0-0.3,0-0.6,0-0.9l0,0c0.3-0.1,0.8-0.2,1.5-0.2l0,0c0.1,0,0.1,0,0.2,0c0.1,0,0.2,0,0.2,0l0,0c0.5,1.6,1.1,2.4,2,2.6l0,0
				c0.3-0.1,0.6-0.2,0.8-0.4c0.2-0.2,0.3-0.4,0.3-0.7l0,0c0-0.2-0.1-0.4-0.1-0.5c-0.1-0.2-0.2-0.3-0.4-0.4c-0.2-0.1-0.4-0.3-0.6-0.4
				c-0.2-0.1-0.5-0.2-0.7-0.3c-0.2-0.1-0.5-0.2-0.8-0.3c-0.3-0.1-0.5-0.2-0.7-0.3l0,0c-0.2-0.1-0.5-0.3-0.7-0.4
				c-0.2-0.2-0.4-0.4-0.6-0.6c-0.2-0.2-0.3-0.4-0.4-0.7c-0.1-0.3-0.1-0.5-0.1-0.8l0,0c0-0.3,0.1-0.6,0.2-1c0.1-0.3,0.3-0.7,0.6-0.9
				c0.3-0.3,0.6-0.5,1.1-0.7c0.4-0.2,1-0.3,1.7-0.3l0,0c0.7,0,1.3,0,1.7,0.1l0,0l0.4-0.1h0.7c0.1,0.6,0.2,1.1,0.3,1.6
				c0.1,0.5,0.3,1,0.4,1.4l0,0c-0.3,0.3-0.6,0.4-1,0.4l0,0c-0.2-0.3-0.4-0.5-0.6-0.7c-0.2-0.2-0.4-0.4-0.6-0.6
				c-0.2-0.2-0.3-0.3-0.5-0.4c-0.2-0.1-0.3-0.2-0.5-0.2l0,0c-0.4,0.1-0.7,0.3-0.7,0.6l0,0c0,0.3,0.1,0.5,0.3,0.7
				c0.2,0.2,0.5,0.4,0.9,0.5c0.3,0.2,0.7,0.3,1.1,0.5c0.4,0.1,0.8,0.3,1.2,0.5l0,0c0.3,0.1,0.5,0.3,0.7,0.4c0.2,0.2,0.4,0.4,0.6,0.6
				c0.2,0.2,0.3,0.5,0.4,0.8c0.1,0.3,0.1,0.6,0.1,0.9l0,0c0,0.5-0.1,0.9-0.4,1.3c-0.3,0.4-0.6,0.7-1,1c-0.4,0.3-0.9,0.5-1.4,0.6
				c-0.5,0.1-1.1,0.2-1.6,0.2l0,0C322,62.8,321.2,62.6,320.6,62.2z M322.9,62.4L322.9,62.4c0.8,0,1.6-0.2,2.2-0.7
				c0.6-0.5,0.9-1.1,0.9-1.7l0,0c0-0.6-0.2-1.1-0.6-1.6c-0.4-0.4-0.8-0.8-1.3-1c-0.5-0.2-1.1-0.5-1.6-0.7c-0.5-0.2-1-0.4-1.4-0.7
				c-0.4-0.3-0.6-0.6-0.6-1l0,0c0-0.5,0.2-0.8,0.5-1.1c0.4-0.2,0.8-0.4,1.2-0.4l0,0c0.5,0,0.9,0.2,1.3,0.5c0.4,0.3,0.9,0.8,1.4,1.5
				l0,0c0.2,0,0.3,0,0.4-0.1l0,0c-0.2-0.7-0.6-1.3-1.1-1.8c-0.5-0.5-1.1-0.7-1.9-0.7l0,0c-1.1,0-1.9,0.3-2.3,0.8
				c-0.5,0.5-0.7,1.1-0.7,1.7l0,0c0,0.5,0.2,1,0.5,1.4c0.4,0.4,0.8,0.7,1.3,0.9c0.5,0.2,1,0.4,1.5,0.6c0.5,0.2,0.9,0.5,1.3,0.8
				c0.4,0.3,0.5,0.7,0.5,1.2l0,0c0,0.4-0.2,0.7-0.5,1c-0.3,0.3-0.8,0.5-1.4,0.5l0,0c-0.7,0-1.3-0.2-1.7-0.7c-0.4-0.5-0.7-1.1-1-1.9
				l0,0c-0.2,0-0.4,0-0.5,0.1l0,0c0,0.5,0,1-0.1,1.7c0,0.6-0.1,1-0.1,1.1l0,0c0,0.1,0.1,0.1,0.2,0.2l0,0c0.3-0.2,0.5-0.4,0.6-0.6
				l0,0c0.6,0.3,1.1,0.5,1.4,0.7C322,62.3,322.4,62.4,322.9,62.4z M330.7,62.2L330.7,62.2c-0.3,0.1-0.6,0.2-1,0.4l0,0
				c-0.3-0.2-0.5-0.4-0.6-0.6l0,0c0,0,0-0.2,0.1-0.4c0-0.2,0.1-0.5,0.1-0.8c0-0.3,0.1-0.6,0.1-1c0-0.3,0-0.6,0-0.9l0,0
				c0.3-0.1,0.8-0.2,1.5-0.2l0,0c0.1,0,0.1,0,0.2,0c0.1,0,0.2,0,0.2,0l0,0c0.5,1.6,1.1,2.4,2,2.6l0,0c0.3-0.1,0.6-0.2,0.8-0.4
				c0.2-0.2,0.3-0.4,0.3-0.7l0,0c0-0.2-0.1-0.4-0.2-0.5c-0.1-0.2-0.2-0.3-0.4-0.4c-0.2-0.1-0.4-0.3-0.6-0.4
				c-0.2-0.1-0.5-0.2-0.7-0.3c-0.2-0.1-0.5-0.2-0.8-0.3c-0.3-0.1-0.5-0.2-0.7-0.3l0,0c-0.2-0.1-0.5-0.3-0.7-0.4
				c-0.2-0.2-0.4-0.4-0.6-0.6c-0.2-0.2-0.3-0.4-0.4-0.7c-0.1-0.3-0.1-0.5-0.1-0.8l0,0c0-0.3,0.1-0.6,0.2-1c0.1-0.3,0.3-0.7,0.6-0.9
				c0.3-0.3,0.6-0.5,1.1-0.7c0.4-0.2,1-0.3,1.7-0.3l0,0c0.7,0,1.3,0,1.7,0.1l0,0l0.4-0.1h0.7c0.1,0.6,0.2,1.1,0.3,1.6
				c0.1,0.5,0.3,1,0.4,1.4l0,0c-0.3,0.3-0.6,0.4-1,0.4l0,0c-0.2-0.3-0.4-0.5-0.6-0.7c-0.2-0.2-0.4-0.4-0.6-0.6
				c-0.2-0.2-0.4-0.3-0.5-0.4c-0.2-0.1-0.3-0.2-0.5-0.2l0,0c-0.4,0.1-0.7,0.3-0.7,0.6l0,0c0,0.3,0.1,0.5,0.3,0.7
				c0.2,0.2,0.5,0.4,0.9,0.5c0.3,0.2,0.7,0.3,1.1,0.5c0.4,0.1,0.8,0.3,1.2,0.5l0,0c0.3,0.1,0.5,0.3,0.7,0.4c0.2,0.2,0.4,0.4,0.6,0.6
				c0.2,0.2,0.3,0.5,0.4,0.8s0.1,0.6,0.1,0.9l0,0c0,0.5-0.1,0.9-0.4,1.3c-0.3,0.4-0.6,0.7-1,1c-0.4,0.3-0.9,0.5-1.4,0.6
				c-0.5,0.1-1.1,0.2-1.6,0.2l0,0C332.1,62.8,331.3,62.6,330.7,62.2z M333,62.4L333,62.4c0.8,0,1.6-0.2,2.2-0.7
				c0.6-0.5,0.9-1.1,0.9-1.7l0,0c0-0.6-0.2-1.1-0.6-1.6c-0.4-0.4-0.8-0.8-1.3-1c-0.5-0.2-1.1-0.5-1.6-0.7c-0.5-0.2-1-0.4-1.4-0.7
				c-0.4-0.3-0.6-0.6-0.6-1l0,0c0-0.5,0.2-0.8,0.5-1.1c0.4-0.2,0.8-0.4,1.2-0.4l0,0c0.5,0,0.9,0.2,1.3,0.5c0.4,0.3,0.9,0.8,1.4,1.5
				l0,0c0.2,0,0.3,0,0.4-0.1l0,0c-0.2-0.7-0.6-1.3-1.1-1.8c-0.5-0.5-1.1-0.7-1.9-0.7l0,0c-1.1,0-1.9,0.3-2.3,0.8
				c-0.5,0.5-0.7,1.1-0.7,1.7l0,0c0,0.5,0.2,1,0.5,1.4c0.4,0.4,0.8,0.7,1.3,0.9c0.5,0.2,1,0.4,1.5,0.6c0.5,0.2,0.9,0.5,1.3,0.8
				c0.4,0.3,0.5,0.7,0.5,1.2l0,0c0,0.4-0.2,0.7-0.5,1c-0.3,0.3-0.8,0.5-1.4,0.5l0,0c-0.7,0-1.3-0.2-1.7-0.7c-0.4-0.5-0.7-1.1-1-1.9
				l0,0c-0.2,0-0.4,0-0.5,0.1l0,0c0,0.5,0,1-0.1,1.7c0,0.6-0.1,1-0.1,1.1l0,0c0,0.1,0.1,0.1,0.2,0.2l0,0c0.3-0.2,0.5-0.4,0.6-0.6
				l0,0c0.6,0.3,1.1,0.5,1.4,0.7C332.1,62.3,332.5,62.4,333,62.4z M346.7,43.7h-1.2v23.2h1.2V43.7z M347.8,67.3h-2.7v-24h2.7V67.3z
				 M361.1,60.7L361.1,60.7v-6.8c0-0.3,0.2-0.6,0.7-0.7c0.4-0.1,1-0.2,1.8-0.3l0,0c0.1-0.2,0.1-0.3,0-0.5l0,0h-6.1
				c-0.1,0.2-0.1,0.3,0,0.5l0,0c0.3,0,0.5,0.1,0.6,0.1c0.1,0,0.3,0.1,0.5,0.1c0.3,0.1,0.4,0.2,0.6,0.3c0.1,0.1,0.2,0.3,0.2,0.4l0,0
				c0.1,2.3,0.1,4.6,0,6.8l0,0c0,0.2-0.1,0.3-0.2,0.4c-0.1,0.1-0.3,0.2-0.6,0.3c-0.3,0.1-0.4,0.1-0.5,0.1c-0.1,0-0.3,0.1-0.6,0.1
				l0,0c-0.1,0.2-0.1,0.3,0,0.5l0,0h6.1c0.1-0.2,0.1-0.3,0-0.5l0,0c-0.8,0-1.4-0.1-1.8-0.3C361.4,61.3,361.1,61,361.1,60.7z
				 M358.9,60.7L358.9,60.7c0.1-2.2,0.1-4.5,0-6.8l0,0c0-0.2-0.6-0.5-1.8-0.6l0,0c-0.1-0.4-0.1-0.8,0-1.2l0,0h6.9
				c0.1,0.4,0.1,0.8,0,1.2l0,0c-0.9,0.1-1.4,0.4-1.4,0.6l0,0c-0.1,2.1-0.1,4.4,0,6.8l0,0c0,0.3,0.5,0.5,1.4,0.6l0,0
				c0.1,0.4,0.1,0.8,0,1.2l0,0h-6.9c-0.1-0.4-0.1-0.8,0-1.2l0,0C358.3,61.1,358.9,60.9,358.9,60.7z M370.6,67.3L370.6,67.3
				c-0.7,0-1.3-0.1-1.8-0.3c-0.5-0.2-0.9-0.5-1.2-0.8c-0.3-0.3-0.5-0.6-0.7-1c-0.1-0.3-0.2-0.6-0.2-0.9l0,0c0-0.3,0-0.5,0.1-0.7
				c0.1-0.2,0.2-0.4,0.4-0.6c0.2-0.2,0.3-0.3,0.5-0.4c0.2-0.1,0.4-0.1,0.7-0.1l0,0c1,0,1.5,0.5,1.5,1.5l0,0c0,0.7-0.3,1.2-1,1.5l0,0
				c0.4,0.2,1,0.3,1.7,0.3l0,0c0.3,0,0.7-0.1,1-0.3c0.3-0.2,0.6-0.5,0.8-0.8c0.2-0.3,0.4-0.8,0.5-1.2c0.1-0.5,0.2-1,0.2-1.5l0,0
				c0-1.4-0.5-2.2-1.6-2.3l0,0c-0.5,0.1-0.9,0.2-1.5,0.4l0,0h-0.7l-0.6-1.3l2-1c0.6-0.3,1.1-0.7,1.4-1.1c0.3-0.5,0.5-1,0.5-1.6l0,0
				c0-0.2,0-0.3-0.1-0.5c-0.1-0.2-0.2-0.3-0.3-0.4c-0.1-0.1-0.3-0.2-0.4-0.3c-0.2-0.1-0.4-0.1-0.6-0.1l0,0c-0.2,0-0.4,0-0.6,0.1
				c-0.2,0.1-0.4,0.1-0.5,0.3c-0.2,0.1-0.3,0.2-0.4,0.4c-0.1,0.2-0.1,0.3-0.1,0.5l0,0c0,0.6,0.2,1.2,0.5,1.6l0,0
				c-0.2,0.4-0.5,0.7-1,0.7l0,0c-0.9-0.6-1.4-1.4-1.4-2.5l0,0c0-0.5,0.1-0.9,0.3-1.3c0.2-0.4,0.4-0.7,0.8-1c0.3-0.3,0.8-0.5,1.3-0.7
				s1.1-0.2,1.7-0.2l0,0c3.2,0,4.8,1.1,4.8,3.3l0,0c0,0.6-0.2,1.1-0.5,1.6c-0.3,0.5-0.8,0.9-1.4,1.3l0,0c1.6,0.6,2.4,1.8,2.4,3.7
				l0,0c0,1.6-0.6,2.9-1.9,4l0,0C373.8,66.8,372.3,67.3,370.6,67.3z M370.6,66.2L370.6,66.2c-0.8,0-1.5-0.2-2-0.6
				c-0.5-0.4-0.7-0.8-0.7-1.3l0,0c0-0.5,0.2-0.8,0.5-0.9l0,0c0.1-0.1,0.1-0.3,0-0.5l0,0c-0.4,0-0.7,0.1-0.9,0.4
				c-0.2,0.3-0.3,0.6-0.3,1.1l0,0c0,0.6,0.3,1.1,1,1.7c0.6,0.5,1.5,0.8,2.5,0.8l0,0c1.2,0,2.3-0.5,3.3-1.5c1.1-1,1.6-2.2,1.6-3.7
				l0,0c0-1.2-0.3-2-0.9-2.6c-0.6-0.6-1.4-0.9-2.2-1l0,0V58c0.7-0.2,1.3-0.6,1.8-1.2c0.5-0.6,0.8-1.2,0.8-1.8l0,0
				c0-1-0.3-1.7-0.9-2.2c-0.6-0.5-1.4-0.7-2.5-0.7l0,0c-1.2,0-2.1,0.3-2.7,0.8c-0.6,0.5-0.9,1.2-0.9,2l0,0c0,0.9,0.4,1.6,1.1,2.1
				l0,0c0.2,0,0.3-0.1,0.4-0.3l0,0c-0.4-0.4-0.5-0.9-0.5-1.6l0,0c0-0.5,0.2-0.9,0.6-1.2c0.4-0.3,0.9-0.5,1.7-0.5l0,0
				c0.5,0,1,0.2,1.3,0.5c0.3,0.3,0.5,0.7,0.5,1.2l0,0c0,1.4-0.7,2.4-2.1,3.1l0,0l-1.7,0.8l0.2,0.6c0.6-0.2,1.1-0.4,1.6-0.4l0,0
				c0.7,0,1.3,0.2,1.7,0.6c0.5,0.4,0.7,1.1,0.7,2.1l0,0c0,1.3-0.3,2.3-0.8,3.1C372.2,65.9,371.5,66.2,370.6,66.2z M388.9,53.7
				L388.9,53.7L389,48c0.6,0,1-0.1,1.3-0.1l0,0c1,0,1.7,0.2,2.3,0.6s0.8,1.1,0.8,2l0,0C393.4,52.7,391.9,53.7,388.9,53.7z M389,61.4
				L389,61.4l-0.1-7.1c0.5,0,1.1-0.1,1.6-0.1l0,0c1.4,0,2.6,0.3,3.5,0.8c0.9,0.5,1.3,1.4,1.3,2.5l0,0c0,0.7-0.1,1.2-0.4,1.7
				c-0.2,0.5-0.6,0.9-0.9,1.1c-0.4,0.3-0.9,0.5-1.5,0.6c-0.6,0.2-1.1,0.2-1.6,0.3C390.3,61.4,389.7,61.4,389,61.4z M390.4,54.7
				l0.1,6.3c0.6,0,1.1-0.1,1.6-0.2s0.9-0.3,1.3-0.5c0.4-0.2,0.7-0.6,1-1c0.2-0.4,0.3-1,0.3-1.6l0,0c0-0.7-0.2-1.3-0.7-1.8
				s-1-0.8-1.7-1C391.7,54.7,391.1,54.6,390.4,54.7L390.4,54.7z M390.5,48.3L390.5,48.3l-0.1,4.9c1.7-0.3,2.5-1.1,2.5-2.7l0,0
				C393,49.2,392.2,48.4,390.5,48.3z M384.7,62.1L384.7,62.1c1.3,0,2.9-0.1,4.7-0.1l0,0c0.6,0,1.1,0,1.6,0c0.5,0,1.1-0.1,1.7-0.2
				c0.7-0.1,1.3-0.2,1.8-0.5c0.5-0.2,1-0.5,1.5-0.8c0.5-0.3,0.8-0.7,1.1-1.3c0.2-0.5,0.4-1.1,0.4-1.8l0,0c0-1.1-0.4-1.9-1.2-2.6
				c-0.8-0.7-1.8-1.1-3.1-1.3l0,0v-0.1c0.8-0.3,1.4-0.6,1.9-1.1c0.5-0.5,0.7-1.1,0.7-1.9l0,0c0-2.2-1.7-3.3-5.1-3.3l0,0
				c-0.3,0-0.7,0-1.3,0c-0.6,0-1.3,0-2.1,0c-0.8,0-1.6,0-2.6-0.1l0,0c-0.1,0.1-0.1,0.3,0,0.5l0,0c1.5,0.1,2.3,0.5,2.3,1l0,0
				c0.1,1.6,0.1,3.5,0.1,5.6l0,0c0,2.1,0,4.3-0.1,6.4l0,0c0,0.5-0.8,0.8-2.3,1l0,0C384.6,61.8,384.6,61.9,384.7,62.1z M384.4,46.8
				L384.4,46.8c1,0,1.9,0.1,2.8,0.1s1.7,0,2.5,0c0.8,0,1.4,0,1.7,0l0,0c0.6,0,1.1,0,1.5,0.1c0.5,0,1,0.1,1.5,0.3
				c0.6,0.2,1,0.4,1.4,0.6c0.4,0.3,0.7,0.6,1,1.1c0.3,0.5,0.4,1,0.4,1.7l0,0c0,1.2-0.7,2.2-2,2.9l0,0c1.1,0.3,2,0.8,2.7,1.5
				c0.7,0.7,1,1.5,1,2.5l0,0c0,0.7-0.1,1.2-0.3,1.8c-0.2,0.5-0.5,0.9-0.8,1.3c-0.3,0.3-0.8,0.6-1.3,0.9c-0.5,0.2-1,0.4-1.5,0.6
				c-0.5,0.1-1.1,0.2-1.7,0.3c-0.6,0.1-1.2,0.1-1.6,0.1c-0.5,0-1,0-1.5,0l0,0c-1.6,0-3.5,0-5.7,0.1l0,0c-0.2-0.5-0.2-0.9,0-1.3l0,0
				c1.5-0.1,2.2-0.3,2.2-0.6l0,0c0.1-2.1,0.1-4.2,0.1-6.4l0,0c0-2.2,0-4-0.1-5.6l0,0c0-0.2-0.8-0.4-2.2-0.6l0,0
				C384.3,47.7,384.3,47.2,384.4,46.8z M405.4,53.6L405.4,53.6c0.7,0,1.2,0.3,1.6,1c0.4,0.7,0.6,1.7,0.6,3.1l0,0
				c0,1.4-0.2,2.4-0.6,3.1c-0.4,0.7-1,1-1.6,1l0,0c-0.4,0-0.7-0.1-1-0.2c-0.3-0.2-0.6-0.4-0.8-0.7c-0.2-0.3-0.4-0.8-0.5-1.3
				c-0.1-0.5-0.2-1.1-0.2-1.8l0,0c0-0.7,0.1-1.3,0.2-1.8c0.1-0.5,0.3-0.9,0.5-1.3c0.2-0.3,0.5-0.6,0.8-0.7
				C404.7,53.6,405.1,53.6,405.4,53.6z M405.4,62.4L405.4,62.4c0.6,0,1.2-0.1,1.7-0.4c0.5-0.2,0.9-0.6,1.3-1
				c0.4-0.4,0.6-0.9,0.8-1.5c0.2-0.6,0.3-1.2,0.3-1.9l0,0c0-0.7-0.1-1.3-0.3-1.9c-0.2-0.6-0.5-1.1-0.8-1.5c-0.4-0.4-0.8-0.7-1.3-1
				c-0.5-0.2-1.1-0.4-1.7-0.4l0,0c-0.7,0-1.3,0.1-1.8,0.4c-0.5,0.2-1,0.6-1.4,1c-0.4,0.4-0.7,0.9-0.9,1.5c-0.2,0.6-0.3,1.2-0.3,1.9
				l0,0c0,0.7,0.1,1.3,0.3,1.9c0.2,0.6,0.5,1.1,0.9,1.5c0.4,0.4,0.8,0.7,1.4,1C404.2,62.3,404.8,62.4,405.4,62.4z M405.8,52.5
				L405.8,52.5c0.8,0,1.5,0.1,2.2,0.4c0.6,0.2,1.2,0.6,1.6,1.1c0.4,0.5,0.8,1,1,1.6c0.2,0.6,0.3,1.3,0.3,2.1l0,0
				c0,0.8-0.1,1.4-0.3,2.1s-0.6,1.2-1,1.6c-0.4,0.5-1,0.8-1.6,1.1c-0.6,0.3-1.4,0.4-2.2,0.4l0,0c-0.8,0-1.5-0.1-2.2-0.4
				c-0.6-0.3-1.2-0.6-1.6-1.1c-0.4-0.5-0.8-1-1-1.6c-0.2-0.6-0.3-1.3-0.3-2.1l0,0c0-0.8,0.1-1.5,0.3-2.1c0.2-0.6,0.6-1.2,1-1.6
				c0.4-0.5,1-0.8,1.6-1.1C404.3,52.6,405,52.5,405.8,52.5z M404.3,57.6L404.3,57.6c0,2.2,0.5,3.4,1.5,3.6l0,0
				c1-0.2,1.5-1.4,1.5-3.6l0,0c0-2.2-0.5-3.4-1.5-3.6l0,0C404.8,54.3,404.3,55.5,404.3,57.6z M419.5,61.6L419.5,61.6
				c-0.1,0.2-0.1,0.3,0,0.5l0,0c1.8,0,3.5,0,5.3,0l0,0c0.1-0.2,0.1-0.3,0-0.5l0,0c-1.6-0.1-2.5-0.4-2.5-1l0,0l-0.1-5.1
				c0-0.9-0.2-1.6-0.4-2c-0.3-0.4-0.7-0.6-1.4-0.6l0,0c-1.1,0-2.4,0.8-4,2.3l0,0v-2c-0.1-0.1-0.2-0.2-0.4-0.3l0,0
				c-0.9,0.4-1.9,0.7-2.9,0.8l0,0c0,0.2,0,0.3,0,0.5l0,0c0.8,0,1.3,0.2,1.7,0.4l0,0c0.1,2,0.1,4,0,6l0,0c0,0.5-0.6,0.8-1.7,1l0,0
				c-0.1,0.2-0.1,0.3,0,0.5l0,0c1.8-0.1,3.5-0.1,5.3,0l0,0c0.1-0.2,0.1-0.3,0-0.5l0,0c-1.3-0.1-1.9-0.5-1.9-1l0,0
				c-0.1-1.4-0.1-3-0.1-4.8l0,0c1.4-1.2,2.4-1.8,3.2-1.8l0,0c0.7,0,1.1,0.6,1.1,1.8l0,0l0,4.7c0,0.3-0.1,0.6-0.3,0.7
				C420.1,61.5,419.8,61.6,419.5,61.6z M419.1,62.5L419.1,62.5c-0.2-0.4-0.2-0.8,0-1.2l0,0c0.2,0,0.4-0.1,0.7-0.2
				c0.2-0.1,0.3-0.3,0.3-0.4l0,0l0-4.7c0-0.7-0.1-1.2-0.4-1.3l0,0c-0.5,0.1-1.2,0.5-2,1.1l0,0c0,1.9,0,3.5,0.1,5l0,0
				c0,0.4,0.3,0.6,0.8,0.6l0,0c0.2,0.4,0.2,0.8,0,1.2l0,0c-2-0.1-4-0.1-6,0l0,0c-0.2-0.4-0.2-0.8,0-1.2l0,0c1.1-0.1,1.7-0.4,1.7-0.6
				l0,0c0.1-1.9,0.1-3.8,0-5.7l0,0c-0.5-0.1-1-0.2-1.7-0.3l0,0c-0.2-0.4-0.2-0.8,0-1.3l0,0c1-0.1,2.2-0.4,3.4-0.9l0,0
				c0.7,0.1,1.3,0.3,1.6,0.7l0,0v0.3c1-0.6,2.1-0.9,3.3-0.9l0,0c0.9,0,1.6,0.2,1.9,0.7c0.4,0.5,0.6,1.3,0.6,2.3l0,0
				c0,2.7,0.1,4.4,0.1,5.1l0,0c0,0.3,0.5,0.5,1.4,0.6l0,0c0.2,0.4,0.1,0.9,0,1.2l0,0C423.1,62.4,421.1,62.4,419.1,62.5z M431.2,53.6
				L431.2,53.6c0.5,0,0.9,0.2,1.2,0.5c0.2,0.3,0.4,0.8,0.4,1.3l0,0c0,0.2,0,0.4-0.1,0.7l0,0h-3.9c0.2-0.8,0.5-1.5,1-1.9
				C430.2,53.8,430.7,53.6,431.2,53.6z M428.6,56.7L428.6,56.7h5.5c0.1-0.3,0.2-0.7,0.2-1l0,0c0-0.8-0.2-1.5-0.7-2
				c-0.4-0.5-1.2-0.8-2.1-0.8l0,0c-1.3,0-2.3,0.5-3.2,1.4c-0.9,0.9-1.3,2.1-1.3,3.5l0,0c0,1.5,0.4,2.7,1.2,3.4
				c0.8,0.8,1.8,1.2,2.9,1.2l0,0c0.8,0,1.6-0.2,2.3-0.7c0.7-0.4,1.2-1.1,1.6-2l0,0c-0.1-0.1-0.2-0.2-0.4-0.2l0,0
				c0,0-0.1,0.2-0.2,0.3c-0.1,0.2-0.2,0.3-0.3,0.4c-0.1,0.1-0.2,0.2-0.3,0.3c-0.2,0.1-0.3,0.3-0.5,0.3c-0.1,0.1-0.3,0.1-0.6,0.2
				c-0.2,0.1-0.5,0.1-0.7,0.1l0,0c-1,0-1.9-0.3-2.5-0.9c-0.6-0.6-0.9-1.4-1-2.5l0,0C428.6,57.5,428.6,57.1,428.6,56.7z M434.4,59
				L434.4,59c0.4,0.1,0.8,0.3,1,0.6l0,0c-0.4,1.1-1,1.8-1.8,2.4c-0.8,0.5-1.7,0.8-2.6,0.8l0,0c-1.2,0-2.3-0.4-3.2-1.3
				c-0.9-0.8-1.4-2.1-1.4-3.7l0,0c0-1.5,0.5-2.8,1.4-3.8c0.9-1,2.2-1.5,3.9-1.5l0,0c2.6,0,3.8,1.1,3.8,3.2l0,0
				c0,0.4-0.1,0.9-0.3,1.5l0,0H430v0.7c0,0.8,0.3,1.5,0.7,2c0.4,0.5,1,0.8,1.7,0.9l0,0c0.4,0,0.8-0.2,1-0.4
				C433.7,60,434,59.6,434.4,59z M432.3,55.4L432.3,55.4c0-0.7-0.2-1.2-0.7-1.3l0,0c-0.6,0.2-1,0.7-1.3,1.6l0,0h2c0,0,0-0.1,0-0.1
				C432.3,55.5,432.3,55.4,432.3,55.4z M438.6,53.1L438.6,53.1l-0.7,2.5c0.1,0.1,0.2,0.1,0.4,0.1l0,0l1-1.9c0.6-0.1,1.4-0.2,2.4-0.2
				l0,0h1.3l-5.3,8c0.1,0.2,0.2,0.3,0.3,0.4l0,0c1.2,0,2.4-0.1,3.6-0.1l0,0c0.4,0,0.8,0,1.1-0.1c0.3,0,0.7-0.2,1.1-0.3
				c0.4-0.2,0.8-0.5,1.2-1c0.3-0.5,0.6-1,0.8-1.7l0,0c-0.1-0.1-0.2-0.1-0.4-0.1l0,0c-0.3,0.5-0.5,0.8-0.6,1
				c-0.2,0.2-0.4,0.5-0.6,0.7c-0.3,0.3-0.5,0.4-0.9,0.5c-0.3,0.1-0.7,0.1-1.1,0.1l0,0h-2.5l5.2-7.9c0-0.1-0.1-0.2-0.2-0.4l0,0
				c-0.9,0.1-1.9,0.1-3,0.1l0,0C440.6,53.2,439.6,53.2,438.6,53.1z M438.5,56.2L438.5,56.2c-0.1,0-0.3,0-0.6-0.1
				c-0.2-0.1-0.4-0.2-0.5-0.3l0,0l0.9-3.1c2.4,0.1,5,0.1,7.6,0l0,0c0.3,0.3,0.4,0.6,0.4,0.9l0,0l-4.8,7.3h0.7c0.4,0,0.7,0,1-0.1
				c0.3-0.1,0.6-0.3,0.8-0.5c0.2-0.3,0.4-0.5,0.6-0.7c0.2-0.2,0.4-0.6,0.6-1l0,0c0.3,0,0.7,0.1,1.1,0.3l0,0l-0.8,3.8
				c-2.5-0.1-3.9-0.1-4.2-0.1l0,0c-1.8,0-3,0-3.5,0.1l0,0c-0.3-0.2-0.5-0.5-0.6-0.9l0,0l5-7.5c-0.7,0-1.4,0.2-2.2,0.6
				C439.3,55.1,438.8,55.6,438.5,56.2z"/>
		</g>
	</g>
	<g transform="rotate(0 0 53.1529)">
		<path class="st2" d="M2.2,54.2L2.2,54.2c0.6,0,1.2,0.5,1.2,1.2l0,0c0,0.6-0.5,1.2-1.2,1.2l0,0C1.5,56.5,1,56,1,55.3l0,0
			C1,54.7,1.5,54.2,2.2,54.2z"/>
	</g>
	<g transform="rotate(0 470.3068 53.1529)">
		<path class="st2" d="M472.5,54.2L472.5,54.2c0.6,0,1.2,0.5,1.2,1.2l0,0c0,0.6-0.5,1.2-1.2,1.2l0,0c-0.6,0-1.2-0.5-1.2-1.2l0,0
			C471.3,54.7,471.8,54.2,472.5,54.2z"/>
	</g>
</g>
</svg>
