<?xml version="1.0" encoding="utf-8"?>
<!-- Generator: Adobe Illustrator 24.2.1, SVG Export Plug-In . SVG Version: 6.00 Build 0)  -->
<svg version="1.1" id="Layer_1" xmlns="http://www.w3.org/2000/svg" xmlns:xlink="http://www.w3.org/1999/xlink" x="0px" y="0px"
	 viewBox="0 0 537.5 150" style="enable-background:new 0 0 537.5 150;" xml:space="preserve">
<style type="text/css">
	.st0{fill:#353535;}
	.st1{fill:#E5E5E5;}
	.st2{fill:#E9E41D;}
</style>
<g>
	<g transform="rotate(0 155.8529 0)">
		<g transform="matrix(1 0 0 1 0 0)">
			<g>
				<circle class="st0" cx="263.9" cy="1.9" r="1.9"/>
				<circle class="st0" cx="263.9" cy="11.7" r="2.2"/>
				<circle class="st0" cx="263.9" cy="21.4" r="2.5"/>
				<circle class="st0" cx="263.9" cy="31.2" r="2.8"/>
				<circle class="st0" cx="263.9" cy="40.9" r="3.1"/>
				<circle class="st0" cx="263.9" cy="50.7" r="3.4"/>
				<circle class="st0" cx="263.9" cy="60.5" r="3.7"/>
				<circle class="st0" cx="254.3" cy="1.9" r="1.9"/>
				<circle class="st0" cx="254.3" cy="11.7" r="2.2"/>
				<circle class="st0" cx="254.3" cy="21.4" r="2.5"/>
				<circle class="st0" cx="254.3" cy="31.2" r="2.8"/>
				<circle class="st0" cx="254.3" cy="40.9" r="3.1"/>
				<circle class="st0" cx="254.3" cy="50.7" r="3.4"/>
				<circle class="st0" cx="254.3" cy="148.1" r="1.9"/>
				<circle class="st0" cx="254.3" cy="138.5" r="2.2"/>
				<circle class="st0" cx="254.3" cy="128.7" r="2.5"/>
				<circle class="st0" cx="254.3" cy="119" r="2.8"/>
				<circle class="st0" cx="254.3" cy="109.2" r="3.1"/>
				<circle class="st0" cx="254.3" cy="99.5" r="3.4"/>
				<circle class="st0" cx="263.9" cy="148.1" r="1.9"/>
				<circle class="st0" cx="263.9" cy="138.5" r="2.2"/>
				<circle class="st0" cx="263.9" cy="128.7" r="2.5"/>
				<circle class="st0" cx="263.9" cy="119" r="2.8"/>
				<circle class="st0" cx="263.9" cy="109.2" r="3.1"/>
				<circle class="st0" cx="263.9" cy="99.5" r="3.4"/>
				<circle class="st0" cx="254.3" cy="60.5" r="3.7"/>
				<circle class="st0" cx="263.9" cy="69.7" r="3.7"/>
				<circle class="st0" cx="254.3" cy="69.7" r="3.7"/>
				<circle class="st0" cx="263.9" cy="78.9" r="3.7"/>
				<circle class="st0" cx="254.3" cy="78.9" r="3.7"/>
				<circle class="st0" cx="263.9" cy="88.9" r="3.7"/>
				<circle class="st0" cx="273.5" cy="1.9" r="1.9"/>
				<circle class="st0" cx="273.5" cy="11.7" r="2.2"/>
				<circle class="st0" cx="273.5" cy="21.4" r="2.5"/>
				<circle class="st0" cx="273.5" cy="31.2" r="2.8"/>
				<circle class="st0" cx="273.5" cy="40.9" r="3.1"/>
				<circle class="st0" cx="273.5" cy="50.7" r="3.4"/>
				<circle class="st0" cx="273.4" cy="60.5" r="3.7"/>
				<circle class="st0" cx="273.5" cy="148.1" r="1.9"/>
				<circle class="st0" cx="273.5" cy="138.5" r="2.2"/>
				<circle class="st0" cx="273.5" cy="128.7" r="2.5"/>
				<circle class="st0" cx="273.5" cy="119" r="2.8"/>
				<circle class="st0" cx="273.5" cy="109.2" r="3.1"/>
				<circle class="st0" cx="273.5" cy="99.5" r="3.4"/>
				<circle class="st0" cx="273.4" cy="69.7" r="3.7"/>
				<circle class="st0" cx="273.4" cy="78.9" r="3.7"/>
				<circle class="st0" cx="273.4" cy="88.9" r="3.7"/>
				<circle class="st0" cx="283.5" cy="138.5" r="2.2"/>
				<circle class="st0" cx="283.5" cy="128.7" r="2.5"/>
				<circle class="st0" cx="283.5" cy="119" r="2.8"/>
				<circle class="st0" cx="283.5" cy="109.2" r="3.1"/>
				<circle class="st0" cx="293.1" cy="70" r="3.1"/>
				<circle class="st0" cx="302.8" cy="70" r="2.9"/>
				<circle class="st0" cx="312.5" cy="70" r="2.7"/>
				<circle class="st0" cx="322.3" cy="70" r="2.4"/>
				<circle class="st0" cx="332" cy="70" r="2.2"/>
				<circle class="st0" cx="341.7" cy="70" r="1.9"/>
				<circle class="st0" cx="351.5" cy="70" r="1.7"/>
				<circle class="st0" cx="361.2" cy="70" r="1.5"/>
				<circle class="st0" cx="370.9" cy="70" r="1.2"/>
				<circle class="st0" cx="380.7" cy="70" r="1"/>
				<path class="st0" d="M235.3,76.6c1.7,0,3.1,1.4,3.1,3.1c0,1.7-1.4,3.1-3.1,3.1c-1.7,0-3.1-1.4-3.1-3.1
					C232.2,78,233.6,76.6,235.3,76.6z"/>
				<circle class="st0" cx="225.6" cy="79.7" r="2.9"/>
				<circle class="st0" cx="215.5" cy="79.7" r="1.9"/>
				<circle class="st0" cx="205.7" cy="79.7" r="1.7"/>
				<circle class="st0" cx="196" cy="79.7" r="1.5"/>
				<circle class="st0" cx="186.3" cy="79.7" r="1.2"/>
				<circle class="st0" cx="176.6" cy="79.7" r="1"/>
				<circle class="st0" cx="293.2" cy="89.2" r="2.9"/>
				<circle class="st0" cx="302.9" cy="89.2" r="2.7"/>
				<circle class="st0" cx="312.7" cy="89.2" r="2.4"/>
				<circle class="st0" cx="322.4" cy="89.2" r="2.2"/>
				<circle class="st0" cx="332.1" cy="89.2" r="1.9"/>
				<circle class="st0" cx="341.9" cy="89.2" r="1.7"/>
				<circle class="st0" cx="351.6" cy="89.2" r="1.5"/>
				<circle class="st0" cx="361.3" cy="89.2" r="1.2"/>
				<circle class="st0" cx="371.1" cy="89.2" r="1"/>
				<circle class="st0" cx="293.2" cy="98.5" r="2.9"/>
				<circle class="st0" cx="302.9" cy="98.5" r="2.7"/>
				<circle class="st0" cx="312.7" cy="98.5" r="2.4"/>
				<path class="st0" d="M324.6,98.5c0,1.2-1,2.2-2.2,2.2c-1.2,0-2.2-1-2.2-2.2c0-1.2,1-2.2,2.2-2.2
					C323.6,96.3,324.6,97.2,324.6,98.5z"/>
				<circle class="st0" cx="332.1" cy="98.5" r="1.9"/>
				<circle class="st0" cx="341.9" cy="98.5" r="1.7"/>
				<circle class="st0" cx="351.6" cy="98.5" r="1.5"/>
				<circle class="st0" cx="361.3" cy="98.5" r="1.2"/>
				<circle class="st0" cx="371.1" cy="98.5" r="1"/>
				<circle class="st0" cx="293.4" cy="109.2" r="1.7"/>
				<circle class="st0" cx="303.2" cy="109.2" r="1.5"/>
				<circle class="st0" cx="312.9" cy="109.2" r="1.2"/>
				<circle class="st0" cx="322.6" cy="109.2" r="1"/>
				<circle class="st0" cx="293.4" cy="119.2" r="1.7"/>
				<circle class="st0" cx="303.2" cy="119.2" r="1.5"/>
				<circle class="st0" cx="312.9" cy="119.2" r="1.2"/>
				<circle class="st0" cx="322.6" cy="119.2" r="1"/>
				<circle class="st0" cx="293.4" cy="128.8" r="1.7"/>
				<circle class="st0" cx="303.2" cy="128.8" r="1.5"/>
				<circle class="st0" cx="312.9" cy="128.8" r="1.2"/>
				<circle class="st0" cx="322.6" cy="128.8" r="1"/>
				<path class="st0" d="M295.1,138.4c0,0.9-0.8,1.7-1.7,1.7c-0.9,0-1.7-0.8-1.7-1.7c0-0.9,0.8-1.7,1.7-1.7
					C294.4,136.7,295.1,137.5,295.1,138.4z"/>
				<path class="st0" d="M304.6,138.4c0,0.8-0.6,1.5-1.5,1.5c-0.8,0-1.5-0.7-1.5-1.5c0-0.8,0.7-1.4,1.5-1.4
					C304,137,304.6,137.6,304.6,138.4z"/>
				<path class="st0" d="M314.1,138.4c0,0.7-0.5,1.2-1.2,1.2c-0.7,0-1.2-0.6-1.2-1.2c0-0.7,0.5-1.2,1.2-1.2
					C313.6,137.2,314.1,137.8,314.1,138.4z"/>
				<circle class="st0" cx="244.7" cy="148.1" r="1.9"/>
				<circle class="st0" cx="234.7" cy="148.1" r="1.5"/>
				<circle class="st0" cx="225" cy="148.1" r="1.2"/>
				<circle class="st0" cx="215.3" cy="148.1" r="1"/>
				<circle class="st0" cx="293.1" cy="79.2" r="3.1"/>
				<circle class="st0" cx="302.8" cy="79.2" r="2.9"/>
				<circle class="st0" cx="312.5" cy="79.2" r="2.7"/>
				<circle class="st0" cx="322.3" cy="79.2" r="2.4"/>
				<circle class="st0" cx="332" cy="79.2" r="2.2"/>
				<circle class="st0" cx="341.7" cy="79.2" r="1.9"/>
				<circle class="st0" cx="351.5" cy="79.2" r="1.7"/>
				<circle class="st0" cx="361.2" cy="79.2" r="1.5"/>
				<circle class="st0" cx="370.9" cy="79.2" r="1.2"/>
				<circle class="st0" cx="283.4" cy="99.5" r="3.4"/>
				<circle class="st0" cx="283.4" cy="69.7" r="3.7"/>
				<circle class="st0" cx="293.1" cy="60.4" r="3.1"/>
				<circle class="st0" cx="302.8" cy="60.4" r="2.9"/>
				<circle class="st0" cx="312.5" cy="60.4" r="2.7"/>
				<circle class="st0" cx="322.3" cy="60.4" r="2.4"/>
				<circle class="st0" cx="332" cy="60.4" r="2.2"/>
				<circle class="st0" cx="341.7" cy="60.4" r="1.9"/>
				<path class="st0" d="M353.2,60.4c0,0.9-0.8,1.7-1.7,1.7c-0.9,0-1.7-0.8-1.7-1.7c0-0.9,0.8-1.7,1.7-1.7
					C352.4,58.7,353.2,59.5,353.2,60.4z"/>
				<circle class="st0" cx="361.2" cy="60.4" r="1.5"/>
				<circle class="st0" cx="370.9" cy="60.4" r="1.2"/>
				<circle class="st0" cx="380.7" cy="60.4" r="1"/>
				<circle class="st0" cx="235.1" cy="60" r="2.4"/>
				<circle class="st0" cx="225.3" cy="60" r="2.2"/>
				<circle class="st0" cx="215.6" cy="60" r="1.9"/>
				<circle class="st0" cx="205.9" cy="60" r="1.7"/>
				<circle class="st0" cx="196.1" cy="60" r="1.5"/>
				<circle class="st0" cx="186.4" cy="60" r="1.2"/>
				<circle class="st0" cx="176.7" cy="60" r="1"/>
				<circle class="st0" cx="234.9" cy="21.2" r="1.5"/>
				<circle class="st0" cx="225.2" cy="21.2" r="1.2"/>
				<circle class="st0" cx="215.4" cy="21.2" r="1"/>
				<circle class="st0" cx="234.9" cy="31.2" r="1.7"/>
				<circle class="st0" cx="225.2" cy="31.2" r="1.2"/>
				<circle class="st0" cx="215.4" cy="31.2" r="1"/>
				<circle class="st0" cx="235.1" cy="12" r="1.2"/>
				<path class="st0" d="M283.5,53.9c-1.7,0-3.1-1.4-3.1-3.1c0-1.7,1.4-3.1,3.1-3.1c1.7,0,3.1,1.4,3.1,3.1
					C286.6,52.5,285.2,53.9,283.5,53.9z"/>
				<circle class="st0" cx="293.2" cy="50.8" r="2.9"/>
				<circle class="st0" cx="302.9" cy="50.8" r="2.7"/>
				<circle class="st0" cx="283.5" cy="40.9" r="3.1"/>
				<circle class="st0" cx="293.2" cy="40.9" r="2.9"/>
				<circle class="st0" cx="302.9" cy="40.9" r="2.7"/>
				<circle class="st0" cx="312.7" cy="50.8" r="2.4"/>
				<path class="st0" d="M324.6,50.8c0,1.2-1,2.2-2.2,2.2c-1.2,0-2.2-1-2.2-2.2c0-1.2,1-2.2,2.2-2.2
					C323.6,48.6,324.6,49.6,324.6,50.8z"/>
				<circle class="st0" cx="283.3" cy="31.2" r="2.7"/>
				<circle class="st0" cx="293.1" cy="31.2" r="2.4"/>
				<circle class="st0" cx="302.8" cy="31.2" r="2.2"/>
				<circle class="st0" cx="332.1" cy="50.8" r="1.9"/>
				<circle class="st0" cx="341.9" cy="50.8" r="1.7"/>
				<circle class="st0" cx="312.6" cy="40.9" r="1.7"/>
				<circle class="st0" cx="351.6" cy="50.8" r="1.5"/>
				<circle class="st0" cx="322.4" cy="40.9" r="1.5"/>
				<circle class="st0" cx="361.3" cy="50.8" r="1.2"/>
				<circle class="st0" cx="371.1" cy="50.8" r="1"/>
				<circle class="st0" cx="331.8" cy="40.9" r="1"/>
				<circle class="st0" cx="234.6" cy="40.9" r="2.9"/>
				<circle class="st0" cx="224.9" cy="40.9" r="2.7"/>
				<circle class="st0" cx="215.1" cy="40.9" r="1.7"/>
				<circle class="st0" cx="205.4" cy="40.9" r="1.5"/>
				<circle class="st0" cx="195.9" cy="40.9" r="1"/>
				<circle class="st0" cx="234.6" cy="50.9" r="2.9"/>
				<circle class="st0" cx="224.9" cy="50.9" r="2.7"/>
				<circle class="st0" cx="215.1" cy="50.9" r="1.7"/>
				<circle class="st0" cx="205.4" cy="50.9" r="1.5"/>
				<circle class="st0" cx="195.9" cy="50.9" r="1"/>
				<circle class="st0" cx="283.7" cy="21.3" r="2.7"/>
				<path class="st0" d="M295.1,21.3c0,0.9-0.8,1.7-1.7,1.7c-0.9,0-1.7-0.8-1.7-1.7c0-0.9,0.8-1.7,1.7-1.7
					C294.4,19.6,295.1,20.3,295.1,21.3z"/>
				<circle class="st0" cx="303.2" cy="21.3" r="1.5"/>
				<circle class="st0" cx="312.6" cy="21.3" r="1"/>
				<circle class="st0" cx="283.2" cy="12" r="1.5"/>
				<circle class="st0" cx="292.6" cy="12" r="1"/>
				<circle class="st0" cx="283.4" cy="60.1" r="3.7"/>
				<circle class="st0" cx="283.4" cy="78.9" r="3.7"/>
				<circle class="st0" cx="283.4" cy="88.9" r="3.7"/>
				<circle class="st0" cx="254.3" cy="88.9" r="3.7"/>
				<circle class="st0" cx="244.7" cy="11.7" r="2.2"/>
				<circle class="st0" cx="244.7" cy="21.4" r="2.5"/>
				<circle class="st0" cx="234.9" cy="138" r="1.5"/>
				<circle class="st0" cx="225.2" cy="138" r="1.2"/>
				<circle class="st0" cx="215.4" cy="138" r="1"/>
				<circle class="st0" cx="244.7" cy="138.3" r="2.5"/>
				<circle class="st0" cx="244.7" cy="31.2" r="2.8"/>
				<circle class="st0" cx="244.7" cy="40.9" r="3.1"/>
				<path class="st0" d="M231.7,127.7c0-1.6,1.3-2.9,2.9-2.9c1.6,0,2.9,1.3,2.9,2.9c0,1.6-1.3,2.9-2.9,2.9
					C233,130.6,231.7,129.3,231.7,127.7z"/>
				<path class="st0" d="M222.2,127.7c0-1.5,1.2-2.7,2.7-2.7c1.5,0,2.7,1.2,2.7,2.7c0,1.5-1.2,2.7-2.7,2.7
					C223.4,130.4,222.2,129.2,222.2,127.7z"/>
				<path class="st0" d="M213.4,127.7c0-0.9,0.8-1.7,1.7-1.7c0.9,0,1.7,0.8,1.7,1.7c0,0.9-0.8,1.7-1.7,1.7
					C214.2,129.4,213.4,128.7,213.4,127.7z"/>
				<path class="st0" d="M204,127.7c0-0.8,0.7-1.4,1.5-1.4s1.5,0.6,1.5,1.4c0,0.8-0.6,1.5-1.5,1.5S204,128.5,204,127.7z"/>
				<path class="st0" d="M195.9,126.8c0.5,0,1,0.4,1,1c0,0.5-0.4,1-1,1c-0.5,0-1-0.4-1-1C195,127.2,195.4,126.8,195.9,126.8z"/>
				<path class="st0" d="M244.7,124.6c-1.7,0-3.1,1.4-3.1,3.1c0,1.7,1.4,3.1,3.1,3.1c1.7,0,3.1-1.4,3.1-3.1
					C247.8,126,246.4,124.6,244.7,124.6z"/>
				<circle class="st0" cx="244.7" cy="50.7" r="3.4"/>
				<circle class="st0" cx="234.6" cy="69.7" r="2.9"/>
				<circle class="st0" cx="224.9" cy="69.7" r="2.7"/>
				<circle class="st0" cx="215.1" cy="69.7" r="1.7"/>
				<circle class="st0" cx="205.4" cy="69.7" r="1.5"/>
				<circle class="st0" cx="195.9" cy="69.7" r="1"/>
				<path class="st0" d="M244.7,66.1c-1.9,0-3.4,1.5-3.4,3.4c0,1.9,1.5,3.4,3.4,3.4c1.9,0,3.4-1.5,3.4-3.4
					C248.1,67.6,246.6,66.1,244.7,66.1z"/>
				<circle class="st0" cx="244.7" cy="60.5" r="3.7"/>
				<circle class="st0" cx="244.7" cy="79.7" r="3.7"/>
				<circle class="st0" cx="235.3" cy="89.3" r="3.1"/>
				<circle class="st0" cx="225.6" cy="89.3" r="2.9"/>
				<circle class="st0" cx="215.5" cy="89.3" r="1.9"/>
				<circle class="st0" cx="205.7" cy="89.3" r="1.7"/>
				<circle class="st0" cx="196" cy="89.3" r="1.5"/>
				<circle class="st0" cx="186.3" cy="89.3" r="1.2"/>
				<circle class="st0" cx="176.6" cy="89.3" r="1"/>
				<circle class="st0" cx="166.6" cy="89.3" r="0.8"/>
				<circle class="st0" cx="156.6" cy="89.3" r="0.7"/>
				<circle class="st0" cx="244.7" cy="89.3" r="3.7"/>
				<circle class="st0" cx="235.3" cy="98.9" r="3.1"/>
				<circle class="st0" cx="225.6" cy="98.9" r="2.9"/>
				<path class="st0" d="M213.5,98.9c0-1.1,0.9-1.9,1.9-1.9c1.1,0,1.9,0.9,1.9,1.9c0,1.1-0.9,1.9-1.9,1.9
					C214.4,100.9,213.5,100,213.5,98.9z"/>
				<path class="st0" d="M204.1,98.9c0-0.9,0.8-1.7,1.7-1.7c0.9,0,1.7,0.8,1.7,1.7c0,0.9-0.8,1.7-1.7,1.7
					C204.8,100.6,204.1,99.9,204.1,98.9z"/>
				<circle class="st0" cx="196" cy="98.9" r="1.5"/>
				<circle class="st0" cx="186.3" cy="98.9" r="1.2"/>
				<circle class="st0" cx="176.6" cy="98.9" r="1"/>
				<circle class="st0" cx="166.6" cy="98.9" r="0.8"/>
				<circle class="st0" cx="156.6" cy="98.9" r="0.7"/>
				<circle class="st0" cx="332.3" cy="109.3" r="0.7"/>
				<circle class="st0" cx="332.3" cy="118.9" r="0.7"/>
				<circle class="st0" cx="244.7" cy="108.9" r="3.1"/>
				<circle class="st0" cx="235.2" cy="108.9" r="2.9"/>
				<circle class="st0" cx="225.1" cy="108.9" r="1.9"/>
				<circle class="st0" cx="215.4" cy="108.9" r="1.7"/>
				<circle class="st0" cx="205.6" cy="108.9" r="1.5"/>
				<circle class="st0" cx="195.9" cy="108.9" r="1.2"/>
				
					<ellipse transform="matrix(3.540989e-02 -0.9994 0.9994 3.540989e-02 70.6978 291.121)" class="st0" cx="186.2" cy="108.9" rx="1" ry="1"/>
				<circle class="st0" cx="176.2" cy="108.9" r="0.8"/>
				<circle class="st0" cx="166.2" cy="108.9" r="0.7"/>
				<circle class="st0" cx="244.7" cy="118.5" r="3.1"/>
				<circle class="st0" cx="235.2" cy="118.5" r="2.9"/>
				<circle class="st0" cx="225.1" cy="118.5" r="1.9"/>
				<circle class="st0" cx="215.4" cy="118.5" r="1.7"/>
				<circle class="st0" cx="205.6" cy="118.5" r="1.5"/>
				<circle class="st0" cx="195.9" cy="118.5" r="1.2"/>
				
					<ellipse transform="matrix(3.540989e-02 -0.9994 0.9994 3.540989e-02 61.0949 300.3897)" class="st0" cx="186.2" cy="118.5" rx="1" ry="1"/>
				<circle class="st0" cx="176.2" cy="118.5" r="0.8"/>
				<circle class="st0" cx="244.7" cy="98.9" r="3.7"/>
			</g>
		</g>
	</g>
	<g transform="rotate(0 57.8114 103)">
		<g transform="matrix(1 0 0 1 0 0)">
			<path class="st1" d="M67.2,107.8L67.2,107.8c0,1.3-0.6,2.3-1.7,2.8l0,0c1,0.3,1.7,0.9,2.1,1.8l0,0c0.1,0.3,0.2,0.7,0.2,1.2l0,0
				c0,1.5-0.8,2.5-2.4,3l0,0c-0.5,0.2-1.1,0.3-1.8,0.3l0,0h-5.8v-12.3h5.5c1.3,0,2.3,0.4,3,1.1l0,0C66.9,106.2,67.2,107,67.2,107.8z
				 M59.2,105.9v4.2h4.1c1.1,0,1.9-0.4,2.3-1.2l0,0c0.1-0.3,0.2-0.6,0.2-0.9s0-0.6-0.1-0.8c-0.1-0.2-0.2-0.5-0.4-0.6l0,0
				c-0.4-0.4-1-0.6-1.8-0.6l0,0H59.2z M59.2,115.6h4.6c0.9,0,1.5-0.2,2-0.5c0.5-0.4,0.7-0.8,0.7-1.5l0,0c0-0.6-0.2-1.1-0.7-1.5l0,0
				c-0.5-0.4-1.2-0.7-2.1-0.7l0,0h-4.4V115.6z M78.9,116.9v-1.5c-0.7,1.1-1.8,1.6-3.3,1.6l0,0c-1.3,0-2.4-0.5-3.3-1.4l0,0
				c-0.8-0.9-1.2-2-1.2-3.4l0,0c0-1.3,0.4-2.5,1.2-3.4l0,0c0.8-0.9,2-1.4,3.4-1.4c1.4,0,2.5,0.6,3.2,1.7l0,0v-1.5h1.4v9.3H78.9z
				 M75.7,115.8L75.7,115.8c1,0,1.8-0.3,2.4-1l0,0c0.6-0.7,0.8-1.5,0.8-2.5l0,0c0-1-0.3-1.8-0.8-2.5l0,0c-0.6-0.7-1.4-1-2.4-1l0,0
				c-1,0-1.8,0.3-2.4,1l0,0c-0.6,0.7-0.9,1.5-0.9,2.5l0,0c0,1,0.3,1.8,0.9,2.5l0,0C74,115.4,74.8,115.8,75.7,115.8z M84.5,107.6h1.4
				v1.4c0.3-0.4,0.7-0.8,1.2-1.1s1-0.5,1.7-0.5s1.1,0.1,1.6,0.3c0.4,0.2,0.8,0.4,1.2,0.8l0,0c0.8,0.8,1.1,1.7,1.1,3l0,0v5.4h-1.4
				v-5.4c0-0.9-0.2-1.5-0.7-2s-1.1-0.8-1.9-0.8l0,0c-0.8,0-1.4,0.3-2,0.8l0,0c-0.5,0.5-0.8,1.2-0.8,2l0,0v5.3h-1.4V107.6z
				 M104.1,116.9v-1.5c-0.7,1.1-1.8,1.6-3.3,1.6l0,0c-1.3,0-2.4-0.5-3.3-1.4l0,0c-0.8-0.9-1.2-2-1.2-3.4l0,0c0-1.3,0.4-2.5,1.2-3.4
				l0,0c0.8-0.9,2-1.4,3.4-1.4c1.4,0,2.5,0.6,3.2,1.7l0,0v-5.2h1.4v13H104.1z M101,115.8L101,115.8c1,0,1.8-0.3,2.4-1l0,0
				c0.6-0.7,0.8-1.5,0.8-2.5l0,0c0-1-0.3-1.8-0.8-2.5l0,0c-0.6-0.7-1.4-1-2.4-1l0,0c-1,0-1.8,0.3-2.4,1l0,0
				c-0.6,0.7-0.9,1.5-0.9,2.5l0,0c0,1,0.3,1.8,0.9,2.5l0,0C99.2,115.4,100,115.8,101,115.8z M126.2,104.6h1.6v12.3h-1.4v-10.2
				l-4.5,5.8l-4.6-5.8v10.2h-1.4v-12.3h1.6l4.4,5.8L126.2,104.6z M139.4,116.9v-1.5c-0.7,1.1-1.8,1.6-3.3,1.6l0,0
				c-1.3,0-2.4-0.5-3.3-1.4l0,0c-0.8-0.9-1.2-2-1.2-3.4l0,0c0-1.3,0.4-2.5,1.2-3.4l0,0c0.8-0.9,2-1.4,3.4-1.4c1.4,0,2.5,0.6,3.2,1.7
				l0,0v-1.5h1.4v9.3H139.4z M136.3,115.8L136.3,115.8c1,0,1.8-0.3,2.4-1l0,0c0.6-0.7,0.8-1.5,0.8-2.5l0,0c0-1-0.3-1.8-0.8-2.5l0,0
				c-0.6-0.7-1.4-1-2.4-1l0,0c-1,0-1.8,0.3-2.4,1l0,0c-0.6,0.7-0.9,1.5-0.9,2.5l0,0c0,1,0.3,1.8,0.9,2.5l0,0
				C134.5,115.4,135.3,115.8,136.3,115.8z M145.1,107.6h1.4v1.4c0.3-0.4,0.7-0.8,1.2-1.1c0.5-0.3,1-0.5,1.7-0.5
				c0.6,0,1.1,0.1,1.6,0.3c0.4,0.2,0.8,0.4,1.2,0.8l0,0c0.8,0.8,1.1,1.7,1.1,3l0,0v5.4h-1.4v-5.4c0-0.9-0.2-1.5-0.7-2
				s-1.1-0.8-1.9-0.8l0,0c-0.8,0-1.4,0.3-2,0.8l0,0c-0.5,0.5-0.8,1.2-0.8,2l0,0v5.3h-1.4V107.6z M164.7,116.9v-1.5
				c-0.7,1.1-1.8,1.6-3.3,1.6l0,0c-1.3,0-2.4-0.5-3.3-1.4l0,0c-0.8-0.9-1.2-2-1.2-3.4l0,0c0-1.3,0.4-2.5,1.2-3.4l0,0
				c0.8-0.9,2-1.4,3.4-1.4c1.4,0,2.5,0.6,3.2,1.7l0,0v-1.5h1.4v9.3H164.7z M161.6,115.8L161.6,115.8c1,0,1.8-0.3,2.4-1l0,0
				c0.6-0.7,0.8-1.5,0.8-2.5l0,0c0-1-0.3-1.8-0.8-2.5l0,0c-0.6-0.7-1.4-1-2.4-1l0,0c-1,0-1.8,0.3-2.4,1l0,0
				c-0.6,0.7-0.9,1.5-0.9,2.5l0,0c0,1,0.3,1.8,0.9,2.5l0,0C159.8,115.4,160.6,115.8,161.6,115.8z M177.6,109.1L177.6,109.1v-1.5h1.4
				v9c0,1.3-0.4,2.4-1.1,3.1c-0.8,0.7-1.8,1-3.1,1c-1.3,0-2.3-0.2-3-0.7c-0.7-0.5-1.2-1.1-1.5-2l0,0h1.5c0.4,1,1.3,1.4,2.7,1.4l0,0
				c1.1,0,1.9-0.2,2.3-0.7c0.5-0.5,0.7-1.2,0.7-2.2l0,0v-1.3c-0.8,1.1-1.9,1.7-3.3,1.7l0,0c-1.3,0-2.4-0.5-3.3-1.4l0,0
				c-0.8-0.9-1.2-2-1.2-3.3l0,0c0-1.3,0.4-2.4,1.2-3.3l0,0c0.8-0.9,2-1.4,3.4-1.4S176.8,108,177.6,109.1z M174.4,115.6L174.4,115.6
				c0.5,0,1-0.1,1.4-0.3c0.4-0.2,0.7-0.4,1-0.7l0,0c0.6-0.6,0.8-1.5,0.8-2.4l0,0c0-1-0.3-1.8-0.8-2.4l0,0c-0.6-0.7-1.4-1-2.4-1l0,0
				c-1,0-1.8,0.3-2.4,1l0,0c-0.6,0.7-0.9,1.5-0.9,2.4l0,0c0,1,0.3,1.8,0.9,2.4l0,0C172.6,115.3,173.4,115.6,174.4,115.6z
				 M187.4,115.8L187.4,115.8c1.2,0,2.1-0.5,2.7-1.6l0,0h1.5c-0.3,0.8-0.8,1.5-1.5,2c-0.7,0.5-1.6,0.8-2.7,0.8l0,0
				c-1.4,0-2.5-0.5-3.4-1.4l0,0c-0.9-0.9-1.3-2-1.3-3.4l0,0c0-1.4,0.4-2.5,1.2-3.4l0,0c0.9-0.9,2-1.4,3.4-1.4l0,0
				c1.4,0,2.5,0.5,3.4,1.4l0,0c0.8,0.9,1.2,2,1.2,3.4l0,0v0.6h-7.8c0.1,0.9,0.4,1.6,1,2.1l0,0C185.7,115.5,186.5,115.8,187.4,115.8z
				 M187.3,108.7L187.3,108.7c-0.9,0-1.6,0.3-2.2,0.8l0,0c-0.5,0.5-0.9,1.2-1,2l0,0h6.3c-0.1-0.8-0.5-1.5-1-2l0,0
				C188.8,109,188.1,108.7,187.3,108.7z M200.2,107.5L200.2,107.5l0.1,1.4h-0.2c-1,0-1.8,0.4-2.4,1.2l0,0c-0.6,0.8-0.9,1.7-0.9,2.7
				l0,0v4.1h-1.4v-9.3h1.4v2.3c0.3-1,0.9-1.7,1.9-2.1l0,0C199.1,107.5,199.6,107.5,200.2,107.5L200.2,107.5z M218.6,105.9h-7.5v4.3
				h6.7v1.4h-6.7v5.3h-1.4v-12.3h8.9V105.9z M226.5,107.5L226.5,107.5l0.1,1.4h-0.2c-1,0-1.8,0.4-2.4,1.2l0,0
				c-0.6,0.8-0.9,1.7-0.9,2.7l0,0v4.1h-1.4v-9.3h1.4v2.3c0.3-1,0.9-1.7,1.9-2.1l0,0C225.4,107.5,225.9,107.5,226.5,107.5
				L226.5,107.5z M233.7,107.5L233.7,107.5c1.4,0,2.5,0.5,3.4,1.4l0,0c0.8,0.9,1.2,2,1.2,3.4l0,0c0,1.4-0.4,2.5-1.2,3.4l0,0
				c-0.9,0.9-2,1.4-3.4,1.4l0,0c-1.4,0-2.5-0.5-3.4-1.4l0,0c-0.8-0.9-1.2-2-1.2-3.4l0,0c0-1.4,0.4-2.5,1.2-3.4l0,0
				C231.2,107.9,232.3,107.5,233.7,107.5z M233.7,115.8L233.7,115.8c1,0,1.8-0.3,2.4-1l0,0c0.6-0.7,0.8-1.5,0.8-2.5l0,0
				c0-1-0.3-1.8-0.8-2.5l0,0c-0.6-0.7-1.4-1-2.4-1l0,0c-1,0-1.8,0.3-2.4,1l0,0c-0.6,0.7-0.8,1.5-0.8,2.5l0,0c0,1,0.3,1.8,0.8,2.5
				l0,0C231.9,115.4,232.7,115.8,233.7,115.8z M242,107.6h1.4v1.4c0.3-0.4,0.7-0.8,1.2-1.1c0.5-0.3,1-0.5,1.7-0.5s1.1,0.1,1.6,0.3
				c0.4,0.2,0.8,0.4,1.2,0.8l0,0c0.8,0.8,1.1,1.7,1.1,3l0,0v5.4h-1.4v-5.4c0-0.9-0.2-1.5-0.7-2c-0.5-0.5-1.1-0.8-1.9-0.8l0,0
				c-0.8,0-1.4,0.3-2,0.8l0,0c-0.5,0.5-0.8,1.2-0.8,2l0,0v5.3H242V107.6z M256.5,116.9h-1.4v-8h-1.9v-1.2h1.9v-3.3h1.4v3.3h2.1v1.2
				h-2.1V116.9z M278.5,104.6h1.6v12.3h-1.4v-10.2l-4.5,5.8l-4.6-5.8v10.2h-1.4v-12.3h1.6l4.4,5.8L278.5,104.6z M291.7,116.9v-1.5
				c-0.7,1.1-1.8,1.6-3.3,1.6l0,0c-1.3,0-2.4-0.5-3.3-1.4l0,0c-0.8-0.9-1.2-2-1.2-3.4l0,0c0-1.3,0.4-2.5,1.2-3.4l0,0
				c0.8-0.9,2-1.4,3.4-1.4s2.5,0.6,3.2,1.7l0,0v-1.5h1.4v9.3H291.7z M288.6,115.8L288.6,115.8c1,0,1.8-0.3,2.4-1l0,0
				c0.6-0.7,0.8-1.5,0.8-2.5l0,0c0-1-0.3-1.8-0.8-2.5l0,0c-0.6-0.7-1.4-1-2.4-1l0,0c-1,0-1.8,0.3-2.4,1l0,0
				c-0.6,0.7-0.9,1.5-0.9,2.5l0,0c0,1,0.3,1.8,0.9,2.5l0,0C286.8,115.4,287.6,115.8,288.6,115.8z M297.4,107.6h1.4v1.4
				c0.3-0.4,0.7-0.8,1.2-1.1c0.5-0.3,1-0.5,1.7-0.5c0.6,0,1.1,0.1,1.6,0.3c0.4,0.2,0.8,0.4,1.2,0.8l0,0c0.8,0.8,1.1,1.7,1.1,3l0,0
				v5.4h-1.4v-5.4c0-0.9-0.2-1.5-0.7-2c-0.5-0.5-1.1-0.8-1.9-0.8l0,0c-0.8,0-1.4,0.3-2,0.8l0,0c-0.5,0.5-0.8,1.2-0.8,2l0,0v5.3h-1.4
				V107.6z M316.6,120.2h-1.1V103h1.1V120.2z M327,104.6h1.4v10.9h6.7v1.3H327V104.6z M342.4,115.8L342.4,115.8
				c1.2,0,2.1-0.5,2.7-1.6l0,0h1.5c-0.3,0.8-0.8,1.5-1.5,2c-0.7,0.5-1.6,0.8-2.7,0.8l0,0c-1.4,0-2.5-0.5-3.4-1.4l0,0
				c-0.9-0.9-1.3-2-1.3-3.4l0,0c0-1.4,0.4-2.5,1.2-3.4l0,0c0.9-0.9,2-1.4,3.4-1.4l0,0c1.4,0,2.5,0.5,3.4,1.4l0,0
				c0.8,0.9,1.2,2,1.2,3.4l0,0v0.6h-7.8c0.1,0.9,0.4,1.6,1,2.1l0,0C340.7,115.5,341.5,115.8,342.4,115.8z M342.3,108.7L342.3,108.7
				c-0.9,0-1.6,0.3-2.2,0.8l0,0c-0.5,0.5-0.9,1.2-1,2l0,0h6.3c-0.1-0.8-0.5-1.5-1-2l0,0C343.8,109,343.1,108.7,342.3,108.7z
				 M358.5,116.9l-2.3-7.4l-2.3,7.4h-1.6l-2.9-9.3h1.5l2.2,7.5l2.4-7.5h1.5l2.4,7.5l2.2-7.5h1.5l-2.9,9.3H358.5z M366.3,116.9v-9.3
				h1.4v9.3H366.3z M366.2,104.2h1.5v1.8h-1.5V104.2z M378.8,110.1h-1.4c-0.1-1-0.9-1.4-2.3-1.4s-2.1,0.4-2.1,1.3l0,0
				c0,0.4,0.2,0.7,0.5,0.8c0.3,0.2,0.7,0.3,1.1,0.5s1,0.2,1.5,0.3c0.5,0.1,1,0.3,1.5,0.4s0.8,0.5,1.1,0.8c0.3,0.3,0.5,0.8,0.5,1.4
				l0,0c0,0.9-0.3,1.6-1,2.1c-0.7,0.5-1.6,0.7-2.8,0.7l0,0c-1.2,0-2.2-0.3-2.9-0.9l0,0c-0.7-0.5-1-1.3-1.1-2.1l0,0h1.4
				c0.1,0.9,0.6,1.4,1.4,1.7l0,0c0.3,0.1,0.6,0.1,1,0.1c0.3,0,0.6,0,0.9-0.1s0.5-0.1,0.8-0.2l0,0c0.6-0.2,0.9-0.6,0.9-1.2l0,0
				c0-0.4-0.2-0.7-0.5-0.9c-0.3-0.2-0.7-0.4-1.1-0.5c-0.5-0.1-1-0.2-1.5-0.4c-0.5-0.1-1-0.3-1.5-0.4c-0.5-0.2-0.8-0.4-1.1-0.8
				c-0.3-0.3-0.5-0.8-0.5-1.3l0,0c0-0.8,0.3-1.5,0.9-2s1.5-0.7,2.7-0.7l0,0c1.1,0,2,0.3,2.7,0.8l0,0
				C378.4,108.7,378.7,109.3,378.8,110.1L378.8,110.1z M385.1,116.9h-1.4v-8h-1.9v-1.2h1.9v-3.3h1.4v3.3h2.1v1.2h-2.1V116.9z
				 M394.5,107.5L394.5,107.5c1.4,0,2.5,0.5,3.4,1.4l0,0c0.8,0.9,1.2,2,1.2,3.4l0,0c0,1.4-0.4,2.5-1.2,3.4l0,0
				c-0.9,0.9-2,1.4-3.4,1.4l0,0c-1.4,0-2.5-0.5-3.4-1.4l0,0c-0.8-0.9-1.2-2-1.2-3.4l0,0c0-1.4,0.4-2.5,1.2-3.4l0,0
				C392,107.9,393.1,107.5,394.5,107.5z M394.5,115.8L394.5,115.8c1,0,1.8-0.3,2.4-1l0,0c0.6-0.7,0.8-1.5,0.8-2.5l0,0
				c0-1-0.3-1.8-0.8-2.5l0,0c-0.6-0.7-1.4-1-2.4-1l0,0c-1,0-1.8,0.3-2.4,1l0,0c-0.6,0.7-0.8,1.5-0.8,2.5l0,0c0,1,0.3,1.8,0.8,2.5
				l0,0C392.7,115.4,393.5,115.8,394.5,115.8z M402.8,107.6h1.4v1.4c0.3-0.4,0.7-0.8,1.2-1.1c0.5-0.3,1-0.5,1.7-0.5
				c0.6,0,1.1,0.1,1.6,0.3c0.4,0.2,0.8,0.4,1.2,0.8l0,0c0.8,0.8,1.1,1.7,1.1,3l0,0v5.4h-1.4v-5.4c0-0.9-0.2-1.5-0.7-2
				s-1.1-0.8-1.9-0.8l0,0c-0.8,0-1.4,0.3-2,0.8l0,0c-0.5,0.5-0.8,1.2-0.8,2l0,0v5.3h-1.4V107.6z M414.1,119.3l1.1-3.9h1.8l-1.6,3.9
				H414.1z M428.5,104.6v12.3h-1.4v-12.3H428.5z M440.2,116.9v-1.5c-0.7,1.1-1.8,1.6-3.3,1.6l0,0c-1.3,0-2.4-0.5-3.3-1.4l0,0
				c-0.8-0.9-1.2-2-1.2-3.4l0,0c0-1.3,0.4-2.5,1.2-3.4l0,0c0.8-0.9,2-1.4,3.4-1.4c1.4,0,2.5,0.6,3.2,1.7l0,0v-5.2h1.4v13H440.2z
				 M437,115.8L437,115.8c1,0,1.8-0.3,2.4-1l0,0c0.6-0.7,0.8-1.5,0.8-2.5l0,0c0-1-0.3-1.8-0.8-2.5l0,0c-0.6-0.7-1.4-1-2.4-1l0,0
				c-1,0-1.8,0.3-2.4,1l0,0c-0.6,0.7-0.9,1.5-0.9,2.5l0,0c0,1,0.3,1.8,0.9,2.5l0,0C435.2,115.4,436,115.8,437,115.8z M453,116.9
				v-1.5c-0.7,1.1-1.8,1.6-3.3,1.6l0,0c-1.3,0-2.4-0.5-3.3-1.4l0,0c-0.8-0.9-1.2-2-1.2-3.4l0,0c0-1.3,0.4-2.5,1.2-3.4l0,0
				c0.8-0.9,2-1.4,3.4-1.4c1.4,0,2.5,0.6,3.2,1.7l0,0v-1.5h1.4v9.3H453z M449.9,115.8L449.9,115.8c1,0,1.8-0.3,2.4-1l0,0
				c0.6-0.7,0.8-1.5,0.8-2.5l0,0c0-1-0.3-1.8-0.8-2.5l0,0c-0.6-0.7-1.4-1-2.4-1l0,0c-1,0-1.8,0.3-2.4,1l0,0
				c-0.6,0.7-0.9,1.5-0.9,2.5l0,0c0,1,0.3,1.8,0.9,2.5l0,0C448.1,115.4,448.9,115.8,449.9,115.8z M458.7,103.9h1.4v5.2
				c0.3-0.4,0.7-0.8,1.2-1.1c0.5-0.3,1-0.5,1.7-0.5c0.6,0,1.1,0.1,1.6,0.3c0.4,0.2,0.8,0.4,1.2,0.8l0,0c0.8,0.8,1.1,1.7,1.1,3l0,0
				v5.4h-1.4v-5.4c0-0.9-0.2-1.5-0.7-2c-0.5-0.5-1.1-0.8-1.9-0.8l0,0c-0.8,0-1.4,0.3-2,0.8l0,0c-0.5,0.5-0.8,1.2-0.8,2l0,0v5.3h-1.4
				V103.9z M475.1,107.5L475.1,107.5c1.4,0,2.5,0.5,3.4,1.4l0,0c0.8,0.9,1.2,2,1.2,3.4l0,0c0,1.4-0.4,2.5-1.2,3.4l0,0
				c-0.9,0.9-2,1.4-3.4,1.4l0,0c-1.4,0-2.5-0.5-3.4-1.4l0,0c-0.8-0.9-1.2-2-1.2-3.4l0,0c0-1.4,0.4-2.5,1.2-3.4l0,0
				C472.6,107.9,473.7,107.5,475.1,107.5z M475.1,115.8L475.1,115.8c1,0,1.8-0.3,2.4-1l0,0c0.6-0.7,0.8-1.5,0.8-2.5l0,0
				c0-1-0.3-1.8-0.8-2.5l0,0c-0.6-0.7-1.4-1-2.4-1l0,0c-1,0-1.8,0.3-2.4,1l0,0c-0.6,0.7-0.8,1.5-0.8,2.5l0,0c0,1,0.3,1.8,0.8,2.5
				l0,0C473.3,115.4,474.1,115.8,475.1,115.8z"/>
		</g>
	</g>
	<g transform="rotate(0 0 63)">
		<g transform="matrix(1 0 0 1 0 0)">
			<path class="st2" d="M13.2,72.7c1,0.3,1.8,0.9,2.4,1.6c0.6,0.8,0.9,1.7,0.9,2.8l0,0c0,1.6-0.6,2.8-1.8,3.6s-3,1.3-5.3,1.3l0,0H0
				V64.1h8.8c2.2,0,3.9,0.4,5,1.3s1.8,2,1.8,3.4l0,0c0,0.9-0.2,1.6-0.6,2.3C14.5,71.8,13.9,72.3,13.2,72.7L13.2,72.7z M8.3,67.2H4.1
				v4.2h4.1c1,0,1.8-0.2,2.3-0.5c0.5-0.4,0.8-0.9,0.8-1.6l0,0c0-0.7-0.3-1.2-0.8-1.6C10.1,67.4,9.3,67.2,8.3,67.2L8.3,67.2z M9,78.9
				c1.1,0,1.9-0.2,2.5-0.5c0.6-0.4,0.8-0.9,0.8-1.7l0,0c0-1.5-1.1-2.2-3.3-2.2l0,0H4.1v4.4H9z M24.9,68c2.1,0,3.8,0.5,4.9,1.5
				c1.1,1,1.7,2.6,1.7,4.6l0,0V82h-3.7v-1.7c-0.8,1.3-2.2,1.9-4.2,1.9l0,0c-1.1,0-2-0.2-2.8-0.5c-0.8-0.4-1.4-0.9-1.8-1.5
				c-0.4-0.6-0.6-1.4-0.6-2.2l0,0c0-1.3,0.5-2.3,1.4-3c1-0.7,2.5-1.1,4.5-1.1l0,0h3.2c0-0.9-0.3-1.5-0.8-2s-1.3-0.7-2.4-0.7l0,0
				c-0.7,0-1.5,0.1-2.2,0.3c-0.7,0.2-1.3,0.5-1.8,0.9l0,0l-1.4-2.8c0.8-0.5,1.7-0.9,2.7-1.2C22.7,68.2,23.8,68,24.9,68L24.9,68z
				 M24.6,79.5c0.7,0,1.3-0.2,1.8-0.5c0.5-0.3,0.9-0.8,1.1-1.4l0,0v-1.4h-2.7c-1.6,0-2.5,0.5-2.5,1.6l0,0c0,0.5,0.2,0.9,0.6,1.2
				C23.3,79.4,23.9,79.5,24.6,79.5L24.6,79.5z M39.8,82.2c-1.1,0-2.3-0.1-3.4-0.4s-2-0.6-2.6-1.1l0,0l1.3-2.9c0.6,0.4,1.4,0.7,2.2,1
				s1.7,0.4,2.6,0.4l0,0c1.7,0,2.5-0.4,2.5-1.3l0,0c0-0.4-0.2-0.7-0.7-0.8c-0.5-0.2-1.2-0.3-2.1-0.4l0,0c-1.1-0.2-2.1-0.4-2.8-0.6
				c-0.7-0.2-1.4-0.6-1.9-1.2c-0.5-0.6-0.8-1.4-0.8-2.4l0,0c0-0.9,0.3-1.6,0.8-2.3c0.5-0.7,1.2-1.2,2.2-1.6s2.1-0.6,3.4-0.6l0,0
				c1,0,1.9,0.1,2.9,0.3s1.8,0.5,2.4,0.9l0,0l-1.3,2.8c-1.2-0.7-2.5-1-4-1l0,0c-0.9,0-1.5,0.1-1.9,0.4C38.2,71.6,38,72,38,72.3l0,0
				c0,0.4,0.2,0.7,0.7,0.9c0.5,0.2,1.2,0.3,2.2,0.5l0,0c1.1,0.2,2.1,0.4,2.8,0.6c0.7,0.2,1.3,0.6,1.9,1.2c0.5,0.6,0.8,1.4,0.8,2.4
				l0,0c0,0.9-0.3,1.6-0.8,2.3c-0.5,0.7-1.3,1.2-2.2,1.6S41.1,82.2,39.8,82.2L39.8,82.2z M53.4,82.2c-1.1,0-2.3-0.1-3.4-0.4
				c-1.1-0.3-2-0.6-2.6-1.1l0,0l1.3-2.9c0.6,0.4,1.4,0.7,2.2,1s1.7,0.4,2.6,0.4l0,0c1.7,0,2.5-0.4,2.5-1.3l0,0
				c0-0.4-0.2-0.7-0.7-0.8c-0.5-0.2-1.2-0.3-2.1-0.4l0,0c-1.1-0.2-2.1-0.4-2.8-0.6c-0.7-0.2-1.4-0.6-1.9-1.2
				c-0.5-0.6-0.8-1.4-0.8-2.4l0,0c0-0.9,0.3-1.6,0.8-2.3c0.5-0.7,1.2-1.2,2.2-1.6s2.1-0.6,3.4-0.6l0,0c1,0,1.9,0.1,2.9,0.3
				c1,0.2,1.8,0.5,2.4,0.9l0,0l-1.3,2.8c-1.2-0.7-2.5-1-4-1l0,0c-0.9,0-1.5,0.1-1.9,0.4c-0.4,0.2-0.6,0.5-0.6,0.9l0,0
				c0,0.4,0.2,0.7,0.7,0.9c0.5,0.2,1.2,0.3,2.2,0.5l0,0c1.1,0.2,2.1,0.4,2.8,0.6c0.7,0.2,1.3,0.6,1.9,1.2c0.5,0.6,0.8,1.4,0.8,2.4
				l0,0c0,0.9-0.3,1.6-0.8,2.3c-0.5,0.7-1.3,1.2-2.2,1.6C55.9,82,54.8,82.2,53.4,82.2L53.4,82.2z M90.2,82h-3.9l0-10.8l-5.3,8.9
				h-1.9l-5.3-8.6V82h-3.9V64.1h3.4l6.7,11.2l6.6-11.2h3.4L90.2,82z M99.7,68c2.1,0,3.8,0.5,4.9,1.5c1.1,1,1.7,2.6,1.7,4.6l0,0V82
				h-3.7v-1.7c-0.8,1.3-2.2,1.9-4.2,1.9l0,0c-1.1,0-2-0.2-2.8-0.5c-0.8-0.4-1.4-0.9-1.8-1.5c-0.4-0.6-0.6-1.4-0.6-2.2l0,0
				c0-1.3,0.5-2.3,1.4-3c1-0.7,2.5-1.1,4.5-1.1l0,0h3.2c0-0.9-0.3-1.5-0.8-2s-1.3-0.7-2.4-0.7l0,0c-0.7,0-1.5,0.1-2.2,0.3
				c-0.7,0.2-1.3,0.5-1.8,0.9l0,0l-1.4-2.8c0.8-0.5,1.7-0.9,2.7-1.2S98.6,68,99.7,68L99.7,68z M99.4,79.5c0.7,0,1.3-0.2,1.8-0.5
				s0.9-0.8,1.1-1.4l0,0v-1.4h-2.7c-1.6,0-2.5,0.5-2.5,1.6l0,0c0,0.5,0.2,0.9,0.6,1.2C98.1,79.4,98.7,79.5,99.4,79.5L99.4,79.5z
				 M114.6,82.2c-1.1,0-2.3-0.1-3.4-0.4c-1.1-0.3-2-0.6-2.6-1.1l0,0l1.3-2.9c0.6,0.4,1.4,0.7,2.2,1s1.7,0.4,2.6,0.4l0,0
				c1.7,0,2.5-0.4,2.5-1.3l0,0c0-0.4-0.2-0.7-0.7-0.8c-0.5-0.2-1.2-0.3-2.1-0.4l0,0c-1.1-0.2-2.1-0.4-2.8-0.6
				c-0.7-0.2-1.4-0.6-1.9-1.2c-0.5-0.6-0.8-1.4-0.8-2.4l0,0c0-0.9,0.3-1.6,0.8-2.3c0.5-0.7,1.2-1.2,2.2-1.6s2.1-0.6,3.4-0.6l0,0
				c1,0,1.9,0.1,2.9,0.3s1.8,0.5,2.4,0.9l0,0l-1.3,2.8c-1.2-0.7-2.5-1-4-1l0,0c-0.9,0-1.5,0.1-1.9,0.4c-0.4,0.2-0.6,0.5-0.6,0.9l0,0
				c0,0.4,0.2,0.7,0.7,0.9c0.5,0.2,1.2,0.3,2.2,0.5l0,0c1.1,0.2,2.1,0.4,2.8,0.6c0.7,0.2,1.3,0.6,1.9,1.2c0.5,0.6,0.8,1.4,0.8,2.4
				l0,0c0,0.9-0.3,1.6-0.8,2.3c-0.5,0.7-1.3,1.2-2.2,1.6S115.9,82.2,114.6,82.2L114.6,82.2z M131.4,78.5l1.1,2.8
				c-0.4,0.3-0.9,0.5-1.4,0.7c-0.6,0.1-1.2,0.2-1.8,0.2l0,0c-1.6,0-2.9-0.4-3.8-1.3c-0.9-0.8-1.3-2.1-1.3-3.7l0,0v-5.7h-2.1v-3.1
				h2.1v-3.4h4v3.4h3.4v3.1h-3.4v5.6c0,0.6,0.1,1,0.4,1.3c0.3,0.3,0.7,0.5,1.3,0.5l0,0C130.4,79.1,130.9,78.9,131.4,78.5L131.4,78.5
				z M147.8,75.2c0,0.1,0,0.4-0.1,1.1l0,0h-10.4c0.2,0.9,0.6,1.5,1.3,2c0.7,0.5,1.6,0.7,2.6,0.7l0,0c0.7,0,1.4-0.1,1.9-0.3
				s1.1-0.6,1.6-1l0,0l2.1,2.3c-1.3,1.5-3.2,2.2-5.7,2.2l0,0c-1.6,0-2.9-0.3-4.1-0.9c-1.2-0.6-2.1-1.4-2.8-2.5c-0.6-1.1-1-2.3-1-3.7
				l0,0c0-1.4,0.3-2.6,1-3.7c0.6-1.1,1.5-1.9,2.6-2.5c1.1-0.6,2.4-0.9,3.8-0.9l0,0c1.4,0,2.6,0.3,3.7,0.9c1.1,0.6,2,1.4,2.6,2.5
				C147.5,72.5,147.8,73.7,147.8,75.2L147.8,75.2z M140.6,71.1c-0.9,0-1.7,0.3-2.3,0.8c-0.6,0.5-1,1.2-1.1,2.1l0,0h6.8
				c-0.1-0.9-0.5-1.6-1.1-2.1C142.3,71.3,141.5,71.1,140.6,71.1L140.6,71.1z M154.3,70.1c0.5-0.7,1.1-1.2,1.9-1.5S158,68,159,68l0,0
				v3.7c-0.4,0-0.7-0.1-0.9-0.1l0,0c-1.1,0-2,0.3-2.7,1c-0.6,0.6-1,1.6-1,2.9l0,0V82h-4V68.2h3.8V70.1z M184.9,82h-4.5l-3.5-5h-0.2
				h-3.6v5h-4.2V64.1h7.8c1.6,0,3,0.3,4.1,0.8c1.2,0.5,2.1,1.3,2.7,2.3c0.6,1,0.9,2.1,0.9,3.5l0,0c0,1.3-0.3,2.5-1,3.4
				c-0.6,1-1.6,1.7-2.7,2.2l0,0L184.9,82z M180.4,70.6c0-1-0.3-1.8-1-2.3c-0.6-0.5-1.6-0.8-2.8-0.8l0,0h-3.4v6.3h3.4
				c1.2,0,2.2-0.3,2.8-0.8C180.1,72.4,180.4,71.6,180.4,70.6L180.4,70.6z M194.2,82.2c-1.5,0-2.8-0.3-3.9-0.9
				c-1.2-0.6-2.1-1.4-2.7-2.5c-0.6-1.1-1-2.3-1-3.7l0,0c0-1.4,0.3-2.6,1-3.7c0.6-1.1,1.6-1.9,2.7-2.5c1.2-0.6,2.5-0.9,3.9-0.9l0,0
				c1.5,0,2.8,0.3,3.9,0.9s2,1.4,2.7,2.5c0.6,1.1,1,2.3,1,3.7l0,0c0,1.4-0.3,2.6-1,3.7c-0.6,1.1-1.5,1.9-2.7,2.5
				C196.9,81.9,195.6,82.2,194.2,82.2L194.2,82.2z M194.2,78.9c1,0,1.9-0.3,2.5-1s1-1.6,1-2.8l0,0c0-1.2-0.3-2.1-1-2.8s-1.5-1-2.5-1
				l0,0c-1,0-1.9,0.3-2.5,1c-0.7,0.7-1,1.6-1,2.8l0,0c0,1.2,0.3,2.1,1,2.8C192.3,78.6,193.2,78.9,194.2,78.9L194.2,78.9z
				 M209.1,82.2c-1.1,0-2.3-0.1-3.4-0.4s-2-0.6-2.6-1.1l0,0l1.3-2.9c0.6,0.4,1.4,0.7,2.2,1c0.9,0.2,1.7,0.4,2.6,0.4l0,0
				c1.7,0,2.5-0.4,2.5-1.3l0,0c0-0.4-0.2-0.7-0.7-0.8c-0.5-0.2-1.2-0.3-2.1-0.4l0,0c-1.1-0.2-2.1-0.4-2.8-0.6
				c-0.7-0.2-1.4-0.6-1.9-1.2c-0.5-0.6-0.8-1.4-0.8-2.4l0,0c0-0.9,0.3-1.6,0.8-2.3c0.5-0.7,1.2-1.2,2.2-1.6c1-0.4,2.1-0.6,3.4-0.6
				l0,0c1,0,1.9,0.1,2.9,0.3c1,0.2,1.8,0.5,2.4,0.9l0,0l-1.3,2.8c-1.2-0.7-2.5-1-4-1l0,0c-0.9,0-1.5,0.1-1.9,0.4
				c-0.4,0.2-0.6,0.5-0.6,0.9l0,0c0,0.4,0.2,0.7,0.7,0.9c0.5,0.2,1.2,0.3,2.2,0.5l0,0c1.1,0.2,2.1,0.4,2.8,0.6
				c0.7,0.2,1.3,0.6,1.9,1.2c0.5,0.6,0.8,1.4,0.8,2.4l0,0c0,0.9-0.3,1.6-0.8,2.3c-0.5,0.7-1.3,1.2-2.2,1.6S210.4,82.2,209.1,82.2
				L209.1,82.2z M222.7,82.2c-1.1,0-2.3-0.1-3.4-0.4c-1.1-0.3-2-0.6-2.6-1.1l0,0l1.3-2.9c0.6,0.4,1.4,0.7,2.2,1
				c0.9,0.2,1.7,0.4,2.6,0.4l0,0c1.7,0,2.5-0.4,2.5-1.3l0,0c0-0.4-0.2-0.7-0.7-0.8c-0.5-0.2-1.2-0.3-2.1-0.4l0,0
				c-1.1-0.2-2.1-0.4-2.8-0.6c-0.7-0.2-1.4-0.6-1.9-1.2c-0.5-0.6-0.8-1.4-0.8-2.4l0,0c0-0.9,0.3-1.6,0.8-2.3
				c0.5-0.7,1.2-1.2,2.2-1.6s2.1-0.6,3.4-0.6l0,0c1,0,1.9,0.1,2.9,0.3s1.8,0.5,2.4,0.9l0,0l-1.3,2.8c-1.2-0.7-2.5-1-4-1l0,0
				c-0.9,0-1.5,0.1-1.9,0.4c-0.4,0.2-0.6,0.5-0.6,0.9l0,0c0,0.4,0.2,0.7,0.7,0.9c0.5,0.2,1.2,0.3,2.2,0.5l0,0
				c1.1,0.2,2.1,0.4,2.8,0.6c0.7,0.2,1.3,0.6,1.9,1.2s0.8,1.4,0.8,2.4l0,0c0,0.9-0.3,1.6-0.8,2.3c-0.5,0.7-1.3,1.2-2.2,1.6
				C225.2,82,224,82.2,222.7,82.2L222.7,82.2z M245.1,82.3c-1.4,0-2.8-0.2-4.1-0.6c-1.3-0.4-2.4-0.9-3.2-1.5l0,0l1.4-3.1
				c0.8,0.6,1.7,1,2.7,1.4s2.1,0.5,3.2,0.5l0,0c1.2,0,2.1-0.2,2.6-0.5c0.6-0.4,0.8-0.8,0.8-1.4l0,0c0-0.4-0.2-0.8-0.5-1.1
				s-0.8-0.5-1.3-0.7c-0.5-0.2-1.2-0.4-2.1-0.6l0,0c-1.4-0.3-2.5-0.6-3.4-1c-0.9-0.3-1.6-0.8-2.2-1.6c-0.6-0.7-0.9-1.7-0.9-2.9l0,0
				c0-1,0.3-2,0.8-2.8s1.4-1.5,2.6-2c1.1-0.5,2.5-0.7,4.2-0.7l0,0c1.1,0,2.3,0.1,3.4,0.4c1.1,0.3,2.1,0.7,2.9,1.2l0,0l-1.3,3.2
				c-1.7-0.9-3.3-1.4-5-1.4l0,0c-1.2,0-2,0.2-2.6,0.6c-0.6,0.4-0.8,0.9-0.8,1.5l0,0c0,0.6,0.3,1.1,1,1.4c0.6,0.3,1.6,0.6,2.9,0.9
				l0,0c1.4,0.3,2.5,0.6,3.4,1c0.9,0.3,1.6,0.8,2.2,1.5c0.6,0.7,0.9,1.6,0.9,2.8l0,0c0,1-0.3,2-0.9,2.8c-0.6,0.8-1.4,1.5-2.6,2
				C248.1,82.1,246.7,82.3,245.1,82.3L245.1,82.3z M263.1,78.5l1.1,2.8c-0.4,0.3-0.9,0.5-1.4,0.7c-0.6,0.1-1.2,0.2-1.8,0.2l0,0
				c-1.6,0-2.9-0.4-3.8-1.3c-0.9-0.8-1.3-2.1-1.3-3.7l0,0v-5.7h-2.1v-3.1h2.1v-3.4h4v3.4h3.4v3.1h-3.4v5.6c0,0.6,0.1,1,0.4,1.3
				c0.3,0.3,0.7,0.5,1.3,0.5l0,0C262.1,79.1,262.6,78.9,263.1,78.5L263.1,78.5z M279.5,75.2c0,0.1,0,0.4-0.1,1.1l0,0H269
				c0.2,0.9,0.6,1.5,1.3,2s1.6,0.7,2.6,0.7l0,0c0.7,0,1.4-0.1,1.9-0.3s1.1-0.6,1.6-1l0,0l2.1,2.3c-1.3,1.5-3.2,2.2-5.7,2.2l0,0
				c-1.6,0-2.9-0.3-4.1-0.9c-1.2-0.6-2.1-1.4-2.8-2.5c-0.6-1.1-1-2.3-1-3.7l0,0c0-1.4,0.3-2.6,1-3.7c0.6-1.1,1.5-1.9,2.6-2.5
				s2.4-0.9,3.8-0.9l0,0c1.4,0,2.6,0.3,3.7,0.9c1.1,0.6,2,1.4,2.6,2.5C279.2,72.5,279.5,73.7,279.5,75.2L279.5,75.2z M272.3,71.1
				c-0.9,0-1.7,0.3-2.3,0.8c-0.6,0.5-1,1.2-1.1,2.1l0,0h6.8c-0.1-0.9-0.5-1.6-1.1-2.1C274,71.3,273.2,71.1,272.3,71.1L272.3,71.1z
				 M291.7,68.2h3.8L289.8,82h-4.1l-5.8-13.8h4.1l3.8,9.4L291.7,68.2z M310.4,75.2c0,0.1,0,0.4-0.1,1.1l0,0h-10.4
				c0.2,0.9,0.6,1.5,1.3,2s1.6,0.7,2.6,0.7l0,0c0.7,0,1.4-0.1,1.9-0.3c0.6-0.2,1.1-0.6,1.6-1l0,0l2.1,2.3c-1.3,1.5-3.2,2.2-5.7,2.2
				l0,0c-1.6,0-2.9-0.3-4.1-0.9c-1.2-0.6-2.1-1.4-2.8-2.5c-0.6-1.1-1-2.3-1-3.7l0,0c0-1.4,0.3-2.6,1-3.7c0.6-1.1,1.5-1.9,2.6-2.5
				s2.4-0.9,3.8-0.9l0,0c1.4,0,2.6,0.3,3.7,0.9c1.1,0.6,2,1.4,2.6,2.5S310.4,73.7,310.4,75.2L310.4,75.2z M303.2,71.1
				c-0.9,0-1.7,0.3-2.3,0.8c-0.6,0.5-1,1.2-1.1,2.1l0,0h6.8c-0.1-0.9-0.5-1.6-1.1-2.1C304.8,71.3,304.1,71.1,303.2,71.1L303.2,71.1z
				 M321.4,68c1.7,0,3.1,0.5,4.1,1.5s1.6,2.5,1.6,4.6l0,0V82h-4v-7.3c0-1.1-0.2-1.9-0.7-2.4c-0.5-0.5-1.2-0.8-2.1-0.8l0,0
				c-1,0-1.8,0.3-2.4,0.9S317,74,317,75.2l0,0V82h-4V68.2h3.8v1.6c0.5-0.6,1.2-1,2-1.3S320.5,68,321.4,68L321.4,68z M354.2,82h-4.5
				l-3.5-5h-0.2h-3.6v5h-4.2V64.1h7.8c1.6,0,3,0.3,4.1,0.8c1.2,0.5,2.1,1.3,2.7,2.3c0.6,1,0.9,2.1,0.9,3.5l0,0c0,1.3-0.3,2.5-1,3.4
				s-1.6,1.7-2.7,2.2l0,0L354.2,82z M349.6,70.6c0-1-0.3-1.8-1-2.3s-1.6-0.8-2.8-0.8l0,0h-3.4v6.3h3.4c1.2,0,2.2-0.3,2.8-0.8
				C349.3,72.4,349.6,71.6,349.6,70.6L349.6,70.6z M363.4,82.2c-1.5,0-2.8-0.3-3.9-0.9c-1.2-0.6-2.1-1.4-2.7-2.5
				c-0.6-1.1-1-2.3-1-3.7l0,0c0-1.4,0.3-2.6,1-3.7c0.6-1.1,1.6-1.9,2.7-2.5s2.5-0.9,3.9-0.9l0,0c1.5,0,2.8,0.3,3.9,0.9
				s2,1.4,2.7,2.5c0.6,1.1,1,2.3,1,3.7l0,0c0,1.4-0.3,2.6-1,3.7c-0.6,1.1-1.5,1.9-2.7,2.5C366.2,81.9,364.9,82.2,363.4,82.2
				L363.4,82.2z M363.4,78.9c1,0,1.9-0.3,2.5-1c0.7-0.7,1-1.6,1-2.8l0,0c0-1.2-0.3-2.1-1-2.8c-0.7-0.7-1.5-1-2.5-1l0,0
				c-1,0-1.9,0.3-2.5,1c-0.7,0.7-1,1.6-1,2.8l0,0c0,1.2,0.3,2.1,1,2.8C361.5,78.6,362.4,78.9,363.4,78.9L363.4,78.9z M378.3,82.2
				c-1.1,0-2.3-0.1-3.4-0.4c-1.1-0.3-2-0.6-2.6-1.1l0,0l1.3-2.9c0.6,0.4,1.4,0.7,2.2,1c0.9,0.2,1.7,0.4,2.6,0.4l0,0
				c1.7,0,2.5-0.4,2.5-1.3l0,0c0-0.4-0.2-0.7-0.7-0.8c-0.5-0.2-1.2-0.3-2.1-0.4l0,0c-1.1-0.2-2.1-0.4-2.8-0.6
				c-0.7-0.2-1.4-0.6-1.9-1.2c-0.5-0.6-0.8-1.4-0.8-2.4l0,0c0-0.9,0.3-1.6,0.8-2.3c0.5-0.7,1.2-1.2,2.2-1.6c1-0.4,2.1-0.6,3.4-0.6
				l0,0c1,0,1.9,0.1,2.9,0.3c1,0.2,1.8,0.5,2.4,0.9l0,0l-1.3,2.8c-1.2-0.7-2.5-1-4-1l0,0c-0.9,0-1.5,0.1-1.9,0.4
				c-0.4,0.2-0.6,0.5-0.6,0.9l0,0c0,0.4,0.2,0.7,0.7,0.9c0.5,0.2,1.2,0.3,2.2,0.5l0,0c1.1,0.2,2.1,0.4,2.8,0.6
				c0.7,0.2,1.3,0.6,1.9,1.2c0.5,0.6,0.8,1.4,0.8,2.4l0,0c0,0.9-0.3,1.6-0.8,2.3c-0.5,0.7-1.3,1.2-2.2,1.6
				C380.8,82,379.6,82.2,378.3,82.2L378.3,82.2z M391.9,82.2c-1.1,0-2.3-0.1-3.4-0.4s-2-0.6-2.6-1.1l0,0l1.3-2.9
				c0.6,0.4,1.4,0.7,2.2,1c0.9,0.2,1.7,0.4,2.6,0.4l0,0c1.7,0,2.5-0.4,2.5-1.3l0,0c0-0.4-0.2-0.7-0.7-0.8c-0.5-0.2-1.2-0.3-2.1-0.4
				l0,0c-1.1-0.2-2.1-0.4-2.8-0.6c-0.7-0.2-1.4-0.6-1.9-1.2c-0.5-0.6-0.8-1.4-0.8-2.4l0,0c0-0.9,0.3-1.6,0.8-2.3
				c0.5-0.7,1.2-1.2,2.2-1.6c1-0.4,2.1-0.6,3.4-0.6l0,0c1,0,1.9,0.1,2.9,0.3c1,0.2,1.8,0.5,2.4,0.9l0,0l-1.3,2.8c-1.2-0.7-2.5-1-4-1
				l0,0c-0.9,0-1.5,0.1-1.9,0.4c-0.4,0.2-0.6,0.5-0.6,0.9l0,0c0,0.4,0.2,0.7,0.7,0.9c0.5,0.2,1.2,0.3,2.2,0.5l0,0
				c1.1,0.2,2.1,0.4,2.8,0.6c0.7,0.2,1.3,0.6,1.9,1.2c0.5,0.6,0.8,1.4,0.8,2.4l0,0c0,0.9-0.3,1.6-0.8,2.3c-0.5,0.7-1.3,1.2-2.2,1.6
				S393.2,82.2,391.9,82.2L391.9,82.2z M408.4,87V63h3.7v24H408.4z M421.6,64.1h7.7V82h-4.2V67.4h-3.6V64.1z M440.9,71.4
				c1.6,0.3,2.8,0.8,3.6,1.8c0.8,0.9,1.3,2,1.3,3.4l0,0c0,1-0.3,2-0.8,2.9c-0.5,0.9-1.4,1.6-2.5,2.1c-1.1,0.5-2.5,0.8-4.1,0.8l0,0
				c-1.3,0-2.5-0.2-3.7-0.5c-1.2-0.3-2.3-0.8-3.1-1.4l0,0l1.6-3.2c0.7,0.5,1.5,0.9,2.4,1.2c0.9,0.3,1.8,0.4,2.8,0.4l0,0
				c1,0,1.9-0.2,2.5-0.6c0.6-0.4,0.9-1,0.9-1.7l0,0c0-1.5-1.1-2.2-3.4-2.2l0,0h-1.9v-2.7l3.7-4.2h-7.6v-3.3h12.6v2.7L440.9,71.4z
				 M469.3,72.7c1,0.3,1.8,0.9,2.4,1.6c0.6,0.8,0.9,1.7,0.9,2.8l0,0c0,1.6-0.6,2.8-1.8,3.6c-1.2,0.8-3,1.3-5.3,1.3l0,0h-9.3V64.1
				h8.8c2.2,0,3.9,0.4,5,1.3c1.2,0.8,1.8,2,1.8,3.4l0,0c0,0.9-0.2,1.6-0.6,2.3C470.6,71.8,470,72.3,469.3,72.7L469.3,72.7z
				 M464.3,67.2h-4.1v4.2h4.1c1,0,1.8-0.2,2.3-0.5c0.5-0.4,0.8-0.9,0.8-1.6l0,0c0-0.7-0.3-1.2-0.8-1.6
				C466.1,67.4,465.4,67.2,464.3,67.2L464.3,67.2z M465.1,78.9c1.1,0,1.9-0.2,2.5-0.5c0.6-0.4,0.8-0.9,0.8-1.7l0,0
				c0-1.5-1.1-2.2-3.3-2.2l0,0h-4.8v4.4H465.1z M482,82.2c-1.5,0-2.8-0.3-3.9-0.9c-1.2-0.6-2.1-1.4-2.7-2.5c-0.6-1.1-1-2.3-1-3.7
				l0,0c0-1.4,0.3-2.6,1-3.7c0.6-1.1,1.6-1.9,2.7-2.5s2.5-0.9,3.9-0.9l0,0c1.5,0,2.8,0.3,3.9,0.9c1.1,0.6,2,1.4,2.7,2.5
				c0.6,1.1,1,2.3,1,3.7l0,0c0,1.4-0.3,2.6-1,3.7c-0.6,1.1-1.5,1.9-2.7,2.5C484.7,81.9,483.4,82.2,482,82.2L482,82.2z M482,78.9
				c1,0,1.9-0.3,2.5-1c0.7-0.7,1-1.6,1-2.8l0,0c0-1.2-0.3-2.1-1-2.8c-0.7-0.7-1.5-1-2.5-1l0,0c-1,0-1.9,0.3-2.5,1s-1,1.6-1,2.8l0,0
				c0,1.2,0.3,2.1,1,2.8S480.9,78.9,482,78.9L482,78.9z M500.6,68c1.7,0,3.1,0.5,4.1,1.5c1.1,1,1.6,2.5,1.6,4.6l0,0V82h-4v-7.3
				c0-1.1-0.2-1.9-0.7-2.4c-0.5-0.5-1.2-0.8-2.1-0.8l0,0c-1,0-1.8,0.3-2.4,0.9c-0.6,0.6-0.9,1.6-0.9,2.8l0,0V82h-4V68.2h3.8v1.6
				c0.5-0.6,1.2-1,2-1.3C498.8,68.2,499.6,68,500.6,68L500.6,68z M523.6,75.2c0,0.1,0,0.4-0.1,1.1l0,0h-10.4c0.2,0.9,0.6,1.5,1.3,2
				c0.7,0.5,1.6,0.7,2.6,0.7l0,0c0.7,0,1.4-0.1,1.9-0.3s1.1-0.6,1.6-1l0,0l2.1,2.3c-1.3,1.5-3.2,2.2-5.7,2.2l0,0
				c-1.6,0-2.9-0.3-4.1-0.9c-1.2-0.6-2.1-1.4-2.8-2.5c-0.6-1.1-1-2.3-1-3.7l0,0c0-1.4,0.3-2.6,1-3.7c0.6-1.1,1.5-1.9,2.6-2.5
				c1.1-0.6,2.4-0.9,3.8-0.9l0,0c1.4,0,2.6,0.3,3.7,0.9c1.1,0.6,2,1.4,2.6,2.5C523.3,72.5,523.6,73.7,523.6,75.2L523.6,75.2z
				 M516.4,71.1c-0.9,0-1.7,0.3-2.3,0.8c-0.6,0.5-1,1.2-1.1,2.1l0,0h6.8c-0.1-0.9-0.5-1.6-1.1-2.1C518.1,71.3,517.3,71.1,516.4,71.1
				L516.4,71.1z M530.2,78.9h7.3V82h-12.3v-2.4l7-8.3h-6.8v-3.1h11.9v2.4L530.2,78.9z"/>
		</g>
	</g>
</g>
</svg>
