<?xml version="1.0" encoding="utf-8"?>
<!-- Generator: Adobe Illustrator 24.2.1, SVG Export Plug-In . SVG Version: 6.00 Build 0)  -->
<svg version="1.1" id="Layer_1" xmlns="http://www.w3.org/2000/svg" xmlns:xlink="http://www.w3.org/1999/xlink" x="0px" y="0px"
	 viewBox="0 0 458.6 194.2" style="enable-background:new 0 0 458.6 194.2;" xml:space="preserve">
<style type="text/css">
	.st0{fill:#353535;}
	.st1{fill:#E5E5E5;}
	.st2{fill:#E9E41D;}
</style>
<g>
	<g transform="rotate(0 0 0)">
		<g transform="matrix(1 0 0 1 0 0)">
			<g>
				<path class="st0" d="M274.3,187.9c0-0.4,0-0.9,0.1-1.3c0.9,0.1,1.7,0.7,2.6,0.9l62.3-8.7c-0.3-0.2-0.7-0.2-1-0.1
					c1.2-1.1,2.2-1.3,3.3-0.9c0.2,0.1,0.3,0.4,0.3,0.6l74.4-10.4c0-0.6,0.7-0.6,1-0.8c0.4-0.2,0.6,0.2,0.7,0.5l14.6-2
					c-0.2-0.5-0.2-1,0.3-1.4c0.2-0.1,0.8,0,0.8,0.1c0.1,0.4-0.1,0.8-0.4,1.1l20.8-2.9c2.6-0.4,4.5-2.6,4.5-5.2v-121
					c0-2.6-1.9-4.8-4.5-5.2L319.2,12.5c-0.2,0.3-0.4,0.7-0.6,1.1c-0.1-0.5-0.4-0.9-0.5-1.3L258,4c0.4,1.9-0.2,3.1-1.4,4.1
					c-0.3,0.3-0.8,0.5-1.2,0.5c-1.1,0.1-2.1-0.4-2.2-1.5c-0.1-0.6,1.1-0.7,1.5-1c1-0.8,2.3-1.1,3.2-2.1L230,0.1
					c-0.5-0.1-1-0.1-1.4,0l-1.1,0.2c0.4,0.6,0.8,1.2,1.5,1.7c0.9,0.6,0.8,1.8,0,2.6c-1.1,1-1.7-0.1-2.1-0.9c-0.6-1.1-1.8-1.9-2.3-3
					L170,8.2c0.3,0.4,0.5,1,0.5,1.5c0,0.1-0.8,0.1-1.2,0.2l-0.2,1.3c-0.8-0.4-1.6-0.9-2.2-1.6c-0.3-0.3-0.5-0.6-0.3-0.9l-7,1
					l-0.5,0.8c-0.6-0.1-1-0.3-1.2-0.5l-19.8,2.8c-0.1,0.1-0.3,0.2-0.5,0.3c-0.2,0-0.3,0-0.5-0.1l-35.5,5c-0.1,0.4-0.4,0.8-0.8,0.9
					c-0.4-0.1-0.7-0.3-0.8-0.7L4.5,31.4C1.9,31.8,0,34,0,36.6v119.3l0,0.1c0,0.1,0,0.3,0,0.4v1.2c0,2.6,1.9,4.8,4.5,5.2l15.4,2.2
					c0.1-1.4,0.7-2.7,2-3.8c0.7-0.6,1.7-0.7,2.1-1.6c0.2-0.3,0.7-0.5,0.9,0c0.6,1.4,1.8,2.5,1.5,4.3c-0.2,1.3-0.1,1.3-1.9,0.6l0,1.2
					l22.3,3.1c-0.1-0.7-0.2-1.3,0.2-2c0.3,0.7,0.3,1.3,0.1,2l17.2,2.4c0.4-0.6,1-0.9,2.1-0.9c0.2,0,0.4-0.3,0.6-0.4
					c2.4-1.2,2.5-1.2,2.9,1.4c0,0.2,0.1,0.4,0.1,0.6l66.7,9.3c-0.2-0.7-0.2-1.4,0.3-2.4c0.1,1.1,0.2,1.8,0,2.4l29.7,4.2
					c0.3-0.7,0.7-1.2,1.9-1.1c1-0.8,1.3,0.6,2,0.8h-1.6c-0.2,0.2-0.5,0.4-0.7,0.6l60.5,8.5c0.5,0.1,1,0.1,1.4,0L274.3,187.9
					L274.3,187.9z M417.1,47.9c-0.6-1.6-0.5-2.6,0.2-3.6C418.8,45.4,417.9,46.4,417.1,47.9z M420.2,75.3c0.5,0,0.9,0.1,1.1,0.7
					c-0.2,0.2-0.4,0.6-0.7,0.6c-0.5,0.1-0.8-0.4-1-0.8C419.4,75.3,419.9,75.3,420.2,75.3L420.2,75.3z M421.2,136.5
					c-0.6-0.5-1.2-0.9-1.2-1.7c0-0.6,0.4-1,1-1c0.8,0,1.4,0.5,1.2,1.3C422.1,135.6,421.5,136,421.2,136.5z M422.9,115.4
					c-0.5-0.1-0.7-0.7-0.6-1.3c-0.1-0.6,0.2-1.2,0.6-1.1c0.7,0.1,0.8,0.7,0.8,1.3C423.7,114.9,423.4,115.5,422.9,115.4z
					 M437.1,164.8c-0.5-0.2-0.9-0.4-0.8-0.9c0-0.3,0.4-0.6,0.7-0.9c0.2,0.3,0.5,0.6,0.6,0.9C437.6,164.2,437.6,164.7,437.1,164.8
					L437.1,164.8z M445.7,57.7c-0.8-0.8-1.1-1.4-0.3-2.1c0.2-0.2,0.5-0.4,0.8-0.1C446.7,56.3,445.9,56.9,445.7,57.7L445.7,57.7z
					 M445.4,51.5c0.3-0.3,0.7-0.3,1,0c0.8,1.1-0.5,1.8-0.6,2.7C444.8,53.4,444.5,52.5,445.4,51.5z M443.4,83.3
					c0.4-0.1,0.6,0.3,0.6,0.7c0,0.5-0.3,0.9-0.8,1c-0.4,0.1-0.6-0.3-0.6-0.7C442.6,83.8,442.9,83.4,443.4,83.3L443.4,83.3z
					 M441.9,92.8c0.3,0.4,0.5,0.6,0.6,0.9c0.1,0.3-0.1,0.5-0.4,0.5c-0.3,0-0.8,0.2-0.8-0.4C441.3,93.6,441.6,93.3,441.9,92.8z
					 M443.9,110.2c-1.6-0.5-3.6,0.9-4.4-1.3C440.4,110.9,442.6,108.7,443.9,110.2z M439.3,29.4c0.3,0,0.6,0.1,0.6,0.5
					c0,0.5-0.3,0.9-0.8,0.9c-0.3,0-0.6-0.1-0.6-0.5C438.5,29.7,438.7,29.4,439.3,29.4L439.3,29.4z M437.3,96.8
					c0.1-0.1,0.5-0.1,0.6,0c0.3,0.6,0.3,1.1-0.2,1.8C437,97.9,436.9,97.3,437.3,96.8L437.3,96.8z M436.4,30.3c0.3,0,0.7,0,0.6,0.4
					c0,0.4-0.4,0.8-0.8,0.9c-0.4,0-0.5-0.2-0.5-0.6C435.6,30.6,435.8,30.3,436.4,30.3z M436.2,129.4c-0.1,0.5-0.3,1-0.8,0.9
					c-0.4-0.1-0.7-0.6-0.6-0.9c0.1-0.7,0.4-1.2,0.8-1.1C435.9,128.4,436.2,128.9,436.2,129.4L436.2,129.4z M433.5,59.1
					c-0.1-0.9-0.4-1.7,0.7-1.8c0.3-0.1,0.6,0.1,0.6,0.5C434.8,58.5,434.4,59,433.5,59.1z M434.1,31.8c0.2,0.4,1.3,0.4,1,0.8
					c-0.7,0.8-1.4,1.8-2.4,1.9c-0.6,0-1.2-0.2-1-0.6C432.1,32.8,433.1,32.3,434.1,31.8z M432.9,90.2c0.7,0,1,0.3,0.9,1
					c-0.1,0.7-0.3,1.3-1.2,1.3c-0.9,0-0.4-1.1-1-1.2C431.8,90.4,432.2,90.1,432.9,90.2z M429.6,55.4c0.1-0.2,0.2-0.4,0.4-0.4
					c0.3-0.1,0.6,0,0.6,0.4c0.1,0.4-0.2,0.5-0.5,0.5C429.9,55.7,429.4,55.9,429.6,55.4z M427.9,52.9c0.1-0.3,0.3-0.7,0.7-0.6
					c0.2,0,0.3,0.4,0.4,0.6c-0.3,0.3-0.1,0.9-0.7,0.8C428,53.6,427.7,53.3,427.9,52.9z M419.1,40c0.2-1.1,0.8-1.8,1.9-1.8
					c1.5,0,1,1.4,0.8,1.8c-1.2,1.9-0.1,3.7,0.1,5.5l0.1,0.1l0,0.1l2.2,0.3c-0.8,1.5-1.3,3-2.7,4.7l0.4-5l-0.1,0l0-0.1
					C420.3,44,418.8,42.5,419.1,40L419.1,40z M417.4,37c0.4,0.1,1.2,0.1,1.2,0.9c0,0.6,0,1.2-0.6,1.6c-0.6-0.3-1-0.8-1.2-1.5
					C416.6,37.5,417.1,36.9,417.4,37z M417.2,42.4c0.2,0,0.4,0.3,0.4,0.4c0,0.3-0.3,0.5-0.6,0.6c-0.1-0.2-0.2-0.3-0.2-0.5
					C416.7,42.7,416.8,42.3,417.2,42.4z M22.4,41.1c0.5-0.1,0.8,0.5,0.7,0.9c-0.1,0.4-0.4,0.9-0.7,1c-0.5,0.1-0.7-0.5-0.9-1
					C21.8,41.7,22.1,41.2,22.4,41.1z M23.1,52.3c-0.1,0.3-0.4,0.5-0.6,0.7c-0.5-0.2-0.8-0.5-0.6-0.9c0.1-0.3,0.4-0.6,0.6-0.9
					C22.8,51.5,23.2,51.8,23.1,52.3z M1.9,41.3c-0.4,0.1-0.5-0.2-0.5-0.5c0-0.3,0-0.6,0.4-0.7c0.5-0.1,0.7,0.3,0.8,0.6
					C2.5,40.9,2.2,41.2,1.9,41.3L1.9,41.3z M4.4,92.9c-0.8,0.1-0.7-0.7-0.9-1.1c-0.4-0.6,0.2-1.1,0.6-1.1c0.6-0.1,0.9,0.4,1,0.9
					C5.2,92.2,4.8,92.6,4.4,92.9z M7.2,131.9c-0.6-0.1-0.8-0.4-0.7-0.8c0.2-0.5,0.3-1.2,1-1c0.4,0.1,0.9,0.4,0.8,1
					C8.2,131.6,7.6,131.6,7.2,131.9z M8.1,63.7c-0.3,0-0.6-0.1-0.6-0.5c0-0.4,0.3-0.5,0.6-0.5c0.4,0,0.8,0,0.7,0.6
					C8.7,63.7,8.4,63.7,8.1,63.7z M11.2,48.6c-0.2-0.1-0.5-0.5-0.4-0.7c0.1-0.3,0.4-0.5,0.6-0.8l0.6,0.8
					C11.8,48.3,11.7,48.7,11.2,48.6L11.2,48.6z M12.2,40.8c-0.2-0.5,0.4-1,1-1c0.4,0,0.8,0.4,0.8,0.9c0,0.6-0.5,0.9-0.7,1.2
					C12.4,41.8,12.3,41.1,12.2,40.8z M13.5,162.5c-0.5,0-0.6-0.4-0.6-0.8c0-0.5,0.2-0.7,0.7-0.6c0.4,0.1,0.7,0.3,0.7,0.8
					C14.3,162.3,14,162.5,13.5,162.5L13.5,162.5z M14.3,46.5c-0.5-0.2-0.7-0.6-0.6-1c0-0.3,0.5-0.7,0.7-0.7c0.7,0,0.5,0.6,0.5,1
					C14.9,46.2,14.8,46.5,14.3,46.5z M14.8,123.9c0.3-0.5,0.6-0.9,1.2-0.8c0.6,0.1,1.1,0.4,1,1c-0.1,0.4-0.5,0.9-1,0.7
					C15.6,124.6,15,124.5,14.8,123.9L14.8,123.9z M16.7,152.3c0.5,0.7,0.8,1.3,0,2c-0.3,0.3-0.5,0-0.7-0.2
					C15.2,153.2,16.5,153,16.7,152.3z M17,162.6c-0.3,0.5-0.3,1.4-1.1,1.6c-0.5-0.3-0.9-0.7-0.9-1.2c0-0.6,0.4-1.1,1-1.3
					C16.3,162.1,17.4,161.8,17,162.6L17,162.6z M16.2,159.2c-0.4-0.2-0.8-0.4-0.8-0.9c0-0.6,0.6-0.8,1.1-0.9
					c0.5-0.1,0.9,0.2,0.8,0.8C17.1,158.7,16.7,159.1,16.2,159.2z M18.1,132.5c0,0.4-0.2,0.7-0.7,0.7c-0.4-0.3-0.9-0.5-0.6-1.1
					c0.1-0.3,0.6-0.6,0.9-0.6C18.3,131.4,18.1,132.1,18.1,132.5z M19.3,121.9c-0.2,0.6-0.3,1.3-0.5,2.1c-1.1-0.4-1.3-1.2-1.5-2
					c-0.3-0.9,0.3-1.7,0.8-2.4c0.3-0.3,0.6-0.4,1,0C19.7,120.3,19.5,121.1,19.3,121.9L19.3,121.9z M20.2,127
					c0.1-0.2,0.7-0.3,0.8-0.2c0.8,1,0.1,1.8-0.4,2.6C19.7,128.7,19.7,127.9,20.2,127z M21,122.6c-0.1-0.5,0.3-0.8,0.7-0.9
					c0.5-0.1,0.7,0.3,0.8,0.7c0.2,0.6-0.3,0.8-0.7,0.9C21.2,123.3,21,122.9,21,122.6z M21.1,135.1c0.5,0,0.7,0.2,0.6,0.7
					c0,0.6-0.3,1.1-0.7,1.1c-0.5,0.1-0.7-0.5-0.7-1C20.4,135.4,20.5,135,21.1,135.1z M21.5,155.4c-0.7-0.1-1-0.6-1.1-1.1
					c-0.1-0.7,0.4-0.7,0.9-0.7c0.6,0,1.3,0.1,1.3,0.9C22.5,154.9,21.8,155.2,21.5,155.4L21.5,155.4z M22,121.2c-0.7,0-1.1-0.2-1-0.6
					c0.2-0.7,0.8-1.1,1.5-1.1c0.5,0,1.1,0.2,1.1,0.6C23.4,121.1,22.3,120.7,22,121.2L22,121.2z M234,150.7c-0.1,0.3-0.3,0.7-0.6,0.6
					c-0.4-0.1-0.8-0.4-0.8-1c0.1-0.4,0.4-0.3,0.7-0.3C233.9,150,234.1,150.2,234,150.7L234,150.7z M233.4,147.8
					c-0.7-1.4,0.6-1.8,0.6-2.7C234.2,146,234,146.8,233.4,147.8z M239.9,114l-3.5-0.2c-0.3,0.4-0.7,0.7-1.2,0.4
					c-0.3-0.2-0.4-0.8-0.1-1c0.4-0.5,0.9-0.4,1.3,0.2C237.4,113.7,238.6,112.8,239.9,114L239.9,114z M237.2,110.5
					c-0.1-0.6,0.4-0.8,0.9-0.7c0.9,0.2,1.1,1,1.1,1.7c0,0.4-0.5,0.7-0.8,1C237.7,112,237.3,111.3,237.2,110.5L237.2,110.5z
					 M240.3,99.7c-0.3,0-0.5-0.3-0.6-0.3c0-0.7,0.3-0.8,0.6-0.8c0.3,0,0.7,0.1,0.7,0.5C241,99.5,240.6,99.7,240.3,99.7L240.3,99.7z
					 M241.3,121.7c0.4,0,0.5,0.1,0.6,0.5c0.1,0.5-0.2,1-0.6,1.1c-0.4,0.2-0.7-0.3-0.7-0.6C240.5,122.2,241,122,241.3,121.7
					L241.3,121.7z M239,120.4c0.4,1.1,0.1,1.8-1,2.1C237.3,121.3,238.1,120.8,239,120.4z M237.7,117.9c-0.5,0-0.6-0.5-0.8-0.9
					c0-0.5,0.4-0.6,0.7-0.7c0.7-0.1,0.6,0.4,0.6,0.8C238.2,117.5,238.2,118,237.7,117.9z M234.5,104.4c-0.4,0-0.8-0.3-0.9-0.8
					c0-0.4,0.1-0.9,0.6-0.8c0.5,0.1,1.1,0.3,1.1,0.9C235.2,104.1,234.9,104.4,234.5,104.4L234.5,104.4z M235.9,117.9
					c0.4,0.9,1.7,1.8,0.3,2.7c-0.5,0.3-1.3,0.6-1.7-0.2C233.7,119,235.5,118.9,235.9,117.9z M236,133.7c-0.9-0.3-2.2-0.9-1.5-2.4
					c0.6-1.5,1.4-2.9,3.1-3.7c0.4,1.7-0.4,3.1-0.4,4.6C237.1,132.6,237.1,134.1,236,133.7L236,133.7z M238.2,189.8
					c-0.2-0.1-0.5-0.3-0.6-0.5c-0.2-0.5,0.3-0.4,0.5-0.4c0.2,0.1,0.4,0.3,0.8,0.5C238.5,189.6,238.3,189.8,238.2,189.8L238.2,189.8z
					 M238.9,163.6c-1.6-3,0.8-3.4,2.1-4.6c1.7-1.6,2,0.6,3,0.9c0.5,0.1,0.3,1.1,0.2,1.7c-0.2,0.9-1.2,0.6-1.5,0.4
					C240.9,161,239.8,161.7,238.9,163.6L238.9,163.6z M245.1,124.6c-0.1,0.4-0.4,0.7-0.7,1.1c-0.3-0.3-0.7-0.4-0.7-0.9
					c0-0.5,0.2-1,0.7-1C244.8,123.8,245.2,124.1,245.1,124.6L245.1,124.6z M244.9,120.3c0-0.4,0.3-0.5,0.6-0.5
					c0.3,0,0.6,0.1,0.5,0.6c-0.1,0.1-0.3,0.4-0.6,0.4C245.2,120.9,245,120.6,244.9,120.3L244.9,120.3z M247,128.8
					c-0.5,1.1-1,2-2.1,2.1c-0.7,0.1-1-0.4-2.1-3.4C244.1,128.6,245.5,128.7,247,128.8z M243.8,175.4c-0.7-0.2-1-0.7-0.9-1.3
					c0-0.3,0.4-0.6,0.6-0.9c0.4,0.4,0.9,0.8,1.1,1.3C244.8,175,244.2,175.2,243.8,175.4L243.8,175.4z M245.6,164.8
					c-0.5,0.1-0.9-0.1-0.9-0.7c0-0.5,0.4-0.8,0.9-0.7c0.3,0,0.6,0.2,0.9,0.3C246.3,164.3,246.1,164.7,245.6,164.8L245.6,164.8z
					 M246.1,135c-0.5-0.2-1-0.5-1-1.1c0-0.8,0.8-0.9,1.3-1.1c0.6-0.3,0.6,0.4,0.6,0.9C247.1,134.4,246.8,134.8,246.1,135L246.1,135z
					 M245.1,88.4c-1-1.3-1.7-2.3-1.7-3.9C245.4,85.2,245.2,86.6,245.1,88.4z M245.6,105.1c0.6,0,1,0.5,1.1,1c0.1,0.5-0.3,1-0.7,1
					c-0.7,0.1-0.8-0.7-1.3-1C244.8,105.5,245.1,105.1,245.6,105.1z M251.2,118.6c-0.3,0.3-0.7,0.4-0.9,0c-0.4-0.8-1-1.7,0.3-2.4
					C250.2,117.1,252.4,117.3,251.2,118.6z M251.6,112.7c0.2-0.2,0.3-0.3,0.5-0.1c0.6,0.8,0.7,1.7,0.8,2.1c0.2,1.2,0.1,2-0.5,2.1
					c-0.5,0.1-0.8-0.6-0.8-1.2c0-0.1,0-0.2,0-0.2C251.1,114.5,250.8,113.6,251.6,112.7L251.6,112.7z M250.7,105.9
					c-0.8,0-1.3-0.4-1.3-0.9c0-0.8,0.7-1.3,1.5-1.4c0.6-0.1,1.2,0.3,1.1,0.8C252,105.2,251.2,105.6,250.7,105.9L250.7,105.9z
					 M249.9,61.4c-0.5,0-0.6-0.3-0.6-0.8c0.1-0.2,0.1-0.6,0.5-0.6c0.5,0,0.7,0.3,0.8,0.7C250.6,61.1,250.3,61.4,249.9,61.4z
					 M249.5,173.4c-0.6-0.3-0.7-0.8-0.6-1.3c0-0.4,0-0.9,0.5-0.8c0.5,0.1,1,0.4,0.9,1.1C250.2,172.9,249.9,173.2,249.5,173.4z
					 M253.9,104.7c0.5-0.4,1-0.2,1.1,0.2c0.4,1.3-0.7,1.9-1.4,2.7C252.6,106.5,252.9,105.6,253.9,104.7z M254.6,163.9
					c-0.9-0.4-1.6-0.8-1.5-1.7c0-0.2,0.8-0.7,1.1-0.6C255,162.1,255,162.9,254.6,163.9z M257.5,75.9c-0.1-0.2-0.2-0.4-0.2-0.5
					c0.1-0.2,0.2-0.3,0.4-0.4c0.3-0.1,0.4,0.1,0.4,0.3C258.1,75.7,257.8,75.8,257.5,75.9L257.5,75.9z M259,88.5
					c-0.2,1.3-1.5,1.3-2.5,2c-0.2-0.4-0.7-0.9-0.6-1.2c0.3-0.9,0.9-1.8,2-1.9C258.6,87.3,259.1,87.8,259,88.5z M257.6,82.7
					c-0.1,0.8-0.5,1.8-1.4,1.7c-0.7-0.1-0.4-1-0.4-1.6c-0.1-0.8,0.2-1.5,1.2-1.5C258,81.4,257.7,82.2,257.6,82.7L257.6,82.7z
					 M256.2,108.5c0.6-0.9,1.7-1.3,2.5-1.8c1-0.6,1.5,1,2.4,1.6c-1.6,0.7-2.8,1.2-4.1,1.7c-0.5,0.2-1.1,0.3-1.4-0.4
					C255.4,109,255.9,108.8,256.2,108.5L256.2,108.5z M260.2,126.7c0.7-0.6,0.8,0.1,1.1,0.4c1.4,1.4,0.2,2.1-0.8,2.9
					C260,128.9,258.7,128,260.2,126.7L260.2,126.7z M260,135.5c0.2,0.7-0.5,1.6-0.6,1.6c-0.8-0.2-1-1-1.2-1.7
					c-0.1-0.6,0.3-0.9,0.8-0.9C259.6,134.4,260.1,134.7,260,135.5z M256,183.7c-0.3-0.1-0.6-0.5-0.6-0.8c0-0.5,0.4-0.9,0.8-0.9
					c0,0,0,0,0,0c0.6,0,0.4,0.5,0.5,0.8C256.7,183.2,256.7,183.8,256,183.7z M258.5,179.9c-0.1,0.3-0.4,0.4-0.6,0.7l-0.6-0.8
					c0-0.6,0.3-0.6,0.6-0.6C258.2,179.2,258.6,179.4,258.5,179.9z M260.6,161.9c-0.2,0.6-0.6,0.6-1,0.4c-0.5-0.4-1.1-0.3-1.6-0.3
					c-2,0.1-1.6-1.7-1.1-2.1c1.4-1.3,1.8-3,2.5-4.6c0.2-0.5,0.3-0.8,0.9-0.8c0.5,0,0.5,0.4,0.6,0.8c0.7,1.8,2,3.6-1.1,4.6
					c-0.4,0.1-0.9,0.9,0.1,1.1C260.4,161.2,260.9,161.2,260.6,161.9L260.6,161.9z M263.6,166.8c-1.1-0.1-2.5-1.5-2.6-2.8
					c-0.1-1.2,1.7-1.5,2.7-1.9c0.7-0.3,0.9,1.1,0.9,2.2C264.1,165,264.7,166.9,263.6,166.8z M264.6,139c-0.2-0.1-0.3-0.5-0.3-0.5
					c0.6-0.6,1.2-0.9,2.2-0.2C265.8,138.7,265.5,139.6,264.6,139z M264.6,132.5c0-0.8,0.7-0.6,1.1-0.6c0.4,0,1.1,0,1.1,0.5
					c-0.1,0.7-0.7,0.8-1.6,0.9C264.8,133.3,264.5,133.1,264.6,132.5L264.6,132.5z M269.2,172.4c-0.9,0.5-1.1-0.2-1.4-1
					c0.7-0.1,1.3-0.6,1.8,0.3C269.7,171.8,269.4,172.3,269.2,172.4z M272.6,110.3c0.7-0.4,1.4-0.3,2.2,0
					C274.1,110.6,273.4,110.7,272.6,110.3z M275.2,163.2c0.9-1.8,1.9-3.6,4.5-3c0.1,1.8-2.3,1.4-2,2.9c0.2,1,1.6,1.1,1.9,2.5
					c0.5,2.3,0.8,2.3-1.6,2.3C274,168,273.4,166.9,275.2,163.2L275.2,163.2z M281.6,94.6c0.7-0.9,0.9-2.2,1.3-3.3
					c0.1-0.4-0.1-1,0.6-0.9c0.6,0.1,1.1,0.6,0.9,1.1c-0.7,2.5-1.1,5.1-2.8,7.5C280.6,97.3,280.6,96,281.6,94.6L281.6,94.6z
					 M282.1,48c0.4,0,0.6,0.4,0.6,0.8c-0.1,0.3,0.1,0.6-0.4,0.7c-0.4,0-0.7-0.3-0.7-0.7C281.5,48.3,281.7,48,282.1,48L282.1,48z
					 M284.3,15.4c-0.1-0.7-1.2-1-0.4-1.9c0.5-0.6,1,0,1.1,0.2C285.9,14.6,284.4,14.7,284.3,15.4L284.3,15.4z M285.5,21.2
					c0.1,0.4-0.2,0.7-0.6,0.8c-0.6-0.1-1-0.7-1.2-1.2c-0.1-0.2,0.3-0.7,0.7-0.6C285,20.3,285.4,20.7,285.5,21.2z M285.7,85
					c-1,0.7-1.7,0.8-2.4,0.1c-0.2-0.2-0.4-0.6,0-0.7C284.2,83.9,284.9,84.2,285.7,85z M282.7,104.8c0.7,0.3,0.4,0.8-0.1,1.3
					c-0.4,0.4-0.8,0.8-1.2,0.1c-0.7-1.2-1.7-2.3-1.7-3.4c-0.2-0.9,0-1.3,0.4-1.3c0.4-0.1,0.7,0.3,0.7,0.7
					C280.9,103.3,281.3,104.4,282.7,104.8z M280.7,152.5c-0.3,0.2-0.5,0.5-0.8,0.5c-0.3,0.1-0.5-0.3-0.5-0.6c0-0.4,0.3-0.5,0.6-0.5
					C280.4,152,280.7,152.1,280.7,152.5z M279.8,94.2c-0.4,0-0.9-0.3-0.8-0.9c0.1-0.3,0.3-0.6,0.6-1c0.4,0.5,0.8,0.8,0.9,1.2
					C280.6,93.9,280.1,94.2,279.8,94.2L279.8,94.2z M282.7,173.2c-0.9,0.7-1.9,1.2-2.7,1.9c-0.5,0.4-0.8,0.7-1.3,0.2
					c-0.6-0.5-0.7-1.1-0.1-1.7c0.3-1.5,1.2-2.4,2.7-2.8c1.2-0.9,1.7,0.5,2.2,0.9C283.9,172.2,283.2,172.8,282.7,173.2L282.7,173.2z
					 M284.1,101.8c0-0.7,0.7-1.1,1.3-0.8c0.5,0.2,1.3,0.1,1.4,0.9c-0.4,0.5-0.8,1.3-1.5,1.2C284.7,102.9,284,102.4,284.1,101.8z
					 M285.5,148.5c0.4,0,0.9,0,0.8,0.5c-0.1,0.5-0.5,0.9-1,0.8c-0.3-0.1-0.7-0.5-0.7-0.8C284.4,148.3,285.1,148.6,285.5,148.5
					L285.5,148.5z M284.5,174.6c-0.2-0.3,1.4-3.3,1.8-3.3c0.9,0,1.1-0.4,0.8-1.1c-0.8-1.7,1.1-1.3,1.3-2.2c0.9,0.4,1.4,1,0.8,1.7
					c-1.2,1.7-2.5,3.3-3.7,4.9C285.3,174.9,284.9,175.3,284.5,174.6L284.5,174.6z M288.2,109.5c-0.5,0.1-0.7-0.5-1-0.7
					c0-0.7,0.5-0.6,0.8-0.6c0.4,0,1.1-0.2,0.9,0.6C288.9,109.1,288.5,109.5,288.2,109.5L288.2,109.5z M287.7,115.1v-2.2
					C288.5,113.6,288.6,114.2,287.7,115.1z M287.9,77.1c-1-1.1-1-2,0.3-2.9c0.3-0.2,0.7-0.6,0.9,0C289.7,75.6,288.7,76.3,287.9,77.1
					L287.9,77.1z M289.8,178.2c-0.4-0.4-0.8-0.6-0.7-1.2c0.1-0.3,0.3-0.6,0.6-0.4c0.3,0.1,0.8,0.3,0.7,0.8
					C290.3,177.7,290,177.9,289.8,178.2L289.8,178.2z M293.2,166.6c-0.6-0.1-0.7-0.7-0.8-1.2c-0.2-0.9,0.7-0.6,1.1-0.8
					c0.6-0.3,0.7,0.2,0.8,0.7C294.3,166,293.8,166.4,293.2,166.6L293.2,166.6z M293,91.7c0.3-0.3,1-0.6,1.4,0c0.7,1-0.3,1.6-0.8,2.9
					C293.3,93.3,291.9,92.7,293,91.7z M295.3,142.3l-0.8-1.5c0.2,0,0.5-0.1,0.6-0.1C296,141.1,295.3,141.8,295.3,142.3z M297,163.8
					c-0.6,0.1-0.7-0.5-1-0.7c0.1-0.7,0.4-1,0.9-1.1c0.5-0.1,0.9,0.4,0.9,0.8C297.9,163.4,297.4,163.7,297,163.8z M299.7,170.4
					c-0.5,0-1.2-0.2-1-0.8c0.3-0.6,0.7-1.4,1.5-1.5c0.6,0,1,0.5,0.9,1.1C301,169.9,300.5,170.4,299.7,170.4z M300.9,128.6
					c-0.4,0-0.7-0.3-0.7-0.8c-0.1-0.7,0.6-0.6,0.9-0.8c0.7-0.3,0.4,0.4,0.4,0.6C301.6,128.2,301.6,128.7,300.9,128.6L300.9,128.6z
					 M302.1,93.7c-0.1-0.4,0.5-0.9,0.9-0.8c0.6,0.2,1.4,0.3,1.5,1.1c0.1,0.6-0.5,0.9-1.1,1.1C302.7,94.9,302.2,94.4,302.1,93.7z
					 M303.5,112.3c-0.2,0-0.4-0.1-0.5-0.3c-0.2-0.5,0.2-0.7,0.5-0.7c0.2,0,0.3,0.2,0.3,0.1C303.9,112.1,303.8,112.3,303.5,112.3z
					 M304.5,131.8c-0.3,0.1-0.5-0.2-0.6-0.6c-0.1-0.5,0.1-0.7,0.6-0.8c0.3,0,0.7-0.1,0.7,0.3C305.3,131.3,304.9,131.7,304.5,131.8z
					 M306.3,167.8c-0.7-0.1-0.7-0.6-0.8-1c-0.1-0.6,0.1-1,0.7-1.1c0.5-0.1,0.9,0.1,0.8,0.7C307.1,167.1,306.7,167.4,306.3,167.8
					L306.3,167.8z M306.5,133.7c-0.4-0.2-0.9-0.5-0.7-1.2c0.1-0.4,0.3-1,0.7-1c0.7,0.1,0.7,0.9,0.8,1.5
					C307.4,133.3,307.1,133.7,306.5,133.7z M308,129.6c0.2,0.3,0.1,0.8-0.3,0.9c-0.9,0.2-0.8-0.7-1.1-1.2c0,0,0,0-0.1,0l0-0.1
					c-0.1-0.7-0.9-0.5-1.2-0.9c-0.4-0.5-1.9,0.1-1.3-1.3c0.3-0.8,3.1-1.7,3.6-1.1c0.7,0.6,0.4,1.3-0.2,2c-0.4,0.4-0.7,0.9-1,1.4l0,0
					C307.2,128.7,307.7,128.9,308,129.6z M305.6,51.2c-0.3-0.3-0.4-0.6,0-0.9c1.4-1,2.2,0.3,3.7,1C307.7,51.8,306.6,52.6,305.6,51.2
					L305.6,51.2z M307.6,53.7c-0.1,0.5-0.3,0.9-0.7,1c-0.2,0-0.5-0.5-0.6-0.6c-0.1-0.7,0-1.1,0.7-1.1
					C307.4,53.1,307.6,53.2,307.6,53.7z M310.3,134.4c-0.4,0.2-0.1,1.2-0.9,1.1c-0.5,0-0.9-0.4-0.8-0.9c0.1-0.6,0.6-0.8,1.1-0.9
					C310.1,133.7,310.4,133.8,310.3,134.4z M366.7,164c-0.6-0.6-0.3-1.1-0.3-2.1C367,162.9,366.8,163.4,366.7,164z M369.1,124.1
					c-0.6,0-0.6-0.6-0.8-0.9c-0.3-0.7,0.4-0.6,0.8-0.6c0.3,0,0.8-0.2,0.9,0.3C370,123.5,369.5,123.8,369.1,124.1L369.1,124.1z
					 M379.8,153.7c-0.1-0.5,0.3-0.6,0.6-0.6c0.5,0,0.8,0.1,0.7,0.6c0,0.4-0.3,0.8-0.6,0.7C380.2,154.5,379.9,154.1,379.8,153.7z
					 M381.4,159.6c-0.3,0.2-0.6,0-0.7-0.3c-0.1-0.9-0.1-1.7,1.1-1.9C382.2,158.2,382.3,159,381.4,159.6z M390.6,72.9
					c-0.5,0.1-0.6-0.3-0.6-0.7c0-0.5,0.3-0.7,0.7-0.6c0.3,0,0.6,0,0.6,0.9C391.2,72.6,390.9,72.8,390.6,72.9z M395.8,154.2
					c-0.1-0.1-0.4-0.5-0.3-0.8c0.1-0.4,0.4-0.7,0.7-1.1c0.2,0.3,0.5,0.6,0.6,0.9C397,153.6,396.8,153.9,395.8,154.2L395.8,154.2z
					 M406.2,115.1c-0.2-0.1-0.3-0.3-0.5-0.5c0.2-0.2,0.4-0.4,0.6-0.4c0.3,0,0.6,0.2,0.5,0.5C406.8,115.1,406.5,115.3,406.2,115.1z
					 M408.9,54.2c-0.2-0.2-0.2-0.6,0-0.8c1.1-0.8,1.8,0.1,2.7,0.6C410.7,54.4,409.8,54.9,408.9,54.2L408.9,54.2z M412.5,63.4
					c0.5-0.1,0.7,0.2,0.7,0.6c0,0.2-0.3,0.5-0.5,0.6c-0.3,0.1-0.5-0.1-0.5-0.5C412.1,63.9,412.1,63.5,412.5,63.4z M411.7,35
					c0.4,1.4,0.1,2.4-1.7,5.9C408.3,39,408.8,37.2,411.7,35z M409.4,43.9c0.5,0.1,0.9,0.6,0.9,1.2c0,0.5-0.5,1-0.8,0.9
					c-0.5-0.2-0.8-0.8-1.1-1.2C408.6,44.1,409,43.8,409.4,43.9L409.4,43.9z M406.5,46.5c0.7,0,1.3,0.2,1.4,0.9c0,0.7-0.6,0.9-1.3,1
					c-0.7,0-1-0.3-1-0.9C405.6,46.8,405.8,46.5,406.5,46.5L406.5,46.5z M404.3,61.5c0.3-1.1,1.3-1.7,2.3-1.9
					c0.3-0.1,1.5,0.3,1.3,0.9c-0.4,1.2-1.9,1.1-2.7,1.8C404.5,62.3,404.1,62,404.3,61.5z M402.1,43.9c0.4,0,0.7,0.5,0.7,1
					c0,0.4-0.3,0.7-0.7,0.8c-0.4,0-0.6-0.3-0.7-0.7C401.4,44.3,401.8,43.9,402.1,43.9L402.1,43.9z M402.4,148c0.2,0.2,0.2,0.8-0.2,1
					c-1,0.5-1.3-0.5-1.9-1.1C401,147.7,401.8,147.2,402.4,148z M399.5,47.1c0.4,0.1,0.6,0.4,0.6,0.9c0,0.5-0.5,0.9-0.7,0.8
					c-0.4-0.1-0.8-0.5-0.7-1.1C398.8,47.3,399,47,399.5,47.1z M398.3,138.9c0.1,0.6-0.1,1-0.5,1c-0.7,0-0.7-0.7-0.7-1.1
					c0-0.2,0.5-0.7,0.7-0.7C398.4,138,398.1,138.6,398.3,138.9L398.3,138.9z M397.1,51.7c0-0.1,0.3,0,0.4,0c0.4,0.6,0.4,1.2-0.3,1.9
					C396.7,52.9,396.7,52.3,397.1,51.7L397.1,51.7z M396.4,71.3c0,0.5-0.2,0.7-0.6,0.7c-0.4,0-0.7-0.1-0.8-0.6
					c0-0.4,0.1-0.7,0.6-0.7C396.1,70.7,396.3,70.8,396.4,71.3L396.4,71.3z M395.5,59c0,0.5-0.3,0.6-0.6,0.9l-0.6-0.9
					c0.1-0.4,0.4-0.7,0.8-0.7C395.5,58.3,395.5,58.7,395.5,59L395.5,59z M394.1,46.2c0.5,0.1,1,0.4,0.9,1.1
					c-0.3,0.5-0.5,1.4-1.2,1.3c-0.5,0-1.1-0.7-1-1.3C392.8,46.6,393.3,46,394.1,46.2z M391.5,37.9c-0.6,0.5-1.1,1.1-2,0.6
					C389.9,37.7,390.5,37.6,391.5,37.9z M388.4,39.3c0,1.3-1.2,1.4-2,2.1C385.9,39.3,387.7,40,388.4,39.3z M382.6,145.3
					c0.3,0,0.7,0,0.7,0.3c0.1,0.5-0.3,0.9-0.8,1c-0.4,0.1-0.5-0.2-0.5-0.5C382,145.6,382.1,145.3,382.6,145.3L382.6,145.3z
					 M377.3,65.8c1.5,0.5,2.4,2.1,4.2,2.3c0.3,0,0.7,0.5,0.5,0.9c-0.3,0.5-0.5,1.4-1.4,1.2c-1.8-0.4-3.6-0.9-5.7-1.4
					c0.5-0.3,0.7-0.4,0.8-0.4c0.6-0.3,1.6,0.6,1.8-0.7c0-0.3-0.1-0.7-0.4-0.6c-0.8,0.2-1.9-0.8-2.3,0.6c-0.2,0.5-0.2,0.9-0.8,0.6
					c-0.5-0.3-0.3-0.8-0.1-1.2C374.5,65.2,375.8,65.3,377.3,65.8L377.3,65.8z M372.9,45.6c0.6,0.1,1.3,0.3,1.1,1.1
					c-0.1,0.4-0.5,0.7-0.7,1c-0.4-0.4-1-0.7-1.1-1.5C372.3,45.9,372.4,45.6,372.9,45.6L372.9,45.6z M369.1,48.9
					c0.8,0.1,1,0.8,0.9,1.5c0,0.5-0.2,0.8-0.8,0.9c-0.6-0.4-0.9-1-1-1.6C368.2,49.3,368.6,48.8,369.1,48.9z M368.5,145
					c-0.8,0.4-1.7,0.4-2.5,0.1C366.9,144.6,367.5,144.8,368.5,145z M363.2,21.7c0.9-0.1,1.3,0.9,1.5,2.1h-2.5
					C362.9,23.1,362.3,21.8,363.2,21.7z M359,35.8c0.7-1.1,1.6-2.2,2.5-3.2c0.2-0.2,0.6-0.3,0.8-0.2c0.2,0.1,0.3,0.7,0.2,0.8
					c-1.1,1-1.3,2.6-2.2,3.7c-0.1,0.2-0.4,0.2-0.5,0.3C358.5,37.3,358.8,36.2,359,35.8L359,35.8z M358.5,39.2
					c0.6-0.2,0.8,0.5,0.8,0.8c-0.1,0.7-0.4,1.3-1,1.6c-0.7-0.2-0.8-0.7-0.9-1.2C357.3,39.7,358,39.4,358.5,39.2L358.5,39.2z
					 M353.7,29.7c-1.3-1.3-3.9-1.1-3.9-3.8C350.8,27.5,354.7,26,353.7,29.7z M350.8,38.4c0.7,0,1.2,0.2,1.3,0.8
					c-0.1,0.7-0.4,1.3-1,1.2c-0.7-0.1-1.2-0.7-1.3-1.4C349.7,38.5,350.3,38.4,350.8,38.4z M352.2,173.8c-1.6,0.8-1.9-0.6-2.9-0.8
					C350.9,171.5,351.3,173,352.2,173.8z M347.4,42.3c0.1-0.2,0.4-0.4,0.6-0.5l0.4,0.6c-0.2,0.3,0,0.8-0.4,0.7
					C347.6,43,347.2,42.7,347.4,42.3z M347.3,127.3c0.6-0.1,0.8,0.3,0.9,0.8c0.1,0.4-0.3,0.5-0.6,0.5c-0.4,0.1-0.7-0.1-0.7-0.6
					C347,127.8,346.9,127.4,347.3,127.3z M344.5,176.7c-1.5-1.2-3.5-1.3-4.6-3.1C343,172.5,344,173.2,344.5,176.7z M338.5,80.1
					c0.5,0,0.5,0.5,0.7,0.9c0.1,0.4-0.1,0.7-0.5,0.8c-0.5,0.1-0.6-0.4-0.6-0.8C338.1,80.6,338,80.1,338.5,80.1z M337.8,98.6
					c0.4,0,0.8,0,0.7,0.6c-0.1,0.3-0.4,0.6-0.6,0.8c-0.5,0-0.7-0.2-0.7-0.6C337.2,98.9,337.3,98.6,337.8,98.6L337.8,98.6z
					 M328.8,37.4c0.5-0.1,0.8,0.3,0.9,0.8c-0.4,0.6-0.7,1.3-1.4,1.3c-0.4,0-0.9-0.5-0.7-1C327.7,37.9,328.2,37.5,328.8,37.4z
					 M329.2,157.3c0.1,0.1,0.2,0.5,0.1,0.6c-0.5,0.7-1.1,0.4-2,0.1C328,157.3,328.5,157,329.2,157.3L329.2,157.3z M327.7,160.7
					c0.5-0.4,1.2,0.4,1.1,1c-0.1,1.2-1.3,1.7-1.8,2.9c-0.6-0.6-1.4-1.3-1.3-1.5C326.2,162.2,326.8,161.2,327.7,160.7z M324.6,16
					c0.4,0,1.1,0,1,0.6c-0.1,0.5-0.7,0.9-1,1.3c-0.6,0.1-0.9-0.3-0.9-0.6C323.7,16.6,323.6,15.9,324.6,16L324.6,16z M324.3,144.7
					c-0.3,0.6-0.5,1.4-1.2,1.4c-0.4,0-1-0.6-1.1-1.1c-0.1-0.4,0.3-1,1-1C323.7,143.9,324,144.3,324.3,144.7z M322.7,131.1
					c-0.1,0.6-0.7,0.9-1.3,1c-0.4-0.1-0.9-0.3-0.8-0.7c0.1-0.6,0.4-1.1,1.2-1C322.3,130.5,322.9,130.6,322.7,131.1L322.7,131.1z
					 M321,108.3c0.7,0.2,1.6,0.8,1.7,1.4c0.1,0.6-0.9,1-1.6,0.8c-0.7-0.2-1.4-0.5-1.8-1.1C319.7,108.6,320.6,108.2,321,108.3
					L321,108.3z M319.7,158.3c0.3-0.1,1,0.1,0.7,0.5c-0.5,1-1.4,1.7-2.3,2.3c-0.6,0-0.9-0.3-0.8-0.7
					C317.6,159.1,318.7,158.6,319.7,158.3z M313,32.6c0.2-0.3,0.4-0.6,0.6-0.9c0.1-0.3,0-0.7,0.2-0.8c0.3-0.3,0.2-1.2,1-1
					c0.2,0,0.6,0.1,0.6,0.2c0.2,0.7-0.3,0.9-0.7,1.3c-0.3,0.3-0.7,0.5-1.1,0.8c0,0.2,0,0.4,0,0.7c0,0.4,0.2,0.9-0.4,1.1
					c-0.1,0-0.3,0-0.4-0.1C312.5,33.3,312.6,33,313,32.6L313,32.6z M313.1,38.1c0.2,0.3-0.2,0.8-0.5,0.9c-1.4,0.3-1.4-1.2-2.8-1.6
					C311.7,36.4,312.5,37.2,313.1,38.1z M306.4,13.3c0.1-0.1,1.4-0.3,1.7,0.6c0.4,1,2.2,1.2,1.7,2.6c-0.3,0.6-1.5,0.9-2.1,0.1
					c-1-1.3-1.3-0.5-1.6,0.4c-0.2,0.5-0.2,1.1-0.5,1.5c-0.4,0.5-0.4,1.7-1.4,1.5c-1.1-0.2-0.8-1.3-0.9-2.5
					C302.8,15.4,305.1,14.7,306.4,13.3z M303.2,32.4c0.4,0.1,0.8,0.3,1.1,0.6c0.2,0.2-0.1,0.6-0.5,0.6l-1.2-0.6
					C302.9,32.7,303.1,32.3,303.2,32.4z M300.6,35c1,0.6,2.3,0.8,2.9,1.9c0.2,0.4-0.3,0.9-0.5,0.8c-1.1-0.6-2.1-1.3-3.3-2
					C300,35.4,300.4,34.9,300.6,35z M300.6,92.5c0.2,0,0.5,0.2,0.5,0.3c0,0.5-0.3,0.9-0.8,1c-0.3,0.1-0.6-0.1-0.6-0.4
					C299.8,92.8,300.1,92.5,300.6,92.5z M298.2,129c0.2-0.4,0.7-0.7,1.1-0.1c0.2,0.3,0.4,0.7,0,1c-1.2,0.7-1.8,2.5-4.1,1.7
					c-0.1-0.1-1.3,0.9-1.4-0.6c-0.1-1.7,1.2-1,1.9-1C296.7,130,297.6,130,298.2,129L298.2,129z M296.3,88.4c0.1,0.4-0.3,0.6-0.6,0.7
					c-0.4,0-0.6-0.2-0.6-0.5c0-0.4,0-0.8,0.5-0.7C295.9,87.9,296.2,88.2,296.3,88.4L296.3,88.4z M296,81.8c0.6,1.1-0.7,1.4-1.4,1.9
					c-0.5,0.5-1.1,1-1.9,0.6c-0.5-0.3-0.6-0.7-0.4-1.2c0.3-0.9,1.1-0.9,1.9-0.7c0.2-1-0.9-1.4-1-2.4C294.9,79.5,295.5,80.9,296,81.8
					z M291.9,63.1c0.2-0.2,0.5-0.4,0.8-0.2c0.5,0.6,1.3,1.1,1.1,2.1c-0.1,0.5-0.3,1-0.7,1.3c-0.6-0.2-0.7-0.8-0.9-1.3
					C291.9,64.5,291.1,63.9,291.9,63.1z M292.4,73.7c0.2,1.5,2.4,3-0.1,4.5c-0.9-1.2-1.1-2.6-1.6-3.9c-0.3-0.6,0.1-1,0.6-1.2
					C291.8,72.8,292.3,73,292.4,73.7z M289.9,36.9c0.6-0.2,1.3,0.6,1.3,1c-0.1,0.7-0.8,1.2-1.9,1.3c-0.5,0.1-1.2-0.4-1-1
					C288.5,37.6,289.3,37.1,289.9,36.9L289.9,36.9z M287.7,67c0.5,0,0.9,0.5,0.9,1c0,0,0,0,0,0c-0.1,0.7-0.3,1.1-0.8,1
					c-0.5-0.1-1.1-0.1-1-0.9C286.8,67.4,287.2,66.9,287.7,67L287.7,67z M287.1,88.3c0.1,0.4-0.4,0.7-0.9,0.8c-0.8-0.3-0.9-1-0.8-1.7
					c0.1-0.5,0.3-1,0.8-0.8C286.9,86.9,286.9,87.7,287.1,88.3L287.1,88.3z M286.3,75.2c-0.1,0.4-0.3,0.9-0.8,0.9
					c-0.4,0-0.6-0.5-0.5-0.9c0.1-0.4,0.5-0.6,0.7-0.9C286.4,74.5,286.4,74.8,286.3,75.2L286.3,75.2z M281.7,10.5
					c0.5-1.4,1.8-1.8,3.1-2.2c0.5-0.1,1.1,0.5,0.9,0.8c-0.7,1.2-2,1.7-3,2.3C282.1,11.3,281.6,11,281.7,10.5L281.7,10.5z
					 M281.3,17.8c0.3-0.5,0.7-0.9,1.1-1.3c0.2,0.3,0.6,0.6,0.6,0.9c-0.1,0.6-0.6,1-1.1,1.2C281.6,18.3,281.1,18.2,281.3,17.8
					L281.3,17.8z M281.2,80c0,0.3-0.1,0.7-0.3,0.7c-0.4,0.1-0.6-0.2-0.6-0.6c0-0.3,0.1-0.6,0.7-0.6C281.1,79.5,281.3,79.7,281.2,80z
					 M280,75.8c0.3,0,0.6,0.2,0.6,0.5c0.1,0.6-0.5,0.4-0.7,0.5c-0.3-0.1-0.7,0-0.7-0.3C279.2,76,279.6,75.8,280,75.8L280,75.8z
					 M277.6,84.3c0.2-0.4,0.3-1.2,0.9-1.1c0.5,0,0.8,0.5,0.8,0.9c0,0.1,0,0.1,0,0.2c-0.2,0.4-0.7,0.8-1,1.1
					C277.9,85.1,277.4,84.8,277.6,84.3z M277.5,78.1c-0.1,0.6-0.4,0.9-0.9,0.9c-0.7,0-1.2-0.3-1.3-1c-0.1-0.7,0.7-0.5,1-0.6
					C276.9,77.1,277.2,77.7,277.5,78.1z M275.9,35c0.4,0,0.7,0.2,0.7,0.7c0,0.2,0.1,0.7-0.4,0.3c0.1-0.9-1.1,0.4-0.9-0.5
					C275.3,34.9,275.6,35,275.9,35z M274,7.3c0.3,0.1,0.6,0.4,0.7,0.7c0.2,0.5-0.3,0.7-0.7,0.7c-0.4,0-0.7-0.2-0.7-0.7
					C273.4,7.5,273.5,7.1,274,7.3L274,7.3z M273.3,56.4c0.2-0.9,1.1-0.9,1.7-1.4c0.1-0.1,0.9,0.3,1,0.7c0.3,0.7,0,1.3-0.5,1.9
					l-1.4,1.5c0.5,1.2,2.1,2.4,0.3,3.8c-0.3,0.2-0.3,1.1-0.9,0.6c-0.6-0.4-1.3-0.9-1.7-1.5c-0.3-0.4,0.1-0.8,0.6-1.1
					c0.7-0.4,1.8-0.7,1.5-1.9C272.8,58.4,273.1,57.4,273.3,56.4L273.3,56.4z M271.7,17.9c0.6,0.3,1.1,0.7,1.2,1.4
					c0.1,0.7-0.4,0.9-0.8,1.2c-1-0.2-1.2-1-1.5-1.7C270.3,18.1,271.4,18.4,271.7,17.9L271.7,17.9z M270,158.9c0,0.8-1.1,1.4-2.2,1.2
					c-0.9-0.2-1.8-0.6-1.8-1.7c0-1,0.7-1.2,1.6-1C268.5,157.9,270,157.6,270,158.9z M267.7,105.2c0.5-0.1,0.9,0.3,1,0.8
					c0.1,0.4-0.1,0.7-0.5,0.8c-0.6,0-0.8-0.4-0.8-0.9C267.3,105.6,267.4,105.2,267.7,105.2L267.7,105.2z M267.3,108.2
					c0,0.1-0.1,0.3-0.2,0.4c-0.8,0.3-1.2-0.3-1.6-0.9c-0.8,0.1-1.3-0.2-1.3-1c0-0.2,0.4-0.6,0.6-0.6c0.6,0.1,0.9,0.5,0.8,1.1
					c0.1,0.1,0.3,0.2,0.4,0.3C266.2,108,267.2,107.3,267.3,108.2L267.3,108.2z M264.8,27.4c0.3,0.8,0.5,1.5,0,2.4
					C264.5,28.7,264.5,28.1,264.8,27.4z M265.8,51.5c-1.3,2.1-2.6,0.2-4,0.1C263.2,50.6,264.4,50.5,265.8,51.5z M262.1,104
					c0.3,0,0.6,0,0.6,0.6l-0.6,0.8c-0.2-0.2-0.5-0.4-0.6-0.7C261.3,104.2,261.7,104.1,262.1,104z M260.8,94.2
					c-0.8-1-1.7-1.4-0.9-2.4c0.4-0.4,0.9-0.5,1.2-0.2C261.9,92.6,260.7,93,260.8,94.2L260.8,94.2z M260.8,79
					c0.1,0.5-0.6,0.8-0.9,0.8c-0.5,0-1-0.2-1.2-0.8c0.1-0.5,0.4-0.9,0.9-0.9C260.2,78,260.8,78.3,260.8,79L260.8,79z M259,67.9
					c-0.4,0-0.9-0.1-0.8-0.6c0.2-0.5,0.6-0.8,1-1.2c0.1-0.1,0.5,0.4,0.8,0.6C259.8,67.4,259.6,67.8,259,67.9z M259.2,39
					c0.3,0.8,0.1,1.6,0.4,2.4C258.6,40.7,259.2,39.8,259.2,39z M258.3,58.2c0.8,0.4,0.6,1.3,0.8,2.2c-0.7-0.7-1.7-0.6-1.8-1.5
					C257.2,58.7,258.1,58.1,258.3,58.2L258.3,58.2z M257.4,68.4c0.1,0,0.4,0.5,0.7,0.8c-0.2,0.6-0.4,1.1-1,1.2
					c-0.5,0.1-0.5-0.5-0.6-0.8C256.5,69,257,68.7,257.4,68.4L257.4,68.4z M256.2,19.8c0.3-0.1,0.6,0.1,0.6,0.8c0,0-0.1,0.3-0.4,0.4
					c-0.5,0.2-0.7-0.3-0.8-0.6C255.6,20.2,255.9,19.9,256.2,19.8z M255.8,93.2c0.1,0.5-0.3,0.9-1,1c-0.7-0.8-1.9-1.2-2.1-2.5
					c0-0.2,0.3-0.9,0.7-0.5C254.2,91.9,255.5,92.1,255.8,93.2L255.8,93.2z M253.9,63.3c0.3,0,0.6,0.2,0.5,0.5
					c-0.1,0.3-0.4,0.5-0.7,0.9c-0.2-0.4-0.5-0.7-0.6-1C253,63.1,253.6,63.3,253.9,63.3L253.9,63.3z M254.4,80.8
					c0.6,0.6,0.9,1.3-0.2,2c-1.2,0.8-1.3-0.3-1.5-0.8c-0.4-1.2-1.7-2.3-1.2-3.6C252.5,79.3,253.5,80,254.4,80.8z M252.4,25.9
					c0.7,0.1,0.6,0.6,0.6,1c-0.1,0.4-0.3,0.8-0.7,1c-0.5-0.4-0.7-0.8-0.6-1.4C251.7,26,252,25.8,252.4,25.9L252.4,25.9z M251.4,19.7
					c0.4,0.4,0.4,0.9,0,1.2c-1,0.7-1.6-0.4-2.7-0.5C249.7,19.3,250.5,19,251.4,19.7z M247.5,65.1c-1.2-1.1-1.1-2-0.4-3.1
					c0.2-0.3,0.5-0.3,0.8,0C248.9,63.1,248.2,64.1,247.5,65.1z M246.6,19.7c0.3,0.1,0.6,0.5,0.7,0.8c0.1,0.3-0.2,0.5-0.3,0.5
					c-0.7,0.1-0.9-0.2-1-0.6C246,20,246.1,19.6,246.6,19.7z M244.8,22.2c3.5,2.2,3.7,2.8,2.2,6.3c-1.9-0.4-0.8-1.5-0.6-2.4
					C246.2,24.7,243.8,24.2,244.8,22.2L244.8,22.2z M244.9,28.7c0,0.6-0.6,1-1,1.2c-0.9-0.1-1-0.5-1-1.1c0-0.7,0.4-1.1,0.9-1.1
					C244.3,27.7,244.8,28.2,244.9,28.7z M242.6,25.7c0.4,0,0.7,0.1,0.8,0.6c0,0.4-0.1,0.7-0.6,0.8c-0.4,0-0.7-0.2-0.8-0.6
					C241.9,26,242.1,25.7,242.6,25.7z M243.5,107.8c0,0.1-0.3,0.4-0.5,0.4c-0.8,0.1-1-0.5-1.5-1.5C242.7,107,243.3,107,243.5,107.8z
					 M236.9,37.3c0.7-0.1,1,0.3,1.2,0.9c0,0.6-0.7,0.6-1.1,0.8c-0.4,0.2-0.9-0.3-0.9-0.8C236.1,37.8,236.3,37.4,236.9,37.3
					L236.9,37.3z M237.3,77c0.5,0.3,1.3,0.3,1.4,1.1h0.1v0.1c0.8-0.3,1.4,0.5,2.3,0.5c0.6,0,0.6,0.6,0.2,0.9c-0.6,0.5-0.5,2-1.9,1.3
					c-0.7-0.4-1.3-0.9-1.9-1.3c-0.1,0-0.1,0-0.1,0v-0.1c-0.8-0.4-1.5-0.9-1.3-2C236.1,76.6,236.9,76.8,237.3,77L237.3,77z M233,85
					c0.9-0.8,1.7-1.7,2.6-2.6c0.2-0.2,0.3-0.8,0.8-0.3c0.2,0.2,0.3,0.5,0.4,0.7c-0.8,1.5-1.9,2.6-3.1,3.6c-0.5,0.5-0.5-0.2-0.7-0.4
					C232.6,85.7,232.5,85.4,233,85L233,85z M232.2,117.6c0.5,0,0.9,0.4,0.7,0.9c-0.1,0.5-0.1,1.1-0.9,1.2c-0.4-0.3-0.8-0.7-0.8-1.3
					C231.3,118,231.7,117.6,232.2,117.6L232.2,117.6z M229.9,109.2c0.5,0,1.2,0.2,1.4,0.9c0.1,0.7-0.3,0.9-1,0.9
					c-0.6,0-1.2,0.1-1.6-0.6C229,109.9,229.3,109.2,229.9,109.2z M228.5,123.2c0-0.5,0.3-0.6,0.8-0.6c0.5,0,0.7,0.2,0.6,0.7
					c-0.1,0.4-0.3,0.7-1.5,0.6C228.6,123.9,228.5,123.6,228.5,123.2L228.5,123.2z M229,100.8c0.2,0,0.4,0.3,0.4,0.4
					c-0.1,0.5-0.4,0.8-0.9,0.9c-0.4,0.1-0.4-0.3-0.5-0.6C228.1,101,228.5,100.7,229,100.8L229,100.8z M229.9,126.6
					c0.5-0.1,1.2,0.6,1.1,0.9c-0.4,1-1.5,1.3-2.3,2c-0.4,0.3-0.6-0.2-0.7-0.6C228.4,127.9,228.7,126.8,229.9,126.6z M225.2,10.2v3.2
					C224.7,12.2,224.7,11.4,225.2,10.2z M225.6,96.2c0.8,0.2,0.8,1,1,1.6c0.2,0.7-0.7,0.7-1,1.1c-0.6-0.4-0.8-1-0.8-1.7
					C224.8,96.6,224.8,96,225.6,96.2z M218.5,115.7c0.5,0.1,0.8,0.6,0.8,1.2c0,0.6-0.2,1.3-0.7,1.3c-0.7,0-0.8-0.7-0.7-1.4
					C218,116.4,217.6,115.6,218.5,115.7z M219.1,110c-0.3-0.3-0.6-0.5-0.7-0.8c-0.1-0.3,0.1-0.5,0.5-0.5c0.4,0,0.8,0.2,0.8,0.6
					C219.6,109.5,219.3,109.7,219.1,110z M218.8,105.8c-0.5-0.1-0.9-0.6-0.9-1.2c0-0.6,0.4-1.1,1-1c0.5,0.1,0.9,0.5,0.9,1.1
					C219.5,105.2,219.4,105.8,218.8,105.8z M217.8,9.2c0.2,0.2,0.4,0.5,0.6,0.8c-1.1,1.1-1.3,2.7-2.6,3.6c-0.3,0.2-0.5,0.3-0.7-0.1
					c-0.1-0.3-0.4-0.8-0.3-0.8c1.2-0.8,0.9-2.5,2-3.3C217.1,9.1,217.4,8.8,217.8,9.2L217.8,9.2z M213.5,90.6c4,4.2,4,4.2,0.7,6.8
					C214.6,95,209.9,93.5,213.5,90.6z M213.8,120.8c0.7,0.6,0.4,1.4,0.1,2.6c-0.7-0.9-1.3-1.4-0.8-2.2
					C213.3,120.9,213.6,120.6,213.8,120.8L213.8,120.8z M215,2.7c0.9,0.1,1,1.1,1,1.9c0,0.7-0.2,1.3-0.9,1.6c-1-0.3-1.2-1.3-1.3-2
					C213.8,3.7,214.2,2.6,215,2.7L215,2.7z M211.9,11.7c0.4-0.5,0.7-1.3,1.4-1.3c0.5,0,0.4,0.6,0.3,0.9c-0.2,0.6-0.7,1.1-1.3,1.3
					C211.8,12.4,211.7,12,211.9,11.7z M201.9,35c0.3,0,0.6,0.1,0.6,0.5c0,0.4-0.3,0.7-0.7,0.7c-0.2,0-0.4-0.4-0.5-0.5
					C201.3,35.1,201.7,35,201.9,35z M201.3,71.3c0.4,0.1,0.9,0.3,0.8,0.9c-0.1,0.4-0.4,0.9-0.9,0.8c-0.5,0-0.7-0.5-0.8-0.9
					C200.5,71.6,200.8,71.2,201.3,71.3L201.3,71.3z M198.9,40.4c0.9,0.1,1.2,1,1.4,1.7c0.2,0.6-0.4,0.9-0.8,1.2
					c-1-0.4-1.1-1.3-1.5-2C197.7,40.7,198.4,40.3,198.9,40.4L198.9,40.4z M197.9,29c0.2,0.7,0.3,1.2-0.1,1.7c0,0.1-0.5,0-0.6-0.2
					C196.8,29.8,197.2,29.4,197.9,29L197.9,29z M195.5,32.2c0.6,0,0.7,0.4,0.7,0.9c0,0.5-0.4,0.8-0.7,0.7c-0.4-0.1-0.8-0.4-0.7-0.9
					C194.7,32.3,195.1,32.2,195.5,32.2L195.5,32.2z M193.4,102.6c0.4-1.2,1.3-0.9,2.4-0.7c-0.6,0.8-0.4,2.1-1.7,2
					C193.6,103.9,193.2,103.2,193.4,102.6z M193.6,159.1c0.2,0.4-0.2,1.1-0.6,1.1c-0.9,0-1.1-0.9-1.6-1.5
					C192.4,158.1,193.2,158.1,193.6,159.1z M192.2,65.4c0-0.4,0.4-0.6,0.8-0.6c0.4,0,0.4,0.4,0.4,0.7c0,0.4-0.2,0.5-0.7,0.5
					C192.5,65.9,192.2,65.7,192.2,65.4L192.2,65.4z M192.1,33c0.1-0.2,0.5-0.2,0.8-0.2c0.6,0,0.4,0.5,0.4,0.9c0,1.6-0.8,2.9-1.5,4.2
					c-0.1,0.3-0.4,0.4-0.7,0.2c-0.7-0.5-0.6-1.2-0.5-2.1C190.4,34.7,191.6,34,192.1,33L192.1,33z M190.1,40.8
					c0.1,0.4-0.3,0.7-0.7,1.1c-0.1-0.2-0.3-0.4-0.3-0.6c-0.1-0.4,0.1-0.7,0.5-0.8C189.7,40.5,190.1,40.7,190.1,40.8L190.1,40.8z
					 M189.1,22c0.7,0.1,0.5,0.6,0.6,1c0,0.6-0.3,1.1-0.8,1.4c-0.2-0.5-0.7-0.8-0.7-1.4C188.3,22.5,188.2,21.9,189.1,22z M186.7,40.5
					c0.4,0.1,1.1-0.2,1,0.5c0,0.5-0.3,1.3-1,1.3c-0.4,0-0.7-0.4-0.7-1C185.9,40.7,186.1,40.4,186.7,40.5L186.7,40.5z M185.1,139.5
					c0.2-0.5,0.3-1.1,1-1c0.5,0.1,0.3,0.6,0.3,0.7c0.1,0.8-0.2,1.3-0.6,1.3c-0.4,0-0.7-0.3-0.7-0.7C185,139.7,185,139.6,185.1,139.5
					L185.1,139.5z M183.5,35c0.3,0,0.8,0.4,0.8,0.6c-0.1,0.5-0.5,0.9-0.9,1.1c-0.5,0-0.7-0.3-0.6-0.7C182.8,35.6,183,35.1,183.5,35z
					 M178.3,22.5c0.5,0,0.7,0.2,0.7,0.7c0,0.6-0.3,1.1-0.9,1.1c-0.6,0-0.4-0.5-0.4-0.8C177.6,22.9,177.7,22.4,178.3,22.5z
					 M177.1,14.6c0.2,0,0.5,0.2,0.5,0.3c0.1,0.5-0.3,0.7-0.6,0.8c0,0-0.2-0.3-0.2-0.3C176.7,14.9,176.7,14.6,177.1,14.6L177.1,14.6z
					 M176.2,54.5c0.6,0,0.6,0.6,0.9,0.9c0,0.5-0.5,0.9-0.7,0.8c-0.4-0.1-0.8-0.5-0.7-1.1C175.8,54.8,175.8,54.4,176.2,54.5z
					 M173.2,38.3c0.4-0.4,0.9,0.1,1,0.4c0.3,1,1.8,1.8,0.7,3.3c-0.8-0.9-0.9-2-1.9-2.6C172.9,39.4,172.9,38.6,173.2,38.3z
					 M171.8,32.2c0.4,0,0.7,0.3,0.7,0.7c-0.1,0.3-0.3,0.7-0.7,0.7c-0.4,0-0.7-0.3-0.7-0.7C171.1,32.5,171.4,32.2,171.8,32.2
					C171.8,32.2,171.8,32.2,171.8,32.2z M166.6,127c0.6-0.4,0.6,0.4,0.8,0.7c0,0.5-0.4,0.8-0.8,0.8c-0.4,0-0.9-0.3-0.9-0.8
					C165.6,127,166.3,127.2,166.6,127z M166.1,66.2c0-0.5,0.3-0.7,0.7-0.7c0.3,0,0.7-0.1,0.6,0.4c-0.1,0.5-0.3,0.9-0.8,0.9
					C166.2,66.8,166.1,66.5,166.1,66.2z M167.9,130.6c0.2,0,0.4,0.4,0.6,0.6l-1.3,1.1c-0.5-0.1-0.7-0.3-0.6-0.7
					C166.7,130.8,167.2,130.4,167.9,130.6L167.9,130.6z M170.3,134.1l-2.9-0.5C168.4,133.2,169.4,132.9,170.3,134.1z M170.2,147.4
					c0.7-0.3,0.6,0.5,0.9,0.7c-0.5,0.9-0.8,1.9-1.8,2.3c-0.5,0.2-1.3-0.4-1.2-1C168.4,148.3,169.3,147.8,170.2,147.4L170.2,147.4z
					 M170.2,146.2c-0.5,0.5-0.9-0.3-1.1-0.7c-0.3-0.7,2.1-3.1,2.9-3c0.4,0.1,0.5,0.3,0.5,0.8C171.8,144.2,171.1,145.3,170.2,146.2z
					 M171.6,43.6c0.1,0.5-0.3,0.8-0.7,1.1c-0.3,0-0.5-0.2-0.6-0.5c-0.1-0.5,0.1-0.9,0.6-1.1C171.2,42.8,171.5,43.3,171.6,43.6z
					 M169.9,14.7c0.4-0.2,0.8,0.3,0.8,0.6c-0.1,1-1.1,1-1.7,1.6c-0.5-0.1-0.9-0.3-0.9-0.8C168.2,15.1,169.2,15,169.9,14.7
					L169.9,14.7z M169,33.3c0.5-0.1,0.8,0.5,0.8,1c0,0.7-0.5,0.8-0.8,1.1c-0.7-0.3-1-0.6-1-1.3C167.9,33.4,168.7,33.4,169,33.3
					L169,33.3z M167.7,57.7c0.3,0,0.6,0.1,0.6,1c0,0-0.3,0.3-0.7,0.3c-0.4,0.1-0.6-0.3-0.6-0.7C167,57.7,167.3,57.6,167.7,57.7z
					 M167,55.3c0,0.7-0.3,1.5-0.9,1.5c-0.7,0-1.3-0.7-1.4-1.5c-0.1-0.7,0.7-1.1,1.1-1.6C166.3,54.1,167,54.4,167,55.3z M165.6,79.2
					c0,0.6-0.3,1-0.9,1.1c-0.5,0.1-0.6-0.4-0.9-0.6c0.5-0.3,0.6-1.1,1.3-1.1C165.6,78.5,165.6,78.9,165.6,79.2z M165,31
					c0.3,0.1,0.9,0,1,0.8c-0.2,0.2-0.4,0.6-0.6,0.7c-0.6,0.2-0.7-0.3-0.7-0.8C164.7,31.5,164.5,30.9,165,31L165,31z M165.2,34.7
					c0.3-0.4,0.7-0.2,1,0.1c0.9,1.6-0.8,2.1-1.1,3.5C163.6,36.8,164.4,35.7,165.2,34.7L165.2,34.7z M163.7,19
					c0.1-0.1,0.2-0.2,0.4-0.2c0.4,0.5,0.2,1.1,0,1.7C164,20,163,19.7,163.7,19L163.7,19z M164.1,64.6c-0.1,0.8-0.8,1.2-1.4,1.5
					c-0.9-0.2-1.6-0.7-1.5-1.3c0.2-0.6,0.9-1.2,1.8-1.1C163.7,63.8,164.2,64.1,164.1,64.6z M162.2,151c-1.2-0.7-0.5-1.8-1-2.5
					c0-0.8-1.3-1.8-0.4-2.1c1.1-0.5,0.3,1.4,1.2,1.7C162.8,148.9,162.3,149.9,162.2,151L162.2,151z M162.8,51
					c0.1,0.5-0.2,0.7-0.6,0.6c-0.4,0-0.7-0.3-0.5-0.6c0.2-0.3,0.5-0.5,0.8-0.6C163,50.3,162.8,50.8,162.8,51L162.8,51z M161.6,32.3
					c0.1-0.1,0.5,0,0.6,0.1c0.9,0.8,0.3,1.4-0.3,2.4C161.3,33.8,160.8,33,161.6,32.3L161.6,32.3z M161.4,59.2
					c-0.1,0.5-0.5,1-1.3,0.8c-0.4-0.1-0.9-0.3-0.8-1c0.1-0.5,0.5-1,1.1-0.8C161,58.2,161.5,58.5,161.4,59.2z M155,79.3
					c0.8,0.9,0.3,1.7-0.5,2.8c-0.3-1.1-1.4-1.7-0.6-2.6C154,79.4,154.6,78.8,155,79.3L155,79.3z M154,67.5c0.1-0.3-0.1-0.9,0.4-0.9
					c0.7,0,1,0.6,1,1.3c0,0.4-0.1,0.9-0.6,0.8C154.3,68.6,153.9,68.2,154,67.5z M157.3,130c0.4-0.1,0.4,0.3,0.5,0.5
					c0,0.9-0.5,1.2-1.2,1.3c-0.3,0.1-0.7,0-0.7-0.4C156.1,130.7,156.6,130.2,157.3,130z M156.4,62.6c0.2-0.5,0.6-0.4,1-0.3
					c0.4,0.1,0.4,0.4,0.2,0.7c-0.2,0.3-0.3,0.7-0.8,0.6C156.4,63.4,156.3,63,156.4,62.6z M156.8,155.3c0.2,0.5-0.3,1.1-0.8,1.5
					c-0.8-0.4-1.5-0.9-1.7-1.7c-0.1-0.3,0.2-0.9,0.8-1C155.9,154,156.5,154.7,156.8,155.3L156.8,155.3z M158.5,174.7
					c-0.8,0.4-1.7,0.4-2.6,0.1C156.8,174.3,157.6,174.5,158.5,174.7z M157.7,153.4c-0.3-1.4-1.6-2.3-0.3-3.6
					c0.4-0.4,0.9-0.2,1.2,0.2C159.5,151.3,158.8,152.2,157.7,153.4z M157.7,76.9c-0.3-0.2-0.5-0.5-0.2-1c0.8-1.3,1.3,0.7,2,0
					C159,76.9,158.6,77.6,157.7,76.9L157.7,76.9z M156.9,31.8c0,0,0.4-0.9,0.6-0.9c1.3,0.1,1.7,1.2,2.7,2.1
					C158.6,33.1,157.7,32.5,156.9,31.8L156.9,31.8z M160,27.4c0.1,0.9-0.4,1.5-0.6,1.4c-1-0.4-2.3-0.7-2.7-1.8
					c-0.3-0.6,0.5-0.7,1-0.8C159,26,159.1,27.4,160,27.4L160,27.4z M158,22c0.7,0,0.6,0.5,0.7,0.9c0.1,0.9-0.6,0.9-1.2,1
					c-0.5,0-0.8-0.4-0.9-0.9C157,22.6,157.3,22,158,22z M156.7,53.1c0.1,0.9-0.5,1.2-0.9,2c-0.5-0.7-1.1-1.4-0.8-1.9
					C155.4,52.7,156.2,53.1,156.7,53.1L156.7,53.1z M154.6,33.3c0.3,0,0.7,0.4,0.6,0.8c-0.1,0.9-0.9,0.9-1.5,0.9
					c-0.4,0-0.9,0-0.9-0.6C153.1,33.5,153.9,33.4,154.6,33.3z M153,82.3c0.1-0.1,0.5,0.1,0.6,0.2c0.1,0.5,0.1,1.1-0.7,1.4
					C152.7,83.4,152.4,82.8,153,82.3z M153.1,132.8c0.4,0,0.4,0.3,0.5,0.6c0.1,0.5-0.3,0.8-0.6,1.1c-0.2-0.3-0.6-0.6-0.6-0.9
					C152.3,133.2,152.6,132.8,153.1,132.8L153.1,132.8z M146.2,51.3c0.9,0.4,1.7,1.1,2.2,1.9c0.2,0.3-0.8,0.9-1.5,1.2
					c-0.8-0.3-1.6-0.8-1.6-1.9C145.2,51.8,145.6,51,146.2,51.3z M140,70.2c0.2,0,0.5,0.2,0.5,0.3c0.1,0.3,0,0.6-0.2,0.6
					c-0.6,0-0.8,0-0.9-0.4C139.4,70.3,139.8,70.2,140,70.2L140,70.2z M140.6,135.4c0,0.3-0.1,0.6-0.5,0.6c-0.4,0-0.5-0.3-0.5-0.6
					c0-0.4,0.1-0.8,0.6-0.7C140.6,134.7,140.7,135.1,140.6,135.4z M139.2,126c0,0.4-0.2,0.7-0.8,0.7c-0.1-0.2-0.3-0.4-0.4-0.7
					l0.9-0.6C139.1,125.7,139.2,125.8,139.2,126z M137.2,39.2c0.4-0.3,0.4-1.3,1.2-0.7c0.6,0.5,0.3,1.1-0.1,1.6
					c-0.5,0.6-1,1.2-1.7,1.9C136.3,40.8,136.3,39.9,137.2,39.2z M136.9,71.2c0.5-0.1,0.5,0.4,0.6,0.8c-0.1,0.3,0.1,0.9-0.5,0.8
					c-0.3,0-0.8-0.4-0.9-0.6C136.1,71.8,136.4,71.4,136.9,71.2L136.9,71.2z M136,19.7c-0.2,1.3-1.4,1.2-2,2.3
					C134,20.2,134.5,19.5,136,19.7z M133.8,27.3c0.7-0.9,1.4-0.3,2.5,0.1c-0.9,0.7-1.5,1.4-2.4,0.9
					C133.5,28.1,133.6,27.6,133.8,27.3L133.8,27.3z M134.6,57.6c0.1-0.3,0.2-0.6,0.4-0.7c0.4-0.2,0.4,0.3,0.5,0.4
					c0,0.4,0,0.8-0.4,0.8C134.8,58.2,134.6,58,134.6,57.6L134.6,57.6z M134.6,66.5c0,0.3-0.1,0.4-0.4,0.4c-0.4-0.1-0.6-0.3-0.5-0.6
					c0-0.2,0.3-0.4,0.5-0.4C134.7,65.8,134.6,66.2,134.6,66.5z M134.3,46.7c1.2-0.3,0.9,0.9,0.8,1.3c-0.4,1.4-1,2.7-1.6,4.1
					C132.4,50.8,133.1,47,134.3,46.7z M132.6,56.8c0.4,0,0.7,0.1,0.6,0.5c0,0.2-0.2,0.4-0.3,0.5c-0.2-0.2-0.5-0.3-0.6-0.6
					C132.3,57.2,132.5,56.9,132.6,56.8L132.6,56.8z M132.3,44.8c0,0.4-0.2,0.8-0.7,0.6c-0.3-0.2-0.6-0.4-0.5-0.9
					c0.1-0.4,0.3-0.9,0.9-0.8C132.4,44,132.4,44.5,132.3,44.8L132.3,44.8z M132.2,32.3c0.5,0,0.7,0.7,0.6,1.3
					c-0.1,0.5-0.3,0.9-0.9,0.8c-0.4-0.2-1-0.3-0.9-0.9C131.1,33,131.6,32.3,132.2,32.3L132.2,32.3z M130.7,26.3
					c0.4,0.1,0.7,0.6,0.6,1.1c-0.1,0.4-0.3,1-0.8,0.9c-0.4-0.1-0.7-0.6-0.6-1.1C130,26.7,130.3,26.2,130.7,26.3z M129.4,59.6
					c0.5,0,0.5,0.5,0.5,0.9c0,0.5-0.4,0.7-0.6,0.9c-0.6,0-0.7-0.3-0.6-0.6C128.6,60.2,128.8,59.7,129.4,59.6L129.4,59.6z
					 M127.2,39.7c-0.1-0.6,0-1.1,0.8-1c0.7,0.1,0.5,0.6,0.6,1.4c0,0.3-0.4,0.8-0.9,0.8C126.9,40.9,127.3,40.1,127.2,39.7L127.2,39.7
					z M127.9,50.3c0.1,0,0.5,0.4,0.5,0.6c0,0.3-0.2,0.7-0.7,0.7c-0.3-0.2-0.8-0.3-0.7-0.7C127.1,50.6,127.5,50.4,127.9,50.3z
					 M125.4,64.3c0,0.2-0.2,0.3-0.3,0.6c-0.2-0.3-0.5-0.5-0.5-0.7c0-0.1,0.2-0.4,0.4-0.4C125.3,63.7,125.4,64.1,125.4,64.3
					L125.4,64.3z M105.8,33.2c0.2-0.1,0.7-0.1,0.8,0.1c0.5,0.6,0.1,1.1-0.6,1.8C106.2,34.2,105,33.8,105.8,33.2z M87.6,29
					c-1.2-0.8-0.9-2.1-1.3-3.1C87,26.7,88.5,27.3,87.6,29z M85.9,29.6c0.4-0.1,0.7,0.2,0.6,0.6c-0.1,0.3-0.4,0.6-0.6,0.9l-0.7-0.6
					C85.2,29.8,85.6,29.7,85.9,29.6L85.9,29.6z M85.3,47.5c0.2,0.3,0.6,0.5,0.6,0.8c0,0.3-0.3,0.6-0.5,1c-0.4-0.2-0.8-0.4-0.7-0.8
					C84.8,48.1,85.1,47.8,85.3,47.5L85.3,47.5z M86,78.8c-0.1,0.2-0.3,0.4-0.6,0.8c-0.2-0.4-0.4-0.6-0.3-0.8
					c0.1-0.2,0.4-0.5,0.6-0.5C86,78.1,86.1,78.5,86,78.8L86,78.8z M84.4,153.3c0.8,0.2,2,0.2,2.1,1.3c0.1,0.9-1,1.4-1.5,1.5
					c-0.9,0.1-1.3-0.8-1.7-1.6C83.7,154.1,83.6,153.1,84.4,153.3z M79.2,38.6c0.1-0.3,0.4-0.5,0.7-0.8c0.2,0.3,0.5,0.6,0.5,1
					c0,0.3-0.4,0.5-0.6,0.8C79.5,39.2,79,39.1,79.2,38.6L79.2,38.6z M76.1,44.3c0.3,0.1,0.7,0.3,0.6,0.8c-0.1,0.4-0.3,0.7-0.7,0.6
					c-0.4-0.1-0.6-0.4-0.5-0.8C75.4,44.5,75.6,44.2,76.1,44.3L76.1,44.3z M73.3,117.4c0.3-0.6,0.7-1.4,1.6-1.3
					c0.5,0,0.6,0.4,0.5,0.8c-0.2,0.8-0.7,1.2-1.4,1.5C73.5,118.2,73.1,117.8,73.3,117.4z M71.8,58.2c0.4,0.1,0.3,0.4,0.4,0.7
					c0,0.4-0.2,0.7-0.6,0.7c-0.3,0-0.6-0.2-0.5-0.5C71.1,58.6,71.2,58.1,71.8,58.2L71.8,58.2z M69,113.9c0.4-0.5,0.1-1.7,1.3-1.5
					c0.6,0.1,0.6,0.5,0.4,0.8c-0.3,0.6-0.4,1.5-1.1,1.8C69.2,114.7,68.7,114.3,69,113.9z M68.3,151.9c0.1-0.5,0.6-0.6,1.1-0.6
					c0.4,0,0.6,0.3,0.4,0.6c-0.2,0.4-0.4,0.8-0.9,0.8C68.6,152.5,68.2,152.3,68.3,151.9L68.3,151.9z M68.1,123.1
					c-0.4-0.1-0.6-0.4-0.6-0.8c0-0.4,0.2-0.6,0.6-0.5c0.4,0.1,0.6,0.4,0.6,0.8C68.8,122.9,68.5,123,68.1,123.1L68.1,123.1z M68.1,35
					c0.4,0,0.8,0,0.7,0.5c-0.1,0.5-0.4,0.8-0.9,0.8c-0.4,0-0.4-0.3-0.4-0.5C67.5,35.3,67.7,35,68.1,35z M67,118
					c0.2-0.4,0.8-0.7,1.4-0.3c1.2,0.8-0.1,1.5-0.3,2.4C67.7,119.3,66.3,119.1,67,118z M62,141.3c0,0.6-0.3,1-0.8,1.2
					c-0.4-0.2-1.1-0.3-1-0.8c0.1-0.5,0.2-1.3,0.8-1.4C61.6,140.2,62,140.7,62,141.3L62,141.3z M60.8,135.4c-0.6-0.3-1.1-0.7-1-1.4
					c0-0.2,0.6-0.6,0.9-0.6c0.6,0,1,0.4,0.9,1.1C61.5,135,61.3,135.2,60.8,135.4L60.8,135.4z M60.6,128.6c-0.3-0.7-1.3-1.1-0.6-1.9
					c0.3-0.3,0.9-0.7,1.2-0.3C61.9,127.2,61,127.9,60.6,128.6z M61.1,124.3c0,0.3-0.1,0.6-0.5,0.6c-0.5-0.1-0.7-0.5-0.8-1
					c-0.1-0.5,0.3-0.4,0.6-0.4C61,123.4,61.1,123.8,61.1,124.3L61.1,124.3z M60.9,110.2c-1,0.4-1.9,0.3-3.4,0.1
					C59,109.9,59.8,110,60.9,110.2z M54.3,124.2c0.7,0,0.8,0.7,0.8,1.4c0,0.7,0,1.6-0.9,1.5c-0.8,0-0.4-1-0.6-1.5
					C53.8,125.1,53.3,124.2,54.3,124.2L54.3,124.2z M48.2,141.7c-0.3-1.2-1.5-2-0.5-3.1c0.2-0.2,0.5-0.4,0.7-0.1
					C49.3,139.5,49.1,140.5,48.2,141.7z M49.7,149.9c0.9,1,1.1,1.9,0.4,2.9c-0.4,0.5-0.6,0.1-0.9-0.2
					C48,151.5,49.2,150.9,49.7,149.9z M46,148.1c-0.2,1,2.5,0.8,0.9,2.3c-0.4,0.4-0.7,1.5-1.6,0.6C44.2,149.8,45.6,149.1,46,148.1z
					 M45.4,145.7c0-0.6,0.2-0.9,0.8-0.8c0.5,0,0.7,0.2,0.6,0.6c0,0.6-0.3,1-0.7,1C45.7,146.5,45.4,146.1,45.4,145.7z M48.3,132.1
					c0,0.4-0.3,0.7-0.8,0.8c-0.4,0-0.6-0.4-0.7-0.9c-0.1-0.5,0.2-0.7,0.6-0.7C47.9,131.4,48.3,131.6,48.3,132.1L48.3,132.1z
					 M47.6,128.7c-0.1,0.3-0.4,0.6-0.6,0.8c-0.5-0.1-0.6-0.3-0.7-0.7c-0.1-0.5,0.2-0.7,0.7-0.7C47.4,128.1,47.8,128.2,47.6,128.7
					L47.6,128.7z M46.7,101.4c0.5,0,0.5,0.4,0.5,0.8c0,0.5-0.3,0.7-0.8,0.8c-0.2-0.2-0.6-0.5-0.6-0.8
					C45.7,101.6,46.3,101.4,46.7,101.4L46.7,101.4z M46.3,135.6c0.8-0.2,1.3,0.6,1.1,1c-0.2,0.4-1.1,0.7-1.7,0.8
					c-0.6,0.1-0.8-0.5-0.9-1C45,135.3,45.8,135.7,46.3,135.6z M43.3,120.8c0.2-0.7,1-0.8,1.5-0.3c1.1,0.9,0.3,1.9-0.1,3
					C43.8,122.6,42.9,122,43.3,120.8z M43.9,131.3c-0.1,1.2,0.2,2.3-0.4,3.3C43,133.5,42.6,132.5,43.9,131.3z M43.5,153.8
					c0,0.5-0.3,0.9-0.7,1.1c-0.3-0.2-0.7-0.3-0.7-0.8c0-0.6,0.3-0.8,0.9-0.9C43.4,153.2,43.5,153.4,43.5,153.8z M40.1,35.6
					c1.1,0.7,1.6,3.2,0.8,4.1c-0.5,0.6-1-0.2-1-0.3C40.7,38.1,39.2,36.8,40.1,35.6L40.1,35.6z M40.3,80.6c1-0.3,1.7,0.1,1.9,1.2
					c0.6,0.7,0.5,1.5,0.1,2.3c-0.8,0.3-0.4,2.1-1.4,1.7c-1-0.4-2-1.6-2.3-2.6C38.4,82.4,39.1,81,40.3,80.6L40.3,80.6z M41.5,145.3
					v3.1C41.1,147.4,41.1,146.3,41.5,145.3z M41.2,118.4c0,0.5-0.4,0.8-0.9,0.9c-0.6,0.2-0.6-0.6-0.9-0.7c-0.1-0.8,0.4-0.9,0.8-0.9
					C40.7,117.7,41.2,117.8,41.2,118.4L41.2,118.4z M37.3,79.5c0.6,0,0.9,0.3,1,0.8c0.2,0.7-0.4,0.9-0.9,1.5c-0.3-0.6-0.6-1-0.7-1.4
					C36.5,79.9,36.6,79.5,37.3,79.5L37.3,79.5z M36.3,121.9c0.2-0.4,0.9-0.2,1.2,0.1c0.9,0.9,0.3,1.6-0.3,2.7
					C36.6,123.5,35.8,122.8,36.3,121.9z M36.2,147.1V145C36.8,145.8,36.4,146.5,36.2,147.1z M36.7,99.9c0.4-0.1,0.7,0,0.8,0.5
					c0.1,0.6-0.3,0.9-0.7,1.3c-0.6-0.1-1-0.4-1.1-0.8C35.6,100.2,36.2,100,36.7,99.9z M30.7,33.7c0.5-0.3,0.6,0.4,0.7,0.7
					c0.2,0.5-0.2,0.9-0.6,1c-0.4,0.2-0.7-0.3-0.9-0.7C30.1,34.4,30.3,33.9,30.7,33.7L30.7,33.7z M27.1,58.7c0,0.4-0.4,0.4-0.7,0.4
					c-0.5-0.1-0.5-0.4-0.5-0.8c0-0.3,0.1-0.6,0.5-0.6C26.9,57.8,27.2,58.2,27.1,58.7z M25.2,49.3c0.7,0,1.1,0.4,1.2,0.8
					c0.1,0.9-0.3,1-0.8,1c-0.6,0-1-0.2-1-0.9C24.6,49.8,24.5,49.3,25.2,49.3z M25.3,68.7c0.4,0.1,0.7,0.4,0.5,0.8
					c-0.1,0.3-0.5,0.5-0.7,0.7c-0.6-0.2-0.7-0.5-0.7-1C24.6,68.8,24.9,68.6,25.3,68.7L25.3,68.7z M25.3,150.9
					c0.5-0.1,0.7,0.2,0.7,0.6c0,0.7-0.1,1.2-0.8,1.5c-0.5,0-0.6-0.3-0.6-0.7C24.5,151.7,24.4,151,25.3,150.9z M25.4,158.7
					c-0.6-0.4-1.4-0.9-1.2-1.7c0.4-1.3,1.5-2.2,2.7-2.9c0.3-0.2,0.8,0.4,0.9,0.8C27.8,155.4,25.7,158.7,25.4,158.7L25.4,158.7z
					 M27.7,163.3c-0.2,0-0.6-0.4-0.6-0.5c0-0.6,0.5-1.1,1-1.2c0.3-0.1,0.5,0.2,0.5,0.7C28.7,162.7,28.4,163.3,27.7,163.3L27.7,163.3
					z M28.5,152.3c-0.7,0-0.7-0.4-0.7-0.9c0.1-0.4-0.1-0.9,0.5-0.9c0.6,0.1,0.9,0.5,0.9,1.1C29.2,152.1,28.9,152.3,28.5,152.3
					L28.5,152.3z M28.8,144.5v-2.6C29.2,142.6,29.3,143.4,28.8,144.5z M28.9,47.4c-0.4-0.1-0.7-0.6-0.7-1.1c0.1-0.3,0.5-0.7,0.8-0.7
					c0.7-0.1,0.5,0.5,0.6,0.9C29.6,47,29.6,47.6,28.9,47.4L28.9,47.4z M29.7,157.6c-0.2-1.2-0.4-2.2,1.2-2.8
					c0.9-0.3,0.7,0.5,0.7,0.6C31.9,157,30.8,157.2,29.7,157.6z M32.8,42.8c-0.1,0.7-0.6,1.1-1.3,1c-0.3-0.1-0.6-0.4-0.7-0.5
					c0-1.1,0.8-1.5,1.3-1.6C32.6,41.5,33,42.2,32.8,42.8L32.8,42.8z M33.4,163.8c-0.3,0-0.6-0.2-0.5-0.5c0-0.3,0.2-0.6,0.4-0.7
					c0.4-0.2,0.5,0.2,0.5,0.5C33.8,163.4,33.8,163.7,33.4,163.8L33.4,163.8z M34.6,159.2c-0.4-0.2-0.8-0.4-0.8-0.9
					c0-0.4,0-0.8,0.5-0.8c0.4,0.1,0.8,0.4,0.9,0.9C35.2,158.8,35,159.1,34.6,159.2z M36.8,164.7c-0.4-0.5-0.2-1-0.1-1.8
					C37.4,163.6,37.6,164,36.8,164.7z M36.8,160.6c-0.3,0.3-0.6,0.7-0.9,0.3c-0.3-0.3-0.4-0.8,0.1-1.2c0.5-0.5,1.3-0.7,1.1-1.7
					c-0.5-2.7,1.2-2.7,3.1-2.4C40,158.1,38.1,159.1,36.8,160.6L36.8,160.6z M39.9,125.7c-0.8-0.1-0.9-1-1-1.8
					c-0.1-0.7,0.3-1.2,0.9-0.8c0.5,0.3,1.6,0,1.3,1.3C40.9,125,40.5,125.8,39.9,125.7L39.9,125.7z M41.4,156.9c0.5,0,1.1,0.4,1,1
					c-0.1,0.5-0.1,1.3-0.9,1.4c-0.6-0.1-0.8-0.6-0.7-1.1C40.8,157.7,40.3,156.8,41.4,156.9z M41.6,165.8c-0.4,0.1-0.5-0.1-0.7-0.4
					c0-0.4,0.1-0.6,0.5-0.6c0.2,0,0.5,0.1,0.5,0.3C42.1,165.5,41.9,165.7,41.6,165.8L41.6,165.8z M45.2,166.6
					c-0.5,0.1-1.4,0.4-1.7-0.3c-0.3-0.6-0.2-1.3,0.5-1.8c0.9-0.8,1.8-1.7,1.1-3.3c-0.9,0.4-1.8,0.9-2.9,0.8
					c-1.2-0.1-1.4-0.9-0.7-1.4c1.7-1.1,1.7-3.7,4.4-3.9c1-0.1,0-1.5,0.1-2.4c1.2,0.4,2.4,0.7,1.3,2.4c-0.4,0.7-0.1,1.7,0.7,1.9
					c2.9,0.8,1,2,0.3,3.1c-0.1,0.2-0.6,0.2-0.5,0.9c1.3-0.7,1.8,1.1,3.2,0.7C49.4,165.2,47.4,166,45.2,166.6L45.2,166.6z M50,72.5
					c0-0.1-0.3-0.4-0.4-0.7c-0.2-0.5,0.2-0.6,0.6-0.6c0.4,0,0.7,0.2,0.7,0.7C50.9,72.1,50.8,72.4,50,72.5L50,72.5z M52.1,120.8
					c0.5,0,0.7,0.2,0.7,0.7c0.1,0.6-0.3,0.8-0.7,1.1c-0.2-0.3-0.6-0.6-0.6-0.9C51.3,121.2,51.4,120.7,52.1,120.8z M53,145.6
					c0,0.1-0.4,0.1-0.6,0c-1.2-0.8-0.4-1.7-0.2-2.7C53.5,143.7,53.4,144.6,53,145.6L53,145.6z M53.4,135.9c-0.3-0.1-0.7-0.4-0.6-0.8
					c0.1-0.3,0.4-0.6,0.7-0.9c0.3,0.3,0.7,0.6,0.7,1.1C54.1,135.7,53.9,136.1,53.4,135.9L53.4,135.9z M55.2,138.8
					c-0.7-0.2-1-0.6-1-1.2c0-0.7,0.5-1.1,1.2-1.1c0.7-0.1,0.7,0.4,0.7,0.9C56,138.1,55.6,138.5,55.2,138.8z M57,162.2v-2.7
					C57.5,160.4,57.5,161.3,57,162.2z M56.7,143c-0.7,0-1.1-0.4-1.2-1c0-1,0.7-0.8,1.1-0.8c0.6,0,1.1,0.3,1.1,0.9
					C57.7,142.6,57.3,143,56.7,143L56.7,143z M58.3,159.9c-0.1-1,0.2-1.1,0.6-1.1c0.3,0,0.7-0.1,0.6,0.4c-0.1,0.4-0.2,0.9-0.8,0.9
					C58.5,160,58.3,159.8,58.3,159.9L58.3,159.9z M59.7,161.6c-0.1,0.2-0.3,0.4-0.6,0.7c-0.1-0.3-0.3-0.4-0.3-0.6
					c-0.1-0.3,0-0.6,0.4-0.6C59.6,161,59.8,161.3,59.7,161.6z M60.3,165.7c-0.4,0-0.8-0.2-0.6-0.7c0.2-0.5,0.7-0.7,1.3-0.7
					c0.4,0,0.5,0.2,0.5,0.6C61.3,165.4,61,165.7,60.3,165.7L60.3,165.7z M62.2,162c-0.6,0-0.7-0.2-0.7-0.6c0-0.3,0.1-0.6,0.4-0.7
					c0.5-0.1,0.7,0.3,0.8,0.6C62.9,161.8,62.5,161.9,62.2,162L62.2,162z M59.5,152.1c-0.3,0.3-0.7,0.9-1.3,0.3
					c-0.5-0.4-0.6-1.1-0.3-1.5c1.3-1.8,2.8-3.4,4.7-4.5c1.4-0.7,1.2,0.7,1.6,1.1c0.1,0.6-0.4,0.8-0.7,1.1
					C62.2,149.8,60.9,151,59.5,152.1L59.5,152.1z M63.8,154.9c0.8,1,0.2,1.8,0.2,2.4L63.8,154.9z M65.7,159.3
					c-0.2,0.4-0.4,0.8-1,0.8c-0.3-0.2-0.7-0.4-0.6-0.8c0.1-0.5,0.6-0.6,1.1-0.6C65.6,158.8,65.8,159.1,65.7,159.3L65.7,159.3z
					 M66.9,164.7c-0.8-0.8-1.1-1.6-0.3-2.5c0.4-0.4,0.9-0.4,1.2,0C68.5,163.5,67.5,164,66.9,164.7L66.9,164.7z M67.9,168.4
					c-0.5-0.3-0.8-0.6-0.8-1.1c0-0.6,0.4-1,1-1c0.5,0,0.9,0.6,0.8,0.9C68.7,167.7,68.2,168,67.9,168.4L67.9,168.4z M67.1,159.1
					c-0.5,0.3-1-1.2-0.7-1.4c0.9-1.2,2-2.3,3.2-3.2c0.6-0.4,1.3,0.1,1.9,0.8C70,156.7,68.7,158.1,67.1,159.1L67.1,159.1z
					 M71.4,158.3c0.8-0.7,1.2-0.1,1.3,0.3c0.6,2.3-2,1.9-2.5,3.3C68.5,159.9,70.2,159.3,71.4,158.3L71.4,158.3z M71.6,171.1
					c-0.6,0.3-1.2-1.1-1.1-1.6c0.3-1.4,1.7-1.9,2.9-2.2c0.4-0.1,1.1,0.7,1.8,1.2C73.9,169.5,72.8,170.6,71.6,171.1z M76.1,158.1
					c-0.5,0-2.9-2.8-2.8-3.3c0.2-0.5,0.6-0.8,1.1-0.6c1.1,0.5,2.1,1.3,2.4,2.6C76.9,157.3,76.7,157.8,76.1,158.1L76.1,158.1z
					 M77.2,145.6c-0.5,1.6-0.4,3.4-1.6,4.8c-0.3,0.4-0.6,1-1.2,0.8c-0.7-0.2-0.1-1-0.3-1.2c-0.2-2.1,1.3-3.3,1.8-4.9
					c0.1-0.4,0.5-0.2,0.8-0.1C77,145.1,77.3,145.3,77.2,145.6z M77.6,137.1c-0.1,0.3-0.2,1-0.7,0.9c-0.3,0-0.6-0.4-0.6-0.9
					c-0.1-0.5,0.1-0.8,0.6-0.7C77.3,136.5,77.8,136.7,77.6,137.1L77.6,137.1z M79,122.1c0.4,0,0.6,0.2,0.5,0.5
					c-0.1,0.3-0.4,0.5-0.7,0.8c-0.3-0.3-0.6-0.6-0.6-0.8C78.2,122.2,78.6,122.1,79,122.1z M79.5,163.8c-0.5-0.1-0.8-0.6-0.8-1.4
					c0-0.4,0.4-0.9,0.7-0.7c0.4,0.3,1.2,0.6,1.1,1.3C80.4,163.4,80,163.9,79.5,163.8L79.5,163.8z M79.2,157.9c0-0.2,0.3-0.4,0.4-0.4
					c0.7,0.2,0.6,0.9,0.9,1.4C79.9,158.7,78.9,159,79.2,157.9z M79.3,151.3c-0.4,0-0.8-0.3-0.6-0.7c0.4-0.5,0.3-1.4,1.1-1.5
					c0.3,0,0.8,0.5,0.7,0.8C80.4,150.9,80,151.3,79.3,151.3L79.3,151.3z M83.1,172.4c-0.6-0.4-1-1-1.2-1.7c-0.1-0.3,0-0.9,0.5-0.8
					c0.7,0.2,1.1,0.8,1.3,1.4C83.9,171.8,83.6,172.1,83.1,172.4z M84.9,168.2c-0.3-0.4-0.8-0.7-0.7-1.2c0.1-0.3,0.3-0.8,0.7-0.6
					c0.4,0.2,0.9,0.5,0.8,1.2C85.7,167.8,85.4,168.1,84.9,168.2z M84.9,162.9c-0.7-0.3-1.3-0.5-1.3-1.1c0-0.9,0.9-1,1.4-1.1
					c0.7-0.2,0.9,0.6,1,1.2C86.1,162.8,85,162.2,84.9,162.9L84.9,162.9z M87.9,157.6c0,0.5-0.3,1-0.7,0.9c-0.6-0.1-0.8-0.8-1.1-1.3
					c0.3-0.6,0.7-0.9,1.3-0.9C88.2,156.5,87.9,157.2,87.9,157.6z M89.3,136c-0.4,0.1-0.5-0.1-0.7-0.7c0-0.3,0.5-0.2,0.7-0.4
					c0.2-0.2,0.4-0.1,0.4,0.2C89.8,135.4,89.7,135.8,89.3,136z M89.5,47.9c-0.3,0.2-0.6-0.3-0.6-0.8c0.1-0.5,0.5-0.8,1.1-0.7
					c0.3,0.1,0.8,0.1,0.7,0.7C90.5,47.6,89.9,47.6,89.5,47.9z M91.8,44.5c-0.2,0-0.4-0.4-0.4-0.7c-0.1-0.4,0.3-0.5,0.6-0.5
					c0.3,0,0.6,0.1,0.6,0.5C92.4,44.2,92.2,44.5,91.8,44.5L91.8,44.5z M92.7,31.3c-0.3,0.3-0.4,1.3-1.1,0.6
					c-1.4-1.2,0.3-1.9,0.3-3.3C92.9,29.7,94.2,30.1,92.7,31.3z M96,45.7c0.4,0.7,0.3,1.2-0.6,1.7C95.1,46.6,95.3,46.1,96,45.7z
					 M96,150.4c-0.3-0.4-0.8-0.6-0.7-1c0.1-0.3,0.5-0.5,0.7-0.7c0.2,0.3,0.5,0.6,0.6,0.9C96.6,149.8,96.2,150.1,96,150.4L96,150.4z
					 M98,37.8c-0.2,0.5-0.3,1.2-1,1.3c-0.4-0.3-0.8-0.7-0.7-1c0.2-0.4,0.7-0.6,1.2-0.8C97.8,37.2,98.2,37.5,98,37.8L98,37.8z
					 M98.1,31.7c0,0.1,0,0.2,0,0.2c-0.1,0.8,0.4,1.8-0.5,2.5c-0.1,0.1-0.7,0-0.8-0.2c-0.4-1.1,0.5-1.7,0.9-2.5c0-0.1,0-0.3,0.1-0.4
					c0.5-0.3,0.7-1.3,1.6-0.8c0.2,0.1,0.5,0.6,0.4,0.7C99.5,32.2,98.7,31.5,98.1,31.7z M101.4,168.4c-0.5,0-0.6-0.4-0.5-0.8
					c0.1-0.4,0.4-0.6,0.8-0.5c0.3,0.1,0.5,0.3,0.4,0.8C101.9,168,101.7,168.4,101.4,168.4z M102.2,102.7c-0.4,1-1.2,1-2.2,0.8
					c0.5-0.7,0.4-1.9,1.6-1.5C101.9,102,102.4,102.2,102.2,102.7L102.2,102.7z M102.8,79.4c-0.5-0.2-0.9-0.4-1-1.1
					c0-0.7,0.3-0.8,0.8-0.7c0.4,0,1-0.1,1,0.6C103.7,78.9,103.3,79.2,102.8,79.4z M105.1,28.6c0.2,0,0.4,0.2,0.4,0.4
					c0.1,0.3-0.2,0.5-0.6,0.6c-0.1-0.1-0.2-0.2-0.2-0.4C104.5,28.8,104.7,28.5,105.1,28.6z M105.7,165.5c-0.7-0.1-1.2-0.6-1-1.2
					c0.3-0.9,1.4-1,2.1-1.4c0.6-0.3,1.1,0.4,1.1,1.1C107.7,165.3,106.4,165.1,105.7,165.5z M109,175.7c-0.4-0.8-0.3-1.5-0.1-2.4
					C109.3,174.2,109.3,174.9,109,175.7z M108.7,40.3c-0.7-0.1-0.5-0.7-0.5-1.1c0-0.4-0.2-1.1,0.5-1c0.6,0,0.8,0.6,0.9,1.2
					C109.7,40,109.2,40.2,108.7,40.3L108.7,40.3z M113.3,42.4c-0.5,0-0.8-0.2-0.9-0.6c0-0.7,0.6-0.9,1-1.1c0.5-0.2,0.6,0.4,0.6,0.7
					C114.3,42,113.7,42.2,113.3,42.4z M119,153.7c-0.4-1.5-1.8-1.7-1.4-3c0.1-0.4,0.7-0.3,1-0.2C119.9,151.1,119.5,152,119,153.7
					L119,153.7z M119.1,54.2c-0.2,0-0.4-0.4-0.5-0.6c0-0.5,0.3-0.6,0.6-0.6c0.3,0,0.7,0,0.6,0.5C119.7,53.9,119.5,54.3,119.1,54.2
					L119.1,54.2z M121,34.2c-0.4-0.2-0.8-0.5-0.7-1c0-0.4,0.3-1,0.7-0.9c0.3,0.1,0.5,0.7,0.6,1.1C121.8,33.9,121.4,34.1,121,34.2z
					 M121.9,172.1c-0.4-1.3-0.3-2.5,0-3.7C122.2,169.5,122.3,170.7,121.9,172.1z M123.1,16.7c-0.1-0.6,0.3-0.8,0.8-0.8
					c0.4,0,1,0,0.9,0.6c-0.1,0.4-0.5,0.8-1.1,0.8C123.4,17.4,123.1,17.2,123.1,16.7L123.1,16.7z M123.6,25.7
					c-0.1-0.6,0.4-0.5,0.8-0.5c0.3,0,0.8-0.2,0.9,0.3c0.1,0.6-0.4,0.7-0.8,1C124,26.5,123.6,26.2,123.6,25.7L123.6,25.7z
					 M124.4,83.5c0.1-1.3,1.6-0.9,2.1-1.7c0.4,0.3,1,0.7,0.6,1c-0.6,0.7-1.4,1.2-2,1.7C124.4,84.5,124.4,84,124.4,83.5z M126.1,90.9
					c-0.6-1-1.6-1.3-0.9-2.4c0.2-0.2,0.4-0.5,0.8-0.3C126.7,88.9,126.3,89.7,126.1,90.9z M127.8,151c-0.4-0.9-1.5-1.3-0.6-2.4
					c0.1-0.1,0.6-0.8,1.1-0.2C129.1,149.4,128.2,150,127.8,151L127.8,151z M129.3,72.5c-0.4-0.1-0.6-0.4-0.7-0.9
					c0-0.5,0.4-0.5,0.8-0.5c0.5,0,0.6,0.3,0.6,0.8C130,72.4,129.8,72.6,129.3,72.5z M129.9,164.7c0.9-0.5,1.5-0.4,2.1,0H129.9z
					 M131.1,113.6c-0.3-1.1,0.4-1.8,1.2-1.9c1.5-0.2,2.8,1.5,2.7,3.5c-0.1,1.5-1.5,1-2.2,1.2C131.7,116.7,131.1,115.6,131.1,113.6z
					 M133.7,119.6c-0.5-0.2-1.2-0.5-0.9-1.7c0,0.1,0.1-0.4,0.6-0.1c0.5,0.3,1.5,0.2,1.3,1.2C134.6,119.3,134.2,119.8,133.7,119.6z
					 M136.8,170.7c0.8-0.7,2.1,0.2,2.7-1.2l0.3,0.4C139.1,171.5,137.8,170.5,136.8,170.7L136.8,170.7z M136.1,153.2
					c-0.6,0.7-0.9-0.2-1.2-0.5c-0.6-0.4-0.8-1.1-0.7-1.8c0.1-0.7,0.6-0.5,1.1-0.5c3.4-0.3,4.9,0.6,5.4,4
					C139.2,152.7,138,151.4,136.1,153.2L136.1,153.2z M140.2,31.5c0.1-0.9-0.5-1.7,0.5-2.1c0.2-0.1,0.7,0.1,0.7,0.3
					C141.8,30.7,141.2,31.1,140.2,31.5z M145.2,56.3c-0.4,0-0.6-0.4-0.5-0.8c0.1-0.3,0.3-0.5,0.7-0.5c0.4,0.1,0.3,0.4,0.4,0.6
					C145.7,56,145.5,56.3,145.2,56.3z M146.7,83.9c0-0.7-0.5-1.5,0.5-2.1c0.3-0.2,0.7-0.1,0.8,0.2C148.2,83,147.9,83.7,146.7,83.9z
					 M147.9,79.5c-0.6,0-0.6-0.5-0.7-0.8c-0.1-0.6,0.2-0.6,0.5-0.6c0.5,0,0.8,0.3,0.8,0.8C148.4,79.2,148.2,79.4,147.9,79.5
					L147.9,79.5z M150.4,161.8c-0.5,0-0.9-0.3-0.8-0.8c0-0.2,0.3-0.6,0.5-0.6c0.5,0,0.8,0.4,1,1
					C150.9,161.5,150.6,161.8,150.4,161.8L150.4,161.8z M151.4,144.1c-1.1,0.7-1.9,0-2.1-0.8c-0.3-0.9,0.7-1.7,1.2-2.4
					c0.6-0.7,1,0.4,1.5,0.8c0.5,0.5,1.4,0.7,1.1,1.7c0.7-0.2,1.4-1.1,2.1,0c0.5,0.8-0.2,1.1-0.6,1.4c-1.3,1-1.4-0.5-1.9-1.1
					C152.2,143.9,151.7,143.9,151.4,144.1L151.4,144.1z M152.9,155.6c0.3,1.8,3,2.6,1.7,5.2C152.5,159.5,152.7,157.6,152.9,155.6z
					 M154.3,182.2c1.5-0.3,2.4-0.5,3.4-0.1C156.7,182.6,155.8,182.4,154.3,182.2z M158.4,184c0.6-0.4,1.3-0.4,2,0.1
					C159.5,184.3,158.9,184.4,158.4,184z M160.7,160.1c-0.2-0.2-0.5-0.5-0.6-0.8c0-0.4,0.3-0.6,0.8-0.5c0.4,0.1,0.6,0.4,0.5,0.8
					C161.4,160,161.1,160.1,160.7,160.1L160.7,160.1z M162.8,158.6c-0.4-0.2-0.5-0.5-0.4-0.7c0-0.3,0.2-0.6,0.6-0.5
					c0.3,0.1,0.5,0.3,0.4,0.6C163.2,158.3,162.9,158.5,162.8,158.6z M164.8,160.6c-0.8,0-0.5-0.6-0.6-1c-0.2-1,0.5-1.4,1.1-1.6
					c0.1-0.1,1.2,0.2,1.1,0.8C166.2,159.5,165.5,160.1,164.8,160.6L164.8,160.6z M166.9,152.9c-1,0.6-1.3,1.5-2,3.1
					c-0.1-1.5-0.3-2.1-1.3-1.9c-1,0.2-1.9,0.4-2.7,1.1c-0.3,0.3-0.7,0.4-1,0.1c-0.4-0.4,0-0.7,0.3-0.9c1.7-1,2.8-2.6,3.8-4.2
					c0.7-1.1,1.7-0.9,2.7,0.1C167.4,151.1,168.1,152.1,166.9,152.9L166.9,152.9z M174.1,157.4c-0.4,0.4-0.7,0.5-1.2,0.1
					c-0.7-0.6-1.5-1.1-2.4-1.7c-0.4,1.5-0.9,2.7-1.2,4.1c-0.2,0.9-0.9,1-1.3,1c-0.8,0-0.4-0.8-0.4-1.3c0.3-1.8,0.2-3.6,2.4-4.6
					c2.2-1,2.9,0.4,4.1,1.5C174.5,156.7,174.4,157.1,174.1,157.4L174.1,157.4z M174.8,154.6c-0.1,0-0.2,0-0.2,0
					c-0.5-0.2-1.3,0.4-1.6-0.5c-0.1-0.2,0-0.8,0.2-0.8c0.7-0.2,1.2,0.3,1.7,0.8c1.2,0,2.4-0.2,3.5,0.7
					C176.9,156.6,176.1,156.5,174.8,154.6L174.8,154.6z M177,164.2c-0.3,0.1-0.7-0.3-0.8-0.3c0.3-0.9,0.5-1.3,1-1.4
					c0.4,0,0.5,0.3,0.5,0.6C177.6,163.6,177.4,164.1,177,164.2z M178.6,168.5c-0.3-1-1.5-1.6-0.7-2.7c0.2-0.2,0.8-0.2,1,0.1
					C179.2,166.7,180.2,167.7,178.6,168.5L178.6,168.5z M179.9,142.5c0,0.4-0.3,0.6-0.6,0.4c-0.9-0.4-1.6-1-1-2.1
					C179,141.2,180.1,141.3,179.9,142.5z M179.5,56.5c0-0.2-0.2-0.7,0.3-0.5c0.5,0.2,1.2,0.4,1.4,1c0.2,0.5-0.2,0.7-0.6,0.9
					C180.1,57.6,179.5,57.3,179.5,56.5z M180.9,143.5c0.3-1,1.2-1.4,2.1-1.7c0.2-0.1,0.8,0.5,0.6,0.8c-0.4,0.9-1.2,1.5-2.1,2
					C181,144.4,180.7,144,180.9,143.5z M181.8,161.7c-0.2-0.7,0.7-0.7,1-0.9c0.6-0.2,0.8,0.4,0.8,0.9c0,0.6-0.3,1.1-0.9,1.1
					C182.2,162.8,181.8,162.4,181.8,161.7L181.8,161.7z M183.6,154.3c0.9,0.9,1.7,1.4,2.1,2.8C184.3,156.6,183.5,156.2,183.6,154.3z
					 M183.4,164.9l0.5-1c0.4,0.5,1.2,0.8,1.1,1.6c0,0.3-0.2,0.7-0.5,0.6C183.9,166,183.5,165.5,183.4,164.9L183.4,164.9z
					 M184.7,175.7c0.6-0.4,1.4-0.4,2,0C186.1,176,185.3,176,184.7,175.7z M186.8,159.5c-0.5-0.2-0.4-0.6-0.4-0.9
					c0-0.2,0.2-0.3,0.3-0.5c0.2,0.3,0.5,0.5,0.6,0.9C187.3,159,187,159.3,186.8,159.5L186.8,159.5z M186,148.5
					c-0.4-0.3-0.9-0.5-1.5-0.4c-0.8,0.2-1.9,1.2-1.4-0.8c0.1-0.5-0.8-0.6-1.3-0.6c-0.5,0-1-0.1-0.7-0.8c0.2-0.4,0.5-0.5,1.1-0.4
					c1.5,0.3,2.4,1.7,3.8,2.1c0.3-0.6,0.6-1.2,1-1.7c0.5-0.6,1.1-0.6,1.8-0.3c0.7,0.4,1.4,0.8,1,1.8c-0.4,1.2-0.7,2.4-1.7,3.5
					C187.3,150.2,186.5,149.4,186,148.5L186,148.5z M189.6,161.2c0-0.5,0.4-1.1,0.9-1c0.8,0.1,1.7,0.5,1.7,1.4c0,0.7-1,1.1-1.5,1.1
					C190.3,162.7,189.6,162.1,189.6,161.2L189.6,161.2z M192.2,188.7c-0.3-0.7-1.1-1.2-0.5-2.1c0.5-0.7,1.3-0.6,2.2-0.4
					C193.4,187.3,193,188.1,192.2,188.7L192.2,188.7z M193.5,143.4c0.1-1,1.5-0.8,1.9-1.7l1.3,1.1c-0.2,1.1-1.2,1.2-1.9,1.5
					C194.1,144.5,193.4,144,193.5,143.4L193.5,143.4z M196.2,116.7c0-0.5,0.3-0.6,0.8-0.6c0.5,0,0.6,0.4,0.6,0.8
					c0,0.5-0.3,0.6-0.7,0.6C196.3,117.4,196.1,117.2,196.2,116.7L196.2,116.7z M196.8,173c-0.5,0.2-0.7-0.1-0.7-0.6
					c0-0.5,0.2-0.7,0.7-0.7c0.3,0,0.6,0,0.7,0.6C197.3,172.5,197.1,172.9,196.8,173z M197.8,94.1c-0.9-0.8-1.8-1.7-2.1-2.8
					c-0.3-1.1,1.1-1.4,1.6-1.4c1.3-0.2,1.7,1.1,2,2C199.7,93,198.5,93.4,197.8,94.1z M199,69.3c0-0.6,0.5-0.5,0.9-0.4
					c0.3,0,0.9-0.2,0.9,0.4c0,0.6-0.5,0.7-0.9,0.9C199.3,70.1,199,69.8,199,69.3z M200.3,122.7c0-0.6,0.4-1.1,1-1
					c0.5,0,0.4,0.6,0.4,0.9c0,0.5-0.1,0.9-0.8,0.9C200.4,123.5,200.3,123.1,200.3,122.7z M201.4,130.2c-0.3-0.6-0.4-1.1,0-1.9
					C201.8,129.1,201.8,129.6,201.4,130.2z M201.8,112c-0.1-0.9,0.9-0.9,1.4-1.2c0.4-0.3,0.7,0.3,0.7,0.6c0.1,0.8-0.7,1.1-1.2,1.5
					C202.2,112.7,201.8,112.4,201.8,112L201.8,112z M203.1,125.4c-0.7-0.4-1.1-1.1-0.9-1.8c0.2-1.2,1-2.1,1.9-2.8
					c0.1,0,0.7,0.4,0.6,0.5c-0.4,1.2,0.3,2.7-0.9,3.7C203.6,125.1,203.4,125.2,203.1,125.4L203.1,125.4z M205.3,129.5
					c-0.6,0.1-0.8-0.2-0.9-0.8c0.1-0.2,0-0.6,0.4-0.4c0.3,0.2,0.7,0.3,0.9,0.5C205.9,129.1,205.7,129.5,205.3,129.5L205.3,129.5z
					 M208.4,52.1c-0.7-0.7-1.1-1.5-0.5-2.2c0.3-0.4,1.1,0,1.3,0.4C209.8,51.2,208.8,51.5,208.4,52.1z M209.3,8.4
					c-0.2-0.3-0.7-0.4-0.5-0.9c0.1-0.3,0.4-0.6,0.6-1c0.3,0.5,0.6,0.8,0.6,1.1C209.9,7.9,209.5,8.2,209.3,8.4z M211.1,112
					c-0.5-0.1-0.7-0.6-0.6-1.3c0-0.2,0-0.7,0.5-0.6c0.5,0.1,0.8,0.5,0.9,1C211.9,111.6,211.6,112.1,211.1,112L211.1,112z
					 M212.9,138.7c-0.2,0.1-0.7,0.1-0.8-0.1c-0.6-0.6-0.1-1.1,0.6-1.9C212.4,137.7,213.8,138,212.9,138.7z M214.2,128.8
					c-1.7-1.5,0.1-2,0.8-2.9C215.4,127.1,214.9,127.9,214.2,128.8z M214.1,118.8c-0.5,0.1-0.9-0.3-0.8-0.8c0.1-0.9,0.8-1,1.5-1
					c0.4,0,0.8,0.1,0.8,0.6C215.4,118.4,214.7,118.7,214.1,118.8L214.1,118.8z M216.3,121.2c1.6-1.4,2.2,1,3.4,1.3
					c-1,0.3-1.6,2.1-2.8,0.7C216.5,122.6,215.6,121.8,216.3,121.2L216.3,121.2z M217.6,125.9c-0.3,0-0.6-0.1-0.6-0.5
					c0-0.4,0.3-0.5,0.6-0.5c0.3,0,0.6,0.1,0.6,0.5C218.2,125.8,217.9,125.8,217.6,125.9L217.6,125.9z M220.4,138.8
					c-0.4-1-0.3-1.9,0-3C220.7,136.9,220.8,137.7,220.4,138.8z M220.2,125.8c-0.6,0-0.7-0.5-0.8-0.9c-0.2-0.5,0.3-0.8,0.7-0.9
					c0.6-0.1,0.8,0.4,0.8,0.8C221,125.3,220.7,125.7,220.2,125.8L220.2,125.8z M220.9,89.6c-0.7-0.6-1.3-1.1-1.8-1.7
					c-0.1-0.1,0.2-1.1,1-0.8c0.7,0.2,1.4,0.6,1.5,1.5C221.6,89.1,221.2,89.3,220.9,89.6L220.9,89.6z M224.4,120.7
					c-0.7-0.7-1.1-1.4-0.9-2.3c0.2-0.6,0.6-1.4,1.3-1.2c0.8,0.3,1.3,1.1,0.9,2C225.5,120,225,120.5,224.4,120.7z M227.6,146.5
					c-1-0.3-1.7-0.9-1.9-2c-0.1-0.5,0.3-0.7,0.7-0.6c1,0.2,1.3,1.1,1.9,1.7C228.2,146.1,228,146.6,227.6,146.5L227.6,146.5z
					 M229.7,142.2c-0.3,0.7-1,1.3-1.4,1.8c-0.8-0.3-0.8-1-0.6-1.4c0.3-0.7,0.8-1.2,1.2-1.8C229.2,141.3,230,141.5,229.7,142.2
					L229.7,142.2z"/>
			</g>
		</g>
	</g>
	<g transform="rotate(0 15.000000000000004 109.0988)">
		<g transform="matrix(1 0 0 1 0 0)">
			<path class="st1" d="M22.9,115.7c0.7,0.2,1.2,0.5,1.6,1c0.4,0.5,0.6,1.1,0.6,1.9l0,0c0,1-0.4,1.8-1.1,2.3s-1.9,0.8-3.3,0.8l0,0
				H15v-11.7h5.2c1.3,0,2.4,0.3,3.1,0.8c0.7,0.5,1.1,1.3,1.1,2.2l0,0c0,0.6-0.1,1.1-0.4,1.6C23.7,115.1,23.4,115.5,22.9,115.7
				L22.9,115.7z M20.1,111.4h-3.4v3.7h3.4c0.9,0,1.5-0.2,2-0.5s0.7-0.8,0.7-1.4l0,0c0-0.6-0.2-1.1-0.7-1.4S21,111.4,20.1,111.4
				L20.1,111.4z M20.5,120.4c0.9,0,1.7-0.2,2.1-0.5c0.5-0.3,0.7-0.8,0.7-1.5l0,0c0-1.3-1-2-2.9-2l0,0h-3.8v3.9H20.5z M32.3,112.8
				c1.2,0,2.2,0.3,2.8,0.9c0.7,0.6,1,1.5,1,2.7l0,0v5.4h-1.5v-1.2c-0.3,0.4-0.6,0.7-1.1,0.9c-0.5,0.2-1.1,0.3-1.8,0.3l0,0
				c-1,0-1.8-0.2-2.4-0.7c-0.6-0.5-0.9-1.1-0.9-1.9l0,0c0-0.8,0.3-1.4,0.9-1.9c0.6-0.5,1.5-0.7,2.7-0.7l0,0h2.5v-0.3
				c0-0.7-0.2-1.2-0.6-1.6c-0.4-0.4-1-0.6-1.8-0.6l0,0c-0.5,0-1,0.1-1.5,0.3s-0.9,0.4-1.3,0.7l0,0l-0.7-1.2c0.5-0.4,1-0.6,1.6-0.8
				C30.9,112.9,31.6,112.8,32.3,112.8L32.3,112.8z M32,120.6c0.6,0,1.1-0.1,1.6-0.4c0.4-0.3,0.8-0.7,1-1.2l0,0v-1.2H32
				c-1.4,0-2,0.5-2,1.4l0,0c0,0.4,0.2,0.8,0.5,1.1S31.3,120.6,32,120.6L32,120.6z M45.5,112.8c1.1,0,2,0.3,2.7,1s1,1.6,1,2.9l0,0
				v5.1h-1.6v-4.9c0-0.9-0.2-1.5-0.6-1.9s-1-0.7-1.8-0.7l0,0c-0.9,0-1.6,0.3-2.1,0.8c-0.5,0.5-0.8,1.2-0.8,2.2l0,0v4.6h-1.6v-8.9
				h1.5v1.3c0.3-0.5,0.8-0.8,1.3-1.1C44.2,112.9,44.8,112.8,45.5,112.8L45.5,112.8z M60.6,109.3h1.6v12.4h-1.5v-1.4
				c-0.4,0.5-0.8,0.9-1.4,1.1c-0.5,0.3-1.1,0.4-1.8,0.4l0,0c-0.9,0-1.6-0.2-2.3-0.6c-0.7-0.4-1.2-0.9-1.6-1.6
				c-0.4-0.7-0.6-1.5-0.6-2.4l0,0c0-0.9,0.2-1.7,0.6-2.4s0.9-1.2,1.6-1.6s1.4-0.6,2.3-0.6l0,0c0.6,0,1.2,0.1,1.8,0.4
				c0.5,0.2,1,0.6,1.3,1.1l0,0V109.3z M57.7,120.5c0.6,0,1.1-0.1,1.5-0.4c0.5-0.3,0.8-0.6,1.1-1.1c0.3-0.5,0.4-1,0.4-1.6l0,0
				c0-0.6-0.1-1.2-0.4-1.6s-0.6-0.8-1.1-1.1c-0.5-0.3-1-0.4-1.5-0.4l0,0c-0.6,0-1.1,0.1-1.5,0.4c-0.5,0.3-0.8,0.6-1.1,1.1
				s-0.4,1-0.4,1.6l0,0c0,0.6,0.1,1.2,0.4,1.6c0.3,0.5,0.6,0.8,1.1,1.1C56.6,120.3,57.1,120.5,57.7,120.5L57.7,120.5z M85.8,121.8
				h-1.6l0-8.5l-4.2,7.1h-0.8l-4.2-7.1v8.5h-1.6v-11.7h1.4l4.9,8.2l4.8-8.2h1.4L85.8,121.8z M94,112.8c1.2,0,2.2,0.3,2.8,0.9
				c0.7,0.6,1,1.5,1,2.7l0,0v5.4h-1.5v-1.2c-0.3,0.4-0.6,0.7-1.1,0.9s-1.1,0.3-1.8,0.3l0,0c-1,0-1.8-0.2-2.4-0.7
				c-0.6-0.5-0.9-1.1-0.9-1.9l0,0c0-0.8,0.3-1.4,0.9-1.9c0.6-0.5,1.5-0.7,2.7-0.7l0,0h2.5v-0.3c0-0.7-0.2-1.2-0.6-1.6
				c-0.4-0.4-1-0.6-1.8-0.6l0,0c-0.5,0-1,0.1-1.5,0.3c-0.5,0.2-0.9,0.4-1.3,0.7l0,0l-0.7-1.2c0.5-0.4,1-0.6,1.6-0.8
				S93.3,112.8,94,112.8L94,112.8z M93.6,120.6c0.6,0,1.1-0.1,1.6-0.4c0.4-0.3,0.8-0.7,1-1.2l0,0v-1.2h-2.5c-1.4,0-2,0.5-2,1.4l0,0
				c0,0.4,0.2,0.8,0.5,1.1C92.5,120.5,93,120.6,93.6,120.6L93.6,120.6z M107.2,112.8c1.1,0,2,0.3,2.7,1c0.7,0.7,1,1.6,1,2.9l0,0v5.1
				h-1.6v-4.9c0-0.9-0.2-1.5-0.6-1.9c-0.4-0.4-1-0.7-1.8-0.7l0,0c-0.9,0-1.6,0.3-2.1,0.8s-0.8,1.2-0.8,2.2l0,0v4.6h-1.6v-8.9h1.5
				v1.3c0.3-0.5,0.8-0.8,1.3-1.1C105.8,112.9,106.5,112.8,107.2,112.8L107.2,112.8z M118.7,112.8c1.2,0,2.2,0.3,2.8,0.9
				c0.7,0.6,1,1.5,1,2.7l0,0v5.4H121v-1.2c-0.3,0.4-0.6,0.7-1.1,0.9s-1.1,0.3-1.8,0.3l0,0c-1,0-1.8-0.2-2.4-0.7
				c-0.6-0.5-0.9-1.1-0.9-1.9l0,0c0-0.8,0.3-1.4,0.9-1.9c0.6-0.5,1.5-0.7,2.7-0.7l0,0h2.5v-0.3c0-0.7-0.2-1.2-0.6-1.6
				c-0.4-0.4-1-0.6-1.8-0.6l0,0c-0.5,0-1,0.1-1.5,0.3c-0.5,0.2-0.9,0.4-1.3,0.7l0,0l-0.7-1.2c0.5-0.4,1-0.6,1.6-0.8
				C117.3,112.9,118,112.8,118.7,112.8L118.7,112.8z M118.3,120.6c0.6,0,1.1-0.1,1.6-0.4c0.4-0.3,0.8-0.7,1-1.2l0,0v-1.2h-2.5
				c-1.4,0-2,0.5-2,1.4l0,0c0,0.4,0.2,0.8,0.5,1.1C117.3,120.5,117.7,120.6,118.3,120.6L118.3,120.6z M134.2,112.9h1.5v7.7
				c0,1.5-0.4,2.7-1.2,3.4c-0.8,0.7-1.9,1.1-3.4,1.1l0,0c-0.8,0-1.6-0.1-2.4-0.3c-0.8-0.2-1.4-0.6-1.8-1l0,0l0.8-1.2
				c0.4,0.4,0.9,0.6,1.5,0.8c0.6,0.2,1.2,0.3,1.9,0.3l0,0c1,0,1.8-0.2,2.3-0.7c0.5-0.5,0.7-1.2,0.7-2.2l0,0V120
				c-0.4,0.5-0.8,0.8-1.4,1c-0.6,0.2-1.2,0.3-1.8,0.3l0,0c-0.8,0-1.6-0.2-2.3-0.5c-0.7-0.4-1.2-0.9-1.6-1.5
				c-0.4-0.7-0.6-1.4-0.6-2.2l0,0c0-0.8,0.2-1.6,0.6-2.2c0.4-0.7,0.9-1.2,1.6-1.5c0.7-0.4,1.5-0.5,2.3-0.5l0,0
				c0.7,0,1.3,0.1,1.9,0.4c0.6,0.2,1,0.6,1.4,1.1l0,0V112.9z M131.1,120c0.6,0,1.1-0.1,1.6-0.4s0.8-0.6,1.1-1
				c0.3-0.4,0.4-0.9,0.4-1.5l0,0c0-0.9-0.3-1.6-0.9-2.1c-0.6-0.5-1.3-0.8-2.2-0.8l0,0c-0.9,0-1.6,0.3-2.2,0.8
				c-0.6,0.5-0.9,1.2-0.9,2.1l0,0c0,0.6,0.1,1.1,0.4,1.5c0.3,0.4,0.6,0.8,1.1,1C129.9,119.9,130.5,120,131.1,120L131.1,120z
				 M148.4,117.4c0,0.1,0,0.3,0,0.5l0,0h-7.2c0.1,0.8,0.4,1.4,1,1.9c0.6,0.5,1.3,0.7,2.2,0.7l0,0c1.1,0,1.9-0.4,2.6-1.1l0,0l0.9,1
				c-0.4,0.5-0.9,0.8-1.5,1.1c-0.6,0.2-1.3,0.4-2,0.4l0,0c-0.9,0-1.8-0.2-2.5-0.6c-0.7-0.4-1.3-0.9-1.7-1.6s-0.6-1.5-0.6-2.3l0,0
				c0-0.9,0.2-1.6,0.6-2.3s0.9-1.2,1.6-1.6c0.7-0.4,1.4-0.6,2.3-0.6l0,0c0.8,0,1.6,0.2,2.3,0.6c0.7,0.4,1.2,0.9,1.6,1.6
				C148.2,115.7,148.4,116.5,148.4,117.4L148.4,117.4z M144,114.2c-0.8,0-1.4,0.2-1.9,0.7c-0.5,0.5-0.8,1.1-0.9,1.8l0,0h5.7
				c-0.1-0.7-0.4-1.4-0.9-1.8C145.5,114.4,144.8,114.2,144,114.2L144,114.2z M153.9,114.4c0.3-0.5,0.7-0.9,1.2-1.2
				c0.5-0.3,1.2-0.4,2-0.4l0,0v1.6c-0.1,0-0.2,0-0.4,0l0,0c-0.9,0-1.6,0.3-2,0.8c-0.5,0.5-0.7,1.3-0.7,2.2l0,0v4.4h-1.6v-8.9h1.5
				V114.4z M175.5,111.5h-6.6v4.1h5.9v1.4h-5.9v4.7h-1.7v-11.7h8.3V111.5z M180.7,114.4c0.3-0.5,0.7-0.9,1.2-1.2
				c0.5-0.3,1.2-0.4,2-0.4l0,0v1.6c-0.1,0-0.2,0-0.4,0l0,0c-0.9,0-1.6,0.3-2,0.8s-0.7,1.3-0.7,2.2l0,0v4.4h-1.6v-8.9h1.5V114.4z
				 M191.3,121.9c-0.9,0-1.7-0.2-2.4-0.6s-1.3-0.9-1.6-1.6c-0.4-0.7-0.6-1.5-0.6-2.3l0,0c0-0.9,0.2-1.6,0.6-2.3
				c0.4-0.7,0.9-1.2,1.6-1.6c0.7-0.4,1.5-0.6,2.4-0.6l0,0c0.9,0,1.7,0.2,2.4,0.6c0.7,0.4,1.2,0.9,1.6,1.6c0.4,0.7,0.6,1.5,0.6,2.3
				l0,0c0,0.9-0.2,1.6-0.6,2.3c-0.4,0.7-0.9,1.2-1.6,1.6C192.9,121.7,192.1,121.9,191.3,121.9L191.3,121.9z M191.3,120.5
				c0.6,0,1.1-0.1,1.5-0.4c0.5-0.3,0.8-0.6,1.1-1.1c0.3-0.5,0.4-1,0.4-1.6l0,0c0-0.6-0.1-1.2-0.4-1.6s-0.6-0.8-1.1-1.1
				c-0.5-0.3-1-0.4-1.5-0.4l0,0c-0.6,0-1.1,0.1-1.5,0.4c-0.5,0.3-0.8,0.6-1.1,1.1s-0.4,1-0.4,1.6l0,0c0,0.6,0.1,1.2,0.4,1.6
				c0.3,0.5,0.6,0.8,1.1,1.1C190.2,120.3,190.7,120.5,191.3,120.5L191.3,120.5z M204.5,112.8c1.1,0,2,0.3,2.7,1c0.7,0.7,1,1.6,1,2.9
				l0,0v5.1h-1.6v-4.9c0-0.9-0.2-1.5-0.6-1.9c-0.4-0.4-1-0.7-1.8-0.7l0,0c-0.9,0-1.6,0.3-2.1,0.8c-0.5,0.5-0.8,1.2-0.8,2.2l0,0v4.6
				h-1.6v-8.9h1.5v1.3c0.3-0.5,0.8-0.8,1.3-1.1C203.2,112.9,203.8,112.8,204.5,112.8L204.5,112.8z M217.3,120.1l0.5,1.2
				c-0.2,0.2-0.5,0.4-0.9,0.5c-0.3,0.1-0.7,0.2-1.1,0.2l0,0c-0.9,0-1.6-0.2-2.1-0.7c-0.5-0.5-0.7-1.2-0.7-2.1l0,0v-4.9h-1.5v-1.3
				h1.5V111h1.6v1.9h2.5v1.3h-2.5v4.8c0,0.5,0.1,0.8,0.4,1.1c0.2,0.3,0.6,0.4,1,0.4l0,0C216.5,120.5,216.9,120.4,217.3,120.1
				L217.3,120.1z M240.3,121.8h-1.6l0-8.5l-4.2,7.1h-0.8l-4.2-7.1v8.5h-1.6v-11.7h1.4l4.9,8.2l4.8-8.2h1.4L240.3,121.8z
				 M248.4,112.8c1.2,0,2.2,0.3,2.8,0.9c0.7,0.6,1,1.5,1,2.7l0,0v5.4h-1.5v-1.2c-0.3,0.4-0.6,0.7-1.1,0.9c-0.5,0.2-1.1,0.3-1.8,0.3
				l0,0c-1,0-1.8-0.2-2.4-0.7c-0.6-0.5-0.9-1.1-0.9-1.9l0,0c0-0.8,0.3-1.4,0.9-1.9c0.6-0.5,1.5-0.7,2.7-0.7l0,0h2.5v-0.3
				c0-0.7-0.2-1.2-0.6-1.6c-0.4-0.4-1-0.6-1.8-0.6l0,0c-0.5,0-1,0.1-1.5,0.3c-0.5,0.2-0.9,0.4-1.3,0.7l0,0l-0.7-1.2
				c0.5-0.4,1-0.6,1.6-0.8S247.7,112.8,248.4,112.8L248.4,112.8z M248.1,120.6c0.6,0,1.1-0.1,1.6-0.4c0.4-0.3,0.8-0.7,1-1.2l0,0
				v-1.2h-2.5c-1.4,0-2,0.5-2,1.4l0,0c0,0.4,0.2,0.8,0.5,1.1C247,120.5,247.5,120.6,248.1,120.6L248.1,120.6z M261.6,112.8
				c1.1,0,2,0.3,2.7,1s1,1.6,1,2.9l0,0v5.1h-1.6v-4.9c0-0.9-0.2-1.5-0.6-1.9c-0.4-0.4-1-0.7-1.8-0.7l0,0c-0.9,0-1.6,0.3-2.1,0.8
				s-0.8,1.2-0.8,2.2l0,0v4.6h-1.6v-8.9h1.5v1.3c0.3-0.5,0.8-0.8,1.3-1.1C260.3,112.9,260.9,112.8,261.6,112.8L261.6,112.8z
				 M276.3,125v-15.6h1.5V125H276.3z M289.2,121.8v-11.7h1.7v10.2h6.3v1.5H289.2z M308.4,117.4c0,0.1,0,0.3,0,0.5l0,0h-7.2
				c0.1,0.8,0.4,1.4,1,1.9c0.6,0.5,1.3,0.7,2.2,0.7l0,0c1.1,0,1.9-0.4,2.6-1.1l0,0l0.9,1c-0.4,0.5-0.9,0.8-1.5,1.1
				c-0.6,0.2-1.3,0.4-2,0.4l0,0c-0.9,0-1.8-0.2-2.5-0.6c-0.7-0.4-1.3-0.9-1.7-1.6s-0.6-1.5-0.6-2.3l0,0c0-0.9,0.2-1.6,0.6-2.3
				c0.4-0.7,0.9-1.2,1.6-1.6c0.7-0.4,1.4-0.6,2.3-0.6l0,0c0.8,0,1.6,0.2,2.3,0.6c0.7,0.4,1.2,0.9,1.6,1.6
				C308.3,115.7,308.4,116.5,308.4,117.4L308.4,117.4z M304.1,114.2c-0.8,0-1.4,0.2-1.9,0.7c-0.5,0.5-0.8,1.1-0.9,1.8l0,0h5.7
				c-0.1-0.7-0.4-1.4-0.9-1.8C305.5,114.4,304.8,114.2,304.1,114.2L304.1,114.2z M324.1,112.9h1.4l-3.3,8.9h-1.5l-2.6-6.7l-2.6,6.7
				H314l-3.3-8.9h1.5l2.6,7.1l2.7-7.1h1.4l2.6,7.1L324.1,112.9z M328.9,121.8v-8.9h1.6v8.9H328.9z M329.7,111.2
				c-0.3,0-0.6-0.1-0.8-0.3c-0.2-0.2-0.3-0.4-0.3-0.7l0,0c0-0.3,0.1-0.5,0.3-0.7c0.2-0.2,0.5-0.3,0.8-0.3l0,0c0.3,0,0.6,0.1,0.8,0.3
				c0.2,0.2,0.3,0.4,0.3,0.7l0,0c0,0.3-0.1,0.6-0.3,0.8S330,111.2,329.7,111.2L329.7,111.2z M337.8,121.9c-0.7,0-1.4-0.1-2.1-0.3
				s-1.2-0.4-1.6-0.7l0,0l0.7-1.3c0.4,0.3,0.9,0.5,1.4,0.7c0.6,0.2,1.1,0.3,1.7,0.3l0,0c1.4,0,2.1-0.4,2.1-1.2l0,0
				c0-0.3-0.1-0.5-0.3-0.6s-0.4-0.3-0.7-0.3c-0.3-0.1-0.7-0.2-1.2-0.2l0,0c-0.7-0.1-1.3-0.2-1.7-0.4c-0.5-0.1-0.8-0.4-1.2-0.7
				c-0.3-0.3-0.5-0.8-0.5-1.5l0,0c0-0.8,0.3-1.4,1-1.9c0.7-0.5,1.6-0.7,2.7-0.7l0,0c0.6,0,1.2,0.1,1.8,0.2c0.6,0.1,1.1,0.3,1.5,0.6
				l0,0l-0.7,1.3c-0.7-0.5-1.6-0.7-2.6-0.7l0,0c-0.7,0-1.2,0.1-1.6,0.3c-0.4,0.2-0.5,0.5-0.5,0.9l0,0c0,0.3,0.1,0.5,0.3,0.7
				c0.2,0.2,0.4,0.3,0.7,0.4c0.3,0.1,0.7,0.2,1.2,0.3l0,0c0.7,0.1,1.3,0.3,1.7,0.4c0.4,0.1,0.8,0.4,1.1,0.7c0.3,0.3,0.5,0.8,0.5,1.4
				l0,0c0,0.8-0.3,1.4-1,1.9C339.9,121.6,338.9,121.9,337.8,121.9L337.8,121.9z M349.7,120.1l0.5,1.2c-0.2,0.2-0.5,0.4-0.9,0.5
				s-0.7,0.2-1.1,0.2l0,0c-0.9,0-1.6-0.2-2.1-0.7c-0.5-0.5-0.7-1.2-0.7-2.1l0,0v-4.9H344v-1.3h1.5V111h1.6v1.9h2.5v1.3h-2.5v4.8
				c0,0.5,0.1,0.8,0.4,1.1c0.2,0.3,0.6,0.4,1,0.4l0,0C349,120.5,349.4,120.4,349.7,120.1L349.7,120.1z M357.3,121.9
				c-0.9,0-1.7-0.2-2.4-0.6c-0.7-0.4-1.3-0.9-1.6-1.6c-0.4-0.7-0.6-1.5-0.6-2.3l0,0c0-0.9,0.2-1.6,0.6-2.3c0.4-0.7,0.9-1.2,1.6-1.6
				c0.7-0.4,1.5-0.6,2.4-0.6l0,0c0.9,0,1.7,0.2,2.4,0.6c0.7,0.4,1.2,0.9,1.6,1.6c0.4,0.7,0.6,1.5,0.6,2.3l0,0c0,0.9-0.2,1.6-0.6,2.3
				c-0.4,0.7-0.9,1.2-1.6,1.6C359,121.7,358.2,121.9,357.3,121.9L357.3,121.9z M357.3,120.5c0.6,0,1.1-0.1,1.5-0.4
				c0.5-0.3,0.8-0.6,1.1-1.1c0.3-0.5,0.4-1,0.4-1.6l0,0c0-0.6-0.1-1.2-0.4-1.6c-0.3-0.5-0.6-0.8-1.1-1.1c-0.5-0.3-1-0.4-1.5-0.4l0,0
				c-0.6,0-1.1,0.1-1.5,0.4c-0.5,0.3-0.8,0.6-1.1,1.1s-0.4,1-0.4,1.6l0,0c0,0.6,0.1,1.2,0.4,1.6c0.3,0.5,0.6,0.8,1.1,1.1
				C356.3,120.3,356.8,120.5,357.3,120.5L357.3,120.5z M370.6,112.8c1.1,0,2,0.3,2.7,1s1,1.6,1,2.9l0,0v5.1h-1.6v-4.9
				c0-0.9-0.2-1.5-0.6-1.9c-0.4-0.4-1-0.7-1.8-0.7l0,0c-0.9,0-1.6,0.3-2.1,0.8c-0.5,0.5-0.8,1.2-0.8,2.2l0,0v4.6h-1.6v-8.9h1.5v1.3
				c0.3-0.5,0.8-0.8,1.3-1.1C369.2,112.9,369.9,112.8,370.6,112.8L370.6,112.8z M379.3,119.6c0.3,0,0.6,0.1,0.8,0.3
				c0.2,0.2,0.3,0.5,0.3,0.8l0,0c0,0.2,0,0.3-0.1,0.5c0,0.2-0.1,0.4-0.2,0.7l0,0l-0.8,2.3h-1.1l0.6-2.5c-0.2-0.1-0.4-0.2-0.5-0.4
				s-0.2-0.4-0.2-0.6l0,0c0-0.3,0.1-0.6,0.3-0.8C378.7,119.7,379,119.6,379.3,119.6L379.3,119.6z M390.8,121.8v-11.7h1.7v11.7H390.8
				z M404.1,109.3h1.6v12.4h-1.5v-1.4c-0.4,0.5-0.8,0.9-1.4,1.1c-0.5,0.3-1.1,0.4-1.8,0.4l0,0c-0.9,0-1.6-0.2-2.3-0.6
				c-0.7-0.4-1.2-0.9-1.6-1.6c-0.4-0.7-0.6-1.5-0.6-2.4l0,0c0-0.9,0.2-1.7,0.6-2.4s0.9-1.2,1.6-1.6c0.7-0.4,1.4-0.6,2.3-0.6l0,0
				c0.6,0,1.2,0.1,1.8,0.4c0.5,0.2,1,0.6,1.3,1.1l0,0V109.3z M401.2,120.5c0.6,0,1.1-0.1,1.5-0.4c0.5-0.3,0.8-0.6,1.1-1.1
				c0.3-0.5,0.4-1,0.4-1.6l0,0c0-0.6-0.1-1.2-0.4-1.6c-0.3-0.5-0.6-0.8-1.1-1.1c-0.5-0.3-1-0.4-1.5-0.4l0,0c-0.6,0-1.1,0.1-1.5,0.4
				c-0.5,0.3-0.8,0.6-1.1,1.1s-0.4,1-0.4,1.6l0,0c0,0.6,0.1,1.2,0.4,1.6c0.3,0.5,0.6,0.8,1.1,1.1
				C400.1,120.3,400.6,120.5,401.2,120.5L401.2,120.5z M413.7,112.8c1.2,0,2.2,0.3,2.8,0.9c0.7,0.6,1,1.5,1,2.7l0,0v5.4H416v-1.2
				c-0.3,0.4-0.6,0.7-1.1,0.9c-0.5,0.2-1.1,0.3-1.8,0.3l0,0c-1,0-1.8-0.2-2.4-0.7c-0.6-0.5-0.9-1.1-0.9-1.9l0,0
				c0-0.8,0.3-1.4,0.9-1.9c0.6-0.5,1.5-0.7,2.7-0.7l0,0h2.5v-0.3c0-0.7-0.2-1.2-0.6-1.6c-0.4-0.4-1-0.6-1.8-0.6l0,0
				c-0.5,0-1,0.1-1.5,0.3c-0.5,0.2-0.9,0.4-1.3,0.7l0,0l-0.7-1.2c0.5-0.4,1-0.6,1.6-0.8C412.3,112.9,413,112.8,413.7,112.8
				L413.7,112.8z M413.3,120.6c0.6,0,1.1-0.1,1.6-0.4c0.4-0.3,0.8-0.7,1-1.2l0,0v-1.2h-2.5c-1.4,0-2,0.5-2,1.4l0,0
				c0,0.4,0.2,0.8,0.5,1.1S412.7,120.6,413.3,120.6L413.3,120.6z M426.9,112.8c1.1,0,2,0.3,2.7,1c0.7,0.7,1,1.6,1,2.9l0,0v5.1h-1.6
				v-4.9c0-0.9-0.2-1.5-0.6-1.9c-0.4-0.4-1-0.7-1.8-0.7l0,0c-0.9,0-1.6,0.3-2.1,0.8s-0.8,1.2-0.8,2.2l0,0v4.6h-1.6v-12.4h1.6v4.8
				c0.3-0.4,0.8-0.8,1.3-1C425.6,112.9,426.2,112.8,426.9,112.8L426.9,112.8z M439,121.9c-0.9,0-1.7-0.2-2.4-0.6s-1.3-0.9-1.6-1.6
				c-0.4-0.7-0.6-1.5-0.6-2.3l0,0c0-0.9,0.2-1.6,0.6-2.3c0.4-0.7,0.9-1.2,1.6-1.6c0.7-0.4,1.5-0.6,2.4-0.6l0,0
				c0.9,0,1.7,0.2,2.4,0.6c0.7,0.4,1.2,0.9,1.6,1.6c0.4,0.7,0.6,1.5,0.6,2.3l0,0c0,0.9-0.2,1.6-0.6,2.3c-0.4,0.7-0.9,1.2-1.6,1.6
				C440.7,121.7,439.9,121.9,439,121.9L439,121.9z M439,120.5c0.6,0,1.1-0.1,1.5-0.4c0.5-0.3,0.8-0.6,1.1-1.1c0.3-0.5,0.4-1,0.4-1.6
				l0,0c0-0.6-0.1-1.2-0.4-1.6c-0.3-0.5-0.6-0.8-1.1-1.1c-0.5-0.3-1-0.4-1.5-0.4l0,0c-0.6,0-1.1,0.1-1.5,0.4
				c-0.5,0.3-0.8,0.6-1.1,1.1c-0.3,0.5-0.4,1-0.4,1.6l0,0c0,0.6,0.1,1.2,0.4,1.6c0.3,0.5,0.6,0.8,1.1,1.1
				C438,120.3,438.5,120.5,439,120.5L439,120.5z"/>
		</g>
	</g>
	<g transform="rotate(0 33.2002 69.0988)">
		<g transform="matrix(1 0 0 1 0 0)">
			<path class="st2" d="M33.2,88.9V69.4h5c1.9,0,3.4,0.4,4.4,1.1c1,0.7,1.6,2.1,1.6,4l0,0c0,1.2-0.2,2.1-0.7,2.7
				c-0.5,0.7-1.2,1.1-2.1,1.2l0,0c1.1,0.2,2,0.6,2.6,1.4c0.6,0.8,0.9,1.9,0.9,3.3l0,0c0,3.8-1.9,5.7-5.7,5.7l0,0H33.2z M37.2,77.3h1
				c1,0,1.6-0.2,2-0.7c0.4-0.4,0.5-1.1,0.5-2.1l0,0c0-0.9-0.2-1.5-0.7-1.9c-0.5-0.4-1.2-0.6-2.1-0.6l0,0h-0.7V77.3z M37.2,86.1h1.1
				c1,0,1.6-0.2,2-0.7c0.4-0.5,0.6-1.2,0.6-2.3l0,0c0-1.1-0.2-1.9-0.6-2.4s-1.1-0.7-2.1-0.7l0,0h-1.1V86.1z M49.7,89.2
				c-0.6,0-1.2-0.2-1.7-0.5c-0.5-0.3-0.8-0.7-1.1-1.3c-0.2-0.5-0.4-1.1-0.4-1.6l0,0c0-1.1,0.3-2,0.8-2.7c0.5-0.7,1.2-1.2,1.9-1.6
				c0.7-0.4,1.7-0.8,3-1.3l0,0v-1.3c0-0.5-0.1-0.9-0.2-1.1c-0.1-0.3-0.4-0.4-0.7-0.4l0,0c-0.4,0-0.6,0.1-0.7,0.3
				c-0.1,0.2-0.2,0.5-0.3,1l0,0l-0.1,1l-3.4-0.1c0.1-1.7,0.5-2.9,1.3-3.7s2-1.2,3.5-1.2l0,0c1.4,0,2.4,0.4,3.1,1.1s1,1.8,1,3.1l0,0
				v6.5c0,1.1,0.1,2.2,0.2,3.5l0,0h-3.3c-0.1-0.5-0.2-1.1-0.3-2l0,0c-0.2,0.6-0.5,1.2-1,1.6C50.9,88.9,50.4,89.2,49.7,89.2
				L49.7,89.2z M51,86.6c0.2,0,0.5-0.1,0.7-0.2s0.4-0.3,0.5-0.6l0,0v-3.8c-0.8,0.4-1.3,0.9-1.7,1.4c-0.4,0.5-0.6,1-0.6,1.7l0,0
				c0,0.5,0.1,0.9,0.3,1.2C50.3,86.4,50.6,86.6,51,86.6L51,86.6z M62.2,89.2c-1.2,0-2.2-0.3-3-0.9c-0.8-0.6-1.4-1.5-1.8-2.7l0,0
				l2.6-1.1c0.5,1.4,1.2,2.1,2.1,2.1l0,0c0.3,0,0.6-0.1,0.8-0.2s0.3-0.4,0.3-0.6l0,0c0-0.4-0.1-0.7-0.4-1c-0.2-0.3-0.7-0.7-1.4-1.3
				l0,0L60,82.4c-0.8-0.7-1.3-1.3-1.7-1.8c-0.4-0.6-0.6-1.2-0.6-2l0,0c0-0.7,0.2-1.4,0.6-2c0.4-0.6,0.9-1,1.5-1.3
				c0.6-0.3,1.3-0.5,2.1-0.5l0,0c1.1,0,2.1,0.3,2.8,1c0.7,0.6,1.2,1.5,1.5,2.7l0,0l-2.4,1.1c-0.1-0.6-0.4-1.1-0.7-1.5
				c-0.3-0.4-0.7-0.6-1.1-0.6l0,0c-0.3,0-0.5,0.1-0.7,0.3C61.1,77.7,61,78,61,78.2l0,0c0,0.3,0.1,0.6,0.4,0.9
				c0.3,0.3,0.7,0.7,1.3,1.2l0,0l1.3,1.2c0.8,0.6,1.3,1.3,1.8,1.9c0.4,0.6,0.6,1.3,0.6,2.1l0,0c0,0.8-0.2,1.4-0.6,2
				c-0.4,0.6-0.9,1-1.5,1.3C63.6,89,62.9,89.2,62.2,89.2L62.2,89.2z M72.1,89.2c-1.2,0-2.2-0.3-3-0.9s-1.4-1.5-1.8-2.7l0,0l2.6-1.1
				c0.5,1.4,1.2,2.1,2.1,2.1l0,0c0.3,0,0.6-0.1,0.8-0.2s0.3-0.4,0.3-0.6l0,0c0-0.4-0.1-0.7-0.4-1c-0.2-0.3-0.7-0.7-1.4-1.3l0,0
				l-1.3-1.1c-0.8-0.7-1.3-1.3-1.7-1.8c-0.4-0.6-0.6-1.2-0.6-2l0,0c0-0.7,0.2-1.4,0.6-2s0.9-1,1.5-1.3c0.6-0.3,1.3-0.5,2.1-0.5l0,0
				c1.1,0,2.1,0.3,2.8,1c0.7,0.6,1.2,1.5,1.5,2.7l0,0l-2.4,1.1c-0.1-0.6-0.4-1.1-0.7-1.5c-0.3-0.4-0.7-0.6-1.1-0.6l0,0
				c-0.3,0-0.5,0.1-0.7,0.3s-0.3,0.4-0.3,0.7l0,0c0,0.3,0.1,0.6,0.4,0.9c0.3,0.3,0.7,0.7,1.3,1.2l0,0l1.3,1.2
				c0.8,0.6,1.3,1.3,1.8,1.9c0.4,0.6,0.6,1.3,0.6,2.1l0,0c0,0.8-0.2,1.4-0.6,2c-0.4,0.6-0.9,1-1.5,1.3C73.6,89,72.9,89.2,72.1,89.2
				L72.1,89.2z M84.2,88.9l0.3-19.6h4.2l2.4,12.3l2.6-12.3h4.1l0.4,19.6h-2.9L95,75.6l-2.5,13.3H90l-2.6-13.4l-0.3,13.4H84.2z
				 M103.7,89.2c-0.6,0-1.2-0.2-1.7-0.5s-0.8-0.7-1.1-1.3c-0.2-0.5-0.4-1.1-0.4-1.6l0,0c0-1.1,0.3-2,0.8-2.7s1.2-1.2,1.9-1.6
				c0.7-0.4,1.7-0.8,3-1.3l0,0v-1.3c0-0.5-0.1-0.9-0.2-1.1s-0.4-0.4-0.7-0.4l0,0c-0.4,0-0.6,0.1-0.7,0.3c-0.1,0.2-0.2,0.5-0.3,1l0,0
				l-0.1,1l-3.4-0.1c0.1-1.7,0.5-2.9,1.3-3.7c0.8-0.8,2-1.2,3.5-1.2l0,0c1.4,0,2.4,0.4,3.1,1.1c0.7,0.8,1,1.8,1,3.1l0,0v6.5
				c0,1.1,0.1,2.2,0.2,3.5l0,0h-3.3c-0.1-0.5-0.2-1.1-0.3-2l0,0c-0.2,0.6-0.5,1.2-1,1.6S104.4,89.2,103.7,89.2L103.7,89.2z
				 M105,86.6c0.2,0,0.5-0.1,0.7-0.2s0.4-0.3,0.5-0.6l0,0v-3.8c-0.8,0.4-1.3,0.9-1.7,1.4c-0.4,0.5-0.6,1-0.6,1.7l0,0
				c0,0.5,0.1,0.9,0.3,1.2C104.4,86.4,104.6,86.6,105,86.6L105,86.6z M116.2,89.2c-1.2,0-2.2-0.3-3-0.9s-1.4-1.5-1.8-2.7l0,0
				l2.6-1.1c0.5,1.4,1.2,2.1,2.1,2.1l0,0c0.3,0,0.6-0.1,0.8-0.2s0.3-0.4,0.3-0.6l0,0c0-0.4-0.1-0.7-0.4-1c-0.2-0.3-0.7-0.7-1.4-1.3
				l0,0l-1.3-1.1c-0.8-0.7-1.3-1.3-1.7-1.8c-0.4-0.6-0.6-1.2-0.6-2l0,0c0-0.7,0.2-1.4,0.6-2c0.4-0.6,0.9-1,1.5-1.3
				c0.6-0.3,1.3-0.5,2.1-0.5l0,0c1.1,0,2.1,0.3,2.8,1c0.7,0.6,1.2,1.5,1.5,2.7l0,0l-2.4,1.1c-0.1-0.6-0.4-1.1-0.7-1.5
				c-0.3-0.4-0.7-0.6-1.1-0.6l0,0c-0.3,0-0.5,0.1-0.7,0.3S115,78,115,78.2l0,0c0,0.3,0.1,0.6,0.4,0.9c0.3,0.3,0.7,0.7,1.3,1.2l0,0
				l1.3,1.2c0.8,0.6,1.3,1.3,1.8,1.9c0.4,0.6,0.6,1.3,0.6,2.1l0,0c0,0.8-0.2,1.4-0.6,2c-0.4,0.6-0.9,1-1.5,1.3
				C117.6,89,116.9,89.2,116.2,89.2L116.2,89.2z M126.3,89.1c-1.4,0-2.4-0.3-2.9-0.9s-0.8-1.6-0.8-2.9l0,0v-7.9h-1.4V75h1.4v-4.2
				h3.7V75h2v2.4h-2v7.6c0,0.8,0.4,1.2,1.2,1.2l0,0c0.4,0,0.8,0,1-0.1l0,0v2.8C127.7,89,126.9,89.1,126.3,89.1L126.3,89.1z
				 M134.8,89.2c-1.5,0-2.7-0.4-3.5-1.3s-1.2-2-1.2-3.6l0,0v-4.7c0-1.6,0.4-2.8,1.2-3.6c0.8-0.8,2-1.3,3.5-1.3l0,0
				c1.6,0,2.7,0.4,3.4,1.3c0.7,0.8,1.1,2.1,1.1,3.7l0,0v2.4h-5.6v2.7c0,0.6,0.1,1,0.3,1.3c0.2,0.3,0.5,0.4,0.8,0.4l0,0
				c0.7,0,1.1-0.5,1.1-1.6l0,0v-1.4h3.4v1.2c0,1.4-0.4,2.5-1.2,3.2C137.4,88.8,136.3,89.2,134.8,89.2L134.8,89.2z M133.7,80.4h2.2
				V79c0-0.6-0.1-1.1-0.3-1.3c-0.2-0.3-0.5-0.4-0.8-0.4l0,0c-0.4,0-0.6,0.1-0.8,0.4c-0.2,0.3-0.3,0.8-0.3,1.5l0,0V80.4z M141.5,88.9
				V75h3.6v2.2c0.5-0.8,1-1.4,1.4-1.8s1-0.6,1.6-0.6l0,0c0.1,0,0.3,0,0.6,0l0,0v3.7c-0.4-0.2-0.9-0.3-1.3-0.3l0,0
				c-0.9,0-1.6,0.5-2.3,1.4l0,0v9.3H141.5z M156.7,88.9V69.4h5.1c2.1,0,3.7,0.4,4.8,1.2s1.6,2.1,1.6,4l0,0c0,1.3-0.2,2.3-0.5,3.1
				s-1,1.4-1.9,1.8l0,0l2.7,9.5h-4.1l-2.2-8.9h-1.4v8.9H156.7z M160.6,77.7h1.2c0.9,0,1.6-0.2,2-0.7c0.4-0.5,0.6-1.2,0.6-2.2l0,0
				c0-1-0.2-1.7-0.5-2.1c-0.3-0.5-0.9-0.7-1.8-0.7l0,0h-1.4V77.7z M175,89.2c-1.5,0-2.7-0.4-3.5-1.2c-0.8-0.8-1.2-2-1.2-3.5l0,0v-5
				c0-1.5,0.4-2.7,1.2-3.5c0.8-0.8,2-1.2,3.5-1.2l0,0c1.5,0,2.7,0.4,3.5,1.2c0.8,0.8,1.2,2,1.2,3.5l0,0v5c0,1.5-0.4,2.7-1.2,3.5
				C177.6,88.8,176.5,89.2,175,89.2L175,89.2z M175,86.7c0.4,0,0.7-0.2,0.9-0.5s0.2-0.8,0.2-1.5l0,0v-5.5c0-0.7-0.1-1.2-0.2-1.5
				s-0.4-0.5-0.9-0.5l0,0c-0.4,0-0.7,0.2-0.9,0.5c-0.2,0.3-0.2,0.8-0.2,1.5l0,0v5.5c0,0.6,0.1,1.1,0.2,1.5
				C174.2,86.5,174.5,86.7,175,86.7L175,86.7z M186,89.2c-1.2,0-2.2-0.3-3-0.9c-0.8-0.6-1.4-1.5-1.8-2.7l0,0l2.6-1.1
				c0.5,1.4,1.2,2.1,2.1,2.1l0,0c0.3,0,0.6-0.1,0.8-0.2c0.2-0.2,0.3-0.4,0.3-0.6l0,0c0-0.4-0.1-0.7-0.4-1c-0.2-0.3-0.7-0.7-1.4-1.3
				l0,0l-1.3-1.1c-0.8-0.7-1.3-1.3-1.7-1.8c-0.4-0.6-0.6-1.2-0.6-2l0,0c0-0.7,0.2-1.4,0.6-2c0.4-0.6,0.9-1,1.5-1.3
				c0.6-0.3,1.3-0.5,2.1-0.5l0,0c1.1,0,2.1,0.3,2.8,1c0.7,0.6,1.2,1.5,1.5,2.7l0,0l-2.4,1.1c-0.1-0.6-0.4-1.1-0.7-1.5
				c-0.3-0.4-0.7-0.6-1.1-0.6l0,0c-0.3,0-0.5,0.1-0.7,0.3s-0.3,0.4-0.3,0.7l0,0c0,0.3,0.1,0.6,0.4,0.9c0.3,0.3,0.7,0.7,1.3,1.2l0,0
				l1.3,1.2c0.8,0.6,1.3,1.3,1.8,1.9c0.4,0.6,0.6,1.3,0.6,2.1l0,0c0,0.8-0.2,1.4-0.6,2c-0.4,0.6-0.9,1-1.5,1.3
				C187.4,89,186.7,89.2,186,89.2L186,89.2z M195.9,89.2c-1.2,0-2.2-0.3-3-0.9c-0.8-0.6-1.4-1.5-1.8-2.7l0,0l2.6-1.1
				c0.5,1.4,1.2,2.1,2.1,2.1l0,0c0.3,0,0.6-0.1,0.8-0.2c0.2-0.2,0.3-0.4,0.3-0.6l0,0c0-0.4-0.1-0.7-0.4-1c-0.2-0.3-0.7-0.7-1.4-1.3
				l0,0l-1.3-1.1c-0.8-0.7-1.3-1.3-1.7-1.8c-0.4-0.6-0.6-1.2-0.6-2l0,0c0-0.7,0.2-1.4,0.6-2c0.4-0.6,0.9-1,1.5-1.3
				c0.6-0.3,1.3-0.5,2.1-0.5l0,0c1.1,0,2.1,0.3,2.8,1c0.7,0.6,1.2,1.5,1.5,2.7l0,0l-2.4,1.1c-0.1-0.6-0.4-1.1-0.7-1.5
				c-0.3-0.4-0.7-0.6-1.1-0.6l0,0c-0.3,0-0.5,0.1-0.7,0.3s-0.3,0.4-0.3,0.7l0,0c0,0.3,0.1,0.6,0.4,0.9c0.3,0.3,0.7,0.7,1.3,1.2l0,0
				l1.3,1.2c0.8,0.6,1.3,1.3,1.8,1.9c0.4,0.6,0.6,1.3,0.6,2.1l0,0c0,0.8-0.2,1.4-0.6,2c-0.4,0.6-0.9,1-1.5,1.3
				C197.4,89,196.7,89.2,195.9,89.2L195.9,89.2z M213.2,89.2c-1.8,0-3.2-0.5-4.1-1.5c-0.9-1-1.4-2.5-1.5-4.6l0,0l3.4-0.6
				c0,1.2,0.2,2.2,0.5,2.7c0.3,0.6,0.8,0.9,1.4,0.9l0,0c0.5,0,0.8-0.1,1-0.4c0.2-0.3,0.3-0.7,0.3-1.1l0,0c0-0.8-0.2-1.4-0.5-2
				c-0.3-0.5-0.9-1.1-1.6-1.8l0,0l-2-1.8c-0.8-0.7-1.4-1.4-1.8-2.2c-0.4-0.8-0.6-1.7-0.6-2.8l0,0c0-1.6,0.5-2.8,1.4-3.7
				s2.2-1.3,3.9-1.3l0,0c1.8,0,3,0.5,3.7,1.5c0.7,1,1.1,2.3,1.2,3.9l0,0l-3.5,0.5c0-1-0.1-1.8-0.4-2.3c-0.2-0.5-0.6-0.7-1.2-0.7l0,0
				c-0.4,0-0.8,0.2-1,0.5c-0.2,0.3-0.4,0.7-0.4,1.2l0,0c0,0.6,0.1,1.2,0.4,1.6c0.3,0.4,0.7,0.9,1.3,1.5l0,0l2,1.7
				c0.9,0.8,1.7,1.7,2.2,2.6s0.8,2,0.8,3.2l0,0c0,0.9-0.2,1.8-0.6,2.5c-0.4,0.7-1,1.3-1.8,1.7S214.2,89.2,213.2,89.2L213.2,89.2z
				 M224.3,89.1c-1.4,0-2.4-0.3-2.9-0.9s-0.8-1.6-0.8-2.9l0,0v-7.9h-1.4V75h1.4v-4.2h3.7V75h2v2.4h-2v7.6c0,0.8,0.4,1.2,1.2,1.2l0,0
				c0.4,0,0.8,0,1-0.1l0,0v2.8C225.7,89,224.9,89.1,224.3,89.1L224.3,89.1z M232.8,89.2c-1.5,0-2.7-0.4-3.5-1.3
				c-0.8-0.8-1.2-2-1.2-3.6l0,0v-4.7c0-1.6,0.4-2.8,1.2-3.6s2-1.3,3.5-1.3l0,0c1.6,0,2.7,0.4,3.4,1.3c0.7,0.8,1.1,2.1,1.1,3.7l0,0
				v2.4h-5.6v2.7c0,0.6,0.1,1,0.3,1.3c0.2,0.3,0.5,0.4,0.8,0.4l0,0c0.7,0,1.1-0.5,1.1-1.6l0,0v-1.4h3.4v1.2c0,1.4-0.4,2.5-1.2,3.2
				C235.3,88.8,234.2,89.2,232.8,89.2L232.8,89.2z M231.7,80.4h2.2V79c0-0.6-0.1-1.1-0.3-1.3s-0.5-0.4-0.8-0.4l0,0
				c-0.4,0-0.6,0.1-0.8,0.4c-0.2,0.3-0.3,0.8-0.3,1.5l0,0V80.4z M241.3,88.9l-2.8-14h3.5l1.3,9.4l1.2-9.4h3.5l-2.8,14H241.3z
				 M253.9,89.2c-1.5,0-2.7-0.4-3.5-1.3c-0.8-0.8-1.2-2-1.2-3.6l0,0v-4.7c0-1.6,0.4-2.8,1.2-3.6s2-1.3,3.5-1.3l0,0
				c1.6,0,2.7,0.4,3.4,1.3s1.1,2.1,1.1,3.7l0,0v2.4h-5.6v2.7c0,0.6,0.1,1,0.3,1.3c0.2,0.3,0.5,0.4,0.8,0.4l0,0
				c0.7,0,1.1-0.5,1.1-1.6l0,0v-1.4h3.4v1.2c0,1.4-0.4,2.5-1.2,3.2C256.4,88.8,255.3,89.2,253.9,89.2L253.9,89.2z M252.8,80.4h2.2
				V79c0-0.6-0.1-1.1-0.3-1.3s-0.5-0.4-0.8-0.4l0,0c-0.4,0-0.6,0.1-0.8,0.4c-0.2,0.3-0.3,0.8-0.3,1.5l0,0V80.4z M260.5,88.9V75h3.6
				v1.4c1.1-1.1,2.3-1.6,3.4-1.6l0,0c0.8,0,1.4,0.3,1.8,0.9c0.4,0.6,0.6,1.4,0.6,2.3l0,0v11h-3.6V78.5c0-0.4-0.1-0.7-0.2-0.9
				c-0.1-0.2-0.3-0.3-0.7-0.3l0,0c-0.4,0-0.8,0.2-1.4,0.6l0,0v11H260.5z M278.7,88.9V69.4h5.1c2.1,0,3.7,0.4,4.8,1.2s1.6,2.1,1.6,4
				l0,0c0,1.3-0.2,2.3-0.5,3.1c-0.4,0.8-1,1.4-1.9,1.8l0,0l2.7,9.5h-4.1l-2.2-8.9h-1.4v8.9H278.7z M282.7,77.7h1.2
				c0.9,0,1.6-0.2,2-0.7c0.4-0.5,0.6-1.2,0.6-2.2l0,0c0-1-0.2-1.7-0.5-2.1c-0.3-0.5-0.9-0.7-1.8-0.7l0,0h-1.4V77.7z M297,89.2
				c-1.5,0-2.7-0.4-3.5-1.2c-0.8-0.8-1.2-2-1.2-3.5l0,0v-5c0-1.5,0.4-2.7,1.2-3.5c0.8-0.8,2-1.2,3.5-1.2l0,0c1.5,0,2.7,0.4,3.5,1.2
				c0.8,0.8,1.2,2,1.2,3.5l0,0v5c0,1.5-0.4,2.7-1.2,3.5C299.7,88.8,298.5,89.2,297,89.2L297,89.2z M297,86.7c0.4,0,0.7-0.2,0.9-0.5
				c0.2-0.3,0.2-0.8,0.2-1.5l0,0v-5.5c0-0.7-0.1-1.2-0.2-1.5c-0.2-0.3-0.4-0.5-0.9-0.5l0,0c-0.4,0-0.7,0.2-0.9,0.5s-0.2,0.8-0.2,1.5
				l0,0v5.5c0,0.6,0.1,1.1,0.2,1.5S296.6,86.7,297,86.7L297,86.7z M308,89.2c-1.2,0-2.2-0.3-3-0.9s-1.4-1.5-1.8-2.7l0,0l2.6-1.1
				c0.5,1.4,1.2,2.1,2.1,2.1l0,0c0.3,0,0.6-0.1,0.8-0.2c0.2-0.2,0.3-0.4,0.3-0.6l0,0c0-0.4-0.1-0.7-0.4-1c-0.2-0.3-0.7-0.7-1.4-1.3
				l0,0l-1.3-1.1c-0.8-0.7-1.3-1.3-1.7-1.8c-0.4-0.6-0.6-1.2-0.6-2l0,0c0-0.7,0.2-1.4,0.6-2c0.4-0.6,0.9-1,1.5-1.3
				c0.6-0.3,1.3-0.5,2.1-0.5l0,0c1.1,0,2.1,0.3,2.8,1c0.7,0.6,1.2,1.5,1.5,2.7l0,0l-2.4,1.1c-0.1-0.6-0.4-1.1-0.7-1.5
				c-0.3-0.4-0.7-0.6-1.1-0.6l0,0c-0.3,0-0.5,0.1-0.7,0.3c-0.2,0.2-0.3,0.4-0.3,0.7l0,0c0,0.3,0.1,0.6,0.4,0.9
				c0.3,0.3,0.7,0.7,1.3,1.2l0,0l1.3,1.2c0.8,0.6,1.3,1.3,1.8,1.9c0.4,0.6,0.6,1.3,0.6,2.1l0,0c0,0.8-0.2,1.4-0.6,2
				c-0.4,0.6-0.9,1-1.5,1.3C309.5,89,308.8,89.2,308,89.2L308,89.2z M318,89.2c-1.2,0-2.2-0.3-3-0.9c-0.8-0.6-1.4-1.5-1.8-2.7l0,0
				l2.6-1.1c0.5,1.4,1.2,2.1,2.1,2.1l0,0c0.3,0,0.6-0.1,0.8-0.2s0.3-0.4,0.3-0.6l0,0c0-0.4-0.1-0.7-0.4-1c-0.2-0.3-0.7-0.7-1.4-1.3
				l0,0l-1.3-1.1c-0.8-0.7-1.3-1.3-1.7-1.8c-0.4-0.6-0.6-1.2-0.6-2l0,0c0-0.7,0.2-1.4,0.6-2s0.9-1,1.5-1.3c0.6-0.3,1.3-0.5,2.1-0.5
				l0,0c1.1,0,2.1,0.3,2.8,1c0.7,0.6,1.2,1.5,1.5,2.7l0,0l-2.4,1.1c-0.1-0.6-0.4-1.1-0.7-1.5c-0.3-0.4-0.7-0.6-1.1-0.6l0,0
				c-0.3,0-0.5,0.1-0.7,0.3s-0.3,0.4-0.3,0.7l0,0c0,0.3,0.1,0.6,0.4,0.9c0.3,0.3,0.7,0.7,1.3,1.2l0,0l1.3,1.2
				c0.8,0.6,1.3,1.3,1.8,1.9c0.4,0.6,0.6,1.3,0.6,2.1l0,0c0,0.8-0.2,1.4-0.6,2c-0.4,0.6-0.9,1-1.5,1.3C319.4,89,318.7,89.2,318,89.2
				L318,89.2z M330.2,93.1l0-23.7h3v23.7H330.2z M344.3,88.9V73.2c-0.1,0.1-0.4,0.2-0.7,0.3c-0.3,0.1-0.6,0.2-0.8,0.3l0,0
				c-0.7,0.2-1.2,0.4-1.3,0.5l0,0v-2.8c0.5-0.2,1.2-0.6,2-1c0.8-0.4,1.3-0.8,1.7-1.2l0,0h2.9v19.6H344.3z M356.5,89.3
				c-1.9,0-3.2-0.5-4-1.5c-0.8-1-1.2-2.5-1.2-4.4l0,0v-0.7h3.7v0.7c0,1,0.1,1.7,0.4,2.1c0.2,0.4,0.6,0.7,1.2,0.7l0,0
				c0.6,0,1-0.2,1.2-0.7s0.3-1.2,0.3-2.2l0,0c0-1-0.2-1.8-0.5-2.3c-0.3-0.5-0.9-0.8-1.7-0.8l0,0c0,0-0.2,0-0.7,0l0,0v-2.7h0.6
				c0.9,0,1.4-0.2,1.8-0.7s0.5-1.2,0.5-2.2l0,0c0-0.8-0.1-1.5-0.4-1.9c-0.2-0.4-0.6-0.6-1.2-0.6l0,0c-0.6,0-1,0.2-1.2,0.7
				s-0.3,1.1-0.3,1.9l0,0v0.9h-3.7v-1.1c0-1.7,0.5-3,1.4-4c0.9-0.9,2.2-1.4,3.9-1.4l0,0c1.7,0,3,0.5,3.9,1.4
				c0.9,0.9,1.4,2.2,1.4,3.9l0,0c0,1.1-0.2,2.1-0.7,2.8c-0.5,0.8-1.1,1.3-1.8,1.4l0,0c1.6,0.6,2.5,2.1,2.5,4.6l0,0
				c0,1.9-0.4,3.4-1.3,4.4C359.7,88.7,358.3,89.3,356.5,89.3L356.5,89.3z M370.1,88.9V69.4h5c1.9,0,3.4,0.4,4.4,1.1
				c1,0.7,1.6,2.1,1.6,4l0,0c0,1.2-0.2,2.1-0.7,2.7c-0.5,0.7-1.2,1.1-2.1,1.2l0,0c1.1,0.2,2,0.6,2.6,1.4c0.6,0.8,0.9,1.9,0.9,3.3
				l0,0c0,3.8-1.9,5.7-5.7,5.7l0,0H370.1z M374,77.3h1c1,0,1.6-0.2,2-0.7c0.4-0.4,0.5-1.1,0.5-2.1l0,0c0-0.9-0.2-1.5-0.7-1.9
				c-0.5-0.4-1.2-0.6-2.1-0.6l0,0H374V77.3z M374,86.1h1.1c1,0,1.6-0.2,2-0.7c0.4-0.5,0.6-1.2,0.6-2.3l0,0c0-1.1-0.2-1.9-0.6-2.4
				c-0.4-0.5-1.1-0.7-2.1-0.7l0,0H374V86.1z M388.2,89.2c-1.5,0-2.7-0.4-3.5-1.2c-0.8-0.8-1.2-2-1.2-3.5l0,0v-5
				c0-1.5,0.4-2.7,1.2-3.5c0.8-0.8,2-1.2,3.5-1.2l0,0c1.5,0,2.7,0.4,3.5,1.2c0.8,0.8,1.2,2,1.2,3.5l0,0v5c0,1.5-0.4,2.7-1.2,3.5
				C390.8,88.8,389.7,89.2,388.2,89.2L388.2,89.2z M388.2,86.7c0.4,0,0.7-0.2,0.9-0.5c0.2-0.3,0.2-0.8,0.2-1.5l0,0v-5.5
				c0-0.7-0.1-1.2-0.2-1.5c-0.2-0.3-0.4-0.5-0.9-0.5l0,0c-0.4,0-0.7,0.2-0.9,0.5c-0.2,0.3-0.2,0.8-0.2,1.5l0,0v5.5
				c0,0.6,0.1,1.1,0.2,1.5C387.4,86.5,387.7,86.7,388.2,86.7L388.2,86.7z M395.1,88.9V75h3.6v1.4c1.1-1.1,2.3-1.6,3.4-1.6l0,0
				c0.8,0,1.4,0.3,1.8,0.9c0.4,0.6,0.6,1.4,0.6,2.3l0,0v11H401V78.5c0-0.4-0.1-0.7-0.2-0.9s-0.3-0.3-0.7-0.3l0,0
				c-0.4,0-0.8,0.2-1.4,0.6l0,0v11H395.1z M411.4,89.2c-1.5,0-2.7-0.4-3.5-1.3s-1.2-2-1.2-3.6l0,0v-4.7c0-1.6,0.4-2.8,1.2-3.6
				c0.8-0.8,2-1.3,3.5-1.3l0,0c1.6,0,2.7,0.4,3.4,1.3s1.1,2.1,1.1,3.7l0,0v2.4h-5.6v2.7c0,0.6,0.1,1,0.3,1.3
				c0.2,0.3,0.5,0.4,0.8,0.4l0,0c0.7,0,1.1-0.5,1.1-1.6l0,0v-1.4h3.4v1.2c0,1.4-0.4,2.5-1.2,3.2C414,88.8,412.9,89.2,411.4,89.2
				L411.4,89.2z M410.3,80.4h2.2V79c0-0.6-0.1-1.1-0.3-1.3c-0.2-0.3-0.5-0.4-0.8-0.4l0,0c-0.4,0-0.6,0.1-0.8,0.4
				c-0.2,0.3-0.3,0.8-0.3,1.5l0,0V80.4z M417.7,88.9v-2.4l3.9-8.9H418V75h7.4v2.2l-4,9.1h4v2.7H417.7z"/>
		</g>
	</g>
</g>
</svg>
