<?xml version="1.0" encoding="utf-8"?>
<!-- Generator: Adobe Illustrator 24.2.1, SVG Export Plug-In . SVG Version: 6.00 Build 0)  -->
<svg version="1.1" id="Layer_1" xmlns="http://www.w3.org/2000/svg" xmlns:xlink="http://www.w3.org/1999/xlink" x="0px" y="0px"
	 viewBox="0 0 605.7 150" style="enable-background:new 0 0 605.7 150;" xml:space="preserve">
<style type="text/css">
	.st0{fill:#353535;}
	.st1{fill:#E5E5E5;}
	.st2{fill:#E9E41D;}
</style>
<g>
	<g transform="rotate(0 118.9241 0)">
		<g transform="matrix(1 0 0 1 0 0)">
			<g>
				<path class="st0" d="M419.3,33.7c0,0.9-1.1,0.7-1.6,0.9c-2,0.7-3.8,1.9-5.8,2.5c-3.8,1.3-7.4,3.2-11.2,4.4
					c-2.8,0.9-5.5,2.4-8.4,3.3c-1,0.3-1.7,1-2.9,1c-1,0.1-1.5,1-1.4,2.1c-0.3-0.1-0.6,0.1-0.6,0.4c0,0.1,0.2,0.2,0.2,0.2
					c0.3-0.1,0.5-0.3,0.4-0.6c3.5,0.1,7-1.3,10.6-0.7c1.4-1.2,3.4-0.2,4.9-1.3c0.3-0.2,0.9-0.1,1.4-0.1c1.2,0,2.7,0.4,3.6-0.1
					c1.3-0.8,2.1,0.2,3.1,0.2c1.8,0.1,3.3-1,5.2-0.9c1.7,0.1,3.6,0.7,5.2-0.6c0.2-0.2,0.7,0,1.1,0c1.7,0,3.5,0.2,5.2-0.7
					c0.7-0.4,1.8-0.1,2.5,0.5c0.6-0.9,1.5-0.7,2.3-0.6c1.7,0.3,3-1.1,4.8-0.8c1.5,0.2,3.1,0.1,4.7,0c0.5,0,1-0.5,1.4-0.7
					c0.8,0,1.1,1.2,2,0.7c2.5-1.2,5.1-0.6,7.7-0.7c0.8,0,1.3-0.3,1.9-1c1.2,1.3,2.6,0.9,4,1c1.1,0.1,1.7-1.1,3-0.8
					c1,0.2,2.1,0.4,3-0.6c0.2-0.2,1.1-0.1,1.7,0.2c1.6,0.9,3.3,0.9,5-0.3c0.8-0.2,1.2,1.1,2.1,0.8c0.8-0.3,1.4,0.4,2.1,0.6l0.3-1.2
					c2.9,1.4,5.8,2.7,8.6,4.7v2.1l1.3,1.3c0.8,1.7-0.8,3-0.6,4.4l-2.5,2.6c-2.5,0.1-4.4-1-6.6-2l-1.7,0.8c-0.4,0.5,0.3,1.4-0.5,1.9
					c-0.6-0.3-0.1-1.2-0.9-1.4l-0.5,1.3l-1-0.5c-0.9,1.4,0.8,1.4,0.8,2c0.9,0.2,1.1-0.4,1.5-0.7c0.7,0.8,1.8,0.9,2.6,1.5
					c0.8-0.9,1.9,0.1,2.7-0.5c0.8,1.1,2.1,0,2.9,0.8c0.6,1.2-1.5,1.7-0.1,3.2c-1.9-0.1-3.1,0.6-3.9,1.8c-2.6-0.9-5.1-1.6-7.5-0.2
					c-1.3-1.1-3.2-1.1-4.3-0.6c-1.1,0.6-2.1-0.2-2.9,0.3c-1.2,0.8-1.9-0.2-2.9-0.4c-0.7-0.2-1.6-0.3-2.1,0c-1.9,1.1-3.9,0.5-5.9,0.7
					c-1.4,0.2-2.9-0.6-4.1,0.7c-0.1,0.1-0.5,0.1-0.7,0c-1.9-1.3-3.7-0.1-5.6,0c-2,0.1-4.2-0.4-6.1,0.1c-3.3,0.8-6.7,0.1-9.8,0.8
					c-2.6,0.5-5.2,0.1-7.7,0.7c-2.8,0.6-5.7,0.2-8.4,0.8c-2.4,0.5-4.8,0-6.9,0.7c-2.3,0.8-4.5,0-6.6,0.7c-2.4,0.7-4.9,0.3-7.3,0.8
					c-2,0.4-4.1,0.3-5.9,1.4l-1.1-1c-1.4,1.7-3.6,0.3-5.2,1.3c-0.6,0.4-1.1,0.4-1.7,0.3c-3.6-0.1-7.2,0.4-10.7,1.4
					c-1,0.3-2.2,0.1-3.2,0c-2.5-0.2-4.8,0.4-7.1,1.2c-1.4,0.5-3.1-0.3-4.3,0.9c-2.7-0.5-5.3,0.6-8,0.8c-2.8,0.2-5.6,1-8.4,1.6
					c-0.4,0.1-0.7,0.4-1.2,0.5c-1.2,0.1-2.5-0.3-3.8,0.6c-0.9,0.6-2.6-0.3-3.6,0.8c-3.1-0.7-5.8,1.8-8.8,1.4
					c-0.8-0.1-1.1,0.7-1.9,0.8c-0.6,0.1-1.1,0.7-1.9,0.6c-4-0.2-7.6,1.3-11.4,2.4c-3.2,0.9-6.6,1.5-9.5,3.3
					c-0.7,0.4-1.9,0.1-2.1,0.1c-4.2,1.7-7.8,2.7-11.6,3c-1.1,1.4-3,1.2-4.6,1.7c-4.5,1.4-9,2.8-13.5,4.1c-1.8,0.6-3.7,1.6-5.5,2.5
					c-1.6,0.8-3.2,1.9-5.1,1.7c-1-0.1-1.6,0.5-2.2,0.8c-5.8,3.2-12.3,4.8-18.2,7.8c-2-0.5-3.1,1.2-4.7,1.8c-1.4,0.6-2.9,1.2-4.3,1.9
					c-3.1,1.5-6.5,2.5-9.7,3.7c-0.4,0.2-0.9-0.1-1.3,0.3c-2.4,2.2-5.7,2.7-8.5,3.9c-2.7,1.2-5.6,2.1-8.3,3.5c-1,0.5-2.1,0.7-3.1,1
					l-0.6-0.6c-0.2,0.1-0.5,0.2-0.5,0.2c0,1.2-0.7,1.7-1.7,1.8c-2,0.2-3.5,1.5-5.3,2.2c-1.7,0.6-3.3,1.2-5,2c-3,1.5-6.2,2.5-9.3,3.7
					c-0.4,0.2-0.9,0.1-1.3,0.4c-1.7,1.6-3.9,2.2-6.2,2.5c-1.4,0.2-2.4,2-4.1,1.4c-1.4,1.9-3.8,1.9-5.8,2.7c-1.9,0.8-3.8,1.4-5.7,2.1
					c-2,0.7-4,1.3-6,2.2c-2.6,1.2-5.6,1.7-8.4,2.4c-0.5,0.1-1.1,0.2-1.6,0.4c-2.1,1.1-2.1,1-4.7,1l-1.6-4c0.6-0.4,1.5-0.5,2-1.3
					c-2.2-0.7-2.5-3.6-4.8-4c-0.7-1.4-0.1-2.4,0.9-2.9c2.9-1.5,5.7-3.1,8.5-4.8c1.1-0.7,2.5-0.8,3.7-1.6c2.6-1.7,5.7-2.6,8.3-4.4
					c1.1-0.7,2.3-1.4,3.7-1.6c1.3-0.2,2.3-1.4,3.5-2.1c2.2-1.2,4.6-1.8,6.7-3c4.1-2.4,8.7-3.6,12.8-5.9c1.4-0.8,2.9-1.3,4.4-1.4
					l0.3-1.2c0.2-0.1,0.4-0.2,0.6-0.2c0.7-0.1,1.4,0.2,2.1-0.3c2.1-1.2,4.3-2.3,6.7-3.1c0.9-0.3,1.6-0.7,1.7-1.7l0.9,0.8
					c1.7-1,3.1-2.9,5.4-2.3c0.2-0.1,0.3-0.2,0.3-0.3c0.1-0.3,0.2-0.7,0.3-1c3.4-0.7,6.8-1.6,9.6-3.8c3.6-0.1,6.2-2.6,9.4-3.4
					c2.3-0.3,4.6-0.3,6.3-2.2c2-0.1,3.1-2.2,4.8-2.3c1.9,0,3.3-1,4.8-1.7c5.6-2.3,11.5-3.6,17-6.1c1-0.4,1.9,0,2.8-0.4l0.3-1.3
					c2,0.6,3.9-1.1,6-0.7l1.5-1.5l0.6,0.6c2.2-1.4,4.9-1.8,7.2-3.3c0.8-0.5,2.1-0.2,3.1-0.3l1.3-1.3h2.3l1.1-1.6
					c3.3,0.8,5.4-1.6,8.2-2.1l1,0.8l1.8-2.3c3.3,0.6,5.9-0.9,8.6-1.7c1.8-0.5,3.4-1.4,5.3-1l1.6-1.5l0.6,0.6
					c0.8-0.4,1.6-0.5,2.3-1.4h3c0.4-0.7-0.5-0.7-0.3-1.2c1.1-0.8,2.6,0.5,3.7-0.8c1.1,0.7,2.1,0.4,3.4-0.1c1-0.3,2.4-0.3,3.2-0.9
					c1.1-0.8,2.6-0.3,3.4-1.5l1.2,0.8c0.9-1.1,3-0.3,3.4-2.2l0.9,0.8c1.1-1,2.6-1.2,4-1.7c3.1-1.2,6.3-2.3,9.5-3.3
					c0.3-0.1,0.6-0.3,0.9-0.5c1.8-1.3,3.9-1.6,5.9-2.4c2-0.8,4.1-1.4,5.9-2.4c1.3-0.7,2.8,0.2,3.9-1.3c0.6-0.8,2.2-0.9,3.4-1.4
					c1.2-0.5,2.7-0.8,3.6-1.6c0.8-0.7,1.8-0.6,2.6-0.9c2.3-0.7,4.4-1.7,6.5-2.7c2.3-1,4.6-1.7,7-2.4c2.7-0.7,5.1-2.3,7.7-3.2
					c3.5-1.1,7-2.4,10.1-4.4c3.8-0.2,6.8-2.8,10.6-3.4c2.2-0.3,4-2,6.2-2.6c2.1-0.5,4.2-0.9,5.8-2.7c0.3-0.3,1.2-0.1,1.6-0.3
					c0.5-0.3,0.9-0.8,1.3-1.3l0.5,0.6c0.6,0.3,0.7-0.8,1.4-0.6c0.4,0.1,1,0.2,1.3-0.3l0.2-1.1h2.3c1.6-2.3,4.7-1.9,6.9-3.5
					c1.9-1.5,4.8-1.7,7.2-2.5c0.2-0.3,0.2-0.7,0.1-0.9l-0.3-0.3c-1.3,1.7-3.5-0.2-4.9,1.2c-0.3,0.3-1.1,0.2-1.7,0.2
					c-1.6,0.1-3.2,0.1-4.8,0.6c-2.1,0.7-4.4,0.5-6.5,1c-3,0.7-5.9,0.4-8.8,0.6l-1.5,1.4c-0.2-0.2-0.5-0.5-0.5-0.5
					c-2.3,1.2-5.1,0.7-7.4,2c-3.3-0.5-6.4,0.7-9.5,1.6c-3.3,0.9-6.9,0-10.1,1.9c-1.3,0.8-3.3-0.3-4.7,0.9c-3.4-0.1-6.5,1.5-9.9,1.5
					c-1.7,0-3.5,0.8-5.2,1.4c-2.3,0.8-4.7,0.7-7,1.3c-1.3,0.4-2.6,0.7-3.9,1.2c-0.6,0.2-1.1,0.4-1.7,0.4c-2.6-0.2-5,0.7-7.4,1.4
					c-2.1,0.6-4.2,1-6.3,1.5c-2.7,0.7-5.4,1.4-8.2,2.2c-0.3,0.1-0.6,0.4-1.1,0.7c-3.2-0.7-6.3,1.1-9.5,1.8c-1,0.2-2.1-0.1-3,0.6
					c-1.2,1.1-3.1-0.3-4.2,1.2c-1.4-0.1-2.6,0.7-4,0.8c-2.1,0.2-4.2,1-6.1,1.7c-1,0.4-2.1-0.1-3,0.6c-1.2,1.1-2.9,0-4.3,1
					c-0.9,0.6-2.6,0.8-3.9,1c-2.7,0.5-5.5,1.3-8.1,2.2c-2,0.7-4.2,0.8-6.1,2c-0.5,0.3-1.5,0.3-1.7-0.7c-0.7,0.3-0.4,0.8-0.8,1.5
					c-2.3-0.6-4.3,1.5-6.6,1.4c-0.6-0.6-0.2-1.2-0.4-1.8c0.8-0.7,2-0.2,2.9-1c0.9-0.8,1.6,0.9,2.6,0.7c1.5-2.6,4.2-2.6,6.7-3
					c0.4-0.4,0.9-0.9,1.3-1.3c0.1,0,0.2,0.1,0.3,0.1c3.1-0.2,4.4-0.6,7.4-2.4h5.1l1.4-1.6c1.5,0,2.6-0.4,3.4-0.7
					c1.2-0.3,2.7-0.2,3.6-0.9c1.1-0.8,2.3,0,3.3-0.8c0.7-0.6,1.9-2,3.1-0.4c1-0.7,2.3-0.9,2.8-2.1c2.2,0.4,4.3,0,6.2-1.2l-0.2-0.8
					c-1.1-0.3-2.1-0.2-3.3,0.5c-0.5,0.3-1.2,1.1-2.2,0.9c-1.7-0.4-3.1,0.7-4.6,1.1c-1.1,0.3-2.2,1.1-3.2,1c-3-0.5-5.2,2.3-8.1,1.5
					c-1.5,1.7-3.6,1.2-5.5,1.6c-0.6,0.1-2.2,0.1-2.1,2.1h-4.4c-1.4,0.5-2.7,1.7-4.4,1.5c-1.3-0.2-2.3,1.2-3.7,0.7
					c-4.6,1.8-9.4,3-14.1,4.5c-3.1,0.9-6.1,2.1-9.4,2.8c-1.7,0.4-3.3,1.4-5.1,1.7c-2,0.3-4.2,1-5.9,2.2c-1.1,0.8-2.3,0.1-3.5,0.5
					c-1.2,1.4-3.1,1.1-4.7,1.7c-5.4,2-10.9,3.3-16.3,5.2c-2.9,1-5.9,2.2-8.9,3c-3,0.9-6.1,1.7-8.8,3.3c-0.9,0.5-2,0.1-2.9,1
					c-0.4,0.4-1.7,0.2-2-1.2c0.2-1,1.6-1.3,2.4-1.5c3.3-0.9,5.9-3.3,9.3-3.7c6.1-3.5,12.9-4.9,19.3-7.6c2.4-1,4.7-2.1,7.2-2.8
					c3.8-1.1,7.2-3.1,11-4c2.4-0.6,4.6-1.8,6.9-2.6c1.1-0.4,2.3,0.1,3.3-0.8c0.7-0.6,1.9-1.2,3.2-1c1.2,0.2,1.5-1.9,3-1.4
					c2.1-1.3,4.6-1.2,6.7-2.2c1.7-0.8,3.5-1.8,5.3-2c2.1-0.2,3.9-1.1,5.9-1.6c1.8-0.5,3.6-1.3,5.4-1.8c3.7-1,7.3-2.1,11-3.2
					c1.3-0.4,2.7-0.5,3.8-1.5c2.9-0.1,3.5-0.5,7.1-1.9c1.8-0.7,3.9-1.5,5.8-1.6c2.7-0.2,5-1.4,7.6-2c1.5-0.3,3.4,0.4,4.6-1.1
					c2.8,0.4,5-1.4,7.7-1.7c2.4-0.3,4.7-1.5,7.2-1.8c1.1-0.2,2-0.6,2.9-1c0.7-0.3,1.2-0.7,1.9-0.6c1.9,0.5,3.7-0.4,5.5-0.9
					c1.6-0.4,3.4-0.4,4.8-1.4l0.8,0.7c1.4-0.9,3.1-0.8,4.4-2.1c1.7-0.1,3.5-0.2,5.3-0.6c1.8-0.4,3.6-0.6,5.3-1.3
					c0.1,0,0.2-0.2,0.3-0.2c3.2,0.5,6.2-0.7,9.2-1.5c2-0.5,4.1-0.5,6-1.4c0.5-0.2,1.2-0.1,1.8-0.1c1.3-0.1,2.5,0,3.7-0.6
					c1.1-0.5,2.4-0.2,3.7-0.7c1.3-0.5,2.8-1.2,4.4-0.9c0.9,0.2,1.8-0.5,2.6-0.6c3-0.4,5.9-1,8.8-1.5c1.2-0.2,2.5,0,3.7-0.7
					c0.9-0.5,2.1-0.1,3.4-0.7c1.3-0.6,3.2,0.2,4.7-0.9c2.6,0.6,5.2-0.5,7.7-0.9c3.6-0.6,7.3-0.4,10.7-2c0.2-0.1,0.5-0.1,0.7,0
					c2.7,0.5,5.3-1.2,8-0.7c1.5,0.3,2.8-1.1,4.4-0.8c1.4,0.2,3,0.4,4.3,0c4.2-1.4,8.5-0.2,13-0.8l1.7,2.4c-0.3,0.9,0.7,2.2,0.9,3.8
					c-1.2,1-2.1,2.4-3.7,3c0.5,0.6,1.3,1.1,1.5,1.8c-1,1.5-3.5,1-3.8,3.3c-1.6,1-3.5,1.3-5,2.8c-0.5,0.5-1.1,0.9-1.7,1
					c-3.1,0.7-5.6,2.9-8.5,4.1c-6.1,2.5-11.9,5.6-18.2,7.7c-1.4,0.5-2.5,1.5-3.9,2C423,32.5,421.3,33.6,419.3,33.7
					c-0.2-0.7,0.3-1.3-0.5-1.6C418.3,32.6,418.4,33,419.3,33.7L419.3,33.7z M401.4,37.2c1.1-0.3,2,0.3,2.9-0.9
					c-1,0.3-1.8-0.3-2.4,0.8c-0.3-0.1-0.6,0.1-0.6,0.4c0,0.1,0.2,0.2,0.2,0.2C401.7,37.6,401.9,37.4,401.4,37.2L401.4,37.2z
					 M212.5,113c0.7,0,1.6,0.6,2.1-0.2c0.1-0.6,0.1-1-0.7-1.1c-0.6-0.1-0.9,0.7-1.2,1.8c-1.1-0.5-2.1-0.6-3.3,0.1
					C210.6,113.9,211.6,114,212.5,113z M165.1,131.9l2.1,0c0.3-0.4,0.9-0.6,0.9-1.3c-1.2-0.7-2,0-2.7,1.3c-0.7,0.3-1.8-0.7-2.2,0.7
					c-0.2,0-0.5,0-0.7,0c-3.9,0.8-7.4,2.7-11.1,4.2c-0.3,0.1-0.6,0.4-0.5,0.8h-1.2c-0.4,0.6-0.4,1,0,1.4c1.1,0.2,1.6-0.5,1.9-1.4
					c0.9,0.4,1.4-0.7,2.2-0.7c0.9-0.1,1.7,0,2.6-0.7c1.8-1.4,4-1.9,6.2-2.2c0.4-0.1,0.6-0.3,0.6-0.7
					C164.3,133.5,165.1,133.1,165.1,131.9L165.1,131.9z M177.7,126.9c1.3,0,2.6,0.2,3.6-0.7h1.2c0.4-0.6,0.4-1,0-1.4
					c-0.6-0.1-1.1-0.2-1.2,0.7C180,125.6,178.3,124.8,177.7,126.9c-0.7,0.3-1.8-0.7-1.9,0.5l-4,1.3c0.7,0.4,0.9,1.2,1.6,1.1
					c0.7-0.7,1.4-1.4,2.1-2.2C176.3,127.3,177.4,128.3,177.7,126.9z M190,121.8h-3.3c-0.6,1.3-2.4,1.4-3.2,2.5
					c0.2,0.3,0.6,0.5,0.9,0.3c1.7-0.8,4-0.3,5.3-2.1c0.1-0.2,0.7,0,1.1,0c0.9,0,0.9-0.7,0.6-1.1C190.9,120.8,190.2,120.8,190,121.8
					L190,121.8z M319.9,32.7c0-0.1,0-0.3,0-0.4c0-0.1-0.2-0.3-0.2-0.2c-0.7,0.5-1.7,0.5-2.4,1.4h-3c-0.2,0.5-0.9,0.6-0.7,1.3
					c2.2,0.1,4.2-0.9,6.3-1.1c0,0,0-0.2,0-0.3c1.2-0.1,2.3,0.2,3.5-0.2c2.4-0.9,4.7-2.5,7.5-1.9c1.1-1.4,2.9-0.3,4.3-1
					c1.7-0.9,3.6-1.4,5.6-1.1c0-1.2,0.9-1.5,2-2.2c-3.3,0-5.8,2-8.7,1.6c-1.2,0.3-2,1.6-3.4,1.3c-1.8-0.4-3.5,0.5-5.1,0.9
					c-1.6,0.4-3.7,0.4-4.9,2C320.5,32.8,320.1,32.7,319.9,32.7L319.9,32.7z M398.2,17.3c1.4,0.6,1.9-1,3.2-0.6
					c1,0.3,2.2-0.1,3.2,0.1c1.3,0.2,2.2-0.7,3.3-0.9c1.5-0.3,3.2-0.4,4.7-0.9c0.8-0.3,1.6-1,2.4-1.1c0.8-0.1,1.7-1.1,2.6-0.2
					c0.7-1.2,1.5,1,2.3-0.1c0.2-0.4,0-0.9,0.5-1.2c0.7,1.2,1.5,0.6,2.2,0.1c1,1.5,1.8-0.3,2.7-0.2c1.2,0.1,2.7,0.5,3.5-0.1
					c1.4-0.9,2.8-0.5,4.1-0.6c1.4-0.1,2.5-1.1,4-0.8c1.8,0.3,3.7-0.1,5.5-0.7c0.9-0.3,0.7-0.7,0.5-1.3c-3-1-5.8,0.7-8.7,0.5
					c-1.4,1.4-3.2,0.4-4.7,0.9c-2.3,0.7-4.7,1.4-7,1.2c-2.9-0.1-5.5,1.3-8.4,0.8c-0.2,0-0.4,0.2-0.6,0.2c-1.8,0.4-3.5,1.2-5.3,1.1
					c-2.1-0.1-3.9,0.6-5.8,1c-1.2,0.2-2.4,0.5-3.7,0.6c-0.2,0-0.4,0.2-0.5,0.4L398.2,17.3L398.2,17.3z M388.7,17.6
					c-2.4-0.3-4.4,0.1-6.4,1c-0.3,0.1-0.5,0.4-0.9,0.4c-3.3-0.1-6.4,0.9-9.6,1.3c-1.7,0.2-3.6,0.3-5.1,1c-1.7,0.8-3.6,0.3-5.3,1.3
					c-1.1,0.6-2.3,0.8-3.7,0.8c-1,0-2.2,0.3-2.6,1.8c2,0.8,3.3-0.8,5-1c0.5,0.6,1.3,0.8,2.3,0.2c2.6-1.4,5.3-2,8.3-1.9
					c1.7,0.1,3.3-0.1,4.4-1.4c1.2-0.4,2.3,0.2,3.5-0.5c0.9-0.6,2.3-0.7,3.4-0.7c1.1,0.1,2.1-0.8,3.1-0.4c1.2,0.5,2.1-1.1,3.4-0.2
					C388.7,18.9,388.7,18.3,388.7,17.6L388.7,17.6z M192.4,121c2.9,0.6,4.9-1.9,7.6-2.1c1.3-0.1,2.5-1,3.4-2.1
					c0.9-0.2,1.9,0.4,2.6-0.5l-0.2-1.1c-0.6,0.4-1.1,0.1-1.9,0.3c-3.3,1.1-6.2,3-9.6,4c-0.7,0.2-1.8-0.4-2.1,0.7L192.4,121
					L192.4,121z M389.7,18.1c2.4,0.7,4.7-0.6,7-0.8V16c-2.5,0.3-5.1-0.6-7.2,1.3L389.7,18.1L389.7,18.1z M452,56.7
					c1-0.5,2.8,0.5,3.6-1.6c-1.1,0.2-1.9,0.4-2.8,0.5c-0.3-0.2-0.4-0.6-0.8-0.5c-0.7-0.1-0.8,0.9-1.5,0.7c-0.5-0.1-1-0.1-1.4,0
					c-0.4,0.1-1.2-0.4-1.2,0.5c1.1,0.5,2.4-0.2,3.4,0.4l0.2,1.1C452.2,58,451.8,57.3,452,56.7L452,56.7z M451.2,7.6
					c-1.3-0.3-2.3-0.3-3.4,0.4c-1,0.5-2.5,0.1-3.8,0.1v2.2C446.3,8.9,449,9.2,451.2,7.6L451.2,7.6z M348.3,25.4
					c-1.4,1.5-3.4,0.4-5.3,1c0.2,0.7-0.5,1.6,0.5,2c1,0.1,1.3-0.9,2.1-1.4c0.9-0.2,2.2,0.3,3.2-0.3
					C348.8,26.3,349.1,25.9,348.3,25.4L348.3,25.4z M353.9,24.9h-4.2v1.2h4.2V24.9z M386.6,48.5c0-0.7,0.1-1.2-0.5-1.3
					c-0.8-0.1-1.2,0.9-2.2,0.8c-0.8-0.1-1.6,0.6-2.6,1.1C383.4,50,384.9,48.4,386.6,48.5z M142.4,140.5c-1.1,0.5-2.3,0.8-3.1,2
					c1.6,0.8,2.5-0.5,3.5-0.7C143,141.1,142.8,140.8,142.4,140.5z M221.7,109.8c-2-0.8-2.9,0.3-4.2,0.8
					C219.1,111.5,220,110.3,221.7,109.8z M430.1,57.7c0.7,0.6,1.2,1.3,2.1,2c0.1-1.1,0.4-1.8-0.2-2.4
					C431.4,57.5,430.8,57.1,430.1,57.7L430.1,57.7z M414.1,32c-1.2-0.1-1.6,0.5-2.1,1.2c0.7,0.4,1.4,0.4,2.1,0V32z M467,55.4
					c-0.6,0-1.4-0.5-2.1,0.2C465.7,56,466.4,56,467,55.4z M416.3,30.9c0.8,0.6,1.5,0.6,2.2,0C417.8,30.4,417.1,30.4,416.3,30.9z
					 M206.7,114.9c0.5,0.5,1,0.5,1.5,0C207.7,114.4,207.2,114.4,206.7,114.9z M392.3,40.9c-0.3,0.2-1-0.7-1.2,0.3
					C391.5,41.5,391.9,41.6,392.3,40.9z M410.4,33.7c-0.3,0.2-1-0.7-1.2,0.3C409.6,34.3,410,34.3,410.4,33.7z M411.6,34.2
					c-0.3,0.2-0.3,0.5,0,0.7C412,34.7,412,34.4,411.6,34.2z"/>
				<path class="st0" d="M243.4,58c-0.5-0.3-0.6-0.8-1.5-0.5c-1.9,1.8-5,1.7-7.8,2.7c-2.2,0.8-4.5,1.2-6.7,2.1
					c-0.7,0.3-1.6,0.3-2.6-0.3c2.9-2.4,6.9-1.9,10.2-4h3.4l1-1.2c1.3-0.6,2.9,0.5,3.5-1c1-0.1,1.1,0.9,1.1,0.9
					c1.6-0.5,1.1-1.8,2.6-2.3c2.7-0.3,5.6-1.6,8.7-2.6c2.1-0.7,4.1-1.4,6.3-1c0.4,0.2,0.2,0.6,0.3,1.1c-2.5,0.7-4.9,1.8-7.4,2.1
					c-2.6,0.3-4.7,2.7-7.7,1.6C246.4,57.7,244.3,56.9,243.4,58L243.4,58z"/>
				<path class="st0" d="M221.6,62.4c0.3,0.3,0.7,0.7,1.3,1.3c-1.9,0-3.4,0.7-5.4,1.2C219,63.1,219.7,62.7,221.6,62.4z"/>
				<path class="st0" d="M212.2,65.3h0.7c0.4,0.3,0.5,0.7,0.3,1.2c-0.2,0.4-0.6,0.2-1,0.3C211.6,66.3,211.6,65.8,212.2,65.3z"/>
				<path class="st0" d="M398.2,17.3v-1.6c0.2-0.1,0.4-0.4,0.5-0.4c1.3-0.1,2.5-0.4,3.7-0.6c1.9-0.4,3.8-1.1,5.8-1
					c1.7,0.1,3.5-0.7,5.3-1.1c0.2-0.1,0.4-0.3,0.6-0.2c2.9,0.5,5.5-1,8.4-0.8c2.4,0.1,4.8-0.5,7-1.2c1.5-0.5,3.3,0.5,4.7-0.9
					c2.9,0.1,5.7-1.5,8.7-0.5c0.2,0.6,0.4,1-0.5,1.3c-1.8,0.6-3.6,1-5.5,0.7c-1.5-0.3-2.6,0.8-4,0.8c-1.4,0.1-2.7-0.3-4.1,0.6
					c-0.8,0.6-2.4,0.2-3.5,0.1c-0.9-0.1-1.7,1.7-2.7,0.2c-0.8,0.5-1.5,1.1-2.2-0.1c-0.6,0.2-0.3,0.8-0.5,1.2
					c-0.7,1.1-1.6-1.2-2.3,0.1c-0.9-0.8-1.7,0.1-2.6,0.2c-0.8,0.1-1.6,0.8-2.4,1.1c-1.5,0.5-3.1,0.6-4.7,0.9c-1.1,0.2-2,1.1-3.3,0.9
					c-1.1-0.2-2.3,0.2-3.2-0.1C400.2,16.3,399.6,17.9,398.2,17.3z"/>
				<path class="st0" d="M388.7,17.6v1.9c-1.2-1-2.2,0.7-3.4,0.2c-1.1-0.5-2,0.4-3.1,0.4c-1.1-0.1-2.5,0.1-3.4,0.7
					c-1.2,0.7-2.3,0.1-3.5,0.5c-1.2,1.3-2.7,1.4-4.4,1.4c-2.9-0.1-5.7,0.5-8.3,1.9c-1,0.5-1.8,0.4-2.3-0.2c-1.7,0.2-3,1.8-5,1
					c0.3-1.5,1.6-1.8,2.6-1.8c1.3,0,2.6-0.2,3.7-0.8c1.7-0.9,3.5-0.5,5.3-1.3c1.5-0.7,3.3-0.7,5.1-1c3.2-0.4,6.3-1.4,9.6-1.3
					c0.4,0,0.6-0.3,0.9-0.4C384.3,17.7,386.3,17.3,388.7,17.6L388.7,17.6z"/>
				<path class="st0" d="M319.9,32.7c0.2,0,0.6,0.1,0.7,0c1.2-1.6,3.3-1.6,4.9-2c1.6-0.4,3.3-1.3,5.1-0.9c1.4,0.3,2.2-1.1,3.4-1.3
					c2.9,0.4,5.4-1.5,8.7-1.6c-1.1,0.8-1.9,1-2,2.2c-2-0.3-3.9,0.2-5.6,1.1c-1.4,0.7-3.1-0.4-4.3,1c-2.8-0.5-5.1,1.1-7.5,1.9
					c-1.2,0.4-2.3,0.1-3.5,0.2L319.9,32.7L319.9,32.7z"/>
				<path class="st0" d="M150.9,137.7c-0.1-0.5,0.2-0.7,0.5-0.8c3.7-1.5,7.2-3.5,11.1-4.2c0.2,0,0.5,0,0.7,0v0.7
					c0.1,0.5-0.2,0.7-0.6,0.7c-2.2,0.3-4.4,0.9-6.2,2.2c-0.9,0.7-1.7,0.6-2.6,0.7c-0.8,0-1.3,1.1-2.2,0.7L150.9,137.7L150.9,137.7z"
					/>
				<path class="st0" d="M389.7,18.1l-0.2-0.8c2.1-1.9,4.7-1,7.2-1.3v1.3C394.3,17.5,392.1,18.8,389.7,18.1L389.7,18.1z"/>
				<path class="st0" d="M190.8,122.5c-0.4,0-0.9-0.1-1.1,0c-1.3,1.9-3.6,1.3-5.3,2.1c-0.3,0.1-0.7,0-0.9-0.3
					c0.9-1.2,2.6-1.2,3.2-2.5h3.3C190.5,121.8,190.8,122,190.8,122.5z"/>
				<path class="st0" d="M452,56.7c-0.2,0.6,0.2,1.2-0.7,1.2l-0.2-1.1c-1-0.6-2.3,0.1-3.4-0.4c0-1,0.8-0.5,1.2-0.5
					c0.5-0.1,1-0.1,1.4,0c0.7,0.1,0.8-0.8,1.5-0.7c0.4-0.1,0.6,0.3,0.8,0.5c0.9-0.2,1.8-0.3,2.8-0.5C454.8,57.3,453,56.3,452,56.7
					L452,56.7z"/>
				<path class="st0" d="M451.2,7.6c-2.2,1.6-5,1.2-7.2,2.7V8.1c1.2,0,2.8,0.4,3.8-0.1C449,7.4,449.9,7.3,451.2,7.6L451.2,7.6z"/>
				<path class="st0" d="M319.9,32.7v0.7c0,0.1,0,0.3,0,0.3c-2.1,0.2-4.1,1.2-6.3,1.1c-0.2-0.8,0.5-0.8,0.7-1.3h3
					c0.6-0.9,1.7-0.9,2.4-1.4c0,0,0.2,0.1,0.2,0.2C319.9,32.5,319.9,32.6,319.9,32.7L319.9,32.7z"/>
				<path class="st0" d="M348.3,25.4c0.7,0.4,0.5,0.8,0.6,1.2c-1.1,0.6-2.3,0.1-3.2,0.3c-0.8,0.5-1.1,1.5-2.1,1.4
					c-1-0.4-0.3-1.2-0.5-2C344.9,25.8,347,26.9,348.3,25.4L348.3,25.4z"/>
				<path class="st0" d="M353.9,24.9v1.2h-4.2v-1.2H353.9z"/>
				<path class="st0" d="M142.4,140.5c0.4,0.3,0.6,0.6,0.4,1.3c-1,0.2-1.9,1.5-3.5,0.7C140.1,141.3,141.3,141,142.4,140.5z"/>
				<path class="st0" d="M175.8,127.4l-2.4,2.4c-0.7,0.1-0.9-0.6-1.6-1.1L175.8,127.4z"/>
				<path class="st0" d="M181.3,126.1c-1.1,1-2.4,0.7-3.6,0.7c0.6-2.1,2.3-1.3,3.6-1.4V126.1z"/>
				<path class="st0" d="M221.7,109.8c-1.7,0.4-2.6,1.7-4.2,0.8C218.8,110.1,219.7,109,221.7,109.8z"/>
				<path class="st0" d="M430.1,57.7c0.7-0.6,1.3-0.2,1.8-0.4c0.7,0.6,0.3,1.3,0.2,2.4C431.3,59,430.8,58.3,430.1,57.7L430.1,57.7z"
					/>
				<path class="st0" d="M165.1,131.9c1-1.2,1.8-1.9,3-1.3c0,0.6-0.6,0.8-0.9,1.3H165.1z"/>
				<path class="st0" d="M212.5,113c0.5-0.6,0.8-1.4,1.4-1.3c0.8,0.1,0.8,0.6,0.7,1.1C214.1,113.5,213.2,112.9,212.5,113L212.5,113z
					"/>
				<path class="st0" d="M163.2,133.4v-0.7c0.3-1.4,1.5-0.4,2.2-0.7C165.1,133.1,164.3,133.5,163.2,133.4z"/>
				<path class="st0" d="M414.1,32v1.1c-0.7,0.4-1.3,0.4-2.1,0C412.5,32.5,412.9,31.9,414.1,32z"/>
				<path class="st0" d="M150.9,137.7h0.7c-0.3,0.9-0.8,1.6-1.9,1.4c-0.4-0.4-0.4-0.8,0-1.4H150.9z"/>
				<path class="st0" d="M212.7,113.5c-1.1,0.6-2.1,0.4-3.3,0.1C210.6,112.9,211.6,113,212.7,113.5z"/>
				<path class="st0" d="M467,55.4c-0.6,0.7-1.2,0.6-2.1,0.2C465.6,54.9,466.3,55.4,467,55.4z"/>
				<path class="st0" d="M416.3,30.9c0.8-0.6,1.5-0.6,2.2,0C417.8,31.5,417.1,31.5,416.3,30.9z"/>
				<path class="st0" d="M401.4,37.2c1.1-1.2,1.8-0.6,2.9-0.9C403.4,37.5,402.5,36.9,401.4,37.2z"/>
				<path class="st0" d="M177.7,126.9c-0.3,1.4-1.5,0.4-2.2,0.7C175.9,126.2,177,127.1,177.7,126.9z"/>
				<path class="st0" d="M419.4,33.9c-1-0.8-1-1.3-0.6-1.8C419.6,32.3,419.1,33,419.4,33.9z"/>
				<path class="st0" d="M392.3,40.9c-0.3,0.6-0.8,0.6-1.2,0.3C391.3,40.2,391.9,41.1,392.3,40.9z"/>
				<path class="st0" d="M410.4,33.7c-0.3,0.6-0.8,0.6-1.2,0.3C409.4,33,410,33.9,410.4,33.7z"/>
				<path class="st0" d="M401.8,37.1c0.1,0.3-0.1,0.6-0.4,0.6c-0.1,0-0.2-0.2-0.2-0.2C401.3,37.2,401.5,37,401.8,37.1L401.8,37.1z"
					/>
				<path class="st0" d="M411.6,34.2c0.3,0.2,0.3,0.5,0,0.7C411.3,34.7,411.3,34.4,411.6,34.2z"/>
			</g>
		</g>
	</g>
	<g transform="rotate(0 39.169 103)">
		<g transform="matrix(1 0 0 1 0 0)">
			<path class="st1" d="M50.9,109L50.9,109c0,1.7-0.7,2.8-2.1,3.5l0,0c1.3,0.4,2.1,1.2,2.6,2.3l0,0c0.2,0.4,0.3,0.9,0.3,1.5l0,0
				c0,1.9-1,3.1-2.9,3.7l0,0c-0.6,0.2-1.4,0.3-2.3,0.3l0,0h-7.3V105h6.9c1.7,0,2.9,0.4,3.8,1.3l0,0C50.5,107,50.9,108,50.9,109z
				 M40.9,106.6v5.2h5.1c1.4,0,2.4-0.5,2.9-1.5l0,0c0.2-0.3,0.3-0.7,0.3-1.1c0-0.4-0.1-0.7-0.2-1c-0.1-0.3-0.3-0.6-0.5-0.8l0,0
				c-0.5-0.5-1.3-0.8-2.2-0.8l0,0H40.9z M40.9,118.7h5.7c1.1,0,1.9-0.2,2.5-0.7c0.6-0.4,0.9-1.1,0.9-1.9l0,0c0-0.8-0.3-1.4-0.8-1.9
				l0,0c-0.6-0.6-1.5-0.8-2.7-0.8l0,0h-5.5V118.7z M65.5,120.3v-1.9c-0.9,1.4-2.3,2-4.1,2l0,0c-1.7,0-3-0.6-4.1-1.7l0,0
				c-1-1.1-1.5-2.6-1.5-4.2l0,0c0-1.7,0.5-3.1,1.5-4.2l0,0c1.1-1.2,2.4-1.7,4.2-1.7s3.1,0.7,4,2.1l0,0v-1.9h1.7v11.6H65.5z
				 M61.6,118.9L61.6,118.9c1.3,0,2.2-0.4,3-1.3l0,0c0.7-0.8,1-1.9,1-3.1l0,0c0-1.3-0.3-2.3-1-3.1l0,0c-0.7-0.9-1.7-1.3-3-1.3l0,0
				c-1.2,0-2.2,0.4-3,1.3l0,0c-0.7,0.8-1.1,1.9-1.1,3.1l0,0c0,1.3,0.4,2.3,1.1,3.1l0,0C59.3,118.5,60.3,118.9,61.6,118.9z
				 M72.6,108.7h1.7v1.8c0.4-0.6,0.9-1,1.5-1.4c0.6-0.4,1.3-0.6,2.1-0.6c0.8,0,1.4,0.1,2,0.3c0.6,0.2,1,0.5,1.5,1l0,0
				c1,0.9,1.4,2.2,1.4,3.7l0,0v6.7h-1.7v-6.7c0-1.1-0.3-1.9-0.9-2.5c-0.6-0.6-1.4-1-2.3-1l0,0c-1,0-1.8,0.3-2.5,1l0,0
				c-0.7,0.7-1,1.5-1,2.5l0,0v6.7h-1.7V108.7z M97.1,120.3v-1.9c-0.9,1.4-2.3,2-4.1,2l0,0c-1.7,0-3-0.6-4.1-1.7l0,0
				c-1-1.1-1.5-2.6-1.5-4.2l0,0c0-1.7,0.5-3.1,1.5-4.2l0,0c1.1-1.2,2.4-1.7,4.2-1.7s3.1,0.7,4,2.1l0,0v-6.5h1.7v16.2H97.1z
				 M93.1,118.9L93.1,118.9c1.3,0,2.2-0.4,3-1.3l0,0c0.7-0.8,1-1.9,1-3.1l0,0c0-1.3-0.3-2.3-1-3.1l0,0c-0.7-0.9-1.7-1.3-3-1.3l0,0
				c-1.2,0-2.2,0.4-3,1.3l0,0c-0.7,0.8-1.1,1.9-1.1,3.1l0,0c0,1.3,0.4,2.3,1.1,3.1l0,0C90.9,118.5,91.9,118.9,93.1,118.9z
				 M124.7,105h2v15.3h-1.7v-12.7l-5.7,7.3l-5.8-7.3v12.7h-1.7V105h2l5.5,7.3L124.7,105z M141.2,120.3v-1.9c-0.9,1.4-2.3,2-4.1,2
				l0,0c-1.7,0-3-0.6-4.1-1.7l0,0c-1-1.1-1.5-2.6-1.5-4.2l0,0c0-1.7,0.5-3.1,1.5-4.2l0,0c1.1-1.2,2.4-1.7,4.2-1.7
				c1.7,0,3.1,0.7,4,2.1l0,0v-1.9h1.7v11.6H141.2z M137.3,118.9L137.3,118.9c1.3,0,2.2-0.4,3-1.3l0,0c0.7-0.8,1-1.9,1-3.1l0,0
				c0-1.3-0.3-2.3-1-3.1l0,0c-0.7-0.9-1.7-1.3-3-1.3l0,0c-1.2,0-2.2,0.4-3,1.3l0,0c-0.7,0.8-1.1,1.9-1.1,3.1l0,0
				c0,1.3,0.4,2.3,1.1,3.1l0,0C135.1,118.5,136.1,118.9,137.3,118.9z M148.3,108.7h1.7v1.8c0.4-0.6,0.9-1,1.5-1.4
				c0.6-0.4,1.3-0.6,2.1-0.6s1.4,0.1,2,0.3c0.6,0.2,1,0.5,1.5,1l0,0c1,0.9,1.4,2.2,1.4,3.7l0,0v6.7h-1.7v-6.7c0-1.1-0.3-1.9-0.9-2.5
				s-1.4-1-2.3-1l0,0c-1,0-1.8,0.3-2.5,1l0,0c-0.7,0.7-1,1.5-1,2.5l0,0v6.7h-1.7V108.7z M172.8,120.3v-1.9c-0.9,1.4-2.3,2-4.1,2l0,0
				c-1.7,0-3-0.6-4.1-1.7l0,0c-1-1.1-1.5-2.6-1.5-4.2l0,0c0-1.7,0.5-3.1,1.5-4.2l0,0c1.1-1.2,2.4-1.7,4.2-1.7s3.1,0.7,4,2.1l0,0
				v-1.9h1.7v11.6H172.8z M168.8,118.9L168.8,118.9c1.3,0,2.2-0.4,3-1.3l0,0c0.7-0.8,1-1.9,1-3.1l0,0c0-1.3-0.3-2.3-1-3.1l0,0
				c-0.7-0.9-1.7-1.3-3-1.3l0,0c-1.2,0-2.2,0.4-3,1.3l0,0c-0.7,0.8-1.1,1.9-1.1,3.1l0,0c0,1.3,0.4,2.3,1.1,3.1l0,0
				C166.6,118.5,167.6,118.9,168.8,118.9z M188.9,110.6L188.9,110.6v-1.9h1.7V120c0,1.7-0.5,2.9-1.4,3.8c-1,0.9-2.2,1.3-3.8,1.3
				c-1.6,0-2.9-0.3-3.8-0.9s-1.5-1.4-1.8-2.5l0,0h1.9c0.5,1.2,1.6,1.8,3.4,1.8l0,0c1.3,0,2.3-0.3,2.9-0.9c0.6-0.6,0.9-1.5,0.9-2.7
				l0,0v-1.6c-0.9,1.4-2.3,2.1-4.1,2.1l0,0c-1.7,0-3-0.6-4.1-1.7l0,0c-1-1.1-1.5-2.5-1.5-4.2l0,0c0-1.7,0.5-3.1,1.5-4.2l0,0
				c1.1-1.1,2.5-1.7,4.2-1.7S187.9,109.2,188.9,110.6z M185,118.8L185,118.8c0.6,0,1.2-0.1,1.7-0.3c0.5-0.2,0.9-0.5,1.3-0.9l0,0
				c0.7-0.8,1-1.8,1-3.1l0,0c0-1.2-0.3-2.3-1-3.1l0,0c-0.8-0.8-1.7-1.3-3-1.3l0,0c-1.3,0-2.3,0.4-3,1.3l0,0
				c-0.7,0.8-1.1,1.8-1.1,3.1l0,0c0,1.2,0.4,2.2,1.1,3.1l0,0C182.7,118.3,183.7,118.8,185,118.8z M201.1,118.9L201.1,118.9
				c1.6,0,2.7-0.6,3.4-1.9l0,0h1.9c-0.4,1.1-1,1.9-1.9,2.5c-0.9,0.6-2,1-3.4,1l0,0c-1.7,0-3.2-0.6-4.3-1.7l0,0
				c-1.1-1.1-1.6-2.5-1.6-4.2l0,0c0-1.7,0.5-3.1,1.5-4.2l0,0c1.1-1.2,2.5-1.7,4.2-1.7l0,0c1.7,0,3.1,0.6,4.2,1.7l0,0
				c1,1.1,1.5,2.5,1.5,4.2l0,0v0.7H197c0.1,1.1,0.5,1.9,1.3,2.6l0,0C199,118.6,200,118.9,201.1,118.9z M201,110.1L201,110.1
				c-1.1,0-2,0.3-2.7,1l0,0c-0.7,0.6-1.1,1.5-1.3,2.5l0,0h7.9c-0.2-1-0.6-1.8-1.3-2.5l0,0C202.9,110.5,202,110.1,201,110.1z
				 M217.2,108.6h0.1v1.7h-0.2c-1.3,0-2.3,0.5-3.1,1.5l0,0c-0.7,1-1.1,2.1-1.1,3.4l0,0v5.1h-1.7v-11.6h1.7v2.9
				c0.4-1.2,1.2-2.1,2.4-2.7l0,0C215.8,108.7,216.5,108.6,217.2,108.6L217.2,108.6z M240.2,106.7h-9.3v5.3h8.3v1.7h-8.3v6.7h-1.7
				V105h11.1V106.7z M250,108.6h0.1v1.7h-0.2c-1.3,0-2.3,0.5-3.1,1.5l0,0c-0.7,1-1.1,2.1-1.1,3.4l0,0v5.1H244v-11.6h1.7v2.9
				c0.4-1.2,1.2-2.1,2.4-2.7l0,0C248.7,108.7,249.3,108.6,250,108.6L250,108.6z M259,108.6L259,108.6c1.7,0,3.1,0.6,4.2,1.7l0,0
				c1,1.1,1.5,2.5,1.5,4.2l0,0c0,1.7-0.5,3.1-1.5,4.2l0,0c-1.1,1.2-2.5,1.7-4.2,1.7l0,0c-1.7,0-3.1-0.6-4.2-1.7l0,0
				c-1-1.1-1.5-2.5-1.5-4.2l0,0c0-1.7,0.5-3.1,1.5-4.2l0,0C255.9,109.1,257.3,108.6,259,108.6z M259,118.9L259,118.9
				c1.3,0,2.2-0.4,3-1.3l0,0c0.7-0.8,1-1.9,1-3.1l0,0c0-1.3-0.3-2.3-1-3.1l0,0c-0.7-0.9-1.7-1.3-3-1.3l0,0c-1.3,0-2.2,0.4-3,1.3l0,0
				c-0.7,0.8-1,1.9-1,3.1l0,0c0,1.3,0.3,2.3,1,3.1l0,0C256.8,118.5,257.8,118.9,259,118.9z M269.4,108.7h1.7v1.8
				c0.4-0.6,0.9-1,1.5-1.4c0.6-0.4,1.3-0.6,2.1-0.6s1.4,0.1,2,0.3c0.6,0.2,1,0.5,1.5,1l0,0c1,0.9,1.4,2.2,1.4,3.7l0,0v6.7h-1.7v-6.7
				c0-1.1-0.3-1.9-0.9-2.5c-0.6-0.6-1.4-1-2.3-1l0,0c-1,0-1.8,0.3-2.5,1l0,0c-0.7,0.7-1,1.5-1,2.5l0,0v6.7h-1.7V108.7z M287.6,120.3
				h-1.7v-10.1h-2.4v-1.5h2.4v-4.1h1.7v4.1h2.7v1.5h-2.7V120.3z M315,105h2v15.3h-1.7v-12.7l-5.7,7.3l-5.8-7.3v12.7h-1.7V105h2
				l5.5,7.3L315,105z M331.5,120.3v-1.9c-0.9,1.4-2.3,2-4.1,2l0,0c-1.7,0-3-0.6-4.1-1.7l0,0c-1-1.1-1.5-2.6-1.5-4.2l0,0
				c0-1.7,0.5-3.1,1.5-4.2l0,0c1.1-1.2,2.4-1.7,4.2-1.7c1.7,0,3.1,0.7,4,2.1l0,0v-1.9h1.7v11.6H331.5z M327.6,118.9L327.6,118.9
				c1.3,0,2.2-0.4,3-1.3l0,0c0.7-0.8,1-1.9,1-3.1l0,0c0-1.3-0.3-2.3-1-3.1l0,0c-0.7-0.9-1.7-1.3-3-1.3l0,0c-1.2,0-2.2,0.4-3,1.3l0,0
				c-0.7,0.8-1.1,1.9-1.1,3.1l0,0c0,1.3,0.4,2.3,1.1,3.1l0,0C325.4,118.5,326.4,118.9,327.6,118.9z M338.6,108.7h1.7v1.8
				c0.4-0.6,0.9-1,1.5-1.4c0.6-0.4,1.3-0.6,2.1-0.6s1.4,0.1,2,0.3c0.6,0.2,1,0.5,1.5,1l0,0c1,0.9,1.4,2.2,1.4,3.7l0,0v6.7h-1.7v-6.7
				c0-1.1-0.3-1.9-0.9-2.5c-0.6-0.6-1.4-1-2.3-1l0,0c-1,0-1.8,0.3-2.5,1l0,0c-0.7,0.7-1,1.5-1,2.5l0,0v6.7h-1.7V108.7z M362.7,124.5
				h-1.4V103h1.4V124.5z M375.7,105h1.7v13.7h8.4v1.7h-10.1V105z M394.9,118.9L394.9,118.9c1.6,0,2.7-0.6,3.4-1.9l0,0h1.9
				c-0.4,1.1-1,1.9-1.9,2.5c-0.9,0.6-2,1-3.4,1l0,0c-1.7,0-3.2-0.6-4.3-1.7l0,0c-1.1-1.1-1.6-2.5-1.6-4.2l0,0c0-1.7,0.5-3.1,1.5-4.2
				l0,0c1.1-1.2,2.5-1.7,4.2-1.7l0,0c1.7,0,3.1,0.6,4.2,1.7l0,0c1,1.1,1.5,2.5,1.5,4.2l0,0v0.7h-9.7c0.1,1.1,0.5,1.9,1.3,2.6l0,0
				C392.8,118.6,393.7,118.9,394.9,118.9z M394.7,110.1L394.7,110.1c-1.1,0-2,0.3-2.7,1l0,0c-0.7,0.6-1.1,1.5-1.3,2.5l0,0h7.9
				c-0.2-1-0.6-1.8-1.3-2.5l0,0C396.7,110.5,395.8,110.1,394.7,110.1z M415.1,120.3l-2.9-9.2l-2.9,9.2h-2l-3.6-11.6h1.9l2.8,9.4
				l2.9-9.4h1.9l2.9,9.4l2.8-9.4h1.9l-3.6,11.6H415.1z M424.7,120.3v-11.6h1.7v11.6H424.7z M424.7,104.5h1.9v2.3h-1.9V104.5z
				 M440.4,111.9h-1.8c-0.2-1.2-1.1-1.8-2.9-1.8c-1.8,0-2.7,0.6-2.7,1.7l0,0c0,0.5,0.2,0.8,0.6,1.1c0.4,0.2,0.9,0.4,1.4,0.6
				s1.2,0.3,1.9,0.4s1.3,0.3,1.9,0.6c0.6,0.2,1,0.6,1.4,1c0.4,0.4,0.6,1,0.6,1.7l0,0c0,1.1-0.4,2-1.3,2.6s-2,0.9-3.5,0.9l0,0
				c-1.5,0-2.8-0.4-3.7-1.2l0,0c-0.8-0.7-1.3-1.6-1.3-2.7l0,0h1.8c0.1,1.1,0.7,1.8,1.8,2.2l0,0c0.4,0.1,0.8,0.2,1.2,0.2
				c0.4,0,0.8,0,1.1-0.1c0.3,0,0.7-0.1,1-0.3l0,0c0.7-0.3,1.1-0.8,1.1-1.5l0,0c0-0.5-0.2-0.8-0.6-1.1c-0.4-0.3-0.9-0.5-1.4-0.6
				c-0.6-0.2-1.2-0.3-1.9-0.4s-1.3-0.3-1.9-0.5c-0.6-0.2-1-0.5-1.4-1c-0.4-0.4-0.6-1-0.6-1.7l0,0c0-1.1,0.4-1.9,1.1-2.4
				c0.8-0.6,1.9-0.9,3.4-0.9l0,0c1.4,0,2.5,0.3,3.4,1l0,0C439.9,110.2,440.3,110.9,440.4,111.9L440.4,111.9z M448.3,120.3h-1.7
				v-10.1h-2.4v-1.5h2.4v-4.1h1.7v4.1h2.7v1.5h-2.7V120.3z M460,108.6L460,108.6c1.7,0,3.1,0.6,4.2,1.7l0,0c1,1.1,1.5,2.5,1.5,4.2
				l0,0c0,1.7-0.5,3.1-1.5,4.2l0,0c-1.1,1.2-2.5,1.7-4.2,1.7l0,0c-1.7,0-3.1-0.6-4.2-1.7l0,0c-1-1.1-1.5-2.5-1.5-4.2l0,0
				c0-1.7,0.5-3.1,1.5-4.2l0,0C456.8,109.1,458.2,108.6,460,108.6z M460,118.9L460,118.9c1.3,0,2.2-0.4,3-1.3l0,0
				c0.7-0.8,1-1.9,1-3.1l0,0c0-1.3-0.3-2.3-1-3.1l0,0c-0.7-0.9-1.7-1.3-3-1.3l0,0c-1.3,0-2.2,0.4-3,1.3l0,0c-0.7,0.8-1,1.9-1,3.1
				l0,0c0,1.3,0.3,2.3,1,3.1l0,0C457.7,118.5,458.7,118.9,460,118.9z M470.3,108.7h1.7v1.8c0.4-0.6,0.9-1,1.5-1.4s1.3-0.6,2.1-0.6
				s1.4,0.1,2,0.3c0.6,0.2,1,0.5,1.5,1l0,0c1,0.9,1.4,2.2,1.4,3.7l0,0v6.7h-1.7v-6.7c0-1.1-0.3-1.9-0.9-2.5c-0.6-0.6-1.4-1-2.3-1
				l0,0c-1,0-1.8,0.3-2.5,1l0,0c-0.7,0.7-1,1.5-1,2.5l0,0v6.7h-1.7V108.7z M484.5,123.4l1.3-4.9h2.3l-2,4.9H484.5z M502.6,105v15.3
				h-1.7V105H502.6z M517.1,120.3v-1.9c-0.9,1.4-2.3,2-4.1,2l0,0c-1.7,0-3-0.6-4.1-1.7l0,0c-1-1.1-1.5-2.6-1.5-4.2l0,0
				c0-1.7,0.5-3.1,1.5-4.2l0,0c1.1-1.2,2.4-1.7,4.2-1.7c1.7,0,3.1,0.7,4,2.1l0,0v-6.5h1.7v16.2H517.1z M513.2,118.9L513.2,118.9
				c1.3,0,2.2-0.4,3-1.3l0,0c0.7-0.8,1-1.9,1-3.1l0,0c0-1.3-0.3-2.3-1-3.1l0,0c-0.7-0.9-1.7-1.3-3-1.3l0,0c-1.2,0-2.2,0.4-3,1.3l0,0
				c-0.7,0.8-1.1,1.9-1.1,3.1l0,0c0,1.3,0.4,2.3,1.1,3.1l0,0C510.9,118.5,511.9,118.9,513.2,118.9z M533.2,120.3v-1.9
				c-0.9,1.4-2.3,2-4.1,2l0,0c-1.7,0-3-0.6-4.1-1.7l0,0c-1-1.1-1.5-2.6-1.5-4.2l0,0c0-1.7,0.5-3.1,1.5-4.2l0,0
				c1.1-1.2,2.4-1.7,4.2-1.7s3.1,0.7,4,2.1l0,0v-1.9h1.7v11.6H533.2z M529.3,118.9L529.3,118.9c1.3,0,2.2-0.4,3-1.3l0,0
				c0.7-0.8,1-1.9,1-3.1l0,0c0-1.3-0.3-2.3-1-3.1l0,0c-0.7-0.9-1.7-1.3-3-1.3l0,0c-1.2,0-2.2,0.4-3,1.3l0,0
				c-0.7,0.8-1.1,1.9-1.1,3.1l0,0c0,1.3,0.4,2.3,1.1,3.1l0,0C527,118.5,528.1,118.9,529.3,118.9z M540.3,104.1h1.7v6.4
				c0.4-0.6,0.9-1,1.5-1.4c0.6-0.4,1.3-0.6,2.1-0.6c0.8,0,1.4,0.1,2,0.3c0.6,0.2,1,0.5,1.5,1l0,0c1,0.9,1.4,2.2,1.4,3.7l0,0v6.7
				h-1.7v-6.7c0-1.1-0.3-1.9-0.9-2.5c-0.6-0.6-1.4-1-2.3-1l0,0c-1,0-1.8,0.3-2.5,1l0,0c-0.7,0.7-1,1.5-1,2.5l0,0v6.7h-1.7V104.1z
				 M560.7,108.6L560.7,108.6c1.7,0,3.1,0.6,4.2,1.7l0,0c1,1.1,1.5,2.5,1.5,4.2l0,0c0,1.7-0.5,3.1-1.5,4.2l0,0
				c-1.1,1.2-2.5,1.7-4.2,1.7l0,0c-1.7,0-3.1-0.6-4.2-1.7l0,0c-1-1.1-1.5-2.5-1.5-4.2l0,0c0-1.7,0.5-3.1,1.5-4.2l0,0
				C557.6,109.1,559,108.6,560.7,108.6z M560.7,118.9L560.7,118.9c1.3,0,2.2-0.4,3-1.3l0,0c0.7-0.8,1-1.9,1-3.1l0,0
				c0-1.3-0.3-2.3-1-3.1l0,0c-0.7-0.9-1.7-1.3-3-1.3l0,0c-1.3,0-2.2,0.4-3,1.3l0,0c-0.7,0.8-1,1.9-1,3.1l0,0c0,1.3,0.3,2.3,1,3.1
				l0,0C558.5,118.5,559.5,118.9,560.7,118.9z"/>
		</g>
	</g>
	<g transform="rotate(0 0 63)">
		<g transform="matrix(1 0 0 1 0 0)">
			<path class="st2" d="M6.7,65.5v7.9h1c2.7,0,4.1-1.3,4.1-3.9l0,0c0-2.7-1.4-4-4.1-4l0,0H6.7z M6.7,74v9h1.9c1.3,0,2.4-0.3,3.2-1
				c0.8-0.7,1.2-1.7,1.2-3l0,0c0-1.9-0.5-3.1-1.4-3.8c-0.9-0.7-2.2-1-3.8-1l0,0H6.7z M10.7,83.7H0V83h1.7V65.5H0v-0.7h8.5
				c2.8,0,4.8,0.4,6.2,1.3c1.3,0.9,2,2,2,3.5l0,0c0,1.2-0.4,2.2-1.2,2.9c-0.8,0.8-1.8,1.1-3.1,1.1l0,0v0.2c1.6,0,3,0.4,4.1,1.3
				s1.7,2.1,1.7,3.7s-0.6,2.8-1.9,3.6C14.9,83.3,13,83.7,10.7,83.7L10.7,83.7z M36.4,83c-0.2,0.2-0.7,0.4-1.3,0.6
				c-0.6,0.2-1.4,0.3-2.2,0.3l0,0c-1.8,0-3-0.6-3.5-1.7l0,0c-1.1,1.2-2.8,1.8-5.2,1.8l0,0c-1.2,0-2.3-0.3-3.1-0.9
				c-0.8-0.6-1.2-1.4-1.2-2.5l0,0c0-1.5,0.6-2.7,1.8-3.5c1.2-0.8,3.2-1.4,6.1-1.7l0,0l1.3-0.2v-1.7c0-2-0.1-3.3-0.4-3.9
				c-0.3-0.7-0.9-1-1.7-1s-1.4,0.1-1.7,0.4c-0.2,0.2-0.3,0.5-0.3,0.8c0.1,0.3,0.2,0.7,0.3,1.2c0.2,0.5,0.2,0.9,0.2,1.2l0,0
				c0,0.7-0.2,1.3-0.7,1.8c-0.5,0.5-1.1,0.7-1.8,0.7c-0.7,0-1.3-0.2-1.8-0.7c-0.5-0.5-0.7-1.1-0.7-1.8l0,0c0-1.1,0.6-2.1,1.8-2.9
				c1.2-0.8,2.9-1.2,5.3-1.2s4,0.5,5,1.4c1,0.9,1.5,2.6,1.5,4.9l0,0v6.1c0,1.2,0.1,1.9,0.4,2.2c0.3,0.3,0.8,0.4,1.6,0.2l0,0V83z
				 M24.8,79.9c0.1,0.9,0.4,1.5,0.9,2c0.5,0.5,1.1,0.7,1.8,0.7c0.7,0,1.3-0.3,1.8-1l0,0v-5.7l-1.2,0.2c-1,0.1-1.9,0.5-2.5,1.2
				C25,77.8,24.7,78.7,24.8,79.9L24.8,79.9z M45.9,83.4L45.9,83.4c2.3,0,3.5-0.6,3.5-1.9l0,0c0-0.7-0.4-1.3-1.2-1.8
				c-0.8-0.5-1.8-0.8-2.9-1.1c-1.1-0.3-2.3-0.6-3.4-1c-1.1-0.4-2-1-2.8-1.8c-0.7-0.8-1-1.9-0.9-3.3c0.1-1.3,0.8-2.5,2.1-3.3
				s2.8-1.3,4.6-1.3c1.8,0,3.3,0.3,4.4,0.9c1.1,0.6,1.8,1.4,1.9,2.4l0,0c0.1,0.6,0,1.2-0.3,1.7c-0.3,0.5-0.7,0.8-1.4,0.8
				c-0.6,0-1.2-0.1-1.6-0.5s-0.6-0.8-0.6-1.2c0-0.5,0.2-0.9,0.5-1.3c0.3-0.4,0.5-0.7,0.5-0.9l0,0c0-0.4-0.4-0.7-1.1-0.9
				c-0.7-0.2-1.6-0.3-2.5-0.3c-1,0-1.7,0.2-2.3,0.6c-0.6,0.4-0.9,1-0.9,1.6c0,0.6,0.4,1.2,1.1,1.6s1.7,0.8,2.7,1.1
				c1.1,0.3,2.2,0.6,3.2,0.9c1.1,0.3,2,0.9,2.7,1.7s1.1,1.7,1.1,2.9l0,0c0,1.6-0.6,2.8-1.7,3.7c-1.1,0.9-2.8,1.4-5,1.4
				c-2.2,0-4-0.3-5.4-1s-2.1-1.5-2.3-2.6l0,0c-0.1-0.6,0-1.2,0.3-1.7s0.8-0.8,1.4-0.8c0.6,0,1.2,0.1,1.6,0.5s0.6,0.8,0.6,1.2
				c0,0.5-0.2,0.9-0.5,1.3c-0.3,0.4-0.5,0.7-0.5,0.9l0,0c0,0.4,0.5,0.8,1.6,1.1C43.6,83.3,44.7,83.4,45.9,83.4z M61.9,83.4
				L61.9,83.4c2.3,0,3.5-0.6,3.5-1.9l0,0c0-0.7-0.4-1.3-1.2-1.8c-0.8-0.5-1.8-0.8-2.9-1.1c-1.1-0.3-2.3-0.6-3.4-1
				c-1.1-0.4-2-1-2.8-1.8c-0.7-0.8-1-1.9-0.9-3.3c0.1-1.3,0.8-2.5,2.1-3.3c1.2-0.9,2.8-1.3,4.6-1.3c1.8,0,3.3,0.3,4.4,0.9
				c1.1,0.6,1.8,1.4,1.9,2.4l0,0c0.1,0.6,0,1.2-0.3,1.7c-0.3,0.5-0.7,0.8-1.4,0.8c-0.6,0-1.2-0.1-1.6-0.5c-0.4-0.4-0.6-0.8-0.6-1.2
				c0-0.5,0.2-0.9,0.5-1.3c0.3-0.4,0.5-0.7,0.5-0.9l0,0c0-0.4-0.4-0.7-1.1-0.9c-0.7-0.2-1.6-0.3-2.5-0.3c-1,0-1.7,0.2-2.3,0.6
				c-0.6,0.4-0.9,1-0.9,1.6c0,0.6,0.4,1.2,1.1,1.6s1.7,0.8,2.7,1.1c1.1,0.3,2.2,0.6,3.2,0.9c1.1,0.3,2,0.9,2.7,1.7
				c0.8,0.8,1.1,1.7,1.1,2.9l0,0c0,1.6-0.6,2.8-1.7,3.7c-1.1,0.9-2.8,1.4-5,1.4s-4-0.3-5.4-1s-2.1-1.5-2.3-2.6l0,0
				c-0.1-0.6,0-1.2,0.3-1.7c0.3-0.5,0.8-0.8,1.4-0.8c0.6,0,1.2,0.1,1.6,0.5c0.4,0.4,0.6,0.8,0.6,1.2c0,0.5-0.2,0.9-0.5,1.3
				c-0.3,0.4-0.5,0.7-0.5,0.9l0,0c0,0.4,0.5,0.8,1.6,1.1C59.6,83.3,60.7,83.4,61.9,83.4z M101.8,64.8v0.7h-1.7V83h1.7v0.7h-8.4V83
				h1.7V66.7L88.4,84h-0.8l-7.5-17.8V83h2.7v0.7h-5.4V83h2V65.5h-2.1v-0.7h7.5l5.3,12.6l4.9-12.6H101.8z M120.5,83
				c-0.2,0.2-0.7,0.4-1.3,0.6c-0.6,0.2-1.4,0.3-2.2,0.3l0,0c-1.8,0-3-0.6-3.5-1.7l0,0c-1.1,1.2-2.8,1.8-5.2,1.8l0,0
				c-1.2,0-2.3-0.3-3.1-0.9c-0.8-0.6-1.2-1.4-1.2-2.5l0,0c0-1.5,0.6-2.7,1.8-3.5c1.2-0.8,3.2-1.4,6.1-1.7l0,0l1.3-0.2v-1.7
				c0-2-0.1-3.3-0.4-3.9c-0.3-0.7-0.9-1-1.7-1c-0.9,0-1.4,0.1-1.7,0.4c-0.2,0.2-0.3,0.5-0.3,0.8c0.1,0.3,0.2,0.7,0.3,1.2
				c0.2,0.5,0.2,0.9,0.2,1.2l0,0c0,0.7-0.2,1.3-0.7,1.8s-1.1,0.7-1.8,0.7c-0.7,0-1.3-0.2-1.8-0.7c-0.5-0.5-0.7-1.1-0.7-1.8l0,0
				c0-1.1,0.6-2.1,1.8-2.9c1.2-0.8,2.9-1.2,5.3-1.2c2.3,0,4,0.5,5,1.4s1.5,2.6,1.5,4.9l0,0v6.1c0,1.2,0.1,1.9,0.4,2.2
				c0.3,0.3,0.8,0.4,1.6,0.2l0,0V83z M108.8,79.9c0.1,0.9,0.4,1.5,0.9,2c0.5,0.5,1.1,0.7,1.8,0.7c0.7,0,1.3-0.3,1.8-1l0,0v-5.7
				l-1.2,0.2c-1,0.1-1.9,0.5-2.5,1.2C109,77.8,108.8,78.7,108.8,79.9L108.8,79.9z M129.9,83.4L129.9,83.4c2.3,0,3.5-0.6,3.5-1.9l0,0
				c0-0.7-0.4-1.3-1.2-1.8c-0.8-0.5-1.8-0.8-2.9-1.1c-1.1-0.3-2.3-0.6-3.4-1c-1.1-0.4-2-1-2.8-1.8s-1-1.9-0.9-3.3
				c0.1-1.3,0.8-2.5,2.1-3.3c1.2-0.9,2.8-1.3,4.6-1.3c1.8,0,3.3,0.3,4.4,0.9c1.1,0.6,1.8,1.4,1.9,2.4l0,0c0.1,0.6,0,1.2-0.3,1.7
				s-0.7,0.8-1.4,0.8c-0.6,0-1.2-0.1-1.6-0.5c-0.4-0.4-0.6-0.8-0.6-1.2c0-0.5,0.2-0.9,0.5-1.3c0.3-0.4,0.5-0.7,0.5-0.9l0,0
				c0-0.4-0.4-0.7-1.1-0.9c-0.7-0.2-1.6-0.3-2.5-0.3c-1,0-1.7,0.2-2.3,0.6c-0.6,0.4-0.9,1-0.9,1.6c0,0.6,0.4,1.2,1.1,1.6
				c0.8,0.4,1.7,0.8,2.7,1.1c1.1,0.3,2.2,0.6,3.2,0.9c1.1,0.3,2,0.9,2.7,1.7c0.8,0.8,1.1,1.7,1.1,2.9l0,0c0,1.6-0.6,2.8-1.7,3.7
				c-1.1,0.9-2.8,1.4-5,1.4c-2.2,0-4-0.3-5.4-1s-2.1-1.5-2.3-2.6l0,0c-0.1-0.6,0-1.2,0.3-1.7s0.8-0.8,1.4-0.8c0.6,0,1.2,0.1,1.6,0.5
				s0.6,0.8,0.6,1.2c0,0.5-0.2,0.9-0.5,1.3c-0.3,0.4-0.5,0.7-0.5,0.9l0,0c0,0.4,0.5,0.8,1.6,1.1C127.6,83.3,128.8,83.4,129.9,83.4z
				 M148.7,68.8h-3.9v8.2c0,1.9,0.1,3.1,0.2,3.5c0.2,0.4,0.3,0.8,0.5,1.1l0,0c0.3,0.6,0.9,0.9,1.8,0.9c0.8,0,1.4-0.1,1.8-0.3l0,0
				v0.7c-1.1,0.8-2.3,1.1-3.5,1.1l0,0c-1.9,0-3.3-0.4-4.3-1.3c-1-0.9-1.5-2.5-1.5-4.8l0,0v-9h-2.5v-0.7h2.5c1.1-0.2,2-0.7,2.9-1.6
				c0.8-0.9,1.4-2.1,1.7-3.6l0,0h0.5v5.2h3.9V68.8z M165.6,76.9L165.6,76.9h-10.2c0.2,4,1.8,5.9,4.6,5.9l0,0c0.8,0,1.6-0.2,2.6-0.5
				c1-0.4,1.7-0.9,2.1-1.5l0,0l0.5,0.3c-0.5,0.8-1.3,1.5-2.5,2.1c-1.2,0.5-2.4,0.8-3.6,0.8c-1.2,0-2.2-0.1-3.2-0.4s-1.9-0.6-2.8-1.2
				s-1.6-1.4-2.1-2.5c-0.5-1.1-0.8-2.5-0.8-4.1l0,0c0-2.7,0.8-4.7,2.3-6.1c1.5-1.3,3.3-2,5.5-2s3.9,0.7,5.4,2.2
				C164.9,71.4,165.6,73.7,165.6,76.9z M155.4,75.9v0.4h5.5c0-2.1-0.2-3.9-0.7-5.4s-1.1-2.3-2.1-2.3s-1.7,0.7-2.1,2.2
				C155.6,72.2,155.4,73.9,155.4,75.9L155.4,75.9z M176.5,83v0.7h-8.4V83h1.7V68.8h-1.7v-0.7h6.7v4c0.2-1.1,0.6-2,1.1-2.7
				c0.5-0.7,1.1-1.2,1.8-1.4c0.6-0.2,1.3-0.3,1.9-0.3c0.6,0,1.2,0.1,1.7,0.3c0.6,0.2,1,0.6,1.2,1.3s0.3,1.3,0,1.9
				c-0.2,0.6-0.7,1.1-1.3,1.4c-0.6,0.3-1.2,0.3-1.7,0.1c-0.5-0.2-0.9-0.5-1.1-0.8c-0.2-0.3-0.4-0.7-0.5-1l0,0
				c-0.2-0.8-0.5-1.2-0.9-1.2l0,0c-0.4,0-0.9,0.7-1.4,2.2c-0.5,1.5-0.8,3-0.8,4.7l0,0V83H176.5z M198,65.5L198,65.5v8.7
				c2.2,0,3.8-0.3,4.5-1c0.8-0.7,1.1-1.7,1.1-3.3c0-1.5-0.4-2.7-1.2-3.4S200.2,65.5,198,65.5z M211.2,83.3V84h-1.5
				c-2.8,0-4.8-0.6-5.9-1.8l0,0c-0.9-0.9-1.5-2.2-1.8-3.7l0,0c-0.1-0.7-0.3-1.2-0.4-1.8l0,0c-0.4-1.2-1.1-1.8-2.2-1.8l0,0H198V83
				h1.7v0.7h-8.4V83h1.7V65.5h-1.7v-0.7h8.9c5.7,0,8.6,1.7,8.6,5l0,0c0,1.3-0.5,2.4-1.4,3.2c-1,0.8-2.2,1.2-3.7,1.2l0,0v0.2
				c2.2,0,3.8,1.5,4.7,4.4l0,0c0.4,1.6,0.9,2.7,1.4,3.4C210.1,83,210.6,83.3,211.2,83.3L211.2,83.3z M218.5,81.6
				c0.5,1.1,1.3,1.7,2.6,1.7c1.2,0,2.1-0.6,2.6-1.7c0.5-1.1,0.8-3,0.8-5.7s-0.3-4.5-0.8-5.7s-1.4-1.7-2.6-1.7
				c-1.2,0-2.1,0.6-2.6,1.7s-0.7,3.1-0.7,5.7S218,80.5,218.5,81.6z M221,84c-2.1,0-4.1-0.7-5.8-2.1c-1.7-1.4-2.6-3.4-2.6-5.9l0,0
				c0-1.4,0.3-2.6,0.8-3.7c0.5-1.1,1.2-1.9,2-2.6s1.7-1.1,2.7-1.4s2-0.5,3-0.5c1,0,2,0.2,3,0.5c1,0.3,1.9,0.8,2.7,1.4
				c0.8,0.6,1.5,1.5,2,2.6c0.5,1.1,0.8,2.3,0.8,3.6s-0.3,2.6-0.8,3.6c-0.5,1.1-1.2,1.9-2.1,2.5l0,0C225,83.4,223.1,84,221,84z
				 M239.4,83.4L239.4,83.4c2.3,0,3.5-0.6,3.5-1.9l0,0c0-0.7-0.4-1.3-1.2-1.8c-0.8-0.5-1.8-0.8-2.9-1.1c-1.1-0.3-2.3-0.6-3.4-1
				c-1.1-0.4-2-1-2.8-1.8c-0.7-0.8-1-1.9-0.9-3.3c0.1-1.3,0.8-2.5,2.1-3.3c1.2-0.9,2.8-1.3,4.6-1.3s3.3,0.3,4.4,0.9
				c1.1,0.6,1.8,1.4,1.9,2.4l0,0c0.1,0.6,0,1.2-0.3,1.7c-0.3,0.5-0.7,0.8-1.4,0.8c-0.6,0-1.2-0.1-1.6-0.5c-0.4-0.4-0.6-0.8-0.6-1.2
				c0-0.5,0.2-0.9,0.5-1.3c0.3-0.4,0.5-0.7,0.5-0.9l0,0c0-0.4-0.4-0.7-1.1-0.9c-0.7-0.2-1.6-0.3-2.5-0.3c-1,0-1.7,0.2-2.3,0.6
				c-0.6,0.4-0.9,1-0.9,1.6c0,0.6,0.4,1.2,1.1,1.6s1.7,0.8,2.7,1.1c1.1,0.3,2.2,0.6,3.2,0.9c1.1,0.3,2,0.9,2.7,1.7
				c0.8,0.8,1.1,1.7,1.1,2.9l0,0c0,1.6-0.6,2.8-1.7,3.7c-1.1,0.9-2.8,1.4-5,1.4c-2.2,0-4-0.3-5.4-1c-1.4-0.7-2.1-1.5-2.3-2.6l0,0
				c-0.1-0.6,0-1.2,0.3-1.7c0.3-0.5,0.8-0.8,1.4-0.8c0.6,0,1.2,0.1,1.6,0.5c0.4,0.4,0.6,0.8,0.6,1.2c0,0.5-0.2,0.9-0.5,1.3
				c-0.3,0.4-0.5,0.7-0.5,0.9l0,0c0,0.4,0.5,0.8,1.6,1.1C237.1,83.3,238.2,83.4,239.4,83.4z M255.4,83.4L255.4,83.4
				c2.3,0,3.5-0.6,3.5-1.9l0,0c0-0.7-0.4-1.3-1.2-1.8c-0.8-0.5-1.8-0.8-2.9-1.1c-1.1-0.3-2.3-0.6-3.4-1c-1.1-0.4-2-1-2.8-1.8
				c-0.7-0.8-1-1.9-0.9-3.3c0.1-1.3,0.8-2.5,2.1-3.3c1.2-0.9,2.8-1.3,4.6-1.3s3.3,0.3,4.4,0.9c1.1,0.6,1.8,1.4,1.9,2.4l0,0
				c0.1,0.6,0,1.2-0.3,1.7s-0.7,0.8-1.4,0.8c-0.6,0-1.2-0.1-1.6-0.5s-0.6-0.8-0.6-1.2c0-0.5,0.2-0.9,0.5-1.3
				c0.3-0.4,0.5-0.7,0.5-0.9l0,0c0-0.4-0.4-0.7-1.1-0.9c-0.7-0.2-1.6-0.3-2.5-0.3c-1,0-1.7,0.2-2.3,0.6c-0.6,0.4-0.9,1-0.9,1.6
				c0,0.6,0.4,1.2,1.1,1.6s1.7,0.8,2.7,1.1c1.1,0.3,2.2,0.6,3.2,0.9c1.1,0.3,2,0.9,2.7,1.7c0.8,0.8,1.1,1.7,1.1,2.9l0,0
				c0,1.6-0.6,2.8-1.7,3.7c-1.1,0.9-2.8,1.4-5,1.4c-2.2,0-4-0.3-5.4-1c-1.4-0.7-2.1-1.5-2.3-2.6l0,0c-0.1-0.6,0-1.2,0.3-1.7
				c0.3-0.5,0.8-0.8,1.4-0.8c0.6,0,1.2,0.1,1.6,0.5c0.4,0.4,0.6,0.8,0.6,1.2c0,0.5-0.2,0.9-0.5,1.3c-0.3,0.4-0.5,0.7-0.5,0.9l0,0
				c0,0.4,0.5,0.8,1.6,1.1C253.1,83.3,254.2,83.4,255.4,83.4z M272.6,83.7L272.6,83.7h-0.7v-7.9h0.7c0,2.1,0.8,3.9,2.3,5.4
				c1.5,1.5,3.4,2.2,5.5,2.2l0,0c0.9,0,1.6-0.3,2.2-0.8s0.8-1.2,0.8-2.1l0,0c0-1-0.6-1.8-1.9-2.5l0,0c-0.7-0.4-1.9-0.9-3.6-1.7
				c-1.7-0.8-2.9-1.4-3.6-2l0,0c-1.4-1.1-2-2.5-1.8-4.3c0.2-1.8,0.8-3.2,2-4.1c1.2-1,2.5-1.5,4-1.5c1.5,0,2.8,0.2,4,0.6
				s1.8,0.6,2,0.6l0,0c0.4,0,0.7-0.4,0.7-1.2l0,0h0.7v6.2H285c0-1.6-0.6-2.9-1.8-4c-1.2-1-2.7-1.5-4.6-1.5l0,0c-0.8,0-1.5,0.2-2,0.7
				c-0.5,0.5-0.7,1-0.7,1.6c0,0.6,0.1,1,0.2,1.3c0.2,0.3,0.4,0.6,0.8,0.9c0.4,0.3,0.7,0.5,1,0.6c0.3,0.2,0.8,0.4,1.4,0.6
				c0.6,0.3,1.1,0.5,1.3,0.6l0,0c1.2,0.6,2,0.9,2.2,1c0.2,0.1,0.6,0.3,1,0.5c0.4,0.2,0.7,0.4,1,0.6c0.2,0.2,0.5,0.4,0.8,0.7
				c0.3,0.3,0.6,0.5,0.7,0.8c0.2,0.3,0.3,0.6,0.5,1l0,0c0.3,0.7,0.4,1.6,0.3,2.5l0,0c-0.2,1.8-0.9,3.2-2,4.2s-2.8,1.4-4.8,1.4l0,0
				c-1.8,0-3.6-0.5-5.4-1.4l0,0c-0.6-0.3-1.1-0.5-1.3-0.5l0,0C273,82.3,272.6,82.8,272.6,83.7z M300.1,68.8h-3.9v8.2
				c0,1.9,0.1,3.1,0.2,3.5c0.2,0.4,0.3,0.8,0.5,1.1l0,0c0.3,0.6,0.9,0.9,1.8,0.9c0.8,0,1.4-0.1,1.8-0.3l0,0v0.7
				c-1.1,0.8-2.3,1.1-3.5,1.1l0,0c-1.9,0-3.3-0.4-4.3-1.3c-1-0.9-1.5-2.5-1.5-4.8l0,0v-9h-2.5v-0.7h2.5c1.1-0.2,2-0.7,2.9-1.6
				c0.8-0.9,1.4-2.1,1.7-3.6l0,0h0.5v5.2h3.9V68.8z M317.1,76.9L317.1,76.9h-10.2c0.2,4,1.8,5.9,4.6,5.9l0,0c0.8,0,1.6-0.2,2.6-0.5
				s1.7-0.9,2.1-1.5l0,0l0.5,0.3c-0.5,0.8-1.3,1.5-2.5,2.1c-1.2,0.5-2.4,0.8-3.6,0.8s-2.2-0.1-3.2-0.4c-0.9-0.2-1.9-0.6-2.8-1.2
				s-1.6-1.4-2.1-2.5c-0.5-1.1-0.8-2.5-0.8-4.1l0,0c0-2.7,0.8-4.7,2.3-6.1c1.5-1.3,3.3-2,5.5-2c2.1,0,3.9,0.7,5.4,2.2
				C316.4,71.4,317.1,73.7,317.1,76.9z M306.9,75.9v0.4h5.5c0-2.1-0.2-3.9-0.7-5.4c-0.4-1.6-1.1-2.3-2.1-2.3c-1,0-1.7,0.7-2.1,2.2
				C307.1,72.2,306.9,73.9,306.9,75.9L306.9,75.9z M330.9,68.2h5.1v0.7h-1.7L328,83.7h-0.6l-7.5-14.8h-1.3v-0.7h8.8v0.7h-1.7
				l4.2,8.8l3.7-8.8h-2.7V68.2z M352.5,76.9L352.5,76.9h-10.2c0.2,4,1.8,5.9,4.6,5.9l0,0c0.8,0,1.6-0.2,2.6-0.5
				c1-0.4,1.7-0.9,2.1-1.5l0,0l0.5,0.3c-0.5,0.8-1.3,1.5-2.5,2.1c-1.2,0.5-2.4,0.8-3.6,0.8s-2.2-0.1-3.2-0.4
				c-0.9-0.2-1.9-0.6-2.8-1.2s-1.6-1.4-2.1-2.5c-0.5-1.1-0.8-2.5-0.8-4.1l0,0c0-2.7,0.8-4.7,2.3-6.1c1.5-1.3,3.3-2,5.5-2
				s3.9,0.7,5.4,2.2S352.5,73.7,352.5,76.9z M342.3,75.9v0.4h5.5c0-2.1-0.2-3.9-0.7-5.4s-1.1-2.3-2.1-2.3c-1,0-1.7,0.7-2.1,2.2
				C342.5,72.2,342.3,73.9,342.3,75.9L342.3,75.9z M372.7,74.3V83h1.7v0.7h-8.4V83h1.7v-9.4c0-1.6-0.2-2.7-0.7-3.4s-1.2-1-2.1-1l0,0
				c-1.3,0-2.3,0.7-3.1,2l0,0V83h1.7v0.7H355V83h1.7V68.8H355v-0.7h6.7v1.8c0.4-0.6,1.1-1.1,2-1.5c0.9-0.4,1.9-0.6,2.9-0.6l0,0
				C370.7,67.8,372.7,70,372.7,74.3L372.7,74.3z M390.4,65.5L390.4,65.5v8.7c2.2,0,3.8-0.3,4.5-1s1.1-1.7,1.1-3.3
				c0-1.5-0.4-2.7-1.2-3.4C394.1,65.8,392.6,65.5,390.4,65.5z M403.6,83.3V84h-1.5c-2.8,0-4.8-0.6-5.9-1.8l0,0
				c-0.9-0.9-1.5-2.2-1.8-3.7l0,0c-0.1-0.7-0.3-1.2-0.4-1.8l0,0c-0.4-1.2-1.1-1.8-2.2-1.8l0,0h-1.5V83h1.7v0.7h-8.4V83h1.7V65.5
				h-1.7v-0.7h8.9c5.7,0,8.6,1.7,8.6,5l0,0c0,1.3-0.5,2.4-1.4,3.2c-1,0.8-2.2,1.2-3.7,1.2l0,0v0.2c2.2,0,3.8,1.5,4.7,4.4l0,0
				c0.4,1.6,0.9,2.7,1.4,3.4C402.4,83,403,83.3,403.6,83.3L403.6,83.3z M410.9,81.6c0.5,1.1,1.3,1.7,2.6,1.7c1.2,0,2.1-0.6,2.6-1.7
				c0.5-1.1,0.8-3,0.8-5.7c0-2.6-0.3-4.5-0.8-5.7c-0.5-1.2-1.4-1.7-2.6-1.7c-1.2,0-2.1,0.6-2.6,1.7s-0.7,3.1-0.7,5.7
				S410.4,80.5,410.9,81.6z M413.4,84c-2.1,0-4.1-0.7-5.8-2.1S405,78.5,405,76l0,0c0-1.4,0.3-2.6,0.8-3.7c0.5-1.1,1.2-1.9,2-2.6
				c0.8-0.6,1.7-1.1,2.7-1.4c1-0.3,2-0.5,3-0.5c1,0,2,0.2,3,0.5s1.9,0.8,2.7,1.4c0.8,0.6,1.5,1.5,2,2.6c0.5,1.1,0.8,2.3,0.8,3.6
				c0,1.3-0.3,2.6-0.8,3.6c-0.5,1.1-1.2,1.9-2.1,2.5l0,0C417.4,83.4,415.5,84,413.4,84z M431.7,83.4L431.7,83.4
				c2.3,0,3.5-0.6,3.5-1.9l0,0c0-0.7-0.4-1.3-1.2-1.8c-0.8-0.5-1.8-0.8-2.9-1.1c-1.1-0.3-2.3-0.6-3.4-1c-1.1-0.4-2-1-2.8-1.8
				c-0.7-0.8-1-1.9-0.9-3.3c0.1-1.3,0.8-2.5,2.1-3.3c1.2-0.9,2.8-1.3,4.6-1.3s3.3,0.3,4.4,0.9c1.1,0.6,1.8,1.4,1.9,2.4l0,0
				c0.1,0.6,0,1.2-0.3,1.7s-0.7,0.8-1.4,0.8c-0.6,0-1.2-0.1-1.6-0.5s-0.6-0.8-0.6-1.2c0-0.5,0.2-0.9,0.5-1.3
				c0.3-0.4,0.5-0.7,0.5-0.9l0,0c0-0.4-0.4-0.7-1.1-0.9c-0.7-0.2-1.6-0.3-2.5-0.3s-1.7,0.2-2.3,0.6c-0.6,0.4-0.9,1-0.9,1.6
				c0,0.6,0.4,1.2,1.1,1.6c0.8,0.4,1.7,0.8,2.7,1.1c1.1,0.3,2.2,0.6,3.2,0.9c1.1,0.3,2,0.9,2.7,1.7c0.8,0.8,1.1,1.7,1.1,2.9l0,0
				c0,1.6-0.6,2.8-1.7,3.7c-1.1,0.9-2.8,1.4-5,1.4s-4-0.3-5.4-1c-1.4-0.7-2.1-1.5-2.3-2.6l0,0c-0.1-0.6,0-1.2,0.3-1.7
				s0.8-0.8,1.4-0.8c0.6,0,1.2,0.1,1.6,0.5s0.6,0.8,0.6,1.2c0,0.5-0.2,0.9-0.5,1.3c-0.3,0.4-0.5,0.7-0.5,0.9l0,0
				c0,0.4,0.5,0.8,1.6,1.1C429.4,83.3,430.5,83.4,431.7,83.4z M447.7,83.4L447.7,83.4c2.3,0,3.5-0.6,3.5-1.9l0,0
				c0-0.7-0.4-1.3-1.2-1.8c-0.8-0.5-1.8-0.8-2.9-1.1c-1.1-0.3-2.3-0.6-3.4-1c-1.1-0.4-2-1-2.8-1.8c-0.7-0.8-1-1.9-0.9-3.3
				c0.1-1.3,0.8-2.5,2.1-3.3c1.2-0.9,2.8-1.3,4.6-1.3s3.3,0.3,4.4,0.9c1.1,0.6,1.8,1.4,1.9,2.4l0,0c0.1,0.6,0,1.2-0.3,1.7
				s-0.7,0.8-1.4,0.8c-0.6,0-1.2-0.1-1.6-0.5s-0.6-0.8-0.6-1.2c0-0.5,0.2-0.9,0.5-1.3c0.3-0.4,0.5-0.7,0.5-0.9l0,0
				c0-0.4-0.4-0.7-1.1-0.9c-0.7-0.2-1.6-0.3-2.5-0.3c-1,0-1.7,0.2-2.3,0.6c-0.6,0.4-0.9,1-0.9,1.6c0,0.6,0.4,1.2,1.1,1.6
				c0.8,0.4,1.7,0.8,2.7,1.1c1.1,0.3,2.2,0.6,3.2,0.9c1.1,0.3,2,0.9,2.7,1.7c0.8,0.8,1.1,1.7,1.1,2.9l0,0c0,1.6-0.6,2.8-1.7,3.7
				c-1.1,0.9-2.8,1.4-5,1.4s-4-0.3-5.4-1c-1.4-0.7-2.1-1.5-2.3-2.6l0,0c-0.1-0.6,0-1.2,0.3-1.7s0.8-0.8,1.4-0.8
				c0.6,0,1.2,0.1,1.6,0.5s0.6,0.8,0.6,1.2c0,0.5-0.2,0.9-0.5,1.3c-0.3,0.4-0.5,0.7-0.5,0.9l0,0c0,0.4,0.5,0.8,1.6,1.1
				C445.4,83.3,446.6,83.4,447.7,83.4z M464.9,87h-0.7V63.9h0.7V87z M483.5,64V83h2.4v0.7h-10.1V83h2.7V66.8l-2.7,1l-0.2-0.6
				l6.8-3.1H483.5z M494.4,63.9L494.4,63.9c5.1,0,7.7,1.6,7.7,4.7l0,0c0,1.2-0.5,2.3-1.5,3.1c-1,0.9-2.4,1.3-4.2,1.4l0,0
				c2,0,3.7,0.5,5,1.4c1.3,0.9,1.9,2.1,1.9,3.7l0,0c0,1.9-0.8,3.4-2.3,4.5c-1.5,1.1-3.7,1.6-6.5,1.6l0,0c-2,0-3.5-0.4-4.6-1.3
				c-1.1-0.9-1.6-2-1.6-3.5l0,0c0-0.9,0.2-1.6,0.7-2.2s1.1-0.8,1.9-0.8c0.8,0,1.4,0.2,1.8,0.6c0.4,0.4,0.7,0.9,0.7,1.6
				c0,0.6-0.2,1.1-0.5,1.5c-0.3,0.4-0.7,0.6-1.1,0.7l0,0c-1.1,0.2-1.6,0.6-1.6,1.1c0,0.5,0.3,0.8,1,1.1c0.6,0.3,1.4,0.4,2.2,0.4l0,0
				c1.3,0,2.4-0.5,3.2-1.4c0.8-0.9,1.2-2.2,1.2-3.8s-0.4-2.8-1.1-3.6s-2-1.1-3.9-1.1l0,0h-0.5v-0.7h0.5c1.4,0,2.5-0.4,3.1-1.3
				c0.6-0.9,0.9-1.8,0.9-2.9c0-1.1-0.3-2-0.9-2.8c-0.6-0.7-1.4-1.1-2.4-1.1c-1,0-1.7,0.2-2.2,0.5s-0.7,0.6-0.7,1s0.1,0.6,0.4,0.8
				s0.6,0.3,0.9,0.4c0.3,0.1,0.7,0.3,0.9,0.6s0.4,0.7,0.4,1.3s-0.2,1-0.6,1.4c-0.4,0.4-0.9,0.6-1.6,0.6c-0.7,0-1.3-0.2-1.7-0.7
				c-0.4-0.5-0.7-1.2-0.7-2l0,0c0-1.2,0.5-2.3,1.5-3.1C491.3,64.3,492.7,63.9,494.4,63.9z M520,65.5v7.9h1c2.7,0,4.1-1.3,4.1-3.9
				l0,0c0-2.7-1.4-4-4.1-4l0,0H520z M520,74v9h1.9c1.3,0,2.4-0.3,3.2-1s1.2-1.7,1.2-3l0,0c0-1.9-0.5-3.1-1.4-3.8
				c-0.9-0.7-2.2-1-3.8-1l0,0H520z M523.9,83.7h-10.7V83h1.7V65.5h-1.7v-0.7h8.5c2.8,0,4.8,0.4,6.2,1.3c1.3,0.9,2,2,2,3.5l0,0
				c0,1.2-0.4,2.2-1.2,2.9s-1.8,1.1-3.1,1.1l0,0v0.2c1.6,0,3,0.4,4.1,1.3s1.7,2.1,1.7,3.7s-0.6,2.8-1.9,3.6
				C528.1,83.3,526.3,83.7,523.9,83.7L523.9,83.7z M538.9,81.6c0.5,1.1,1.3,1.7,2.6,1.7s2.1-0.6,2.6-1.7c0.5-1.1,0.8-3,0.8-5.7
				s-0.3-4.5-0.8-5.7s-1.4-1.7-2.6-1.7s-2.1,0.6-2.6,1.7s-0.7,3.1-0.7,5.7S538.4,80.5,538.9,81.6z M541.4,84c-2.1,0-4.1-0.7-5.8-2.1
				c-1.7-1.4-2.6-3.4-2.6-5.9l0,0c0-1.4,0.3-2.6,0.8-3.7s1.2-1.9,2-2.6c0.8-0.6,1.7-1.1,2.7-1.4s2-0.5,3-0.5s2,0.2,3,0.5
				s1.9,0.8,2.7,1.4c0.8,0.6,1.5,1.5,2,2.6s0.8,2.3,0.8,3.6s-0.3,2.6-0.8,3.6c-0.5,1.1-1.2,1.9-2.1,2.5l0,0
				C545.4,83.4,543.5,84,541.4,84z M570,74.3V83h1.7v0.7h-8.4V83h1.7v-9.4c0-1.6-0.2-2.7-0.7-3.4s-1.2-1-2.1-1l0,0
				c-1.3,0-2.3,0.7-3.1,2l0,0V83h1.7v0.7h-8.4V83h1.7V68.8h-1.7v-0.7h6.7v1.8c0.4-0.6,1.1-1.1,2-1.5c0.9-0.4,1.9-0.6,2.9-0.6l0,0
				C568,67.8,570,70,570,74.3L570,74.3z M589,76.9L589,76.9h-10.2c0.2,4,1.8,5.9,4.6,5.9l0,0c0.8,0,1.6-0.2,2.6-0.5
				c1-0.4,1.7-0.9,2.1-1.5l0,0l0.5,0.3c-0.5,0.8-1.3,1.5-2.5,2.1c-1.2,0.5-2.4,0.8-3.6,0.8c-1.2,0-2.2-0.1-3.2-0.4
				c-0.9-0.2-1.9-0.6-2.8-1.2s-1.6-1.4-2.1-2.5c-0.5-1.1-0.8-2.5-0.8-4.1l0,0c0-2.7,0.8-4.7,2.3-6.1c1.5-1.3,3.3-2,5.5-2
				c2.1,0,3.9,0.7,5.4,2.2C588.3,71.4,589,73.7,589,76.9z M578.8,75.9v0.4h5.5c0-2.1-0.2-3.9-0.7-5.4c-0.4-1.6-1.1-2.3-2.1-2.3
				c-1,0-1.7,0.7-2.1,2.2C579,72.2,578.8,73.9,578.8,75.9L578.8,75.9z M605.5,83.7h-15v-0.5l9.5-14.3h-2c-4,0-6,1.9-6,5.6l0,0h-0.5
				v-6.2h14.2v0.4L596.2,83h2.1c1.2,0,2.2-0.1,2.9-0.2s1.4-0.4,2-0.8l0,0c1.2-0.8,1.8-2.5,1.8-5l0,0h0.5V83.7z"/>
		</g>
	</g>
</g>
</svg>
