<?xml version="1.0" encoding="utf-8"?>
<!-- Generator: Adobe Illustrator 24.2.1, SVG Export Plug-In . SVG Version: 6.00 Build 0)  -->
<svg version="1.1" id="Layer_1" xmlns="http://www.w3.org/2000/svg" xmlns:xlink="http://www.w3.org/1999/xlink" x="0px" y="0px"
	 viewBox="0 0 585.4 305.9" style="enable-background:new 0 0 585.4 305.9;" xml:space="preserve">
<style type="text/css">
	.st0{fill:#E5E5E5;}
	.st1{fill:#5B5B5B;}
	.st2{fill:#E9E41D;}
</style>
<g>
	<g transform="rotate(0 175.6284 0)">
		<g transform="matrix(1 0 0 1 0 0)">
			<g>
				<path class="st0" d="M308.8,3.3c6.8,2.6,18.9,11,18.6,37.1c-0.5,50.2-8.1,72.2-35.7,99.8c-10.4,10.4-39.9,22.8-65.4,17.1
					c-71.4-15.8-57-89.9-20.1-95.7c29.1-4.6,40-12.6,51.4-26.9C280.4,6,283-6.5,308.8,3.3z"/>
				<path class="st1" d="M391.2,26.1c-8-2.7-41.2-3.8-66.1,13.4c-48,33.2-72.4,62.5-94.4,105.9c-7.6,15-16.5,35.5-3.3,53.9
					c6.6,9.3,27.6,15.1,34.5,15.9c79.5,9.3,112.5-31.3,99.8-57.4l-3.3-6.7c-12.6-22.5-1.1-41.3,7.3-51
					C393.4,68.4,433.9,40.3,391.2,26.1L391.2,26.1z"/>
				<path class="st2" d="M230.7,145.4c-1.9,3.8-3.7,7.7-5.4,11.6c0.3,0.1,0.6,0.2,0.9,0.2c25.5,5.7,55-6.7,65.4-17.1
					c27.6-27.6,35.1-49.6,35.7-99.8c0-0.8,0-1.5,0-2.3c-0.8,0.5-1.5,0.9-2.3,1.4C277.1,72.7,252.7,101.9,230.7,145.4L230.7,145.4z"
					/>
			</g>
		</g>
	</g>
	<g transform="rotate(0 23.8101 284.6076)">
		<g transform="matrix(1 0 0 1 0 0)">
			<path class="st0" d="M33.8,293.2c1,0.2,1.8,0.7,2.4,1.3c0.6,0.7,0.8,1.5,0.8,2.6l0,0c0,1.4-0.5,2.4-1.5,3.1
				c-1,0.7-2.5,1.1-4.4,1.1l0,0h-7.3v-15.8h6.8c1.8,0,3.1,0.4,4.1,1.1c1,0.7,1.5,1.7,1.5,3l0,0c0,0.9-0.2,1.6-0.6,2.2
				C35.1,292.5,34.5,292.9,33.8,293.2L33.8,293.2z M30.5,286.9h-5v5.7h5c1.3,0,2.3-0.2,3-0.7c0.7-0.5,1-1.2,1-2.1l0,0
				c0-0.9-0.3-1.6-1-2.1C32.8,287.2,31.8,286.9,30.5,286.9L30.5,286.9z M31.1,300c1.4,0,2.5-0.2,3.2-0.7c0.7-0.5,1.1-1.2,1.1-2.3
				l0,0c0-2-1.4-3-4.3-3l0,0h-5.6v5.9H31.1z M46,289.4c1.6,0,2.7,0.4,3.6,1.2c0.8,0.8,1.2,1.9,1.2,3.4l0,0v7.4h-1.5v-1.9
				c-0.4,0.6-0.9,1.1-1.6,1.4c-0.7,0.3-1.5,0.5-2.5,0.5l0,0c-1.3,0-2.4-0.3-3.2-0.9c-0.8-0.6-1.2-1.5-1.2-2.5l0,0
				c0-1,0.4-1.8,1.1-2.4c0.7-0.6,1.9-0.9,3.5-0.9l0,0h3.8v-0.7c0-1-0.3-1.8-0.9-2.3c-0.6-0.5-1.4-0.8-2.5-0.8l0,0
				c-0.8,0-1.5,0.1-2.2,0.4c-0.7,0.2-1.3,0.6-1.8,1l0,0l-0.7-1.2c0.6-0.5,1.3-0.9,2.2-1.2C44.2,289.5,45.1,289.4,46,289.4L46,289.4z
				 M45.5,300.2c0.9,0,1.7-0.2,2.3-0.6c0.6-0.4,1.1-1,1.4-1.8l0,0v-1.9h-3.7c-2,0-3.1,0.7-3.1,2.1l0,0c0,0.7,0.3,1.2,0.8,1.6
				C43.8,300,44.5,300.2,45.5,300.2L45.5,300.2z M62.6,289.4c1.5,0,2.7,0.4,3.6,1.3c0.9,0.9,1.3,2.1,1.3,3.8l0,0v6.9h-1.6v-6.7
				c0-1.2-0.3-2.2-0.9-2.8c-0.6-0.6-1.5-1-2.6-1l0,0c-1.3,0-2.3,0.4-3,1.1s-1.1,1.8-1.1,3.2l0,0v6.2h-1.6v-11.9h1.5v2.2
				c0.4-0.7,1-1.3,1.8-1.7C60.7,289.6,61.6,289.4,62.6,289.4L62.6,289.4z M82.5,284.6h1.6v16.8h-1.5V299c-0.5,0.8-1.1,1.4-1.9,1.8
				c-0.8,0.4-1.7,0.6-2.7,0.6l0,0c-1.1,0-2.1-0.3-3-0.8c-0.9-0.5-1.6-1.2-2.1-2.1c-0.5-0.9-0.8-2-0.8-3.1l0,0c0-1.2,0.3-2.2,0.8-3.1
				c0.5-0.9,1.2-1.6,2.1-2.1c0.9-0.5,1.9-0.8,3-0.8l0,0c1,0,1.8,0.2,2.6,0.6c0.8,0.4,1.4,1,1.9,1.8l0,0V284.6z M78.1,300.1
				c0.8,0,1.6-0.2,2.2-0.6c0.7-0.4,1.2-0.9,1.6-1.6c0.4-0.7,0.6-1.5,0.6-2.4l0,0c0-0.9-0.2-1.7-0.6-2.4c-0.4-0.7-0.9-1.3-1.6-1.6
				c-0.7-0.4-1.4-0.6-2.2-0.6l0,0c-0.8,0-1.6,0.2-2.3,0.6c-0.7,0.4-1.2,0.9-1.6,1.6c-0.4,0.7-0.6,1.5-0.6,2.4l0,0
				c0,0.9,0.2,1.7,0.6,2.4c0.4,0.7,0.9,1.3,1.6,1.6C76.5,299.9,77.3,300.1,78.1,300.1L78.1,300.1z M112.6,285.6h1.4v15.8h-1.6v-12.7
				l-6.2,10.7h-0.8l-6.2-10.6v12.6h-1.6v-15.8H99l6.9,11.7L112.6,285.6z M124.4,289.4c1.6,0,2.7,0.4,3.6,1.2
				c0.8,0.8,1.2,1.9,1.2,3.4l0,0v7.4h-1.5v-1.9c-0.4,0.6-0.9,1.1-1.6,1.4c-0.7,0.3-1.5,0.5-2.5,0.5l0,0c-1.3,0-2.4-0.3-3.2-0.9
				c-0.8-0.6-1.2-1.5-1.2-2.5l0,0c0-1,0.4-1.8,1.1-2.4c0.7-0.6,1.9-0.9,3.5-0.9l0,0h3.8v-0.7c0-1-0.3-1.8-0.9-2.3
				c-0.6-0.5-1.4-0.8-2.5-0.8l0,0c-0.8,0-1.5,0.1-2.2,0.4c-0.7,0.2-1.3,0.6-1.8,1l0,0l-0.7-1.2c0.6-0.5,1.3-0.9,2.2-1.2
				C122.5,289.5,123.4,289.4,124.4,289.4L124.4,289.4z M123.8,300.2c0.9,0,1.7-0.2,2.3-0.6c0.6-0.4,1.1-1,1.4-1.8l0,0v-1.9h-3.7
				c-2,0-3.1,0.7-3.1,2.1l0,0c0,0.7,0.3,1.2,0.8,1.6C122.1,300,122.8,300.2,123.8,300.2L123.8,300.2z M140.9,289.4
				c1.5,0,2.7,0.4,3.6,1.3c0.9,0.9,1.3,2.1,1.3,3.8l0,0v6.9h-1.6v-6.7c0-1.2-0.3-2.2-0.9-2.8c-0.6-0.6-1.5-1-2.6-1l0,0
				c-1.3,0-2.3,0.4-3,1.1c-0.7,0.8-1.1,1.8-1.1,3.2l0,0v6.2h-1.6v-11.9h1.5v2.2c0.4-0.7,1-1.3,1.8-1.7
				C139,289.6,139.9,289.4,140.9,289.4L140.9,289.4z M155.7,289.4c1.6,0,2.7,0.4,3.6,1.2s1.2,1.9,1.2,3.4l0,0v7.4H159v-1.9
				c-0.4,0.6-0.9,1.1-1.6,1.4c-0.7,0.3-1.5,0.5-2.5,0.5l0,0c-1.3,0-2.4-0.3-3.2-0.9c-0.8-0.6-1.2-1.5-1.2-2.5l0,0
				c0-1,0.4-1.8,1.1-2.4s1.9-0.9,3.5-0.9l0,0h3.8v-0.7c0-1-0.3-1.8-0.9-2.3c-0.6-0.5-1.4-0.8-2.5-0.8l0,0c-0.8,0-1.5,0.1-2.2,0.4
				c-0.7,0.2-1.3,0.6-1.8,1l0,0l-0.7-1.2c0.6-0.5,1.3-0.9,2.2-1.2C153.9,289.5,154.8,289.4,155.7,289.4L155.7,289.4z M155.1,300.2
				c0.9,0,1.7-0.2,2.3-0.6c0.6-0.4,1.1-1,1.4-1.8l0,0v-1.9h-3.7c-2,0-3.1,0.7-3.1,2.1l0,0c0,0.7,0.3,1.2,0.8,1.6
				C153.5,300,154.2,300.2,155.1,300.2L155.1,300.2z M175.8,289.5h1.5v10.4c0,2-0.5,3.5-1.5,4.5c-1,1-2.5,1.5-4.5,1.5l0,0
				c-1.1,0-2.1-0.2-3.1-0.5c-1-0.3-1.8-0.8-2.4-1.3l0,0l0.8-1.2c0.6,0.5,1.3,0.9,2.1,1.2c0.8,0.3,1.7,0.4,2.6,0.4l0,0
				c1.5,0,2.6-0.4,3.3-1.1c0.7-0.7,1.1-1.8,1.1-3.3l0,0v-1.5c-0.5,0.8-1.1,1.3-2,1.7s-1.7,0.6-2.7,0.6l0,0c-1.1,0-2.1-0.2-3-0.7
				c-0.9-0.5-1.6-1.2-2.1-2.1c-0.5-0.9-0.8-1.9-0.8-3l0,0c0-1.1,0.3-2.1,0.8-3c0.5-0.9,1.2-1.6,2.1-2c0.9-0.5,1.9-0.7,3.1-0.7l0,0
				c1,0,1.9,0.2,2.7,0.6c0.8,0.4,1.5,1,2,1.8l0,0V289.5z M171.2,299.5c0.9,0,1.6-0.2,2.3-0.6c0.7-0.4,1.2-0.9,1.6-1.5
				c0.4-0.7,0.6-1.4,0.6-2.3l0,0c0-0.8-0.2-1.6-0.6-2.3c-0.4-0.7-0.9-1.2-1.6-1.5s-1.5-0.6-2.3-0.6l0,0c-0.9,0-1.6,0.2-2.3,0.5
				c-0.7,0.4-1.2,0.9-1.6,1.5c-0.4,0.7-0.6,1.4-0.6,2.3l0,0c0,0.8,0.2,1.6,0.6,2.3c0.4,0.7,0.9,1.2,1.6,1.5
				C169.6,299.3,170.4,299.5,171.2,299.5L171.2,299.5z M193.5,295.4l0,0.5h-9.9c0.1,1.2,0.6,2.2,1.4,3c0.9,0.8,1.9,1.1,3.3,1.1l0,0
				c0.7,0,1.4-0.1,2-0.4c0.6-0.3,1.2-0.7,1.6-1.2l0,0l0.9,1c-0.5,0.6-1.2,1.1-2,1.4c-0.8,0.3-1.7,0.5-2.6,0.5l0,0
				c-1.2,0-2.3-0.3-3.2-0.8c-0.9-0.5-1.7-1.2-2.2-2.2c-0.5-0.9-0.8-2-0.8-3.1l0,0c0-1.2,0.3-2.2,0.8-3.1s1.2-1.6,2.1-2.1
				c0.9-0.5,1.9-0.8,3-0.8l0,0c1.1,0,2.1,0.3,3,0.8c0.9,0.5,1.6,1.2,2.1,2.1C193.3,293.2,193.5,294.3,193.5,295.4L193.5,295.4z
				 M187.8,290.8c-1.1,0-2.1,0.4-2.9,1.1c-0.8,0.7-1.2,1.7-1.3,2.9l0,0h8.4c-0.1-1.2-0.5-2.1-1.3-2.9
				C189.9,291.1,188.9,290.8,187.8,290.8L187.8,290.8z M199.7,291.8c0.4-0.8,0.9-1.4,1.7-1.8c0.7-0.4,1.7-0.6,2.8-0.6l0,0v1.6
				l-0.4,0c-1.3,0-2.2,0.4-2.9,1.2c-0.7,0.8-1.1,1.8-1.1,3.2l0,0v6.1h-1.6v-11.9h1.5V291.8z M227.1,287h-9.2v6.2h8.2v1.4h-8.2v6.7
				h-1.7v-15.8h10.9V287z M232.9,291.8c0.4-0.8,0.9-1.4,1.7-1.8c0.7-0.4,1.7-0.6,2.8-0.6l0,0v1.6l-0.4,0c-1.3,0-2.2,0.4-2.9,1.2
				c-0.7,0.8-1.1,1.8-1.1,3.2l0,0v6.1h-1.6v-11.9h1.5V291.8z M246.3,301.5c-1.1,0-2.2-0.3-3.1-0.8c-0.9-0.5-1.6-1.2-2.2-2.2
				s-0.8-2-0.8-3.1l0,0c0-1.2,0.3-2.2,0.8-3.1s1.3-1.6,2.2-2.1c0.9-0.5,2-0.8,3.1-0.8l0,0c1.1,0,2.2,0.3,3.1,0.8
				c0.9,0.5,1.6,1.2,2.2,2.1s0.8,2,0.8,3.1l0,0c0,1.2-0.3,2.2-0.8,3.1s-1.2,1.6-2.2,2.2C248.5,301.2,247.5,301.5,246.3,301.5
				L246.3,301.5z M246.3,300.1c0.8,0,1.6-0.2,2.3-0.6c0.7-0.4,1.2-0.9,1.6-1.6c0.4-0.7,0.6-1.5,0.6-2.4l0,0c0-0.9-0.2-1.7-0.6-2.4
				c-0.4-0.7-0.9-1.3-1.6-1.6c-0.7-0.4-1.4-0.6-2.3-0.6l0,0c-0.8,0-1.6,0.2-2.3,0.6c-0.7,0.4-1.2,0.9-1.6,1.6
				c-0.4,0.7-0.6,1.5-0.6,2.4l0,0c0,0.9,0.2,1.7,0.6,2.4c0.4,0.7,0.9,1.3,1.6,1.6C244.7,299.9,245.5,300.1,246.3,300.1L246.3,300.1z
				 M263,289.4c1.5,0,2.7,0.4,3.6,1.3c0.9,0.9,1.3,2.1,1.3,3.8l0,0v6.9h-1.6v-6.7c0-1.2-0.3-2.2-0.9-2.8c-0.6-0.6-1.5-1-2.6-1l0,0
				c-1.3,0-2.3,0.4-3,1.1c-0.7,0.8-1.1,1.8-1.1,3.2l0,0v6.2H257v-11.9h1.5v2.2c0.4-0.7,1-1.3,1.8-1.7
				C261.1,289.6,262,289.4,263,289.4L263,289.4z M279.3,299.5l0.6,1.2c-0.3,0.3-0.7,0.5-1.1,0.6c-0.4,0.1-0.9,0.2-1.4,0.2l0,0
				c-1.1,0-2-0.3-2.6-0.9c-0.6-0.6-0.9-1.5-0.9-2.6l0,0v-7.2h-2.1v-1.4h2.1v-2.6h1.6v2.6h3.6v1.4h-3.6v7.1c0,0.7,0.2,1.2,0.5,1.6
				c0.4,0.4,0.9,0.6,1.5,0.6l0,0c0.3,0,0.7-0.1,1-0.2C278.8,299.9,279.1,299.7,279.3,299.5L279.3,299.5z M306.9,285.6h1.4v15.8h-1.6
				v-12.7l-6.2,10.7h-0.8l-6.2-10.6v12.6h-1.6v-15.8h1.4l6.9,11.7L306.9,285.6z M318.6,289.4c1.6,0,2.7,0.4,3.6,1.2s1.2,1.9,1.2,3.4
				l0,0v7.4h-1.5v-1.9c-0.4,0.6-0.9,1.1-1.6,1.4c-0.7,0.3-1.5,0.5-2.5,0.5l0,0c-1.3,0-2.4-0.3-3.2-0.9s-1.2-1.5-1.2-2.5l0,0
				c0-1,0.4-1.8,1.1-2.4c0.7-0.6,1.9-0.9,3.5-0.9l0,0h3.8v-0.7c0-1-0.3-1.8-0.9-2.3c-0.6-0.5-1.4-0.8-2.5-0.8l0,0
				c-0.8,0-1.5,0.1-2.2,0.4c-0.7,0.2-1.3,0.6-1.8,1l0,0l-0.7-1.2c0.6-0.5,1.3-0.9,2.2-1.2C316.7,289.5,317.6,289.4,318.6,289.4
				L318.6,289.4z M318,300.2c0.9,0,1.7-0.2,2.3-0.6c0.6-0.4,1.1-1,1.4-1.8l0,0v-1.9H318c-2,0-3.1,0.7-3.1,2.1l0,0
				c0,0.7,0.3,1.2,0.8,1.6C316.3,300,317.1,300.2,318,300.2L318,300.2z M335.2,289.4c1.5,0,2.7,0.4,3.6,1.3c0.9,0.9,1.3,2.1,1.3,3.8
				l0,0v6.9h-1.6v-6.7c0-1.2-0.3-2.2-0.9-2.8c-0.6-0.6-1.5-1-2.6-1l0,0c-1.3,0-2.3,0.4-3,1.1c-0.7,0.8-1.1,1.8-1.1,3.2l0,0v6.2h-1.6
				v-11.9h1.5v2.2c0.4-0.7,1-1.3,1.8-1.7C333.2,289.6,334.1,289.4,335.2,289.4L335.2,289.4z M353.4,305.8v-21.2h1.5v21.2H353.4z
				 M368.7,301.4v-15.8h1.7v14.4h8.9v1.4H368.7z M393.2,295.4l0,0.5h-9.9c0.1,1.2,0.6,2.2,1.4,3s1.9,1.1,3.3,1.1l0,0
				c0.7,0,1.4-0.1,2-0.4c0.6-0.3,1.2-0.7,1.6-1.2l0,0l0.9,1c-0.5,0.6-1.2,1.1-2,1.4c-0.8,0.3-1.7,0.5-2.6,0.5l0,0
				c-1.2,0-2.3-0.3-3.2-0.8c-0.9-0.5-1.7-1.2-2.2-2.2c-0.5-0.9-0.8-2-0.8-3.1l0,0c0-1.2,0.3-2.2,0.8-3.1c0.5-0.9,1.2-1.6,2.1-2.1
				c0.9-0.5,1.9-0.8,3-0.8l0,0c1.1,0,2.1,0.3,3,0.8c0.9,0.5,1.6,1.2,2.1,2.1S393.2,294.3,393.2,295.4L393.2,295.4z M387.5,290.8
				c-1.1,0-2.1,0.4-2.9,1.1c-0.8,0.7-1.2,1.7-1.3,2.9l0,0h8.4c-0.1-1.2-0.5-2.1-1.3-2.9C389.6,291.1,388.6,290.8,387.5,290.8
				L387.5,290.8z M413.6,289.5h1.5l-4.5,11.9h-1.5l-3.8-9.7l-3.8,9.7h-1.5l-4.5-11.9h1.5l3.7,10.1l3.8-10.1h1.4l3.8,10.1
				L413.6,289.5z M418.9,301.4v-11.9h1.6v11.9H418.9z M419.7,286.9c-0.3,0-0.6-0.1-0.8-0.3c-0.2-0.2-0.3-0.5-0.3-0.8l0,0
				c0-0.3,0.1-0.6,0.3-0.8c0.2-0.2,0.5-0.3,0.8-0.3l0,0c0.3,0,0.6,0.1,0.8,0.3c0.2,0.2,0.3,0.5,0.3,0.8l0,0c0,0.3-0.1,0.6-0.3,0.8
				C420.3,286.8,420,286.9,419.7,286.9L419.7,286.9z M429.5,301.5c-1,0-1.9-0.1-2.8-0.4s-1.6-0.6-2.1-1.1l0,0l0.7-1.3
				c0.5,0.4,1.1,0.7,1.9,1c0.8,0.2,1.5,0.4,2.4,0.4l0,0c1.1,0,1.9-0.2,2.4-0.5c0.5-0.3,0.8-0.8,0.8-1.4l0,0c0-0.4-0.1-0.8-0.4-1
				c-0.3-0.2-0.6-0.4-1.1-0.6c-0.4-0.1-1-0.3-1.7-0.4l0,0c-1-0.2-1.7-0.4-2.3-0.6c-0.6-0.2-1.1-0.5-1.5-1c-0.4-0.5-0.6-1.1-0.6-1.9
				l0,0c0-1,0.4-1.8,1.2-2.4c0.8-0.6,2-0.9,3.5-0.9l0,0c0.8,0,1.5,0.1,2.3,0.3c0.8,0.2,1.4,0.5,1.9,0.8l0,0l-0.7,1.3
				c-1-0.7-2.1-1-3.5-1l0,0c-1,0-1.8,0.2-2.3,0.5c-0.5,0.4-0.8,0.8-0.8,1.4l0,0c0,0.5,0.1,0.8,0.4,1.1c0.3,0.3,0.7,0.5,1.1,0.6
				s1,0.3,1.8,0.4l0,0c0.9,0.2,1.7,0.4,2.3,0.5c0.6,0.2,1.1,0.5,1.5,0.9c0.4,0.4,0.6,1,0.6,1.8l0,0c0,1-0.4,1.9-1.3,2.5
				C432.2,301.2,431,301.5,429.5,301.5L429.5,301.5z M444.4,299.5l0.6,1.2c-0.3,0.3-0.7,0.5-1.1,0.6c-0.4,0.1-0.9,0.2-1.4,0.2l0,0
				c-1.1,0-2-0.3-2.6-0.9c-0.6-0.6-0.9-1.5-0.9-2.6l0,0v-7.2h-2.1v-1.4h2.1v-2.6h1.6v2.6h3.6v1.4h-3.6v7.1c0,0.7,0.2,1.2,0.5,1.6
				c0.4,0.4,0.9,0.6,1.5,0.6l0,0c0.3,0,0.7-0.1,1-0.2C443.9,299.9,444.2,299.7,444.4,299.5L444.4,299.5z M453.7,301.5
				c-1.1,0-2.2-0.3-3.1-0.8c-0.9-0.5-1.6-1.2-2.2-2.2s-0.8-2-0.8-3.1l0,0c0-1.2,0.3-2.2,0.8-3.1s1.3-1.6,2.2-2.1
				c0.9-0.5,2-0.8,3.1-0.8l0,0c1.1,0,2.2,0.3,3.1,0.8c0.9,0.5,1.6,1.2,2.2,2.1s0.8,2,0.8,3.1l0,0c0,1.2-0.3,2.2-0.8,3.1
				s-1.2,1.6-2.2,2.2C455.9,301.2,454.8,301.5,453.7,301.5L453.7,301.5z M453.7,300.1c0.8,0,1.6-0.2,2.3-0.6
				c0.7-0.4,1.2-0.9,1.6-1.6c0.4-0.7,0.6-1.5,0.6-2.4l0,0c0-0.9-0.2-1.7-0.6-2.4c-0.4-0.7-0.9-1.3-1.6-1.6c-0.7-0.4-1.4-0.6-2.3-0.6
				l0,0c-0.8,0-1.6,0.2-2.3,0.6c-0.7,0.4-1.2,0.9-1.6,1.6c-0.4,0.7-0.6,1.5-0.6,2.4l0,0c0,0.9,0.2,1.7,0.6,2.4
				c0.4,0.7,0.9,1.3,1.6,1.6C452.1,299.9,452.8,300.1,453.7,300.1L453.7,300.1z M470.4,289.4c1.5,0,2.7,0.4,3.6,1.3
				c0.9,0.9,1.3,2.1,1.3,3.8l0,0v6.9h-1.6v-6.7c0-1.2-0.3-2.2-0.9-2.8c-0.6-0.6-1.5-1-2.6-1l0,0c-1.3,0-2.3,0.4-3,1.1
				c-0.7,0.8-1.1,1.8-1.1,3.2l0,0v6.2h-1.6v-11.9h1.5v2.2c0.4-0.7,1-1.3,1.8-1.7C468.5,289.6,469.4,289.4,470.4,289.4L470.4,289.4z
				 M481.2,299c0.3,0,0.6,0.1,0.9,0.4c0.2,0.2,0.3,0.5,0.3,0.9l0,0c0,0.2,0,0.4-0.1,0.6c-0.1,0.2-0.1,0.5-0.2,0.7l0,0l-0.9,3.1H480
				l0.8-3.3c-0.2-0.1-0.4-0.2-0.6-0.4c-0.2-0.2-0.2-0.4-0.2-0.7l0,0c0-0.3,0.1-0.6,0.3-0.9C480.6,299.2,480.9,299,481.2,299
				L481.2,299z M494.8,301.4v-15.8h1.7v15.8H494.8z M511.9,284.6h1.6v16.8h-1.5V299c-0.5,0.8-1.1,1.4-1.9,1.8
				c-0.8,0.4-1.7,0.6-2.7,0.6l0,0c-1.1,0-2.1-0.3-3-0.8c-0.9-0.5-1.6-1.2-2.1-2.1c-0.5-0.9-0.8-2-0.8-3.1l0,0c0-1.2,0.3-2.2,0.8-3.1
				c0.5-0.9,1.2-1.6,2.1-2.1c0.9-0.5,1.9-0.8,3-0.8l0,0c1,0,1.8,0.2,2.6,0.6c0.8,0.4,1.4,1,1.9,1.8l0,0V284.6z M507.5,300.1
				c0.8,0,1.6-0.2,2.2-0.6c0.7-0.4,1.2-0.9,1.6-1.6c0.4-0.7,0.6-1.5,0.6-2.4l0,0c0-0.9-0.2-1.7-0.6-2.4c-0.4-0.7-0.9-1.3-1.6-1.6
				c-0.7-0.4-1.4-0.6-2.2-0.6l0,0c-0.8,0-1.6,0.2-2.3,0.6c-0.7,0.4-1.2,0.9-1.6,1.6c-0.4,0.7-0.6,1.5-0.6,2.4l0,0
				c0,0.9,0.2,1.7,0.6,2.4c0.4,0.7,0.9,1.3,1.6,1.6C505.9,299.9,506.6,300.1,507.5,300.1L507.5,300.1z M523.5,289.4
				c1.6,0,2.7,0.4,3.6,1.2c0.8,0.8,1.2,1.9,1.2,3.4l0,0v7.4h-1.5v-1.9c-0.4,0.6-0.9,1.1-1.6,1.4c-0.7,0.3-1.5,0.5-2.5,0.5l0,0
				c-1.3,0-2.4-0.3-3.2-0.9s-1.2-1.5-1.2-2.5l0,0c0-1,0.4-1.8,1.1-2.4c0.7-0.6,1.9-0.9,3.5-0.9l0,0h3.8v-0.7c0-1-0.3-1.8-0.9-2.3
				c-0.6-0.5-1.4-0.8-2.5-0.8l0,0c-0.8,0-1.5,0.1-2.2,0.4s-1.3,0.6-1.8,1l0,0l-0.7-1.2c0.6-0.5,1.3-0.9,2.2-1.2
				C521.7,289.5,522.5,289.4,523.5,289.4L523.5,289.4z M522.9,300.2c0.9,0,1.7-0.2,2.3-0.6c0.6-0.4,1.1-1,1.4-1.8l0,0v-1.9H523
				c-2,0-3.1,0.7-3.1,2.1l0,0c0,0.7,0.3,1.2,0.8,1.6C521.2,300,522,300.2,522.9,300.2L522.9,300.2z M540.1,289.4
				c1.5,0,2.7,0.4,3.6,1.3c0.9,0.9,1.3,2.1,1.3,3.8l0,0v6.9h-1.6v-6.7c0-1.2-0.3-2.2-0.9-2.8s-1.5-1-2.6-1l0,0c-1.3,0-2.3,0.4-3,1.1
				c-0.7,0.8-1.1,1.8-1.1,3.2l0,0v6.2H534v-16.8h1.6v7c0.4-0.7,1-1.2,1.8-1.6C538.2,289.6,539.1,289.4,540.1,289.4L540.1,289.4z
				 M555.6,301.5c-1.1,0-2.2-0.3-3.1-0.8c-0.9-0.5-1.6-1.2-2.2-2.2c-0.5-0.9-0.8-2-0.8-3.1l0,0c0-1.2,0.3-2.2,0.8-3.1
				c0.5-0.9,1.3-1.6,2.2-2.1c0.9-0.5,2-0.8,3.1-0.8l0,0c1.1,0,2.2,0.3,3.1,0.8c0.9,0.5,1.6,1.2,2.2,2.1s0.8,2,0.8,3.1l0,0
				c0,1.2-0.3,2.2-0.8,3.1s-1.2,1.6-2.2,2.2C557.8,301.2,556.7,301.5,555.6,301.5L555.6,301.5z M555.6,300.1c0.8,0,1.6-0.2,2.3-0.6
				c0.7-0.4,1.2-0.9,1.6-1.6c0.4-0.7,0.6-1.5,0.6-2.4l0,0c0-0.9-0.2-1.7-0.6-2.4c-0.4-0.7-0.9-1.3-1.6-1.6c-0.7-0.4-1.4-0.6-2.3-0.6
				l0,0c-0.8,0-1.6,0.2-2.3,0.6c-0.7,0.4-1.2,0.9-1.6,1.6c-0.4,0.7-0.6,1.5-0.6,2.4l0,0c0,0.9,0.2,1.7,0.6,2.4
				c0.4,0.7,0.9,1.3,1.6,1.6C554,299.9,554.7,300.1,555.6,300.1L555.6,300.1z"/>
		</g>
	</g>
	<g transform="rotate(0 0 242.6076)">
		<g transform="matrix(1 0 0 1 0 0)">
			<path class="st2" d="M0,246.2v-1.3h12.4c0.5,0,0.9,0,1.4,0.1c0.5,0,0.9,0.1,1.3,0.2c0.4,0.1,0.8,0.3,1.2,0.4
				c0.4,0.2,0.7,0.4,0.9,0.7c0.3,0.3,0.5,0.7,0.6,1.1c0.2,0.4,0.2,0.9,0.2,1.5l0,0c0,0.5-0.1,1-0.2,1.4c-0.1,0.4-0.3,0.7-0.6,1
				c-0.3,0.3-0.6,0.5-1,0.7c-0.4,0.2-0.9,0.3-1.4,0.4l0,0c0.8,0.1,1.5,0.2,2,0.4c0.6,0.2,1,0.5,1.4,0.8c0.4,0.4,0.6,0.8,0.8,1.3
				c0.2,0.5,0.2,1,0.2,1.6l0,0c0,0.6-0.1,1.2-0.2,1.6c-0.2,0.5-0.4,0.9-0.7,1.2c-0.3,0.3-0.6,0.6-1.1,0.8c-0.4,0.2-0.9,0.4-1.4,0.5
				c-0.5,0.1-1,0.2-1.6,0.3c-0.6,0-1.1,0.1-1.7,0.1l0,0H0v-1.3h3.4v-13.5H0z M17.8,256.5L17.8,256.5c0-0.6-0.1-1.1-0.3-1.6
				c-0.2-0.4-0.5-0.8-1-1.1c-0.4-0.3-1-0.5-1.7-0.6c-0.7-0.1-1.5-0.2-2.4-0.2l0,0H4.8v6.6h7.7c1,0,1.8-0.1,2.5-0.2
				c0.7-0.1,1.2-0.3,1.6-0.6c0.4-0.3,0.7-0.6,0.9-1C17.7,257.5,17.8,257,17.8,256.5z M16.8,248.9L16.8,248.9c0-0.2,0-0.5,0-0.7
				c0-0.2-0.1-0.4-0.2-0.7c-0.1-0.2-0.3-0.4-0.5-0.6c-0.2-0.2-0.5-0.3-0.9-0.5c-0.4-0.1-0.8-0.2-1.3-0.3c-0.5-0.1-1.2-0.1-1.9-0.1
				l0,0H4.8v5.6H12c1.1,0,1.9-0.1,2.5-0.2c0.6-0.2,1.1-0.4,1.5-0.6c0.3-0.3,0.6-0.6,0.7-0.9C16.7,249.7,16.8,249.3,16.8,248.9z
				 M33,260.9v-1.3c-0.4,0.2-0.8,0.4-1.2,0.6c-0.4,0.2-0.9,0.4-1.4,0.5c-0.5,0.2-1,0.3-1.6,0.4c-0.6,0.1-1.2,0.2-1.8,0.2l0,0
				c-0.7,0-1.3-0.1-1.9-0.2c-0.6-0.1-1.1-0.4-1.5-0.6c-0.4-0.3-0.7-0.6-0.9-1c-0.2-0.4-0.3-0.9-0.3-1.4l0,0c0-0.8,0.3-1.5,0.8-2.1
				c0.5-0.5,1.3-1,2.2-1.3c1-0.3,2.1-0.5,3.4-0.7s2.7-0.3,4.2-0.3l0,0v-0.6c0-0.4-0.1-0.8-0.3-1.1c-0.2-0.3-0.5-0.5-0.9-0.7
				c-0.4-0.2-0.8-0.3-1.3-0.4c-0.5-0.1-1-0.1-1.6-0.1l0,0c-0.7,0-1.2,0-1.7,0.1c-0.5,0.1-0.9,0.2-1.2,0.4c-0.3,0.2-0.6,0.4-0.8,0.6
				c-0.2,0.2-0.3,0.5-0.4,0.8l0,0l-1.5-0.3c0.2-0.9,0.8-1.6,1.8-2c0.9-0.5,2.2-0.7,3.9-0.7l0,0c0.8,0,1.6,0.1,2.3,0.2
				c0.7,0.1,1.3,0.4,1.8,0.7c0.5,0.3,0.9,0.7,1.2,1.2c0.3,0.5,0.4,1.1,0.4,1.8l0,0v6.3h2.8v1.3H33z M33,258.2v-3.4
				c-1.7,0.1-3.2,0.2-4.3,0.3c-1.2,0.2-2.1,0.4-2.8,0.6c-0.7,0.3-1.2,0.6-1.6,0.9c-0.3,0.3-0.5,0.7-0.5,1.2l0,0
				c0,0.7,0.3,1.2,0.9,1.6c0.6,0.4,1.5,0.5,2.6,0.5l0,0c0.5,0,1-0.1,1.6-0.2c0.6-0.1,1.1-0.2,1.6-0.4c0.5-0.2,1-0.4,1.4-0.6
				C32.4,258.7,32.8,258.4,33,258.2L33,258.2z M40.1,260.9h-1.3v-4.1h1.3v0.7c0,0.4,0.1,0.8,0.4,1.1c0.3,0.3,0.7,0.6,1.1,0.8
				c0.5,0.2,1,0.3,1.5,0.4c0.6,0.1,1.1,0.1,1.6,0.1l0,0c0.6,0,1.2,0,1.7-0.1c0.5-0.1,1-0.2,1.4-0.3c0.4-0.2,0.7-0.4,0.9-0.6
				c0.2-0.3,0.3-0.6,0.3-0.9l0,0c0-0.4-0.1-0.7-0.3-0.9c-0.2-0.2-0.5-0.4-0.8-0.6c-0.3-0.2-0.7-0.3-1.1-0.4
				c-0.4-0.1-0.9-0.2-1.4-0.3c-0.5-0.1-1-0.2-1.5-0.2c-0.5-0.1-1-0.2-1.5-0.3c-0.5-0.1-1-0.2-1.4-0.4c-0.4-0.1-0.8-0.3-1.1-0.6
				c-0.3-0.2-0.6-0.5-0.8-0.8c-0.2-0.3-0.3-0.7-0.3-1.2l0,0c0-0.6,0.1-1.1,0.4-1.5c0.3-0.4,0.7-0.7,1.2-0.9c0.5-0.2,1-0.4,1.6-0.4
				c0.6-0.1,1.2-0.1,1.8-0.1l0,0c0.9,0,1.7,0.1,2.5,0.3c0.8,0.2,1.4,0.5,1.9,0.8l0,0v-0.7h1.3v3.8h-1.3v-0.9c0-0.2-0.1-0.5-0.2-0.7
				c-0.1-0.2-0.3-0.4-0.5-0.5c-0.2-0.2-0.5-0.3-0.8-0.4c-0.3-0.1-0.6-0.2-0.9-0.3c-0.3-0.1-0.6-0.1-0.9-0.1s-0.6,0-0.9,0l0,0
				c-1.2,0-2.2,0.1-2.8,0.4c-0.6,0.2-0.9,0.7-0.9,1.3l0,0c0,0.3,0.1,0.6,0.3,0.8c0.2,0.2,0.5,0.4,0.8,0.5c0.3,0.1,0.7,0.3,1.1,0.4
				c0.4,0.1,0.9,0.2,1.4,0.3c0.5,0.1,1,0.2,1.5,0.2c0.5,0.1,1,0.2,1.5,0.3c0.5,0.1,1,0.3,1.4,0.4c0.4,0.2,0.8,0.4,1.1,0.6
				c0.3,0.3,0.6,0.6,0.8,0.9c0.2,0.4,0.3,0.8,0.3,1.3l0,0c0,0.4-0.1,0.8-0.2,1.1c-0.2,0.3-0.4,0.6-0.7,0.8c-0.3,0.2-0.6,0.4-0.9,0.6
				c-0.4,0.2-0.7,0.3-1.1,0.4c-0.4,0.1-0.8,0.2-1.2,0.2c-0.4,0-0.8,0.1-1.1,0.1l0,0c-1.2,0-2.2-0.1-3.1-0.4c-0.9-0.2-1.6-0.6-2.1-1
				l0,0V260.9z M54,260.9h-1.3v-4.1H54v0.7c0,0.4,0.1,0.8,0.4,1.1c0.3,0.3,0.7,0.6,1.1,0.8c0.5,0.2,1,0.3,1.5,0.4
				c0.6,0.1,1.1,0.1,1.6,0.1l0,0c0.6,0,1.2,0,1.7-0.1c0.5-0.1,1-0.2,1.4-0.3c0.4-0.2,0.7-0.4,0.9-0.6c0.2-0.3,0.3-0.6,0.3-0.9l0,0
				c0-0.4-0.1-0.7-0.3-0.9c-0.2-0.2-0.5-0.4-0.8-0.6c-0.3-0.2-0.7-0.3-1.1-0.4c-0.4-0.1-0.9-0.2-1.4-0.3c-0.5-0.1-1-0.2-1.5-0.2
				c-0.5-0.1-1-0.2-1.5-0.3c-0.5-0.1-1-0.2-1.4-0.4s-0.8-0.3-1.1-0.6c-0.3-0.2-0.6-0.5-0.8-0.8c-0.2-0.3-0.3-0.7-0.3-1.2l0,0
				c0-0.6,0.1-1.1,0.4-1.5c0.3-0.4,0.7-0.7,1.2-0.9c0.5-0.2,1-0.4,1.6-0.4c0.6-0.1,1.2-0.1,1.8-0.1l0,0c0.9,0,1.7,0.1,2.5,0.3
				c0.7,0.2,1.4,0.5,1.9,0.8l0,0v-0.7h1.3v3.8h-1.3v-0.9c0-0.2-0.1-0.5-0.2-0.7c-0.1-0.2-0.3-0.4-0.5-0.5c-0.2-0.2-0.5-0.3-0.8-0.4
				c-0.3-0.1-0.6-0.2-0.9-0.3c-0.3-0.1-0.6-0.1-0.9-0.1c-0.3,0-0.6,0-0.9,0l0,0c-1.2,0-2.2,0.1-2.8,0.4c-0.6,0.2-0.9,0.7-0.9,1.3
				l0,0c0,0.3,0.1,0.6,0.3,0.8c0.2,0.2,0.5,0.4,0.8,0.5c0.3,0.1,0.7,0.3,1.1,0.4c0.4,0.1,0.9,0.2,1.4,0.3c0.5,0.1,1,0.2,1.5,0.2
				c0.5,0.1,1,0.2,1.5,0.3c0.5,0.1,0.9,0.3,1.4,0.4c0.4,0.2,0.8,0.4,1.1,0.6c0.3,0.3,0.6,0.6,0.8,0.9c0.2,0.4,0.3,0.8,0.3,1.3l0,0
				c0,0.4-0.1,0.8-0.2,1.1c-0.2,0.3-0.4,0.6-0.7,0.8c-0.3,0.2-0.6,0.4-0.9,0.6c-0.4,0.2-0.7,0.3-1.1,0.4c-0.4,0.1-0.8,0.2-1.2,0.2
				c-0.4,0-0.8,0.1-1.1,0.1l0,0c-1.2,0-2.2-0.1-3-0.4c-0.9-0.2-1.6-0.6-2.1-1l0,0V260.9z M75.4,246.2v-1.3h4.9l9.5,14.6l9.3-14.6
				h4.9v1.3h-3.4v13.5h3.4v1.3h-8.2v-1.3h3.4v-12.4l-8.8,13.7h-1.3l-8.9-13.8v12.4h3.4v1.3h-8.2v-1.3h3.4v-13.5H75.4z M116.8,260.9
				v-1.3c-0.4,0.2-0.8,0.4-1.2,0.6c-0.4,0.2-0.9,0.4-1.4,0.5c-0.5,0.2-1,0.3-1.6,0.4c-0.6,0.1-1.2,0.2-1.8,0.2l0,0
				c-0.7,0-1.3-0.1-1.9-0.2c-0.6-0.1-1.1-0.4-1.5-0.6c-0.4-0.3-0.7-0.6-0.9-1c-0.2-0.4-0.3-0.9-0.3-1.4l0,0c0-0.8,0.3-1.5,0.8-2.1
				c0.5-0.5,1.3-1,2.2-1.3c1-0.3,2.1-0.5,3.4-0.7s2.7-0.3,4.2-0.3l0,0v-0.6c0-0.4-0.1-0.8-0.3-1.1c-0.2-0.3-0.5-0.5-0.9-0.7
				c-0.4-0.2-0.8-0.3-1.3-0.4c-0.5-0.1-1-0.1-1.6-0.1l0,0c-0.7,0-1.2,0-1.7,0.1c-0.5,0.1-0.9,0.2-1.2,0.4c-0.3,0.2-0.6,0.4-0.8,0.6
				c-0.2,0.2-0.3,0.5-0.4,0.8l0,0l-1.5-0.3c0.3-0.9,0.8-1.6,1.8-2c0.9-0.5,2.2-0.7,3.9-0.7l0,0c0.8,0,1.6,0.1,2.3,0.2
				c0.7,0.1,1.3,0.4,1.8,0.7c0.5,0.3,0.9,0.7,1.2,1.2c0.3,0.5,0.4,1.1,0.4,1.8l0,0v6.3h2.8v1.3H116.8z M116.8,258.2v-3.4
				c-1.7,0.1-3.2,0.2-4.3,0.3c-1.2,0.2-2.1,0.4-2.8,0.6c-0.7,0.3-1.2,0.6-1.6,0.9c-0.3,0.3-0.5,0.7-0.5,1.2l0,0
				c0,0.7,0.3,1.2,0.9,1.6c0.6,0.4,1.5,0.5,2.6,0.5l0,0c0.5,0,1-0.1,1.6-0.2c0.6-0.1,1.1-0.2,1.6-0.4s1-0.4,1.4-0.6
				C116.2,258.7,116.6,258.4,116.8,258.2L116.8,258.2z M123.9,260.9h-1.3v-4.1h1.3v0.7c0,0.4,0.1,0.8,0.4,1.1s0.7,0.6,1.1,0.8
				c0.5,0.2,1,0.3,1.5,0.4c0.6,0.1,1.1,0.1,1.6,0.1l0,0c0.6,0,1.2,0,1.7-0.1c0.5-0.1,1-0.2,1.4-0.3c0.4-0.2,0.7-0.4,0.9-0.6
				c0.2-0.3,0.3-0.6,0.3-0.9l0,0c0-0.4-0.1-0.7-0.3-0.9c-0.2-0.2-0.4-0.4-0.8-0.6s-0.7-0.3-1.1-0.4c-0.4-0.1-0.9-0.2-1.4-0.3
				c-0.5-0.1-1-0.2-1.5-0.2c-0.5-0.1-1-0.2-1.5-0.3c-0.5-0.1-0.9-0.2-1.4-0.4c-0.4-0.1-0.8-0.3-1.1-0.6c-0.3-0.2-0.6-0.5-0.8-0.8
				c-0.2-0.3-0.3-0.7-0.3-1.2l0,0c0-0.6,0.1-1.1,0.4-1.5c0.3-0.4,0.7-0.7,1.2-0.9s1-0.4,1.6-0.4c0.6-0.1,1.2-0.1,1.8-0.1l0,0
				c0.9,0,1.7,0.1,2.5,0.3c0.7,0.2,1.4,0.5,1.9,0.8l0,0v-0.7h1.3v3.8h-1.3v-0.9c0-0.2-0.1-0.5-0.2-0.7c-0.1-0.2-0.3-0.4-0.5-0.5
				c-0.2-0.2-0.5-0.3-0.8-0.4c-0.3-0.1-0.6-0.2-0.9-0.3c-0.3-0.1-0.6-0.1-0.9-0.1c-0.3,0-0.6,0-0.9,0l0,0c-1.2,0-2.2,0.1-2.8,0.4
				c-0.6,0.2-0.9,0.7-0.9,1.3l0,0c0,0.3,0.1,0.6,0.3,0.8c0.2,0.2,0.5,0.4,0.8,0.5c0.3,0.1,0.7,0.3,1.1,0.4c0.4,0.1,0.9,0.2,1.4,0.3
				c0.5,0.1,1,0.2,1.5,0.2c0.5,0.1,1,0.2,1.5,0.3c0.5,0.1,0.9,0.3,1.4,0.4c0.4,0.2,0.8,0.4,1.1,0.6c0.3,0.3,0.6,0.6,0.8,0.9
				c0.2,0.4,0.3,0.8,0.3,1.3l0,0c0,0.4-0.1,0.8-0.2,1.1c-0.2,0.3-0.4,0.6-0.7,0.8c-0.3,0.2-0.6,0.4-0.9,0.6s-0.7,0.3-1.1,0.4
				c-0.4,0.1-0.8,0.2-1.2,0.2c-0.4,0-0.8,0.1-1.1,0.1l0,0c-1.2,0-2.2-0.1-3.1-0.4c-0.9-0.2-1.6-0.6-2.1-1l0,0V260.9z M135.4,251.1
				v-1.3h3v-3.9h1.5v3.9h7.8v1.3h-7.8v6.5c0,0.5,0.1,0.8,0.3,1.2c0.2,0.3,0.4,0.5,0.7,0.7c0.3,0.2,0.7,0.3,1.1,0.4
				c0.4,0.1,0.9,0.1,1.4,0.1l0,0c0.5,0,1,0,1.4-0.1c0.4-0.1,0.8-0.1,1.2-0.2c0.3-0.1,0.7-0.2,0.9-0.3c0.3-0.1,0.5-0.3,0.8-0.4l0,0
				l0.7,1.2c-0.3,0.2-0.6,0.3-1,0.5c-0.4,0.1-0.8,0.3-1.2,0.4c-0.4,0.1-0.9,0.2-1.3,0.3c-0.5,0.1-1,0.1-1.5,0.1l0,0
				c-0.8,0-1.4-0.1-2-0.2c-0.6-0.1-1.1-0.3-1.6-0.6c-0.4-0.3-0.8-0.6-1-1.1c-0.2-0.5-0.3-1-0.3-1.7l0,0v-6.6H135.4z M151.7,254.8
				H162c0-0.5-0.2-1-0.4-1.5c-0.2-0.5-0.5-0.9-0.9-1.3c-0.4-0.4-0.9-0.7-1.5-0.9c-0.6-0.2-1.4-0.3-2.2-0.3l0,0
				c-0.8,0-1.5,0.1-2.2,0.3c-0.6,0.2-1.2,0.5-1.6,0.9c-0.4,0.4-0.8,0.8-1,1.3C151.9,253.8,151.7,254.3,151.7,254.8L151.7,254.8z
				 M156.9,261.2L156.9,261.2c-1,0-2-0.1-2.8-0.4c-0.8-0.3-1.5-0.7-2.1-1.2c-0.6-0.5-1-1.1-1.4-1.8c-0.3-0.7-0.5-1.5-0.5-2.4l0,0
				c0-0.9,0.2-1.7,0.5-2.4c0.3-0.7,0.8-1.3,1.4-1.9c0.6-0.5,1.3-0.9,2.1-1.2c0.8-0.3,1.7-0.4,2.7-0.4l0,0c1,0,1.9,0.1,2.7,0.4
				c0.8,0.3,1.5,0.7,2.1,1.2c0.6,0.5,1,1.2,1.3,2c0.3,0.8,0.4,1.6,0.4,2.6l0,0v0.3h-11.8c0.1,0.6,0.2,1.1,0.5,1.6
				c0.3,0.5,0.6,0.9,1.1,1.2c0.4,0.3,1,0.6,1.6,0.8c0.6,0.2,1.3,0.3,2.1,0.3l0,0c0.8,0,1.4-0.1,2-0.2c0.6-0.1,1-0.3,1.4-0.5
				c0.4-0.2,0.7-0.5,1-0.7c0.2-0.3,0.4-0.5,0.6-0.8l0,0h1.5c-0.5,1.2-1.2,2.1-2.4,2.7C159.9,260.9,158.5,261.2,156.9,261.2z
				 M165.1,251.1v-1.3h4.1v2.3c0.3-0.4,0.7-0.7,1-1.1c0.4-0.3,0.8-0.6,1.2-0.8c0.4-0.2,0.9-0.4,1.4-0.6c0.5-0.1,1-0.2,1.6-0.2l0,0
				c0.3,0,0.5,0,0.8,0.1c0.2,0,0.5,0.1,0.6,0.1c0.2,0.1,0.3,0.1,0.5,0.2c0.1,0.1,0.2,0.1,0.3,0.1l0,0l-0.5,1.4
				c-0.2-0.1-0.4-0.2-0.8-0.3c-0.3-0.1-0.7-0.2-1.2-0.2l0,0c-0.6,0-1.1,0.1-1.6,0.3c-0.5,0.2-0.9,0.4-1.3,0.7
				c-0.4,0.3-0.8,0.6-1.1,0.9s-0.6,0.6-0.8,0.9l0,0v6h2.9v1.3h-7v-1.3h2.6v-8.5H165.1z M201.3,260.9v-1.3h2.5l-4.2-5.6
				c-0.2,0-0.4,0-0.7,0c-0.2,0-0.5,0-0.7,0l0,0h-6.5v5.6h3.3v1.3h-8.2v-1.3h3.4v-13.5h-3.4v-1.3h11.4c1.2,0,2.3,0.1,3.2,0.3
				s1.6,0.5,2.1,0.9c0.6,0.4,1,0.9,1.2,1.4c0.3,0.6,0.4,1.3,0.4,2l0,0c0,1.2-0.3,2.2-0.9,2.9c-0.6,0.7-1.7,1.2-3.1,1.5l0,0l4.5,5.8
				h3.4v1.3H201.3z M203.5,249.5L203.5,249.5c0-0.7-0.1-1.2-0.3-1.7c-0.2-0.4-0.6-0.8-1.2-1c-0.5-0.2-1.2-0.4-2.1-0.5
				c-0.9-0.1-2-0.1-3.2-0.1l0,0h-5v6.5h4.9c1.3,0,2.4,0,3.3-0.1c0.9-0.1,1.6-0.2,2.1-0.5c0.5-0.2,0.9-0.6,1.2-1
				C203.4,250.7,203.5,250.2,203.5,249.5z M224.4,255.4L224.4,255.4c0,1-0.2,1.9-0.5,2.6c-0.4,0.7-0.9,1.3-1.5,1.8
				c-0.6,0.5-1.4,0.8-2.3,1.1c-0.9,0.2-1.8,0.3-2.8,0.3l0,0c-1,0-2-0.1-2.8-0.3c-0.9-0.2-1.6-0.6-2.3-1.1c-0.6-0.5-1.2-1.1-1.5-1.8
				c-0.4-0.7-0.5-1.6-0.5-2.6l0,0c0-1,0.2-1.9,0.6-2.6c0.4-0.7,0.9-1.4,1.5-1.8c0.6-0.5,1.4-0.8,2.3-1.1c0.9-0.2,1.8-0.3,2.8-0.3
				l0,0c1,0,1.9,0.1,2.8,0.3c0.9,0.2,1.6,0.6,2.3,1.1c0.6,0.5,1.1,1.1,1.5,1.8C224.3,253.5,224.4,254.4,224.4,255.4z M223,255.4
				L223,255.4c0-1.5-0.5-2.7-1.4-3.5c-1-0.8-2.4-1.2-4.3-1.2l0,0c-1.9,0-3.3,0.4-4.3,1.2s-1.4,1.9-1.4,3.5l0,0
				c0,1.5,0.5,2.7,1.4,3.4c1,0.8,2.4,1.2,4.3,1.2l0,0c1.9,0,3.3-0.4,4.3-1.2C222.5,258,223,256.9,223,255.4z M228.2,260.9h-1.3v-4.1
				h1.3v0.7c0,0.4,0.1,0.8,0.4,1.1c0.3,0.3,0.7,0.6,1.1,0.8c0.5,0.2,1,0.3,1.5,0.4c0.6,0.1,1.1,0.1,1.6,0.1l0,0c0.6,0,1.2,0,1.7-0.1
				c0.5-0.1,1-0.2,1.4-0.3c0.4-0.2,0.7-0.4,0.9-0.6c0.2-0.3,0.3-0.6,0.3-0.9l0,0c0-0.4-0.1-0.7-0.3-0.9c-0.2-0.2-0.4-0.4-0.8-0.6
				c-0.3-0.2-0.7-0.3-1.1-0.4c-0.4-0.1-0.9-0.2-1.4-0.3c-0.5-0.1-1-0.2-1.5-0.2c-0.5-0.1-1-0.2-1.5-0.3c-0.5-0.1-1-0.2-1.4-0.4
				c-0.4-0.1-0.8-0.3-1.1-0.6c-0.3-0.2-0.6-0.5-0.8-0.8c-0.2-0.3-0.3-0.7-0.3-1.2l0,0c0-0.6,0.1-1.1,0.4-1.5
				c0.3-0.4,0.7-0.7,1.2-0.9c0.5-0.2,1-0.4,1.6-0.4c0.6-0.1,1.2-0.1,1.8-0.1l0,0c0.9,0,1.7,0.1,2.5,0.3c0.7,0.2,1.4,0.5,1.9,0.8l0,0
				v-0.7h1.3v3.8h-1.3v-0.9c0-0.2-0.1-0.5-0.2-0.7c-0.1-0.2-0.3-0.4-0.5-0.5c-0.2-0.2-0.5-0.3-0.8-0.4c-0.3-0.1-0.6-0.2-0.9-0.3
				c-0.3-0.1-0.6-0.1-0.9-0.1c-0.3,0-0.6,0-0.9,0l0,0c-1.2,0-2.2,0.1-2.8,0.4c-0.6,0.2-0.9,0.7-0.9,1.3l0,0c0,0.3,0.1,0.6,0.3,0.8
				c0.2,0.2,0.5,0.4,0.8,0.5c0.3,0.1,0.7,0.3,1.1,0.4c0.4,0.1,0.9,0.2,1.4,0.3c0.5,0.1,1,0.2,1.5,0.2c0.5,0.1,1,0.2,1.5,0.3
				c0.5,0.1,0.9,0.3,1.4,0.4c0.4,0.2,0.8,0.4,1.1,0.6c0.3,0.3,0.6,0.6,0.8,0.9c0.2,0.4,0.3,0.8,0.3,1.3l0,0c0,0.4-0.1,0.8-0.2,1.1
				c-0.2,0.3-0.4,0.6-0.7,0.8c-0.3,0.2-0.6,0.4-0.9,0.6c-0.4,0.2-0.7,0.3-1.1,0.4c-0.4,0.1-0.8,0.2-1.2,0.2s-0.8,0.1-1.1,0.1l0,0
				c-1.2,0-2.2-0.1-3.1-0.4c-0.9-0.2-1.6-0.6-2.1-1l0,0V260.9z M242.1,260.9h-1.3v-4.1h1.3v0.7c0,0.4,0.1,0.8,0.4,1.1
				c0.3,0.3,0.7,0.6,1.1,0.8c0.5,0.2,1,0.3,1.5,0.4c0.6,0.1,1.1,0.1,1.6,0.1l0,0c0.6,0,1.2,0,1.7-0.1c0.5-0.1,1-0.2,1.4-0.3
				c0.4-0.2,0.7-0.4,0.9-0.6c0.2-0.3,0.3-0.6,0.3-0.9l0,0c0-0.4-0.1-0.7-0.3-0.9c-0.2-0.2-0.4-0.4-0.8-0.6c-0.3-0.2-0.7-0.3-1.1-0.4
				c-0.4-0.1-0.9-0.2-1.4-0.3c-0.5-0.1-1-0.2-1.5-0.2c-0.5-0.1-1-0.2-1.5-0.3c-0.5-0.1-0.9-0.2-1.4-0.4c-0.4-0.1-0.8-0.3-1.1-0.6
				c-0.3-0.2-0.6-0.5-0.8-0.8c-0.2-0.3-0.3-0.7-0.3-1.2l0,0c0-0.6,0.1-1.1,0.4-1.5c0.3-0.4,0.7-0.7,1.2-0.9c0.5-0.2,1-0.4,1.6-0.4
				c0.6-0.1,1.2-0.1,1.8-0.1l0,0c0.9,0,1.7,0.1,2.5,0.3c0.8,0.2,1.4,0.5,1.9,0.8l0,0v-0.7h1.3v3.8h-1.3v-0.9c0-0.2-0.1-0.5-0.2-0.7
				c-0.1-0.2-0.3-0.4-0.5-0.5c-0.2-0.2-0.5-0.3-0.8-0.4c-0.3-0.1-0.6-0.2-0.9-0.3c-0.3-0.1-0.6-0.1-0.9-0.1c-0.3,0-0.6,0-0.9,0l0,0
				c-1.2,0-2.2,0.1-2.8,0.4c-0.6,0.2-0.9,0.7-0.9,1.3l0,0c0,0.3,0.1,0.6,0.3,0.8c0.2,0.2,0.4,0.4,0.8,0.5c0.3,0.1,0.7,0.3,1.1,0.4
				c0.4,0.1,0.9,0.2,1.4,0.3c0.5,0.1,1,0.2,1.5,0.2c0.5,0.1,1,0.2,1.5,0.3c0.5,0.1,1,0.3,1.4,0.4c0.4,0.2,0.8,0.4,1.1,0.6
				c0.3,0.3,0.6,0.6,0.8,0.9c0.2,0.4,0.3,0.8,0.3,1.3l0,0c0,0.4-0.1,0.8-0.2,1.1c-0.2,0.3-0.4,0.6-0.7,0.8c-0.3,0.2-0.6,0.4-0.9,0.6
				c-0.4,0.2-0.7,0.3-1.1,0.4c-0.4,0.1-0.8,0.2-1.2,0.2c-0.4,0-0.8,0.1-1.1,0.1l0,0c-1.2,0-2.2-0.1-3.1-0.4c-0.9-0.2-1.6-0.6-2.1-1
				l0,0V260.9z M265.3,260.9H264v-5.8h1.3v1.7c0,0.5,0.1,0.9,0.3,1.2c0.2,0.3,0.5,0.6,0.9,0.8c0.4,0.2,0.8,0.4,1.3,0.6
				c0.5,0.1,1,0.3,1.5,0.3c0.5,0.1,1.1,0.1,1.6,0.2c0.5,0,1,0,1.5,0l0,0c0.9,0,1.8-0.1,2.6-0.1c0.8-0.1,1.5-0.3,2.1-0.5
				c0.6-0.2,1.1-0.5,1.4-0.9c0.3-0.4,0.5-0.8,0.5-1.4l0,0c0-0.5-0.1-0.9-0.4-1.2c-0.3-0.3-0.7-0.6-1.1-0.9c-0.5-0.3-1-0.5-1.7-0.6
				c-0.6-0.2-1.3-0.3-2-0.5c-0.7-0.1-1.5-0.3-2.2-0.4c-0.8-0.1-1.5-0.3-2.2-0.5c-0.7-0.2-1.4-0.4-2-0.6c-0.6-0.2-1.2-0.5-1.7-0.8
				c-0.5-0.3-0.9-0.7-1.1-1.1c-0.3-0.4-0.4-1-0.4-1.6l0,0c0-0.5,0.1-1,0.3-1.4c0.2-0.4,0.5-0.8,0.9-1.1c0.4-0.3,0.8-0.6,1.3-0.8
				c0.5-0.2,1-0.4,1.6-0.5s1.1-0.2,1.7-0.3c0.6-0.1,1.2-0.1,1.8-0.1l0,0c0.8,0,1.6,0.1,2.3,0.1c0.7,0.1,1.3,0.2,1.9,0.4
				c0.6,0.2,1,0.3,1.5,0.5c0.4,0.2,0.7,0.4,0.9,0.6l0,0v-1.4h1.3v5.1h-1.3v-1c0-0.4-0.1-0.8-0.4-1.2c-0.3-0.4-0.7-0.7-1.2-0.9
				c-0.5-0.3-1.2-0.5-2-0.6c-0.8-0.2-1.7-0.2-2.8-0.2l0,0c-0.9,0-1.8,0.1-2.6,0.2c-0.8,0.1-1.4,0.3-1.9,0.5
				c-0.5,0.2-0.9,0.5-1.2,0.9c-0.3,0.3-0.4,0.8-0.4,1.2l0,0c0,0.4,0.1,0.8,0.4,1.1c0.3,0.3,0.7,0.6,1.1,0.8c0.5,0.2,1,0.4,1.7,0.6
				c0.6,0.2,1.3,0.3,2,0.5c0.7,0.1,1.5,0.3,2.2,0.4c0.8,0.1,1.5,0.3,2.2,0.5c0.7,0.2,1.4,0.4,2,0.6c0.6,0.2,1.2,0.5,1.7,0.9
				c0.5,0.3,0.9,0.7,1.1,1.2c0.3,0.4,0.4,1,0.4,1.6l0,0c0,0.6-0.1,1.1-0.4,1.6c-0.2,0.4-0.6,0.8-1,1.2c-0.4,0.3-0.9,0.6-1.4,0.8
				s-1.1,0.4-1.7,0.5c-0.6,0.1-1.2,0.2-1.9,0.3c-0.6,0.1-1.3,0.1-1.9,0.1l0,0c-0.9,0-1.6,0-2.4-0.1c-0.7-0.1-1.4-0.2-2-0.3
				c-0.6-0.2-1.2-0.3-1.6-0.5c-0.5-0.2-0.9-0.4-1.2-0.7l0,0V260.9z M282.1,251.1v-1.3h3v-3.9h1.5v3.9h7.9v1.3h-7.9v6.5
				c0,0.5,0.1,0.8,0.3,1.2c0.2,0.3,0.4,0.5,0.7,0.7c0.3,0.2,0.7,0.3,1.1,0.4c0.4,0.1,0.9,0.1,1.4,0.1l0,0c0.5,0,1,0,1.4-0.1
				c0.4-0.1,0.8-0.1,1.1-0.2c0.3-0.1,0.7-0.2,0.9-0.3c0.3-0.1,0.5-0.3,0.8-0.4l0,0l0.7,1.2c-0.3,0.2-0.6,0.3-1,0.5
				c-0.4,0.1-0.8,0.3-1.2,0.4c-0.4,0.1-0.9,0.2-1.4,0.3c-0.5,0.1-1,0.1-1.5,0.1l0,0c-0.7,0-1.4-0.1-2-0.2c-0.6-0.1-1.1-0.3-1.6-0.6
				c-0.4-0.3-0.8-0.6-1-1.1c-0.2-0.5-0.3-1-0.3-1.7l0,0v-6.6H282.1z M298.3,254.8h10.3c0-0.5-0.2-1-0.4-1.5
				c-0.2-0.5-0.5-0.9-0.9-1.3c-0.4-0.4-0.9-0.7-1.5-0.9c-0.6-0.2-1.4-0.3-2.2-0.3l0,0c-0.8,0-1.5,0.1-2.2,0.3
				c-0.6,0.2-1.2,0.5-1.6,0.9c-0.4,0.4-0.8,0.8-1,1.3C298.6,253.8,298.4,254.3,298.3,254.8L298.3,254.8z M303.6,261.2L303.6,261.2
				c-1,0-2-0.1-2.8-0.4c-0.8-0.3-1.5-0.7-2.1-1.2c-0.6-0.5-1-1.1-1.4-1.8c-0.3-0.7-0.5-1.5-0.5-2.4l0,0c0-0.9,0.2-1.7,0.5-2.4
				c0.3-0.7,0.8-1.3,1.4-1.9c0.6-0.5,1.3-0.9,2.1-1.2c0.8-0.3,1.7-0.4,2.7-0.4l0,0c1,0,1.9,0.1,2.8,0.4c0.8,0.3,1.5,0.7,2.1,1.2
				c0.6,0.5,1,1.2,1.3,2c0.3,0.8,0.5,1.6,0.5,2.6l0,0v0.3h-11.8c0.1,0.6,0.2,1.1,0.5,1.6c0.3,0.5,0.6,0.9,1,1.2
				c0.4,0.3,1,0.6,1.6,0.8c0.6,0.2,1.3,0.3,2.1,0.3l0,0c0.8,0,1.4-0.1,2-0.2c0.6-0.1,1-0.3,1.4-0.5s0.7-0.5,1-0.7
				c0.2-0.3,0.4-0.5,0.6-0.8l0,0h1.5c-0.5,1.2-1.2,2.1-2.3,2.7C306.6,260.9,305.2,261.2,303.6,261.2z M311,251.1v-1.3h5.8v1.3h-2
				l4.1,8.4l4.2-8.4h-2v-1.3h5.8v1.3h-2.2l-5,9.8h-1.5l-5-9.8H311z M329.4,254.8h10.3c0-0.5-0.2-1-0.4-1.5c-0.2-0.5-0.5-0.9-0.9-1.3
				c-0.4-0.4-0.9-0.7-1.5-0.9c-0.6-0.2-1.4-0.3-2.2-0.3l0,0c-0.8,0-1.5,0.1-2.2,0.3c-0.6,0.2-1.2,0.5-1.6,0.9
				c-0.4,0.4-0.8,0.8-1,1.3C329.6,253.8,329.4,254.3,329.4,254.8L329.4,254.8z M334.6,261.2L334.6,261.2c-1,0-2-0.1-2.8-0.4
				c-0.8-0.3-1.5-0.7-2.1-1.2c-0.6-0.5-1-1.1-1.4-1.8c-0.3-0.7-0.5-1.5-0.5-2.4l0,0c0-0.9,0.2-1.7,0.5-2.4c0.3-0.7,0.8-1.3,1.4-1.9
				c0.6-0.5,1.3-0.9,2.1-1.2c0.8-0.3,1.7-0.4,2.7-0.4l0,0c1,0,1.9,0.1,2.8,0.4s1.5,0.7,2.1,1.2c0.6,0.5,1,1.2,1.3,2
				c0.3,0.8,0.4,1.6,0.4,2.6l0,0v0.3h-11.8c0.1,0.6,0.2,1.1,0.5,1.6c0.3,0.5,0.6,0.9,1.1,1.2c0.4,0.3,1,0.6,1.6,0.8
				c0.6,0.2,1.3,0.3,2.1,0.3l0,0c0.8,0,1.4-0.1,2-0.2c0.6-0.1,1-0.3,1.4-0.5c0.4-0.2,0.7-0.5,1-0.7c0.2-0.3,0.4-0.5,0.6-0.8l0,0h1.5
				c-0.5,1.2-1.2,2.1-2.4,2.7C337.6,260.9,336.2,261.2,334.6,261.2z M342.8,251.1v-1.3h4.1v2.1c0.4-0.4,0.8-0.7,1.2-1
				c0.5-0.3,0.9-0.6,1.5-0.8c0.5-0.2,1.1-0.4,1.6-0.5c0.6-0.1,1.2-0.2,1.8-0.2l0,0c0.7,0,1.4,0.1,1.9,0.3c0.5,0.2,1,0.4,1.4,0.8
				c0.4,0.3,0.6,0.7,0.8,1.2c0.2,0.5,0.3,1,0.3,1.6l0,0v6.3h2.6v1.3h-6.8v-1.3h2.6v-5.9c0-0.6-0.1-1.1-0.2-1.5
				c-0.2-0.4-0.4-0.7-0.6-0.9c-0.3-0.2-0.6-0.4-1-0.5c-0.4-0.1-0.9-0.1-1.4-0.1l0,0c-0.6,0-1.2,0.1-1.7,0.2
				c-0.6,0.2-1.1,0.4-1.6,0.6c-0.5,0.2-1,0.5-1.4,0.8c-0.4,0.3-0.8,0.6-1.1,0.8l0,0v6.5h2.7v1.3h-6.8v-1.3h2.6v-8.5H342.8z
				 M384.8,260.9v-1.3h2.5l-4.2-5.6c-0.2,0-0.4,0-0.7,0c-0.2,0-0.5,0-0.7,0l0,0h-6.6v5.6h3.4v1.3h-8.2v-1.3h3.4v-13.5h-3.4v-1.3
				h11.4c1.2,0,2.3,0.1,3.2,0.3c0.9,0.2,1.6,0.5,2.1,0.9c0.6,0.4,1,0.9,1.2,1.4s0.4,1.3,0.4,2l0,0c0,1.2-0.3,2.2-0.9,2.9
				c-0.6,0.7-1.7,1.2-3.1,1.5l0,0l4.5,5.8h3.4v1.3H384.8z M387.1,249.5L387.1,249.5c0-0.7-0.1-1.2-0.3-1.7c-0.2-0.4-0.6-0.8-1.1-1
				c-0.5-0.2-1.2-0.4-2.1-0.5c-0.9-0.1-2-0.1-3.2-0.1l0,0h-5v6.5h4.9c1.3,0,2.4,0,3.3-0.1c0.9-0.1,1.6-0.2,2.1-0.5
				c0.5-0.2,0.9-0.6,1.2-1C387,250.7,387.1,250.2,387.1,249.5z M408,255.4L408,255.4c0,1-0.2,1.9-0.6,2.6c-0.4,0.7-0.9,1.3-1.5,1.8
				c-0.6,0.5-1.4,0.8-2.3,1.1c-0.9,0.2-1.8,0.3-2.8,0.3l0,0c-1,0-2-0.1-2.8-0.3c-0.9-0.2-1.6-0.6-2.3-1.1c-0.6-0.5-1.1-1.1-1.5-1.8
				c-0.4-0.7-0.6-1.6-0.6-2.6l0,0c0-1,0.2-1.9,0.6-2.6c0.4-0.7,0.9-1.4,1.5-1.8s1.4-0.8,2.3-1.1c0.9-0.2,1.8-0.3,2.8-0.3l0,0
				c1,0,1.9,0.1,2.8,0.3c0.9,0.2,1.6,0.6,2.3,1.1c0.6,0.5,1.1,1.1,1.5,1.8C407.8,253.5,408,254.4,408,255.4z M406.6,255.4
				L406.6,255.4c0-1.5-0.5-2.7-1.4-3.5c-1-0.8-2.4-1.2-4.3-1.2l0,0c-1.9,0-3.3,0.4-4.3,1.2s-1.4,1.9-1.4,3.5l0,0
				c0,1.5,0.5,2.7,1.4,3.4c1,0.8,2.4,1.2,4.3,1.2l0,0c1.9,0,3.3-0.4,4.3-1.2C406.1,258,406.6,256.9,406.6,255.4z M411.8,260.9h-1.3
				v-4.1h1.3v0.7c0,0.4,0.1,0.8,0.4,1.1c0.3,0.3,0.7,0.6,1.1,0.8c0.5,0.2,1,0.3,1.5,0.4c0.6,0.1,1.1,0.1,1.6,0.1l0,0
				c0.6,0,1.2,0,1.7-0.1c0.5-0.1,1-0.2,1.4-0.3c0.4-0.2,0.7-0.4,0.9-0.6c0.2-0.3,0.3-0.6,0.3-0.9l0,0c0-0.4-0.1-0.7-0.3-0.9
				c-0.2-0.2-0.5-0.4-0.8-0.6c-0.3-0.2-0.7-0.3-1.1-0.4c-0.4-0.1-0.9-0.2-1.4-0.3c-0.5-0.1-1-0.2-1.5-0.2c-0.5-0.1-1-0.2-1.5-0.3
				c-0.5-0.1-0.9-0.2-1.4-0.4c-0.4-0.1-0.8-0.3-1.1-0.6c-0.3-0.2-0.6-0.5-0.8-0.8c-0.2-0.3-0.3-0.7-0.3-1.2l0,0
				c0-0.6,0.1-1.1,0.4-1.5c0.3-0.4,0.7-0.7,1.2-0.9s1-0.4,1.6-0.4c0.6-0.1,1.2-0.1,1.8-0.1l0,0c0.9,0,1.7,0.1,2.5,0.3
				c0.8,0.2,1.4,0.5,1.9,0.8l0,0v-0.7h1.3v3.8h-1.3v-0.9c0-0.2-0.1-0.5-0.2-0.7c-0.1-0.2-0.3-0.4-0.5-0.5c-0.2-0.2-0.5-0.3-0.8-0.4
				c-0.3-0.1-0.6-0.2-0.9-0.3c-0.3-0.1-0.6-0.1-1-0.1s-0.6,0-0.9,0l0,0c-1.2,0-2.2,0.1-2.8,0.4c-0.6,0.2-0.9,0.7-0.9,1.3l0,0
				c0,0.3,0.1,0.6,0.3,0.8c0.2,0.2,0.4,0.4,0.8,0.5c0.3,0.1,0.7,0.3,1.1,0.4c0.4,0.1,0.9,0.2,1.4,0.3c0.5,0.1,1,0.2,1.5,0.2
				c0.5,0.1,1,0.2,1.5,0.3c0.5,0.1,1,0.3,1.4,0.4c0.4,0.2,0.8,0.4,1.1,0.6c0.3,0.3,0.6,0.6,0.8,0.9c0.2,0.4,0.3,0.8,0.3,1.3l0,0
				c0,0.4-0.1,0.8-0.2,1.1c-0.2,0.3-0.4,0.6-0.7,0.8c-0.3,0.2-0.6,0.4-0.9,0.6c-0.4,0.2-0.7,0.3-1.1,0.4c-0.4,0.1-0.8,0.2-1.2,0.2
				c-0.4,0-0.8,0.1-1.1,0.1l0,0c-1.2,0-2.2-0.1-3.1-0.4c-0.9-0.2-1.6-0.6-2.1-1l0,0V260.9z M425.6,260.9h-1.3v-4.1h1.3v0.7
				c0,0.4,0.1,0.8,0.4,1.1s0.7,0.6,1.1,0.8c0.5,0.2,1,0.3,1.5,0.4c0.6,0.1,1.1,0.1,1.6,0.1l0,0c0.6,0,1.2,0,1.7-0.1
				c0.5-0.1,1-0.2,1.4-0.3c0.4-0.2,0.7-0.4,0.9-0.6c0.2-0.3,0.3-0.6,0.3-0.9l0,0c0-0.4-0.1-0.7-0.3-0.9c-0.2-0.2-0.4-0.4-0.8-0.6
				s-0.7-0.3-1.1-0.4c-0.4-0.1-0.9-0.2-1.4-0.3c-0.5-0.1-1-0.2-1.5-0.2c-0.5-0.1-1-0.2-1.5-0.3c-0.5-0.1-1-0.2-1.4-0.4
				c-0.4-0.1-0.8-0.3-1.1-0.6c-0.3-0.2-0.6-0.5-0.8-0.8c-0.2-0.3-0.3-0.7-0.3-1.2l0,0c0-0.6,0.1-1.1,0.4-1.5
				c0.3-0.4,0.7-0.7,1.2-0.9s1-0.4,1.6-0.4c0.6-0.1,1.2-0.1,1.8-0.1l0,0c0.9,0,1.7,0.1,2.5,0.3c0.8,0.2,1.4,0.5,1.9,0.8l0,0v-0.7
				h1.3v3.8h-1.3v-0.9c0-0.2-0.1-0.5-0.2-0.7c-0.1-0.2-0.3-0.4-0.5-0.5c-0.2-0.2-0.5-0.3-0.8-0.4c-0.3-0.1-0.6-0.2-0.9-0.3
				c-0.3-0.1-0.6-0.1-0.9-0.1c-0.3,0-0.6,0-0.9,0l0,0c-1.2,0-2.2,0.1-2.8,0.4c-0.6,0.2-0.9,0.7-0.9,1.3l0,0c0,0.3,0.1,0.6,0.3,0.8
				c0.2,0.2,0.4,0.4,0.8,0.5c0.3,0.1,0.7,0.3,1.1,0.4c0.4,0.1,0.9,0.2,1.4,0.3c0.5,0.1,1,0.2,1.5,0.2c0.5,0.1,1,0.2,1.5,0.3
				c0.5,0.1,1,0.3,1.4,0.4c0.4,0.2,0.8,0.4,1.1,0.6c0.3,0.3,0.6,0.6,0.8,0.9c0.2,0.4,0.3,0.8,0.3,1.3l0,0c0,0.4-0.1,0.8-0.2,1.1
				c-0.2,0.3-0.4,0.6-0.7,0.8c-0.3,0.2-0.6,0.4-0.9,0.6c-0.4,0.2-0.7,0.3-1.1,0.4c-0.4,0.1-0.8,0.2-1.2,0.2c-0.4,0-0.8,0.1-1.1,0.1
				l0,0c-1.2,0-2.2-0.1-3.1-0.4c-0.9-0.2-1.6-0.6-2.1-1l0,0V260.9z M450,266.6h-1.4v-24h1.4V266.6z M463.1,260.9v-1.3h3.6v-13.5
				l-4.1,1.2V246l4.1-1.2h1.4v14.8h3.6v1.3H463.1z M488.9,245.9l-6.7,5c1,0.1,1.9,0.2,2.7,0.4c0.7,0.2,1.4,0.4,1.9,0.7
				c0.5,0.3,0.9,0.6,1.2,0.9c0.3,0.3,0.5,0.7,0.7,1c0.2,0.4,0.3,0.7,0.3,1c0.1,0.3,0.1,0.7,0.1,0.9l0,0c0,0.8-0.2,1.6-0.6,2.3
				c-0.4,0.7-0.9,1.2-1.7,1.7c-0.7,0.5-1.6,0.8-2.6,1c-1,0.2-2.1,0.4-3.3,0.4l0,0c-1,0-1.9-0.1-2.8-0.3c-0.9-0.2-1.7-0.5-2.4-1
				c-0.7-0.4-1.3-1-1.7-1.7c-0.4-0.7-0.6-1.6-0.6-2.6l0,0h1.5c0,0.7,0.1,1.4,0.4,1.9c0.3,0.5,0.7,1,1.2,1.3c0.5,0.4,1.2,0.6,1.9,0.8
				c0.8,0.2,1.6,0.3,2.6,0.3l0,0c1.1,0,2-0.1,2.9-0.3c0.8-0.2,1.5-0.5,2-0.9c0.5-0.4,0.9-0.8,1.2-1.3c0.3-0.5,0.4-1,0.4-1.5l0,0
				c0-0.6-0.1-1.1-0.3-1.6c-0.2-0.5-0.6-0.9-1.2-1.2c-0.6-0.3-1.3-0.6-2.3-0.8c-1-0.2-2.2-0.3-3.6-0.3l0,0v-1.3l6.2-4.6H476v3h-1.3
				v-4.3h14.2V245.9z M500.5,246.2v-1.3h12.4c0.5,0,0.9,0,1.4,0.1c0.5,0,0.9,0.1,1.3,0.2c0.4,0.1,0.8,0.3,1.2,0.4
				c0.4,0.2,0.7,0.4,0.9,0.7c0.3,0.3,0.5,0.7,0.6,1.1c0.2,0.4,0.2,0.9,0.2,1.5l0,0c0,0.5-0.1,1-0.2,1.4c-0.1,0.4-0.3,0.7-0.6,1
				c-0.3,0.3-0.6,0.5-1,0.7c-0.4,0.2-0.9,0.3-1.4,0.4l0,0c0.8,0.1,1.5,0.2,2,0.4c0.6,0.2,1,0.5,1.4,0.8c0.4,0.4,0.6,0.8,0.8,1.3
				c0.2,0.5,0.2,1,0.2,1.6l0,0c0,0.6-0.1,1.2-0.2,1.6s-0.4,0.9-0.7,1.2c-0.3,0.3-0.6,0.6-1.1,0.8c-0.4,0.2-0.9,0.4-1.4,0.5
				c-0.5,0.1-1,0.2-1.6,0.3c-0.6,0-1.1,0.1-1.7,0.1l0,0h-12.6v-1.3h3.4v-13.5H500.5z M518.3,256.5L518.3,256.5
				c0-0.6-0.1-1.1-0.3-1.6c-0.2-0.4-0.5-0.8-1-1.1c-0.4-0.3-1-0.5-1.7-0.6c-0.7-0.1-1.5-0.2-2.4-0.2l0,0h-7.5v6.6h7.7
				c1,0,1.8-0.1,2.5-0.2c0.7-0.1,1.2-0.3,1.6-0.6c0.4-0.3,0.7-0.6,0.9-1C518.2,257.5,518.3,257,518.3,256.5z M517.3,248.9
				L517.3,248.9c0-0.2,0-0.5,0-0.7c0-0.2-0.1-0.4-0.2-0.7c-0.1-0.2-0.3-0.4-0.5-0.6c-0.2-0.2-0.5-0.3-0.9-0.5
				c-0.4-0.1-0.8-0.2-1.3-0.3c-0.5-0.1-1.2-0.1-1.9-0.1l0,0h-7.1v5.6h7.1c1.1,0,1.9-0.1,2.5-0.2c0.6-0.2,1.1-0.4,1.5-0.6
				c0.3-0.3,0.6-0.6,0.7-0.9C517.2,249.7,517.3,249.3,517.3,248.9z M537.2,255.4L537.2,255.4c0,1-0.2,1.9-0.5,2.6
				c-0.4,0.7-0.9,1.3-1.5,1.8c-0.6,0.5-1.4,0.8-2.3,1.1c-0.9,0.2-1.8,0.3-2.8,0.3l0,0c-1,0-2-0.1-2.8-0.3c-0.9-0.2-1.6-0.6-2.3-1.1
				c-0.6-0.5-1.2-1.1-1.5-1.8c-0.4-0.7-0.5-1.6-0.5-2.6l0,0c0-1,0.2-1.9,0.6-2.6c0.4-0.7,0.9-1.4,1.5-1.8s1.4-0.8,2.3-1.1
				c0.9-0.2,1.8-0.3,2.8-0.3l0,0c1,0,1.9,0.1,2.8,0.3c0.9,0.2,1.6,0.6,2.3,1.1c0.6,0.5,1.1,1.1,1.5,1.8
				C537,253.5,537.2,254.4,537.2,255.4z M535.8,255.4L535.8,255.4c0-1.5-0.5-2.7-1.4-3.5c-1-0.8-2.4-1.2-4.3-1.2l0,0
				c-1.9,0-3.3,0.4-4.3,1.2c-1,0.8-1.4,1.9-1.4,3.5l0,0c0,1.5,0.5,2.7,1.4,3.4c1,0.8,2.4,1.2,4.3,1.2l0,0c1.9,0,3.3-0.4,4.3-1.2
				C535.3,258,535.8,256.9,535.8,255.4z M538.9,251.1v-1.3h4.1v2.1c0.4-0.4,0.8-0.7,1.2-1c0.5-0.3,0.9-0.6,1.5-0.8
				c0.5-0.2,1.1-0.4,1.7-0.5c0.6-0.1,1.2-0.2,1.8-0.2l0,0c0.7,0,1.4,0.1,1.9,0.3c0.5,0.2,1,0.4,1.4,0.8c0.4,0.3,0.6,0.7,0.8,1.2
				c0.2,0.5,0.3,1,0.3,1.6l0,0v6.3h2.7v1.3h-6.8v-1.3h2.6v-5.9c0-0.6-0.1-1.1-0.2-1.5c-0.2-0.4-0.4-0.7-0.6-0.9
				c-0.3-0.2-0.6-0.4-1-0.5c-0.4-0.1-0.9-0.1-1.4-0.1l0,0c-0.6,0-1.2,0.1-1.7,0.2c-0.6,0.2-1.1,0.4-1.6,0.6c-0.5,0.2-1,0.5-1.4,0.8
				c-0.4,0.3-0.8,0.6-1.1,0.8l0,0v6.5h2.7v1.3h-6.8v-1.3h2.6v-8.5H538.9z M559.2,254.8h10.3c0-0.5-0.2-1-0.4-1.5
				c-0.2-0.5-0.5-0.9-0.9-1.3c-0.4-0.4-0.9-0.7-1.5-0.9c-0.6-0.2-1.4-0.3-2.2-0.3l0,0c-0.8,0-1.5,0.1-2.2,0.3
				c-0.6,0.2-1.2,0.5-1.6,0.9c-0.4,0.4-0.8,0.8-1,1.3C559.4,253.8,559.2,254.3,559.2,254.8L559.2,254.8z M564.4,261.2L564.4,261.2
				c-1,0-2-0.1-2.8-0.4c-0.8-0.3-1.5-0.7-2.1-1.2c-0.6-0.5-1-1.1-1.4-1.8c-0.3-0.7-0.5-1.5-0.5-2.4l0,0c0-0.9,0.2-1.7,0.5-2.4
				c0.3-0.7,0.8-1.3,1.4-1.9c0.6-0.5,1.3-0.9,2.1-1.2s1.7-0.4,2.7-0.4l0,0c1,0,1.9,0.1,2.8,0.4c0.8,0.3,1.5,0.7,2.1,1.2
				c0.6,0.5,1,1.2,1.3,2c0.3,0.8,0.4,1.6,0.4,2.6l0,0v0.3h-11.8c0.1,0.6,0.2,1.1,0.5,1.6c0.3,0.5,0.6,0.9,1,1.2
				c0.4,0.3,1,0.6,1.6,0.8c0.6,0.2,1.3,0.3,2.1,0.3l0,0c0.8,0,1.4-0.1,2-0.2c0.6-0.1,1-0.3,1.4-0.5c0.4-0.2,0.7-0.5,1-0.7
				c0.2-0.3,0.4-0.5,0.6-0.8l0,0h1.5c-0.5,1.2-1.2,2.1-2.4,2.7C567.4,260.9,566,261.2,564.4,261.2z M573.7,253.8v-4h11.5v1.1
				l-9.6,8.6h8.5v-3h1.3v4.4h-12v-1.2l9.5-8.6H575v2.7H573.7z"/>
		</g>
	</g>
</g>
</svg>
