<?xml version="1.0" encoding="utf-8"?>
<!-- Generator: Adobe Illustrator 24.2.1, SVG Export Plug-In . SVG Version: 6.00 Build 0)  -->
<svg version="1.1" id="Layer_1" xmlns="http://www.w3.org/2000/svg" xmlns:xlink="http://www.w3.org/1999/xlink" x="0px" y="0px"
	 viewBox="0 0 563.1 98.7" style="enable-background:new 0 0 563.1 98.7;" xml:space="preserve">
<style type="text/css">
	.st0{fill:#E5E5E5;}
	.st1{fill:#E9E41D;}
</style>
<g>
	<g transform="rotate(0 56.5165 81.8664)">
		<g transform="matrix(1 0 0 1 0 0)">
			<path class="st0" d="M64.8,88.8c0.7,0.2,1.3,0.6,1.7,1.1c0.4,0.5,0.6,1.2,0.6,2l0,0c0,1.1-0.4,1.9-1.2,2.5
				c-0.8,0.6-2,0.9-3.5,0.9l0,0h-5.9V82.9H62c1.4,0,2.5,0.3,3.3,0.8c0.8,0.6,1.1,1.3,1.1,2.3l0,0c0,0.6-0.1,1.2-0.4,1.7
				S65.3,88.5,64.8,88.8L64.8,88.8z M61.9,84.3h-3.6v3.9h3.6c0.9,0,1.6-0.2,2.1-0.5c0.5-0.3,0.7-0.8,0.7-1.5l0,0
				c0-0.6-0.2-1.1-0.7-1.5S62.8,84.3,61.9,84.3L61.9,84.3z M62.3,93.7c1,0,1.7-0.2,2.2-0.5c0.5-0.3,0.8-0.8,0.8-1.5l0,0
				c0-1.4-1-2.1-3-2.1l0,0h-4v4.1H62.3z M74.7,85.8c1.3,0,2.3,0.3,3,0.9s1,1.6,1,2.8l0,0v5.6h-1.6v-1.2c-0.3,0.4-0.7,0.8-1.2,1
				c-0.5,0.2-1.1,0.3-1.9,0.3l0,0c-1,0-1.9-0.3-2.5-0.8c-0.6-0.5-0.9-1.2-0.9-2l0,0c0-0.8,0.3-1.5,0.9-2c0.6-0.5,1.5-0.7,2.8-0.7
				l0,0H77v-0.3c0-0.7-0.2-1.3-0.6-1.7c-0.4-0.4-1-0.6-1.9-0.6l0,0c-0.6,0-1.1,0.1-1.6,0.3c-0.5,0.2-1,0.4-1.3,0.7l0,0L70.9,87
				c0.5-0.4,1.1-0.7,1.7-0.9C73.2,85.9,74,85.8,74.7,85.8L74.7,85.8z M74.3,94c0.6,0,1.2-0.1,1.7-0.4c0.5-0.3,0.8-0.7,1-1.2l0,0V91
				h-2.6c-1.4,0-2.1,0.5-2.1,1.4l0,0c0,0.5,0.2,0.8,0.5,1.1C73.2,93.8,73.7,94,74.3,94L74.3,94z M88.5,85.8c1.2,0,2.1,0.3,2.8,1
				c0.7,0.7,1,1.7,1,3l0,0v5.4h-1.7V90c0-0.9-0.2-1.6-0.6-2c-0.4-0.5-1.1-0.7-1.9-0.7l0,0c-0.9,0-1.6,0.3-2.2,0.8
				c-0.5,0.5-0.8,1.3-0.8,2.3l0,0v4.8h-1.7v-9.3h1.6v1.4c0.3-0.5,0.8-0.8,1.4-1.1C87.1,85.9,87.8,85.8,88.5,85.8L88.5,85.8z
				 M104.4,82.1h1.7v13h-1.6v-1.5c-0.4,0.5-0.8,0.9-1.4,1.2c-0.6,0.3-1.2,0.4-1.9,0.4l0,0c-0.9,0-1.7-0.2-2.4-0.6
				c-0.7-0.4-1.3-1-1.7-1.7s-0.6-1.5-0.6-2.5l0,0c0-0.9,0.2-1.8,0.6-2.5s1-1.3,1.7-1.7s1.5-0.6,2.4-0.6l0,0c0.7,0,1.3,0.1,1.8,0.4
				c0.6,0.3,1,0.6,1.4,1.1l0,0V82.1z M101.3,93.8c0.6,0,1.1-0.1,1.6-0.4c0.5-0.3,0.9-0.7,1.1-1.2c0.3-0.5,0.4-1.1,0.4-1.7l0,0
				c0-0.6-0.1-1.2-0.4-1.7c-0.3-0.5-0.6-0.9-1.1-1.1c-0.5-0.3-1-0.4-1.6-0.4l0,0c-0.6,0-1.1,0.1-1.6,0.4s-0.8,0.7-1.1,1.1
				c-0.3,0.5-0.4,1.1-0.4,1.7l0,0c0,0.6,0.1,1.2,0.4,1.7c0.3,0.5,0.6,0.9,1.1,1.2C100.2,93.6,100.7,93.8,101.3,93.8L101.3,93.8z
				 M130.9,95.2h-1.7l0-9l-4.4,7.5h-0.8l-4.4-7.4v8.9h-1.7V82.9h1.4l5.1,8.6l5.1-8.6h1.4L130.9,95.2z M139.4,85.8
				c1.3,0,2.3,0.3,3,0.9c0.7,0.6,1,1.6,1,2.8l0,0v5.6h-1.6v-1.2c-0.3,0.4-0.7,0.8-1.2,1c-0.5,0.2-1.1,0.3-1.9,0.3l0,0
				c-1,0-1.9-0.3-2.5-0.8c-0.6-0.5-0.9-1.2-0.9-2l0,0c0-0.8,0.3-1.5,0.9-2c0.6-0.5,1.5-0.7,2.8-0.7l0,0h2.7v-0.3
				c0-0.7-0.2-1.3-0.6-1.7c-0.4-0.4-1-0.6-1.9-0.6l0,0c-0.6,0-1.1,0.1-1.6,0.3c-0.5,0.2-1,0.4-1.3,0.7l0,0l-0.7-1.3
				c0.5-0.4,1.1-0.7,1.7-0.9C138,85.9,138.7,85.8,139.4,85.8L139.4,85.8z M139.1,94c0.6,0,1.2-0.1,1.7-0.4c0.5-0.3,0.8-0.7,1-1.2
				l0,0V91h-2.6c-1.4,0-2.1,0.5-2.1,1.4l0,0c0,0.5,0.2,0.8,0.5,1.1C137.9,93.8,138.4,94,139.1,94L139.1,94z M153.3,85.8
				c1.2,0,2.1,0.3,2.8,1s1,1.7,1,3l0,0v5.4h-1.7V90c0-0.9-0.2-1.6-0.6-2c-0.4-0.5-1.1-0.7-1.9-0.7l0,0c-0.9,0-1.6,0.3-2.2,0.8
				c-0.5,0.5-0.8,1.3-0.8,2.3l0,0v4.8h-1.7v-9.3h1.6v1.4c0.3-0.5,0.8-0.8,1.4-1.1C151.9,85.9,152.5,85.8,153.3,85.8L153.3,85.8z
				 M165.4,85.8c1.3,0,2.3,0.3,3,0.9c0.7,0.6,1,1.6,1,2.8l0,0v5.6h-1.6v-1.2c-0.3,0.4-0.7,0.8-1.2,1c-0.5,0.2-1.1,0.3-1.9,0.3l0,0
				c-1,0-1.9-0.3-2.5-0.8c-0.6-0.5-0.9-1.2-0.9-2l0,0c0-0.8,0.3-1.5,0.9-2c0.6-0.5,1.5-0.7,2.8-0.7l0,0h2.7v-0.3
				c0-0.7-0.2-1.3-0.6-1.7c-0.4-0.4-1-0.6-1.9-0.6l0,0c-0.6,0-1.1,0.1-1.6,0.3c-0.5,0.2-1,0.4-1.3,0.7l0,0l-0.7-1.3
				c0.5-0.4,1.1-0.7,1.7-0.9C164,85.9,164.7,85.8,165.4,85.8L165.4,85.8z M165,94c0.6,0,1.2-0.1,1.7-0.4c0.5-0.3,0.8-0.7,1-1.2l0,0
				V91h-2.6c-1.4,0-2.1,0.5-2.1,1.4l0,0c0,0.5,0.2,0.8,0.5,1.1C163.9,93.8,164.4,94,165,94L165,94z M181.6,85.9h1.6v8
				c0,1.6-0.4,2.8-1.2,3.6c-0.8,0.8-2,1.2-3.6,1.2l0,0c-0.9,0-1.7-0.1-2.5-0.4c-0.8-0.2-1.4-0.6-1.9-1l0,0l0.8-1.3
				c0.4,0.4,1,0.7,1.6,0.9c0.6,0.2,1.3,0.3,2,0.3l0,0c1.1,0,1.9-0.3,2.4-0.8c0.5-0.5,0.8-1.3,0.8-2.4l0,0v-0.7
				c-0.4,0.5-0.9,0.8-1.5,1.1c-0.6,0.2-1.2,0.4-1.9,0.4l0,0c-0.9,0-1.7-0.2-2.4-0.6c-0.7-0.4-1.3-0.9-1.7-1.6s-0.6-1.5-0.6-2.3l0,0
				c0-0.9,0.2-1.7,0.6-2.3s1-1.2,1.7-1.6c0.7-0.4,1.5-0.6,2.4-0.6l0,0c0.7,0,1.4,0.1,2,0.4c0.6,0.3,1.1,0.6,1.5,1.1l0,0V85.9z
				 M178.4,93.3c0.6,0,1.2-0.1,1.6-0.4c0.5-0.3,0.9-0.6,1.1-1.1s0.4-1,0.4-1.6l0,0c0-0.9-0.3-1.6-0.9-2.2c-0.6-0.6-1.4-0.8-2.3-0.8
				l0,0c-0.9,0-1.7,0.3-2.3,0.8c-0.6,0.6-0.9,1.3-0.9,2.2l0,0c0,0.6,0.1,1.1,0.4,1.6c0.3,0.5,0.7,0.8,1.1,1.1
				C177.2,93.2,177.8,93.3,178.4,93.3L178.4,93.3z M196.6,90.6c0,0.1,0,0.3,0,0.5l0,0H189c0.1,0.8,0.5,1.5,1.1,2
				c0.6,0.5,1.4,0.7,2.3,0.7l0,0c1.1,0,2-0.4,2.7-1.1l0,0l0.9,1.1c-0.4,0.5-0.9,0.9-1.6,1.1c-0.6,0.3-1.3,0.4-2.1,0.4l0,0
				c-1,0-1.9-0.2-2.6-0.6c-0.8-0.4-1.3-1-1.8-1.7c-0.4-0.7-0.6-1.5-0.6-2.5l0,0c0-0.9,0.2-1.7,0.6-2.4s1-1.3,1.7-1.7
				c0.7-0.4,1.5-0.6,2.4-0.6l0,0c0.9,0,1.7,0.2,2.4,0.6s1.2,1,1.6,1.7C196.4,88.8,196.6,89.6,196.6,90.6L196.6,90.6z M192,87.2
				c-0.8,0-1.5,0.2-2,0.7c-0.5,0.5-0.9,1.1-1,1.9l0,0h6c-0.1-0.8-0.4-1.4-1-1.9C193.5,87.4,192.8,87.2,192,87.2L192,87.2z
				 M202.3,87.4c0.3-0.5,0.7-0.9,1.3-1.2c0.6-0.3,1.3-0.4,2.1-0.4l0,0v1.6c-0.1,0-0.2,0-0.4,0l0,0c-0.9,0-1.6,0.3-2.2,0.8
				c-0.5,0.5-0.8,1.3-0.8,2.3l0,0v4.6h-1.7v-9.3h1.6V87.4z M225,84.4h-6.9v4.3h6.2v1.5h-6.2v5h-1.8V82.9h8.7V84.4z M230.5,87.4
				c0.3-0.5,0.7-0.9,1.3-1.2c0.6-0.3,1.3-0.4,2.1-0.4l0,0v1.6c-0.1,0-0.2,0-0.4,0l0,0c-0.9,0-1.6,0.3-2.2,0.8
				c-0.5,0.5-0.8,1.3-0.8,2.3l0,0v4.6h-1.7v-9.3h1.6V87.4z M241.6,95.3c-0.9,0-1.8-0.2-2.5-0.6c-0.7-0.4-1.3-1-1.7-1.7
				c-0.4-0.7-0.6-1.5-0.6-2.4l0,0c0-0.9,0.2-1.7,0.6-2.4c0.4-0.7,1-1.3,1.7-1.7s1.6-0.6,2.5-0.6l0,0c0.9,0,1.8,0.2,2.5,0.6
				c0.7,0.4,1.3,1,1.7,1.7c0.4,0.7,0.6,1.5,0.6,2.4l0,0c0,0.9-0.2,1.7-0.6,2.4c-0.4,0.7-1,1.3-1.7,1.7
				C243.3,95.1,242.5,95.3,241.6,95.3L241.6,95.3z M241.6,93.8c0.6,0,1.1-0.1,1.6-0.4c0.5-0.3,0.8-0.7,1.1-1.2
				c0.3-0.5,0.4-1.1,0.4-1.7l0,0c0-0.6-0.1-1.2-0.4-1.7c-0.3-0.5-0.6-0.9-1.1-1.1s-1-0.4-1.6-0.4l0,0c-0.6,0-1.1,0.1-1.6,0.4
				s-0.8,0.7-1.1,1.1c-0.3,0.5-0.4,1.1-0.4,1.7l0,0c0,0.6,0.1,1.2,0.4,1.7c0.3,0.5,0.6,0.9,1.1,1.2C240.4,93.6,241,93.8,241.6,93.8
				L241.6,93.8z M255.5,85.8c1.2,0,2.1,0.3,2.8,1c0.7,0.7,1,1.7,1,3l0,0v5.4h-1.7V90c0-0.9-0.2-1.6-0.6-2c-0.4-0.5-1.1-0.7-1.9-0.7
				l0,0c-0.9,0-1.6,0.3-2.2,0.8c-0.5,0.5-0.8,1.3-0.8,2.3l0,0v4.8h-1.7v-9.3h1.6v1.4c0.3-0.5,0.8-0.8,1.4-1.1
				C254.1,85.9,254.7,85.8,255.5,85.8L255.5,85.8z M268.9,93.4l0.5,1.2c-0.2,0.2-0.6,0.4-0.9,0.5c-0.4,0.1-0.7,0.2-1.1,0.2l0,0
				c-0.9,0-1.7-0.3-2.2-0.8c-0.5-0.5-0.8-1.2-0.8-2.2l0,0v-5.1h-1.6v-1.4h1.6v-2h1.7v2h2.7v1.4h-2.7v5c0,0.5,0.1,0.9,0.4,1.2
				s0.6,0.4,1.1,0.4l0,0C268.1,93.8,268.6,93.7,268.9,93.4L268.9,93.4z M293,95.2h-1.7l0-9l-4.4,7.5h-0.8l-4.4-7.4v8.9H280V82.9h1.4
				l5.1,8.6l5.1-8.6h1.4L293,95.2z M301.6,85.8c1.3,0,2.3,0.3,3,0.9s1,1.6,1,2.8l0,0v5.6H304v-1.2c-0.3,0.4-0.7,0.8-1.2,1
				c-0.5,0.2-1.1,0.3-1.9,0.3l0,0c-1,0-1.9-0.3-2.5-0.8c-0.6-0.5-0.9-1.2-0.9-2l0,0c0-0.8,0.3-1.5,0.9-2c0.6-0.5,1.5-0.7,2.8-0.7
				l0,0h2.7v-0.3c0-0.7-0.2-1.3-0.6-1.7s-1-0.6-1.9-0.6l0,0c-0.6,0-1.1,0.1-1.6,0.3c-0.5,0.2-1,0.4-1.3,0.7l0,0l-0.7-1.3
				c0.5-0.4,1.1-0.7,1.7-0.9C300.2,85.9,300.9,85.8,301.6,85.8L301.6,85.8z M301.2,94c0.6,0,1.2-0.1,1.7-0.4c0.5-0.3,0.8-0.7,1-1.2
				l0,0V91h-2.6c-1.4,0-2.1,0.5-2.1,1.4l0,0c0,0.5,0.2,0.8,0.5,1.1C300.1,93.8,300.6,94,301.2,94L301.2,94z M315.5,85.8
				c1.2,0,2.1,0.3,2.8,1s1,1.7,1,3l0,0v5.4h-1.7V90c0-0.9-0.2-1.6-0.6-2c-0.4-0.5-1.1-0.7-1.9-0.7l0,0c-0.9,0-1.6,0.3-2.2,0.8
				c-0.5,0.5-0.8,1.3-0.8,2.3l0,0v4.8h-1.7v-9.3h1.6v1.4c0.3-0.5,0.8-0.8,1.4-1.1C314.1,85.9,314.7,85.8,315.5,85.8L315.5,85.8z
				 M330.9,98.6V82.1h1.6v16.4H330.9z M344.4,95.2V82.9h1.8v10.8h6.7v1.5H344.4z M364.6,90.6c0,0.1,0,0.3,0,0.5l0,0H357
				c0.1,0.8,0.5,1.5,1.1,2c0.6,0.5,1.4,0.7,2.3,0.7l0,0c1.1,0,2-0.4,2.7-1.1l0,0l0.9,1.1c-0.4,0.5-0.9,0.9-1.6,1.1
				c-0.6,0.3-1.3,0.4-2.1,0.4l0,0c-1,0-1.9-0.2-2.6-0.6c-0.8-0.4-1.3-1-1.8-1.7s-0.6-1.5-0.6-2.5l0,0c0-0.9,0.2-1.7,0.6-2.4
				s1-1.3,1.7-1.7c0.7-0.4,1.5-0.6,2.4-0.6l0,0c0.9,0,1.7,0.2,2.4,0.6c0.7,0.4,1.2,1,1.6,1.7C364.4,88.8,364.6,89.6,364.6,90.6
				L364.6,90.6z M360,87.2c-0.8,0-1.5,0.2-2,0.7c-0.5,0.5-0.9,1.1-1,1.9l0,0h6c-0.1-0.8-0.4-1.4-1-1.9
				C361.5,87.4,360.8,87.2,360,87.2L360,87.2z M381.1,85.9h1.5l-3.5,9.3h-1.6l-2.7-7.1l-2.7,7.1h-1.6l-3.5-9.3h1.6l2.7,7.4l2.8-7.4
				h1.4l2.8,7.4L381.1,85.9z M386.1,95.2v-9.3h1.7v9.3H386.1z M386.9,84.1c-0.3,0-0.6-0.1-0.8-0.3c-0.2-0.2-0.3-0.5-0.3-0.8l0,0
				c0-0.3,0.1-0.6,0.3-0.8c0.2-0.2,0.5-0.3,0.8-0.3l0,0c0.3,0,0.6,0.1,0.8,0.3c0.2,0.2,0.3,0.5,0.3,0.8l0,0c0,0.3-0.1,0.6-0.3,0.8
				C387.5,84,387.2,84.1,386.9,84.1L386.9,84.1z M395.4,95.3c-0.8,0-1.5-0.1-2.2-0.3s-1.3-0.5-1.7-0.8l0,0l0.7-1.3
				c0.4,0.3,0.9,0.5,1.5,0.7c0.6,0.2,1.2,0.3,1.8,0.3l0,0c1.5,0,2.2-0.4,2.2-1.3l0,0c0-0.3-0.1-0.5-0.3-0.7
				c-0.2-0.2-0.4-0.3-0.7-0.4c-0.3-0.1-0.7-0.2-1.3-0.3l0,0c-0.7-0.1-1.4-0.3-1.8-0.4c-0.5-0.2-0.9-0.4-1.2-0.8s-0.5-0.9-0.5-1.5
				l0,0c0-0.8,0.4-1.5,1.1-2c0.7-0.5,1.6-0.8,2.8-0.8l0,0c0.6,0,1.2,0.1,1.9,0.2c0.6,0.2,1.1,0.4,1.5,0.6l0,0l-0.7,1.3
				c-0.8-0.5-1.7-0.7-2.7-0.7l0,0c-0.7,0-1.3,0.1-1.6,0.4c-0.4,0.2-0.6,0.5-0.6,0.9l0,0c0,0.3,0.1,0.5,0.3,0.7
				c0.2,0.2,0.5,0.3,0.8,0.4c0.3,0.1,0.7,0.2,1.3,0.3l0,0c0.7,0.1,1.4,0.3,1.8,0.4c0.5,0.1,0.9,0.4,1.2,0.7c0.3,0.4,0.5,0.8,0.5,1.5
				l0,0c0,0.8-0.4,1.5-1.1,2C397.6,95,396.6,95.3,395.4,95.3L395.4,95.3z M408,93.4l0.5,1.2c-0.2,0.2-0.6,0.4-0.9,0.5
				c-0.4,0.1-0.7,0.2-1.1,0.2l0,0c-0.9,0-1.7-0.3-2.2-0.8c-0.5-0.5-0.8-1.2-0.8-2.2l0,0v-5.1h-1.6v-1.4h1.6v-2h1.7v2h2.7v1.4h-2.7v5
				c0,0.5,0.1,0.9,0.4,1.2s0.6,0.4,1.1,0.4l0,0C407.2,93.8,407.6,93.7,408,93.4L408,93.4z M416,95.3c-0.9,0-1.8-0.2-2.5-0.6
				c-0.7-0.4-1.3-1-1.7-1.7s-0.6-1.5-0.6-2.4l0,0c0-0.9,0.2-1.7,0.6-2.4c0.4-0.7,1-1.3,1.7-1.7c0.7-0.4,1.6-0.6,2.5-0.6l0,0
				c0.9,0,1.8,0.2,2.5,0.6c0.7,0.4,1.3,1,1.7,1.7c0.4,0.7,0.6,1.5,0.6,2.4l0,0c0,0.9-0.2,1.7-0.6,2.4c-0.4,0.7-1,1.3-1.7,1.7
				C417.7,95.1,416.9,95.3,416,95.3L416,95.3z M416,93.8c0.6,0,1.1-0.1,1.6-0.4c0.5-0.3,0.8-0.7,1.1-1.2c0.3-0.5,0.4-1.1,0.4-1.7
				l0,0c0-0.6-0.1-1.2-0.4-1.7c-0.3-0.5-0.6-0.9-1.1-1.1s-1-0.4-1.6-0.4l0,0c-0.6,0-1.1,0.1-1.6,0.4c-0.5,0.3-0.8,0.7-1.1,1.1
				c-0.3,0.5-0.4,1.1-0.4,1.7l0,0c0,0.6,0.1,1.2,0.4,1.7c0.3,0.5,0.6,0.9,1.1,1.2C414.8,93.6,415.4,93.8,416,93.8L416,93.8z
				 M429.9,85.8c1.2,0,2.1,0.3,2.8,1s1,1.7,1,3l0,0v5.4H432V90c0-0.9-0.2-1.6-0.6-2c-0.4-0.5-1.1-0.7-1.9-0.7l0,0
				c-0.9,0-1.6,0.3-2.2,0.8c-0.5,0.5-0.8,1.3-0.8,2.3l0,0v4.8h-1.7v-9.3h1.6v1.4c0.3-0.5,0.8-0.8,1.4-1.1
				C428.5,85.9,429.1,85.8,429.9,85.8L429.9,85.8z M439,92.9c0.3,0,0.6,0.1,0.8,0.3s0.3,0.5,0.3,0.9l0,0c0,0.2,0,0.3-0.1,0.5
				c0,0.2-0.1,0.4-0.2,0.8l0,0l-0.8,2.4h-1.1l0.6-2.6c-0.2-0.1-0.4-0.2-0.5-0.4c-0.1-0.2-0.2-0.4-0.2-0.7l0,0c0-0.4,0.1-0.6,0.3-0.9
				C438.4,93,438.7,92.9,439,92.9L439,92.9z M451.1,95.2V82.9h1.8v12.3H451.1z M465.1,82.1h1.7v13h-1.6v-1.5
				c-0.4,0.5-0.8,0.9-1.4,1.2c-0.6,0.3-1.2,0.4-1.9,0.4l0,0c-0.9,0-1.7-0.2-2.4-0.6c-0.7-0.4-1.3-1-1.7-1.7
				c-0.4-0.7-0.6-1.5-0.6-2.5l0,0c0-0.9,0.2-1.8,0.6-2.5c0.4-0.7,1-1.3,1.7-1.7c0.7-0.4,1.5-0.6,2.4-0.6l0,0c0.7,0,1.3,0.1,1.8,0.4
				s1,0.6,1.4,1.1l0,0V82.1z M462,93.8c0.6,0,1.1-0.1,1.6-0.4c0.5-0.3,0.9-0.7,1.1-1.2c0.3-0.5,0.4-1.1,0.4-1.7l0,0
				c0-0.6-0.1-1.2-0.4-1.7c-0.3-0.5-0.6-0.9-1.1-1.1s-1-0.4-1.6-0.4l0,0c-0.6,0-1.1,0.1-1.6,0.4c-0.5,0.3-0.8,0.7-1.1,1.1
				c-0.3,0.5-0.4,1.1-0.4,1.7l0,0c0,0.6,0.1,1.2,0.4,1.7c0.3,0.5,0.6,0.9,1.1,1.2C460.9,93.6,461.4,93.8,462,93.8L462,93.8z
				 M475.1,85.8c1.3,0,2.3,0.3,3,0.9c0.7,0.6,1,1.6,1,2.8l0,0v5.6h-1.6v-1.2c-0.3,0.4-0.7,0.8-1.2,1c-0.5,0.2-1.1,0.3-1.9,0.3l0,0
				c-1,0-1.9-0.3-2.5-0.8c-0.6-0.5-0.9-1.2-0.9-2l0,0c0-0.8,0.3-1.5,0.9-2c0.6-0.5,1.5-0.7,2.8-0.7l0,0h2.7v-0.3
				c0-0.7-0.2-1.3-0.6-1.7c-0.4-0.4-1-0.6-1.9-0.6l0,0c-0.6,0-1.1,0.1-1.6,0.3c-0.5,0.2-1,0.4-1.3,0.7l0,0l-0.7-1.3
				c0.5-0.4,1.1-0.7,1.7-0.9C473.7,85.9,474.4,85.8,475.1,85.8L475.1,85.8z M474.7,94c0.6,0,1.2-0.1,1.7-0.4s0.8-0.7,1-1.2l0,0V91
				h-2.6c-1.4,0-2.1,0.5-2.1,1.4l0,0c0,0.5,0.2,0.8,0.5,1.1C473.6,93.8,474.1,94,474.7,94L474.7,94z M489,85.8c1.2,0,2.1,0.3,2.8,1
				s1,1.7,1,3l0,0v5.4h-1.7V90c0-0.9-0.2-1.6-0.6-2c-0.4-0.5-1.1-0.7-1.9-0.7l0,0c-0.9,0-1.6,0.3-2.2,0.8c-0.5,0.5-0.8,1.3-0.8,2.3
				l0,0v4.8H484v-13h1.7v5c0.4-0.4,0.8-0.8,1.4-1C487.6,85.9,488.3,85.8,489,85.8L489,85.8z M501.7,95.3c-0.9,0-1.8-0.2-2.5-0.6
				c-0.7-0.4-1.3-1-1.7-1.7s-0.6-1.5-0.6-2.4l0,0c0-0.9,0.2-1.7,0.6-2.4c0.4-0.7,1-1.3,1.7-1.7s1.6-0.6,2.5-0.6l0,0
				c0.9,0,1.8,0.2,2.5,0.6c0.7,0.4,1.3,1,1.7,1.7c0.4,0.7,0.6,1.5,0.6,2.4l0,0c0,0.9-0.2,1.7-0.6,2.4c-0.4,0.7-1,1.3-1.7,1.7
				C503.5,95.1,502.7,95.3,501.7,95.3L501.7,95.3z M501.7,93.8c0.6,0,1.1-0.1,1.6-0.4c0.5-0.3,0.8-0.7,1.1-1.2
				c0.3-0.5,0.4-1.1,0.4-1.7l0,0c0-0.6-0.1-1.2-0.4-1.7c-0.3-0.5-0.6-0.9-1.1-1.1c-0.5-0.3-1-0.4-1.6-0.4l0,0
				c-0.6,0-1.1,0.1-1.6,0.4s-0.8,0.7-1.1,1.1c-0.3,0.5-0.4,1.1-0.4,1.7l0,0c0,0.6,0.1,1.2,0.4,1.7c0.3,0.5,0.6,0.9,1.1,1.2
				C500.6,93.6,501.1,93.8,501.7,93.8L501.7,93.8z"/>
		</g>
	</g>
	<g transform="rotate(0 266.5438 0)">
		<g transform="matrix(1 0 0 1 0 0)">
			<path class="st0" d="M270.3,23.7h22.5c0.6,0,1.1-0.4,1.2-1l2.5-15c0.1-0.7-0.3-1.3-1-1.5c-0.3-0.1-0.6,0-0.9,0.2l-7.5,4.3
				l-4.4-10c-0.3-0.6-1-0.9-1.6-0.6c-0.3,0.1-0.5,0.4-0.6,0.6l-4.4,10l-7.5-4.3c-0.6-0.4-1.4-0.2-1.7,0.4c-0.2,0.3-0.2,0.6-0.2,0.9
				l2.5,15C269.2,23.3,269.7,23.7,270.3,23.7z M275.9,13.6c0.3,0.2,0.7,0.2,1,0.1c0.3-0.1,0.6-0.4,0.8-0.7l3.9-8.7l3.9,8.7
				c0.1,0.3,0.4,0.6,0.8,0.7c0.3,0.1,0.7,0.1,1-0.1l6.5-3.7l-1.9,11.3h-20.4l-1.9-11.3L275.9,13.6z"/>
		</g>
	</g>
	<g transform="rotate(0 0 15.866399999999999)">
		<rect y="15.9" class="st0" width="251.5" height="2"/>
	</g>
	<g transform="rotate(0 311.5438 15.866399999999999)">
		<rect x="311.5" y="15.9" class="st0" width="251.5" height="2"/>
	</g>
	<g transform="rotate(0 0 41.8664)">
		<g transform="matrix(1 0 0 1 0 0)">
			<path class="st1" d="M8.3,59.9H0v-0.4l2-1V45.4l-2-1V44h7.7c1.2,0,2.2,0.1,3.1,0.4s1.6,0.7,2.1,1.2c0.5,0.5,0.8,1.2,0.8,2l0,0
				c0,0.8-0.3,1.6-0.9,2.3c-0.6,0.7-1.5,1.2-2.7,1.4l0,0c1.6,0.2,2.8,0.7,3.7,1.4c0.9,0.7,1.3,1.6,1.3,2.6l0,0
				c0,0.9-0.3,1.7-0.9,2.4c-0.6,0.7-1.4,1.2-2.4,1.6C10.7,59.7,9.6,59.9,8.3,59.9L8.3,59.9z M6.5,45.3L6.5,45.3H5.7v5.8h1
				c1.1,0,1.9-0.3,2.5-0.8c0.6-0.5,0.9-1.2,0.9-2.1l0,0C10,46.3,8.8,45.3,6.5,45.3z M7.3,52.3L7.3,52.3H5.7v6.3h1.8
				c1.2,0,2.1-0.3,2.8-0.9s1-1.4,1-2.3l0,0c0-1.1-0.3-1.8-1-2.3C9.6,52.5,8.6,52.3,7.3,52.3z M22,59.9h-4.5v-0.4l1.2-0.7l5.4-12.5h2
				l5.3,12.3l1.5,0.8v0.4h-6.7v-0.4l1.7-0.7l-1.4-3.3h-4.8l-1.4,3.3l1.7,0.7V59.9z M24.1,49.7l-1.9,4.6H26L24.1,49.7z M40.3,60.1
				L40.3,60.1c-0.9,0-1.7-0.1-2.4-0.3c-0.7-0.2-1.4-0.4-2-0.8l0,0l-0.2-3.4h0.4l1.7,2.6c0.7,0.5,1.6,0.7,2.5,0.7l0,0
				c0.8,0,1.4-0.2,1.8-0.5s0.7-0.8,0.7-1.4l0,0c0-0.4-0.1-0.8-0.4-1.1c-0.2-0.3-0.6-0.5-1.2-0.8c-0.5-0.3-1.2-0.6-2.1-1l0,0
				c-1-0.4-1.7-1-2.2-1.6c-0.5-0.6-0.7-1.4-0.7-2.3l0,0c0-0.8,0.2-1.5,0.7-2.1s1.1-1.1,1.8-1.5c0.8-0.4,1.6-0.6,2.5-0.6l0,0
				c0.7,0,1.4,0.1,2.1,0.3c0.6,0.2,1.2,0.4,1.8,0.7l0,0l0.2,3.3h-0.4L43,47.8c-0.3-0.2-0.5-0.3-0.8-0.3s-0.6-0.1-0.9-0.1l0,0
				c-0.6,0-1.2,0.2-1.5,0.5s-0.6,0.8-0.6,1.3l0,0c0,0.4,0.1,0.7,0.3,0.9s0.5,0.5,0.9,0.7c0.4,0.2,1,0.5,1.7,0.9l0,0
				c0.8,0.4,1.5,0.8,2.1,1.2c0.5,0.4,0.9,0.8,1.2,1.3c0.3,0.5,0.4,1.1,0.4,1.7l0,0c0,0.8-0.2,1.6-0.7,2.2c-0.5,0.6-1.1,1.1-1.9,1.4
				C42.2,59.9,41.3,60.1,40.3,60.1z M53.8,60.1L53.8,60.1c-0.9,0-1.7-0.1-2.4-0.3c-0.7-0.2-1.4-0.4-2-0.8l0,0l-0.2-3.4h0.4l1.7,2.6
				c0.7,0.5,1.6,0.7,2.5,0.7l0,0c0.8,0,1.4-0.2,1.8-0.5s0.7-0.8,0.7-1.4l0,0c0-0.4-0.1-0.8-0.4-1.1s-0.6-0.5-1.2-0.8s-1.2-0.6-2.1-1
				l0,0c-1-0.4-1.7-1-2.2-1.6c-0.5-0.6-0.7-1.4-0.7-2.3l0,0c0-0.8,0.2-1.5,0.7-2.1c0.5-0.6,1.1-1.1,1.8-1.5c0.8-0.4,1.6-0.6,2.5-0.6
				l0,0c0.7,0,1.4,0.1,2.1,0.3c0.6,0.2,1.2,0.4,1.8,0.7l0,0l0.2,3.3h-0.4l-1.8-2.6c-0.3-0.2-0.5-0.3-0.8-0.3
				c-0.3-0.1-0.6-0.1-0.9-0.1l0,0c-0.6,0-1.2,0.2-1.5,0.5c-0.4,0.3-0.6,0.8-0.6,1.3l0,0c0,0.4,0.1,0.7,0.3,0.9
				c0.2,0.2,0.5,0.5,0.9,0.7c0.4,0.2,1,0.5,1.7,0.9l0,0c0.8,0.4,1.5,0.8,2.1,1.2c0.5,0.4,0.9,0.8,1.2,1.3c0.3,0.5,0.4,1.1,0.4,1.7
				l0,0c0,0.8-0.2,1.6-0.7,2.2c-0.5,0.6-1.1,1.1-1.9,1.4C55.7,59.9,54.8,60.1,53.8,60.1z M75.4,59.9h-5.7v-0.4l2-1l0.5-13.1l-2.1-1
				V44h6l4.8,11.2L85.6,44h5.8v0.4l-2.1,0.7l0.4,13.3l1.8,1v0.4h-7.3v-0.4l1.9-1l-0.2-11.4L80.5,60h-1.3l-5.5-12.8l-0.3,11.4l2.1,1
				V59.9z M98.6,59.9h-4.5v-0.4l1.2-0.7l5.4-12.5h2l5.3,12.3l1.5,0.8v0.4h-6.7v-0.4l1.7-0.7l-1.4-3.3h-4.8l-1.4,3.3l1.7,0.7V59.9z
				 M100.7,49.7l-1.9,4.6h3.8L100.7,49.7z M117,60.1L117,60.1c-0.9,0-1.7-0.1-2.4-0.3c-0.7-0.2-1.4-0.4-2-0.8l0,0l-0.2-3.4h0.4
				l1.7,2.6c0.7,0.5,1.6,0.7,2.5,0.7l0,0c0.8,0,1.4-0.2,1.8-0.5c0.4-0.3,0.7-0.8,0.7-1.4l0,0c0-0.4-0.1-0.8-0.4-1.1
				c-0.2-0.3-0.6-0.5-1.2-0.8s-1.2-0.6-2.1-1l0,0c-1-0.4-1.7-1-2.2-1.6c-0.5-0.6-0.7-1.4-0.7-2.3l0,0c0-0.8,0.2-1.5,0.7-2.1
				c0.5-0.6,1.1-1.1,1.8-1.5c0.8-0.4,1.6-0.6,2.5-0.6l0,0c0.7,0,1.4,0.1,2.1,0.3c0.6,0.2,1.2,0.4,1.8,0.7l0,0l0.2,3.3h-0.4l-1.8-2.6
				c-0.3-0.2-0.5-0.3-0.8-0.3c-0.3-0.1-0.6-0.1-0.9-0.1l0,0c-0.6,0-1.2,0.2-1.5,0.5c-0.4,0.3-0.6,0.8-0.6,1.3l0,0
				c0,0.4,0.1,0.7,0.3,0.9c0.2,0.2,0.5,0.5,0.9,0.7c0.4,0.2,1,0.5,1.7,0.9l0,0c0.8,0.4,1.5,0.8,2.1,1.2c0.5,0.4,0.9,0.8,1.2,1.3
				c0.3,0.5,0.4,1.1,0.4,1.7l0,0c0,0.8-0.2,1.6-0.7,2.2c-0.5,0.6-1.1,1.1-1.9,1.4C118.8,59.9,117.9,60.1,117,60.1z M136.2,59.9h-7.9
				v-0.4l2.2-0.8v-11h-3l-1.6,3.3h-0.4v-4.5h13.4V51h-0.4l-1.6-3.3h-3v11l2.2,0.8V59.9z M154.2,59.9h-12.2v-0.4l1.8-0.8V47.6
				l-1.8-0.8v-0.4h11.6V50h-0.4l-1.6-2.4h-4.4v4.7h3.1l1.1-1.7h0.4v4.6h-0.4l-1.1-1.7h-3.1v5.2h4.8l1.7-3.1h0.4V59.9z M164.5,59.9
				h-6.8v-0.4l1.8-0.8V47.6l-1.8-0.8v-0.4h7.3c1.5,0,2.6,0.3,3.4,0.9s1.3,1.4,1.3,2.4l0,0c0,1.5-0.9,2.5-2.7,3.1l0,0l3.7,5.9
				l1.6,0.8v0.4h-5l-3.5-6.1H163v4.9l1.5,0.8V59.9z M163.7,47.5L163.7,47.5H163v5.1h0.7c0.8,0,1.5-0.2,1.9-0.7
				c0.4-0.5,0.6-1.1,0.6-1.9l0,0C166.2,48.4,165.4,47.5,163.7,47.5z M189.1,59.9h-7.5v-0.4l2-1V45.4l-2-1V44h8.2c1.7,0,3,0.3,4,1
				c1,0.7,1.5,1.7,1.5,2.9l0,0c0,0.9-0.3,1.6-0.9,2.3s-1.4,1.1-2.3,1.5l0,0l4.4,6.8l1.7,1v0.4H193l-4.4-7.3h-1.3v6l1.8,1V59.9z
				 M188.2,45.3L188.2,45.3h-1v6h1.1c1,0,1.8-0.3,2.4-0.8c0.6-0.6,0.9-1.3,0.9-2.2l0,0c0-0.9-0.3-1.7-0.9-2.2S189.3,45.3,188.2,45.3
				z M207.6,60.1L207.6,60.1c-1.4,0-2.7-0.3-3.7-0.9c-1.1-0.6-1.9-1.4-2.6-2.5c-0.6-1-0.9-2.2-0.9-3.6l0,0c0-1.3,0.3-2.5,0.9-3.6
				c0.6-1.1,1.5-1.9,2.6-2.5c1.1-0.6,2.3-0.9,3.7-0.9l0,0c1.4,0,2.7,0.3,3.7,0.9c1.1,0.6,1.9,1.4,2.6,2.5c0.6,1.1,0.9,2.2,0.9,3.6
				l0,0c0,1.3-0.3,2.5-0.9,3.6c-0.6,1-1.5,1.9-2.6,2.5C210.3,59.8,209,60.1,207.6,60.1z M207.9,58.9L207.9,58.9c1,0,1.8-0.5,2.4-1.4
				c0.6-1,0.9-2.2,0.9-3.7l0,0c0-1.2-0.2-2.3-0.5-3.3s-0.8-1.7-1.4-2.2c-0.6-0.5-1.3-0.8-2-0.8l0,0c-0.7,0-1.3,0.2-1.8,0.6
				c-0.5,0.4-0.9,1-1.2,1.8c-0.3,0.8-0.4,1.7-0.4,2.7l0,0c0,1.2,0.2,2.3,0.5,3.3c0.3,1,0.8,1.7,1.4,2.3
				C206.5,58.6,207.2,58.9,207.9,58.9z M223,60.1L223,60.1c-0.9,0-1.7-0.1-2.4-0.3s-1.4-0.4-2-0.8l0,0l-0.2-3.4h0.4l1.7,2.6
				c0.7,0.5,1.6,0.7,2.5,0.7l0,0c0.8,0,1.4-0.2,1.8-0.5c0.4-0.3,0.7-0.8,0.7-1.4l0,0c0-0.4-0.1-0.8-0.4-1.1s-0.6-0.5-1.2-0.8
				s-1.2-0.6-2.1-1l0,0c-1-0.4-1.7-1-2.2-1.6c-0.5-0.6-0.7-1.4-0.7-2.3l0,0c0-0.8,0.2-1.5,0.7-2.1c0.5-0.6,1.1-1.1,1.8-1.5
				c0.8-0.4,1.6-0.6,2.5-0.6l0,0c0.7,0,1.4,0.1,2.1,0.3c0.6,0.2,1.2,0.4,1.8,0.7l0,0l0.2,3.3h-0.4l-1.8-2.6
				c-0.3-0.2-0.5-0.3-0.8-0.3c-0.3-0.1-0.6-0.1-0.9-0.1l0,0c-0.6,0-1.2,0.2-1.5,0.5c-0.4,0.3-0.6,0.8-0.6,1.3l0,0
				c0,0.4,0.1,0.7,0.3,0.9c0.2,0.2,0.5,0.5,0.9,0.7c0.4,0.2,1,0.5,1.7,0.9l0,0c0.8,0.4,1.5,0.8,2.1,1.2c0.5,0.4,0.9,0.8,1.2,1.3
				c0.3,0.5,0.4,1.1,0.4,1.7l0,0c0,0.8-0.2,1.6-0.7,2.2c-0.5,0.6-1.1,1.1-1.9,1.4C224.9,59.9,224,60.1,223,60.1z M236.4,60.1
				L236.4,60.1c-0.9,0-1.7-0.1-2.4-0.3c-0.7-0.2-1.4-0.4-2-0.8l0,0l-0.2-3.4h0.4l1.7,2.6c0.7,0.5,1.6,0.7,2.5,0.7l0,0
				c0.8,0,1.4-0.2,1.8-0.5s0.7-0.8,0.7-1.4l0,0c0-0.4-0.1-0.8-0.4-1.1c-0.2-0.3-0.6-0.5-1.2-0.8c-0.5-0.3-1.2-0.6-2.1-1l0,0
				c-1-0.4-1.7-1-2.2-1.6c-0.5-0.6-0.7-1.4-0.7-2.3l0,0c0-0.8,0.2-1.5,0.7-2.1s1.1-1.1,1.8-1.5c0.8-0.4,1.6-0.6,2.5-0.6l0,0
				c0.7,0,1.4,0.1,2.1,0.3s1.2,0.4,1.8,0.7l0,0l0.2,3.3h-0.4l-1.8-2.6c-0.3-0.2-0.5-0.3-0.8-0.3c-0.3-0.1-0.6-0.1-0.9-0.1l0,0
				c-0.6,0-1.2,0.2-1.5,0.5s-0.6,0.8-0.6,1.3l0,0c0,0.4,0.1,0.7,0.3,0.9c0.2,0.2,0.5,0.5,0.9,0.7c0.4,0.2,1,0.5,1.7,0.9l0,0
				c0.8,0.4,1.5,0.8,2.1,1.2c0.5,0.4,0.9,0.8,1.2,1.3c0.3,0.5,0.4,1.1,0.4,1.7l0,0c0,0.8-0.2,1.6-0.7,2.2c-0.5,0.6-1.1,1.1-1.9,1.4
				C238.3,59.9,237.4,60.1,236.4,60.1z M257.8,60.1L257.8,60.1c-1.1,0-2-0.1-2.8-0.3s-1.6-0.5-2.3-0.9l0,0l-0.2-4.1h0.4l1.7,3
				c0.4,0.4,0.9,0.6,1.4,0.8c0.5,0.2,1,0.3,1.5,0.3l0,0c0.9,0,1.6-0.2,2.1-0.6s0.8-1,0.8-1.8l0,0c0-0.5-0.1-1-0.4-1.3
				c-0.2-0.4-0.7-0.7-1.2-1c-0.6-0.3-1.4-0.7-2.4-1.1l0,0c-1.1-0.5-2-1.1-2.6-1.8c-0.6-0.7-0.9-1.5-0.9-2.6l0,0
				c0-0.6,0.2-1.3,0.5-1.8c0.3-0.6,0.8-1.1,1.3-1.6c0.6-0.5,1.2-0.8,1.8-1.1c0.7-0.3,1.4-0.4,2.1-0.4l0,0c0.8,0,1.6,0.1,2.4,0.3
				c0.8,0.2,1.4,0.5,2.1,0.8l0,0l0.2,3.8H263l-1.7-2.7c-0.4-0.3-0.8-0.6-1.2-0.7c-0.4-0.2-0.8-0.3-1.3-0.3l0,0
				c-0.7,0-1.2,0.2-1.6,0.6c-0.4,0.4-0.6,1-0.6,1.7l0,0c0,0.7,0.2,1.2,0.7,1.6s1.3,0.9,2.5,1.4l0,0c1.5,0.7,2.5,1.4,3.2,2.1
				c0.7,0.7,1,1.6,1,2.8l0,0c0,1-0.3,1.9-0.9,2.6c-0.6,0.7-1.4,1.3-2.3,1.7C259.8,59.9,258.8,60.1,257.8,60.1z M277.8,59.9h-7.9
				v-0.4l2.2-0.8v-11h-3l-1.6,3.3h-0.4v-4.5h13.4V51h-0.4l-1.6-3.3h-3v11l2.2,0.8V59.9z M295.8,59.9h-12.2v-0.4l1.8-0.8V47.6
				l-1.8-0.8v-0.4h11.6V50h-0.4l-1.6-2.4h-4.4v4.7h3.1l1.1-1.7h0.4v4.6h-0.4l-1.1-1.7h-3.1v5.2h4.8l1.7-3.1h0.4V59.9z M307.2,60
				h-1.6l-5.5-12.4l-1.4-0.8v-0.4h6.8v0.4l-1.6,0.7l3.6,8.2h0.2l3.6-8.2l-1.7-0.7v-0.4h4.5v0.4l-1.2,0.7L307.2,60z M328.9,59.9
				h-12.2v-0.4l1.8-0.8V47.6l-1.8-0.8v-0.4h11.6V50h-0.4l-1.6-2.4H322v4.7h3.1l1.1-1.7h0.4v4.6h-0.4l-1.1-1.7H322v5.2h4.8l1.7-3.1
				h0.4V59.9z M337.9,59.9h-5.6v-0.4l1.8-0.8V47.6l-1.8-0.8v-0.4h4.3l8,8.9v-7.7l-2.3-0.8v-0.4h5.5v0.4l-1.8,0.8V60h-1.7l-8.9-9.8
				v8.4l2.3,0.8V59.9z M365.8,59.9h-7.5v-0.4l2-1V45.4l-2-1V44h8.2c1.7,0,3,0.3,4,1c1,0.7,1.5,1.7,1.5,2.9l0,0
				c0,0.9-0.3,1.6-0.9,2.3s-1.4,1.1-2.3,1.5l0,0l4.4,6.8l1.7,1v0.4h-5.2l-4.4-7.3H364v6l1.8,1V59.9z M365,45.3L365,45.3h-1v6h1.1
				c1,0,1.8-0.3,2.4-0.8c0.6-0.6,0.9-1.3,0.9-2.2l0,0c0-0.9-0.3-1.7-0.9-2.2C366.9,45.6,366.1,45.3,365,45.3z M384.3,60.1
				L384.3,60.1c-1.4,0-2.7-0.3-3.7-0.9c-1.1-0.6-1.9-1.4-2.6-2.5c-0.6-1-0.9-2.2-0.9-3.6l0,0c0-1.3,0.3-2.5,0.9-3.6
				c0.6-1.1,1.5-1.9,2.6-2.5c1.1-0.6,2.3-0.9,3.7-0.9l0,0c1.4,0,2.7,0.3,3.7,0.9c1.1,0.6,1.9,1.4,2.6,2.5c0.6,1.1,0.9,2.2,0.9,3.6
				l0,0c0,1.3-0.3,2.5-0.9,3.6c-0.6,1-1.5,1.9-2.6,2.5C387,59.8,385.7,60.1,384.3,60.1z M384.7,58.9L384.7,58.9c1,0,1.8-0.5,2.4-1.4
				c0.6-1,0.9-2.2,0.9-3.7l0,0c0-1.2-0.2-2.3-0.5-3.3c-0.3-1-0.8-1.7-1.4-2.2c-0.6-0.5-1.3-0.8-2-0.8l0,0c-0.7,0-1.3,0.2-1.8,0.6
				c-0.5,0.4-0.9,1-1.2,1.8c-0.3,0.8-0.4,1.7-0.4,2.7l0,0c0,1.2,0.2,2.3,0.5,3.3c0.3,1,0.8,1.7,1.4,2.3
				C383.2,58.6,383.9,58.9,384.7,58.9z M399.7,60.1L399.7,60.1c-0.9,0-1.7-0.1-2.4-0.3c-0.7-0.2-1.4-0.4-2-0.8l0,0l-0.2-3.4h0.4
				l1.7,2.6c0.7,0.5,1.6,0.7,2.5,0.7l0,0c0.8,0,1.4-0.2,1.8-0.5c0.4-0.3,0.7-0.8,0.7-1.4l0,0c0-0.4-0.1-0.8-0.4-1.1
				c-0.2-0.3-0.6-0.5-1.2-0.8c-0.5-0.3-1.2-0.6-2.1-1l0,0c-1-0.4-1.7-1-2.2-1.6c-0.5-0.6-0.7-1.4-0.7-2.3l0,0c0-0.8,0.2-1.5,0.7-2.1
				c0.5-0.6,1.1-1.1,1.8-1.5c0.8-0.4,1.6-0.6,2.5-0.6l0,0c0.7,0,1.4,0.1,2.1,0.3c0.6,0.2,1.2,0.4,1.8,0.7l0,0l0.2,3.3h-0.4l-1.8-2.6
				c-0.3-0.2-0.5-0.3-0.8-0.3c-0.3-0.1-0.6-0.1-0.9-0.1l0,0c-0.6,0-1.2,0.2-1.5,0.5s-0.6,0.8-0.6,1.3l0,0c0,0.4,0.1,0.7,0.3,0.9
				s0.5,0.5,0.9,0.7c0.4,0.2,1,0.5,1.7,0.9l0,0c0.8,0.4,1.5,0.8,2.1,1.2c0.5,0.4,0.9,0.8,1.2,1.3c0.3,0.5,0.4,1.1,0.4,1.7l0,0
				c0,0.8-0.2,1.6-0.7,2.2c-0.5,0.6-1.1,1.1-1.9,1.4C401.6,59.9,400.7,60.1,399.7,60.1z M413.2,60.1L413.2,60.1
				c-0.9,0-1.7-0.1-2.4-0.3c-0.7-0.2-1.4-0.4-2-0.8l0,0l-0.2-3.4h0.4l1.7,2.6c0.7,0.5,1.6,0.7,2.5,0.7l0,0c0.8,0,1.4-0.2,1.8-0.5
				c0.4-0.3,0.7-0.8,0.7-1.4l0,0c0-0.4-0.1-0.8-0.4-1.1c-0.2-0.3-0.6-0.5-1.2-0.8c-0.5-0.3-1.2-0.6-2.1-1l0,0c-1-0.4-1.7-1-2.2-1.6
				c-0.5-0.6-0.7-1.4-0.7-2.3l0,0c0-0.8,0.2-1.5,0.7-2.1c0.5-0.6,1.1-1.1,1.8-1.5c0.8-0.4,1.6-0.6,2.5-0.6l0,0
				c0.7,0,1.4,0.1,2.1,0.3s1.2,0.4,1.8,0.7l0,0l0.2,3.3h-0.4l-1.8-2.6c-0.3-0.2-0.5-0.3-0.8-0.3s-0.6-0.1-0.9-0.1l0,0
				c-0.6,0-1.2,0.2-1.5,0.5s-0.6,0.8-0.6,1.3l0,0c0,0.4,0.1,0.7,0.3,0.9c0.2,0.2,0.5,0.5,0.9,0.7c0.4,0.2,1,0.5,1.7,0.9l0,0
				c0.8,0.4,1.5,0.8,2.1,1.2c0.5,0.4,0.9,0.8,1.2,1.3c0.3,0.5,0.4,1.1,0.4,1.7l0,0c0,0.8-0.2,1.6-0.7,2.2c-0.5,0.6-1.1,1.1-1.9,1.4
				C415.1,59.9,414.2,60.1,413.2,60.1z M431.6,65.9h-1.2v-24h1.2V65.9z M453.8,59.9h-9.3v-0.4l2.9-1v-10l-2.9-1v-0.4h9.3v0.4l-2.9,1
				v10l2.9,1V59.9z M463.2,63.2L463.2,63.2c-2.4,0-4.1-0.6-5-1.9l0,0c-0.1-0.2-0.2-0.4-0.2-0.5l0,0c0-0.2,0.1-0.4,0.4-0.6l0,0
				l1.2-0.9h0.3l0.2,0.6c0.4,0.8,0.8,1.4,1.2,1.8c0.4,0.4,1,0.6,1.8,0.6l0,0c0.9,0,1.6-0.3,2.1-0.9c0.5-0.6,0.7-1.3,0.7-2.2l0,0
				c0-1.2-0.4-2.2-1.3-2.8c-0.9-0.7-2.1-1-3.8-1l0,0l-0.3-1h0c0.8,0,1.5-0.1,2.2-0.4c0.6-0.2,1.2-0.6,1.5-1c0.4-0.4,0.6-0.9,0.6-1.5
				l0,0c0-0.7-0.2-1.3-0.6-1.8s-1-0.6-1.8-0.6l0,0c-0.8,0-1.4,0.2-1.9,0.6c-0.5,0.4-0.9,1-1.2,1.7l0,0l-0.9-0.4
				c0.5-1.3,1.3-2.3,2.4-2.9s2.1-1,3.3-1l0,0c1.4,0,2.5,0.3,3.3,0.9c0.8,0.6,1.2,1.4,1.2,2.4l0,0c0,0.9-0.3,1.6-1,2.2
				c-0.7,0.6-1.5,1-2.6,1.3l0,0c1.6,0.3,2.7,0.9,3.4,1.7c0.7,0.8,1,1.8,1,2.9l0,0c0,1-0.3,1.8-0.9,2.6c-0.6,0.7-1.3,1.3-2.3,1.7
				C465.5,63,464.4,63.2,463.2,63.2z M488.3,59.9H480v-0.4l2-1V45.4l-2-1V44h7.7c1.2,0,2.2,0.1,3.1,0.4s1.6,0.7,2.1,1.2
				c0.5,0.5,0.8,1.2,0.8,2l0,0c0,0.8-0.3,1.6-0.9,2.3c-0.6,0.7-1.5,1.2-2.7,1.4l0,0c1.6,0.2,2.8,0.7,3.7,1.4
				c0.9,0.7,1.3,1.6,1.3,2.6l0,0c0,0.9-0.3,1.7-0.9,2.4s-1.4,1.2-2.4,1.6C490.8,59.7,489.6,59.9,488.3,59.9L488.3,59.9z M486.5,45.3
				L486.5,45.3h-0.8v5.8h1c1.1,0,1.9-0.3,2.5-0.8c0.6-0.5,0.9-1.2,0.9-2.1l0,0C490,46.3,488.8,45.3,486.5,45.3z M487.3,52.3
				L487.3,52.3h-1.7v6.3h1.8c1.2,0,2.1-0.3,2.8-0.9c0.7-0.6,1-1.4,1-2.3l0,0c0-1.1-0.3-1.8-1-2.3C489.6,52.5,488.6,52.3,487.3,52.3z
				 M505.5,60.1L505.5,60.1c-1.4,0-2.7-0.3-3.7-0.9c-1.1-0.6-1.9-1.4-2.6-2.5c-0.6-1-0.9-2.2-0.9-3.6l0,0c0-1.3,0.3-2.5,0.9-3.6
				c0.6-1.1,1.5-1.9,2.6-2.5c1.1-0.6,2.3-0.9,3.7-0.9l0,0c1.4,0,2.7,0.3,3.7,0.9c1.1,0.6,1.9,1.4,2.6,2.5c0.6,1.1,0.9,2.2,0.9,3.6
				l0,0c0,1.3-0.3,2.5-0.9,3.6c-0.6,1-1.5,1.9-2.6,2.5C508.2,59.8,506.9,60.1,505.5,60.1z M505.8,58.9L505.8,58.9
				c1,0,1.8-0.5,2.4-1.4c0.6-1,0.9-2.2,0.9-3.7l0,0c0-1.2-0.2-2.3-0.5-3.3s-0.8-1.7-1.4-2.2c-0.6-0.5-1.3-0.8-2-0.8l0,0
				c-0.7,0-1.3,0.2-1.8,0.6s-0.9,1-1.2,1.8c-0.3,0.8-0.4,1.7-0.4,2.7l0,0c0,1.2,0.2,2.3,0.5,3.3c0.3,1,0.8,1.7,1.4,2.3
				C504.4,58.6,505.1,58.9,505.8,58.9z M521.7,59.9h-5.6v-0.4l1.8-0.8V47.6l-1.8-0.8v-0.4h4.3l8,8.9v-7.7l-2.3-0.8v-0.4h5.5v0.4
				l-1.8,0.8V60h-1.7l-8.9-9.8v8.4l2.3,0.8V59.9z M547.1,59.9h-12.2v-0.4l1.8-0.8V47.6l-1.8-0.8v-0.4h11.6V50h-0.4l-1.6-2.4h-4.4
				v4.7h3.1l1.1-1.7h0.4v4.6h-0.4l-1.1-1.7h-3.1v5.2h4.8l1.7-3.1h0.4V59.9z M563.1,59.9h-11.5v-0.6l7-11.6h-4.8l-1.6,3.1h-0.4v-4.3
				h11v0.6l-7.1,11.6h5.2l1.7-3.3h0.4V59.9z"/>
		</g>
	</g>
</g>
</svg>
