<?xml version="1.0" encoding="utf-8"?>
<!-- Generator: Adobe Illustrator 24.2.1, SVG Export Plug-In . SVG Version: 6.00 Build 0)  -->
<svg version="1.1" id="Layer_1" xmlns="http://www.w3.org/2000/svg" xmlns:xlink="http://www.w3.org/1999/xlink" x="0px" y="0px"
	 viewBox="0 0 575.9 80.7" style="enable-background:new 0 0 575.9 80.7;" xml:space="preserve">
<style type="text/css">
	.st0{fill:#E5E5E5;}
	.st1{fill:#E9E41D;}
</style>
<g>
	<g transform="rotate(0 0 44)">
		<g transform="matrix(1 0 0 1 0 0)">
			<path class="st0" d="M23.8,45.3l0.4,0.5c-0.2,0.2-0.3,0.4-0.4,0.6c-0.1,0.2-0.3,0.4-0.4,0.6l0,0c1,0.4,1.8,0.8,2.4,1.4
				c0.6,0.5,1.1,1.1,1.4,1.7c0.3,0.6,0.6,1.2,0.7,1.7c0.1,0.6,0.2,1.1,0.2,1.5l0,0c0,0.6-0.1,1.1-0.3,1.7c-0.2,0.5-0.4,1-0.8,1.4
				c-0.3,0.4-0.7,0.8-1.1,1.1c-0.4,0.3-0.9,0.6-1.3,0.7l0,0c1,0.8,1.7,1.7,2.1,2.6c0.5,1,0.7,1.9,0.7,2.9l0,0c0,0.8-0.2,1.6-0.5,2.4
				c-0.3,0.7-0.8,1.4-1.4,1.9c-0.6,0.6-1.3,1-2.1,1.3c-0.8,0.3-1.6,0.5-2.5,0.5l0,0c-0.8,0-1.5-0.1-2.2-0.4c-0.7-0.3-1.2-0.6-1.8-1
				c-0.5-0.4-1-1-1.3-1.5c-0.4-0.6-0.7-1.2-0.9-1.9l0,0l0.7-0.2c0.4,1.2,1,2.1,1.8,2.8c0.8,0.6,1.9,1,3,1l0,0c0.7,0,1.4-0.1,2.1-0.4
				c0.7-0.3,1.3-0.6,1.8-1.1c0.5-0.5,0.9-1,1.2-1.7c0.3-0.6,0.4-1.3,0.4-2.1l0,0c0-0.5-0.1-1-0.2-1.4c-0.1-0.5-0.3-0.9-0.5-1.3
				s-0.5-0.8-0.8-1.1c-0.3-0.3-0.6-0.6-0.9-0.9l0,0c-0.3,0.1-0.5,0.1-0.8,0.1c-0.3,0-0.5,0-0.8,0l0,0c-0.4,0-0.7,0-1.1-0.1
				c-0.4-0.1-0.7-0.1-1-0.2c-0.3-0.1-0.5-0.3-0.7-0.4c-0.2-0.2-0.3-0.4-0.3-0.7l0,0c0-0.1,0-0.1,0-0.3c0-0.1,0.1-0.2,0.2-0.3
				c0.1-0.1,0.2-0.2,0.4-0.3c0.2-0.1,0.4-0.1,0.8-0.1l0,0c0.3,0,0.6,0,0.9,0.1c0.3,0.1,0.6,0.2,0.9,0.3c0.3,0.1,0.6,0.2,0.8,0.4
				c0.3,0.1,0.5,0.3,0.7,0.4l0,0c0.4-0.2,0.7-0.4,1.1-0.6c0.4-0.3,0.7-0.6,1-1c0.3-0.4,0.5-0.9,0.7-1.4c0.2-0.5,0.3-1.1,0.3-1.7l0,0
				c0-1.1-0.3-2.1-0.9-3c-0.6-0.9-1.5-1.6-2.8-2.1l0,0c-0.6,0.8-1.2,1.7-1.7,2.5c-0.5,0.8-1,1.6-1.4,2.5c-0.4,0.8-0.9,1.6-1.3,2.5
				c-0.4,0.8-0.8,1.7-1.1,2.5l0,0c-0.8,1.9-1.6,3.6-2.4,4.9c-0.8,1.4-1.6,2.5-2.5,3.3c-0.9,0.9-1.8,1.5-2.9,1.9
				c-1,0.4-2.2,0.6-3.6,0.6l0,0c-1,0-1.9-0.2-2.7-0.5c-0.8-0.3-1.4-0.8-1.9-1.4c-0.5-0.6-0.8-1.3-1.1-2.1C0.1,63.5,0,62.6,0,61.7
				l0,0c0-1,0.2-2,0.5-3.1c0.3-1.1,0.8-2.1,1.4-3.2l0,0c0.4-0.7,0.9-1.4,1.5-2.1c0.6-0.7,1.3-1.4,2-2.1c0.8-0.7,1.6-1.4,2.5-2
				c0.9-0.6,1.9-1.2,3-1.7c1.1-0.5,2.2-0.8,3.4-1.1c1.2-0.3,2.5-0.4,3.9-0.4l0,0c0.8,0,1.6,0,2.3,0.1c0.7,0.1,1.3,0.2,1.9,0.4l0,0
				c0.2-0.2,0.5-0.5,0.7-0.7C23.3,45.7,23.5,45.5,23.8,45.3L23.8,45.3z M18.3,51.9L18.3,51.9c0.5-0.9,1.1-1.7,1.6-2.5
				c0.6-0.8,1.2-1.5,1.8-2.2l0,0c-0.4-0.1-0.8-0.2-1.2-0.2c-0.4,0-0.9-0.1-1.3-0.1l0,0c-1.5,0-3,0.2-4.4,0.6s-2.8,1-4.1,1.7
				c-1.3,0.7-2.5,1.6-3.7,2.6c-1.1,1-2.1,2.1-2.9,3.3c-0.8,1.2-1.5,2.4-1.9,3.7c-0.5,1.3-0.7,2.7-0.7,4l0,0c0,0.7,0.1,1.3,0.3,1.8
				c0.2,0.6,0.5,1,0.8,1.4C3,66.6,3.5,66.9,4,67.1c0.5,0.2,1.2,0.3,1.9,0.3l0,0c1.2,0,2.2-0.2,3.1-0.7c0.9-0.4,1.7-1,2.4-1.8
				c0.7-0.8,1.3-1.7,1.9-2.7s1.1-2.1,1.6-3.2c0.5-1.1,1.1-2.3,1.6-3.5C17,54.3,17.6,53.1,18.3,51.9z M22.5,57.8L22.5,57.8
				c-0.2-0.1-0.3-0.2-0.5-0.3c-0.2-0.1-0.4-0.2-0.6-0.2c-0.2-0.1-0.4-0.1-0.7-0.2c-0.2,0-0.4-0.1-0.6-0.1l0,0c-0.3,0-0.4,0-0.5,0.1
				c-0.1,0.1-0.1,0.1-0.1,0.2l0,0c0,0.1,0.1,0.2,0.2,0.2c0.1,0.1,0.3,0.1,0.5,0.2s0.4,0.1,0.7,0.1c0.2,0,0.5,0,0.7,0l0,0
				c0.1,0,0.2,0,0.4,0C22.1,57.8,22.3,57.8,22.5,57.8z M41.6,57.1l0.5,0.2c-0.1,0.3-0.3,0.6-0.5,1c-0.2,0.4-0.5,0.9-0.8,1.4
				c-0.3,0.5-0.5,1-0.8,1.6c-0.3,0.5-0.5,1.1-0.7,1.6c-0.2,0.5-0.4,1-0.5,1.5c-0.1,0.5-0.2,0.8-0.2,1.2l0,0c0,0.3,0.1,0.5,0.2,0.6
				c0.1,0.1,0.3,0.1,0.5,0.1l0,0c0.3,0,0.6-0.1,0.9-0.3c0.3-0.2,0.6-0.4,0.9-0.7c0.3-0.3,0.6-0.6,0.9-0.9c0.3-0.3,0.5-0.7,0.8-1
				c0.2-0.3,0.5-0.7,0.7-1c0.2-0.3,0.4-0.6,0.5-0.8l0,0l0.5,0.4c-0.2,0.3-0.4,0.7-0.6,1c-0.2,0.4-0.5,0.7-0.8,1.1
				c-0.3,0.4-0.6,0.7-0.9,1.1c-0.3,0.3-0.7,0.7-1,0.9c-0.3,0.3-0.7,0.5-1.1,0.6c-0.4,0.2-0.8,0.2-1.2,0.2l0,0c-0.6,0-1-0.2-1.3-0.5
				c-0.3-0.4-0.4-0.8-0.4-1.4l0,0c0,0,0-0.1,0-0.3c0-0.1,0-0.2,0-0.3l0,0c-0.5,0.6-1,1.1-1.4,1.5c-0.5,0.4-0.9,0.7-1.3,1
				c-0.4,0.2-0.8,0.4-1.2,0.5c-0.4,0.1-0.8,0.1-1.1,0.1l0,0c-0.4,0-0.7-0.1-1.1-0.2c-0.3-0.1-0.6-0.3-0.9-0.5
				c-0.3-0.2-0.5-0.5-0.6-0.9c-0.1-0.3-0.2-0.7-0.2-1.2l0,0c0-0.6,0.1-1.2,0.4-1.9c0.3-0.7,0.7-1.5,1.3-2.3l0,0
				c0.5-0.7,1.1-1.3,1.7-1.8c0.6-0.5,1.2-0.9,1.7-1.2c0.6-0.3,1.1-0.5,1.6-0.6c0.5-0.1,1-0.2,1.4-0.2l0,0c0.9,0,1.6,0.1,2.1,0.4
				c0.5,0.3,0.7,0.8,0.8,1.4l0,0c0.2-0.2,0.4-0.5,0.6-0.7C41.2,57.6,41.4,57.3,41.6,57.1L41.6,57.1z M37.5,62.9L37.5,62.9
				c0.1-0.2,0.3-0.5,0.5-0.8c0.2-0.3,0.4-0.7,0.6-1c0.2-0.3,0.4-0.7,0.6-1c0.2-0.3,0.4-0.6,0.5-0.8l0,0c0-0.1,0-0.2,0-0.4
				c0-0.2-0.1-0.4-0.2-0.6c-0.1-0.2-0.3-0.4-0.5-0.5c-0.2-0.2-0.6-0.2-1-0.2l0,0c-0.3,0-0.7,0-1,0.1c-0.4,0.1-0.8,0.2-1.2,0.5
				c-0.4,0.2-0.9,0.5-1.3,0.9c-0.5,0.4-0.9,0.8-1.4,1.4l0,0c-0.7,0.8-1.2,1.6-1.6,2.5c-0.4,0.8-0.6,1.6-0.6,2.2l0,0
				c0,0.6,0.1,1,0.4,1.3c0.3,0.3,0.6,0.5,1.1,0.5l0,0c0.5,0,1.1-0.1,1.5-0.4c0.5-0.2,0.9-0.6,1.3-0.9c0.4-0.4,0.8-0.8,1.2-1.3
				C36.8,63.8,37.2,63.4,37.5,62.9z M56.4,59.4L56.4,59.4c0,0.4-0.1,0.9-0.2,1.3c-0.1,0.4-0.3,0.9-0.6,1.3s-0.5,0.9-0.7,1.3
				c-0.3,0.4-0.5,0.8-0.7,1.2c-0.2,0.4-0.4,0.8-0.6,1.1c-0.1,0.4-0.2,0.7-0.2,1l0,0c0,0.2,0.1,0.4,0.2,0.5c0.1,0.1,0.2,0.1,0.3,0.1
				l0,0c0.4,0,0.8-0.2,1.3-0.6c0.5-0.4,0.9-0.8,1.4-1.4c0.5-0.6,1-1.2,1.4-1.8c0.5-0.7,0.9-1.3,1.3-1.9l0,0l0.5,0.4
				c-0.1,0.1-0.2,0.4-0.4,0.7c-0.2,0.3-0.5,0.8-0.8,1.2c-0.3,0.5-0.7,0.9-1,1.4c-0.4,0.5-0.8,0.9-1.2,1.3c-0.4,0.4-0.9,0.8-1.3,1
				c-0.5,0.3-0.9,0.4-1.4,0.4l0,0c-0.3,0-0.5,0-0.7-0.1c-0.2-0.1-0.4-0.2-0.6-0.4c-0.2-0.2-0.3-0.3-0.4-0.6
				c-0.1-0.2-0.1-0.4-0.1-0.7l0,0c0-0.4,0.1-0.8,0.3-1.3c0.2-0.4,0.4-0.9,0.6-1.4c0.3-0.5,0.5-1,0.8-1.4c0.3-0.5,0.6-0.9,0.9-1.4
				c0.3-0.4,0.5-0.8,0.6-1.2c0.2-0.4,0.3-0.7,0.3-1l0,0c0-0.3-0.1-0.6-0.2-0.8c-0.2-0.2-0.4-0.3-0.7-0.3l0,0c-0.3,0-0.7,0.1-1.1,0.4
				c-0.4,0.3-0.9,0.6-1.4,1.1c-0.5,0.5-1.1,1.1-1.7,1.9c-0.6,0.7-1.3,1.6-2,2.5l0,0c-0.4,0.5-0.8,1.1-1.2,1.6l0,0
				c-0.2,0.2-0.3,0.4-0.5,0.7c-0.2,0.2-0.3,0.5-0.5,0.7c-0.2,0.2-0.3,0.4-0.5,0.6c-0.2,0.2-0.3,0.4-0.4,0.5l0,0l-1.3-0.5l1.7-2.4
				c0.2-0.3,0.5-0.7,0.8-1.1c0.3-0.4,0.5-0.8,0.8-1.2c0.3-0.4,0.5-0.8,0.7-1.2c0.2-0.4,0.4-0.8,0.6-1.2l0,0c0.3-0.6,0.5-1.1,0.6-1.5
				c0.1-0.4,0.2-0.7,0.2-0.9l0,0c0-0.3,0-0.4-0.1-0.5c-0.1-0.1-0.2-0.1-0.4-0.1l0,0c-0.2,0-0.4,0.1-0.6,0.3
				c-0.2,0.2-0.5,0.4-0.8,0.7c-0.3,0.3-0.5,0.6-0.8,1c-0.3,0.4-0.5,0.8-0.8,1.1c-0.2,0.4-0.5,0.7-0.7,1.1c-0.2,0.3-0.4,0.6-0.5,0.8
				l0,0L44,61.6c0.5-0.8,1-1.5,1.4-2.2s0.8-1.2,1.2-1.7c0.4-0.5,0.8-0.8,1.1-1.1c0.4-0.3,0.7-0.4,1.1-0.4l0,0c0.2,0,0.4,0,0.6,0.1
				c0.2,0.1,0.4,0.2,0.5,0.4c0.2,0.2,0.3,0.4,0.4,0.6c0.1,0.2,0.1,0.5,0.1,0.9l0,0c0,0.3,0,0.5-0.1,0.8l0,0c0.4-0.4,0.8-0.8,1.2-1.1
				c0.4-0.3,0.7-0.5,1-0.7c0.3-0.2,0.6-0.3,0.9-0.3c0.3-0.1,0.5-0.1,0.7-0.1l0,0c0.2,0,0.4,0,0.7,0.1c0.2,0.1,0.5,0.2,0.7,0.4
				s0.4,0.4,0.6,0.8C56.3,58.5,56.4,58.9,56.4,59.4z M75.5,47.2l0.6,0.4c-0.1,0.2-0.3,0.4-0.5,0.8s-0.5,0.8-0.9,1.3
				c-0.3,0.5-0.7,1.1-1.1,1.7c-0.4,0.6-0.8,1.2-1.1,1.9c-0.4,0.7-0.8,1.3-1.1,2c-0.4,0.7-0.7,1.3-1,1.9l0,0c-0.4,1-0.8,1.8-1.1,2.5
				c-0.3,0.8-0.5,1.4-0.7,2c-0.2,0.6-0.3,1.1-0.3,1.5c-0.1,0.4-0.1,0.8-0.1,1.1l0,0c0,0.6,0.1,1,0.3,1.2c0.2,0.2,0.4,0.3,0.7,0.3
				l0,0c0.3,0,0.6-0.1,0.9-0.2c0.3-0.2,0.6-0.4,0.8-0.6c0.3-0.2,0.5-0.5,0.7-0.9c0.2-0.3,0.5-0.6,0.7-1c0.2-0.3,0.4-0.6,0.6-0.9
				c0.2-0.3,0.3-0.5,0.4-0.7l0,0l0.5,0.4c-0.1,0.2-0.2,0.4-0.4,0.7c-0.2,0.3-0.4,0.6-0.6,1c-0.2,0.3-0.4,0.7-0.7,1
				c-0.3,0.3-0.6,0.7-0.9,1c-0.3,0.3-0.7,0.5-1.1,0.7c-0.4,0.2-0.8,0.3-1.3,0.3l0,0c-0.2,0-0.4,0-0.7-0.1c-0.2-0.1-0.5-0.2-0.7-0.3
				c-0.2-0.2-0.4-0.4-0.5-0.6c-0.2-0.3-0.3-0.6-0.3-1l0,0c-0.7,0.8-1.5,1.4-2.2,1.8c-0.7,0.4-1.4,0.6-2,0.6l0,0
				c-0.3,0-0.7-0.1-1-0.2c-0.4-0.1-0.7-0.3-1.1-0.6c-0.3-0.3-0.6-0.6-0.9-1.1c-0.2-0.4-0.3-1-0.3-1.6l0,0c0-0.7,0.1-1.4,0.3-2.1
				c0.2-0.7,0.5-1.3,0.9-1.9c0.4-0.6,0.8-1.1,1.3-1.5c0.5-0.5,1-0.8,1.6-1.2c0.5-0.3,1.1-0.6,1.6-0.8c0.6-0.2,1.1-0.3,1.6-0.3l0,0
				c0.6,0,1.1,0.1,1.5,0.2c0.4,0.2,0.6,0.3,0.8,0.5l0,0c0.1-0.3,0.3-0.6,0.6-1.1c0.2-0.4,0.5-0.9,0.8-1.4c0.3-0.5,0.7-1.1,1.1-1.7
				c0.4-0.6,0.8-1.2,1.2-1.8s0.9-1.2,1.4-1.8C74.5,48.3,75,47.7,75.5,47.2L75.5,47.2z M66.7,63.5L66.7,63.5c0.1-0.7,0.2-1.6,0.5-2.6
				c0.3-1,0.7-2.1,1.3-3.4l0,0c-0.1-0.2-0.3-0.4-0.6-0.5c-0.3-0.1-0.5-0.2-0.9-0.2l0,0c-0.5,0-1,0.1-1.5,0.3c-0.5,0.2-1,0.5-1.4,0.8
				c-0.5,0.3-0.9,0.7-1.3,1.2c-0.4,0.5-0.8,1-1.1,1.5c-0.3,0.5-0.5,1.1-0.7,1.6c-0.2,0.6-0.3,1.1-0.3,1.7l0,0c0,0.7,0.2,1.3,0.5,1.7
				c0.3,0.4,0.7,0.6,1.3,0.6l0,0c0.2,0,0.5-0.1,0.8-0.2c0.3-0.1,0.6-0.3,1-0.5c0.4-0.2,0.7-0.5,1.1-0.9C65.9,64.5,66.3,64,66.7,63.5
				z M121.8,71.6l0.4,0.7c0,0-0.2,0.1-0.4,0.2c-0.2,0.1-0.6,0.3-0.9,0.4s-0.8,0.3-1.3,0.4c-0.5,0.1-1,0.2-1.5,0.2l0,0
				c-0.9,0-1.7-0.2-2.3-0.5c-0.7-0.3-1.3-0.7-1.8-1.3c-0.5-0.6-0.8-1.2-1.1-2c-0.3-0.8-0.4-1.7-0.4-2.6l0,0c0-0.9,0.1-1.9,0.3-3
				c0.2-1.1,0.5-2.2,0.9-3.4c0.4-1.2,0.8-2.3,1.2-3.5c0.5-1.2,0.9-2.3,1.4-3.3c0.5-1.1,0.9-2,1.3-2.9c0.4-0.9,0.8-1.6,1.1-2.2l0,0
				c-0.6,0.6-1.2,1.4-1.9,2.2c-0.7,0.8-1.5,1.7-2.3,2.7s-1.6,2-2.5,3.1c-0.9,1.1-1.8,2.3-2.6,3.5c-0.9,1.2-1.8,2.4-2.6,3.7
				c-0.9,1.3-1.7,2.5-2.5,3.8l0,0l-0.7-0.2c0.1-1.6,0.4-3.2,0.7-4.8c0.3-1.6,0.7-3.1,1.2-4.6c0.4-1.5,0.9-2.9,1.4-4.1
				c0.5-1.3,0.9-2.4,1.4-3.5l0,0c-0.7,0.9-1.3,1.9-2,3c-0.7,1.1-1.3,2.2-2,3.3c-0.7,1.1-1.4,2.3-2.1,3.4c-0.7,1.1-1.5,2.2-2.2,3.3
				c-0.8,1-1.6,2-2.4,2.9c-0.9,0.9-1.8,1.7-2.7,2.4c-1,0.7-2,1.2-3.1,1.6c-1.1,0.4-2.3,0.6-3.5,0.6l0,0c-1,0-1.8-0.1-2.6-0.4
				c-0.8-0.3-1.5-0.7-2-1.2c-0.6-0.5-1-1.1-1.3-1.8c-0.3-0.7-0.4-1.4-0.4-2.2l0,0c0-0.8,0.1-1.4,0.4-2.1c0.2-0.6,0.6-1.2,1-1.7
				c0.4-0.5,0.9-0.9,1.4-1.2c0.5-0.4,1.1-0.6,1.7-0.9c0.6-0.2,1.2-0.4,1.8-0.5c0.6-0.1,1.2-0.2,1.7-0.2l0,0c1.2,0,2.3,0.1,3.3,0.4
				c1,0.3,2.1,0.8,3,1.5l0,0l-0.5,0.6c0,0-0.1-0.1-0.4-0.3s-0.6-0.4-1.1-0.6c-0.5-0.2-1-0.4-1.7-0.6c-0.7-0.2-1.5-0.3-2.3-0.3l0,0
				c-0.9,0-1.7,0.1-2.5,0.3c-0.8,0.2-1.5,0.6-2.1,1s-1.1,1-1.5,1.7c-0.4,0.7-0.6,1.5-0.6,2.5l0,0c0,0.7,0.1,1.3,0.4,1.9
				c0.3,0.6,0.6,1.1,1.1,1.5c0.5,0.4,1,0.8,1.7,1s1.4,0.4,2.2,0.4l0,0c1.2,0,2.3-0.3,3.4-0.8c1.1-0.5,2.1-1.2,3.1-2
				c1-0.9,2-1.9,2.9-3c0.9-1.1,1.8-2.4,2.7-3.6c0.9-1.3,1.7-2.6,2.5-3.9s1.6-2.6,2.4-3.9c0.8-1.3,1.5-2.4,2.2-3.5
				c0.7-1.1,1.4-2,2.1-2.8l0,0l0.7,0.4c-0.4,1.3-0.8,2.5-1.1,3.5c-0.3,1-0.6,1.9-0.8,2.7c-0.2,0.8-0.4,1.4-0.6,2
				c-0.2,0.6-0.3,1.1-0.4,1.5c-0.1,0.4-0.2,0.8-0.3,1.2c-0.1,0.3-0.2,0.7-0.3,1c-0.1,0.3-0.2,0.7-0.3,1.1c-0.1,0.4-0.3,0.8-0.4,1.3
				c-0.2,0.5-0.4,1.1-0.6,1.8c-0.2,0.7-0.5,1.5-0.8,2.4l0,0c0.8-1.3,1.7-2.5,2.6-3.7c0.9-1.2,1.8-2.4,2.6-3.5
				c0.9-1.1,1.7-2.2,2.6-3.3c0.8-1,1.6-2,2.4-2.9c0.8-0.9,1.4-1.7,2.1-2.4c0.6-0.7,1.2-1.4,1.6-1.9c0.5-0.5,0.8-0.9,1.1-1.2
				c0.3-0.3,0.4-0.4,0.4-0.4l0,0l0.6,0.5c-0.6,1.4-1.2,2.9-1.7,4.3c-0.6,1.4-1.1,2.9-1.7,4.2c-0.5,1.4-1,2.7-1.5,4
				c-0.5,1.3-0.9,2.5-1.2,3.6c-0.3,1.1-0.6,2.1-0.8,3c-0.2,0.9-0.3,1.7-0.3,2.4l0,0c0,0.8,0.1,1.5,0.3,2.1c0.2,0.6,0.4,1.2,0.8,1.6
				c0.3,0.4,0.8,0.8,1.3,1c0.5,0.2,1.1,0.3,1.7,0.3l0,0c0.5,0,1-0.1,1.4-0.2c0.5-0.1,0.9-0.2,1.2-0.4c0.4-0.1,0.6-0.2,0.9-0.4
				C121.6,71.6,121.8,71.6,121.8,71.6L121.8,71.6z M131.3,57.1l0.5,0.2c-0.1,0.3-0.3,0.6-0.5,1c-0.2,0.4-0.5,0.9-0.7,1.4
				c-0.3,0.5-0.5,1-0.8,1.6c-0.3,0.5-0.5,1.1-0.7,1.6c-0.2,0.5-0.4,1-0.6,1.5c-0.1,0.5-0.2,0.8-0.2,1.2l0,0c0,0.3,0.1,0.5,0.2,0.6
				c0.1,0.1,0.3,0.1,0.5,0.1l0,0c0.3,0,0.6-0.1,0.9-0.3c0.3-0.2,0.6-0.4,0.9-0.7c0.3-0.3,0.6-0.6,0.9-0.9c0.3-0.3,0.5-0.7,0.8-1
				c0.2-0.3,0.5-0.7,0.7-1c0.2-0.3,0.4-0.6,0.5-0.8l0,0l0.5,0.4c-0.2,0.3-0.4,0.7-0.6,1s-0.5,0.7-0.8,1.1c-0.3,0.4-0.6,0.7-0.9,1.1
				c-0.3,0.3-0.7,0.7-1,0.9c-0.3,0.3-0.7,0.5-1.1,0.6c-0.4,0.2-0.8,0.2-1.2,0.2l0,0c-0.6,0-1-0.2-1.3-0.5c-0.3-0.4-0.4-0.8-0.4-1.4
				l0,0c0,0,0-0.1,0-0.3c0-0.1,0-0.2,0-0.3l0,0c-0.5,0.6-1,1.1-1.4,1.5c-0.5,0.4-0.9,0.7-1.3,1c-0.4,0.2-0.8,0.4-1.2,0.5
				c-0.4,0.1-0.8,0.1-1.1,0.1l0,0c-0.4,0-0.7-0.1-1.1-0.2c-0.3-0.1-0.6-0.3-0.9-0.5c-0.3-0.2-0.5-0.5-0.6-0.9
				c-0.1-0.3-0.2-0.7-0.2-1.2l0,0c0-0.6,0.1-1.2,0.4-1.9c0.3-0.7,0.7-1.5,1.3-2.3l0,0c0.5-0.7,1.1-1.3,1.7-1.8
				c0.6-0.5,1.2-0.9,1.7-1.2c0.6-0.3,1.1-0.5,1.6-0.6c0.5-0.1,1-0.2,1.4-0.2l0,0c0.9,0,1.6,0.1,2.1,0.4c0.5,0.3,0.7,0.8,0.8,1.4l0,0
				c0.2-0.2,0.4-0.5,0.6-0.7C130.8,57.6,131,57.3,131.3,57.1L131.3,57.1z M127.2,62.9L127.2,62.9c0.1-0.2,0.3-0.5,0.5-0.8
				c0.2-0.3,0.4-0.7,0.6-1c0.2-0.3,0.4-0.7,0.6-1c0.2-0.3,0.4-0.6,0.5-0.8l0,0c0-0.1,0-0.2,0-0.4c0-0.2-0.1-0.4-0.2-0.6
				c-0.1-0.2-0.3-0.4-0.5-0.5c-0.2-0.2-0.6-0.2-1-0.2l0,0c-0.3,0-0.7,0-1,0.1c-0.4,0.1-0.8,0.2-1.2,0.5c-0.4,0.2-0.9,0.5-1.3,0.9
				c-0.5,0.4-0.9,0.8-1.4,1.4l0,0c-0.7,0.8-1.2,1.6-1.6,2.5c-0.4,0.8-0.6,1.6-0.6,2.2l0,0c0,0.6,0.1,1,0.4,1.3
				c0.3,0.3,0.6,0.5,1.1,0.5l0,0c0.5,0,1.1-0.1,1.5-0.4c0.5-0.2,0.9-0.6,1.3-0.9c0.4-0.4,0.8-0.8,1.2-1.3
				C126.5,63.8,126.8,63.4,127.2,62.9z M146.1,59.4L146.1,59.4c0,0.4-0.1,0.9-0.2,1.3c-0.1,0.4-0.3,0.9-0.6,1.3s-0.5,0.9-0.7,1.3
				c-0.3,0.4-0.5,0.8-0.7,1.2c-0.2,0.4-0.4,0.8-0.6,1.1c-0.1,0.4-0.2,0.7-0.2,1l0,0c0,0.2,0,0.4,0.1,0.5c0.1,0.1,0.2,0.1,0.3,0.1
				l0,0c0.4,0,0.8-0.2,1.3-0.6c0.5-0.4,0.9-0.8,1.4-1.4c0.5-0.6,1-1.2,1.4-1.8c0.5-0.7,0.9-1.3,1.3-1.9l0,0l0.5,0.4
				c-0.1,0.1-0.2,0.4-0.4,0.7c-0.2,0.3-0.5,0.8-0.8,1.2c-0.3,0.5-0.6,0.9-1,1.4c-0.4,0.5-0.8,0.9-1.2,1.3c-0.4,0.4-0.9,0.8-1.3,1
				c-0.5,0.3-0.9,0.4-1.4,0.4l0,0c-0.3,0-0.5,0-0.7-0.1c-0.2-0.1-0.4-0.2-0.6-0.4c-0.2-0.2-0.3-0.3-0.4-0.6
				c-0.1-0.2-0.1-0.4-0.1-0.7l0,0c0-0.4,0.1-0.8,0.3-1.3c0.2-0.4,0.4-0.9,0.6-1.4c0.3-0.5,0.5-1,0.8-1.4c0.3-0.5,0.6-0.9,0.9-1.4
				c0.3-0.4,0.5-0.8,0.6-1.2c0.2-0.4,0.3-0.7,0.3-1l0,0c0-0.3-0.1-0.6-0.2-0.8c-0.2-0.2-0.4-0.3-0.7-0.3l0,0c-0.3,0-0.7,0.1-1.1,0.4
				c-0.4,0.3-0.9,0.6-1.4,1.1c-0.5,0.5-1.1,1.1-1.7,1.9c-0.6,0.7-1.3,1.6-2,2.5l0,0c-0.4,0.5-0.8,1.1-1.2,1.6l0,0
				c-0.2,0.2-0.3,0.4-0.5,0.7c-0.2,0.2-0.3,0.5-0.5,0.7c-0.2,0.2-0.3,0.4-0.5,0.6c-0.2,0.2-0.3,0.4-0.4,0.5l0,0l-1.3-0.5l1.7-2.4
				c0.2-0.3,0.5-0.7,0.8-1.1c0.3-0.4,0.5-0.8,0.8-1.2c0.3-0.4,0.5-0.8,0.7-1.2c0.2-0.4,0.4-0.8,0.6-1.2l0,0c0.3-0.6,0.5-1.1,0.6-1.5
				c0.1-0.4,0.2-0.7,0.2-0.9l0,0c0-0.3,0-0.4-0.1-0.5c-0.1-0.1-0.2-0.1-0.4-0.1l0,0c-0.2,0-0.4,0.1-0.6,0.3s-0.5,0.4-0.8,0.7
				s-0.5,0.6-0.8,1c-0.3,0.4-0.5,0.8-0.8,1.1s-0.5,0.7-0.7,1.1c-0.2,0.3-0.4,0.6-0.5,0.8l0,0l-0.5-0.4c0.5-0.8,1-1.5,1.4-2.2
				c0.4-0.7,0.8-1.2,1.2-1.7c0.4-0.5,0.8-0.8,1.1-1.1c0.4-0.3,0.7-0.4,1.1-0.4l0,0c0.2,0,0.4,0,0.6,0.1s0.4,0.2,0.5,0.4
				c0.2,0.2,0.3,0.4,0.4,0.6c0.1,0.2,0.1,0.5,0.1,0.9l0,0c0,0.3,0,0.5-0.1,0.8l0,0c0.4-0.4,0.8-0.8,1.2-1.1c0.4-0.3,0.7-0.5,1-0.7
				c0.3-0.2,0.6-0.3,0.9-0.3c0.3-0.1,0.5-0.1,0.7-0.1l0,0c0.2,0,0.4,0,0.7,0.1c0.2,0.1,0.5,0.2,0.7,0.4s0.4,0.4,0.6,0.8
				C146,58.5,146.1,58.9,146.1,59.4z M160.6,57.1l0.5,0.2c-0.1,0.3-0.3,0.6-0.5,1c-0.2,0.4-0.5,0.9-0.8,1.4c-0.3,0.5-0.5,1-0.8,1.6
				c-0.3,0.5-0.5,1.1-0.7,1.6c-0.2,0.5-0.4,1-0.5,1.5c-0.1,0.5-0.2,0.8-0.2,1.2l0,0c0,0.3,0.1,0.5,0.2,0.6c0.1,0.1,0.3,0.1,0.5,0.1
				l0,0c0.3,0,0.6-0.1,0.9-0.3c0.3-0.2,0.6-0.4,0.9-0.7c0.3-0.3,0.6-0.6,0.9-0.9c0.3-0.3,0.5-0.7,0.8-1c0.2-0.3,0.5-0.7,0.7-1
				c0.2-0.3,0.4-0.6,0.5-0.8l0,0l0.5,0.4c-0.2,0.3-0.4,0.7-0.6,1c-0.2,0.4-0.5,0.7-0.8,1.1c-0.3,0.4-0.6,0.7-0.9,1.1
				c-0.3,0.3-0.6,0.7-1,0.9c-0.3,0.3-0.7,0.5-1.1,0.6c-0.4,0.2-0.8,0.2-1.2,0.2l0,0c-0.6,0-1-0.2-1.3-0.5c-0.3-0.4-0.4-0.8-0.4-1.4
				l0,0c0,0,0-0.1,0-0.3c0-0.1,0-0.2,0-0.3l0,0c-0.5,0.6-1,1.1-1.4,1.5c-0.4,0.4-0.9,0.7-1.3,1c-0.4,0.2-0.8,0.4-1.2,0.5
				c-0.4,0.1-0.8,0.1-1.1,0.1l0,0c-0.4,0-0.7-0.1-1.1-0.2c-0.3-0.1-0.6-0.3-0.9-0.5c-0.3-0.2-0.5-0.5-0.6-0.9
				c-0.1-0.3-0.2-0.7-0.2-1.2l0,0c0-0.6,0.1-1.2,0.4-1.9c0.3-0.7,0.7-1.5,1.3-2.3l0,0c0.5-0.7,1.1-1.3,1.7-1.8
				c0.6-0.5,1.2-0.9,1.7-1.2c0.6-0.3,1.1-0.5,1.6-0.6c0.5-0.1,1-0.2,1.4-0.2l0,0c0.9,0,1.6,0.1,2.1,0.4c0.5,0.3,0.8,0.8,0.9,1.4l0,0
				c0.2-0.2,0.4-0.5,0.6-0.7C160.1,57.6,160.3,57.3,160.6,57.1L160.6,57.1z M156.5,62.9L156.5,62.9c0.1-0.2,0.3-0.5,0.5-0.8
				c0.2-0.3,0.4-0.7,0.6-1c0.2-0.3,0.4-0.7,0.6-1c0.2-0.3,0.4-0.6,0.5-0.8l0,0c0-0.1,0-0.2,0-0.4c0-0.2-0.1-0.4-0.2-0.6
				c-0.1-0.2-0.3-0.4-0.5-0.5c-0.2-0.2-0.6-0.2-1-0.2l0,0c-0.3,0-0.6,0-1,0.1c-0.4,0.1-0.8,0.2-1.2,0.5c-0.4,0.2-0.9,0.5-1.3,0.9
				c-0.5,0.4-0.9,0.8-1.4,1.4l0,0c-0.7,0.8-1.2,1.6-1.6,2.5c-0.4,0.8-0.6,1.6-0.6,2.2l0,0c0,0.6,0.1,1,0.4,1.3
				c0.3,0.3,0.6,0.5,1.1,0.5l0,0c0.5,0,1.1-0.1,1.5-0.4c0.5-0.2,0.9-0.6,1.3-0.9c0.4-0.4,0.8-0.8,1.2-1.3
				C155.8,63.8,156.1,63.4,156.5,62.9z M168.6,66.6L168.6,66.6c-0.5,0.3-1,0.6-1.6,0.8c-0.5,0.2-1.1,0.3-1.6,0.3l0,0
				c-0.4,0-0.8-0.1-1.1-0.2c-0.4-0.1-0.7-0.3-1-0.5c-0.3-0.3-0.6-0.6-0.8-1c-0.2-0.4-0.3-0.9-0.3-1.5l0,0c0-0.7,0.1-1.5,0.4-2.1
				c0.3-0.7,0.6-1.3,1.1-1.9c0.4-0.6,1-1.1,1.5-1.6c0.6-0.5,1.2-0.9,1.8-1.2c0.6-0.3,1.2-0.6,1.8-0.8c0.6-0.2,1.2-0.3,1.7-0.3l0,0
				c0.5,0,0.9,0.1,1.2,0.2c0.3,0.1,0.6,0.2,0.9,0.4c0.2,0.2,0.4,0.3,0.6,0.5c0.1,0.2,0.3,0.3,0.3,0.5l0,0l0.8-1l0.5,0.3
				c0,0-0.1,0.2-0.2,0.5c-0.2,0.3-0.4,0.7-0.6,1.2c-0.3,0.5-0.6,1.1-0.9,1.8c-0.3,0.7-0.7,1.4-1.1,2.2c-0.4,0.8-0.7,1.5-1.1,2.4
				c-0.4,0.8-0.7,1.6-1.1,2.4l0,0c0.9-0.5,1.7-1,2.4-1.5c0.7-0.5,1.3-1,1.8-1.4c0.5-0.5,1-1,1.5-1.5c0.4-0.5,0.9-1.1,1.3-1.7l0,0
				l0.5,0.4c-0.4,0.6-0.8,1.2-1.3,1.8c-0.5,0.5-1,1.1-1.6,1.6c-0.6,0.5-1.3,1.1-2.2,1.7c-0.8,0.6-1.8,1.2-3,1.9l0,0
				c-0.9,2.3-1.8,4.2-2.7,5.7c-0.9,1.5-1.7,2.7-2.5,3.6c-0.8,0.9-1.5,1.5-2.2,1.9c-0.7,0.4-1.3,0.5-1.8,0.5l0,0
				c-0.2,0-0.5,0-0.7-0.1c-0.2-0.1-0.5-0.2-0.7-0.3c-0.2-0.2-0.4-0.4-0.5-0.7c-0.1-0.3-0.2-0.6-0.2-1.1l0,0c0-0.8,0.2-1.7,0.7-2.5
				c0.4-0.8,1.1-1.6,1.9-2.4c0.8-0.8,1.9-1.6,3.1-2.4c1.2-0.8,2.6-1.6,4.1-2.4l0,0c0.2-0.4,0.4-0.8,0.5-1.2
				C168.3,67.3,168.5,67,168.6,66.6z M169.4,65L169.4,65c0.3-0.5,0.5-1,0.8-1.5c0.3-0.5,0.5-1,0.8-1.5c0.3-0.5,0.6-1,0.9-1.5
				c0.3-0.5,0.7-1.1,1.1-1.6l0,0c0-0.1-0.1-0.3-0.1-0.5c-0.1-0.2-0.2-0.3-0.3-0.4c-0.1-0.1-0.3-0.2-0.5-0.3
				c-0.2-0.1-0.5-0.1-0.8-0.1l0,0c-0.3,0-0.7,0-1.1,0.1c-0.4,0.1-0.9,0.2-1.4,0.5c-0.5,0.2-1,0.5-1.5,0.9c-0.5,0.4-1,0.8-1.4,1.4
				l0,0c-0.7,0.8-1.2,1.6-1.6,2.4c-0.4,0.8-0.5,1.5-0.5,2.2l0,0c0,0.6,0.2,1.1,0.5,1.5c0.3,0.3,0.8,0.5,1.3,0.5l0,0
				c0.6,0,1.2-0.2,1.9-0.5C168.1,66.1,168.8,65.6,169.4,65z M160.1,79.9L160.1,79.9c0.4,0,0.8-0.1,1.2-0.4c0.4-0.3,0.8-0.7,1.2-1.1
				c0.4-0.5,0.8-1,1.2-1.7c0.4-0.6,0.8-1.3,1.2-2c0.4-0.7,0.8-1.4,1.1-2.2c0.4-0.8,0.7-1.5,1-2.2l0,0c-1.5,0.8-2.7,1.6-3.8,2.4
				c-1,0.8-1.9,1.6-2.6,2.4c-0.7,0.8-1.1,1.4-1.4,2.1c-0.3,0.6-0.5,1.1-0.5,1.4l0,0c0,0.4,0.1,0.7,0.3,1
				C159.3,79.8,159.6,79.9,160.1,79.9z M178.1,63.8L178.1,63.8c0,0.1,0,0.2,0,0.4c0,0.1,0,0.2,0,0.3l0,0c0,0.4,0.1,0.7,0.2,1
				c0.1,0.3,0.3,0.6,0.5,0.9c0.2,0.2,0.5,0.4,0.8,0.6c0.3,0.1,0.6,0.2,1,0.2l0,0c1.3,0,2.5-0.4,3.8-1.3c1.2-0.9,2.4-2.3,3.6-4.2l0,0
				l0.5,0.4c-0.7,1.1-1.3,2-2,2.8c-0.7,0.8-1.3,1.4-2,1.8c-0.7,0.5-1.3,0.8-2,1c-0.6,0.2-1.3,0.3-1.8,0.3l0,0
				c-0.4,0-0.9-0.1-1.3-0.2c-0.5-0.1-0.9-0.3-1.3-0.6c-0.4-0.3-0.7-0.7-1-1.1c-0.3-0.5-0.4-1-0.4-1.7l0,0c0-0.7,0.1-1.5,0.4-2.1
				c0.3-0.7,0.6-1.3,1-1.9s0.9-1.1,1.4-1.6c0.5-0.5,1.1-0.9,1.6-1.3c0.5-0.3,1.1-0.6,1.6-0.8c0.5-0.2,1-0.3,1.4-0.3l0,0
				c0.3,0,0.5,0,0.8,0.1c0.3,0.1,0.5,0.2,0.7,0.4s0.4,0.4,0.5,0.7c0.1,0.3,0.2,0.6,0.2,1l0,0c0,0.5-0.1,1-0.4,1.5s-0.6,0.9-1,1.3
				c-0.4,0.4-0.9,0.7-1.4,1c-0.5,0.3-1.1,0.6-1.7,0.8c-0.6,0.2-1.2,0.4-1.8,0.5C179.2,63.7,178.7,63.7,178.1,63.8z M178.3,63.1
				L178.3,63.1c0.7-0.1,1.3-0.2,1.9-0.4c0.6-0.2,1.1-0.5,1.6-0.8c0.5-0.3,0.9-0.6,1.3-1c0.4-0.4,0.7-0.7,1-1.1
				c0.3-0.4,0.5-0.7,0.6-1.1c0.1-0.3,0.2-0.6,0.2-0.9l0,0c0-0.3-0.1-0.5-0.2-0.6c-0.1-0.2-0.3-0.2-0.5-0.2l0,0
				c-0.4,0-0.9,0.2-1.5,0.5c-0.5,0.3-1.1,0.7-1.6,1.3c-0.5,0.6-1.1,1.2-1.5,1.9C178.9,61.5,178.5,62.3,178.3,63.1z M197,61.6
				l0.5,0.4c-0.1,0.2-0.3,0.5-0.5,0.9c-0.2,0.4-0.4,0.8-0.7,1.2c-0.3,0.4-0.6,0.9-0.9,1.3c-0.3,0.4-0.7,0.8-1,1.2
				c-0.4,0.4-0.8,0.6-1.2,0.9c-0.4,0.2-0.9,0.3-1.4,0.3l0,0c-0.3,0-0.5,0-0.8-0.1c-0.2-0.1-0.5-0.2-0.7-0.4
				c-0.2-0.2-0.3-0.4-0.4-0.7c-0.1-0.3-0.2-0.6-0.2-0.9l0,0c0-0.5,0.1-1,0.3-1.5c0.2-0.5,0.4-1,0.7-1.5c0.3-0.5,0.5-1,0.8-1.4
				s0.4-0.7,0.6-1l0,0c0.1-0.2,0.2-0.5,0.2-0.6l0,0c0-0.1,0-0.2-0.1-0.3c-0.1-0.1-0.2-0.2-0.3-0.3c-0.1-0.1-0.3-0.2-0.4-0.3
				c-0.1-0.1-0.2-0.2-0.3-0.4l0,0c-0.2,0.4-0.5,0.8-0.8,1.2l0,0c-0.2,0.3-0.5,0.7-0.7,1.2c-0.3,0.4-0.5,0.9-0.8,1.3l0,0l-0.5-0.4
				l3.2-5l0.4,0.2c0,0.1-0.1,0.2-0.1,0.3c0,0.1-0.1,0.3-0.1,0.4l0,0c0,0.1,0,0.2,0,0.3c0,0.1,0.1,0.2,0.2,0.3l0,0
				c0.4,0.4,0.7,0.6,0.9,0.8c0.2,0.2,0.4,0.3,0.5,0.5c0.1,0.1,0.2,0.2,0.2,0.3c0,0.1,0,0.2,0,0.3l0,0c0,0.1,0,0.3-0.1,0.4
				c0,0.2-0.1,0.4-0.2,0.6c-0.1,0.2-0.2,0.5-0.4,0.8c-0.2,0.3-0.4,0.7-0.6,1.1l0,0c-0.1,0.3-0.3,0.5-0.4,0.8
				c-0.1,0.3-0.3,0.5-0.4,0.8c-0.1,0.3-0.2,0.5-0.3,0.8c-0.1,0.3-0.1,0.5-0.1,0.8l0,0c0,0.2,0,0.3,0.1,0.5c0.1,0.1,0.1,0.2,0.2,0.3
				c0.1,0.1,0.2,0.1,0.3,0.1c0.1,0,0.2,0,0.3,0l0,0c0.3,0,0.7-0.1,1-0.3c0.3-0.2,0.6-0.4,1-0.7c0.3-0.3,0.6-0.7,0.9-1
				c0.3-0.4,0.6-0.8,0.8-1.2c0.3-0.4,0.5-0.8,0.7-1.2C196.6,62.2,196.8,61.9,197,61.6L197,61.6z M230.8,49.1l0.4,0.5
				c0,0-0.2,0.2-0.5,0.5c-0.4,0.3-0.8,0.9-1.4,1.6c-0.6,0.7-1.3,1.6-2.1,2.7c-0.8,1.1-1.6,2.4-2.4,3.9l0,0l-0.6,1
				c0.3-0.1,0.7-0.2,1-0.2c0.3-0.1,0.7-0.1,1-0.2l0,0l0.7-0.1c0.3-0.6,0.6-1,0.9-1.4c0.3-0.4,0.5-0.7,0.7-0.9
				c0.2-0.2,0.4-0.4,0.6-0.4c0.2-0.1,0.4-0.1,0.5-0.1l0,0c0.2,0,0.4,0.1,0.5,0.2c0.2,0.1,0.3,0.4,0.3,0.7l0,0c0,0.3-0.1,0.5-0.2,0.8
				c-0.1,0.2-0.3,0.5-0.6,0.7c-0.2,0.2-0.5,0.4-0.8,0.6s-0.7,0.3-1.1,0.4l0,0c-0.2,0.4-0.4,0.8-0.6,1.2c-0.2,0.4-0.4,0.8-0.6,1.3
				c-0.2,0.4-0.4,0.8-0.7,1.3c-0.2,0.4-0.5,0.8-0.7,1.2l0,0l-1.1-1c0.1-0.1,0.2-0.3,0.4-0.5c0.2-0.2,0.4-0.5,0.6-0.8
				c0.2-0.3,0.4-0.6,0.6-0.9c0.2-0.3,0.4-0.6,0.5-0.9l0,0l0.2-0.4c-0.5,0.1-0.9,0.2-1.4,0.3c-0.5,0.1-0.9,0.2-1.4,0.3l0,0
				c-0.8,1.3-1.5,2.5-2.2,3.6c-0.7,1.1-1.5,2-2.3,2.7c-0.8,0.8-1.7,1.3-2.7,1.8c-1,0.4-2.1,0.6-3.4,0.6l0,0c-0.8,0-1.7-0.1-2.5-0.3
				c-0.8-0.2-1.6-0.6-2.3-1c-0.7-0.4-1.2-1-1.7-1.6c-0.4-0.6-0.6-1.4-0.6-2.2l0,0c0-0.6,0.1-1.2,0.4-1.7c0.3-0.5,0.6-0.9,1-1.3
				c0.4-0.3,0.9-0.6,1.5-0.8c0.6-0.2,1.2-0.3,1.8-0.3l0,0c0.5,0,1.1,0.1,1.6,0.2c0.5,0.1,1.1,0.3,1.6,0.5c0.5,0.2,1,0.5,1.4,0.9
				c0.5,0.3,0.9,0.7,1.2,1.1l0,0l-0.6,0.4c-0.3-0.3-0.6-0.6-1-0.8c-0.4-0.2-0.8-0.4-1.2-0.6c-0.4-0.2-0.8-0.3-1.3-0.4
				c-0.4-0.1-0.9-0.1-1.3-0.1l0,0c-0.5,0-0.9,0.1-1.4,0.2c-0.4,0.1-0.8,0.3-1.2,0.6c-0.3,0.3-0.6,0.6-0.9,1
				c-0.2,0.4-0.3,0.9-0.3,1.5l0,0c0,0.5,0.1,1,0.4,1.5c0.3,0.5,0.6,0.9,1.1,1.2c0.5,0.3,1,0.6,1.6,0.8c0.6,0.2,1.3,0.3,2,0.3l0,0
				c1,0,1.9-0.2,2.7-0.6c0.8-0.4,1.5-0.9,2.2-1.5c0.7-0.6,1.3-1.4,1.9-2.3c0.6-0.9,1.2-1.8,1.8-2.8l0,0c-0.3,0.1-0.6,0.2-0.8,0.3
				c-0.3,0.1-0.6,0.2-0.9,0.3l0,0l-0.3-0.7c0.5-0.1,0.9-0.3,1.3-0.4c0.4-0.1,0.8-0.3,1.2-0.4l0,0c0.6-0.9,1.2-1.9,1.8-2.9
				s1.3-1.9,2-2.9c0.7-0.9,1.5-1.9,2.4-2.7C228.8,50.6,229.7,49.8,230.8,49.1L230.8,49.1z M220.9,56.9l0.3,0.7
				c-0.9,0.4-1.8,0.7-2.7,0.9c-0.9,0.2-1.7,0.3-2.5,0.3l0,0c-0.9,0-1.8-0.1-2.5-0.4c-0.8-0.2-1.4-0.6-2-1c-0.6-0.4-1-1-1.3-1.6
				c-0.3-0.6-0.5-1.3-0.5-2.1l0,0c0-0.9,0.2-1.8,0.5-2.5c0.3-0.7,0.8-1.4,1.3-1.9c0.6-0.6,1.2-1,2-1.4c0.8-0.4,1.6-0.7,2.4-1
				c0.9-0.2,1.8-0.4,2.7-0.5c0.9-0.1,1.9-0.2,2.8-0.2l0,0c1,0,2.1,0.1,3.1,0.2c1,0.1,2,0.3,2.9,0.4c0.9,0.2,1.8,0.3,2.7,0.4
				c0.9,0.1,1.7,0.2,2.6,0.2l0,0c1,0,1.9-0.1,2.7-0.2c0.8-0.1,1.5-0.3,2.1-0.5c0.6-0.2,1-0.3,1.4-0.5c0.3-0.2,0.5-0.2,0.5-0.2l0,0
				l0.4,0.7c0,0-0.2,0.1-0.6,0.3c-0.4,0.2-0.8,0.3-1.5,0.5c-0.6,0.2-1.3,0.4-2.2,0.5c-0.8,0.2-1.8,0.2-2.8,0.2l0,0
				c-0.9,0-1.8-0.1-2.7-0.2c-0.9-0.1-1.8-0.3-2.6-0.4c-0.9-0.1-1.8-0.3-2.8-0.4c-1-0.1-2-0.2-3.1-0.2l0,0c-1.6,0-3.1,0.2-4.3,0.5
				c-1.2,0.3-2.3,0.8-3.1,1.3c-0.8,0.6-1.5,1.3-1.9,2.1c-0.4,0.8-0.6,1.7-0.6,2.8l0,0c0,0.7,0.1,1.3,0.4,1.8c0.3,0.5,0.6,1,1.1,1.3
				c0.5,0.3,1,0.6,1.6,0.8c0.6,0.2,1.2,0.3,1.9,0.3l0,0c0.6,0,1.1,0,1.7-0.1c0.5-0.1,1-0.2,1.4-0.3c0.4-0.1,0.7-0.2,1-0.3
				C220.7,57,220.9,56.9,220.9,56.9L220.9,56.9z M229.4,56.7L229.4,56.7c-0.2,0-0.4,0.2-0.6,0.5c-0.2,0.3-0.4,0.7-0.7,1.2l0,0
				c0.3-0.1,0.6-0.2,0.7-0.4c0.2-0.1,0.3-0.3,0.4-0.4c0.1-0.1,0.2-0.3,0.2-0.4c0-0.1,0.1-0.3,0.1-0.4l0,0c0-0.1,0-0.1-0.1-0.1
				C229.5,56.7,229.5,56.7,229.4,56.7z M239.4,61.6L240,62c-0.2,0.2-0.3,0.5-0.5,0.9c-0.2,0.4-0.4,0.8-0.7,1.2
				c-0.3,0.4-0.6,0.9-0.9,1.3c-0.3,0.4-0.7,0.8-1,1.2c-0.4,0.4-0.8,0.6-1.2,0.9s-0.9,0.3-1.4,0.3l0,0c-0.3,0-0.5,0-0.8-0.1
				c-0.2-0.1-0.5-0.2-0.7-0.4c-0.2-0.2-0.3-0.4-0.4-0.7c-0.1-0.3-0.2-0.6-0.2-0.9l0,0c0-0.5,0.1-1,0.3-1.5c0.2-0.5,0.4-1,0.7-1.5
				c0.3-0.5,0.5-1,0.8-1.4s0.4-0.7,0.6-1l0,0c0.1-0.2,0.2-0.5,0.2-0.6l0,0c0-0.1,0-0.2-0.1-0.3c-0.1-0.1-0.2-0.2-0.3-0.3
				c-0.1-0.1-0.3-0.2-0.4-0.3c-0.1-0.1-0.2-0.2-0.3-0.4l0,0c-0.2,0.4-0.5,0.8-0.8,1.2l0,0c-0.2,0.3-0.5,0.7-0.7,1.2
				c-0.3,0.4-0.5,0.9-0.8,1.3l0,0l-0.5-0.4l3.2-5l0.4,0.2c0,0.1-0.1,0.2-0.1,0.3c0,0.1-0.1,0.3-0.1,0.4l0,0c0,0.1,0,0.2,0.1,0.3
				c0,0.1,0.1,0.2,0.2,0.3l0,0c0.4,0.4,0.7,0.6,0.9,0.8c0.2,0.2,0.4,0.3,0.5,0.5c0.1,0.1,0.2,0.2,0.2,0.3c0,0.1,0,0.2,0,0.3l0,0
				c0,0.1,0,0.3-0.1,0.4c0,0.2-0.1,0.4-0.2,0.6c-0.1,0.2-0.2,0.5-0.4,0.8c-0.2,0.3-0.4,0.7-0.6,1.1l0,0c-0.1,0.3-0.3,0.5-0.4,0.8
				c-0.1,0.3-0.3,0.5-0.4,0.8c-0.1,0.3-0.2,0.5-0.3,0.8c-0.1,0.3-0.1,0.5-0.1,0.8l0,0c0,0.2,0,0.3,0.1,0.5c0.1,0.1,0.1,0.2,0.2,0.3
				c0.1,0.1,0.2,0.1,0.3,0.1c0.1,0,0.2,0,0.3,0l0,0c0.3,0,0.7-0.1,1-0.3c0.3-0.2,0.6-0.4,1-0.7c0.3-0.3,0.6-0.7,0.9-1
				c0.3-0.4,0.6-0.8,0.8-1.2c0.3-0.4,0.5-0.8,0.7-1.2C239,62.2,239.2,61.9,239.4,61.6L239.4,61.6z M248.1,63.1L248.1,63.1
				c0,0,0.1,0,0.1,0c0,0,0.1,0,0.1,0l0,0c0.3,0,0.5,0,0.8-0.1c0.2-0.1,0.4-0.1,0.6-0.3c0.2-0.1,0.4-0.3,0.6-0.5
				c0.2-0.2,0.3-0.4,0.5-0.7l0,0l0.5,0.4c-0.5,0.7-1,1.1-1.5,1.4c-0.5,0.3-1,0.4-1.6,0.4l0,0c-0.2,0-0.4,0-0.5-0.1l0,0
				c-0.4,0.7-0.9,1.3-1.4,1.8c-0.5,0.5-1,0.9-1.5,1.2c-0.5,0.3-1,0.6-1.5,0.7c-0.5,0.1-1,0.2-1.4,0.2l0,0c-0.4,0-0.8-0.1-1.2-0.2
				c-0.4-0.2-0.7-0.4-1-0.7c-0.3-0.3-0.5-0.6-0.6-1c-0.1-0.4-0.2-0.8-0.2-1.3l0,0c0-0.5,0.1-1,0.2-1.5c0.2-0.5,0.4-1,0.6-1.5
				c0.3-0.5,0.6-1,1-1.5c0.4-0.5,0.8-0.9,1.2-1.3s0.9-0.8,1.3-1.1c0.5-0.3,0.9-0.6,1.4-0.8l0,0l0.5,0.6c-0.5,0.4-1.1,0.8-1.6,1.4
				c-0.5,0.6-1,1.2-1.5,1.9c-0.4,0.7-0.8,1.4-1.1,2.1c-0.3,0.7-0.4,1.4-0.4,2.1l0,0c0,0.6,0.1,1.1,0.4,1.4c0.3,0.3,0.7,0.5,1.3,0.5
				l0,0c0.4,0,0.9-0.1,1.3-0.3c0.4-0.2,0.8-0.4,1.2-0.7c0.4-0.3,0.8-0.7,1.2-1.1c0.4-0.4,0.7-0.9,1.1-1.3l0,0
				c-0.3-0.2-0.5-0.4-0.8-0.7c-0.2-0.3-0.4-0.6-0.6-1c-0.1-0.4-0.3-0.8-0.3-1.2c-0.1-0.4-0.1-0.8-0.1-1.3l0,0c0-0.4,0.1-0.8,0.2-1.2
				c0.1-0.4,0.3-0.7,0.5-1c0.2-0.3,0.4-0.5,0.7-0.7c0.3-0.2,0.5-0.3,0.8-0.3l0,0c0.3,0,0.5,0.1,0.7,0.2c0.2,0.1,0.4,0.3,0.5,0.6
				c0.1,0.3,0.3,0.6,0.3,0.9c0.1,0.3,0.1,0.7,0.1,1.1l0,0c0,0.3,0,0.6-0.1,1c-0.1,0.4-0.1,0.7-0.2,1.1c-0.1,0.4-0.2,0.7-0.3,1.1
				C248.4,62.5,248.3,62.8,248.1,63.1z M246.1,59.4L246.1,59.4c0,0.3,0,0.6,0.1,0.9c0.1,0.3,0.1,0.7,0.2,1c0.1,0.3,0.3,0.6,0.4,0.9
				c0.2,0.3,0.4,0.5,0.6,0.6l0,0c0.2-0.3,0.3-0.7,0.5-1.1c0.1-0.4,0.2-0.7,0.3-1c0.1-0.3,0.1-0.6,0.2-0.9c0-0.3,0.1-0.5,0.1-0.8l0,0
				c0-0.3,0-0.6-0.1-0.8s-0.1-0.5-0.2-0.6c-0.1-0.2-0.2-0.3-0.3-0.4c-0.1-0.1-0.3-0.2-0.4-0.2l0,0c-0.2,0-0.4,0.1-0.5,0.2
				c-0.2,0.1-0.3,0.3-0.4,0.5c-0.1,0.2-0.2,0.5-0.3,0.8C246.1,58.8,246.1,59.1,246.1,59.4z M263.5,59.4L263.5,59.4
				c0,0.4-0.1,0.9-0.2,1.3c-0.1,0.4-0.3,0.9-0.6,1.3s-0.5,0.9-0.7,1.3c-0.3,0.4-0.5,0.8-0.7,1.2c-0.2,0.4-0.4,0.8-0.6,1.1
				c-0.1,0.4-0.2,0.7-0.2,1l0,0c0,0.2,0,0.4,0.1,0.5c0.1,0.1,0.2,0.1,0.3,0.1l0,0c0.4,0,0.8-0.2,1.3-0.6c0.5-0.4,0.9-0.8,1.4-1.4
				c0.5-0.6,1-1.2,1.4-1.8c0.5-0.7,0.9-1.3,1.3-1.9l0,0l0.5,0.4c-0.1,0.1-0.2,0.4-0.4,0.7c-0.2,0.3-0.5,0.8-0.8,1.2
				c-0.3,0.5-0.6,0.9-1,1.4c-0.4,0.5-0.8,0.9-1.2,1.3c-0.4,0.4-0.9,0.8-1.3,1c-0.5,0.3-0.9,0.4-1.4,0.4l0,0c-0.3,0-0.5,0-0.7-0.1
				c-0.2-0.1-0.4-0.2-0.6-0.4c-0.2-0.2-0.3-0.3-0.4-0.6c-0.1-0.2-0.1-0.4-0.1-0.7l0,0c0-0.4,0.1-0.8,0.3-1.3
				c0.2-0.4,0.4-0.9,0.6-1.4c0.3-0.5,0.5-1,0.8-1.4c0.3-0.5,0.6-0.9,0.9-1.4c0.3-0.4,0.5-0.8,0.6-1.2c0.2-0.4,0.3-0.7,0.3-1l0,0
				c0-0.3-0.1-0.6-0.2-0.8c-0.2-0.2-0.4-0.3-0.7-0.3l0,0c-0.3,0-0.7,0.1-1.1,0.4c-0.4,0.3-0.9,0.6-1.4,1.1c-0.5,0.5-1.1,1.1-1.7,1.9
				c-0.6,0.7-1.3,1.6-2,2.5l0,0c-0.4,0.5-0.8,1.1-1.2,1.6l0,0c-0.2,0.2-0.3,0.4-0.5,0.7c-0.2,0.2-0.3,0.5-0.5,0.7
				c-0.2,0.2-0.3,0.4-0.5,0.6c-0.2,0.2-0.3,0.4-0.4,0.5l0,0l-1.3-0.5l1.7-2.4c0.2-0.3,0.5-0.7,0.8-1.1c0.3-0.4,0.5-0.8,0.8-1.2
				c0.2-0.4,0.5-0.8,0.7-1.2c0.2-0.4,0.4-0.8,0.6-1.2l0,0c0.3-0.6,0.5-1.1,0.6-1.5c0.1-0.4,0.2-0.7,0.2-0.9l0,0
				c0-0.3-0.1-0.4-0.2-0.5c-0.1-0.1-0.2-0.1-0.4-0.1l0,0c-0.2,0-0.4,0.1-0.6,0.3s-0.5,0.4-0.8,0.7s-0.5,0.6-0.8,1
				c-0.3,0.4-0.5,0.8-0.8,1.1c-0.2,0.4-0.5,0.7-0.7,1.1c-0.2,0.3-0.4,0.6-0.5,0.8l0,0l-0.5-0.4c0.5-0.8,1-1.5,1.4-2.2
				c0.4-0.7,0.8-1.2,1.2-1.7c0.4-0.5,0.8-0.8,1.1-1.1c0.4-0.3,0.7-0.4,1.1-0.4l0,0c0.2,0,0.4,0,0.6,0.1c0.2,0.1,0.4,0.2,0.5,0.4
				c0.2,0.2,0.3,0.4,0.4,0.6c0.1,0.2,0.1,0.5,0.1,0.9l0,0c0,0.3,0,0.5-0.1,0.8l0,0c0.4-0.4,0.8-0.8,1.2-1.1c0.4-0.3,0.7-0.5,1-0.7
				c0.3-0.2,0.6-0.3,0.9-0.3c0.3-0.1,0.5-0.1,0.7-0.1l0,0c0.2,0,0.4,0,0.7,0.1c0.2,0.1,0.5,0.2,0.7,0.4c0.2,0.2,0.4,0.4,0.6,0.8
				C263.4,58.5,263.5,58.9,263.5,59.4z M267.1,54.9h2.6c0.1-0.2,0.3-0.5,0.5-0.9c0.3-0.4,0.6-0.9,0.9-1.4c0.3-0.5,0.7-1,1.1-1.5
				c0.4-0.5,0.8-0.9,1.2-1.3l0,0l0.7,0.4c-0.4,0.7-0.9,1.4-1.3,2.2c-0.4,0.8-0.9,1.6-1.3,2.4l0,0h4.8l-0.3,0.8H271
				c-0.4,0.9-0.9,1.8-1.3,2.7c-0.4,0.9-0.7,1.7-1,2.5c-0.3,0.8-0.5,1.6-0.7,2.3c-0.2,0.7-0.3,1.3-0.3,1.8l0,0c0,0.6,0.1,1.1,0.4,1.4
				c0.3,0.3,0.7,0.4,1.1,0.4l0,0c0.4,0,0.8-0.1,1.2-0.3c0.4-0.2,0.8-0.5,1.2-0.9c0.4-0.4,0.8-0.7,1.1-1.2c0.3-0.4,0.7-0.8,0.9-1.2
				c0.3-0.4,0.5-0.7,0.7-1c0.2-0.3,0.3-0.5,0.3-0.5l0,0l0.5,0.4c-0.3,0.6-0.7,1.2-1.2,1.8s-0.9,1.2-1.5,1.8c-0.5,0.5-1.1,1-1.7,1.4
				c-0.6,0.4-1.3,0.5-2,0.5l0,0c-0.4,0-0.8-0.1-1.2-0.2c-0.3-0.2-0.6-0.4-0.8-0.7c-0.2-0.3-0.4-0.6-0.5-1c-0.1-0.4-0.2-0.8-0.2-1.3
				l0,0c0-0.3,0-0.7,0.1-1.3c0.1-0.5,0.3-1.2,0.5-1.9c0.2-0.8,0.5-1.6,0.9-2.5c0.4-0.9,0.9-1.9,1.4-3l0,0h-2.5L267.1,54.9z
				 M323.2,71.6l0.4,0.7c0,0-0.2,0.1-0.4,0.2c-0.2,0.1-0.6,0.3-0.9,0.4c-0.4,0.1-0.8,0.3-1.3,0.4c-0.5,0.1-1,0.2-1.5,0.2l0,0
				c-0.9,0-1.7-0.2-2.3-0.5c-0.7-0.3-1.3-0.7-1.8-1.3c-0.5-0.6-0.9-1.2-1.1-2c-0.3-0.8-0.4-1.7-0.4-2.6l0,0c0-0.9,0.1-1.9,0.3-3
				c0.2-1.1,0.5-2.2,0.9-3.4c0.4-1.2,0.8-2.3,1.2-3.5c0.5-1.2,0.9-2.3,1.4-3.3c0.5-1.1,0.9-2,1.3-2.9c0.4-0.9,0.8-1.6,1.1-2.2l0,0
				c-0.6,0.6-1.2,1.4-1.9,2.2c-0.7,0.8-1.5,1.7-2.3,2.7c-0.8,1-1.6,2-2.5,3.1c-0.9,1.1-1.8,2.3-2.6,3.5c-0.9,1.2-1.8,2.4-2.6,3.7
				c-0.9,1.3-1.7,2.5-2.5,3.8l0,0l-0.7-0.2c0.1-1.6,0.4-3.2,0.7-4.8c0.3-1.6,0.7-3.1,1.2-4.6c0.4-1.5,0.9-2.9,1.4-4.1
				c0.5-1.3,0.9-2.4,1.4-3.5l0,0c-0.7,0.9-1.3,1.9-2,3c-0.7,1.1-1.3,2.2-2,3.3c-0.7,1.1-1.4,2.3-2.1,3.4c-0.7,1.1-1.5,2.2-2.2,3.3
				c-0.8,1-1.6,2-2.4,2.9s-1.8,1.7-2.7,2.4c-1,0.7-2,1.2-3.1,1.6c-1.1,0.4-2.3,0.6-3.5,0.6l0,0c-1,0-1.8-0.1-2.6-0.4
				c-0.8-0.3-1.4-0.7-2-1.2c-0.6-0.5-1-1.1-1.3-1.8c-0.3-0.7-0.5-1.4-0.5-2.2l0,0c0-0.8,0.1-1.4,0.4-2.1c0.2-0.6,0.6-1.2,1-1.7
				c0.4-0.5,0.9-0.9,1.4-1.2c0.5-0.4,1.1-0.6,1.7-0.9c0.6-0.2,1.2-0.4,1.8-0.5c0.6-0.1,1.2-0.2,1.7-0.2l0,0c1.2,0,2.3,0.1,3.3,0.4
				c1,0.3,2.1,0.8,3,1.5l0,0l-0.5,0.6c0,0-0.1-0.1-0.4-0.3c-0.2-0.2-0.6-0.4-1.1-0.6c-0.5-0.2-1-0.4-1.7-0.6
				c-0.7-0.2-1.5-0.3-2.4-0.3l0,0c-0.9,0-1.7,0.1-2.5,0.3s-1.5,0.6-2.1,1c-0.6,0.5-1.1,1-1.5,1.7c-0.4,0.7-0.5,1.5-0.5,2.5l0,0
				c0,0.7,0.1,1.3,0.4,1.9c0.3,0.6,0.6,1.1,1.1,1.5c0.5,0.4,1,0.8,1.7,1c0.7,0.2,1.4,0.4,2.2,0.4l0,0c1.2,0,2.3-0.3,3.4-0.8
				c1.1-0.5,2.1-1.2,3.2-2c1-0.9,2-1.9,2.9-3c0.9-1.1,1.8-2.4,2.7-3.6c0.9-1.3,1.7-2.6,2.5-3.9s1.6-2.6,2.4-3.9
				c0.8-1.3,1.5-2.4,2.2-3.5c0.7-1.1,1.4-2,2.1-2.8l0,0l0.7,0.4c-0.4,1.3-0.8,2.5-1.1,3.5c-0.3,1-0.6,1.9-0.8,2.7
				c-0.2,0.8-0.4,1.4-0.6,2c-0.2,0.6-0.3,1.1-0.4,1.5c-0.1,0.4-0.2,0.8-0.3,1.2c-0.1,0.3-0.2,0.7-0.3,1c-0.1,0.3-0.2,0.7-0.3,1.1
				c-0.1,0.4-0.3,0.8-0.4,1.3c-0.2,0.5-0.4,1.1-0.6,1.8c-0.2,0.7-0.5,1.5-0.8,2.4l0,0c0.8-1.3,1.7-2.5,2.6-3.7
				c0.9-1.2,1.7-2.4,2.6-3.5c0.9-1.1,1.7-2.2,2.6-3.3c0.8-1,1.6-2,2.4-2.9c0.7-0.9,1.4-1.7,2.1-2.4c0.6-0.7,1.2-1.4,1.6-1.9
				c0.5-0.5,0.8-0.9,1.1-1.2c0.3-0.3,0.4-0.4,0.4-0.4l0,0l0.6,0.5c-0.6,1.4-1.2,2.9-1.7,4.3c-0.6,1.4-1.1,2.9-1.7,4.2
				c-0.5,1.4-1,2.7-1.5,4c-0.5,1.3-0.9,2.5-1.2,3.6c-0.3,1.1-0.6,2.1-0.8,3c-0.2,0.9-0.3,1.7-0.3,2.4l0,0c0,0.8,0.1,1.5,0.3,2.1
				c0.2,0.6,0.4,1.2,0.8,1.6c0.3,0.4,0.8,0.8,1.3,1c0.5,0.2,1.1,0.3,1.7,0.3l0,0c0.5,0,1-0.1,1.4-0.2c0.5-0.1,0.9-0.2,1.2-0.4
				c0.4-0.1,0.6-0.2,0.9-0.4C323.1,71.6,323.2,71.6,323.2,71.6L323.2,71.6z M332.7,57.1l0.5,0.2c-0.1,0.3-0.3,0.6-0.5,1
				c-0.2,0.4-0.5,0.9-0.8,1.4c-0.3,0.5-0.5,1-0.8,1.6c-0.3,0.5-0.5,1.1-0.7,1.6c-0.2,0.5-0.4,1-0.5,1.5c-0.1,0.5-0.2,0.8-0.2,1.2
				l0,0c0,0.3,0.1,0.5,0.2,0.6c0.1,0.1,0.3,0.1,0.5,0.1l0,0c0.3,0,0.6-0.1,0.9-0.3c0.3-0.2,0.6-0.4,0.9-0.7c0.3-0.3,0.6-0.6,0.9-0.9
				c0.3-0.3,0.5-0.7,0.8-1c0.2-0.3,0.5-0.7,0.7-1c0.2-0.3,0.4-0.6,0.5-0.8l0,0l0.5,0.4c-0.2,0.3-0.4,0.7-0.6,1s-0.5,0.7-0.7,1.1
				c-0.3,0.4-0.6,0.7-0.9,1.1c-0.3,0.3-0.7,0.7-1,0.9c-0.4,0.3-0.7,0.5-1.1,0.6c-0.4,0.2-0.8,0.2-1.2,0.2l0,0c-0.6,0-1-0.2-1.3-0.5
				s-0.4-0.8-0.4-1.4l0,0c0,0,0-0.1,0-0.3c0-0.1,0-0.2,0-0.3l0,0c-0.5,0.6-1,1.1-1.4,1.5c-0.5,0.4-0.9,0.7-1.3,1
				c-0.4,0.2-0.8,0.4-1.2,0.5c-0.4,0.1-0.8,0.1-1.1,0.1l0,0c-0.4,0-0.7-0.1-1.1-0.2c-0.3-0.1-0.6-0.3-0.9-0.5
				c-0.2-0.2-0.4-0.5-0.6-0.9c-0.1-0.3-0.2-0.7-0.2-1.2l0,0c0-0.6,0.1-1.2,0.4-1.9c0.2-0.7,0.7-1.5,1.3-2.3l0,0
				c0.5-0.7,1.1-1.3,1.7-1.8c0.6-0.5,1.2-0.9,1.7-1.2c0.6-0.3,1.1-0.5,1.6-0.6c0.5-0.1,1-0.2,1.4-0.2l0,0c0.9,0,1.6,0.1,2.1,0.4
				c0.5,0.3,0.7,0.8,0.8,1.4l0,0c0.2-0.2,0.4-0.5,0.6-0.7C332.2,57.6,332.5,57.3,332.7,57.1L332.7,57.1z M328.6,62.9L328.6,62.9
				c0.1-0.2,0.3-0.5,0.5-0.8c0.2-0.3,0.4-0.7,0.6-1c0.2-0.3,0.4-0.7,0.6-1c0.2-0.3,0.4-0.6,0.5-0.8l0,0c0-0.1,0-0.2,0-0.4
				c0-0.2-0.1-0.4-0.2-0.6c-0.1-0.2-0.3-0.4-0.5-0.5c-0.2-0.2-0.6-0.2-1-0.2l0,0c-0.3,0-0.6,0-1,0.1c-0.4,0.1-0.8,0.2-1.2,0.5
				c-0.4,0.2-0.9,0.5-1.3,0.9c-0.5,0.4-0.9,0.8-1.4,1.4l0,0c-0.7,0.8-1.2,1.6-1.6,2.5c-0.4,0.8-0.6,1.6-0.6,2.2l0,0
				c0,0.6,0.1,1,0.4,1.3c0.3,0.3,0.6,0.5,1.1,0.5l0,0c0.5,0,1.1-0.1,1.5-0.4s0.9-0.6,1.3-0.9c0.4-0.4,0.8-0.8,1.2-1.3
				C327.9,63.8,328.3,63.4,328.6,62.9z M347.5,59.4L347.5,59.4c0,0.4-0.1,0.9-0.2,1.3c-0.2,0.4-0.3,0.9-0.6,1.3
				c-0.2,0.4-0.5,0.9-0.7,1.3c-0.3,0.4-0.5,0.8-0.7,1.2c-0.2,0.4-0.4,0.8-0.6,1.1c-0.1,0.4-0.2,0.7-0.2,1l0,0c0,0.2,0,0.4,0.1,0.5
				c0.1,0.1,0.2,0.1,0.3,0.1l0,0c0.4,0,0.8-0.2,1.3-0.6c0.5-0.4,0.9-0.8,1.4-1.4c0.5-0.6,1-1.2,1.4-1.8c0.5-0.7,0.9-1.3,1.3-1.9l0,0
				l0.5,0.4c-0.1,0.1-0.2,0.4-0.4,0.7c-0.2,0.3-0.5,0.8-0.8,1.2c-0.3,0.5-0.6,0.9-1,1.4c-0.4,0.5-0.8,0.9-1.2,1.3
				c-0.4,0.4-0.9,0.8-1.3,1c-0.5,0.3-0.9,0.4-1.4,0.4l0,0c-0.3,0-0.5,0-0.7-0.1c-0.2-0.1-0.4-0.2-0.6-0.4c-0.2-0.2-0.3-0.3-0.4-0.6
				c-0.1-0.2-0.1-0.4-0.1-0.7l0,0c0-0.4,0.1-0.8,0.3-1.3c0.2-0.4,0.4-0.9,0.6-1.4c0.3-0.5,0.5-1,0.8-1.4c0.3-0.5,0.6-0.9,0.8-1.4
				c0.3-0.4,0.5-0.8,0.6-1.2c0.2-0.4,0.3-0.7,0.3-1l0,0c0-0.3-0.1-0.6-0.2-0.8c-0.2-0.2-0.4-0.3-0.7-0.3l0,0c-0.3,0-0.7,0.1-1.1,0.4
				c-0.4,0.3-0.9,0.6-1.4,1.1c-0.5,0.5-1.1,1.1-1.7,1.9c-0.6,0.7-1.3,1.6-2,2.5l0,0c-0.4,0.5-0.8,1.1-1.2,1.6l0,0
				c-0.2,0.2-0.3,0.4-0.5,0.7s-0.3,0.5-0.5,0.7c-0.2,0.2-0.3,0.4-0.5,0.6c-0.1,0.2-0.3,0.4-0.4,0.5l0,0l-1.3-0.5l1.7-2.4
				c0.2-0.3,0.5-0.7,0.8-1.1c0.3-0.4,0.5-0.8,0.8-1.2c0.3-0.4,0.5-0.8,0.7-1.2c0.2-0.4,0.4-0.8,0.6-1.2l0,0c0.3-0.6,0.5-1.1,0.6-1.5
				c0.1-0.4,0.2-0.7,0.2-0.9l0,0c0-0.3-0.1-0.4-0.2-0.5c-0.1-0.1-0.2-0.1-0.4-0.1l0,0c-0.2,0-0.4,0.1-0.6,0.3
				c-0.2,0.2-0.5,0.4-0.8,0.7c-0.3,0.3-0.5,0.6-0.8,1c-0.3,0.4-0.5,0.8-0.7,1.1c-0.2,0.4-0.5,0.7-0.7,1.1c-0.2,0.3-0.4,0.6-0.5,0.8
				l0,0l-0.5-0.4c0.5-0.8,1-1.5,1.4-2.2c0.4-0.7,0.8-1.2,1.2-1.7c0.4-0.5,0.8-0.8,1.1-1.1c0.4-0.3,0.7-0.4,1.1-0.4l0,0
				c0.2,0,0.4,0,0.6,0.1c0.2,0.1,0.4,0.2,0.5,0.4c0.2,0.2,0.3,0.4,0.4,0.6c0.1,0.2,0.1,0.5,0.1,0.9l0,0c0,0.3,0,0.5-0.1,0.8l0,0
				c0.4-0.4,0.8-0.8,1.2-1.1c0.4-0.3,0.7-0.5,1-0.7c0.3-0.2,0.6-0.3,0.9-0.3c0.3-0.1,0.5-0.1,0.7-0.1l0,0c0.2,0,0.4,0,0.7,0.1
				c0.2,0.1,0.5,0.2,0.7,0.4c0.2,0.2,0.4,0.4,0.6,0.8C347.4,58.5,347.5,58.9,347.5,59.4z M361.9,71h-1.5l12.7-26.1h1.5L361.9,71z
				 M401.4,69.1L401.4,69.1c-0.6,0-1.3-0.1-2-0.2c-0.7-0.1-1.3-0.3-2-0.4c-0.7-0.2-1.3-0.4-2-0.6c-0.7-0.2-1.3-0.4-2-0.6l0,0
				c-0.8,0.5-1.6,0.8-2.4,1.1c-0.9,0.3-1.7,0.4-2.7,0.4l0,0c-0.8,0-1.4-0.1-1.8-0.4c-0.4-0.3-0.6-0.7-0.6-1.1l0,0
				c0-0.6,0.3-1.1,1-1.4c0.7-0.3,1.7-0.5,3.1-0.5l0,0c0.6,0,1.2,0,1.9,0.1c0.6,0.1,1.3,0.2,1.9,0.3l0,0c0.6-0.5,1.2-1.2,1.8-1.8
				c0.6-0.7,1.1-1.4,1.7-2.2l0,0c-0.4,0.1-0.8,0.1-1.2,0.1c-0.4,0-0.8,0-1.3,0l0,0c-1.6,0-2.9-0.2-4.2-0.6c-1.2-0.4-2.2-0.9-3.1-1.5
				c-0.8-0.6-1.5-1.4-1.9-2.3c-0.4-0.9-0.7-1.8-0.7-2.8l0,0c0-1.2,0.2-2.2,0.7-3.2c0.5-0.9,1.1-1.7,1.9-2.3c0.8-0.6,1.7-1.1,2.8-1.4
				c1.1-0.3,2.2-0.5,3.5-0.5l0,0c0.8,0,1.5,0.1,2.1,0.2c0.6,0.1,1.2,0.3,1.7,0.4c0.5,0.1,0.8,0.3,1.1,0.4c0.3,0.1,0.4,0.2,0.4,0.2
				l0,0l-0.4,0.7c0,0-0.1-0.1-0.4-0.2c-0.2-0.1-0.6-0.2-1-0.4c-0.4-0.1-0.9-0.2-1.5-0.4c-0.6-0.1-1.2-0.2-1.9-0.2l0,0
				c-1.2,0-2.2,0.2-3.1,0.5c-0.9,0.3-1.7,0.8-2.3,1.4c-0.6,0.6-1.1,1.3-1.5,2.1c-0.3,0.8-0.5,1.6-0.5,2.5l0,0c0,1,0.2,1.9,0.7,2.7
				c0.5,0.8,1.1,1.5,1.9,2c0.8,0.5,1.7,1,2.7,1.3c1,0.3,2.1,0.4,3.3,0.4l0,0c0.5,0,0.9,0,1.4,0c0.5,0,0.9-0.1,1.3-0.2l0,0
				c0.7-1.1,1.4-2.2,2-3.4c0.7-1.2,1.3-2.3,2-3.5c0.7-1.1,1.3-2.2,2-3.2c0.7-1,1.4-1.9,2.1-2.7c0.7-0.8,1.5-1.4,2.3-1.8
				c0.8-0.5,1.6-0.7,2.6-0.7l0,0c0.4,0,0.7,0.1,1,0.2c0.3,0.1,0.6,0.3,0.8,0.5c0.2,0.2,0.4,0.5,0.5,0.9c0.1,0.4,0.2,0.8,0.2,1.2l0,0
				c0,0.8-0.1,1.6-0.4,2.4c-0.3,0.9-0.7,1.7-1.3,2.6s-1.3,1.7-2.1,2.5c-0.8,0.8-1.7,1.6-2.8,2.3c-1,0.7-2.2,1.3-3.4,1.9
				c-1.2,0.5-2.5,1-3.9,1.3l0,0c-0.7,0.9-1.3,1.8-2,2.5c-0.7,0.8-1.4,1.5-2.2,2.2l0,0c0.8,0.2,1.5,0.4,2.2,0.6
				c0.7,0.2,1.4,0.4,2.1,0.6s1.2,0.3,1.8,0.5c0.6,0.1,1,0.2,1.5,0.2l0,0c0.6,0,1.2-0.1,1.8-0.3c0.6-0.2,1.2-0.6,1.8-1.2l0,0l0.6,0.5
				c0,0-0.1,0.1-0.2,0.2c-0.1,0.1-0.3,0.3-0.4,0.4s-0.4,0.3-0.7,0.5c-0.3,0.2-0.6,0.4-1,0.5c-0.4,0.2-0.9,0.3-1.4,0.4
				C402.6,69,402.1,69.1,401.4,69.1z M410.8,46.3L410.8,46.3c-0.6,0-1.1,0.2-1.7,0.6c-0.5,0.4-1.1,0.9-1.6,1.6
				c-0.6,0.7-1.1,1.5-1.7,2.4c-0.6,0.9-1.2,1.9-1.8,2.9c-0.6,1-1.2,2.1-1.9,3.2c-0.6,1.1-1.3,2.2-2,3.2l0,0c1.2-0.3,2.3-0.8,3.4-1.3
				c1.1-0.5,2.1-1.1,3-1.8c0.9-0.7,1.7-1.4,2.5-2.1c0.7-0.7,1.4-1.5,1.9-2.3c0.5-0.8,0.9-1.6,1.2-2.3c0.3-0.8,0.4-1.5,0.4-2.2l0,0
				c0-0.4,0-0.7-0.1-0.9c-0.1-0.2-0.2-0.5-0.4-0.6c-0.2-0.2-0.3-0.3-0.5-0.3C411.2,46.3,411,46.3,410.8,46.3z M388.2,68L388.2,68
				c0.7,0,1.4-0.1,2.1-0.3c0.7-0.2,1.3-0.5,1.9-0.8l0,0c-0.7-0.2-1.3-0.3-1.9-0.5c-0.6-0.1-1.2-0.2-1.8-0.2l0,0
				c-0.7,0-1.2,0.1-1.5,0.3c-0.3,0.2-0.5,0.4-0.5,0.7l0,0c0,0.1,0,0.2,0.1,0.3c0,0.1,0.1,0.2,0.2,0.3c0.1,0.1,0.3,0.1,0.5,0.2
				C387.6,67.9,387.9,68,388.2,68z M410.7,63.8L410.7,63.8c0,0.1,0,0.2,0,0.4c0,0.1,0,0.2,0,0.3l0,0c0,0.4,0.1,0.7,0.2,1
				c0.1,0.3,0.3,0.6,0.5,0.9c0.2,0.2,0.5,0.4,0.8,0.6c0.3,0.1,0.6,0.2,1,0.2l0,0c1.3,0,2.5-0.4,3.8-1.3c1.2-0.9,2.4-2.3,3.6-4.2l0,0
				l0.5,0.4c-0.7,1.1-1.3,2-2,2.8c-0.7,0.8-1.3,1.4-2,1.8c-0.7,0.5-1.3,0.8-2,1c-0.6,0.2-1.3,0.3-1.8,0.3l0,0
				c-0.4,0-0.9-0.1-1.4-0.2c-0.5-0.1-0.9-0.3-1.3-0.6c-0.4-0.3-0.7-0.7-1-1.1c-0.3-0.5-0.4-1-0.4-1.7l0,0c0-0.7,0.1-1.5,0.4-2.1
				c0.2-0.7,0.6-1.3,1-1.9c0.4-0.6,0.9-1.1,1.4-1.6c0.5-0.5,1.1-0.9,1.6-1.3c0.5-0.3,1.1-0.6,1.6-0.8c0.5-0.2,1-0.3,1.4-0.3l0,0
				c0.3,0,0.5,0,0.8,0.1c0.3,0.1,0.5,0.2,0.7,0.4c0.2,0.2,0.4,0.4,0.5,0.7c0.1,0.3,0.2,0.6,0.2,1l0,0c0,0.5-0.1,1-0.4,1.5
				s-0.6,0.9-1,1.3c-0.4,0.4-0.9,0.7-1.4,1c-0.5,0.3-1.1,0.6-1.7,0.8c-0.6,0.2-1.2,0.4-1.8,0.5C411.8,63.7,411.2,63.7,410.7,63.8z
				 M410.8,63.1L410.8,63.1c0.7-0.1,1.3-0.2,1.9-0.4c0.6-0.2,1.1-0.5,1.6-0.8c0.5-0.3,0.9-0.6,1.3-1c0.4-0.4,0.7-0.7,1-1.1
				c0.3-0.4,0.5-0.7,0.6-1.1c0.1-0.3,0.2-0.6,0.2-0.9l0,0c0-0.3-0.1-0.5-0.2-0.6c-0.1-0.2-0.3-0.2-0.5-0.2l0,0
				c-0.4,0-0.9,0.2-1.5,0.5c-0.5,0.3-1.1,0.7-1.6,1.3c-0.5,0.6-1.1,1.2-1.5,1.9C411.5,61.5,411.1,62.3,410.8,63.1z M424.2,56.8
				l0.6,0.4c-0.6,0.9-1,1.7-1.4,2.5c-0.4,0.8-0.7,1.5-1,2.2c-0.3,0.7-0.4,1.3-0.6,1.8c-0.1,0.5-0.2,1-0.2,1.4l0,0
				c0,0.9,0.3,1.4,0.8,1.4l0,0c0.3,0,0.7-0.2,1.1-0.5c0.4-0.3,0.8-0.7,1.3-1.3c0.4-0.5,0.8-1.1,1.2-1.8c0.4-0.7,0.8-1.4,1.1-2.1l0,0
				l0,0c0.3-0.7,0.6-1.4,0.9-2.1c0.3-0.7,0.7-1.3,1-1.9l0,0l0.7,0.4c-0.2,0.5-0.4,1-0.6,1.7c-0.2,0.7-0.5,1.4-0.7,2.1
				c-0.2,0.7-0.4,1.5-0.5,2.2c-0.2,0.7-0.2,1.4-0.2,2l0,0c0,0.2,0,0.3,0,0.5c0,0.2,0,0.3,0.1,0.4c0,0.1,0.1,0.2,0.2,0.3
				c0.1,0.1,0.2,0.1,0.3,0.1l0,0c0.3,0,0.7-0.1,1.1-0.4c0.4-0.3,0.9-0.7,1.3-1.2c0.4-0.5,0.8-1,1.2-1.6c0.4-0.6,0.7-1.1,1-1.7l0,0
				c-0.4-0.7-0.6-1.6-0.6-2.5l0,0c0-0.5,0-0.9,0.1-1.3c0.1-0.4,0.2-0.6,0.3-0.9c0.1-0.2,0.3-0.4,0.5-0.5c0.2-0.1,0.3-0.1,0.5-0.1
				l0,0c0.3,0,0.5,0.1,0.7,0.4c0.2,0.3,0.3,0.7,0.3,1.4l0,0c0,0.5-0.1,1-0.3,1.6c-0.2,0.6-0.4,1.2-0.7,1.9l0,0
				c0.2,0.3,0.4,0.5,0.6,0.6c0.3,0.2,0.6,0.2,0.9,0.3l0,0l-0.1,0.7c-0.4,0-0.7-0.1-1-0.3c-0.3-0.2-0.6-0.4-0.8-0.6l0,0
				c-0.3,0.6-0.7,1.2-1.1,1.8c-0.4,0.6-0.9,1.1-1.4,1.6c-0.5,0.5-1,0.8-1.5,1.1c-0.5,0.3-1.1,0.4-1.6,0.4l0,0c-0.2,0-0.4,0-0.6-0.1
				s-0.4-0.2-0.5-0.4c-0.2-0.2-0.3-0.4-0.4-0.7c-0.1-0.3-0.1-0.6-0.1-1l0,0c0-0.1,0-0.3,0-0.4c0-0.2,0-0.3,0.1-0.5l0,0
				c-0.3,0.4-0.6,0.9-0.9,1.2c-0.3,0.4-0.6,0.7-0.9,1c-0.3,0.3-0.6,0.5-1,0.7c-0.3,0.2-0.7,0.2-1,0.2l0,0c-0.4,0-0.7-0.1-1-0.2
				c-0.3-0.1-0.5-0.3-0.7-0.6c-0.2-0.2-0.3-0.5-0.4-0.9c-0.1-0.3-0.1-0.7-0.1-1.1l0,0c0-0.7,0.1-1.4,0.3-2.1
				c0.2-0.7,0.5-1.4,0.9-2.1c0.4-0.7,0.8-1.3,1.3-1.9C423.1,57.8,423.6,57.3,424.2,56.8L424.2,56.8z M433.4,60.7L433.4,60.7
				c0.2-0.4,0.3-0.9,0.4-1.4c0.1-0.5,0.2-0.9,0.2-1.3l0,0c0-0.3,0-0.6-0.1-0.7c-0.1-0.1-0.1-0.2-0.1-0.2l0,0c0,0,0,0-0.1,0.1
				c-0.1,0.1-0.1,0.2-0.2,0.3c-0.1,0.2-0.2,0.4-0.2,0.6c-0.1,0.3-0.1,0.6-0.1,1l0,0c0,0.3,0,0.6,0.1,0.9
				C433.2,60.3,433.3,60.5,433.4,60.7z M442.7,54L442.7,54c0,0.2,0,0.4-0.1,0.6c-0.1,0.2-0.2,0.4-0.4,0.6s-0.3,0.3-0.5,0.4
				c-0.2,0.1-0.4,0.2-0.6,0.2l0,0c-0.2,0-0.3-0.1-0.4-0.2c-0.1-0.1-0.1-0.3-0.1-0.5l0,0c0-0.2,0-0.3,0.1-0.6
				c0.1-0.2,0.1-0.4,0.3-0.6c0.1-0.2,0.3-0.4,0.4-0.5c0.2-0.1,0.4-0.2,0.6-0.2l0,0c0.2,0,0.4,0.1,0.5,0.2
				C442.6,53.6,442.7,53.8,442.7,54z M439.4,57.1l0.5,0.2c-0.1,0.3-0.3,0.6-0.5,1c-0.2,0.4-0.5,0.9-0.8,1.4c-0.3,0.5-0.5,1-0.8,1.6
				c-0.3,0.5-0.5,1.1-0.8,1.6c-0.2,0.5-0.4,1-0.5,1.5s-0.2,0.8-0.2,1.2l0,0c0,0.3,0.1,0.5,0.2,0.6c0.1,0.1,0.3,0.2,0.5,0.2l0,0
				c0.4,0,0.8-0.1,1.2-0.4c0.4-0.3,0.8-0.6,1.1-1c0.4-0.4,0.8-0.9,1.1-1.5c0.4-0.6,0.7-1.1,1.1-1.7l0,0l0.5,0.4
				c-0.3,0.5-0.6,1.1-1,1.7c-0.4,0.6-0.8,1.1-1.2,1.6c-0.4,0.5-0.9,0.9-1.5,1.2c-0.5,0.3-1.1,0.5-1.8,0.5l0,0c-0.6,0-1-0.2-1.4-0.5
				c-0.3-0.4-0.5-0.8-0.5-1.4l0,0c0-0.7,0.2-1.4,0.5-2.1c0.3-0.7,0.7-1.4,1.1-2.1c0.5-0.7,1-1.4,1.5-2
				C438.5,58.2,439,57.6,439.4,57.1L439.4,57.1z M446.6,55.5L446.6,55.5c-0.1,0.1-0.1,0.2-0.2,0.3c-0.1,0.1-0.2,0.2-0.2,0.4
				c-0.1,0.1-0.1,0.3-0.2,0.5c-0.1,0.2-0.1,0.4-0.1,0.6l0,0c0,0.2,0.1,0.5,0.2,0.9c0.1,0.4,0.2,0.8,0.3,1.2c0.1,0.5,0.2,1,0.3,1.5
				c0.1,0.5,0.2,1.1,0.2,1.7l0,0c0,0.8-0.1,1.6-0.3,2.2c-0.2,0.6-0.5,1.2-0.9,1.6l0,0c0.8-0.4,1.5-1,2.3-1.8c0.7-0.8,1.5-1.8,2.2-3
				l0,0l0.5,0.4c-0.4,0.7-0.9,1.4-1.4,2.1c-0.5,0.7-1.1,1.3-1.8,1.9c-0.6,0.5-1.3,1-2.1,1.3c-0.7,0.3-1.5,0.5-2.4,0.5l0,0
				c-0.7,0-1.4-0.2-1.9-0.5c-0.5-0.3-0.8-0.9-0.9-1.6l0,0l0.5-0.1c0,0.1,0,0.2,0.1,0.3c0.1,0.1,0.1,0.3,0.3,0.4
				c0.1,0.1,0.3,0.2,0.5,0.3c0.2,0.1,0.5,0.1,0.8,0.1l0,0c0.4,0,0.7-0.1,1-0.3c0.3-0.2,0.6-0.4,0.8-0.7c0.2-0.3,0.4-0.6,0.6-1
				c0.2-0.4,0.3-0.8,0.4-1.2c0.1-0.4,0.2-0.8,0.2-1.2c0-0.4,0.1-0.7,0.1-1.1l0,0c0-0.3,0-0.7,0-1c0-0.4-0.1-0.8-0.1-1.1
				c0-0.3-0.1-0.7-0.1-0.9c0-0.3,0-0.4,0-0.5l0,0v0c-0.1,0.1-0.3,0.3-0.5,0.6c-0.2,0.3-0.4,0.6-0.6,0.9c-0.2,0.3-0.4,0.6-0.6,1
				c-0.2,0.3-0.4,0.6-0.5,0.9c-0.2,0.3-0.3,0.5-0.4,0.7c-0.1,0.2-0.2,0.3-0.2,0.3l0,0l-0.5-0.4c0,0,0.1-0.2,0.4-0.6
				c0.2-0.4,0.6-0.9,0.9-1.6c0.4-0.6,0.8-1.3,1.3-2.1c0.5-0.8,1-1.5,1.5-2.3l0,0L446.6,55.5z M450.9,54.9h2.6
				c0.1-0.2,0.3-0.5,0.5-0.9c0.2-0.4,0.5-0.9,0.9-1.4c0.3-0.5,0.7-1,1.1-1.5c0.4-0.5,0.8-0.9,1.2-1.3l0,0l0.7,0.4
				c-0.4,0.7-0.9,1.4-1.3,2.2c-0.4,0.8-0.9,1.6-1.3,2.4l0,0h4.8l-0.3,0.8h-4.9c-0.4,0.9-0.9,1.8-1.3,2.7c-0.4,0.9-0.7,1.7-1,2.5
				c-0.3,0.8-0.5,1.6-0.7,2.3c-0.2,0.7-0.3,1.3-0.3,1.8l0,0c0,0.6,0.1,1.1,0.4,1.4c0.3,0.3,0.7,0.4,1.1,0.4l0,0
				c0.4,0,0.8-0.1,1.2-0.3c0.4-0.2,0.8-0.5,1.2-0.9c0.4-0.4,0.8-0.7,1.1-1.2c0.4-0.4,0.7-0.8,0.9-1.2c0.3-0.4,0.5-0.7,0.7-1
				c0.2-0.3,0.3-0.5,0.3-0.5l0,0l0.5,0.4c-0.3,0.6-0.7,1.2-1.2,1.8c-0.4,0.6-0.9,1.2-1.4,1.8c-0.5,0.5-1.1,1-1.7,1.4
				c-0.6,0.4-1.3,0.5-2,0.5l0,0c-0.4,0-0.8-0.1-1.2-0.2c-0.3-0.2-0.6-0.4-0.8-0.7c-0.2-0.3-0.4-0.6-0.5-1c-0.1-0.4-0.2-0.8-0.2-1.3
				l0,0c0-0.3,0-0.7,0.1-1.3c0.1-0.5,0.3-1.2,0.5-1.9c0.2-0.8,0.5-1.6,0.9-2.5c0.4-0.9,0.9-1.9,1.5-3l0,0h-2.5L450.9,54.9z
				 M467.2,63.1L467.2,63.1c0,0,0.1,0,0.1,0c0,0,0.1,0,0.1,0l0,0c0.3,0,0.5,0,0.8-0.1c0.2-0.1,0.4-0.1,0.6-0.3
				c0.2-0.1,0.4-0.3,0.6-0.5c0.2-0.2,0.3-0.4,0.5-0.7l0,0l0.5,0.4c-0.5,0.7-1,1.1-1.5,1.4c-0.5,0.3-1,0.4-1.6,0.4l0,0
				c-0.2,0-0.4,0-0.5-0.1l0,0c-0.4,0.7-0.9,1.3-1.4,1.8c-0.5,0.5-1,0.9-1.5,1.2c-0.5,0.3-1,0.6-1.5,0.7c-0.5,0.1-1,0.2-1.4,0.2l0,0
				c-0.4,0-0.8-0.1-1.2-0.2c-0.4-0.2-0.7-0.4-1-0.7c-0.3-0.3-0.5-0.6-0.6-1c-0.1-0.4-0.2-0.8-0.2-1.3l0,0c0-0.5,0.1-1,0.2-1.5
				c0.2-0.5,0.4-1,0.6-1.5c0.3-0.5,0.6-1,1-1.5c0.4-0.5,0.8-0.9,1.2-1.3c0.4-0.4,0.9-0.8,1.3-1.1c0.5-0.3,0.9-0.6,1.4-0.8l0,0
				l0.5,0.6c-0.5,0.4-1.1,0.8-1.6,1.4c-0.5,0.6-1,1.2-1.5,1.9c-0.4,0.7-0.8,1.4-1.1,2.1c-0.3,0.7-0.4,1.4-0.4,2.1l0,0
				c0,0.6,0.1,1.1,0.4,1.4c0.3,0.3,0.7,0.5,1.3,0.5l0,0c0.4,0,0.9-0.1,1.3-0.3c0.4-0.2,0.8-0.4,1.2-0.7c0.4-0.3,0.8-0.7,1.2-1.1
				c0.4-0.4,0.7-0.9,1.1-1.3l0,0c-0.3-0.2-0.5-0.4-0.8-0.7c-0.2-0.3-0.4-0.6-0.5-1c-0.1-0.4-0.3-0.8-0.3-1.2
				c-0.1-0.4-0.1-0.8-0.1-1.3l0,0c0-0.4,0.1-0.8,0.2-1.2c0.1-0.4,0.3-0.7,0.5-1c0.2-0.3,0.4-0.5,0.7-0.7c0.3-0.2,0.5-0.3,0.9-0.3
				l0,0c0.3,0,0.5,0.1,0.7,0.2c0.2,0.1,0.4,0.3,0.6,0.6c0.1,0.3,0.3,0.6,0.3,0.9c0.1,0.3,0.1,0.7,0.1,1.1l0,0c0,0.3,0,0.6-0.1,1
				c0,0.4-0.1,0.7-0.2,1.1c-0.1,0.4-0.2,0.7-0.3,1.1C467.6,62.5,467.4,62.8,467.2,63.1z M465.2,59.4L465.2,59.4c0,0.3,0,0.6,0.1,0.9
				c0.1,0.3,0.1,0.7,0.2,1c0.1,0.3,0.3,0.6,0.4,0.9c0.2,0.3,0.4,0.5,0.6,0.6l0,0c0.2-0.3,0.3-0.7,0.4-1.1c0.1-0.4,0.2-0.7,0.3-1
				c0.1-0.3,0.1-0.6,0.2-0.9c0-0.3,0.1-0.5,0.1-0.8l0,0c0-0.3,0-0.6-0.1-0.8c-0.1-0.2-0.1-0.5-0.2-0.6c-0.1-0.2-0.2-0.3-0.3-0.4
				c-0.1-0.1-0.3-0.2-0.4-0.2l0,0c-0.2,0-0.4,0.1-0.5,0.2c-0.2,0.1-0.3,0.3-0.4,0.5c-0.1,0.2-0.2,0.5-0.3,0.8
				C465.3,58.8,465.2,59.1,465.2,59.4z M482.7,59.4L482.7,59.4c0,0.4-0.1,0.9-0.2,1.3c-0.2,0.4-0.3,0.9-0.6,1.3
				c-0.2,0.4-0.5,0.9-0.7,1.3c-0.3,0.4-0.5,0.8-0.7,1.2c-0.2,0.4-0.4,0.8-0.6,1.1c-0.1,0.4-0.2,0.7-0.2,1l0,0c0,0.2,0,0.4,0.1,0.5
				c0.1,0.1,0.2,0.1,0.3,0.1l0,0c0.4,0,0.8-0.2,1.3-0.6c0.5-0.4,0.9-0.8,1.4-1.4c0.5-0.6,1-1.2,1.4-1.8c0.5-0.7,0.9-1.3,1.3-1.9l0,0
				l0.5,0.4c-0.1,0.1-0.2,0.4-0.4,0.7c-0.2,0.3-0.5,0.8-0.8,1.2c-0.3,0.5-0.6,0.9-1,1.4c-0.4,0.5-0.8,0.9-1.2,1.3
				c-0.4,0.4-0.9,0.8-1.3,1c-0.5,0.3-0.9,0.4-1.4,0.4l0,0c-0.3,0-0.5,0-0.7-0.1c-0.2-0.1-0.4-0.2-0.6-0.4c-0.2-0.2-0.3-0.3-0.4-0.6
				c-0.1-0.2-0.1-0.4-0.1-0.7l0,0c0-0.4,0.1-0.8,0.3-1.3c0.2-0.4,0.4-0.9,0.6-1.4c0.3-0.5,0.5-1,0.8-1.4c0.3-0.5,0.6-0.9,0.8-1.4
				c0.3-0.4,0.5-0.8,0.6-1.2c0.2-0.4,0.3-0.7,0.3-1l0,0c0-0.3-0.1-0.6-0.2-0.8c-0.2-0.2-0.4-0.3-0.7-0.3l0,0c-0.3,0-0.7,0.1-1.1,0.4
				c-0.4,0.3-0.9,0.6-1.4,1.1c-0.5,0.5-1.1,1.1-1.7,1.9c-0.6,0.7-1.3,1.6-2,2.5l0,0c-0.4,0.5-0.8,1.1-1.2,1.6l0,0
				c-0.2,0.2-0.3,0.4-0.5,0.7c-0.2,0.2-0.3,0.5-0.5,0.7c-0.2,0.2-0.3,0.4-0.5,0.6c-0.1,0.2-0.3,0.4-0.4,0.5l0,0l-1.3-0.5l1.7-2.4
				c0.2-0.3,0.5-0.7,0.8-1.1c0.3-0.4,0.5-0.8,0.8-1.2c0.3-0.4,0.5-0.8,0.7-1.2c0.2-0.4,0.4-0.8,0.6-1.2l0,0c0.3-0.6,0.5-1.1,0.6-1.5
				c0.1-0.4,0.2-0.7,0.2-0.9l0,0c0-0.3-0.1-0.4-0.2-0.5c-0.1-0.1-0.2-0.1-0.4-0.1l0,0c-0.2,0-0.4,0.1-0.6,0.3
				c-0.2,0.2-0.5,0.4-0.8,0.7c-0.3,0.3-0.5,0.6-0.8,1c-0.3,0.4-0.5,0.8-0.7,1.1c-0.2,0.4-0.5,0.7-0.7,1.1c-0.2,0.3-0.4,0.6-0.5,0.8
				l0,0l-0.5-0.4c0.5-0.8,1-1.5,1.4-2.2c0.4-0.7,0.8-1.2,1.2-1.7c0.4-0.5,0.8-0.8,1.1-1.1c0.4-0.3,0.7-0.4,1.1-0.4l0,0
				c0.2,0,0.4,0,0.6,0.1c0.2,0.1,0.4,0.2,0.5,0.4c0.2,0.2,0.3,0.4,0.4,0.6c0.1,0.2,0.1,0.5,0.1,0.9l0,0c0,0.3,0,0.5-0.1,0.8l0,0
				c0.4-0.4,0.8-0.8,1.2-1.1c0.4-0.3,0.7-0.5,1-0.7c0.3-0.2,0.6-0.3,0.9-0.3c0.3-0.1,0.5-0.1,0.7-0.1l0,0c0.2,0,0.4,0,0.7,0.1
				c0.2,0.1,0.5,0.2,0.7,0.4c0.2,0.2,0.4,0.4,0.6,0.8C482.6,58.5,482.7,58.9,482.7,59.4z M485.5,69.2l-0.3-0.5
				c0.4-0.2,0.8-0.4,1.1-0.7c0.3-0.3,0.6-0.5,0.7-0.8l0,0c-0.3-0.1-0.5-0.2-0.7-0.4c-0.1-0.2-0.2-0.4-0.2-0.6l0,0
				c0-0.3,0.1-0.6,0.3-0.8c0.2-0.2,0.5-0.3,0.8-0.3l0,0c0.3,0,0.6,0.1,0.8,0.3c0.2,0.2,0.3,0.5,0.3,0.8l0,0c0,0.3-0.1,0.6-0.2,0.9
				c-0.2,0.3-0.4,0.6-0.6,0.9c-0.3,0.3-0.6,0.5-0.9,0.7S485.8,69.1,485.5,69.2L485.5,69.2z M516.9,62.2l-0.4,0.5
				c-1-0.7-1.9-1.5-2.5-2.3s-1.1-1.6-1.4-2.4c-0.3-0.8-0.5-1.6-0.6-2.4c-0.1-0.8-0.1-1.5-0.1-2.1l0,0c0-1.1,0.1-2.1,0.3-3
				c0.2-0.9,0.5-1.7,0.8-2.4c0.3-0.7,0.8-1.3,1.2-1.8c0.5-0.5,0.9-1,1.4-1.3c0.5-0.3,1-0.6,1.5-0.8c0.5-0.2,1-0.3,1.4-0.3l0,0
				c0.7,0,1.3,0.2,1.9,0.5c0.6,0.4,1.1,0.9,1.5,1.5c0.4,0.7,0.7,1.4,1,2.4c0.2,0.9,0.3,1.9,0.3,3l0,0c0,1.5-0.2,2.9-0.5,4.3
				c-0.3,1.4-0.8,2.7-1.3,4c-0.6,1.2-1.3,2.4-2.2,3.4s-1.8,1.9-2.9,2.7c-1.1,0.8-2.3,1.4-3.6,1.8c-1.3,0.4-2.7,0.6-4.2,0.6l0,0
				c-1.3,0-2.5-0.2-3.6-0.5c-1.1-0.3-2.1-0.8-2.9-1.4c-0.8-0.6-1.4-1.2-1.9-2c-0.5-0.8-0.7-1.5-0.7-2.3l0,0c0-0.8,0.1-1.4,0.4-1.9
				c0.2-0.5,0.6-0.9,1-1.2c0.4-0.3,0.9-0.5,1.4-0.7c0.5-0.1,1.1-0.2,1.6-0.2l0,0c1,0,2,0.1,3,0.4c1,0.3,1.9,0.7,2.8,1.2
				c0.9,0.5,1.7,1.2,2.5,1.9c0.8,0.7,1.5,1.6,2.1,2.5l0,0l-0.6,0.4c-0.7-1-1.5-1.9-2.2-2.6c-0.8-0.7-1.6-1.3-2.3-1.7
				c-0.8-0.4-1.5-0.7-2.3-0.9c-0.7-0.2-1.4-0.3-2-0.3l0,0c-0.6,0-1.2,0.1-1.6,0.2c-0.4,0.1-0.8,0.3-1.1,0.6
				c-0.3,0.3-0.5,0.6-0.6,0.9c-0.1,0.4-0.2,0.8-0.2,1.2l0,0c0,0.8,0.2,1.5,0.6,2.2c0.4,0.7,1,1.2,1.6,1.7c0.7,0.5,1.5,0.9,2.4,1.1
				c0.9,0.3,1.8,0.4,2.8,0.4l0,0c1.2,0,2.3-0.2,3.3-0.5c1-0.3,1.9-0.8,2.8-1.3c0.8-0.6,1.6-1.2,2.2-2c0.7-0.8,1.2-1.6,1.8-2.4
				c0.5-0.9,1-1.8,1.3-2.7c0.4-0.9,0.7-1.9,0.9-2.8c0.2-0.9,0.4-1.8,0.5-2.7c0.1-0.9,0.2-1.7,0.2-2.4l0,0c0-1-0.1-1.8-0.3-2.5
				c-0.2-0.7-0.4-1.3-0.7-1.8c-0.3-0.5-0.6-0.9-1-1.1c-0.4-0.2-0.7-0.4-1.1-0.4l0,0c-0.6,0-1.2,0.2-1.8,0.6c-0.6,0.4-1.2,1-1.6,1.9
				c-0.5,0.8-0.9,1.8-1.2,3c-0.3,1.2-0.5,2.5-0.5,4l0,0c0,1.1,0.1,2.1,0.3,3c0.2,0.9,0.5,1.6,0.8,2.3c0.3,0.7,0.7,1.2,1,1.7
				C516.2,61.6,516.5,62,516.9,62.2L516.9,62.2z M539.3,47.2l0.6,0.4c-0.1,0.2-0.3,0.4-0.5,0.8s-0.5,0.8-0.9,1.3
				c-0.3,0.5-0.7,1.1-1.1,1.7c-0.4,0.6-0.8,1.2-1.1,1.9c-0.4,0.7-0.8,1.3-1.1,2c-0.4,0.7-0.7,1.3-1,1.9l0,0c-0.4,1-0.8,1.8-1.1,2.5
				c-0.3,0.8-0.5,1.4-0.7,2c-0.2,0.6-0.3,1.1-0.3,1.5c-0.1,0.4-0.1,0.8-0.1,1.1l0,0c0,0.6,0.1,1,0.3,1.2c0.2,0.2,0.4,0.3,0.7,0.3
				l0,0c0.3,0,0.6-0.1,0.9-0.2c0.3-0.2,0.6-0.4,0.8-0.6c0.3-0.2,0.5-0.5,0.7-0.9c0.2-0.3,0.5-0.6,0.7-1c0.2-0.3,0.4-0.6,0.6-0.9
				c0.2-0.3,0.3-0.5,0.4-0.7l0,0l0.5,0.4c-0.1,0.2-0.2,0.4-0.4,0.7c-0.2,0.3-0.4,0.6-0.6,1c-0.2,0.3-0.4,0.7-0.7,1
				c-0.3,0.3-0.6,0.7-0.9,1c-0.3,0.3-0.7,0.5-1.1,0.7s-0.8,0.3-1.3,0.3l0,0c-0.2,0-0.4,0-0.7-0.1c-0.2-0.1-0.5-0.2-0.7-0.3
				c-0.2-0.2-0.4-0.4-0.5-0.6c-0.2-0.3-0.3-0.6-0.3-1l0,0c-0.7,0.8-1.5,1.4-2.2,1.8c-0.7,0.4-1.4,0.6-2,0.6l0,0
				c-0.3,0-0.7-0.1-1-0.2c-0.4-0.1-0.7-0.3-1.1-0.6c-0.3-0.3-0.6-0.6-0.9-1.1c-0.2-0.4-0.3-1-0.3-1.6l0,0c0-0.7,0.1-1.4,0.3-2.1
				c0.2-0.7,0.5-1.3,0.9-1.9c0.4-0.6,0.8-1.1,1.3-1.5c0.5-0.5,1-0.8,1.6-1.2c0.5-0.3,1.1-0.6,1.6-0.8c0.5-0.2,1.1-0.3,1.6-0.3l0,0
				c0.6,0,1.1,0.1,1.5,0.2c0.4,0.2,0.6,0.3,0.8,0.5l0,0c0.1-0.3,0.3-0.6,0.6-1.1c0.2-0.4,0.5-0.9,0.8-1.4c0.3-0.5,0.7-1.1,1.1-1.7
				c0.4-0.6,0.8-1.2,1.2-1.8s0.9-1.2,1.4-1.8C538.3,48.3,538.8,47.7,539.3,47.2L539.3,47.2z M530.5,63.5L530.5,63.5
				c0.1-0.7,0.2-1.6,0.5-2.6c0.3-1,0.7-2.1,1.3-3.4l0,0c-0.1-0.2-0.3-0.4-0.6-0.5c-0.3-0.1-0.5-0.2-0.9-0.2l0,0
				c-0.5,0-1,0.1-1.5,0.3c-0.5,0.2-1,0.5-1.4,0.8c-0.5,0.3-0.9,0.7-1.3,1.2s-0.8,1-1.1,1.5c-0.3,0.5-0.5,1.1-0.7,1.6
				c-0.2,0.6-0.3,1.1-0.3,1.7l0,0c0,0.7,0.2,1.3,0.5,1.7c0.3,0.4,0.7,0.6,1.3,0.6l0,0c0.2,0,0.5-0.1,0.8-0.2c0.3-0.1,0.6-0.3,1-0.5
				c0.3-0.2,0.7-0.5,1.1-0.9C529.7,64.5,530.1,64,530.5,63.5z M548.8,57.1l0.5,0.2c-0.1,0.3-0.3,0.6-0.5,1c-0.2,0.4-0.5,0.9-0.7,1.4
				c-0.3,0.5-0.5,1-0.8,1.6c-0.3,0.5-0.5,1.1-0.7,1.6c-0.2,0.5-0.4,1-0.6,1.5c-0.1,0.5-0.2,0.8-0.2,1.2l0,0c0,0.3,0.1,0.5,0.2,0.6
				c0.1,0.1,0.3,0.1,0.5,0.1l0,0c0.3,0,0.6-0.1,0.9-0.3c0.3-0.2,0.6-0.4,0.9-0.7c0.3-0.3,0.6-0.6,0.9-0.9c0.3-0.3,0.5-0.7,0.8-1
				c0.2-0.3,0.5-0.7,0.7-1c0.2-0.3,0.4-0.6,0.5-0.8l0,0l0.5,0.4c-0.2,0.3-0.4,0.7-0.6,1c-0.2,0.4-0.5,0.7-0.8,1.1
				c-0.3,0.4-0.6,0.7-0.9,1.1c-0.3,0.3-0.7,0.7-1,0.9c-0.3,0.3-0.7,0.5-1.1,0.6c-0.4,0.2-0.8,0.2-1.2,0.2l0,0c-0.6,0-1-0.2-1.3-0.5
				c-0.3-0.4-0.4-0.8-0.4-1.4l0,0c0,0,0-0.1,0-0.3c0-0.1,0-0.2,0-0.3l0,0c-0.5,0.6-1,1.1-1.4,1.5c-0.5,0.4-0.9,0.7-1.3,1
				s-0.8,0.4-1.2,0.5c-0.4,0.1-0.8,0.1-1.1,0.1l0,0c-0.4,0-0.7-0.1-1.1-0.2c-0.3-0.1-0.6-0.3-0.9-0.5c-0.3-0.2-0.5-0.5-0.6-0.9
				c-0.1-0.3-0.2-0.7-0.2-1.2l0,0c0-0.6,0.1-1.2,0.4-1.9c0.3-0.7,0.7-1.5,1.3-2.3l0,0c0.5-0.7,1.1-1.3,1.7-1.8
				c0.6-0.5,1.2-0.9,1.7-1.2c0.6-0.3,1.1-0.5,1.6-0.6c0.5-0.1,1-0.2,1.4-0.2l0,0c0.9,0,1.6,0.1,2.1,0.4c0.5,0.3,0.7,0.8,0.8,1.4l0,0
				c0.2-0.2,0.4-0.5,0.6-0.7C548.3,57.6,548.5,57.3,548.8,57.1L548.8,57.1z M544.7,62.9L544.7,62.9c0.1-0.2,0.3-0.5,0.5-0.8
				c0.2-0.3,0.4-0.7,0.6-1c0.2-0.3,0.4-0.7,0.6-1c0.2-0.3,0.4-0.6,0.5-0.8l0,0c0-0.1,0-0.2,0-0.4c0-0.2-0.1-0.4-0.2-0.6
				c-0.1-0.2-0.3-0.4-0.5-0.5c-0.2-0.2-0.6-0.2-1-0.2l0,0c-0.3,0-0.7,0-1,0.1c-0.4,0.1-0.8,0.2-1.2,0.5c-0.4,0.2-0.9,0.5-1.3,0.9
				c-0.5,0.4-0.9,0.8-1.4,1.4l0,0c-0.7,0.8-1.2,1.6-1.6,2.5c-0.4,0.8-0.6,1.6-0.6,2.2l0,0c0,0.6,0.1,1,0.4,1.3
				c0.3,0.3,0.6,0.5,1.1,0.5l0,0c0.5,0,1.1-0.1,1.5-0.4c0.5-0.2,0.9-0.6,1.3-0.9c0.4-0.4,0.8-0.8,1.2-1.3
				C544,63.8,544.3,63.4,544.7,62.9z M555,57.4l-1.8,4c0.5-0.7,1.1-1.4,1.6-2c0.6-0.6,1.1-1.1,1.7-1.6c0.6-0.4,1.1-0.8,1.7-1
				c0.6-0.2,1.1-0.4,1.6-0.4l0,0c0.4,0,0.6,0.1,0.9,0.2c0.2,0.1,0.4,0.3,0.6,0.4c0.1,0.2,0.2,0.4,0.3,0.6c0.1,0.2,0.1,0.4,0.1,0.6
				l0,0c0,0.4-0.1,0.7-0.2,1.2c-0.1,0.4-0.3,0.8-0.6,1.3c-0.2,0.4-0.5,0.9-0.7,1.4c-0.3,0.5-0.5,0.9-0.7,1.4
				c-0.2,0.4-0.4,0.9-0.6,1.3c-0.1,0.4-0.2,0.8-0.2,1.2l0,0c0,0.2,0.1,0.4,0.2,0.6c0.1,0.2,0.3,0.3,0.6,0.3l0,0c0.3,0,0.7-0.2,1-0.5
				c0.4-0.3,0.8-0.7,1.2-1.2c0.4-0.5,0.8-1.1,1.2-1.7c0.4-0.6,0.8-1.2,1.1-1.8l0,0l0.5,0.4c-0.1,0.1-0.3,0.4-0.4,0.7
				c-0.2,0.3-0.4,0.7-0.7,1.1c-0.3,0.4-0.5,0.8-0.8,1.3c-0.3,0.4-0.6,0.8-1,1.2c-0.3,0.4-0.7,0.7-1.1,0.9c-0.4,0.2-0.8,0.3-1.2,0.3
				l0,0c-0.3,0-0.5,0-0.8-0.1c-0.3-0.1-0.5-0.2-0.7-0.3s-0.4-0.4-0.5-0.6c-0.1-0.3-0.2-0.6-0.2-1l0,0c0-0.5,0.1-1,0.2-1.5
				c0.2-0.5,0.4-1,0.6-1.5c0.2-0.5,0.5-1,0.8-1.4c0.3-0.5,0.5-0.9,0.8-1.3c0.2-0.4,0.4-0.8,0.6-1.1c0.2-0.3,0.3-0.6,0.3-0.8l0,0
				c0-0.4-0.2-0.6-0.6-0.6l0,0c-0.6,0-1.2,0.2-1.8,0.6c-0.6,0.4-1.3,0.9-1.9,1.4c-0.6,0.6-1.3,1.3-1.9,2c-0.6,0.7-1.2,1.5-1.7,2.2
				l0,0l-2.3,4.2l-1.3-0.5c1.3-2.7,2.5-5.5,3.6-8.1c1.2-2.7,2.4-5.3,3.6-7.9l0,0c0.2-0.4,0.4-0.8,0.7-1.3c0.3-0.5,0.5-1,0.8-1.4
				c0.3-0.5,0.6-0.9,0.9-1.4c0.3-0.4,0.7-0.8,1-1.2c0.4-0.3,0.7-0.6,1.1-0.8c0.4-0.2,0.8-0.3,1.1-0.3l0,0c0.4,0,0.8,0.1,1,0.4
				c0.2,0.2,0.4,0.6,0.4,1l0,0c0,0.5-0.1,1-0.4,1.6c-0.2,0.6-0.6,1.2-1,1.9c-0.4,0.6-0.9,1.3-1.5,2c-0.5,0.7-1.1,1.4-1.7,2.1
				c-0.6,0.7-1.2,1.3-1.8,2S555.6,56.8,555,57.4L555,57.4z M561.9,45.5L561.9,45.5c-0.4,0-0.9,0.2-1.2,0.5c-0.4,0.3-0.8,0.9-1.2,1.7
				c-0.4,0.8-0.9,1.8-1.5,3.1c-0.6,1.3-1.2,2.8-2.1,4.6l0,0c1.1-1.1,2-2.1,2.9-3.1c0.8-1,1.5-1.9,2-2.7c0.5-0.8,1-1.5,1.2-2.1
				c0.3-0.6,0.4-1.1,0.4-1.4l0,0c0-0.2-0.1-0.3-0.2-0.4C562.2,45.5,562.1,45.5,561.9,45.5z M572.6,63.1L572.6,63.1c0,0,0.1,0,0.1,0
				c0,0,0.1,0,0.1,0l0,0c0.3,0,0.5,0,0.8-0.1s0.4-0.1,0.6-0.3c0.2-0.1,0.4-0.3,0.6-0.5c0.2-0.2,0.3-0.4,0.5-0.7l0,0l0.5,0.4
				c-0.5,0.7-1,1.1-1.5,1.4c-0.5,0.3-1,0.4-1.6,0.4l0,0c-0.2,0-0.4,0-0.5-0.1l0,0c-0.4,0.7-0.9,1.3-1.4,1.8c-0.5,0.5-1,0.9-1.5,1.2
				c-0.5,0.3-1,0.6-1.5,0.7c-0.5,0.1-1,0.2-1.4,0.2l0,0c-0.4,0-0.8-0.1-1.2-0.2c-0.4-0.2-0.7-0.4-1-0.7c-0.3-0.3-0.5-0.6-0.6-1
				c-0.1-0.4-0.2-0.8-0.2-1.3l0,0c0-0.5,0.1-1,0.2-1.5c0.2-0.5,0.4-1,0.6-1.5c0.3-0.5,0.6-1,1-1.5c0.4-0.5,0.8-0.9,1.2-1.3
				s0.9-0.8,1.3-1.1c0.5-0.3,0.9-0.6,1.4-0.8l0,0l0.5,0.6c-0.5,0.4-1.1,0.8-1.6,1.4c-0.5,0.6-1,1.2-1.5,1.9
				c-0.4,0.7-0.8,1.4-1.1,2.1c-0.3,0.7-0.4,1.4-0.4,2.1l0,0c0,0.6,0.1,1.1,0.4,1.4c0.3,0.3,0.7,0.5,1.3,0.5l0,0
				c0.4,0,0.9-0.1,1.3-0.3c0.4-0.2,0.8-0.4,1.2-0.7c0.4-0.3,0.8-0.7,1.2-1.1c0.4-0.4,0.7-0.9,1.1-1.3l0,0c-0.3-0.2-0.5-0.4-0.8-0.7
				c-0.2-0.3-0.4-0.6-0.6-1c-0.1-0.4-0.3-0.8-0.3-1.2c-0.1-0.4-0.1-0.8-0.1-1.3l0,0c0-0.4,0.1-0.8,0.2-1.2c0.1-0.4,0.3-0.7,0.5-1
				c0.2-0.3,0.4-0.5,0.7-0.7c0.3-0.2,0.5-0.3,0.8-0.3l0,0c0.3,0,0.5,0.1,0.7,0.2c0.2,0.1,0.4,0.3,0.5,0.6s0.3,0.6,0.3,0.9
				c0.1,0.3,0.1,0.7,0.1,1.1l0,0c0,0.3,0,0.6-0.1,1c-0.1,0.4-0.1,0.7-0.2,1.1c-0.1,0.4-0.2,0.7-0.3,1.1
				C573,62.5,572.8,62.8,572.6,63.1z M570.6,59.4L570.6,59.4c0,0.3,0,0.6,0.1,0.9c0.1,0.3,0.1,0.7,0.2,1c0.1,0.3,0.3,0.6,0.4,0.9
				c0.2,0.3,0.4,0.5,0.6,0.6l0,0c0.2-0.3,0.3-0.7,0.5-1.1c0.1-0.4,0.2-0.7,0.3-1c0.1-0.3,0.1-0.6,0.2-0.9c0-0.3,0.1-0.5,0.1-0.8l0,0
				c0-0.3,0-0.6-0.1-0.8c-0.1-0.2-0.1-0.5-0.2-0.6c-0.1-0.2-0.2-0.3-0.3-0.4c-0.1-0.1-0.3-0.2-0.4-0.2l0,0c-0.2,0-0.4,0.1-0.5,0.2
				c-0.2,0.1-0.3,0.3-0.4,0.5c-0.1,0.2-0.2,0.5-0.3,0.8C570.6,58.8,570.6,59.1,570.6,59.4z"/>
		</g>
	</g>
	<g transform="rotate(0 80.0921 0)">
		<g transform="matrix(1 0 0 1 0 0)">
			<path class="st1" d="M85.9,9.2c1.1,0.2,2,0.7,2.7,1.5c0.7,0.8,1.1,1.7,1.1,2.8l0,0c0,1-0.2,1.8-0.7,2.5c-0.5,0.7-1.2,1.2-2,1.6
				c-0.8,0.4-1.7,0.5-2.7,0.5l0,0h-4.2V0.3h3.5c1.7,0,3,0.4,3.9,1.1c0.9,0.7,1.3,1.9,1.3,3.5l0,0c0,1-0.2,1.9-0.7,2.7
				S86.9,8.9,85.9,9.2L85.9,9.2z M80.6,0.8V9h3.7c1.4,0,2.4-0.4,3.1-1.1c0.7-0.7,1-1.7,1-3l0,0c0-2.7-1.6-4.1-4.7-4.1l0,0H80.6z
				 M84.3,17.7c1.4,0,2.6-0.4,3.6-1.1c0.9-0.7,1.4-1.7,1.4-3l0,0c0-0.9-0.2-1.7-0.7-2.3c-0.5-0.6-1.1-1.1-1.9-1.4s-1.6-0.5-2.4-0.5
				l0,0h-3.7v8.2H84.3z M102.6,8.5h0.4v9.6h-0.5v-2.7c-0.4,0.8-1,1.5-1.8,2.1c-0.8,0.5-1.8,0.8-2.8,0.8l0,0c-0.9,0-1.7-0.2-2.5-0.7
				c-0.8-0.4-1.4-1-1.8-1.8c-0.4-0.8-0.7-1.6-0.7-2.5l0,0c0-1,0.2-1.9,0.7-2.7c0.4-0.8,1.1-1.3,1.8-1.7s1.6-0.6,2.5-0.6l0,0
				c1,0,1.9,0.3,2.7,0.8c0.8,0.5,1.4,1.3,1.8,2.1l0,0L102.6,8.5z M98,17.8c0.8,0,1.6-0.2,2.3-0.6c0.7-0.4,1.2-0.9,1.6-1.5
				s0.6-1.4,0.6-2.2l0,0v-1c-0.2-1-0.7-1.9-1.6-2.7c-0.9-0.7-1.8-1.1-2.9-1.1l0,0c-0.8,0-1.6,0.2-2.3,0.6c-0.7,0.4-1.2,0.9-1.6,1.6
				c-0.4,0.7-0.6,1.5-0.6,2.4l0,0c0,0.8,0.2,1.6,0.6,2.3s1,1.2,1.6,1.6C96.4,17.6,97.2,17.8,98,17.8L98,17.8z M109.7,18.3
				c-0.5,0-1.1-0.1-1.6-0.3c-0.5-0.2-1-0.5-1.3-0.9l0,0l0.3-0.3c0.3,0.3,0.6,0.6,1.1,0.8c0.5,0.2,1,0.3,1.6,0.3l0,0
				c0.7,0,1.3-0.2,1.8-0.5c0.5-0.4,0.7-0.9,0.7-1.7l0,0c0-0.5-0.1-0.9-0.4-1.2s-0.5-0.5-0.9-0.7c-0.3-0.2-0.8-0.3-1.5-0.5l0,0
				c-0.8-0.3-1.3-0.6-1.8-0.9c-0.4-0.3-0.6-0.9-0.6-1.5l0,0c0-0.8,0.3-1.4,0.8-1.8c0.5-0.4,1.1-0.6,1.8-0.6l0,0
				c0.4,0,0.9,0.1,1.4,0.3s0.9,0.5,1.2,0.8l0,0l-0.3,0.3c-0.3-0.3-0.6-0.6-1.1-0.7c-0.4-0.2-0.9-0.3-1.3-0.3l0,0
				c-0.5,0-1,0.2-1.5,0.5c-0.5,0.3-0.7,0.8-0.7,1.4l0,0c0,0.6,0.2,1,0.5,1.3c0.4,0.3,0.9,0.6,1.6,0.8l0,0c0.7,0.2,1.2,0.4,1.6,0.6
				s0.7,0.4,1,0.7c0.3,0.3,0.4,0.8,0.4,1.3l0,0c0,0.9-0.3,1.5-0.8,2C111.4,18.1,110.7,18.3,109.7,18.3L109.7,18.3z M118.4,18.3
				c-0.5,0-1.1-0.1-1.6-0.3c-0.5-0.2-1-0.5-1.3-0.9l0,0l0.3-0.3c0.3,0.3,0.6,0.6,1.1,0.8c0.5,0.2,1,0.3,1.6,0.3l0,0
				c0.7,0,1.3-0.2,1.8-0.5c0.5-0.4,0.7-0.9,0.7-1.7l0,0c0-0.5-0.1-0.9-0.4-1.2s-0.5-0.5-0.9-0.7c-0.3-0.2-0.8-0.3-1.5-0.5l0,0
				c-0.8-0.3-1.3-0.6-1.8-0.9c-0.4-0.3-0.6-0.9-0.6-1.5l0,0c0-0.8,0.3-1.4,0.8-1.8s1.1-0.6,1.8-0.6l0,0c0.4,0,0.9,0.1,1.4,0.3
				s0.9,0.5,1.2,0.8l0,0l-0.3,0.3c-0.3-0.3-0.6-0.6-1.1-0.7c-0.4-0.2-0.9-0.3-1.3-0.3l0,0c-0.5,0-1,0.2-1.5,0.5
				c-0.5,0.3-0.7,0.8-0.7,1.4l0,0c0,0.6,0.2,1,0.5,1.3c0.4,0.3,0.9,0.6,1.6,0.8l0,0c0.7,0.2,1.2,0.4,1.6,0.6c0.4,0.2,0.7,0.4,1,0.7
				c0.3,0.3,0.4,0.8,0.4,1.3l0,0c0,0.9-0.3,1.5-0.8,2C120.1,18.1,119.4,18.3,118.4,18.3L118.4,18.3z M150.1,0L150.1,0l0,18.1h-0.5
				V1.5l-7.8,11h-0.1l-7.8-11v16.6h-0.5V0h0l8.3,11.8L150.1,0z M164.1,8.5h0.4v9.6H164v-2.7c-0.4,0.8-1,1.5-1.8,2.1
				c-0.8,0.5-1.8,0.8-2.8,0.8l0,0c-0.9,0-1.7-0.2-2.5-0.7c-0.8-0.4-1.4-1-1.8-1.8c-0.4-0.8-0.7-1.6-0.7-2.5l0,0c0-1,0.2-1.9,0.7-2.7
				c0.4-0.8,1.1-1.3,1.8-1.7c0.8-0.4,1.6-0.6,2.5-0.6l0,0c1,0,1.9,0.3,2.7,0.8s1.4,1.3,1.8,2.1l0,0L164.1,8.5z M159.5,17.8
				c0.8,0,1.6-0.2,2.3-0.6c0.7-0.4,1.2-0.9,1.6-1.5c0.4-0.7,0.6-1.4,0.6-2.2l0,0v-1c-0.2-1-0.7-1.9-1.6-2.7
				c-0.9-0.7-1.8-1.1-2.9-1.1l0,0c-0.8,0-1.6,0.2-2.3,0.6c-0.7,0.4-1.2,0.9-1.6,1.6c-0.4,0.7-0.6,1.5-0.6,2.4l0,0
				c0,0.8,0.2,1.6,0.6,2.3s1,1.2,1.6,1.6C157.9,17.6,158.7,17.8,159.5,17.8L159.5,17.8z M171.2,18.3c-0.5,0-1.1-0.1-1.6-0.3
				c-0.5-0.2-1-0.5-1.3-0.9l0,0l0.3-0.3c0.3,0.3,0.6,0.6,1.1,0.8c0.5,0.2,1,0.3,1.6,0.3l0,0c0.7,0,1.3-0.2,1.8-0.5
				c0.5-0.4,0.7-0.9,0.7-1.7l0,0c0-0.5-0.1-0.9-0.4-1.2s-0.5-0.5-0.9-0.7s-0.8-0.3-1.5-0.5l0,0c-0.8-0.3-1.3-0.6-1.8-0.9
				c-0.4-0.3-0.6-0.9-0.6-1.5l0,0c0-0.8,0.3-1.4,0.8-1.8s1.1-0.6,1.8-0.6l0,0c0.4,0,0.9,0.1,1.4,0.3c0.5,0.2,0.9,0.5,1.2,0.8l0,0
				l-0.3,0.3c-0.3-0.3-0.6-0.6-1.1-0.7c-0.4-0.2-0.9-0.3-1.3-0.3l0,0c-0.5,0-1,0.2-1.5,0.5c-0.5,0.3-0.7,0.8-0.7,1.4l0,0
				c0,0.6,0.2,1,0.5,1.3c0.4,0.3,0.9,0.6,1.6,0.8l0,0c0.7,0.2,1.2,0.4,1.6,0.6c0.4,0.2,0.7,0.4,1,0.7c0.3,0.3,0.4,0.8,0.4,1.3l0,0
				c0,0.9-0.3,1.5-0.8,2C172.9,18.1,172.2,18.3,171.2,18.3L171.2,18.3z M179,4.3h0.5v4.4h3.2v0.4h-3.2v9H179v-9h-2.2V8.7h2.2V4.3z
				 M189.7,17.8c0.6,0,1.2-0.1,1.7-0.3c0.5-0.2,1-0.5,1.4-0.9l0,0l0.3,0.4c-0.5,0.4-1,0.7-1.6,1c-0.6,0.2-1.2,0.3-1.8,0.3l0,0
				c-0.9,0-1.8-0.2-2.5-0.7c-0.8-0.4-1.4-1-1.8-1.8c-0.4-0.8-0.7-1.6-0.7-2.5l0,0c0-0.9,0.2-1.8,0.7-2.5c0.4-0.8,1.1-1.4,1.8-1.8
				c0.8-0.4,1.6-0.7,2.5-0.7l0,0c1,0,1.9,0.3,2.7,0.9c0.8,0.6,1.3,1.4,1.7,2.4l0,0l-8.5,3.5c0.3,0.8,0.9,1.5,1.6,2
				S188.7,17.8,189.7,17.8L189.7,17.8z M189.7,8.8c-0.8,0-1.6,0.2-2.2,0.6c-0.7,0.4-1.2,1-1.6,1.6c-0.4,0.7-0.6,1.5-0.6,2.3l0,0
				c0,0.5,0.1,0.9,0.2,1.3l0,0l8-3.2c-0.4-0.8-0.9-1.4-1.6-1.9C191.2,9,190.5,8.8,189.7,8.8L189.7,8.8z M198,11.1
				c0.3-0.8,0.8-1.5,1.6-2s1.6-0.7,2.6-0.8l0,0l0,0.5c-0.7,0-1.4,0.2-2.1,0.5c-0.6,0.3-1.1,0.8-1.5,1.3s-0.6,1.2-0.6,1.9l0,0v5.5
				h-0.5V8.5h0.4L198,11.1z M224.7,18.1h-0.6l-4.9-8.2c-0.6,0.1-1.2,0.2-1.8,0.2l0,0h-2.8v8H214V0.3h3.7c0.8,0,1.5,0.2,2.3,0.5
				s1.5,0.8,2,1.6c0.5,0.7,0.8,1.6,0.8,2.7l0,0c0,1.1-0.3,2-0.8,2.9c-0.5,0.9-1.3,1.5-2.4,1.8l0,0L224.7,18.1z M217.2,9.6
				c1.8,0,3.1-0.4,3.9-1.3c0.8-0.9,1.2-1.9,1.2-3.2l0,0c0-0.8-0.2-1.6-0.6-2.2c-0.4-0.7-1-1.2-1.7-1.5c-0.7-0.4-1.5-0.5-2.3-0.5l0,0
				h-3.2v8.8H217.2z M227.9,13.3c0-0.9,0.2-1.8,0.7-2.5s1.1-1.4,1.8-1.8c0.8-0.4,1.6-0.7,2.5-0.7l0,0c0.9,0,1.8,0.2,2.5,0.7
				c0.8,0.4,1.4,1.1,1.8,1.8c0.4,0.8,0.7,1.6,0.7,2.5l0,0c0,0.9-0.2,1.8-0.7,2.5c-0.4,0.8-1.1,1.4-1.8,1.8c-0.8,0.4-1.6,0.7-2.5,0.7
				l0,0c-0.9,0-1.8-0.2-2.5-0.6c-0.8-0.4-1.4-1-1.8-1.8S227.9,14.2,227.9,13.3L227.9,13.3z M228.4,13.3c0,0.8,0.2,1.6,0.6,2.3
				c0.4,0.7,0.9,1.2,1.6,1.6c0.7,0.4,1.4,0.6,2.3,0.6l0,0c0.8,0,1.6-0.2,2.2-0.6s1.2-1,1.6-1.6c0.4-0.7,0.6-1.5,0.6-2.3l0,0
				c0-0.8-0.2-1.6-0.6-2.3c-0.4-0.7-1-1.3-1.6-1.7c-0.7-0.4-1.4-0.6-2.2-0.6l0,0c-0.8,0-1.6,0.2-2.3,0.6c-0.7,0.4-1.2,1-1.6,1.7
				C228.6,11.8,228.4,12.5,228.4,13.3L228.4,13.3z M243.7,18.3c-0.5,0-1.1-0.1-1.6-0.3c-0.5-0.2-1-0.5-1.3-0.9l0,0l0.3-0.3
				c0.3,0.3,0.6,0.6,1.1,0.8c0.5,0.2,1,0.3,1.6,0.3l0,0c0.7,0,1.3-0.2,1.8-0.5c0.5-0.4,0.7-0.9,0.7-1.7l0,0c0-0.5-0.1-0.9-0.4-1.2
				c-0.3-0.3-0.5-0.5-0.9-0.7c-0.3-0.2-0.8-0.3-1.5-0.5l0,0c-0.8-0.3-1.3-0.6-1.8-0.9c-0.4-0.3-0.6-0.9-0.6-1.5l0,0
				c0-0.8,0.3-1.4,0.8-1.8c0.5-0.4,1.1-0.6,1.8-0.6l0,0c0.4,0,0.9,0.1,1.4,0.3c0.5,0.2,0.9,0.5,1.2,0.8l0,0L246,9.8
				c-0.3-0.3-0.6-0.6-1.1-0.7c-0.4-0.2-0.9-0.3-1.3-0.3l0,0c-0.5,0-1,0.2-1.5,0.5c-0.5,0.3-0.7,0.8-0.7,1.4l0,0c0,0.6,0.2,1,0.5,1.3
				c0.4,0.3,0.9,0.6,1.6,0.8l0,0c0.7,0.2,1.2,0.4,1.6,0.6c0.4,0.2,0.7,0.4,1,0.7c0.3,0.3,0.4,0.8,0.4,1.3l0,0c0,0.9-0.3,1.5-0.8,2
				S244.6,18.3,243.7,18.3L243.7,18.3z M252.4,18.3c-0.5,0-1.1-0.1-1.6-0.3c-0.5-0.2-1-0.5-1.3-0.9l0,0l0.3-0.3
				c0.3,0.3,0.6,0.6,1.1,0.8c0.5,0.2,1,0.3,1.6,0.3l0,0c0.7,0,1.3-0.2,1.8-0.5c0.5-0.4,0.7-0.9,0.7-1.7l0,0c0-0.5-0.1-0.9-0.4-1.2
				c-0.3-0.3-0.5-0.5-0.9-0.7s-0.8-0.3-1.5-0.5l0,0c-0.8-0.3-1.3-0.6-1.8-0.9c-0.4-0.3-0.6-0.9-0.6-1.5l0,0c0-0.8,0.3-1.4,0.8-1.8
				c0.5-0.4,1.1-0.6,1.8-0.6l0,0c0.4,0,0.9,0.1,1.4,0.3c0.5,0.2,0.9,0.5,1.2,0.8l0,0l-0.3,0.3c-0.3-0.3-0.6-0.6-1.1-0.7
				c-0.4-0.2-0.9-0.3-1.3-0.3l0,0c-0.5,0-1,0.2-1.5,0.5c-0.5,0.3-0.7,0.8-0.7,1.4l0,0c0,0.6,0.2,1,0.5,1.3c0.4,0.3,0.9,0.6,1.6,0.8
				l0,0c0.7,0.2,1.2,0.4,1.6,0.6c0.4,0.2,0.7,0.4,1,0.7c0.3,0.3,0.4,0.8,0.4,1.3l0,0c0,0.9-0.3,1.5-0.8,2
				C254.1,18.1,253.3,18.3,252.4,18.3L252.4,18.3z M275.7,1.6c-0.6-0.3-1.2-0.5-2-0.7c-0.7-0.2-1.5-0.3-2.2-0.3l0,0
				c-0.8,0-1.6,0.2-2.3,0.5c-0.7,0.3-1.2,0.7-1.5,1.3c-0.4,0.5-0.5,1.1-0.5,1.8l0,0c0,0.7,0.2,1.3,0.6,1.8c0.4,0.5,0.9,0.9,1.5,1.2
				c0.6,0.3,1.4,0.7,2.4,1l0,0c1,0.4,1.9,0.8,2.6,1.1s1.3,0.9,1.7,1.5s0.7,1.5,0.7,2.5l0,0c0,1-0.2,1.9-0.7,2.7s-1.1,1.3-1.9,1.7
				c-0.8,0.4-1.7,0.6-2.8,0.6l0,0c-0.9,0-1.7-0.1-2.4-0.3c-0.7-0.2-1.3-0.4-1.6-0.6c-0.3-0.2-0.8-0.5-1.5-0.9l0,0l0.3-0.5
				c0.6,0.5,1.4,0.9,2.3,1.2c0.9,0.4,1.9,0.6,2.8,0.6l0,0c0.9,0,1.7-0.2,2.4-0.5c0.8-0.3,1.4-0.8,1.8-1.5s0.7-1.5,0.7-2.5l0,0
				c0-0.9-0.2-1.7-0.7-2.3c-0.4-0.6-1-1.1-1.6-1.4c-0.7-0.4-1.5-0.7-2.5-1.1l0,0c-1-0.4-1.8-0.7-2.5-1.1c-0.6-0.3-1.2-0.8-1.6-1.3
				c-0.4-0.5-0.6-1.2-0.6-2l0,0c0-0.8,0.2-1.5,0.6-2.1c0.4-0.6,1-1.1,1.7-1.4c0.7-0.3,1.5-0.5,2.4-0.5l0,0c0.7,0,1.4,0.1,2.3,0.3
				c0.9,0.2,1.6,0.4,2.2,0.7l0,0L275.7,1.6z M281.8,4.3h0.5v4.4h3.2v0.4h-3.2v9h-0.5v-9h-2.2V8.7h2.2V4.3z M292.5,17.8
				c0.6,0,1.2-0.1,1.7-0.3c0.5-0.2,1-0.5,1.4-0.9l0,0l0.3,0.4c-0.5,0.4-1,0.7-1.6,1c-0.6,0.2-1.2,0.3-1.8,0.3l0,0
				c-0.9,0-1.8-0.2-2.5-0.7c-0.8-0.4-1.4-1-1.8-1.8c-0.4-0.8-0.7-1.6-0.7-2.5l0,0c0-0.9,0.2-1.8,0.7-2.5s1.1-1.4,1.8-1.8
				s1.6-0.7,2.5-0.7l0,0c1,0,1.9,0.3,2.7,0.9c0.8,0.6,1.3,1.4,1.7,2.4l0,0l-8.5,3.5c0.3,0.8,0.9,1.5,1.6,2S291.5,17.8,292.5,17.8
				L292.5,17.8z M292.4,8.8c-0.8,0-1.6,0.2-2.2,0.6c-0.7,0.4-1.2,1-1.6,1.6c-0.4,0.7-0.6,1.5-0.6,2.3l0,0c0,0.5,0.1,0.9,0.2,1.3l0,0
				l8-3.2c-0.4-0.8-0.9-1.4-1.6-1.9C294,9,293.3,8.8,292.4,8.8L292.4,8.8z M307.3,8.5h0.5l-4.5,10h-0.2l-4.5-10h0.6l4.1,9.1
				L307.3,8.5z M315,17.8c0.6,0,1.2-0.1,1.7-0.3c0.5-0.2,1-0.5,1.4-0.9l0,0l0.3,0.4c-0.5,0.4-1,0.7-1.6,1c-0.6,0.2-1.2,0.3-1.8,0.3
				l0,0c-0.9,0-1.8-0.2-2.5-0.7c-0.8-0.4-1.4-1-1.8-1.8c-0.4-0.8-0.7-1.6-0.7-2.5l0,0c0-0.9,0.2-1.8,0.7-2.5s1.1-1.4,1.8-1.8
				s1.6-0.7,2.5-0.7l0,0c1,0,1.9,0.3,2.7,0.9c0.8,0.6,1.3,1.4,1.7,2.4l0,0l-8.5,3.5c0.3,0.8,0.9,1.5,1.6,2
				C313.2,17.6,314.1,17.8,315,17.8L315,17.8z M315,8.8c-0.8,0-1.6,0.2-2.2,0.6c-0.7,0.4-1.2,1-1.6,1.6c-0.4,0.7-0.6,1.5-0.6,2.3
				l0,0c0,0.5,0.1,0.9,0.2,1.3l0,0l8-3.2c-0.4-0.8-0.9-1.4-1.6-1.9C316.6,9,315.8,8.8,315,8.8L315,8.8z M327.5,8.3
				c0.9,0,1.6,0.3,2.1,0.8s0.8,1.2,0.8,2.1l0,0v6.9H330v-6.9c0-0.7-0.3-1.3-0.7-1.7c-0.4-0.4-1-0.7-1.8-0.7l0,0
				c-0.7,0-1.4,0.2-2,0.5c-0.6,0.3-1.1,0.8-1.5,1.3c-0.4,0.6-0.6,1.2-0.6,2l0,0v5.6h-0.5V8.5h0.4l0.1,2.6c0.3-0.8,0.8-1.5,1.6-2
				C325.7,8.6,326.6,8.3,327.5,8.3L327.5,8.3z M354.2,18.1h-0.6l-4.9-8.2c-0.6,0.1-1.2,0.2-1.8,0.2l0,0H344v8h-0.5V0.3h3.7
				c0.8,0,1.5,0.2,2.3,0.5s1.5,0.8,2,1.6c0.5,0.7,0.8,1.6,0.8,2.7l0,0c0,1.1-0.3,2-0.8,2.9c-0.5,0.9-1.3,1.5-2.4,1.8l0,0L354.2,18.1
				z M346.8,9.6c1.8,0,3.1-0.4,3.9-1.3c0.8-0.9,1.2-1.9,1.2-3.2l0,0c0-0.8-0.2-1.6-0.6-2.2c-0.4-0.7-1-1.2-1.7-1.5
				c-0.7-0.4-1.5-0.5-2.3-0.5l0,0H344v8.8H346.8z M357.5,13.3c0-0.9,0.2-1.8,0.7-2.5c0.4-0.8,1.1-1.4,1.8-1.8s1.6-0.7,2.5-0.7l0,0
				c0.9,0,1.8,0.2,2.5,0.7c0.8,0.4,1.4,1.1,1.8,1.8c0.4,0.8,0.7,1.6,0.7,2.5l0,0c0,0.9-0.2,1.8-0.7,2.5c-0.4,0.8-1.1,1.4-1.8,1.8
				c-0.8,0.4-1.6,0.7-2.5,0.7l0,0c-0.9,0-1.8-0.2-2.5-0.6s-1.4-1-1.8-1.8S357.5,14.2,357.5,13.3L357.5,13.3z M358,13.3
				c0,0.8,0.2,1.6,0.6,2.3c0.4,0.7,0.9,1.2,1.6,1.6c0.7,0.4,1.4,0.6,2.3,0.6l0,0c0.8,0,1.6-0.2,2.2-0.6c0.7-0.4,1.2-1,1.6-1.6
				c0.4-0.7,0.6-1.5,0.6-2.3l0,0c0-0.8-0.2-1.6-0.6-2.3c-0.4-0.7-1-1.3-1.6-1.7c-0.7-0.4-1.4-0.6-2.2-0.6l0,0
				c-0.8,0-1.6,0.2-2.3,0.6c-0.7,0.4-1.2,1-1.6,1.7S358,12.5,358,13.3L358,13.3z M373.2,18.3c-0.5,0-1.1-0.1-1.6-0.3
				c-0.5-0.2-1-0.5-1.3-0.9l0,0l0.3-0.3c0.3,0.3,0.6,0.6,1.1,0.8c0.5,0.2,1,0.3,1.6,0.3l0,0c0.7,0,1.3-0.2,1.8-0.5
				c0.5-0.4,0.7-0.9,0.7-1.7l0,0c0-0.5-0.1-0.9-0.4-1.2c-0.3-0.3-0.5-0.5-0.9-0.7s-0.8-0.3-1.5-0.5l0,0c-0.8-0.3-1.3-0.6-1.8-0.9
				c-0.4-0.3-0.6-0.9-0.6-1.5l0,0c0-0.8,0.3-1.4,0.8-1.8c0.5-0.4,1.1-0.6,1.8-0.6l0,0c0.4,0,0.9,0.1,1.4,0.3
				c0.5,0.2,0.9,0.5,1.2,0.8l0,0l-0.3,0.3c-0.3-0.3-0.6-0.6-1.1-0.7c-0.4-0.2-0.9-0.3-1.3-0.3l0,0c-0.5,0-1,0.2-1.5,0.5
				c-0.5,0.3-0.7,0.8-0.7,1.4l0,0c0,0.6,0.2,1,0.5,1.3c0.4,0.3,0.9,0.6,1.6,0.8l0,0c0.7,0.2,1.2,0.4,1.6,0.6c0.4,0.2,0.7,0.4,1,0.7
				c0.3,0.3,0.4,0.8,0.4,1.3l0,0c0,0.9-0.3,1.5-0.8,2C374.9,18.1,374.2,18.3,373.2,18.3L373.2,18.3z M381.9,18.3
				c-0.5,0-1.1-0.1-1.6-0.3c-0.5-0.2-1-0.5-1.3-0.9l0,0l0.3-0.3c0.3,0.3,0.6,0.6,1.1,0.8c0.5,0.2,1,0.3,1.6,0.3l0,0
				c0.7,0,1.3-0.2,1.8-0.5c0.5-0.4,0.7-0.9,0.7-1.7l0,0c0-0.5-0.1-0.9-0.4-1.2s-0.5-0.5-0.9-0.7c-0.3-0.2-0.8-0.3-1.5-0.5l0,0
				c-0.8-0.3-1.3-0.6-1.8-0.9c-0.4-0.3-0.6-0.9-0.6-1.5l0,0c0-0.8,0.3-1.4,0.8-1.8c0.5-0.4,1.1-0.6,1.8-0.6l0,0
				c0.4,0,0.9,0.1,1.4,0.3s0.9,0.5,1.2,0.8l0,0l-0.3,0.3c-0.3-0.3-0.6-0.6-1.1-0.7c-0.4-0.2-0.9-0.3-1.3-0.3l0,0
				c-0.5,0-1,0.2-1.5,0.5c-0.5,0.3-0.7,0.8-0.7,1.4l0,0c0,0.6,0.2,1,0.5,1.3c0.4,0.3,0.9,0.6,1.6,0.8l0,0c0.7,0.2,1.2,0.4,1.6,0.6
				s0.7,0.4,1,0.7c0.3,0.3,0.4,0.8,0.4,1.3l0,0c0,0.9-0.3,1.5-0.8,2S382.9,18.3,381.9,18.3L381.9,18.3z M396.5,0.3h0.5V24h-0.5V0.3z
				 M408.8,1.6h3.3v16.5h-0.5v-16h-2.8V1.6z M421.5,8c0.9-0.1,1.7,0.1,2.5,0.5c0.7,0.4,1.3,0.9,1.8,1.6s0.7,1.6,0.7,2.6l0,0
				c0,1.1-0.2,2.1-0.7,2.9c-0.5,0.9-1.2,1.5-2,2c-0.9,0.5-1.9,0.7-3,0.7l0,0c-0.7,0-1.4-0.1-2.1-0.4c-0.7-0.3-1.2-0.7-1.7-1.2l0,0
				l0.3-0.4c0.4,0.5,0.9,0.9,1.6,1.1s1.3,0.4,2,0.4l0,0c1,0,1.9-0.2,2.7-0.7c0.8-0.4,1.4-1.1,1.8-1.9c0.4-0.8,0.7-1.7,0.7-2.7l0,0
				c0-1.3-0.4-2.3-1.2-3.1s-1.9-1.1-3.3-1.1l0,0c-0.5,0-0.9,0.1-1.4,0.2c-0.5,0.1-0.8,0.3-1.1,0.4l0,0L418.9,9l5.6-6.9h-7.2V1.6h8.1
				L420,8.2C420.4,8.1,421,8,421.5,8L421.5,8z M444.7,9.2c1.1,0.2,2,0.7,2.7,1.5c0.7,0.8,1.1,1.7,1.1,2.8l0,0c0,1-0.2,1.8-0.7,2.5
				c-0.5,0.7-1.2,1.2-2,1.6c-0.8,0.4-1.7,0.5-2.7,0.5l0,0h-4.2V0.3h3.5c1.7,0,3,0.4,3.9,1.1c0.9,0.7,1.3,1.9,1.3,3.5l0,0
				c0,1-0.2,1.9-0.7,2.7C446.4,8.4,445.7,8.9,444.7,9.2L444.7,9.2z M439.4,0.8V9h3.7c1.4,0,2.4-0.4,3.1-1.1c0.7-0.7,1-1.7,1-3l0,0
				c0-2.7-1.6-4.1-4.7-4.1l0,0H439.4z M443.1,17.7c1.4,0,2.6-0.4,3.6-1.1c0.9-0.7,1.4-1.7,1.4-3l0,0c0-0.9-0.2-1.7-0.7-2.3
				c-0.5-0.6-1.1-1.1-1.9-1.4c-0.8-0.3-1.6-0.5-2.4-0.5l0,0h-3.7v8.2H443.1z M451.8,13.3c0-0.9,0.2-1.8,0.7-2.5s1.1-1.4,1.8-1.8
				c0.8-0.4,1.6-0.7,2.5-0.7l0,0c0.9,0,1.8,0.2,2.5,0.7s1.4,1.1,1.8,1.8c0.4,0.8,0.7,1.6,0.7,2.5l0,0c0,0.9-0.2,1.8-0.7,2.5
				c-0.4,0.8-1.1,1.4-1.8,1.8c-0.8,0.4-1.6,0.7-2.5,0.7l0,0c-0.9,0-1.8-0.2-2.5-0.6c-0.8-0.4-1.4-1-1.8-1.8
				C452,15.1,451.8,14.2,451.8,13.3L451.8,13.3z M452.3,13.3c0,0.8,0.2,1.6,0.6,2.3c0.4,0.7,0.9,1.2,1.6,1.6
				c0.7,0.4,1.4,0.6,2.3,0.6l0,0c0.8,0,1.6-0.2,2.2-0.6c0.7-0.4,1.2-1,1.6-1.6c0.4-0.7,0.6-1.5,0.6-2.3l0,0c0-0.8-0.2-1.6-0.6-2.3
				c-0.4-0.7-1-1.3-1.6-1.7c-0.7-0.4-1.4-0.6-2.2-0.6l0,0c-0.8,0-1.6,0.2-2.3,0.6c-0.7,0.4-1.2,1-1.6,1.7S452.3,12.5,452.3,13.3
				L452.3,13.3z M470.2,8.3c0.9,0,1.6,0.3,2.1,0.8c0.5,0.5,0.8,1.2,0.8,2.1l0,0v6.9h-0.5v-6.9c0-0.7-0.3-1.3-0.7-1.7
				c-0.4-0.4-1-0.7-1.8-0.7l0,0c-0.7,0-1.4,0.2-2,0.5c-0.6,0.3-1.1,0.8-1.5,1.3c-0.4,0.6-0.6,1.2-0.6,2l0,0v5.6h-0.5V8.5h0.4
				l0.1,2.6c0.3-0.8,0.8-1.5,1.6-2C468.4,8.6,469.2,8.3,470.2,8.3L470.2,8.3z M481.9,17.8c0.6,0,1.2-0.1,1.7-0.3
				c0.5-0.2,1-0.5,1.4-0.9l0,0l0.3,0.4c-0.5,0.4-1,0.7-1.6,1c-0.6,0.2-1.2,0.3-1.8,0.3l0,0c-0.9,0-1.8-0.2-2.5-0.7
				c-0.8-0.4-1.4-1-1.8-1.8c-0.4-0.8-0.7-1.6-0.7-2.5l0,0c0-0.9,0.2-1.8,0.7-2.5s1.1-1.4,1.8-1.8s1.6-0.7,2.5-0.7l0,0
				c1,0,1.9,0.3,2.7,0.9c0.8,0.6,1.3,1.4,1.7,2.4l0,0l-8.5,3.5c0.3,0.8,0.9,1.5,1.6,2C480,17.6,480.9,17.8,481.9,17.8L481.9,17.8z
				 M481.9,8.8c-0.8,0-1.6,0.2-2.2,0.6c-0.7,0.4-1.2,1-1.6,1.6c-0.4,0.7-0.6,1.5-0.6,2.3l0,0c0,0.5,0.1,0.9,0.2,1.3l0,0l8-3.2
				c-0.4-0.8-0.9-1.4-1.6-1.9C483.4,9,482.7,8.8,481.9,8.8L481.9,8.8z M495.8,8.5l-6.4,9.1h6.3v0.5h-7.3l6.5-9.1h-5.3
				c-0.4,0-0.8-0.1-1-0.3c-0.2-0.2-0.3-0.5-0.3-0.9l0,0V7.6h0.4v0.3c0,0.2,0.1,0.3,0.2,0.4c0.1,0.1,0.4,0.2,0.6,0.2l0,0H495.8z"/>
		</g>
	</g>
</g>
</svg>
