<?xml version="1.0" encoding="utf-8"?>
<!-- Generator: Adobe Illustrator 24.2.1, SVG Export Plug-In . SVG Version: 6.00 Build 0)  -->
<svg version="1.1" id="Layer_1" xmlns="http://www.w3.org/2000/svg" xmlns:xlink="http://www.w3.org/1999/xlink" x="0px" y="0px"
	 viewBox="0 0 512.6 199.2" style="enable-background:new 0 0 512.6 199.2;" xml:space="preserve">
<style type="text/css">
	.st0{fill:#E5E5E5;}
	.st1{fill:#E9E41D;}
</style>
<g>
	<g transform="rotate(0 0 175.9291)">
		<g transform="matrix(1 0 0 1 0 0)">
			<path class="st0" d="M6.2,194.7H0v-17.5h5.6c1.1,0,2,0.1,2.8,0.3s1.4,0.5,1.9,0.9c0.5,0.4,0.9,0.9,1.1,1.4
				c0.2,0.6,0.4,1.2,0.4,1.9l0,0c0,0.4-0.1,0.8-0.2,1.2c-0.1,0.4-0.3,0.8-0.6,1.1c-0.3,0.3-0.6,0.6-1,0.9c-0.4,0.3-0.9,0.5-1.5,0.7
				l0,0c1.3,0.3,2.2,0.7,2.9,1.4c0.7,0.7,1,1.6,1,2.6l0,0c0,0.7-0.1,1.4-0.4,2c-0.3,0.6-0.7,1.1-1.2,1.6c-0.5,0.4-1.2,0.8-1.9,1
				C8.1,194.6,7.2,194.7,6.2,194.7L6.2,194.7z M6.2,186.7H2.4v6.1h3.8c0.7,0,1.3-0.1,1.7-0.2c0.5-0.2,0.9-0.4,1.2-0.7
				c0.3-0.3,0.5-0.6,0.7-1c0.1-0.4,0.2-0.8,0.2-1.3l0,0c0-0.9-0.3-1.6-1-2.1S7.5,186.7,6.2,186.7L6.2,186.7z M2.4,179v6h3.1
				c0.7,0,1.2-0.1,1.7-0.2s0.9-0.4,1.2-0.6c0.3-0.3,0.6-0.6,0.7-0.9c0.2-0.4,0.2-0.8,0.2-1.2l0,0c0-1-0.3-1.8-0.9-2.3
				c-0.6-0.5-1.6-0.7-2.9-0.7l0,0H2.4z M26.1,186.8v7.9h-1c-0.2,0-0.4,0-0.5-0.1c-0.1-0.1-0.2-0.2-0.3-0.4l0,0l-0.2-1.2
				c-0.3,0.3-0.6,0.6-1,0.8c-0.3,0.2-0.6,0.4-1,0.6c-0.3,0.2-0.7,0.3-1.1,0.4c-0.4,0.1-0.8,0.1-1.3,0.1l0,0c-0.5,0-0.9-0.1-1.4-0.2
				c-0.4-0.1-0.8-0.3-1.1-0.6c-0.3-0.3-0.6-0.6-0.7-1c-0.2-0.4-0.3-0.9-0.3-1.5l0,0c0-0.5,0.1-1,0.4-1.4c0.3-0.5,0.7-0.9,1.3-1.2
				c0.6-0.4,1.4-0.6,2.4-0.9c1-0.2,2.2-0.4,3.6-0.4l0,0v-1c0-1-0.2-1.7-0.6-2.2c-0.4-0.5-1-0.7-1.8-0.7l0,0c-0.5,0-1,0.1-1.3,0.2
				c-0.4,0.1-0.7,0.3-0.9,0.5c-0.3,0.2-0.5,0.3-0.7,0.5c-0.2,0.1-0.4,0.2-0.6,0.2l0,0c-0.1,0-0.3,0-0.4-0.1
				c-0.1-0.1-0.2-0.2-0.3-0.3l0,0l-0.4-0.7c0.7-0.7,1.4-1.2,2.2-1.5c0.8-0.3,1.7-0.5,2.6-0.5l0,0c0.7,0,1.3,0.1,1.8,0.3
				c0.5,0.2,1,0.5,1.4,1c0.4,0.4,0.6,0.9,0.8,1.5C26,185.4,26.1,186.1,26.1,186.8L26.1,186.8z M20.4,193.4L20.4,193.4
				c0.4,0,0.7,0,1.1-0.1c0.3-0.1,0.6-0.2,0.9-0.3c0.3-0.1,0.6-0.3,0.8-0.5c0.3-0.2,0.5-0.4,0.8-0.7l0,0v-2.6c-1,0-1.9,0.1-2.6,0.2
				c-0.7,0.1-1.3,0.3-1.7,0.5s-0.8,0.4-1,0.7c-0.2,0.3-0.3,0.6-0.3,0.9l0,0c0,0.3,0.1,0.6,0.2,0.8c0.1,0.2,0.2,0.4,0.4,0.6
				c0.2,0.2,0.4,0.3,0.6,0.3C19.9,193.3,20.1,193.4,20.4,193.4z M33,194.7h-2.2v-12.4h1.3c0.3,0,0.5,0.2,0.6,0.5l0,0l0.2,1.3
				c0.5-0.6,1.1-1.1,1.8-1.4c0.7-0.4,1.4-0.6,2.3-0.6l0,0c0.7,0,1.3,0.1,1.8,0.3c0.5,0.2,1,0.5,1.3,1c0.3,0.4,0.6,0.9,0.8,1.5
				c0.2,0.6,0.3,1.2,0.3,1.9l0,0v7.9H39v-7.9c0-0.9-0.2-1.7-0.6-2.2c-0.4-0.5-1.1-0.8-2-0.8l0,0c-0.6,0-1.2,0.2-1.8,0.5
				s-1.1,0.7-1.5,1.3l0,0V194.7z M56,194.7h-1.3c-0.3,0-0.5-0.2-0.6-0.5l0,0l-0.2-1.5c-0.5,0.6-1.1,1.2-1.8,1.5s-1.5,0.6-2.3,0.6
				l0,0c-0.7,0-1.4-0.1-1.9-0.4c-0.6-0.3-1.1-0.7-1.5-1.2c-0.4-0.5-0.7-1.2-0.9-2s-0.3-1.7-0.3-2.7l0,0c0-0.9,0.1-1.8,0.4-2.6
				c0.2-0.8,0.6-1.5,1.1-2.1c0.5-0.6,1-1,1.7-1.4c0.7-0.3,1.4-0.5,2.3-0.5l0,0c0.8,0,1.4,0.1,1.9,0.4c0.5,0.3,1,0.6,1.4,1.1l0,0
				v-6.9H56V194.7z M50.4,193.1L50.4,193.1c0.7,0,1.3-0.2,1.9-0.5c0.5-0.3,1-0.8,1.5-1.4l0,0v-6c-0.4-0.5-0.8-0.9-1.3-1.1
				c-0.5-0.2-1-0.3-1.6-0.3l0,0c-1.2,0-2,0.4-2.7,1.2c-0.6,0.8-0.9,2-0.9,3.5l0,0c0,0.8,0.1,1.5,0.2,2.1c0.1,0.6,0.3,1,0.6,1.4
				c0.3,0.4,0.6,0.6,1,0.8C49.5,193,49.9,193.1,50.4,193.1z M76.3,188.4L76.3,188.4c0.1,0.2,0.2,0.4,0.3,0.6
				c0.1,0.2,0.2,0.4,0.3,0.7l0,0c0.1-0.2,0.2-0.4,0.3-0.7c0.1-0.2,0.2-0.4,0.3-0.6l0,0l5.9-10.8c0.1-0.2,0.2-0.3,0.3-0.3
				c0.1,0,0.3-0.1,0.5-0.1l0,0h1.8v17.5h-2.1v-12.9c0-0.2,0-0.4,0-0.6c0-0.2,0-0.4,0-0.6l0,0l-6,11c-0.2,0.4-0.5,0.6-0.9,0.6l0,0
				h-0.3c-0.4,0-0.7-0.2-0.9-0.6l0,0l-6.1-11c0,0.2,0,0.4,0.1,0.6s0,0.4,0,0.6l0,0v12.9h-2.1v-17.5h1.8c0.2,0,0.4,0,0.5,0.1
				c0.1,0,0.2,0.2,0.3,0.3l0,0L76.3,188.4z M100.4,186.8v7.9h-1c-0.2,0-0.4,0-0.5-0.1s-0.2-0.2-0.3-0.4l0,0l-0.2-1.2
				c-0.3,0.3-0.6,0.6-1,0.8s-0.6,0.4-1,0.6c-0.3,0.2-0.7,0.3-1.1,0.4c-0.4,0.1-0.8,0.1-1.3,0.1l0,0c-0.5,0-0.9-0.1-1.4-0.2
				s-0.8-0.3-1.1-0.6s-0.6-0.6-0.7-1c-0.2-0.4-0.3-0.9-0.3-1.5l0,0c0-0.5,0.1-1,0.4-1.4c0.3-0.5,0.7-0.9,1.3-1.2
				c0.6-0.4,1.4-0.6,2.4-0.9c1-0.2,2.2-0.4,3.6-0.4l0,0v-1c0-1-0.2-1.7-0.6-2.2c-0.4-0.5-1-0.7-1.8-0.7l0,0c-0.5,0-1,0.1-1.3,0.2
				c-0.4,0.1-0.7,0.3-0.9,0.5c-0.3,0.2-0.5,0.3-0.7,0.5s-0.4,0.2-0.6,0.2l0,0c-0.1,0-0.3,0-0.4-0.1c-0.1-0.1-0.2-0.2-0.3-0.3l0,0
				l-0.4-0.7c0.7-0.7,1.4-1.2,2.2-1.5c0.8-0.3,1.7-0.5,2.6-0.5l0,0c0.7,0,1.3,0.1,1.8,0.3c0.5,0.2,1,0.5,1.4,1
				c0.4,0.4,0.6,0.9,0.8,1.5C100.3,185.4,100.4,186.1,100.4,186.8L100.4,186.8z M94.7,193.4L94.7,193.4c0.4,0,0.7,0,1.1-0.1
				c0.3-0.1,0.6-0.2,0.9-0.3c0.3-0.1,0.6-0.3,0.8-0.5c0.3-0.2,0.5-0.4,0.8-0.7l0,0v-2.6c-1,0-1.9,0.1-2.6,0.2s-1.3,0.3-1.7,0.5
				s-0.8,0.4-1,0.7c-0.2,0.3-0.3,0.6-0.3,0.9l0,0c0,0.3,0.1,0.6,0.2,0.8c0.1,0.2,0.2,0.4,0.4,0.6c0.2,0.2,0.4,0.3,0.6,0.3
				C94.2,193.3,94.5,193.4,94.7,193.4z M107.3,194.7h-2.2v-12.4h1.3c0.3,0,0.5,0.2,0.6,0.5l0,0l0.2,1.3c0.5-0.6,1.1-1.1,1.8-1.4
				c0.7-0.4,1.4-0.6,2.3-0.6l0,0c0.7,0,1.3,0.1,1.8,0.3c0.5,0.2,1,0.5,1.3,1c0.3,0.4,0.6,0.9,0.8,1.5c0.2,0.6,0.3,1.2,0.3,1.9l0,0
				v7.9h-2.2v-7.9c0-0.9-0.2-1.7-0.6-2.2c-0.4-0.5-1.1-0.8-2-0.8l0,0c-0.6,0-1.2,0.2-1.8,0.5c-0.6,0.3-1.1,0.7-1.5,1.3l0,0V194.7z
				 M129.4,186.8v7.9h-1c-0.2,0-0.4,0-0.5-0.1c-0.1-0.1-0.2-0.2-0.3-0.4l0,0l-0.2-1.2c-0.3,0.3-0.6,0.6-1,0.8s-0.6,0.4-1,0.6
				c-0.3,0.2-0.7,0.3-1.1,0.4c-0.4,0.1-0.8,0.1-1.3,0.1l0,0c-0.5,0-0.9-0.1-1.4-0.2c-0.4-0.1-0.8-0.3-1.1-0.6s-0.6-0.6-0.7-1
				c-0.2-0.4-0.3-0.9-0.3-1.5l0,0c0-0.5,0.1-1,0.4-1.4s0.7-0.9,1.3-1.2c0.6-0.4,1.4-0.6,2.4-0.9s2.2-0.4,3.6-0.4l0,0v-1
				c0-1-0.2-1.7-0.6-2.2s-1-0.7-1.8-0.7l0,0c-0.5,0-1,0.1-1.3,0.2c-0.4,0.1-0.7,0.3-0.9,0.5c-0.3,0.2-0.5,0.3-0.7,0.5
				c-0.2,0.1-0.4,0.2-0.6,0.2l0,0c-0.1,0-0.3,0-0.4-0.1c-0.1-0.1-0.2-0.2-0.3-0.3l0,0l-0.4-0.7c0.7-0.7,1.4-1.2,2.2-1.5
				c0.8-0.3,1.7-0.5,2.6-0.5l0,0c0.7,0,1.3,0.1,1.8,0.3c0.5,0.2,1,0.5,1.4,1c0.4,0.4,0.6,0.9,0.8,1.5S129.4,186.1,129.4,186.8
				L129.4,186.8z M123.7,193.4L123.7,193.4c0.4,0,0.7,0,1.1-0.1c0.3-0.1,0.6-0.2,0.9-0.3c0.3-0.1,0.6-0.3,0.8-0.5
				c0.3-0.2,0.5-0.4,0.8-0.7l0,0v-2.6c-1,0-1.9,0.1-2.6,0.2s-1.3,0.3-1.7,0.5c-0.4,0.2-0.8,0.4-1,0.7c-0.2,0.3-0.3,0.6-0.3,0.9l0,0
				c0,0.3,0.1,0.6,0.2,0.8c0.1,0.2,0.2,0.4,0.4,0.6c0.2,0.2,0.4,0.3,0.6,0.3S123.4,193.4,123.7,193.4z M138.3,182.1L138.3,182.1
				c0.5,0,1,0.1,1.5,0.2c0.5,0.1,0.9,0.3,1.3,0.5l0,0h3.4v0.8c0,0.3-0.2,0.4-0.5,0.5l0,0l-1.4,0.2c0.3,0.5,0.4,1.1,0.4,1.8l0,0
				c0,0.6-0.1,1.2-0.3,1.6s-0.6,0.9-1,1.3s-0.9,0.6-1.5,0.8c-0.6,0.2-1.2,0.3-1.9,0.3l0,0c-0.6,0-1.1-0.1-1.6-0.2l0,0
				c-0.3,0.2-0.5,0.3-0.6,0.5c-0.1,0.2-0.2,0.4-0.2,0.6l0,0c0,0.3,0.1,0.5,0.4,0.7c0.2,0.2,0.6,0.3,0.9,0.3c0.4,0.1,0.8,0.1,1.3,0.1
				c0.5,0,1,0,1.5,0.1s1,0.1,1.5,0.2c0.5,0.1,0.9,0.2,1.3,0.4c0.4,0.2,0.7,0.5,0.9,0.8c0.2,0.4,0.4,0.8,0.4,1.4l0,0
				c0,0.5-0.1,1-0.4,1.5s-0.6,0.9-1.1,1.3c-0.5,0.4-1.1,0.7-1.8,0.9s-1.5,0.3-2.4,0.3l0,0c-0.9,0-1.7-0.1-2.4-0.3
				c-0.7-0.2-1.2-0.4-1.7-0.7s-0.8-0.7-1-1s-0.3-0.8-0.3-1.2l0,0c0-0.6,0.2-1.1,0.6-1.6c0.4-0.4,0.9-0.8,1.6-1l0,0
				c-0.4-0.2-0.6-0.4-0.8-0.7c-0.2-0.3-0.3-0.6-0.3-1.1l0,0c0-0.2,0-0.4,0.1-0.6c0.1-0.2,0.2-0.4,0.3-0.6s0.3-0.4,0.5-0.5
				c0.2-0.2,0.4-0.3,0.7-0.5l0,0c-0.6-0.3-1.1-0.8-1.4-1.4c-0.3-0.6-0.5-1.2-0.5-2l0,0c0-0.6,0.1-1.2,0.3-1.6s0.6-0.9,1-1.3
				c0.4-0.3,0.9-0.6,1.5-0.8C137,182.2,137.6,182.1,138.3,182.1z M142.2,195.4L142.2,195.4c0-0.3-0.1-0.6-0.3-0.7
				c-0.2-0.2-0.4-0.3-0.7-0.4c-0.3-0.1-0.6-0.2-1-0.2s-0.8-0.1-1.2-0.1c-0.4,0-0.9,0-1.3-0.1c-0.4,0-0.9-0.1-1.3-0.1l0,0
				c-0.5,0.2-0.8,0.5-1.1,0.8c-0.3,0.3-0.4,0.7-0.4,1.1l0,0c0,0.3,0.1,0.5,0.2,0.8s0.4,0.4,0.7,0.6s0.7,0.3,1.1,0.4
				c0.4,0.1,1,0.2,1.6,0.2l0,0c0.6,0,1.1-0.1,1.6-0.2c0.5-0.1,0.9-0.3,1.2-0.5c0.3-0.2,0.6-0.4,0.7-0.7
				C142.1,196,142.2,195.7,142.2,195.4z M138.3,188.6L138.3,188.6c0.4,0,0.8-0.1,1.2-0.2c0.3-0.1,0.6-0.3,0.9-0.5
				c0.2-0.2,0.4-0.5,0.5-0.8c0.1-0.3,0.2-0.6,0.2-1l0,0c0-0.8-0.2-1.4-0.7-1.8c-0.5-0.4-1.1-0.7-2-0.7l0,0c-0.9,0-1.5,0.2-2,0.7
				c-0.5,0.4-0.7,1.1-0.7,1.8l0,0c0,0.4,0.1,0.7,0.2,1c0.1,0.3,0.3,0.6,0.5,0.8c0.2,0.2,0.5,0.4,0.8,0.5
				C137.5,188.6,137.9,188.6,138.3,188.6z M153,182.1L153,182.1c0.7,0,1.4,0.1,2.1,0.4c0.6,0.2,1.2,0.6,1.6,1.1
				c0.5,0.5,0.8,1,1.1,1.7c0.3,0.7,0.4,1.5,0.4,2.4l0,0c0,0.3,0,0.6-0.1,0.7s-0.2,0.2-0.4,0.2l0,0h-8.3c0,0.8,0.1,1.5,0.3,2
				c0.2,0.6,0.5,1.1,0.8,1.5s0.8,0.7,1.2,0.9c0.5,0.2,1,0.3,1.6,0.3l0,0c0.5,0,1-0.1,1.4-0.2c0.4-0.1,0.7-0.3,1-0.4s0.5-0.3,0.7-0.4
				s0.4-0.2,0.5-0.2l0,0c0.2,0,0.3,0.1,0.4,0.2l0,0l0.6,0.8c-0.3,0.3-0.6,0.6-1,0.9s-0.8,0.4-1.2,0.6c-0.4,0.2-0.9,0.3-1.3,0.3
				s-0.9,0.1-1.4,0.1l0,0c-0.9,0-1.6-0.1-2.4-0.4s-1.3-0.7-1.9-1.3c-0.5-0.6-0.9-1.3-1.2-2.1s-0.4-1.8-0.4-2.8l0,0
				c0-0.9,0.1-1.7,0.4-2.4c0.3-0.8,0.6-1.4,1.1-2c0.5-0.6,1.1-1,1.8-1.3C151.3,182.3,152.1,182.1,153,182.1z M153.1,183.7
				L153.1,183.7c-1.1,0-1.9,0.3-2.5,0.9c-0.6,0.6-1,1.5-1.1,2.5l0,0h6.7c0-0.5-0.1-1-0.2-1.4c-0.1-0.4-0.3-0.8-0.6-1.1
				s-0.6-0.5-1-0.7C154,183.8,153.6,183.7,153.1,183.7z M164.6,194.7h-2.2v-12.4h1.2c0.2,0,0.4,0,0.5,0.1c0.1,0.1,0.2,0.2,0.2,0.5
				l0,0l0.1,1.9c0.4-0.9,0.9-1.5,1.6-2s1.4-0.7,2.2-0.7l0,0c0.3,0,0.7,0,0.9,0.1s0.5,0.2,0.8,0.3l0,0l-0.3,1.6
				c-0.1,0.2-0.2,0.3-0.4,0.3l0,0c-0.1,0-0.3,0-0.5-0.1c-0.2-0.1-0.6-0.1-1-0.1l0,0c-0.8,0-1.4,0.2-1.9,0.7
				c-0.5,0.4-0.9,1.1-1.3,1.9l0,0V194.7z M180.3,177.2h10.8v1.9h-8.4v6.1h7.2v1.9h-7.2v7.5h-2.4V177.2z M196.7,194.7h-2.2v-12.4h1.2
				c0.2,0,0.4,0,0.5,0.1s0.2,0.2,0.2,0.5l0,0l0.1,1.9c0.4-0.9,0.9-1.5,1.6-2c0.6-0.5,1.4-0.7,2.2-0.7l0,0c0.3,0,0.7,0,0.9,0.1
				c0.3,0.1,0.5,0.2,0.8,0.3l0,0l-0.3,1.6c-0.1,0.2-0.2,0.3-0.4,0.3l0,0c-0.1,0-0.3,0-0.5-0.1c-0.2-0.1-0.6-0.1-1-0.1l0,0
				c-0.8,0-1.4,0.2-1.9,0.7c-0.5,0.4-0.9,1.1-1.3,1.9l0,0V194.7z M210.9,182.1L210.9,182.1c0.9,0,1.7,0.2,2.5,0.5
				c0.7,0.3,1.4,0.7,1.9,1.3c0.5,0.6,0.9,1.2,1.2,2c0.3,0.8,0.4,1.7,0.4,2.6l0,0c0,1-0.1,1.9-0.4,2.6c-0.3,0.8-0.7,1.5-1.2,2
				c-0.5,0.6-1.1,1-1.9,1.3c-0.7,0.3-1.5,0.4-2.5,0.4l0,0c-0.9,0-1.7-0.1-2.5-0.4c-0.7-0.3-1.4-0.7-1.9-1.3c-0.5-0.6-0.9-1.2-1.2-2
				s-0.4-1.7-0.4-2.6l0,0c0-1,0.1-1.9,0.4-2.6c0.3-0.8,0.7-1.5,1.2-2c0.5-0.6,1.1-1,1.9-1.3C209.2,182.2,210,182.1,210.9,182.1z
				 M210.9,193.2L210.9,193.2c1.2,0,2.1-0.4,2.7-1.2c0.6-0.8,0.9-2,0.9-3.4l0,0c0-1.5-0.3-2.6-0.9-3.5c-0.6-0.8-1.5-1.2-2.7-1.2l0,0
				c-0.6,0-1.2,0.1-1.6,0.3c-0.5,0.2-0.8,0.5-1.1,0.9c-0.3,0.4-0.5,0.9-0.7,1.5s-0.2,1.2-0.2,2l0,0c0,0.7,0.1,1.4,0.2,2
				s0.4,1.1,0.7,1.5c0.3,0.4,0.7,0.7,1.1,0.9C209.7,193.1,210.3,193.2,210.9,193.2z M223.1,194.7H221v-12.4h1.3
				c0.3,0,0.5,0.2,0.6,0.5l0,0l0.2,1.3c0.5-0.6,1.1-1.1,1.8-1.4s1.4-0.6,2.3-0.6l0,0c0.7,0,1.3,0.1,1.8,0.3s1,0.5,1.3,1
				c0.3,0.4,0.6,0.9,0.8,1.5c0.2,0.6,0.3,1.2,0.3,1.9l0,0v7.9h-2.2v-7.9c0-0.9-0.2-1.7-0.6-2.2c-0.4-0.5-1.1-0.8-2-0.8l0,0
				c-0.6,0-1.2,0.2-1.8,0.5s-1.1,0.7-1.5,1.3l0,0V194.7z M239.8,194.9L239.8,194.9c-1,0-1.7-0.3-2.3-0.8c-0.5-0.5-0.8-1.3-0.8-2.4
				l0,0v-7.6h-1.5c-0.1,0-0.2,0-0.3-0.1s-0.1-0.2-0.1-0.4l0,0v-0.9l2-0.3l0.5-3.8c0-0.1,0.1-0.2,0.2-0.3s0.2-0.1,0.3-0.1l0,0h1.1
				v4.3h3.6v1.6h-3.6v7.4c0,0.5,0.1,0.9,0.4,1.2c0.3,0.3,0.6,0.4,1,0.4l0,0c0.2,0,0.4,0,0.6-0.1c0.2-0.1,0.3-0.1,0.4-0.2
				c0.1-0.1,0.2-0.1,0.3-0.2s0.2-0.1,0.2-0.1l0,0c0.1,0,0.2,0.1,0.3,0.2l0,0l0.6,1c-0.4,0.4-0.8,0.6-1.4,0.8
				C240.9,194.8,240.4,194.9,239.8,194.9z M261.8,188.4L261.8,188.4c0.1,0.2,0.2,0.4,0.3,0.6c0.1,0.2,0.2,0.4,0.3,0.7l0,0
				c0.1-0.2,0.2-0.4,0.3-0.7c0.1-0.2,0.2-0.4,0.3-0.6l0,0l5.9-10.8c0.1-0.2,0.2-0.3,0.3-0.3c0.1,0,0.3-0.1,0.5-0.1l0,0h1.8v17.5
				h-2.1v-12.9c0-0.2,0-0.4,0-0.6c0-0.2,0-0.4,0-0.6l0,0l-6,11c-0.2,0.4-0.5,0.6-0.9,0.6l0,0h-0.3c-0.4,0-0.7-0.2-0.9-0.6l0,0
				l-6.1-11c0,0.2,0,0.4,0.1,0.6s0,0.4,0,0.6l0,0v12.9h-2.1v-17.5h1.8c0.2,0,0.4,0,0.5,0.1c0.1,0,0.2,0.2,0.3,0.3l0,0L261.8,188.4z
				 M285.9,186.8v7.9h-1c-0.2,0-0.4,0-0.5-0.1s-0.2-0.2-0.3-0.4l0,0L284,193c-0.3,0.3-0.6,0.6-1,0.8s-0.6,0.4-1,0.6
				c-0.3,0.2-0.7,0.3-1.1,0.4c-0.4,0.1-0.8,0.1-1.3,0.1l0,0c-0.5,0-0.9-0.1-1.4-0.2s-0.8-0.3-1.1-0.6s-0.6-0.6-0.7-1
				c-0.2-0.4-0.3-0.9-0.3-1.5l0,0c0-0.5,0.1-1,0.4-1.4s0.7-0.9,1.3-1.2s1.4-0.6,2.4-0.9s2.2-0.4,3.6-0.4l0,0v-1c0-1-0.2-1.7-0.6-2.2
				c-0.4-0.5-1-0.7-1.8-0.7l0,0c-0.5,0-1,0.1-1.3,0.2c-0.4,0.1-0.7,0.3-0.9,0.5c-0.3,0.2-0.5,0.3-0.7,0.5s-0.4,0.2-0.6,0.2l0,0
				c-0.1,0-0.3,0-0.4-0.1c-0.1-0.1-0.2-0.2-0.3-0.3l0,0l-0.4-0.7c0.7-0.7,1.4-1.2,2.2-1.5c0.8-0.3,1.7-0.5,2.6-0.5l0,0
				c0.7,0,1.3,0.1,1.8,0.3c0.5,0.2,1,0.5,1.4,1s0.6,0.9,0.8,1.5C285.9,185.4,285.9,186.1,285.9,186.8L285.9,186.8z M280.3,193.4
				L280.3,193.4c0.4,0,0.7,0,1.1-0.1s0.6-0.2,0.9-0.3c0.3-0.1,0.6-0.3,0.8-0.5c0.3-0.2,0.5-0.4,0.8-0.7l0,0v-2.6
				c-1,0-1.9,0.1-2.6,0.2s-1.3,0.3-1.7,0.5c-0.4,0.2-0.8,0.4-1,0.7c-0.2,0.3-0.3,0.6-0.3,0.9l0,0c0,0.3,0.1,0.6,0.2,0.8
				c0.1,0.2,0.2,0.4,0.4,0.6c0.2,0.2,0.4,0.3,0.6,0.3C279.7,193.3,280,193.4,280.3,193.4z M292.9,194.7h-2.2v-12.4h1.3
				c0.3,0,0.5,0.2,0.6,0.5l0,0l0.2,1.3c0.5-0.6,1.1-1.1,1.8-1.4c0.7-0.4,1.4-0.6,2.3-0.6l0,0c0.7,0,1.3,0.1,1.8,0.3s1,0.5,1.3,1
				c0.3,0.4,0.6,0.9,0.8,1.5c0.2,0.6,0.3,1.2,0.3,1.9l0,0v7.9h-2.2v-7.9c0-0.9-0.2-1.7-0.6-2.2c-0.4-0.5-1.1-0.8-2-0.8l0,0
				c-0.6,0-1.2,0.2-1.8,0.5c-0.6,0.3-1.1,0.7-1.5,1.3l0,0V194.7z M313,198.9v-23h1.7v23H313z M329.7,177.2v15.5h7.6v2h-10v-17.5
				H329.7z M345.5,182.1L345.5,182.1c0.7,0,1.4,0.1,2.1,0.4c0.6,0.2,1.2,0.6,1.6,1.1c0.5,0.5,0.8,1,1.1,1.7c0.3,0.7,0.4,1.5,0.4,2.4
				l0,0c0,0.3,0,0.6-0.1,0.7c-0.1,0.1-0.2,0.2-0.4,0.2l0,0h-8.3c0,0.8,0.1,1.5,0.3,2c0.2,0.6,0.5,1.1,0.8,1.5
				c0.3,0.4,0.8,0.7,1.2,0.9c0.5,0.2,1,0.3,1.6,0.3l0,0c0.5,0,1-0.1,1.4-0.2c0.4-0.1,0.7-0.3,1-0.4s0.5-0.3,0.7-0.4
				c0.2-0.1,0.4-0.2,0.5-0.2l0,0c0.2,0,0.3,0.1,0.4,0.2l0,0l0.6,0.8c-0.3,0.3-0.6,0.6-1,0.9s-0.8,0.4-1.2,0.6
				c-0.4,0.2-0.9,0.3-1.3,0.3s-0.9,0.1-1.4,0.1l0,0c-0.9,0-1.6-0.1-2.4-0.4c-0.7-0.3-1.3-0.7-1.9-1.3c-0.5-0.6-0.9-1.3-1.2-2.1
				c-0.3-0.8-0.4-1.8-0.4-2.8l0,0c0-0.9,0.1-1.7,0.4-2.4c0.3-0.8,0.6-1.4,1.1-2c0.5-0.6,1.1-1,1.8-1.3
				C343.8,182.3,344.6,182.1,345.5,182.1z M345.6,183.7L345.6,183.7c-1.1,0-1.9,0.3-2.5,0.9c-0.6,0.6-1,1.5-1.1,2.5l0,0h6.7
				c0-0.5-0.1-1-0.2-1.4c-0.1-0.4-0.3-0.8-0.6-1.1c-0.3-0.3-0.6-0.5-1-0.7C346.5,183.8,346.1,183.7,345.6,183.7z M357.3,194.7
				l-4-12.4h1.7c0.2,0,0.3,0,0.4,0.1c0.1,0.1,0.2,0.2,0.2,0.3l0,0l2.4,8c0.1,0.3,0.1,0.6,0.2,0.9s0.1,0.5,0.1,0.8l0,0
				c0.1-0.3,0.1-0.6,0.2-0.8c0.1-0.3,0.2-0.6,0.3-0.9l0,0l2.6-8c0-0.1,0.1-0.2,0.2-0.3c0.1-0.1,0.2-0.1,0.4-0.1l0,0h0.9
				c0.2,0,0.3,0,0.4,0.1s0.2,0.2,0.2,0.3l0,0l2.6,8c0.1,0.3,0.2,0.6,0.2,0.8c0.1,0.3,0.1,0.6,0.2,0.8l0,0c0-0.3,0.1-0.6,0.2-0.8
				c0.1-0.3,0.1-0.6,0.2-0.8l0,0l2.4-8c0-0.1,0.1-0.2,0.2-0.3c0.1-0.1,0.2-0.1,0.4-0.1l0,0h1.6l-4,12.4H366c-0.2,0-0.4-0.1-0.4-0.4
				l0,0l-2.7-8.4c-0.1-0.2-0.1-0.4-0.2-0.6c0-0.2-0.1-0.4-0.1-0.6l0,0c0,0.2-0.1,0.4-0.1,0.6s-0.1,0.4-0.2,0.6l0,0l-2.8,8.4
				c-0.1,0.3-0.3,0.4-0.5,0.4l0,0H357.3z M375.4,182.3h2.2v12.4h-2.2V182.3z M378.1,178.4L378.1,178.4c0,0.2,0,0.4-0.1,0.6
				c-0.1,0.2-0.2,0.3-0.3,0.5c-0.1,0.1-0.3,0.3-0.5,0.3c-0.2,0.1-0.4,0.1-0.6,0.1l0,0c-0.2,0-0.4,0-0.6-0.1
				c-0.2-0.1-0.3-0.2-0.5-0.3c-0.1-0.1-0.3-0.3-0.3-0.5c-0.1-0.2-0.1-0.4-0.1-0.6l0,0c0-0.2,0-0.4,0.1-0.6c0.1-0.2,0.2-0.4,0.3-0.5
				c0.1-0.1,0.3-0.3,0.5-0.3c0.2-0.1,0.4-0.1,0.6-0.1l0,0c0.2,0,0.4,0,0.6,0.1c0.2,0.1,0.4,0.2,0.5,0.3s0.3,0.3,0.3,0.5
				C378,178,378.1,178.2,378.1,178.4z M390.5,183.5l-0.5,0.8c-0.1,0.2-0.2,0.3-0.5,0.3l0,0c-0.1,0-0.3,0-0.4-0.1s-0.3-0.2-0.6-0.3
				c-0.2-0.1-0.5-0.2-0.8-0.3s-0.7-0.1-1.1-0.1l0,0c-0.4,0-0.7,0-1,0.1c-0.3,0.1-0.5,0.2-0.8,0.4c-0.2,0.2-0.4,0.4-0.5,0.6
				c-0.1,0.2-0.2,0.5-0.2,0.7l0,0c0,0.3,0.1,0.6,0.3,0.8c0.2,0.2,0.4,0.4,0.7,0.6c0.3,0.2,0.6,0.3,1,0.4c0.4,0.1,0.8,0.2,1.2,0.4
				c0.4,0.1,0.8,0.3,1.2,0.4s0.7,0.4,1,0.6c0.3,0.2,0.5,0.5,0.7,0.9c0.2,0.4,0.3,0.8,0.3,1.3l0,0c0,0.6-0.1,1.1-0.3,1.6
				c-0.2,0.5-0.5,0.9-0.9,1.3c-0.4,0.4-0.9,0.6-1.5,0.8s-1.2,0.3-2,0.3l0,0c-0.9,0-1.6-0.1-2.4-0.4c-0.7-0.3-1.3-0.6-1.8-1.1l0,0
				l0.5-0.8c0.1-0.1,0.1-0.2,0.2-0.2c0.1-0.1,0.2-0.1,0.4-0.1l0,0c0.1,0,0.3,0.1,0.5,0.2c0.2,0.1,0.4,0.2,0.6,0.4
				c0.2,0.1,0.5,0.3,0.8,0.4c0.3,0.1,0.7,0.2,1.2,0.2l0,0c0.4,0,0.8-0.1,1.1-0.2c0.3-0.1,0.6-0.3,0.8-0.4c0.2-0.2,0.4-0.4,0.5-0.6
				c0.1-0.2,0.2-0.5,0.2-0.8l0,0c0-0.3-0.1-0.6-0.3-0.9s-0.4-0.4-0.7-0.6c-0.3-0.2-0.6-0.3-1-0.4c-0.4-0.1-0.8-0.2-1.2-0.4
				c-0.4-0.1-0.8-0.3-1.2-0.4c-0.4-0.2-0.7-0.4-1-0.6c-0.3-0.3-0.5-0.6-0.7-0.9c-0.2-0.4-0.3-0.8-0.3-1.4l0,0c0-0.5,0.1-0.9,0.3-1.4
				c0.2-0.4,0.5-0.8,0.9-1.2c0.4-0.3,0.8-0.6,1.4-0.8c0.5-0.2,1.2-0.3,1.9-0.3l0,0c0.8,0,1.5,0.1,2.2,0.4
				C389.4,182.7,390,183.1,390.5,183.5L390.5,183.5z M398.7,194.9L398.7,194.9c-1,0-1.7-0.3-2.3-0.8c-0.5-0.5-0.8-1.3-0.8-2.4l0,0
				v-7.6h-1.5c-0.1,0-0.2,0-0.3-0.1s-0.1-0.2-0.1-0.4l0,0v-0.9l2-0.3l0.5-3.8c0-0.1,0.1-0.2,0.2-0.3c0.1-0.1,0.2-0.1,0.3-0.1l0,0
				h1.1v4.3h3.6v1.6h-3.6v7.4c0,0.5,0.1,0.9,0.4,1.2c0.3,0.3,0.6,0.4,1,0.4l0,0c0.2,0,0.4,0,0.6-0.1c0.2-0.1,0.3-0.1,0.4-0.2
				c0.1-0.1,0.2-0.1,0.3-0.2s0.2-0.1,0.2-0.1l0,0c0.1,0,0.2,0.1,0.3,0.2l0,0l0.6,1c-0.4,0.4-0.8,0.6-1.4,0.8
				C399.9,194.8,399.3,194.9,398.7,194.9z M410.6,182.1L410.6,182.1c0.9,0,1.7,0.2,2.5,0.5c0.7,0.3,1.4,0.7,1.9,1.3s0.9,1.2,1.2,2
				c0.3,0.8,0.4,1.7,0.4,2.6l0,0c0,1-0.1,1.9-0.4,2.6c-0.3,0.8-0.7,1.5-1.2,2c-0.5,0.6-1.1,1-1.9,1.3c-0.7,0.3-1.5,0.4-2.5,0.4l0,0
				c-0.9,0-1.7-0.1-2.5-0.4c-0.7-0.3-1.4-0.7-1.9-1.3c-0.5-0.6-0.9-1.2-1.2-2s-0.4-1.7-0.4-2.6l0,0c0-1,0.1-1.9,0.4-2.6
				c0.3-0.8,0.7-1.5,1.2-2c0.5-0.6,1.1-1,1.9-1.3C408.9,182.2,409.7,182.1,410.6,182.1z M410.6,193.2L410.6,193.2
				c1.2,0,2.1-0.4,2.7-1.2c0.6-0.8,0.9-2,0.9-3.4l0,0c0-1.5-0.3-2.6-0.9-3.5c-0.6-0.8-1.5-1.2-2.7-1.2l0,0c-0.6,0-1.2,0.1-1.6,0.3
				c-0.5,0.2-0.8,0.5-1.1,0.9c-0.3,0.4-0.5,0.9-0.7,1.5c-0.2,0.6-0.2,1.2-0.2,2l0,0c0,0.7,0.1,1.4,0.2,2c0.2,0.6,0.4,1.1,0.7,1.5
				c0.3,0.4,0.7,0.7,1.1,0.9S410,193.2,410.6,193.2z M422.8,194.7h-2.2v-12.4h1.3c0.3,0,0.5,0.2,0.6,0.5l0,0l0.2,1.3
				c0.5-0.6,1.1-1.1,1.8-1.4c0.7-0.4,1.4-0.6,2.3-0.6l0,0c0.7,0,1.3,0.1,1.8,0.3c0.5,0.2,1,0.5,1.3,1c0.3,0.4,0.6,0.9,0.8,1.5
				c0.2,0.6,0.3,1.2,0.3,1.9l0,0v7.9h-2.2v-7.9c0-0.9-0.2-1.7-0.6-2.2c-0.4-0.5-1.1-0.8-2-0.8l0,0c-0.6,0-1.2,0.2-1.8,0.5
				c-0.6,0.3-1.1,0.7-1.5,1.3l0,0V194.7z M435.1,193.2L435.1,193.2c0-0.2,0-0.4,0.1-0.5s0.2-0.3,0.3-0.4c0.1-0.1,0.3-0.2,0.5-0.3
				c0.2-0.1,0.4-0.1,0.6-0.1l0,0c0.2,0,0.5,0,0.7,0.1c0.2,0.1,0.4,0.2,0.5,0.4c0.1,0.2,0.2,0.3,0.3,0.6c0.1,0.2,0.1,0.4,0.1,0.7l0,0
				c0,0.4-0.1,0.7-0.2,1.1c-0.1,0.4-0.3,0.8-0.5,1.2c-0.2,0.4-0.4,0.8-0.7,1.1c-0.3,0.4-0.6,0.7-1,1l0,0l-0.4-0.4
				c-0.1-0.1-0.2-0.2-0.2-0.3l0,0c0-0.1,0.1-0.2,0.2-0.3l0,0c0.1-0.1,0.2-0.2,0.3-0.4c0.1-0.2,0.3-0.3,0.4-0.5
				c0.1-0.2,0.3-0.4,0.4-0.6c0.1-0.2,0.2-0.5,0.2-0.8l0,0h-0.2c-0.2,0-0.4,0-0.6-0.1c-0.2-0.1-0.3-0.2-0.4-0.3
				c-0.1-0.1-0.2-0.3-0.3-0.5S435.1,193.4,435.1,193.2z M451.8,177.2v17.5h-2.4v-17.5H451.8z M467.6,194.7h-1.3
				c-0.3,0-0.5-0.2-0.6-0.5l0,0l-0.2-1.5c-0.5,0.6-1.1,1.2-1.8,1.5c-0.7,0.4-1.5,0.6-2.3,0.6l0,0c-0.7,0-1.4-0.1-1.9-0.4
				c-0.6-0.3-1.1-0.7-1.5-1.2c-0.4-0.5-0.7-1.2-0.9-2s-0.3-1.7-0.3-2.7l0,0c0-0.9,0.1-1.8,0.4-2.6c0.2-0.8,0.6-1.5,1.1-2.1
				c0.5-0.6,1-1,1.7-1.4c0.7-0.3,1.4-0.5,2.3-0.5l0,0c0.8,0,1.4,0.1,1.9,0.4c0.5,0.3,1,0.6,1.4,1.1l0,0v-6.9h2.2V194.7z
				 M462.1,193.1L462.1,193.1c0.7,0,1.3-0.2,1.9-0.5c0.5-0.3,1-0.8,1.5-1.4l0,0v-6c-0.4-0.5-0.8-0.9-1.3-1.1c-0.5-0.2-1-0.3-1.6-0.3
				l0,0c-1.2,0-2,0.4-2.7,1.2c-0.6,0.8-0.9,2-0.9,3.5l0,0c0,0.8,0.1,1.5,0.2,2.1s0.3,1,0.6,1.4c0.3,0.4,0.6,0.6,1,0.8
				C461.1,193,461.6,193.1,462.1,193.1z M481.9,186.8v7.9h-1c-0.2,0-0.4,0-0.5-0.1s-0.2-0.2-0.3-0.4l0,0l-0.2-1.2
				c-0.3,0.3-0.6,0.6-1,0.8c-0.3,0.2-0.6,0.4-1,0.6c-0.3,0.2-0.7,0.3-1.1,0.4c-0.4,0.1-0.8,0.1-1.3,0.1l0,0c-0.5,0-0.9-0.1-1.4-0.2
				c-0.4-0.1-0.8-0.3-1.1-0.6c-0.3-0.3-0.6-0.6-0.7-1c-0.2-0.4-0.3-0.9-0.3-1.5l0,0c0-0.5,0.1-1,0.4-1.4c0.3-0.5,0.7-0.9,1.3-1.2
				c0.6-0.4,1.4-0.6,2.4-0.9s2.2-0.4,3.6-0.4l0,0v-1c0-1-0.2-1.7-0.6-2.2c-0.4-0.5-1-0.7-1.8-0.7l0,0c-0.5,0-1,0.1-1.3,0.2
				c-0.4,0.1-0.7,0.3-0.9,0.5c-0.3,0.2-0.5,0.3-0.7,0.5c-0.2,0.1-0.4,0.2-0.6,0.2l0,0c-0.1,0-0.3,0-0.4-0.1
				c-0.1-0.1-0.2-0.2-0.3-0.3l0,0l-0.4-0.7c0.7-0.7,1.4-1.2,2.2-1.5c0.8-0.3,1.7-0.5,2.6-0.5l0,0c0.7,0,1.3,0.1,1.8,0.3
				c0.5,0.2,1,0.5,1.4,1c0.4,0.4,0.6,0.9,0.8,1.5C481.8,185.4,481.9,186.1,481.9,186.8L481.9,186.8z M476.2,193.4L476.2,193.4
				c0.4,0,0.7,0,1.1-0.1s0.6-0.2,0.9-0.3c0.3-0.1,0.6-0.3,0.8-0.5c0.3-0.2,0.5-0.4,0.8-0.7l0,0v-2.6c-1,0-1.9,0.1-2.6,0.2
				c-0.7,0.1-1.3,0.3-1.7,0.5s-0.8,0.4-1,0.7c-0.2,0.3-0.3,0.6-0.3,0.9l0,0c0,0.3,0.1,0.6,0.2,0.8c0.1,0.2,0.2,0.4,0.4,0.6
				c0.2,0.2,0.4,0.3,0.6,0.3C475.7,193.3,475.9,193.4,476.2,193.4z M488.8,194.7h-2.2v-18h2.2v7.3c0.5-0.6,1.1-1,1.8-1.4
				s1.4-0.5,2.2-0.5l0,0c0.7,0,1.3,0.1,1.8,0.3c0.5,0.2,1,0.5,1.3,1c0.3,0.4,0.6,0.9,0.8,1.5c0.2,0.6,0.3,1.2,0.3,1.9l0,0v7.9h-2.2
				v-7.9c0-0.9-0.2-1.7-0.6-2.2c-0.4-0.5-1.1-0.8-2-0.8l0,0c-0.6,0-1.2,0.2-1.8,0.5c-0.6,0.3-1.1,0.7-1.5,1.3l0,0V194.7z
				 M506.7,182.1L506.7,182.1c0.9,0,1.7,0.2,2.5,0.5c0.7,0.3,1.4,0.7,1.9,1.3s0.9,1.2,1.2,2c0.3,0.8,0.4,1.7,0.4,2.6l0,0
				c0,1-0.1,1.9-0.4,2.6s-0.7,1.5-1.2,2c-0.5,0.6-1.1,1-1.9,1.3c-0.7,0.3-1.5,0.4-2.5,0.4l0,0c-0.9,0-1.7-0.1-2.5-0.4
				c-0.7-0.3-1.4-0.7-1.9-1.3c-0.5-0.6-0.9-1.2-1.2-2s-0.4-1.7-0.4-2.6l0,0c0-1,0.1-1.9,0.4-2.6c0.3-0.8,0.7-1.5,1.2-2
				c0.5-0.6,1.1-1,1.9-1.3C505,182.2,505.8,182.1,506.7,182.1z M506.7,193.2L506.7,193.2c1.2,0,2.1-0.4,2.7-1.2
				c0.6-0.8,0.9-2,0.9-3.4l0,0c0-1.5-0.3-2.6-0.9-3.5c-0.6-0.8-1.5-1.2-2.7-1.2l0,0c-0.6,0-1.2,0.1-1.6,0.3
				c-0.5,0.2-0.8,0.5-1.1,0.9c-0.3,0.4-0.5,0.9-0.7,1.5c-0.2,0.6-0.2,1.2-0.2,2l0,0c0,0.7,0.1,1.4,0.2,2c0.2,0.6,0.4,1.1,0.7,1.5
				c0.3,0.4,0.7,0.7,1.1,0.9C505.6,193.1,506.1,193.2,506.7,193.2z"/>
		</g>
	</g>
	<g transform="rotate(0 28.0049 131.9291)">
		<g transform="matrix(1 0 0 1 0 0)">
			<path class="st1" d="M36.1,150.3H28v-0.9c0.6,0,1.1-0.1,1.4-0.1c0.4-0.1,0.6-0.2,0.8-0.4s0.3-0.4,0.4-0.8
				c0.1-0.3,0.1-0.8,0.1-1.3l0,0v-10.5c0-0.5,0-0.9-0.1-1.3c-0.1-0.3-0.2-0.6-0.3-0.8c-0.2-0.2-0.4-0.3-0.7-0.4
				c-0.3-0.1-0.7-0.1-1.2-0.1l0,0v-0.9h6.7c2,0,3.6,0.4,4.7,1.1s1.7,1.7,1.7,3l0,0c0,1-0.3,1.8-0.9,2.4c-0.6,0.6-1.6,1.1-2.9,1.5
				l0,0v0.1c0.5,0,0.9,0.1,1.2,0.2c0.3,0.1,0.7,0.1,0.9,0.2s0.5,0.2,0.8,0.3c0.2,0.1,0.5,0.3,0.7,0.4l0,0c1.3,0.9,2,2.1,2,3.5l0,0
				c0,0.8-0.2,1.5-0.7,2.2s-1.1,1.2-1.9,1.6l0,0c-0.3,0.1-0.5,0.2-0.8,0.3c-0.3,0.1-0.6,0.1-0.9,0.2s-0.8,0.1-1.2,0.1
				S36.7,150.3,36.1,150.3L36.1,150.3z M36.1,149.4L36.1,149.4c2.7,0,4.1-1.2,4.1-3.5l0,0c0-1.7-0.7-2.9-2.1-3.5l0,0
				c-0.2-0.1-0.5-0.2-0.7-0.3c-0.2-0.1-0.5-0.1-0.8-0.2c-0.3,0-0.7-0.1-1.1-0.1c-0.4,0-0.9,0-1.5,0l0,0h-1v5c0,0.9,0.2,1.6,0.7,2
				C34.2,149.2,35,149.4,36.1,149.4z M33.1,140.7h1.3c0.5,0,0.9,0,1.2,0c0.3,0,0.6,0,0.8-0.1s0.4-0.1,0.6-0.2s0.3-0.2,0.5-0.3l0,0
				c0.5-0.3,0.8-0.7,1-1.1c0.2-0.4,0.3-1,0.3-1.6l0,0c0-1.2-0.3-2-0.9-2.5c-0.6-0.5-1.5-0.8-2.7-0.8l0,0h-1.7
				c-0.3,0-0.4,0.1-0.4,0.4l0,0V140.7z M52.2,145.5v-1.8c-0.9,0.3-1.6,0.7-2.2,1c-0.6,0.3-1.1,0.6-1.4,0.9c-0.4,0.3-0.6,0.6-0.8,0.9
				c-0.2,0.3-0.2,0.6-0.2,1l0,0c0,0.5,0.2,0.9,0.5,1.2c0.3,0.3,0.8,0.5,1.3,0.5l0,0c0.4,0,0.8-0.1,1.1-0.3c0.3-0.2,0.6-0.5,0.9-0.8
				c0.3-0.3,0.5-0.7,0.6-1.2C52.1,146.4,52.2,146,52.2,145.5L52.2,145.5z M49,144.1l3.2-1.4v-0.9c0-1.8-0.8-2.7-2.3-2.7l0,0
				c-0.3,0-0.5,0-0.7,0.1s-0.3,0.1-0.4,0.2c-0.1,0.1-0.2,0.3-0.3,0.4s-0.2,0.4-0.3,0.7l0,0c-0.2,0.4-0.3,0.7-0.5,0.9
				c-0.2,0.1-0.4,0.2-0.7,0.2l0,0c-0.7,0-1.1-0.4-1.1-1.1l0,0c0-0.7,0.4-1.3,1.1-1.7c0.8-0.4,1.8-0.6,3.3-0.6l0,0
				c1.5,0,2.6,0.3,3.2,0.8s0.9,1.4,0.9,2.7l0,0v5c0,1.7,0.3,2.6,1,2.6l0,0c0.2,0,0.4,0,0.6-0.1s0.4-0.2,0.5-0.4l0,0l0.3,0.5
				c-0.2,0.3-0.5,0.6-1,0.9c-0.5,0.2-1,0.3-1.5,0.3l0,0c-0.7,0-1.1-0.2-1.5-0.6c-0.3-0.4-0.5-1-0.5-1.8l0,0h-0.1
				c-0.4,0.7-0.9,1.3-1.6,1.7c-0.7,0.4-1.5,0.6-2.3,0.6l0,0c-0.9,0-1.7-0.2-2.2-0.7c-0.5-0.5-0.8-1.1-0.8-1.9l0,0
				c0-0.4,0.1-0.7,0.2-1c0.1-0.3,0.3-0.6,0.6-0.9c0.3-0.3,0.7-0.6,1.1-0.9S48.3,144.4,49,144.1L49,144.1z M59.2,149.5l-0.4,0.8h-0.5
				v-3.9h0.6c0.6,2.1,1.6,3.2,3.2,3.2l0,0c0.6,0,1.1-0.1,1.4-0.4c0.4-0.3,0.5-0.7,0.5-1.3l0,0c0-0.2,0-0.4-0.1-0.6
				c-0.1-0.2-0.2-0.3-0.4-0.5c-0.2-0.2-0.4-0.4-0.8-0.6c-0.3-0.2-0.8-0.5-1.3-0.9l0,0c-0.5-0.3-0.9-0.6-1.3-0.9
				c-0.4-0.3-0.7-0.5-0.9-0.8c-0.3-0.3-0.4-0.6-0.6-0.9c-0.1-0.3-0.2-0.7-0.2-1.1l0,0c0-0.5,0.1-1,0.3-1.4s0.4-0.8,0.7-1.1
				c0.3-0.3,0.7-0.5,1.1-0.7c0.4-0.2,0.8-0.3,1.3-0.3l0,0c0.4,0,0.8,0.1,1.3,0.2s0.8,0.3,1.1,0.5l0,0l0.4-0.5h0.4v3.2h-0.6
				c-0.3-0.9-0.7-1.6-1.1-2c-0.4-0.4-0.9-0.6-1.4-0.6l0,0c-0.5,0-0.9,0.1-1.2,0.4c-0.3,0.3-0.5,0.6-0.5,1.1l0,0c0,0.3,0,0.5,0.1,0.7
				c0.1,0.2,0.2,0.4,0.4,0.5c0.2,0.2,0.4,0.4,0.7,0.5c0.3,0.2,0.6,0.4,1,0.6l0,0c0.6,0.4,1.2,0.8,1.6,1.1c0.5,0.3,0.8,0.6,1.1,0.9
				c0.3,0.3,0.5,0.6,0.6,1c0.1,0.3,0.2,0.7,0.2,1.1l0,0c0,1.1-0.3,1.9-1,2.5c-0.7,0.6-1.6,0.9-2.7,0.9l0,0
				C61,150.5,60,150.2,59.2,149.5L59.2,149.5z M69.3,149.5l-0.4,0.8h-0.5v-3.9H69c0.6,2.1,1.6,3.2,3.2,3.2l0,0
				c0.6,0,1.1-0.1,1.4-0.4c0.4-0.3,0.5-0.7,0.5-1.3l0,0c0-0.2,0-0.4-0.1-0.6c-0.1-0.2-0.2-0.3-0.4-0.5c-0.2-0.2-0.4-0.4-0.8-0.6
				c-0.3-0.2-0.8-0.5-1.3-0.9l0,0c-0.5-0.3-0.9-0.6-1.3-0.9c-0.4-0.3-0.7-0.5-0.9-0.8c-0.3-0.3-0.4-0.6-0.6-0.9
				c-0.1-0.3-0.2-0.7-0.2-1.1l0,0c0-0.5,0.1-1,0.3-1.4c0.2-0.4,0.4-0.8,0.7-1.1c0.3-0.3,0.7-0.5,1.1-0.7c0.4-0.2,0.8-0.3,1.3-0.3
				l0,0c0.4,0,0.8,0.1,1.3,0.2c0.4,0.1,0.8,0.3,1.1,0.5l0,0l0.4-0.5h0.4v3.2h-0.6c-0.3-0.9-0.7-1.6-1.1-2c-0.4-0.4-0.9-0.6-1.4-0.6
				l0,0c-0.5,0-0.9,0.1-1.2,0.4c-0.3,0.3-0.5,0.6-0.5,1.1l0,0c0,0.3,0,0.5,0.1,0.7c0.1,0.2,0.2,0.4,0.4,0.5c0.2,0.2,0.4,0.4,0.7,0.5
				c0.3,0.2,0.6,0.4,1,0.6l0,0c0.6,0.4,1.2,0.8,1.6,1.1c0.5,0.3,0.8,0.6,1.1,0.9c0.3,0.3,0.5,0.6,0.6,1c0.1,0.3,0.2,0.7,0.2,1.1l0,0
				c0,1.1-0.3,1.9-1,2.5s-1.6,0.9-2.7,0.9l0,0C71.2,150.5,70.2,150.2,69.3,149.5L69.3,149.5z M95.8,146.3L95.8,146.3l5.9-13.3h5v0.9
				c-0.5,0-0.9,0.1-1.2,0.2c-0.3,0.1-0.5,0.3-0.7,0.5c-0.2,0.2-0.3,0.6-0.3,1s-0.1,1-0.1,1.7l0,0v8.8c0,0.7,0,1.3,0.1,1.8
				c0.1,0.4,0.2,0.8,0.3,1c0.2,0.2,0.4,0.4,0.7,0.5c0.3,0.1,0.7,0.1,1.3,0.1l0,0v0.9h-7.3v-0.9c0.5,0,0.9-0.1,1.3-0.1
				c0.3-0.1,0.6-0.2,0.8-0.5c0.2-0.2,0.3-0.5,0.4-1c0.1-0.4,0.1-1,0.1-1.7l0,0v-10.4H102l-6.5,14.7h-0.5l-6.4-14.7h-0.1v10.3
				c0,0.7,0,1.3,0.1,1.8c0.1,0.4,0.2,0.8,0.3,1c0.2,0.2,0.4,0.4,0.7,0.5c0.3,0.1,0.7,0.1,1.3,0.1l0,0v0.9h-6.3v-0.9
				c0.5,0,0.9-0.1,1.3-0.1c0.3-0.1,0.6-0.2,0.8-0.5c0.2-0.2,0.3-0.5,0.4-1c0.1-0.4,0.1-1,0.1-1.7l0,0v-9.1c0-0.6,0-1.1-0.1-1.6
				c-0.1-0.4-0.2-0.7-0.3-1c-0.2-0.2-0.4-0.4-0.7-0.5s-0.7-0.2-1.2-0.2l0,0v-0.9h5.4L95.8,146.3z M115.9,145.5v-1.8
				c-0.9,0.3-1.6,0.7-2.2,1c-0.6,0.3-1.1,0.6-1.4,0.9c-0.4,0.3-0.6,0.6-0.8,0.9c-0.2,0.3-0.2,0.6-0.2,1l0,0c0,0.5,0.2,0.9,0.5,1.2
				c0.3,0.3,0.8,0.5,1.3,0.5l0,0c0.4,0,0.8-0.1,1.1-0.3c0.3-0.2,0.6-0.5,0.9-0.8c0.3-0.3,0.5-0.7,0.6-1.2
				C115.8,146.4,115.9,146,115.9,145.5L115.9,145.5z M112.6,144.1l3.2-1.4v-0.9c0-1.8-0.8-2.7-2.3-2.7l0,0c-0.3,0-0.5,0-0.7,0.1
				c-0.2,0-0.3,0.1-0.4,0.2c-0.1,0.1-0.2,0.3-0.3,0.4s-0.2,0.4-0.3,0.7l0,0c-0.2,0.4-0.3,0.7-0.5,0.9c-0.2,0.1-0.4,0.2-0.7,0.2l0,0
				c-0.7,0-1.1-0.4-1.1-1.1l0,0c0-0.7,0.4-1.3,1.1-1.7c0.8-0.4,1.8-0.6,3.3-0.6l0,0c1.5,0,2.6,0.3,3.2,0.8c0.6,0.5,0.9,1.4,0.9,2.7
				l0,0v5c0,1.7,0.3,2.6,1,2.6l0,0c0.2,0,0.4,0,0.6-0.1c0.2-0.1,0.4-0.2,0.5-0.4l0,0l0.3,0.5c-0.2,0.3-0.5,0.6-1,0.9
				c-0.5,0.2-1,0.3-1.5,0.3l0,0c-0.7,0-1.1-0.2-1.5-0.6c-0.3-0.4-0.5-1-0.5-1.8l0,0h-0.1c-0.4,0.7-0.9,1.3-1.6,1.7
				c-0.7,0.4-1.5,0.6-2.3,0.6l0,0c-0.9,0-1.7-0.2-2.2-0.7c-0.5-0.5-0.8-1.1-0.8-1.9l0,0c0-0.4,0.1-0.7,0.2-1
				c0.1-0.3,0.3-0.6,0.6-0.9c0.3-0.3,0.7-0.6,1.1-0.9C111.4,144.7,112,144.4,112.6,144.1L112.6,144.1z M122.8,149.5l-0.4,0.8h-0.5
				v-3.9h0.6c0.6,2.1,1.6,3.2,3.2,3.2l0,0c0.6,0,1.1-0.1,1.4-0.4c0.4-0.3,0.5-0.7,0.5-1.3l0,0c0-0.2,0-0.4-0.1-0.6
				c-0.1-0.2-0.2-0.3-0.4-0.5c-0.2-0.2-0.4-0.4-0.8-0.6c-0.3-0.2-0.8-0.5-1.3-0.9l0,0c-0.5-0.3-0.9-0.6-1.3-0.9
				c-0.4-0.3-0.7-0.5-0.9-0.8c-0.3-0.3-0.4-0.6-0.6-0.9c-0.1-0.3-0.2-0.7-0.2-1.1l0,0c0-0.5,0.1-1,0.3-1.4c0.2-0.4,0.4-0.8,0.7-1.1
				c0.3-0.3,0.7-0.5,1.1-0.7c0.4-0.2,0.8-0.3,1.3-0.3l0,0c0.4,0,0.8,0.1,1.3,0.2c0.4,0.1,0.8,0.3,1.1,0.5l0,0l0.4-0.5h0.4v3.2H128
				c-0.3-0.9-0.7-1.6-1.1-2c-0.4-0.4-0.9-0.6-1.4-0.6l0,0c-0.5,0-0.9,0.1-1.2,0.4c-0.3,0.3-0.5,0.6-0.5,1.1l0,0c0,0.3,0,0.5,0.1,0.7
				c0.1,0.2,0.2,0.4,0.4,0.5c0.2,0.2,0.4,0.4,0.7,0.5s0.6,0.4,1,0.6l0,0c0.6,0.4,1.2,0.8,1.6,1.1c0.5,0.3,0.8,0.6,1.1,0.9
				c0.3,0.3,0.5,0.6,0.6,1c0.1,0.3,0.2,0.7,0.2,1.1l0,0c0,1.1-0.3,1.9-1,2.5s-1.6,0.9-2.7,0.9l0,0
				C124.7,150.5,123.7,150.2,122.8,149.5L122.8,149.5z M132.9,139.8h-1.3V139c0.8-0.5,1.4-0.9,1.9-1.4s0.8-1,1-1.7l0,0h0.7v2.8h3
				v1.1h-3v6.8c0,0.5,0,1,0.1,1.3c0.1,0.4,0.1,0.6,0.3,0.9c0.1,0.2,0.3,0.4,0.5,0.5c0.2,0.1,0.4,0.1,0.7,0.1l0,0
				c0.4,0,0.7-0.1,1-0.2c0.3-0.2,0.5-0.4,0.8-0.8l0,0l0.6,0.4c-0.2,0.6-0.6,1-1.1,1.3c-0.5,0.3-1.2,0.4-1.9,0.4l0,0
				c-1,0-1.7-0.2-2.3-0.7c-0.5-0.5-0.8-1.1-0.8-2l0,0V139.8z M150.1,147.6l0.7,0.6c-1.3,1.5-2.8,2.3-4.7,2.3l0,0
				c-0.9,0-1.7-0.1-2.4-0.4c-0.7-0.3-1.3-0.7-1.9-1.2c-0.5-0.5-0.9-1.2-1.2-1.9c-0.3-0.7-0.4-1.6-0.4-2.5l0,0c0-0.9,0.1-1.8,0.4-2.5
				c0.3-0.8,0.7-1.4,1.3-2c0.5-0.6,1.2-1,2-1.3c0.8-0.3,1.6-0.5,2.5-0.5l0,0c1.5,0,2.6,0.4,3.4,1.2c0.8,0.8,1.2,1.9,1.2,3.4l0,0
				c0,0.2,0,0.3-0.1,0.4s-0.3,0.1-0.6,0.1l0,0h-7.4c0,0.1-0.1,0.3-0.1,0.4c0,0.2,0,0.4,0,0.6l0,0c0,0.8,0.1,1.5,0.3,2.1
				s0.5,1.2,0.8,1.6c0.4,0.4,0.8,0.8,1.3,1c0.5,0.2,1,0.4,1.6,0.4l0,0c0.6,0,1.2-0.1,1.7-0.4S149.6,148.2,150.1,147.6L150.1,147.6z
				 M143,142.2h4.1c0.3,0,0.5,0,0.7,0c0.2,0,0.3,0,0.4-0.1s0.1-0.1,0.2-0.2c0-0.1,0-0.2,0-0.3l0,0c0-0.7-0.2-1.2-0.7-1.6
				c-0.4-0.4-1-0.6-1.8-0.6l0,0C144.4,139.3,143.4,140.3,143,142.2L143,142.2z M157,146v0.8c0,0.6,0,1.1,0,1.5
				c0,0.4,0.1,0.6,0.2,0.8c0.1,0.2,0.3,0.3,0.5,0.4c0.2,0.1,0.6,0.1,1,0.1l0,0v0.8h-6v-0.8c0.4,0,0.8-0.1,1-0.1
				c0.3-0.1,0.4-0.2,0.6-0.4c0.1-0.2,0.2-0.4,0.3-0.8c0-0.3,0.1-0.8,0.1-1.4l0,0v-2.6c0-1,0-1.8,0-2.4c0-0.6-0.1-1-0.2-1.3
				c-0.1-0.3-0.3-0.4-0.6-0.5s-0.6-0.1-1.1-0.1l0,0v-0.8l3.9-0.9l0.3,2.8h0.1c0.2-0.4,0.4-0.9,0.7-1.2c0.3-0.4,0.6-0.7,1-1
				c0.3-0.3,0.7-0.5,1.1-0.6s0.8-0.2,1.1-0.2l0,0c0.5,0,0.9,0.1,1.1,0.3c0.3,0.2,0.4,0.5,0.4,0.9l0,0c0,0.4-0.1,0.6-0.3,0.8
				c-0.2,0.2-0.5,0.3-1,0.3l0,0c-0.2,0-0.4,0-0.6-0.1s-0.3-0.1-0.4-0.2s-0.2-0.1-0.4-0.2s-0.2-0.1-0.4-0.1l0,0
				c-0.4,0-0.8,0.3-1.2,0.8c-0.4,0.5-0.7,1.2-0.9,2l0,0c-0.1,0.4-0.2,0.9-0.3,1.5C157,144.8,157,145.4,157,146L157,146z
				 M183.3,137.4L183.3,137.4c0,1.2-0.4,2.2-1.1,3c-0.7,0.8-1.9,1.3-3.4,1.6l0,0l5,6c0.4,0.5,0.8,0.8,1.3,1.1
				c0.5,0.2,1.1,0.4,1.7,0.5l0,0v0.9h-4.3l-5.5-7c-0.2-0.3-0.4-0.5-0.5-0.6c-0.2-0.1-0.4-0.3-0.5-0.3s-0.4-0.1-0.7-0.2s-0.5,0-0.9,0
				l0,0v4.7c0,0.6,0,1,0.1,1.4c0.1,0.4,0.2,0.6,0.4,0.8s0.5,0.3,0.9,0.4c0.4,0.1,1,0.1,1.6,0.1l0,0v0.9h-7.9v-0.9
				c0.5,0,0.9-0.1,1.3-0.1c0.3-0.1,0.6-0.2,0.8-0.4s0.3-0.4,0.4-0.8c0.1-0.3,0.1-0.8,0.1-1.3l0,0v-10.5c0-0.5,0-0.9-0.1-1.3
				c-0.1-0.3-0.2-0.6-0.3-0.8c-0.2-0.2-0.4-0.3-0.7-0.4s-0.7-0.1-1.2-0.1l0,0v-0.9h7c2.1,0,3.7,0.4,4.8,1.1
				C182.7,135,183.3,136,183.3,137.4z M174.4,134.5v6.5h1.6c1.5,0,2.6-0.3,3.3-0.8c0.7-0.5,1.1-1.4,1.1-2.7l0,0
				c0-1.2-0.3-2.1-0.9-2.6c-0.6-0.5-1.5-0.8-2.7-0.8l0,0h-2.1C174.5,134.1,174.4,134.2,174.4,134.5L174.4,134.5z M193.3,138.2
				L193.3,138.2c0.9,0,1.7,0.2,2.4,0.5c0.8,0.3,1.4,0.7,2,1.3c0.6,0.5,1,1.2,1.4,1.9c0.3,0.7,0.5,1.6,0.5,2.4l0,0
				c0,0.9-0.2,1.7-0.5,2.5c-0.3,0.8-0.8,1.4-1.4,2c-0.6,0.6-1.2,1-2,1.3c-0.8,0.3-1.6,0.5-2.4,0.5l0,0c-0.8,0-1.6-0.2-2.4-0.5
				c-0.8-0.3-1.4-0.7-2-1.3c-0.6-0.6-1-1.2-1.3-2c-0.3-0.8-0.5-1.6-0.5-2.5l0,0c0-0.9,0.2-1.7,0.5-2.4c0.3-0.7,0.8-1.4,1.3-1.9
				c0.6-0.5,1.2-1,2-1.3C191.6,138.4,192.4,138.2,193.3,138.2z M193.3,139.3L193.3,139.3c-0.6,0-1.1,0.1-1.5,0.4
				c-0.5,0.2-0.8,0.6-1.2,1c-0.3,0.4-0.6,1-0.7,1.6s-0.3,1.3-0.3,2.1l0,0c0,0.8,0.1,1.5,0.3,2.1s0.4,1.2,0.7,1.6
				c0.3,0.4,0.7,0.8,1.2,1s1,0.4,1.5,0.4l0,0c0.6,0,1.1-0.1,1.5-0.4c0.5-0.2,0.9-0.6,1.2-1c0.3-0.4,0.6-1,0.8-1.6
				c0.2-0.6,0.3-1.3,0.3-2.1l0,0c0-0.7-0.1-1.4-0.3-2c-0.2-0.6-0.4-1.1-0.8-1.6c-0.3-0.4-0.7-0.8-1.2-1
				C194.4,139.4,193.8,139.3,193.3,139.3z M203,149.5l-0.4,0.8h-0.5v-3.9h0.6c0.6,2.1,1.6,3.2,3.2,3.2l0,0c0.6,0,1.1-0.1,1.4-0.4
				c0.4-0.3,0.5-0.7,0.5-1.3l0,0c0-0.2,0-0.4-0.1-0.6c-0.1-0.2-0.2-0.3-0.4-0.5c-0.2-0.2-0.4-0.4-0.8-0.6c-0.3-0.2-0.8-0.5-1.3-0.9
				l0,0c-0.5-0.3-0.9-0.6-1.3-0.9c-0.4-0.3-0.7-0.5-0.9-0.8s-0.4-0.6-0.6-0.9c-0.1-0.3-0.2-0.7-0.2-1.1l0,0c0-0.5,0.1-1,0.3-1.4
				c0.2-0.4,0.4-0.8,0.7-1.1c0.3-0.3,0.7-0.5,1.1-0.7c0.4-0.2,0.8-0.3,1.3-0.3l0,0c0.4,0,0.8,0.1,1.3,0.2c0.4,0.1,0.8,0.3,1.1,0.5
				l0,0l0.4-0.5h0.4v3.2h-0.6c-0.3-0.9-0.7-1.6-1.1-2c-0.4-0.4-0.9-0.6-1.4-0.6l0,0c-0.5,0-0.9,0.1-1.2,0.4
				c-0.3,0.3-0.5,0.6-0.5,1.1l0,0c0,0.3,0,0.5,0.1,0.7c0.1,0.2,0.2,0.4,0.4,0.5c0.2,0.2,0.4,0.4,0.7,0.5s0.6,0.4,1,0.6l0,0
				c0.6,0.4,1.2,0.8,1.6,1.1c0.5,0.3,0.8,0.6,1.1,0.9c0.3,0.3,0.5,0.6,0.6,1c0.1,0.3,0.2,0.7,0.2,1.1l0,0c0,1.1-0.3,1.9-1,2.5
				c-0.7,0.6-1.6,0.9-2.7,0.9l0,0C204.9,150.5,203.9,150.2,203,149.5L203,149.5z M213.2,149.5l-0.4,0.8h-0.5v-3.9h0.6
				c0.6,2.1,1.6,3.2,3.2,3.2l0,0c0.6,0,1.1-0.1,1.4-0.4c0.4-0.3,0.5-0.7,0.5-1.3l0,0c0-0.2,0-0.4-0.1-0.6c-0.1-0.2-0.2-0.3-0.4-0.5
				c-0.2-0.2-0.4-0.4-0.8-0.6c-0.3-0.2-0.8-0.5-1.3-0.9l0,0c-0.5-0.3-0.9-0.6-1.3-0.9c-0.4-0.3-0.7-0.5-0.9-0.8
				c-0.3-0.3-0.4-0.6-0.6-0.9c-0.1-0.3-0.2-0.7-0.2-1.1l0,0c0-0.5,0.1-1,0.3-1.4s0.4-0.8,0.7-1.1c0.3-0.3,0.7-0.5,1.1-0.7
				c0.4-0.2,0.8-0.3,1.3-0.3l0,0c0.4,0,0.8,0.1,1.3,0.2s0.8,0.3,1.1,0.5l0,0l0.4-0.5h0.4v3.2h-0.6c-0.3-0.9-0.7-1.6-1.1-2
				c-0.4-0.4-0.9-0.6-1.4-0.6l0,0c-0.5,0-0.9,0.1-1.2,0.4c-0.3,0.3-0.5,0.6-0.5,1.1l0,0c0,0.3,0,0.5,0.1,0.7
				c0.1,0.2,0.2,0.4,0.4,0.5c0.2,0.2,0.4,0.4,0.7,0.5c0.3,0.2,0.6,0.4,1,0.6l0,0c0.6,0.4,1.2,0.8,1.6,1.1c0.5,0.3,0.8,0.6,1.1,0.9
				c0.3,0.3,0.5,0.6,0.6,1c0.1,0.3,0.2,0.7,0.2,1.1l0,0c0,1.1-0.3,1.9-1,2.5c-0.7,0.6-1.6,0.9-2.7,0.9l0,0
				C215,150.5,214,150.2,213.2,149.5L213.2,149.5z M229.1,150.1l-0.3-5h0.8c0.1,0.7,0.3,1.3,0.6,1.8s0.7,1,1.1,1.4
				c0.4,0.4,0.9,0.7,1.5,0.9c0.6,0.2,1.2,0.3,1.9,0.3l0,0c1.1,0,2-0.3,2.6-0.8c0.6-0.5,1-1.2,1-2.1l0,0c0-0.4-0.1-0.7-0.2-1
				c-0.1-0.3-0.3-0.6-0.6-0.9c-0.3-0.3-0.7-0.6-1.2-0.9c-0.5-0.3-1.1-0.6-1.9-0.9l0,0c-0.9-0.4-1.7-0.8-2.3-1.2
				c-0.6-0.4-1.1-0.8-1.5-1.2c-0.4-0.4-0.6-0.8-0.8-1.3c-0.2-0.5-0.2-1-0.2-1.6l0,0c0-0.7,0.1-1.3,0.4-1.9c0.2-0.6,0.6-1.1,1-1.5
				c0.4-0.4,1-0.8,1.6-1c0.6-0.2,1.3-0.3,2-0.3l0,0c0.7,0,1.3,0.1,1.8,0.3c0.6,0.2,1.1,0.5,1.7,1l0,0l0.6-1h0.5l0.2,4.5h-0.8
				c-0.4-1.2-0.9-2.1-1.6-2.7c-0.7-0.6-1.5-0.9-2.5-0.9l0,0c-0.9,0-1.6,0.2-2.2,0.7c-0.5,0.4-0.8,1.1-0.8,1.8l0,0
				c0,0.4,0.1,0.7,0.2,1c0.1,0.3,0.3,0.6,0.6,0.8c0.3,0.3,0.6,0.5,1.1,0.8c0.4,0.3,1,0.5,1.6,0.8l0,0c1.1,0.5,2,1,2.8,1.4
				c0.7,0.4,1.3,0.9,1.7,1.3c0.4,0.4,0.7,0.9,0.9,1.3c0.2,0.5,0.3,1,0.3,1.6l0,0c0,0.7-0.1,1.4-0.4,2.1c-0.3,0.6-0.7,1.2-1.3,1.6
				c-0.5,0.4-1.2,0.8-1.9,1c-0.7,0.2-1.6,0.4-2.5,0.4l0,0c-0.9,0-1.6-0.1-2.3-0.4c-0.7-0.2-1.4-0.6-2.1-1.2l0,0l-0.6,1.1H229.1z
				 M244.1,139.8h-1.3V139c0.8-0.5,1.4-0.9,1.9-1.4c0.4-0.5,0.8-1,1-1.7l0,0h0.7v2.8h3v1.1h-3v6.8c0,0.5,0,1,0.1,1.3
				c0.1,0.4,0.1,0.6,0.3,0.9c0.1,0.2,0.3,0.4,0.5,0.5c0.2,0.1,0.4,0.1,0.7,0.1l0,0c0.4,0,0.7-0.1,1-0.2c0.3-0.2,0.5-0.4,0.8-0.8l0,0
				l0.6,0.4c-0.2,0.6-0.6,1-1.1,1.3c-0.5,0.3-1.2,0.4-1.9,0.4l0,0c-1,0-1.7-0.2-2.3-0.7c-0.5-0.5-0.8-1.1-0.8-2l0,0V139.8z
				 M261.3,147.6l0.7,0.6c-1.3,1.5-2.8,2.3-4.7,2.3l0,0c-0.9,0-1.7-0.1-2.4-0.4c-0.7-0.3-1.3-0.7-1.9-1.2c-0.5-0.5-0.9-1.2-1.2-1.9
				c-0.3-0.7-0.4-1.6-0.4-2.5l0,0c0-0.9,0.1-1.8,0.4-2.5c0.3-0.8,0.7-1.4,1.3-2c0.5-0.6,1.2-1,2-1.3c0.8-0.3,1.6-0.5,2.5-0.5l0,0
				c1.5,0,2.6,0.4,3.4,1.2c0.8,0.8,1.2,1.9,1.2,3.4l0,0c0,0.2,0,0.3-0.1,0.4c-0.1,0-0.3,0.1-0.6,0.1l0,0H254c0,0.1-0.1,0.3-0.1,0.4
				s0,0.4,0,0.6l0,0c0,0.8,0.1,1.5,0.3,2.1c0.2,0.6,0.5,1.2,0.8,1.6c0.4,0.4,0.8,0.8,1.3,1c0.5,0.2,1,0.4,1.6,0.4l0,0
				c0.6,0,1.2-0.1,1.7-0.4S260.7,148.2,261.3,147.6L261.3,147.6z M254.2,142.2h4.1c0.3,0,0.5,0,0.7,0s0.3,0,0.4-0.1s0.1-0.1,0.2-0.2
				c0-0.1,0-0.2,0-0.3l0,0c0-0.7-0.2-1.2-0.7-1.6c-0.4-0.4-1-0.6-1.8-0.6l0,0C255.6,139.3,254.6,140.3,254.2,142.2L254.2,142.2z
				 M269,150.6l-3.8-9.4c-0.2-0.4-0.3-0.8-0.5-1.1c-0.1-0.3-0.3-0.5-0.5-0.6s-0.3-0.2-0.5-0.3c-0.2,0-0.4-0.1-0.7-0.1l0,0v-0.8h5.9
				v0.8c-0.3,0-0.5,0-0.7,0c-0.2,0-0.3,0-0.5,0.1c-0.1,0.1-0.2,0.1-0.2,0.2s-0.1,0.2-0.1,0.4l0,0c0,0.3,0,0.5,0.1,0.7
				c0.1,0.2,0.1,0.4,0.2,0.7l0,0l2.4,6.5h0.1l2-4.8c0.3-0.7,0.5-1.3,0.7-1.8c0.1-0.4,0.2-0.8,0.2-1.2l0,0c0-0.3-0.1-0.6-0.3-0.7
				c-0.2-0.1-0.6-0.2-1.2-0.2l0,0v-0.8h4.5v0.8c-0.2,0-0.5,0.1-0.7,0.2c-0.2,0.1-0.4,0.3-0.5,0.4l0,0c-0.1,0.2-0.2,0.4-0.4,0.7
				c-0.1,0.3-0.3,0.6-0.4,0.9c-0.1,0.3-0.2,0.6-0.3,0.9s-0.2,0.5-0.3,0.7l0,0l-3.3,7.6H269z M287,147.6l0.7,0.6
				c-1.3,1.5-2.8,2.3-4.7,2.3l0,0c-0.9,0-1.7-0.1-2.4-0.4c-0.7-0.3-1.3-0.7-1.9-1.2s-0.9-1.2-1.2-1.9c-0.3-0.7-0.4-1.6-0.4-2.5l0,0
				c0-0.9,0.1-1.8,0.4-2.5c0.3-0.8,0.7-1.4,1.3-2c0.5-0.6,1.2-1,2-1.3c0.8-0.3,1.6-0.5,2.5-0.5l0,0c1.5,0,2.6,0.4,3.4,1.2
				c0.8,0.8,1.2,1.9,1.2,3.4l0,0c0,0.2,0,0.3-0.1,0.4s-0.3,0.1-0.6,0.1l0,0h-7.4c0,0.1-0.1,0.3-0.1,0.4c0,0.2,0,0.4,0,0.6l0,0
				c0,0.8,0.1,1.5,0.3,2.1s0.5,1.2,0.8,1.6c0.4,0.4,0.8,0.8,1.3,1s1,0.4,1.6,0.4l0,0c0.6,0,1.2-0.1,1.7-0.4S286.5,148.2,287,147.6
				L287,147.6z M279.9,142.2h4.1c0.3,0,0.5,0,0.7,0c0.2,0,0.3,0,0.4-0.1s0.1-0.1,0.2-0.2s0-0.2,0-0.3l0,0c0-0.7-0.2-1.2-0.7-1.6
				c-0.4-0.4-1-0.6-1.8-0.6l0,0C281.3,139.3,280.3,140.3,279.9,142.2L279.9,142.2z M293.7,143.8v3c0,0.6,0,1.1,0,1.4
				c0,0.4,0.1,0.6,0.2,0.8s0.3,0.3,0.6,0.4s0.6,0.1,1,0.1l0,0v0.8h-5.9v-0.8c0.4,0,0.8-0.1,1-0.1s0.4-0.2,0.6-0.4s0.2-0.4,0.3-0.8
				c0-0.3,0.1-0.8,0.1-1.3l0,0v-3c0-1.8,0-2.9-0.1-3.3l0,0c0-0.2-0.1-0.4-0.2-0.5c-0.1-0.1-0.2-0.2-0.3-0.3
				c-0.1-0.1-0.3-0.1-0.5-0.1c-0.2,0-0.5,0-0.8,0l0,0v-0.7l3.6-0.9l0.3,2.2h0.1c0.6-0.7,1.2-1.2,2-1.6c0.8-0.4,1.6-0.6,2.5-0.6l0,0
				c0.7,0,1.3,0.1,1.9,0.3c0.6,0.2,1,0.5,1.3,0.9l0,0c0.3,0.3,0.4,0.8,0.5,1.3s0.2,1.3,0.2,2.3l0,0v3.7c0,0.6,0,1.1,0.1,1.4
				c0,0.4,0.1,0.6,0.2,0.8c0.1,0.2,0.3,0.3,0.5,0.4c0.2,0.1,0.6,0.1,1,0.1l0,0v0.8H298v-0.8c0.4,0,0.8-0.1,1-0.1s0.4-0.2,0.6-0.4
				c0.1-0.2,0.2-0.4,0.2-0.8c0-0.3,0.1-0.8,0.1-1.3l0,0v-3c0-0.9,0-1.6-0.1-2.2c-0.1-0.6-0.2-1.1-0.4-1.4c-0.2-0.4-0.5-0.6-0.8-0.8
				c-0.3-0.2-0.7-0.2-1.2-0.2l0,0c-0.7,0-1.3,0.2-1.9,0.5c-0.6,0.4-1,0.8-1.3,1.4l0,0c-0.1,0.1-0.1,0.3-0.2,0.4
				c-0.1,0.1-0.1,0.3-0.1,0.5c0,0.2-0.1,0.4-0.1,0.6S293.7,143.4,293.7,143.8L293.7,143.8z M325.5,137.4L325.5,137.4
				c0,1.2-0.4,2.2-1.1,3c-0.7,0.8-1.9,1.3-3.4,1.6l0,0l5,6c0.4,0.5,0.8,0.8,1.3,1.1s1.1,0.4,1.7,0.5l0,0v0.9h-4.3l-5.5-7
				c-0.2-0.3-0.4-0.5-0.5-0.6c-0.2-0.1-0.4-0.3-0.5-0.3c-0.2-0.1-0.4-0.1-0.7-0.2s-0.5,0-0.9,0l0,0v4.7c0,0.6,0,1,0.1,1.4
				c0.1,0.4,0.2,0.6,0.4,0.8s0.5,0.3,0.9,0.4c0.4,0.1,1,0.1,1.6,0.1l0,0v0.9h-7.9v-0.9c0.5,0,0.9-0.1,1.3-0.1
				c0.3-0.1,0.6-0.2,0.8-0.4s0.3-0.4,0.4-0.8c0.1-0.3,0.1-0.8,0.1-1.3l0,0v-10.5c0-0.5,0-0.9-0.1-1.3c-0.1-0.3-0.2-0.6-0.3-0.8
				c-0.2-0.2-0.4-0.3-0.7-0.4c-0.3-0.1-0.7-0.1-1.2-0.1l0,0v-0.9h7c2.1,0,3.7,0.4,4.8,1.1C325,135,325.5,136,325.5,137.4z
				 M316.6,134.5v6.5h1.6c1.5,0,2.6-0.3,3.3-0.8c0.7-0.5,1.1-1.4,1.1-2.7l0,0c0-1.2-0.3-2.1-0.9-2.6s-1.5-0.8-2.7-0.8l0,0H317
				C316.7,134.1,316.6,134.2,316.6,134.5L316.6,134.5z M335.5,138.2L335.5,138.2c0.9,0,1.7,0.2,2.4,0.5c0.8,0.3,1.4,0.7,2,1.3
				c0.6,0.5,1,1.2,1.4,1.9c0.3,0.7,0.5,1.6,0.5,2.4l0,0c0,0.9-0.2,1.7-0.5,2.5c-0.3,0.8-0.8,1.4-1.4,2c-0.6,0.6-1.2,1-2,1.3
				c-0.8,0.3-1.6,0.5-2.4,0.5l0,0c-0.8,0-1.6-0.2-2.4-0.5c-0.8-0.3-1.4-0.7-2-1.3s-1-1.2-1.3-2c-0.3-0.8-0.5-1.6-0.5-2.5l0,0
				c0-0.9,0.2-1.7,0.5-2.4c0.3-0.7,0.8-1.4,1.3-1.9c0.6-0.5,1.2-1,2-1.3C333.9,138.4,334.7,138.2,335.5,138.2z M335.5,139.3
				L335.5,139.3c-0.6,0-1.1,0.1-1.5,0.4c-0.5,0.2-0.8,0.6-1.2,1c-0.3,0.4-0.6,1-0.7,1.6c-0.2,0.6-0.3,1.3-0.3,2.1l0,0
				c0,0.8,0.1,1.5,0.3,2.1c0.2,0.6,0.4,1.2,0.7,1.6c0.3,0.4,0.7,0.8,1.2,1c0.4,0.2,1,0.4,1.5,0.4l0,0c0.6,0,1.1-0.1,1.5-0.4
				c0.5-0.2,0.9-0.6,1.2-1c0.3-0.4,0.6-1,0.8-1.6c0.2-0.6,0.3-1.3,0.3-2.1l0,0c0-0.7-0.1-1.4-0.3-2c-0.2-0.6-0.4-1.1-0.8-1.6
				c-0.3-0.4-0.7-0.8-1.2-1C336.6,139.4,336.1,139.3,335.5,139.3z M345.3,149.5l-0.4,0.8h-0.5v-3.9h0.6c0.6,2.1,1.6,3.2,3.2,3.2l0,0
				c0.6,0,1.1-0.1,1.4-0.4c0.4-0.3,0.5-0.7,0.5-1.3l0,0c0-0.2,0-0.4-0.1-0.6c-0.1-0.2-0.2-0.3-0.4-0.5c-0.2-0.2-0.4-0.4-0.8-0.6
				c-0.3-0.2-0.8-0.5-1.3-0.9l0,0c-0.5-0.3-0.9-0.6-1.3-0.9c-0.4-0.3-0.7-0.5-0.9-0.8c-0.3-0.3-0.4-0.6-0.6-0.9
				c-0.1-0.3-0.2-0.7-0.2-1.1l0,0c0-0.5,0.1-1,0.3-1.4s0.4-0.8,0.7-1.1c0.3-0.3,0.7-0.5,1.1-0.7c0.4-0.2,0.8-0.3,1.3-0.3l0,0
				c0.4,0,0.8,0.1,1.3,0.2c0.4,0.1,0.8,0.3,1.1,0.5l0,0l0.4-0.5h0.4v3.2h-0.6c-0.3-0.9-0.7-1.6-1.1-2c-0.4-0.4-0.9-0.6-1.4-0.6l0,0
				c-0.5,0-0.9,0.1-1.2,0.4c-0.3,0.3-0.5,0.6-0.5,1.1l0,0c0,0.3,0,0.5,0.1,0.7c0.1,0.2,0.2,0.4,0.4,0.5c0.2,0.2,0.4,0.4,0.7,0.5
				c0.3,0.2,0.6,0.4,1,0.6l0,0c0.6,0.4,1.2,0.8,1.6,1.1c0.5,0.3,0.8,0.6,1.1,0.9c0.3,0.3,0.5,0.6,0.6,1c0.1,0.3,0.2,0.7,0.2,1.1l0,0
				c0,1.1-0.3,1.9-1,2.5c-0.7,0.6-1.6,0.9-2.7,0.9l0,0C347.1,150.5,346.1,150.2,345.3,149.5L345.3,149.5z M355.5,149.5l-0.4,0.8
				h-0.5v-3.9h0.6c0.6,2.1,1.6,3.2,3.2,3.2l0,0c0.6,0,1.1-0.1,1.4-0.4c0.4-0.3,0.5-0.7,0.5-1.3l0,0c0-0.2,0-0.4-0.1-0.6
				c-0.1-0.2-0.2-0.3-0.4-0.5c-0.2-0.2-0.4-0.4-0.8-0.6c-0.3-0.2-0.8-0.5-1.3-0.9l0,0c-0.5-0.3-0.9-0.6-1.3-0.9
				c-0.4-0.3-0.7-0.5-0.9-0.8s-0.4-0.6-0.6-0.9c-0.1-0.3-0.2-0.7-0.2-1.1l0,0c0-0.5,0.1-1,0.3-1.4c0.2-0.4,0.4-0.8,0.7-1.1
				c0.3-0.3,0.7-0.5,1.1-0.7c0.4-0.2,0.8-0.3,1.3-0.3l0,0c0.4,0,0.8,0.1,1.3,0.2c0.4,0.1,0.8,0.3,1.1,0.5l0,0l0.4-0.5h0.4v3.2h-0.6
				c-0.3-0.9-0.7-1.6-1.1-2c-0.4-0.4-0.9-0.6-1.4-0.6l0,0c-0.5,0-0.9,0.1-1.2,0.4c-0.3,0.3-0.5,0.6-0.5,1.1l0,0c0,0.3,0,0.5,0.1,0.7
				c0.1,0.2,0.2,0.4,0.4,0.5c0.2,0.2,0.4,0.4,0.7,0.5c0.3,0.2,0.6,0.4,1,0.6l0,0c0.6,0.4,1.2,0.8,1.6,1.1c0.5,0.3,0.8,0.6,1.1,0.9
				c0.3,0.3,0.5,0.6,0.6,1c0.1,0.3,0.2,0.7,0.2,1.1l0,0c0,1.1-0.3,1.9-1,2.5c-0.7,0.6-1.6,0.9-2.7,0.9l0,0
				C357.3,150.5,356.3,150.2,355.5,149.5L355.5,149.5z M372.1,131.9h1.8v24h-1.8V131.9z M388.8,132.8v13.9c0,0.6,0,1.1,0.1,1.4
				c0.1,0.4,0.2,0.6,0.3,0.8c0.2,0.2,0.4,0.3,0.7,0.4c0.3,0.1,0.7,0.1,1.2,0.1l0,0v0.9h-6.9v-0.9c0.5,0,0.9-0.1,1.2-0.1
				c0.3-0.1,0.5-0.2,0.7-0.4c0.2-0.2,0.3-0.4,0.3-0.8c0.1-0.3,0.1-0.8,0.1-1.3l0,0v-8.2c0-0.9,0-1.6,0-2.2s0-0.9-0.1-1.1l0,0
				c-0.1-0.3-0.3-0.5-0.7-0.6s-0.9-0.1-1.7-0.1l0,0v-0.9c0.7,0,1.5-0.1,2.3-0.3S388.1,133.1,388.8,132.8L388.8,132.8z M402.3,145.5
				L402.3,145.5c0-1.2-0.3-2.2-0.8-2.9c-0.5-0.7-1.2-1-2.1-1l0,0c-0.2,0.1-0.5,0.2-0.8,0.3s-0.5,0.1-0.8,0.1l0,0
				c-0.3,0-0.5-0.1-0.7-0.2s-0.3-0.3-0.3-0.5l0,0c0-0.2,0.1-0.4,0.3-0.5c0.2-0.1,0.4-0.2,0.7-0.2l0,0c0.2,0,0.4,0,0.7,0.1
				c0.2,0,0.5,0.1,0.7,0.2l0,0c0.8,0,1.5-0.4,1.9-1.1c0.5-0.7,0.7-1.7,0.7-2.9l0,0c0-2.1-0.9-3.1-2.6-3.1l0,0
				c-0.8,0-1.4,0.2-1.9,0.5c-0.5,0.4-0.7,0.9-0.7,1.5l0,0c0,0.5,0.1,0.9,0.4,1.2c0.3,0.3,0.7,0.5,1.2,0.5l0,0
				c-0.1,0.3-0.3,0.5-0.5,0.6c-0.3,0.2-0.6,0.2-1,0.2l0,0c-0.3,0-0.6-0.1-0.9-0.2c-0.3-0.1-0.5-0.3-0.7-0.5
				c-0.2-0.2-0.4-0.5-0.5-0.8c-0.1-0.3-0.2-0.6-0.2-0.9l0,0c0-0.5,0.1-0.9,0.3-1.3c0.2-0.4,0.6-0.7,1-1c0.4-0.3,0.9-0.5,1.5-0.6
				s1.2-0.2,2-0.2l0,0c0.8,0,1.5,0.1,2.2,0.3c0.7,0.2,1.2,0.5,1.7,0.8c0.5,0.3,0.8,0.8,1.1,1.3c0.3,0.5,0.4,1,0.4,1.6l0,0
				c0,0.5-0.1,1-0.3,1.4s-0.4,0.9-0.7,1.2c-0.3,0.4-0.7,0.7-1.1,0.9c-0.4,0.3-0.8,0.4-1.3,0.6l0,0v0.1c0.6,0.1,1.1,0.4,1.5,0.7
				c0.5,0.3,0.9,0.6,1.2,1c0.3,0.4,0.6,0.8,0.8,1.3c0.2,0.5,0.3,1,0.3,1.6l0,0c0,0.7-0.1,1.3-0.4,1.9c-0.3,0.6-0.7,1.1-1.2,1.5
				c-0.5,0.4-1.1,0.8-1.9,1c-0.7,0.2-1.5,0.4-2.4,0.4l0,0c-0.8,0-1.5-0.1-2.1-0.3c-0.7-0.2-1.2-0.5-1.7-0.8
				c-0.5-0.4-0.9-0.8-1.1-1.3c-0.3-0.5-0.4-1-0.4-1.6l0,0c0-0.4,0.1-0.8,0.2-1.1c0.1-0.3,0.3-0.6,0.5-0.9c0.2-0.3,0.5-0.5,0.8-0.6
				c0.3-0.1,0.7-0.2,1-0.2l0,0c0.4,0,0.8,0.1,1.1,0.3c0.3,0.2,0.5,0.4,0.6,0.7l0,0c-0.6,0-1,0.2-1.4,0.6c-0.4,0.4-0.5,0.9-0.5,1.6
				l0,0c0,0.8,0.3,1.4,0.8,1.9c0.5,0.5,1.2,0.7,2.1,0.7l0,0c1,0,1.8-0.3,2.4-1C402,147.8,402.3,146.8,402.3,145.5z M421.8,150.3
				h-8.1v-0.9c0.6,0,1.1-0.1,1.4-0.1c0.4-0.1,0.6-0.2,0.8-0.4c0.2-0.2,0.3-0.4,0.4-0.8c0.1-0.3,0.1-0.8,0.1-1.3l0,0v-10.5
				c0-0.5,0-0.9-0.1-1.3c-0.1-0.3-0.2-0.6-0.3-0.8c-0.2-0.2-0.4-0.3-0.7-0.4s-0.7-0.1-1.2-0.1l0,0v-0.9h6.7c2,0,3.6,0.4,4.7,1.1
				c1.1,0.7,1.7,1.7,1.7,3l0,0c0,1-0.3,1.8-0.9,2.4c-0.6,0.6-1.6,1.1-2.9,1.5l0,0v0.1c0.5,0,0.9,0.1,1.2,0.2
				c0.3,0.1,0.7,0.1,0.9,0.2c0.3,0.1,0.5,0.2,0.8,0.3c0.2,0.1,0.5,0.3,0.7,0.4l0,0c1.3,0.9,2,2.1,2,3.5l0,0c0,0.8-0.2,1.5-0.7,2.2
				c-0.4,0.7-1.1,1.2-1.9,1.6l0,0c-0.3,0.1-0.5,0.2-0.8,0.3c-0.3,0.1-0.6,0.1-0.9,0.2s-0.8,0.1-1.2,0.1
				C423,150.3,422.5,150.3,421.8,150.3L421.8,150.3z M421.9,149.4L421.9,149.4c2.7,0,4.1-1.2,4.1-3.5l0,0c0-1.7-0.7-2.9-2.1-3.5l0,0
				c-0.2-0.1-0.5-0.2-0.7-0.3s-0.5-0.1-0.8-0.2c-0.3,0-0.7-0.1-1.1-0.1c-0.4,0-0.9,0-1.5,0l0,0h-1v5c0,0.9,0.2,1.6,0.7,2
				C420,149.2,420.8,149.4,421.9,149.4z M418.8,140.7h1.3c0.5,0,0.9,0,1.2,0c0.3,0,0.6,0,0.8-0.1s0.4-0.1,0.6-0.2s0.3-0.2,0.5-0.3
				l0,0c0.5-0.3,0.8-0.7,1-1.1c0.2-0.4,0.3-1,0.3-1.6l0,0c0-1.2-0.3-2-0.9-2.5s-1.5-0.8-2.7-0.8l0,0h-1.7c-0.3,0-0.4,0.1-0.4,0.4
				l0,0V140.7z M437.4,138.2L437.4,138.2c0.9,0,1.7,0.2,2.4,0.5c0.8,0.3,1.4,0.7,2,1.3c0.6,0.5,1,1.2,1.4,1.9s0.5,1.6,0.5,2.4l0,0
				c0,0.9-0.2,1.7-0.5,2.5s-0.8,1.4-1.4,2c-0.6,0.6-1.2,1-2,1.3c-0.8,0.3-1.6,0.5-2.4,0.5l0,0c-0.8,0-1.6-0.2-2.4-0.5
				c-0.8-0.3-1.4-0.7-2-1.3s-1-1.2-1.3-2c-0.3-0.8-0.5-1.6-0.5-2.5l0,0c0-0.9,0.2-1.7,0.5-2.4c0.3-0.7,0.8-1.4,1.3-1.9
				c0.6-0.5,1.2-1,2-1.3C435.8,138.4,436.6,138.2,437.4,138.2z M437.4,139.3L437.4,139.3c-0.6,0-1.1,0.1-1.5,0.4
				c-0.5,0.2-0.8,0.6-1.2,1c-0.3,0.4-0.6,1-0.7,1.6c-0.2,0.6-0.3,1.3-0.3,2.1l0,0c0,0.8,0.1,1.5,0.3,2.1c0.2,0.6,0.4,1.2,0.7,1.6
				c0.3,0.4,0.7,0.8,1.2,1c0.4,0.2,1,0.4,1.5,0.4l0,0c0.6,0,1.1-0.1,1.5-0.4c0.5-0.2,0.9-0.6,1.2-1c0.3-0.4,0.6-1,0.8-1.6
				c0.2-0.6,0.3-1.3,0.3-2.1l0,0c0-0.7-0.1-1.4-0.3-2c-0.2-0.6-0.4-1.1-0.8-1.6c-0.3-0.4-0.7-0.8-1.2-1
				C438.5,139.4,438,139.3,437.4,139.3z M449.6,143.8v3c0,0.6,0,1.1,0,1.4c0,0.4,0.1,0.6,0.2,0.8c0.1,0.2,0.3,0.3,0.6,0.4
				c0.2,0.1,0.6,0.1,1,0.1l0,0v0.8h-5.9v-0.8c0.4,0,0.8-0.1,1-0.1c0.2-0.1,0.4-0.2,0.6-0.4c0.1-0.2,0.2-0.4,0.3-0.8
				c0-0.3,0.1-0.8,0.1-1.3l0,0v-3c0-1.8,0-2.9-0.1-3.3l0,0c0-0.2-0.1-0.4-0.2-0.5s-0.2-0.2-0.3-0.3c-0.1-0.1-0.3-0.1-0.5-0.1
				s-0.5,0-0.8,0l0,0v-0.7l3.6-0.9l0.3,2.2h0.1c0.6-0.7,1.2-1.2,2-1.6c0.8-0.4,1.6-0.6,2.5-0.6l0,0c0.7,0,1.3,0.1,1.9,0.3
				c0.6,0.2,1,0.5,1.3,0.9l0,0c0.3,0.3,0.4,0.8,0.5,1.3c0.1,0.5,0.2,1.3,0.2,2.3l0,0v3.7c0,0.6,0,1.1,0.1,1.4c0,0.4,0.1,0.6,0.2,0.8
				c0.1,0.2,0.3,0.3,0.5,0.4c0.2,0.1,0.6,0.1,1,0.1l0,0v0.8h-5.8v-0.8c0.4,0,0.8-0.1,1-0.1s0.4-0.2,0.6-0.4s0.2-0.4,0.2-0.8
				c0-0.3,0.1-0.8,0.1-1.3l0,0v-3c0-0.9,0-1.6-0.1-2.2s-0.2-1.1-0.4-1.4c-0.2-0.4-0.5-0.6-0.8-0.8c-0.3-0.2-0.7-0.2-1.2-0.2l0,0
				c-0.7,0-1.3,0.2-1.9,0.5c-0.6,0.4-1,0.8-1.3,1.4l0,0c-0.1,0.1-0.1,0.3-0.2,0.4c-0.1,0.1-0.1,0.3-0.1,0.5c0,0.2-0.1,0.4-0.1,0.6
				C449.6,143.1,449.6,143.4,449.6,143.8L449.6,143.8z M471.2,147.6l0.7,0.6c-1.3,1.5-2.8,2.3-4.7,2.3l0,0c-0.9,0-1.7-0.1-2.4-0.4
				c-0.7-0.3-1.3-0.7-1.9-1.2s-0.9-1.2-1.2-1.9s-0.4-1.6-0.4-2.5l0,0c0-0.9,0.1-1.8,0.4-2.5c0.3-0.8,0.7-1.4,1.3-2
				c0.5-0.6,1.2-1,2-1.3c0.8-0.3,1.6-0.5,2.5-0.5l0,0c1.5,0,2.6,0.4,3.4,1.2c0.8,0.8,1.2,1.9,1.2,3.4l0,0c0,0.2,0,0.3-0.1,0.4
				c-0.1,0-0.3,0.1-0.6,0.1l0,0H464c0,0.1-0.1,0.3-0.1,0.4s0,0.4,0,0.6l0,0c0,0.8,0.1,1.5,0.3,2.1c0.2,0.6,0.5,1.2,0.8,1.6
				c0.4,0.4,0.8,0.8,1.3,1c0.5,0.2,1,0.4,1.6,0.4l0,0c0.6,0,1.2-0.1,1.7-0.4S470.7,148.2,471.2,147.6L471.2,147.6z M464.1,142.2h4.1
				c0.3,0,0.5,0,0.7,0c0.2,0,0.3,0,0.4-0.1c0.1,0,0.1-0.1,0.2-0.2c0-0.1,0-0.2,0-0.3l0,0c0-0.7-0.2-1.2-0.7-1.6
				c-0.4-0.4-1-0.6-1.8-0.6l0,0C465.5,139.3,464.5,140.3,464.1,142.2L464.1,142.2z M484.6,146.8l-0.4,3.5h-10.8v-0.1l7.8-10.9h-2.5
				c-0.6,0-1.2,0-1.6,0.1c-0.4,0.1-0.7,0.2-1,0.3s-0.5,0.4-0.6,0.7c-0.1,0.3-0.2,0.6-0.3,1.1l0,0h-0.7l0.4-3.1h9.6v0.1l-7.6,10.8
				h2.6c0.8,0,1.4,0,1.9-0.1c0.5-0.1,0.9-0.2,1.2-0.4c0.3-0.2,0.6-0.4,0.8-0.7c0.2-0.3,0.3-0.7,0.5-1.3l0,0H484.6z"/>
		</g>
	</g>
	<g transform="rotate(0 164.994 0)">
		<g transform="matrix(1 0 0 1 0 0)">
			<g>
				<path class="st0" d="M323.7,46.3c6,1.7,10.9,2.5,16.2-0.4C335.6,42.2,329.5,42.1,323.7,46.3z"/>
				<path class="st0" d="M539-68.2"/>
				<path class="st0" d="M189,46.3c-5.8-4.1-11.9-4.1-16.2-0.4C178.1,48.8,183,48,189,46.3z"/>
				<path class="st0" d="M198.1,65.6C198.1,65.6,198.1,65.6,198.1,65.6L198.1,65.6C198.1,65.7,198.1,65.6,198.1,65.6z"/>
				<path class="st0" d="M539-68.2"/>
			</g>
		</g>
	</g>
</g>
</svg>
