<?xml version="1.0" encoding="utf-8"?><svg xmlns="http://www.w3.org/2000/svg" xmlns:xlink="http://www.w3.org/1999/xlink" width="1278" height="1287" preserveAspectRatio="xMidYMid" viewBox="0 0 1278 1287" style="z-index:1;margin-right:-2px;display:block;background-repeat-y:initial;background-repeat-x:initial;background-color:rgb(177, 0, 0);animation-play-state:paused" ><g transform="" style="animation-play-state:paused" ><g transform="translate(639 643.5)" style="transform:matrix(1, 0, 0, 1, 639, 643.5);animation-play-state:paused" ><g transform="matrix(1,0,0,1,0,0)" style="transform:matrix(1, 0, 0, 1, 0, 0);animation-play-state:paused" ><path d="M0 0L965.25 0 L907.0383022135981 330.1349433451017 Z" fill="#ff0000" style="animation-play-state:paused" ></path>
<path d="M0 0L739.4243987205936 620.450740249932 L482.6250000000001 835.9310210029294 Z" fill="#ff0000" style="animation-play-state:paused" ></path>
<path d="M0 0L167.61390349300459 950.5856835950337 L-167.61390349300447 950.5856835950337 Z" fill="#ff0000" style="animation-play-state:paused" ></path>
<path d="M0 0L-482.6249999999998 835.9310210029295 L-739.4243987205934 620.4507402499322 Z" fill="#ff0000" style="animation-play-state:paused" ></path>
<path d="M0 0L-907.0383022135981 330.1349433451019 L-965.25 1.1820903228769826e-13 Z" fill="#ff0000" style="animation-play-state:paused" ></path>
<path d="M0 0L-907.0383022135981 -330.13494334510165 L-739.4243987205939 -620.4507402499316 Z" fill="#ff0000" style="animation-play-state:paused" ></path>
<path d="M0 0L-482.62500000000045 -835.9310210029292 L-167.6139034930045 -950.5856835950337 Z" fill="#ff0000" style="animation-play-state:paused" ></path>
<path d="M0 0L167.61390349300416 -950.5856835950339 L482.6249999999994 -835.9310210029298 Z" fill="#ff0000" style="animation-play-state:paused" ></path>
<path d="M0 0L739.4243987205933 -620.4507402499323 L907.0383022135981 -330.1349433451016 Z" fill="#ff0000" style="animation-play-state:paused" ></path>
<circle cx="0" cy="0" r="408.96000000000004" fill="#ff0000" style="animation-play-state:paused" ></circle></g></g></g></svg>